%TF.GenerationSoftware,KiCad,Pcbnew,(6.0.11)*%
%TF.CreationDate,2023-03-05T15:40:12+01:00*%
%TF.ProjectId,OBSPro,4f425350-726f-42e6-9b69-6361645f7063,rev?*%
%TF.SameCoordinates,PX7270e00PY2255100*%
%TF.FileFunction,Copper,L3,Inr*%
%TF.FilePolarity,Positive*%
%FSLAX46Y46*%
G04 Gerber Fmt 4.6, Leading zero omitted, Abs format (unit mm)*
G04 Created by KiCad (PCBNEW (6.0.11)) date 2023-03-05 15:40:12*
%MOMM*%
%LPD*%
G01*
G04 APERTURE LIST*
%ADD10C,0.300000*%
%TA.AperFunction,NonConductor*%
%ADD11C,0.300000*%
%TD*%
%TA.AperFunction,ComponentPad*%
%ADD12R,1.700000X1.700000*%
%TD*%
%TA.AperFunction,ComponentPad*%
%ADD13O,1.700000X1.700000*%
%TD*%
%TA.AperFunction,ComponentPad*%
%ADD14O,2.500000X1.500000*%
%TD*%
%TA.AperFunction,ComponentPad*%
%ADD15R,2.000000X2.000000*%
%TD*%
%TA.AperFunction,ComponentPad*%
%ADD16C,2.000000*%
%TD*%
%TA.AperFunction,HeatsinkPad*%
%ADD17C,0.475000*%
%TD*%
%TA.AperFunction,ViaPad*%
%ADD18C,0.800000*%
%TD*%
%TA.AperFunction,Conductor*%
%ADD19C,0.200000*%
%TD*%
G04 APERTURE END LIST*
D10*
D11*
X19200000Y-81378571D02*
X20128571Y-81378571D01*
X19628571Y-81950000D01*
X19842857Y-81950000D01*
X19985714Y-82021428D01*
X20057142Y-82092857D01*
X20128571Y-82235714D01*
X20128571Y-82592857D01*
X20057142Y-82735714D01*
X19985714Y-82807142D01*
X19842857Y-82878571D01*
X19414285Y-82878571D01*
X19271428Y-82807142D01*
X19200000Y-82735714D01*
D12*
%TO.N,+3V3*%
%TO.C,J4*%
X10600000Y-22300000D03*
D13*
%TO.N,/Sensors/SWIM1*%
X10600000Y-19760000D03*
%TO.N,/Sensors/SWIM2*%
X10600000Y-17220000D03*
%TO.N,/Sensors/NRST1*%
X10600000Y-14680000D03*
%TO.N,/Sensors/NRST2*%
X10600000Y-12140000D03*
%TO.N,GND*%
X10600000Y-9600000D03*
%TD*%
D14*
%TO.N,+3V3*%
%TO.C,J2*%
X13600000Y-36100000D03*
%TO.N,/Controller/SCL*%
X13600000Y-33560000D03*
%TO.N,/Controller/BUTTON*%
X13600000Y-31020000D03*
%TO.N,GND*%
X13600000Y-28480000D03*
%TO.N,/Controller/SDA*%
X13600000Y-25940000D03*
%TD*%
D15*
%TO.N,Net-(LS1-Pad1)*%
%TO.C,LS1*%
X65400000Y-77700000D03*
D16*
%TO.N,Net-(LS1-Pad2)*%
X60400000Y-77700000D03*
%TD*%
D14*
%TO.N,+BATT*%
%TO.C,BT1*%
X13600000Y-63990000D03*
%TO.N,GND*%
X13600000Y-61450000D03*
%TD*%
D17*
%TO.N,GND*%
%TO.C,U5*%
X8905000Y-47737500D03*
X10430000Y-47737500D03*
X10430000Y-49262500D03*
X8142500Y-50025000D03*
X7380000Y-49262500D03*
X9667500Y-46975000D03*
X9667500Y-48500000D03*
X9667500Y-50025000D03*
X8142500Y-46975000D03*
X8142500Y-48500000D03*
X7380000Y-47737500D03*
X8905000Y-49262500D03*
%TD*%
D15*
%TO.N,Net-(LS2-Pad1)*%
%TO.C,LS2*%
X65400000Y-6700000D03*
D16*
%TO.N,GND*%
X60400000Y-6700000D03*
%TD*%
D15*
%TO.N,Net-(LS3-Pad1)*%
%TO.C,LS3*%
X53800000Y-77700000D03*
D16*
%TO.N,Net-(LS3-Pad2)*%
X48800000Y-77700000D03*
%TD*%
D15*
%TO.N,Net-(LS4-Pad1)*%
%TO.C,LS4*%
X53800000Y-6700000D03*
D16*
%TO.N,GND*%
X48800000Y-6700000D03*
%TD*%
D18*
%TO.N,GND*%
X27100000Y-80300000D03*
X27100000Y-81900000D03*
X27100000Y-82700000D03*
X27100000Y-83500000D03*
X27100000Y-81100000D03*
X32700000Y-80300000D03*
X32700000Y-81100000D03*
X32700000Y-81900000D03*
X32700000Y-82700000D03*
X32700000Y-83500000D03*
X37900000Y-56000000D03*
X53100000Y-58200000D03*
X39100000Y-59600000D03*
X47400000Y-45400000D03*
X37400000Y-50700000D03*
X61300000Y-70500000D03*
X38800000Y-44000000D03*
X40700000Y-52400000D03*
X65300000Y-71000000D03*
X34900000Y-55300000D03*
X50600000Y-32600000D03*
X61700000Y-19800000D03*
X43900000Y-34600000D03*
X39900000Y-53200000D03*
X43800000Y-67100000D03*
X50600000Y-45400000D03*
X38300000Y-59600000D03*
X54100000Y-66600000D03*
X61300000Y-13200000D03*
X66400000Y-55800000D03*
X65900000Y-27000000D03*
X52300000Y-45400000D03*
X49700000Y-70500000D03*
X39900000Y-54800000D03*
X54800000Y-55800000D03*
X48100000Y-58200000D03*
X1500000Y-55200000D03*
X33700000Y-65100000D03*
X53700000Y-71000000D03*
X39900000Y-52400000D03*
X38400000Y-33200000D03*
X39300000Y-55400000D03*
X37200000Y-67600000D03*
X48900000Y-45400000D03*
X50100000Y-19800000D03*
X63900000Y-45400000D03*
X32900000Y-48000000D03*
X61100000Y-51400000D03*
X65700000Y-66600000D03*
X59000000Y-45400000D03*
X32300000Y-51400000D03*
X39900000Y-54000000D03*
X38700000Y-56000000D03*
X49700000Y-13200000D03*
X60400000Y-21800000D03*
X35040110Y-47099817D03*
X46500000Y-64200000D03*
X42800000Y-76100000D03*
X63100000Y-66600000D03*
X56700000Y-39700000D03*
X21700000Y-52000000D03*
X17900000Y-53500000D03*
X54300000Y-27000000D03*
X1500000Y-40600000D03*
X48800000Y-21800000D03*
X51500000Y-66600000D03*
X50600000Y-31100000D03*
X62200000Y-45400000D03*
X18700000Y-37075500D03*
X59700000Y-58200000D03*
X37200000Y-72200000D03*
X58100000Y-33500000D03*
X64700000Y-58200000D03*
X33800000Y-46600000D03*
X36300000Y-56000000D03*
X49500000Y-51400000D03*
X60500000Y-45400000D03*
X58100000Y-64200000D03*
X44000000Y-76700000D03*
X39900000Y-34600000D03*
X22500000Y-52000000D03*
X40700000Y-76200000D03*
X1000000Y-59400000D03*
X39900000Y-59600000D03*
X3000000Y-65800000D03*
X41800000Y-67600000D03*
X41100000Y-62000000D03*
X36300000Y-59600000D03*
%TO.N,+5V*%
X44600000Y-55200000D03*
X44600000Y-53600000D03*
X9300000Y-68400000D03*
X44600000Y-56000000D03*
X44600000Y-54400000D03*
X55400000Y-71200000D03*
X67000000Y-71200000D03*
%TO.N,+USB*%
X34000000Y-58400000D03*
X32600000Y-59700000D03*
X32600000Y-58900000D03*
X31900000Y-58900000D03*
X42100000Y-72800000D03*
X33200000Y-58400000D03*
%TO.N,+3V3*%
X38400000Y-31200000D03*
X36900000Y-62000000D03*
X15900000Y-29100000D03*
X33400000Y-40000000D03*
X61300000Y-38800000D03*
X57900000Y-31100000D03*
X37700000Y-62000000D03*
X52300000Y-39600000D03*
X65600000Y-45600000D03*
X38500000Y-63600000D03*
X46500000Y-48100000D03*
X9287500Y-66800000D03*
X44800000Y-72700000D03*
X58100000Y-48100000D03*
X41400000Y-28800000D03*
X2800000Y-55200000D03*
X36600000Y-54800000D03*
X47100000Y-38600000D03*
X36100000Y-62000000D03*
X6700000Y-58400000D03*
X54000000Y-45600000D03*
X38500000Y-62800000D03*
X38500000Y-62000000D03*
%TO.N,/Sensors/Vref*%
X49400000Y-32600000D03*
X58500000Y-32200000D03*
%TO.N,/Sensors/Ultrasonic1/V+*%
X65000000Y-23800000D03*
X65700000Y-58200000D03*
%TO.N,/Sensors/Ultrasonic1/V-*%
X60700000Y-58200000D03*
X60400000Y-19800000D03*
%TO.N,/Sensors/Ultrasonic1/SIGOUT*%
X54900000Y-37100000D03*
X61000000Y-29600000D03*
%TO.N,/Sensors/Ultrasonic2/V+*%
X53400000Y-23800000D03*
X54100000Y-58200000D03*
%TO.N,/Sensors/Ultrasonic2/V-*%
X49100000Y-58200000D03*
X48800000Y-19800000D03*
%TO.N,/Sensors/Ultrasonic2/SIGOUT*%
X53400000Y-36100000D03*
X49400000Y-29600000D03*
%TO.N,/Controller/SCL*%
X4100000Y-34900000D03*
%TO.N,/Controller/BUTTON*%
X10400000Y-36700000D03*
X19400000Y-38500000D03*
%TO.N,/Controller/SD_CMD*%
X2800000Y-41200000D03*
%TO.N,/Controller/SD_CLK*%
X11700000Y-40800000D03*
X13000000Y-51300000D03*
X13100000Y-42000000D03*
%TO.N,/Controller/SD_DAT0*%
X9200000Y-43400000D03*
%TO.N,/Sensors/SWIM1*%
X63700000Y-54500000D03*
X8600000Y-27200000D03*
%TO.N,/Sensors/SWIM2*%
X7900000Y-29100000D03*
X52000000Y-52600000D03*
%TO.N,/Sensors/NRST1*%
X56600000Y-53700000D03*
X7215500Y-32300000D03*
%TO.N,/Sensors/NRST2*%
X6500000Y-34800000D03*
X48300000Y-51600500D03*
%TO.N,Net-(LS1-Pad1)*%
X64400000Y-66600000D03*
%TO.N,Net-(LS1-Pad2)*%
X61700000Y-65200000D03*
%TO.N,Net-(LS3-Pad1)*%
X52800000Y-66600000D03*
%TO.N,Net-(LS3-Pad2)*%
X50100000Y-65200000D03*
%TO.N,/Controller/EN*%
X4000000Y-59700000D03*
X4000000Y-70800000D03*
%TO.N,/Controller/~USB_DTR*%
X4600000Y-75400000D03*
X8600000Y-72700000D03*
%TO.N,/Controller/GPIO0*%
X10400000Y-58600000D03*
X17900000Y-40700000D03*
X11604502Y-48087618D03*
X12800000Y-43800000D03*
%TO.N,/Controller/USB_RX*%
X5400000Y-42500000D03*
%TO.N,/Controller/USB_TX*%
X6700000Y-41300000D03*
%TO.N,/Controller/BTN_READ*%
X17700000Y-42100000D03*
%TO.N,/Sensors/Ultrasonic1/MUTE*%
X64900000Y-51600000D03*
X59700000Y-34100000D03*
%TO.N,/Sensors/Ultrasonic2/MUTE*%
X47100000Y-31500000D03*
X53300000Y-51600000D03*
%TO.N,TRIG2*%
X49200000Y-53600000D03*
X16600000Y-51100000D03*
%TO.N,ECHO2*%
X49800000Y-54500000D03*
X17700000Y-52300000D03*
%TO.N,TRIG1*%
X17600000Y-43300000D03*
X60800000Y-53600000D03*
%TO.N,ECHO1*%
X61400000Y-54500000D03*
X16700000Y-40500000D03*
%TO.N,/Controller/SD_CD*%
X9250000Y-44550000D03*
%TO.N,/Sensors/Ultrasonic1/TXN*%
X58200000Y-56600000D03*
X59300000Y-66500000D03*
%TO.N,/Sensors/Ultrasonic1/TXP*%
X60200000Y-57200000D03*
X60600000Y-66500000D03*
%TO.N,/Sensors/Ultrasonic2/TXN*%
X47700000Y-66500000D03*
X46600000Y-56600000D03*
%TO.N,/Sensors/Ultrasonic2/TXP*%
X49000000Y-66500000D03*
X48600000Y-57200000D03*
%TO.N,/Power Supply/SW*%
X42200000Y-54900000D03*
X43000000Y-54900000D03*
X42900000Y-59200000D03*
X42200000Y-54100000D03*
X42800000Y-60500000D03*
X42400000Y-61200000D03*
X43000000Y-54100000D03*
X42400000Y-59800000D03*
%TO.N,Net-(R7-Pad2)*%
X43500000Y-49200000D03*
X37300000Y-53000000D03*
%TD*%
D19*
%TO.N,/Sensors/Ultrasonic1/V+*%
X65700000Y-58200000D02*
X68000000Y-55900000D01*
X68000000Y-26800000D02*
X65000000Y-23800000D01*
X68000000Y-55900000D02*
X68000000Y-26800000D01*
%TO.N,/Sensors/Ultrasonic1/V-*%
X67600000Y-31800000D02*
X63049999Y-27249999D01*
X67600000Y-53000000D02*
X67600000Y-31800000D01*
X60700000Y-58200000D02*
X62400000Y-56500000D01*
X63049999Y-27249999D02*
X63049999Y-22449999D01*
X62400000Y-56500000D02*
X64100000Y-56500000D01*
X64100000Y-56500000D02*
X67600000Y-53000000D01*
X63049999Y-22449999D02*
X60400000Y-19800000D01*
%TO.N,/Sensors/Ultrasonic2/V+*%
X54800000Y-58200000D02*
X57300000Y-55700000D01*
X64100000Y-55700000D02*
X67200000Y-52600000D01*
X57800000Y-23800000D02*
X53400000Y-23800000D01*
X54100000Y-58200000D02*
X54800000Y-58200000D01*
X67200000Y-52600000D02*
X67200000Y-33200000D01*
X57300000Y-55700000D02*
X64100000Y-55700000D01*
X67200000Y-33200000D02*
X57800000Y-23800000D01*
%TO.N,/Sensors/Ultrasonic2/V-*%
X52400000Y-25400000D02*
X51449999Y-24449999D01*
X66800000Y-52000000D02*
X66800000Y-43000000D01*
X62600000Y-33200000D02*
X54800000Y-25400000D01*
X49100000Y-58200000D02*
X50350000Y-56950000D01*
X59300000Y-52900000D02*
X65900000Y-52900000D01*
X62600000Y-38800000D02*
X62600000Y-33200000D01*
X51449999Y-24449999D02*
X51449999Y-22449999D01*
X55250000Y-56950000D02*
X59300000Y-52900000D01*
X66800000Y-43000000D02*
X62600000Y-38800000D01*
X50350000Y-56950000D02*
X55250000Y-56950000D01*
X54800000Y-25400000D02*
X52400000Y-25400000D01*
X65900000Y-52900000D02*
X66800000Y-52000000D01*
X51449999Y-22449999D02*
X48800000Y-19800000D01*
%TD*%
%TA.AperFunction,Conductor*%
%TO.N,/Power Supply/SW*%
G36*
X43342121Y-53720002D02*
G01*
X43388614Y-53773658D01*
X43400000Y-53826000D01*
X43400000Y-61474000D01*
X43379998Y-61542121D01*
X43326342Y-61588614D01*
X43274000Y-61600000D01*
X41926000Y-61600000D01*
X41857879Y-61579998D01*
X41811386Y-61526342D01*
X41800000Y-61474000D01*
X41800000Y-53826000D01*
X41820002Y-53757879D01*
X41873658Y-53711386D01*
X41926000Y-53700000D01*
X43274000Y-53700000D01*
X43342121Y-53720002D01*
G37*
%TD.AperFunction*%
%TD*%
%TA.AperFunction,Conductor*%
%TO.N,+USB*%
G36*
X34342121Y-58020002D02*
G01*
X34388614Y-58073658D01*
X34400000Y-58126000D01*
X34400000Y-64654643D01*
X34379998Y-64722764D01*
X34326342Y-64769257D01*
X34256068Y-64779361D01*
X34191488Y-64749867D01*
X34174038Y-64731347D01*
X34133309Y-64678268D01*
X34133305Y-64678264D01*
X34128282Y-64671718D01*
X34002841Y-64575464D01*
X33856762Y-64514956D01*
X33700000Y-64494318D01*
X33543238Y-64514956D01*
X33397159Y-64575464D01*
X33271718Y-64671718D01*
X33175464Y-64797159D01*
X33114956Y-64943238D01*
X33094318Y-65100000D01*
X33114956Y-65256762D01*
X33175464Y-65402841D01*
X33271718Y-65528282D01*
X33397159Y-65624536D01*
X33543238Y-65685044D01*
X33700000Y-65705682D01*
X33708188Y-65704604D01*
X33848574Y-65686122D01*
X33856762Y-65685044D01*
X34002841Y-65624536D01*
X34128282Y-65528282D01*
X34133305Y-65521736D01*
X34133309Y-65521732D01*
X34174038Y-65468653D01*
X34231376Y-65426786D01*
X34302247Y-65422564D01*
X34364149Y-65457328D01*
X34397431Y-65520041D01*
X34400000Y-65545357D01*
X34400000Y-66000000D01*
X39400000Y-71000000D01*
X42674000Y-71000000D01*
X42742121Y-71020002D01*
X42788614Y-71073658D01*
X42800000Y-71126000D01*
X42800000Y-75383819D01*
X42779998Y-75451940D01*
X42726342Y-75498433D01*
X42690446Y-75508741D01*
X42643238Y-75514956D01*
X42497159Y-75575464D01*
X42371718Y-75671718D01*
X42275464Y-75797159D01*
X42214956Y-75943238D01*
X42194318Y-76100000D01*
X42214956Y-76256762D01*
X42275464Y-76402841D01*
X42371718Y-76528282D01*
X42497159Y-76624536D01*
X42643238Y-76685044D01*
X42651426Y-76686122D01*
X42690446Y-76691259D01*
X42755373Y-76719981D01*
X42794465Y-76779246D01*
X42800000Y-76816181D01*
X42800000Y-78140867D01*
X42779998Y-78208988D01*
X42726342Y-78255481D01*
X42656068Y-78265585D01*
X42634750Y-78260598D01*
X42566987Y-78238384D01*
X42448874Y-78199665D01*
X42444382Y-78198885D01*
X42188064Y-78154380D01*
X42188056Y-78154379D01*
X42184283Y-78153724D01*
X42175622Y-78153293D01*
X42101004Y-78149578D01*
X42100996Y-78149578D01*
X42099433Y-78149500D01*
X41931777Y-78149500D01*
X41929509Y-78149665D01*
X41929497Y-78149665D01*
X41799177Y-78159121D01*
X41732154Y-78163984D01*
X41727699Y-78164968D01*
X41727696Y-78164968D01*
X41474380Y-78220895D01*
X41474376Y-78220896D01*
X41469920Y-78221880D01*
X41381232Y-78255481D01*
X41223059Y-78315407D01*
X41223056Y-78315408D01*
X41218789Y-78317025D01*
X40984024Y-78447426D01*
X40980392Y-78450198D01*
X40774167Y-78607583D01*
X40774163Y-78607587D01*
X40770542Y-78610350D01*
X40582815Y-78802386D01*
X40424775Y-79019509D01*
X40422651Y-79023547D01*
X40301860Y-79253132D01*
X40301857Y-79253138D01*
X40299735Y-79257172D01*
X40210312Y-79510397D01*
X40209429Y-79514879D01*
X40169994Y-79714956D01*
X40158380Y-79773878D01*
X40158153Y-79778430D01*
X40158153Y-79778433D01*
X40158062Y-79780267D01*
X40157855Y-79780860D01*
X40157597Y-79782965D01*
X40157141Y-79782909D01*
X40134697Y-79847308D01*
X40078795Y-79891075D01*
X40032218Y-79900000D01*
X33207231Y-79900000D01*
X33139110Y-79879998D01*
X33128494Y-79871442D01*
X33128282Y-79871718D01*
X33069147Y-79826342D01*
X33002841Y-79775464D01*
X32856762Y-79714956D01*
X32700000Y-79694318D01*
X32543238Y-79714956D01*
X32397159Y-79775464D01*
X32271718Y-79871718D01*
X32270051Y-79869546D01*
X32219552Y-79897121D01*
X32192769Y-79900000D01*
X27926000Y-79900000D01*
X27857879Y-79879998D01*
X27811386Y-79826342D01*
X27800000Y-79774000D01*
X27800000Y-76200000D01*
X40094318Y-76200000D01*
X40114956Y-76356762D01*
X40175464Y-76502841D01*
X40271718Y-76628282D01*
X40397159Y-76724536D01*
X40543238Y-76785044D01*
X40700000Y-76805682D01*
X40708188Y-76804604D01*
X40848574Y-76786122D01*
X40856762Y-76785044D01*
X41002841Y-76724536D01*
X41128282Y-76628282D01*
X41224536Y-76502841D01*
X41285044Y-76356762D01*
X41305682Y-76200000D01*
X41285044Y-76043238D01*
X41224536Y-75897159D01*
X41128282Y-75771718D01*
X41002841Y-75675464D01*
X40856762Y-75614956D01*
X40700000Y-75594318D01*
X40543238Y-75614956D01*
X40397159Y-75675464D01*
X40271718Y-75771718D01*
X40175464Y-75897159D01*
X40114956Y-76043238D01*
X40094318Y-76200000D01*
X27800000Y-76200000D01*
X27800000Y-72200000D01*
X36594318Y-72200000D01*
X36614956Y-72356762D01*
X36675464Y-72502841D01*
X36771718Y-72628282D01*
X36897159Y-72724536D01*
X37043238Y-72785044D01*
X37200000Y-72805682D01*
X37208188Y-72804604D01*
X37348574Y-72786122D01*
X37356762Y-72785044D01*
X37502841Y-72724536D01*
X37628282Y-72628282D01*
X37724536Y-72502841D01*
X37785044Y-72356762D01*
X37805682Y-72200000D01*
X37785044Y-72043238D01*
X37724536Y-71897159D01*
X37628282Y-71771718D01*
X37502841Y-71675464D01*
X37356762Y-71614956D01*
X37200000Y-71594318D01*
X37043238Y-71614956D01*
X36897159Y-71675464D01*
X36771718Y-71771718D01*
X36675464Y-71897159D01*
X36614956Y-72043238D01*
X36594318Y-72200000D01*
X27800000Y-72200000D01*
X27800000Y-69352190D01*
X27820002Y-69284069D01*
X27836905Y-69263095D01*
X31500000Y-65600000D01*
X31500000Y-58126000D01*
X31520002Y-58057879D01*
X31573658Y-58011386D01*
X31626000Y-58000000D01*
X34274000Y-58000000D01*
X34342121Y-58020002D01*
G37*
%TD.AperFunction*%
%TD*%
%TA.AperFunction,Conductor*%
%TO.N,+BATT*%
G36*
X25842121Y-49720002D02*
G01*
X25888614Y-49773658D01*
X25900000Y-49826000D01*
X25900000Y-58047810D01*
X25879998Y-58115931D01*
X25863095Y-58136905D01*
X18136905Y-65863095D01*
X18074593Y-65897121D01*
X18047810Y-65900000D01*
X11926000Y-65900000D01*
X11857879Y-65879998D01*
X11811386Y-65826342D01*
X11800000Y-65774000D01*
X11800000Y-62826000D01*
X11820002Y-62757879D01*
X11873658Y-62711386D01*
X11926000Y-62700000D01*
X15300000Y-62700000D01*
X21600000Y-56400000D01*
X21600000Y-52729346D01*
X21620002Y-52661225D01*
X21673658Y-52614732D01*
X21709553Y-52604424D01*
X21856762Y-52585044D01*
X22002841Y-52524536D01*
X22023298Y-52508839D01*
X22089515Y-52483239D01*
X22159064Y-52497503D01*
X22176697Y-52508835D01*
X22197159Y-52524536D01*
X22343238Y-52585044D01*
X22500000Y-52605682D01*
X22508188Y-52604604D01*
X22509556Y-52604424D01*
X22656762Y-52585044D01*
X22802841Y-52524536D01*
X22928282Y-52428282D01*
X23024536Y-52302841D01*
X23085044Y-52156762D01*
X23105682Y-52000000D01*
X23085044Y-51843238D01*
X23024536Y-51697159D01*
X22928282Y-51571718D01*
X22802841Y-51475464D01*
X22656762Y-51414956D01*
X22500000Y-51394318D01*
X22343238Y-51414956D01*
X22197159Y-51475464D01*
X22176702Y-51491161D01*
X22110485Y-51516761D01*
X22040936Y-51502497D01*
X22023303Y-51491165D01*
X22002841Y-51475464D01*
X21856762Y-51414956D01*
X21709553Y-51395576D01*
X21644627Y-51366854D01*
X21605535Y-51307589D01*
X21600000Y-51270654D01*
X21600000Y-49826000D01*
X21620002Y-49757879D01*
X21673658Y-49711386D01*
X21726000Y-49700000D01*
X25774000Y-49700000D01*
X25842121Y-49720002D01*
G37*
%TD.AperFunction*%
%TD*%
%TA.AperFunction,Conductor*%
%TO.N,+5V*%
G36*
X28942121Y-43020002D02*
G01*
X28988614Y-43073658D01*
X29000000Y-43126000D01*
X29000000Y-67547810D01*
X28979998Y-67615931D01*
X28963095Y-67636905D01*
X27400000Y-69200000D01*
X27400000Y-79590246D01*
X27379998Y-79658367D01*
X27326342Y-79704860D01*
X27256774Y-79714862D01*
X27256762Y-79714956D01*
X27256429Y-79714912D01*
X27256428Y-79714912D01*
X27254716Y-79714687D01*
X27254713Y-79714686D01*
X27108188Y-79695396D01*
X27100000Y-79694318D01*
X26943238Y-79714956D01*
X26797159Y-79775464D01*
X26671718Y-79871718D01*
X26575464Y-79997159D01*
X26514956Y-80143238D01*
X26494318Y-80300000D01*
X26514956Y-80456762D01*
X26575464Y-80602841D01*
X26591161Y-80623298D01*
X26616761Y-80689515D01*
X26602497Y-80759064D01*
X26591165Y-80776697D01*
X26575464Y-80797159D01*
X26514956Y-80943238D01*
X26513878Y-80951426D01*
X26504637Y-81021619D01*
X26494318Y-81100000D01*
X26514956Y-81256762D01*
X26575464Y-81402841D01*
X26591161Y-81423298D01*
X26616761Y-81489515D01*
X26602497Y-81559064D01*
X26591165Y-81576697D01*
X26575464Y-81597159D01*
X26514956Y-81743238D01*
X26494318Y-81900000D01*
X26514956Y-82056762D01*
X26575464Y-82202841D01*
X26591161Y-82223298D01*
X26616761Y-82289515D01*
X26602497Y-82359064D01*
X26591165Y-82376697D01*
X26575464Y-82397159D01*
X26514956Y-82543238D01*
X26494318Y-82700000D01*
X26514956Y-82856762D01*
X26575464Y-83002841D01*
X26591161Y-83023298D01*
X26616761Y-83089515D01*
X26602497Y-83159064D01*
X26591165Y-83176697D01*
X26575464Y-83197159D01*
X26514956Y-83343238D01*
X26494318Y-83500000D01*
X26495396Y-83508188D01*
X26514956Y-83656762D01*
X26511445Y-83657224D01*
X26510099Y-83711958D01*
X26470260Y-83770723D01*
X26404974Y-83798620D01*
X26390112Y-83799500D01*
X20890786Y-83799500D01*
X20822665Y-83779498D01*
X20776172Y-83725842D01*
X20764786Y-83673500D01*
X20764786Y-80567000D01*
X18635215Y-80567000D01*
X18635215Y-83673500D01*
X18615213Y-83741621D01*
X18561557Y-83788114D01*
X18509215Y-83799500D01*
X4037080Y-83799500D01*
X4019758Y-83797534D01*
X4014189Y-83797524D01*
X4000359Y-83794344D01*
X3986520Y-83797476D01*
X3972329Y-83797451D01*
X3972330Y-83797058D01*
X3964373Y-83797750D01*
X3633760Y-83781507D01*
X3621466Y-83780296D01*
X3264878Y-83727402D01*
X3252756Y-83724992D01*
X2982213Y-83657224D01*
X2903060Y-83637397D01*
X2891228Y-83633807D01*
X2551831Y-83512368D01*
X2540407Y-83507637D01*
X2313556Y-83400345D01*
X2214518Y-83353504D01*
X2203617Y-83347677D01*
X1894417Y-83162349D01*
X1884136Y-83155479D01*
X1780938Y-83078942D01*
X1594589Y-82940736D01*
X1585052Y-82932911D01*
X1317929Y-82690804D01*
X1309191Y-82682066D01*
X1067089Y-82414948D01*
X1059264Y-82405411D01*
X844521Y-82115864D01*
X837651Y-82105583D01*
X676078Y-81836016D01*
X652321Y-81796378D01*
X646494Y-81785478D01*
X492363Y-81459593D01*
X487632Y-81448169D01*
X366193Y-81108772D01*
X362603Y-81096940D01*
X275009Y-80747247D01*
X272597Y-80735119D01*
X267388Y-80700000D01*
X219704Y-80378534D01*
X218492Y-80366234D01*
X215708Y-80309554D01*
X202568Y-80042095D01*
X2145028Y-80042095D01*
X2170534Y-80309431D01*
X2234364Y-80570285D01*
X2236076Y-80574511D01*
X2236077Y-80574515D01*
X2316336Y-80772664D01*
X2335182Y-80819192D01*
X2470875Y-81050938D01*
X2473728Y-81054505D01*
X2585225Y-81193925D01*
X2638601Y-81260669D01*
X2834846Y-81443991D01*
X2915582Y-81500000D01*
X3051746Y-81594461D01*
X3051751Y-81594464D01*
X3055499Y-81597064D01*
X3059584Y-81599096D01*
X3059587Y-81599098D01*
X3175719Y-81656872D01*
X3295938Y-81716680D01*
X3300272Y-81718101D01*
X3300275Y-81718102D01*
X3546793Y-81798915D01*
X3546798Y-81798916D01*
X3551126Y-81800335D01*
X3555617Y-81801115D01*
X3555618Y-81801115D01*
X3811936Y-81845620D01*
X3811944Y-81845621D01*
X3815717Y-81846276D01*
X3819554Y-81846467D01*
X3898996Y-81850422D01*
X3899004Y-81850422D01*
X3900567Y-81850500D01*
X4068223Y-81850500D01*
X4070491Y-81850335D01*
X4070503Y-81850335D01*
X4200823Y-81840879D01*
X4267846Y-81836016D01*
X4272301Y-81835032D01*
X4272304Y-81835032D01*
X4525620Y-81779105D01*
X4525624Y-81779104D01*
X4530080Y-81778120D01*
X4697617Y-81714646D01*
X4776941Y-81684593D01*
X4776944Y-81684592D01*
X4781211Y-81682975D01*
X5015976Y-81552574D01*
X5137811Y-81459593D01*
X5225833Y-81392417D01*
X5225837Y-81392413D01*
X5229458Y-81389650D01*
X5417185Y-81197614D01*
X5575225Y-80980491D01*
X5667666Y-80804789D01*
X5698140Y-80746868D01*
X5698143Y-80746862D01*
X5700265Y-80742828D01*
X5702988Y-80735119D01*
X5788165Y-80493916D01*
X5788165Y-80493915D01*
X5789688Y-80489603D01*
X5837973Y-80244627D01*
X5840739Y-80230594D01*
X5840740Y-80230588D01*
X5841620Y-80226122D01*
X5842750Y-80203428D01*
X5854745Y-79962474D01*
X5854745Y-79962468D01*
X5854972Y-79957905D01*
X5829466Y-79690569D01*
X5821587Y-79658367D01*
X5766721Y-79434149D01*
X5765636Y-79429715D01*
X5664818Y-79180808D01*
X5529125Y-78949062D01*
X5418211Y-78810371D01*
X5364251Y-78742897D01*
X5364250Y-78742895D01*
X5361399Y-78739331D01*
X5165154Y-78556009D01*
X5005436Y-78445208D01*
X4948254Y-78405539D01*
X4948249Y-78405536D01*
X4944501Y-78402936D01*
X4940416Y-78400904D01*
X4940413Y-78400902D01*
X4752740Y-78307537D01*
X4704062Y-78283320D01*
X4699728Y-78281899D01*
X4699725Y-78281898D01*
X4453207Y-78201085D01*
X4453202Y-78201084D01*
X4448874Y-78199665D01*
X4443679Y-78198763D01*
X4188064Y-78154380D01*
X4188056Y-78154379D01*
X4184283Y-78153724D01*
X4175622Y-78153293D01*
X4101004Y-78149578D01*
X4100996Y-78149578D01*
X4099433Y-78149500D01*
X3931777Y-78149500D01*
X3929509Y-78149665D01*
X3929497Y-78149665D01*
X3799177Y-78159121D01*
X3732154Y-78163984D01*
X3727699Y-78164968D01*
X3727696Y-78164968D01*
X3474380Y-78220895D01*
X3474376Y-78220896D01*
X3469920Y-78221880D01*
X3351134Y-78266884D01*
X3223059Y-78315407D01*
X3223056Y-78315408D01*
X3218789Y-78317025D01*
X2984024Y-78447426D01*
X2980392Y-78450198D01*
X2774167Y-78607583D01*
X2774163Y-78607587D01*
X2770542Y-78610350D01*
X2582815Y-78802386D01*
X2580130Y-78806075D01*
X2508859Y-78903991D01*
X2424775Y-79019509D01*
X2422651Y-79023547D01*
X2301860Y-79253132D01*
X2301857Y-79253138D01*
X2299735Y-79257172D01*
X2298215Y-79261477D01*
X2298213Y-79261481D01*
X2238804Y-79429715D01*
X2210312Y-79510397D01*
X2209429Y-79514879D01*
X2169371Y-79718116D01*
X2158380Y-79773878D01*
X2158153Y-79778431D01*
X2158153Y-79778434D01*
X2145308Y-80036475D01*
X2145028Y-80042095D01*
X202568Y-80042095D01*
X202292Y-80036473D01*
X204229Y-80014876D01*
X203227Y-80014761D01*
X204042Y-80007677D01*
X205655Y-80000718D01*
X205656Y-80000000D01*
X203654Y-79991225D01*
X200500Y-79963210D01*
X200500Y-75400000D01*
X3994318Y-75400000D01*
X4014956Y-75556762D01*
X4075464Y-75702841D01*
X4171718Y-75828282D01*
X4297159Y-75924536D01*
X4443238Y-75985044D01*
X4600000Y-76005682D01*
X4608188Y-76004604D01*
X4748574Y-75986122D01*
X4756762Y-75985044D01*
X4902841Y-75924536D01*
X5028282Y-75828282D01*
X5124536Y-75702841D01*
X5185044Y-75556762D01*
X5205682Y-75400000D01*
X5185044Y-75243238D01*
X5124536Y-75097159D01*
X5028282Y-74971718D01*
X4902841Y-74875464D01*
X4756762Y-74814956D01*
X4600000Y-74794318D01*
X4443238Y-74814956D01*
X4297159Y-74875464D01*
X4171718Y-74971718D01*
X4075464Y-75097159D01*
X4014956Y-75243238D01*
X3994318Y-75400000D01*
X200500Y-75400000D01*
X200500Y-72700000D01*
X7994318Y-72700000D01*
X8014956Y-72856762D01*
X8075464Y-73002841D01*
X8171718Y-73128282D01*
X8297159Y-73224536D01*
X8443238Y-73285044D01*
X8600000Y-73305682D01*
X8608188Y-73304604D01*
X8748574Y-73286122D01*
X8756762Y-73285044D01*
X8902841Y-73224536D01*
X9028282Y-73128282D01*
X9124536Y-73002841D01*
X9185044Y-72856762D01*
X9205682Y-72700000D01*
X9185044Y-72543238D01*
X9124536Y-72397159D01*
X9028282Y-72271718D01*
X8902841Y-72175464D01*
X8756762Y-72114956D01*
X8600000Y-72094318D01*
X8443238Y-72114956D01*
X8297159Y-72175464D01*
X8171718Y-72271718D01*
X8075464Y-72397159D01*
X8014956Y-72543238D01*
X7994318Y-72700000D01*
X200500Y-72700000D01*
X200500Y-70800000D01*
X3394318Y-70800000D01*
X3414956Y-70956762D01*
X3475464Y-71102841D01*
X3571718Y-71228282D01*
X3697159Y-71324536D01*
X3843238Y-71385044D01*
X4000000Y-71405682D01*
X4008188Y-71404604D01*
X4148574Y-71386122D01*
X4156762Y-71385044D01*
X4302841Y-71324536D01*
X4428282Y-71228282D01*
X4524536Y-71102841D01*
X4585044Y-70956762D01*
X4605682Y-70800000D01*
X4585044Y-70643238D01*
X4524536Y-70497159D01*
X4428282Y-70371718D01*
X4302841Y-70275464D01*
X4156762Y-70214956D01*
X4000000Y-70194318D01*
X3843238Y-70214956D01*
X3697159Y-70275464D01*
X3571718Y-70371718D01*
X3475464Y-70497159D01*
X3414956Y-70643238D01*
X3394318Y-70800000D01*
X200500Y-70800000D01*
X200500Y-68126000D01*
X220502Y-68057879D01*
X274158Y-68011386D01*
X326500Y-68000000D01*
X9674000Y-68000000D01*
X9742121Y-68020002D01*
X9788614Y-68073658D01*
X9800000Y-68126000D01*
X9800000Y-70000000D01*
X25000000Y-70000000D01*
X25000000Y-59342810D01*
X25020002Y-59274689D01*
X25036905Y-59253715D01*
X26008405Y-58282215D01*
X26023102Y-58265855D01*
X26024150Y-58264555D01*
X26024165Y-58264537D01*
X26036118Y-58249704D01*
X26040005Y-58244881D01*
X26077174Y-58173827D01*
X26097176Y-58105706D01*
X26098405Y-58097159D01*
X26104861Y-58052258D01*
X26104862Y-58052251D01*
X26105500Y-58047810D01*
X26105500Y-49826000D01*
X26103316Y-49805682D01*
X26101166Y-49785683D01*
X26101165Y-49785677D01*
X26100804Y-49782319D01*
X26089418Y-49729977D01*
X26086930Y-49719797D01*
X26043921Y-49639084D01*
X26030249Y-49623305D01*
X25998694Y-49586889D01*
X25998693Y-49586888D01*
X25997428Y-49585428D01*
X25979835Y-49567473D01*
X25900017Y-49522826D01*
X25866552Y-49513000D01*
X25836219Y-49504093D01*
X25836215Y-49504092D01*
X25831896Y-49502824D01*
X25827448Y-49502184D01*
X25827441Y-49502183D01*
X25778448Y-49495139D01*
X25778441Y-49495138D01*
X25774000Y-49494500D01*
X25126000Y-49494500D01*
X25057879Y-49474498D01*
X25011386Y-49420842D01*
X25000000Y-49368500D01*
X25000000Y-43126000D01*
X25020002Y-43057879D01*
X25073658Y-43011386D01*
X25126000Y-43000000D01*
X28874000Y-43000000D01*
X28942121Y-43020002D01*
G37*
%TD.AperFunction*%
%TA.AperFunction,Conductor*%
G36*
X47342121Y-53020002D02*
G01*
X47388614Y-53073658D01*
X47400000Y-53126000D01*
X47400000Y-56328743D01*
X47379998Y-56396864D01*
X47326342Y-56443357D01*
X47256068Y-56453461D01*
X47191488Y-56423967D01*
X47157591Y-56376961D01*
X47124536Y-56297159D01*
X47028282Y-56171718D01*
X46902841Y-56075464D01*
X46756762Y-56014956D01*
X46600000Y-55994318D01*
X46443238Y-56014956D01*
X46297159Y-56075464D01*
X46171718Y-56171718D01*
X46075464Y-56297159D01*
X46014956Y-56443238D01*
X45994318Y-56600000D01*
X46014956Y-56756762D01*
X46075464Y-56902841D01*
X46171718Y-57028282D01*
X46297159Y-57124536D01*
X46443238Y-57185044D01*
X46600000Y-57205682D01*
X46608188Y-57204604D01*
X46748574Y-57186122D01*
X46756762Y-57185044D01*
X46902841Y-57124536D01*
X47028282Y-57028282D01*
X47124536Y-56902841D01*
X47157591Y-56823039D01*
X47202139Y-56767758D01*
X47269503Y-56745337D01*
X47338294Y-56762895D01*
X47386672Y-56814857D01*
X47400000Y-56871257D01*
X47400000Y-65911147D01*
X47379998Y-65979268D01*
X47350704Y-66011110D01*
X47308549Y-66043457D01*
X47271718Y-66071718D01*
X47266695Y-66078264D01*
X47247837Y-66102841D01*
X47175464Y-66197159D01*
X47114956Y-66343238D01*
X47094318Y-66500000D01*
X47114956Y-66656762D01*
X47175464Y-66802841D01*
X47271718Y-66928282D01*
X47278264Y-66933305D01*
X47350704Y-66988890D01*
X47392571Y-67046228D01*
X47400000Y-67088853D01*
X47400000Y-70000000D01*
X49072300Y-70000000D01*
X49140421Y-70020002D01*
X49186914Y-70073658D01*
X49197018Y-70143932D01*
X49181419Y-70189000D01*
X49180490Y-70190609D01*
X49175464Y-70197159D01*
X49172305Y-70204785D01*
X49172304Y-70204787D01*
X49168092Y-70214956D01*
X49114956Y-70343238D01*
X49094318Y-70500000D01*
X49114956Y-70656762D01*
X49175464Y-70802841D01*
X49271718Y-70928282D01*
X49397159Y-71024536D01*
X49543238Y-71085044D01*
X49700000Y-71105682D01*
X49708188Y-71104604D01*
X49721580Y-71102841D01*
X49856762Y-71085044D01*
X50002841Y-71024536D01*
X50034817Y-71000000D01*
X53094318Y-71000000D01*
X53114956Y-71156762D01*
X53175464Y-71302841D01*
X53271718Y-71428282D01*
X53397159Y-71524536D01*
X53543238Y-71585044D01*
X53700000Y-71605682D01*
X53708188Y-71604604D01*
X53848574Y-71586122D01*
X53856762Y-71585044D01*
X54002841Y-71524536D01*
X54128282Y-71428282D01*
X54224536Y-71302841D01*
X54285044Y-71156762D01*
X54305682Y-71000000D01*
X54285044Y-70843238D01*
X54224536Y-70697159D01*
X54128282Y-70571718D01*
X54002841Y-70475464D01*
X53856762Y-70414956D01*
X53700000Y-70394318D01*
X53543238Y-70414956D01*
X53397159Y-70475464D01*
X53271718Y-70571718D01*
X53175464Y-70697159D01*
X53114956Y-70843238D01*
X53094318Y-71000000D01*
X50034817Y-71000000D01*
X50128282Y-70928282D01*
X50224536Y-70802841D01*
X50285044Y-70656762D01*
X50305682Y-70500000D01*
X50285044Y-70343238D01*
X50231908Y-70214956D01*
X50227696Y-70204787D01*
X50227695Y-70204785D01*
X50224536Y-70197159D01*
X50219510Y-70190609D01*
X50218581Y-70189000D01*
X50201843Y-70120005D01*
X50225063Y-70052913D01*
X50280871Y-70009026D01*
X50327700Y-70000000D01*
X60672300Y-70000000D01*
X60740421Y-70020002D01*
X60786914Y-70073658D01*
X60797018Y-70143932D01*
X60781419Y-70189000D01*
X60780490Y-70190609D01*
X60775464Y-70197159D01*
X60772305Y-70204785D01*
X60772304Y-70204787D01*
X60768092Y-70214956D01*
X60714956Y-70343238D01*
X60694318Y-70500000D01*
X60714956Y-70656762D01*
X60775464Y-70802841D01*
X60871718Y-70928282D01*
X60997159Y-71024536D01*
X61143238Y-71085044D01*
X61300000Y-71105682D01*
X61308188Y-71104604D01*
X61321580Y-71102841D01*
X61456762Y-71085044D01*
X61602841Y-71024536D01*
X61634817Y-71000000D01*
X64694318Y-71000000D01*
X64714956Y-71156762D01*
X64775464Y-71302841D01*
X64871718Y-71428282D01*
X64997159Y-71524536D01*
X65143238Y-71585044D01*
X65300000Y-71605682D01*
X65308188Y-71604604D01*
X65448574Y-71586122D01*
X65456762Y-71585044D01*
X65602841Y-71524536D01*
X65728282Y-71428282D01*
X65824536Y-71302841D01*
X65885044Y-71156762D01*
X65905682Y-71000000D01*
X65885044Y-70843238D01*
X65824536Y-70697159D01*
X65728282Y-70571718D01*
X65602841Y-70475464D01*
X65456762Y-70414956D01*
X65300000Y-70394318D01*
X65143238Y-70414956D01*
X64997159Y-70475464D01*
X64871718Y-70571718D01*
X64775464Y-70697159D01*
X64714956Y-70843238D01*
X64694318Y-71000000D01*
X61634817Y-71000000D01*
X61728282Y-70928282D01*
X61824536Y-70802841D01*
X61885044Y-70656762D01*
X61905682Y-70500000D01*
X61885044Y-70343238D01*
X61831908Y-70214956D01*
X61827696Y-70204787D01*
X61827695Y-70204785D01*
X61824536Y-70197159D01*
X61819510Y-70190609D01*
X61818581Y-70189000D01*
X61801843Y-70120005D01*
X61825063Y-70052913D01*
X61880871Y-70009026D01*
X61927700Y-70000000D01*
X68673500Y-70000000D01*
X68741621Y-70020002D01*
X68788114Y-70073658D01*
X68799500Y-70126000D01*
X68799500Y-79962920D01*
X68797534Y-79980242D01*
X68797524Y-79985811D01*
X68794344Y-79999641D01*
X68797476Y-80013480D01*
X68797451Y-80027671D01*
X68797058Y-80027670D01*
X68797750Y-80035627D01*
X68784293Y-80309554D01*
X68781508Y-80366234D01*
X68780296Y-80378534D01*
X68732612Y-80700000D01*
X68727403Y-80735119D01*
X68724991Y-80747247D01*
X68637397Y-81096940D01*
X68633807Y-81108772D01*
X68512368Y-81448169D01*
X68507637Y-81459593D01*
X68353506Y-81785478D01*
X68347679Y-81796378D01*
X68323922Y-81836016D01*
X68162349Y-82105583D01*
X68155479Y-82115864D01*
X67940736Y-82405411D01*
X67932911Y-82414948D01*
X67690809Y-82682066D01*
X67682071Y-82690804D01*
X67414948Y-82932911D01*
X67405411Y-82940736D01*
X67219062Y-83078942D01*
X67115864Y-83155479D01*
X67105583Y-83162349D01*
X66796383Y-83347677D01*
X66785482Y-83353504D01*
X66686444Y-83400345D01*
X66459593Y-83507637D01*
X66448169Y-83512368D01*
X66108772Y-83633807D01*
X66096940Y-83637397D01*
X66017787Y-83657224D01*
X65747244Y-83724992D01*
X65735122Y-83727402D01*
X65378534Y-83780296D01*
X65366240Y-83781507D01*
X65073290Y-83795900D01*
X65036194Y-83797722D01*
X65028378Y-83797029D01*
X65028377Y-83797549D01*
X65014188Y-83797524D01*
X65000359Y-83794344D01*
X64986520Y-83797475D01*
X64981689Y-83797467D01*
X64963496Y-83799500D01*
X33409888Y-83799500D01*
X33341767Y-83779498D01*
X33295274Y-83725842D01*
X33285347Y-83656802D01*
X33285044Y-83656762D01*
X33285186Y-83655681D01*
X33305682Y-83500000D01*
X33285044Y-83343238D01*
X33224536Y-83197159D01*
X33208839Y-83176702D01*
X33183239Y-83110485D01*
X33197503Y-83040936D01*
X33208835Y-83023303D01*
X33224536Y-83002841D01*
X33285044Y-82856762D01*
X33305682Y-82700000D01*
X33285044Y-82543238D01*
X33224536Y-82397159D01*
X33208839Y-82376702D01*
X33183239Y-82310485D01*
X33197503Y-82240936D01*
X33208835Y-82223303D01*
X33224536Y-82202841D01*
X33285044Y-82056762D01*
X33305682Y-81900000D01*
X33285044Y-81743238D01*
X33224536Y-81597159D01*
X33208839Y-81576702D01*
X33183239Y-81510485D01*
X33197503Y-81440936D01*
X33208835Y-81423303D01*
X33224536Y-81402841D01*
X33285044Y-81256762D01*
X33305682Y-81100000D01*
X33295363Y-81021619D01*
X33286122Y-80951426D01*
X33285044Y-80943238D01*
X33224536Y-80797159D01*
X33208839Y-80776702D01*
X33183239Y-80710485D01*
X33197503Y-80640936D01*
X33208835Y-80623303D01*
X33224536Y-80602841D01*
X33285044Y-80456762D01*
X33304424Y-80309553D01*
X33333146Y-80244627D01*
X33392411Y-80205535D01*
X33429346Y-80200000D01*
X40045882Y-80200000D01*
X40114003Y-80220002D01*
X40160496Y-80273658D01*
X40170107Y-80304953D01*
X40170534Y-80309431D01*
X40234364Y-80570285D01*
X40236076Y-80574511D01*
X40236077Y-80574515D01*
X40316336Y-80772664D01*
X40335182Y-80819192D01*
X40470875Y-81050938D01*
X40473728Y-81054505D01*
X40585225Y-81193925D01*
X40638601Y-81260669D01*
X40834846Y-81443991D01*
X40915582Y-81500000D01*
X41051746Y-81594461D01*
X41051751Y-81594464D01*
X41055499Y-81597064D01*
X41059584Y-81599096D01*
X41059587Y-81599098D01*
X41175719Y-81656872D01*
X41295938Y-81716680D01*
X41300272Y-81718101D01*
X41300275Y-81718102D01*
X41546793Y-81798915D01*
X41546798Y-81798916D01*
X41551126Y-81800335D01*
X41555617Y-81801115D01*
X41555618Y-81801115D01*
X41811936Y-81845620D01*
X41811944Y-81845621D01*
X41815717Y-81846276D01*
X41819554Y-81846467D01*
X41898996Y-81850422D01*
X41899004Y-81850422D01*
X41900567Y-81850500D01*
X42068223Y-81850500D01*
X42070491Y-81850335D01*
X42070503Y-81850335D01*
X42200823Y-81840879D01*
X42267846Y-81836016D01*
X42272301Y-81835032D01*
X42272304Y-81835032D01*
X42525620Y-81779105D01*
X42525624Y-81779104D01*
X42530080Y-81778120D01*
X42697617Y-81714646D01*
X42776941Y-81684593D01*
X42776944Y-81684592D01*
X42781211Y-81682975D01*
X43015976Y-81552574D01*
X43137811Y-81459593D01*
X43225833Y-81392417D01*
X43225837Y-81392413D01*
X43229458Y-81389650D01*
X43417185Y-81197614D01*
X43575225Y-80980491D01*
X43667666Y-80804789D01*
X43698140Y-80746868D01*
X43698143Y-80746862D01*
X43700265Y-80742828D01*
X43702988Y-80735119D01*
X43788165Y-80493916D01*
X43788165Y-80493915D01*
X43789688Y-80489603D01*
X43824325Y-80313871D01*
X43826737Y-80301634D01*
X43859535Y-80238667D01*
X43921169Y-80203428D01*
X43950359Y-80200000D01*
X45600000Y-80200000D01*
X45600000Y-77668440D01*
X47594770Y-77668440D01*
X47609200Y-77888604D01*
X47610621Y-77894200D01*
X47610622Y-77894205D01*
X47662090Y-78096857D01*
X47663511Y-78102452D01*
X47665928Y-78107694D01*
X47665928Y-78107695D01*
X47708327Y-78199665D01*
X47755883Y-78302821D01*
X47883222Y-78483002D01*
X48041264Y-78636961D01*
X48046060Y-78640166D01*
X48046063Y-78640168D01*
X48130261Y-78696427D01*
X48224717Y-78759540D01*
X48230020Y-78761818D01*
X48230023Y-78761820D01*
X48422129Y-78844355D01*
X48427436Y-78846635D01*
X48507088Y-78864658D01*
X48636995Y-78894054D01*
X48637001Y-78894055D01*
X48642632Y-78895329D01*
X48648403Y-78895556D01*
X48648405Y-78895556D01*
X48716211Y-78898220D01*
X48863098Y-78903991D01*
X48972275Y-78888161D01*
X49075738Y-78873160D01*
X49075743Y-78873159D01*
X49081452Y-78872331D01*
X49086916Y-78870476D01*
X49086921Y-78870475D01*
X49284907Y-78803268D01*
X49284912Y-78803266D01*
X49290379Y-78801410D01*
X49436197Y-78719748D01*
X52599500Y-78719748D01*
X52600707Y-78725816D01*
X52607869Y-78761820D01*
X52611133Y-78778231D01*
X52655448Y-78844552D01*
X52721769Y-78888867D01*
X52733938Y-78891288D01*
X52733939Y-78891288D01*
X52774184Y-78899293D01*
X52780252Y-78900500D01*
X54819748Y-78900500D01*
X54825816Y-78899293D01*
X54866061Y-78891288D01*
X54866062Y-78891288D01*
X54878231Y-78888867D01*
X54944552Y-78844552D01*
X54988867Y-78778231D01*
X54992132Y-78761820D01*
X54999293Y-78725816D01*
X55000500Y-78719748D01*
X55000500Y-77668440D01*
X59194770Y-77668440D01*
X59209200Y-77888604D01*
X59210621Y-77894200D01*
X59210622Y-77894205D01*
X59262090Y-78096857D01*
X59263511Y-78102452D01*
X59265928Y-78107694D01*
X59265928Y-78107695D01*
X59308327Y-78199665D01*
X59355883Y-78302821D01*
X59483222Y-78483002D01*
X59641264Y-78636961D01*
X59646060Y-78640166D01*
X59646063Y-78640168D01*
X59730261Y-78696427D01*
X59824717Y-78759540D01*
X59830020Y-78761818D01*
X59830023Y-78761820D01*
X60022129Y-78844355D01*
X60027436Y-78846635D01*
X60107088Y-78864658D01*
X60236995Y-78894054D01*
X60237001Y-78894055D01*
X60242632Y-78895329D01*
X60248403Y-78895556D01*
X60248405Y-78895556D01*
X60316211Y-78898220D01*
X60463098Y-78903991D01*
X60572275Y-78888161D01*
X60675738Y-78873160D01*
X60675743Y-78873159D01*
X60681452Y-78872331D01*
X60686916Y-78870476D01*
X60686921Y-78870475D01*
X60884907Y-78803268D01*
X60884912Y-78803266D01*
X60890379Y-78801410D01*
X61036197Y-78719748D01*
X64199500Y-78719748D01*
X64200707Y-78725816D01*
X64207869Y-78761820D01*
X64211133Y-78778231D01*
X64255448Y-78844552D01*
X64321769Y-78888867D01*
X64333938Y-78891288D01*
X64333939Y-78891288D01*
X64374184Y-78899293D01*
X64380252Y-78900500D01*
X66419748Y-78900500D01*
X66425816Y-78899293D01*
X66466061Y-78891288D01*
X66466062Y-78891288D01*
X66478231Y-78888867D01*
X66544552Y-78844552D01*
X66588867Y-78778231D01*
X66592132Y-78761820D01*
X66599293Y-78725816D01*
X66600500Y-78719748D01*
X66600500Y-76680252D01*
X66588867Y-76621769D01*
X66544552Y-76555448D01*
X66478231Y-76511133D01*
X66466062Y-76508712D01*
X66466061Y-76508712D01*
X66425816Y-76500707D01*
X66419748Y-76499500D01*
X64380252Y-76499500D01*
X64374184Y-76500707D01*
X64333939Y-76508712D01*
X64333938Y-76508712D01*
X64321769Y-76511133D01*
X64255448Y-76555448D01*
X64211133Y-76621769D01*
X64199500Y-76680252D01*
X64199500Y-78719748D01*
X61036197Y-78719748D01*
X61082884Y-78693602D01*
X61252518Y-78552518D01*
X61339923Y-78447426D01*
X61389908Y-78387326D01*
X61389910Y-78387323D01*
X61393602Y-78382884D01*
X61458606Y-78266812D01*
X61498586Y-78195422D01*
X61498587Y-78195420D01*
X61501410Y-78190379D01*
X61503266Y-78184912D01*
X61503268Y-78184907D01*
X61570475Y-77986921D01*
X61570476Y-77986916D01*
X61572331Y-77981452D01*
X61573159Y-77975743D01*
X61573160Y-77975738D01*
X61603458Y-77766772D01*
X61603991Y-77763098D01*
X61605643Y-77700000D01*
X61585454Y-77480289D01*
X61525565Y-77267936D01*
X61427980Y-77070053D01*
X61295967Y-76893267D01*
X61133949Y-76743499D01*
X60947350Y-76625764D01*
X60742421Y-76544006D01*
X60736761Y-76542880D01*
X60736757Y-76542879D01*
X60531691Y-76502089D01*
X60531688Y-76502089D01*
X60526024Y-76500962D01*
X60520249Y-76500886D01*
X60520245Y-76500886D01*
X60409504Y-76499437D01*
X60305406Y-76498074D01*
X60299709Y-76499053D01*
X60299708Y-76499053D01*
X60093654Y-76534459D01*
X60093653Y-76534459D01*
X60087957Y-76535438D01*
X59880957Y-76611804D01*
X59875996Y-76614756D01*
X59875995Y-76614756D01*
X59765907Y-76680252D01*
X59691341Y-76724614D01*
X59525457Y-76870090D01*
X59388863Y-77043360D01*
X59286131Y-77238620D01*
X59220703Y-77449333D01*
X59194770Y-77668440D01*
X55000500Y-77668440D01*
X55000500Y-76680252D01*
X54988867Y-76621769D01*
X54944552Y-76555448D01*
X54878231Y-76511133D01*
X54866062Y-76508712D01*
X54866061Y-76508712D01*
X54825816Y-76500707D01*
X54819748Y-76499500D01*
X52780252Y-76499500D01*
X52774184Y-76500707D01*
X52733939Y-76508712D01*
X52733938Y-76508712D01*
X52721769Y-76511133D01*
X52655448Y-76555448D01*
X52611133Y-76621769D01*
X52599500Y-76680252D01*
X52599500Y-78719748D01*
X49436197Y-78719748D01*
X49482884Y-78693602D01*
X49652518Y-78552518D01*
X49739923Y-78447426D01*
X49789908Y-78387326D01*
X49789910Y-78387323D01*
X49793602Y-78382884D01*
X49858606Y-78266812D01*
X49898586Y-78195422D01*
X49898587Y-78195420D01*
X49901410Y-78190379D01*
X49903266Y-78184912D01*
X49903268Y-78184907D01*
X49970475Y-77986921D01*
X49970476Y-77986916D01*
X49972331Y-77981452D01*
X49973159Y-77975743D01*
X49973160Y-77975738D01*
X50003458Y-77766772D01*
X50003991Y-77763098D01*
X50005643Y-77700000D01*
X49985454Y-77480289D01*
X49925565Y-77267936D01*
X49827980Y-77070053D01*
X49695967Y-76893267D01*
X49533949Y-76743499D01*
X49347350Y-76625764D01*
X49142421Y-76544006D01*
X49136761Y-76542880D01*
X49136757Y-76542879D01*
X48931691Y-76502089D01*
X48931688Y-76502089D01*
X48926024Y-76500962D01*
X48920249Y-76500886D01*
X48920245Y-76500886D01*
X48809504Y-76499437D01*
X48705406Y-76498074D01*
X48699709Y-76499053D01*
X48699708Y-76499053D01*
X48493654Y-76534459D01*
X48493653Y-76534459D01*
X48487957Y-76535438D01*
X48280957Y-76611804D01*
X48275996Y-76614756D01*
X48275995Y-76614756D01*
X48165907Y-76680252D01*
X48091341Y-76724614D01*
X47925457Y-76870090D01*
X47788863Y-77043360D01*
X47686131Y-77238620D01*
X47620703Y-77449333D01*
X47594770Y-77668440D01*
X45600000Y-77668440D01*
X45600000Y-67400000D01*
X44036905Y-65836905D01*
X44002879Y-65774593D01*
X44000000Y-65747810D01*
X44000000Y-64200000D01*
X45894318Y-64200000D01*
X45914956Y-64356762D01*
X45975464Y-64502841D01*
X46071718Y-64628282D01*
X46197159Y-64724536D01*
X46343238Y-64785044D01*
X46500000Y-64805682D01*
X46508188Y-64804604D01*
X46648574Y-64786122D01*
X46656762Y-64785044D01*
X46802841Y-64724536D01*
X46928282Y-64628282D01*
X47024536Y-64502841D01*
X47085044Y-64356762D01*
X47105682Y-64200000D01*
X47085044Y-64043238D01*
X47024536Y-63897159D01*
X46928282Y-63771718D01*
X46802841Y-63675464D01*
X46656762Y-63614956D01*
X46500000Y-63594318D01*
X46343238Y-63614956D01*
X46197159Y-63675464D01*
X46071718Y-63771718D01*
X45975464Y-63897159D01*
X45914956Y-64043238D01*
X45894318Y-64200000D01*
X44000000Y-64200000D01*
X44000000Y-53126000D01*
X44020002Y-53057879D01*
X44073658Y-53011386D01*
X44126000Y-53000000D01*
X47274000Y-53000000D01*
X47342121Y-53020002D01*
G37*
%TD.AperFunction*%
%TD*%
%TA.AperFunction,Conductor*%
%TO.N,+3V3*%
G36*
X11942121Y-21020002D02*
G01*
X11988614Y-21073658D01*
X12000000Y-21126000D01*
X12000000Y-28400000D01*
X12020202Y-28400000D01*
X12088323Y-28420002D01*
X12134816Y-28473658D01*
X12146052Y-28519847D01*
X12146074Y-28520287D01*
X12145739Y-28526671D01*
X12174614Y-28717599D01*
X12176820Y-28723594D01*
X12176820Y-28723595D01*
X12239086Y-28892832D01*
X12239088Y-28892836D01*
X12241290Y-28898821D01*
X12343045Y-29062934D01*
X12475721Y-29203235D01*
X12480951Y-29206897D01*
X12480952Y-29206898D01*
X12563061Y-29264391D01*
X12633898Y-29313991D01*
X12811115Y-29390680D01*
X12817363Y-29391985D01*
X12817362Y-29391985D01*
X12995388Y-29429177D01*
X12995392Y-29429177D01*
X13000133Y-29430168D01*
X13006468Y-29430500D01*
X14148259Y-29430500D01*
X14218649Y-29423350D01*
X14285761Y-29416533D01*
X14285762Y-29416533D01*
X14292110Y-29415888D01*
X14476373Y-29358144D01*
X14645261Y-29264528D01*
X14791875Y-29138864D01*
X14822021Y-29100000D01*
X14906311Y-28991335D01*
X14906313Y-28991332D01*
X14910227Y-28986286D01*
X14995481Y-28813026D01*
X14997088Y-28806856D01*
X14997090Y-28806851D01*
X15042545Y-28632345D01*
X15042545Y-28632342D01*
X15044155Y-28626163D01*
X15049750Y-28519406D01*
X15073290Y-28452425D01*
X15129305Y-28408804D01*
X15175577Y-28400000D01*
X16274000Y-28400000D01*
X16342121Y-28420002D01*
X16388614Y-28473658D01*
X16400000Y-28526000D01*
X16400000Y-29672771D01*
X16379998Y-29740892D01*
X16326342Y-29787385D01*
X16272778Y-29798765D01*
X12000000Y-29757282D01*
X12000000Y-35200000D01*
X14874000Y-35200000D01*
X14942121Y-35220002D01*
X14988614Y-35273658D01*
X15000000Y-35326000D01*
X15000000Y-39600000D01*
X37900000Y-39600000D01*
X37900000Y-37100000D01*
X54294318Y-37100000D01*
X54314956Y-37256762D01*
X54375464Y-37402841D01*
X54471718Y-37528282D01*
X54597159Y-37624536D01*
X54743238Y-37685044D01*
X54900000Y-37705682D01*
X54908188Y-37704604D01*
X55048574Y-37686122D01*
X55056762Y-37685044D01*
X55202841Y-37624536D01*
X55328282Y-37528282D01*
X55424536Y-37402841D01*
X55485044Y-37256762D01*
X55505682Y-37100000D01*
X55485044Y-36943238D01*
X55424536Y-36797159D01*
X55353516Y-36704604D01*
X55333305Y-36678264D01*
X55328282Y-36671718D01*
X55202841Y-36575464D01*
X55056762Y-36514956D01*
X54900000Y-36494318D01*
X54743238Y-36514956D01*
X54597159Y-36575464D01*
X54471718Y-36671718D01*
X54466695Y-36678264D01*
X54446484Y-36704604D01*
X54375464Y-36797159D01*
X54314956Y-36943238D01*
X54294318Y-37100000D01*
X37900000Y-37100000D01*
X37900000Y-36100000D01*
X52794318Y-36100000D01*
X52814956Y-36256762D01*
X52875464Y-36402841D01*
X52880491Y-36409392D01*
X52961434Y-36514879D01*
X52971718Y-36528282D01*
X53097159Y-36624536D01*
X53243238Y-36685044D01*
X53400000Y-36705682D01*
X53408188Y-36704604D01*
X53548574Y-36686122D01*
X53556762Y-36685044D01*
X53702841Y-36624536D01*
X53828282Y-36528282D01*
X53838567Y-36514879D01*
X53919509Y-36409392D01*
X53924536Y-36402841D01*
X53985044Y-36256762D01*
X54005682Y-36100000D01*
X53985044Y-35943238D01*
X53924536Y-35797159D01*
X53828282Y-35671718D01*
X53702841Y-35575464D01*
X53556762Y-35514956D01*
X53400000Y-35494318D01*
X53243238Y-35514956D01*
X53097159Y-35575464D01*
X52971718Y-35671718D01*
X52875464Y-35797159D01*
X52814956Y-35943238D01*
X52794318Y-36100000D01*
X37900000Y-36100000D01*
X37900000Y-34600000D01*
X39294318Y-34600000D01*
X39314956Y-34756762D01*
X39375464Y-34902841D01*
X39471718Y-35028282D01*
X39597159Y-35124536D01*
X39743238Y-35185044D01*
X39900000Y-35205682D01*
X39908188Y-35204604D01*
X39921580Y-35202841D01*
X40056762Y-35185044D01*
X40202841Y-35124536D01*
X40328282Y-35028282D01*
X40424536Y-34902841D01*
X40485044Y-34756762D01*
X40505682Y-34600000D01*
X43294318Y-34600000D01*
X43314956Y-34756762D01*
X43375464Y-34902841D01*
X43471718Y-35028282D01*
X43597159Y-35124536D01*
X43743238Y-35185044D01*
X43900000Y-35205682D01*
X43908188Y-35204604D01*
X43921580Y-35202841D01*
X44056762Y-35185044D01*
X44202841Y-35124536D01*
X44328282Y-35028282D01*
X44424536Y-34902841D01*
X44485044Y-34756762D01*
X44505682Y-34600000D01*
X44485044Y-34443238D01*
X44424536Y-34297159D01*
X44328282Y-34171718D01*
X44202841Y-34075464D01*
X44056762Y-34014956D01*
X43900000Y-33994318D01*
X43743238Y-34014956D01*
X43597159Y-34075464D01*
X43471718Y-34171718D01*
X43375464Y-34297159D01*
X43314956Y-34443238D01*
X43294318Y-34600000D01*
X40505682Y-34600000D01*
X40485044Y-34443238D01*
X40424536Y-34297159D01*
X40328282Y-34171718D01*
X40202841Y-34075464D01*
X40056762Y-34014956D01*
X39900000Y-33994318D01*
X39743238Y-34014956D01*
X39597159Y-34075464D01*
X39471718Y-34171718D01*
X39375464Y-34297159D01*
X39314956Y-34443238D01*
X39294318Y-34600000D01*
X37900000Y-34600000D01*
X37900000Y-33827700D01*
X37920002Y-33759579D01*
X37973658Y-33713086D01*
X38043932Y-33702982D01*
X38089000Y-33718581D01*
X38090609Y-33719510D01*
X38097159Y-33724536D01*
X38104785Y-33727695D01*
X38104787Y-33727696D01*
X38181760Y-33759579D01*
X38243238Y-33785044D01*
X38400000Y-33805682D01*
X38408188Y-33804604D01*
X38421580Y-33802841D01*
X38556762Y-33785044D01*
X38702841Y-33724536D01*
X38828282Y-33628282D01*
X38924536Y-33502841D01*
X38925713Y-33500000D01*
X57494318Y-33500000D01*
X57514956Y-33656762D01*
X57575464Y-33802841D01*
X57671718Y-33928282D01*
X57797159Y-34024536D01*
X57943238Y-34085044D01*
X58100000Y-34105682D01*
X58108188Y-34104604D01*
X58143159Y-34100000D01*
X59094318Y-34100000D01*
X59114956Y-34256762D01*
X59175464Y-34402841D01*
X59271718Y-34528282D01*
X59397159Y-34624536D01*
X59543238Y-34685044D01*
X59700000Y-34705682D01*
X59708188Y-34704604D01*
X59848574Y-34686122D01*
X59856762Y-34685044D01*
X60002841Y-34624536D01*
X60128282Y-34528282D01*
X60224536Y-34402841D01*
X60285044Y-34256762D01*
X60305682Y-34100000D01*
X60285044Y-33943238D01*
X60224536Y-33797159D01*
X60128282Y-33671718D01*
X60002841Y-33575464D01*
X59856762Y-33514956D01*
X59700000Y-33494318D01*
X59543238Y-33514956D01*
X59397159Y-33575464D01*
X59271718Y-33671718D01*
X59175464Y-33797159D01*
X59114956Y-33943238D01*
X59094318Y-34100000D01*
X58143159Y-34100000D01*
X58248574Y-34086122D01*
X58256762Y-34085044D01*
X58402841Y-34024536D01*
X58528282Y-33928282D01*
X58624536Y-33802841D01*
X58685044Y-33656762D01*
X58705682Y-33500000D01*
X58685044Y-33343238D01*
X58624536Y-33197159D01*
X58528282Y-33071718D01*
X58469540Y-33026644D01*
X58427673Y-32969306D01*
X58423451Y-32898435D01*
X58458215Y-32836532D01*
X58520927Y-32803251D01*
X58529798Y-32801759D01*
X58648574Y-32786122D01*
X58656762Y-32785044D01*
X58802841Y-32724536D01*
X58928282Y-32628282D01*
X58949984Y-32600000D01*
X59019509Y-32509392D01*
X59024536Y-32502841D01*
X59085044Y-32356762D01*
X59105682Y-32200000D01*
X59085044Y-32043238D01*
X59024536Y-31897159D01*
X58928282Y-31771718D01*
X58802841Y-31675464D01*
X58656762Y-31614956D01*
X58500000Y-31594318D01*
X58343238Y-31614956D01*
X58197159Y-31675464D01*
X58071718Y-31771718D01*
X57975464Y-31897159D01*
X57914956Y-32043238D01*
X57894318Y-32200000D01*
X57914956Y-32356762D01*
X57975464Y-32502841D01*
X57980491Y-32509392D01*
X58050017Y-32600000D01*
X58071718Y-32628282D01*
X58078264Y-32633305D01*
X58130460Y-32673356D01*
X58172327Y-32730694D01*
X58176549Y-32801565D01*
X58141785Y-32863468D01*
X58079073Y-32896749D01*
X58070203Y-32898241D01*
X57943238Y-32914956D01*
X57797159Y-32975464D01*
X57671718Y-33071718D01*
X57575464Y-33197159D01*
X57514956Y-33343238D01*
X57494318Y-33500000D01*
X38925713Y-33500000D01*
X38985044Y-33356762D01*
X39005682Y-33200000D01*
X38988793Y-33071718D01*
X38986122Y-33051426D01*
X38985044Y-33043238D01*
X38924536Y-32897159D01*
X38828282Y-32771718D01*
X38702841Y-32675464D01*
X38573130Y-32621736D01*
X38564391Y-32618116D01*
X38556762Y-32614956D01*
X38443159Y-32600000D01*
X48794318Y-32600000D01*
X48814956Y-32756762D01*
X48875464Y-32902841D01*
X48971718Y-33028282D01*
X49097159Y-33124536D01*
X49243238Y-33185044D01*
X49400000Y-33205682D01*
X49408188Y-33204604D01*
X49548574Y-33186122D01*
X49556762Y-33185044D01*
X49702841Y-33124536D01*
X49828282Y-33028282D01*
X49900037Y-32934769D01*
X49957375Y-32892902D01*
X50028246Y-32888680D01*
X50090149Y-32923444D01*
X50099963Y-32934769D01*
X50171718Y-33028282D01*
X50297159Y-33124536D01*
X50443238Y-33185044D01*
X50600000Y-33205682D01*
X50608188Y-33204604D01*
X50748574Y-33186122D01*
X50756762Y-33185044D01*
X50902841Y-33124536D01*
X51028282Y-33028282D01*
X51124536Y-32902841D01*
X51185044Y-32756762D01*
X51205682Y-32600000D01*
X51185044Y-32443238D01*
X51124536Y-32297159D01*
X51056059Y-32207918D01*
X51033305Y-32178264D01*
X51028282Y-32171718D01*
X50902841Y-32075464D01*
X50756762Y-32014956D01*
X50600000Y-31994318D01*
X50443238Y-32014956D01*
X50297159Y-32075464D01*
X50171718Y-32171718D01*
X50166695Y-32178264D01*
X50099963Y-32265231D01*
X50042625Y-32307098D01*
X49971754Y-32311320D01*
X49909851Y-32276556D01*
X49900037Y-32265231D01*
X49833305Y-32178264D01*
X49828282Y-32171718D01*
X49702841Y-32075464D01*
X49556762Y-32014956D01*
X49400000Y-31994318D01*
X49243238Y-32014956D01*
X49097159Y-32075464D01*
X48971718Y-32171718D01*
X48966695Y-32178264D01*
X48943941Y-32207918D01*
X48875464Y-32297159D01*
X48814956Y-32443238D01*
X48794318Y-32600000D01*
X38443159Y-32600000D01*
X38400000Y-32594318D01*
X38243238Y-32614956D01*
X38235609Y-32618116D01*
X38104787Y-32672304D01*
X38104785Y-32672305D01*
X38097159Y-32675464D01*
X38090609Y-32680490D01*
X38089000Y-32681419D01*
X38020005Y-32698157D01*
X37952913Y-32674937D01*
X37909026Y-32619129D01*
X37900000Y-32572300D01*
X37900000Y-31500000D01*
X46494318Y-31500000D01*
X46514956Y-31656762D01*
X46575464Y-31802841D01*
X46671718Y-31928282D01*
X46797159Y-32024536D01*
X46943238Y-32085044D01*
X47100000Y-32105682D01*
X47108188Y-32104604D01*
X47248574Y-32086122D01*
X47256762Y-32085044D01*
X47402841Y-32024536D01*
X47528282Y-31928282D01*
X47624536Y-31802841D01*
X47685044Y-31656762D01*
X47705682Y-31500000D01*
X47685044Y-31343238D01*
X47624536Y-31197159D01*
X47556059Y-31107918D01*
X47549983Y-31100000D01*
X49994318Y-31100000D01*
X49995396Y-31108188D01*
X50012547Y-31238460D01*
X50014956Y-31256762D01*
X50075464Y-31402841D01*
X50130472Y-31474529D01*
X50150017Y-31500000D01*
X50171718Y-31528282D01*
X50297159Y-31624536D01*
X50443238Y-31685044D01*
X50600000Y-31705682D01*
X50608188Y-31704604D01*
X50748574Y-31686122D01*
X50756762Y-31685044D01*
X50902841Y-31624536D01*
X51028282Y-31528282D01*
X51049984Y-31500000D01*
X51069528Y-31474529D01*
X51124536Y-31402841D01*
X51185044Y-31256762D01*
X51187454Y-31238460D01*
X51204604Y-31108188D01*
X51205682Y-31100000D01*
X51185044Y-30943238D01*
X51124536Y-30797159D01*
X51028282Y-30671718D01*
X50902841Y-30575464D01*
X50756762Y-30514956D01*
X50600000Y-30494318D01*
X50443238Y-30514956D01*
X50297159Y-30575464D01*
X50171718Y-30671718D01*
X50075464Y-30797159D01*
X50014956Y-30943238D01*
X49994318Y-31100000D01*
X47549983Y-31100000D01*
X47533305Y-31078264D01*
X47528282Y-31071718D01*
X47402841Y-30975464D01*
X47256762Y-30914956D01*
X47100000Y-30894318D01*
X46943238Y-30914956D01*
X46797159Y-30975464D01*
X46671718Y-31071718D01*
X46666695Y-31078264D01*
X46643941Y-31107918D01*
X46575464Y-31197159D01*
X46514956Y-31343238D01*
X46494318Y-31500000D01*
X37900000Y-31500000D01*
X37900000Y-29600000D01*
X48794318Y-29600000D01*
X48814956Y-29756762D01*
X48875464Y-29902841D01*
X48971718Y-30028282D01*
X49097159Y-30124536D01*
X49243238Y-30185044D01*
X49400000Y-30205682D01*
X49408188Y-30204604D01*
X49548574Y-30186122D01*
X49556762Y-30185044D01*
X49702841Y-30124536D01*
X49828282Y-30028282D01*
X49924536Y-29902841D01*
X49985044Y-29756762D01*
X50005682Y-29600000D01*
X49985044Y-29443238D01*
X49924536Y-29297159D01*
X49828282Y-29171718D01*
X49702841Y-29075464D01*
X49556762Y-29014956D01*
X49400000Y-28994318D01*
X49243238Y-29014956D01*
X49097159Y-29075464D01*
X48971718Y-29171718D01*
X48875464Y-29297159D01*
X48814956Y-29443238D01*
X48794318Y-29600000D01*
X37900000Y-29600000D01*
X37900000Y-28526000D01*
X37920002Y-28457879D01*
X37973658Y-28411386D01*
X38026000Y-28400000D01*
X57322839Y-28400000D01*
X57390960Y-28420002D01*
X57411934Y-28436905D01*
X62262595Y-33287566D01*
X62296621Y-33349878D01*
X62299500Y-33376661D01*
X62299500Y-38747634D01*
X62299304Y-38750307D01*
X62297575Y-38755342D01*
X62298011Y-38766964D01*
X62298011Y-38766966D01*
X62299411Y-38804255D01*
X62299500Y-38808981D01*
X62299500Y-38827948D01*
X62300382Y-38832683D01*
X62300610Y-38836209D01*
X62301774Y-38867208D01*
X62306364Y-38877893D01*
X62307401Y-38882493D01*
X62310962Y-38894214D01*
X62312661Y-38898617D01*
X62314791Y-38910053D01*
X62327727Y-38931039D01*
X62336231Y-38947411D01*
X62342451Y-38961888D01*
X62342453Y-38961892D01*
X62345964Y-38970063D01*
X62349978Y-38974949D01*
X62352163Y-38977134D01*
X62354215Y-38979397D01*
X62354055Y-38979542D01*
X62361175Y-38988549D01*
X62367427Y-38995444D01*
X62373532Y-39005348D01*
X62395320Y-39021916D01*
X62408139Y-39033110D01*
X66462595Y-43087566D01*
X66496621Y-43149878D01*
X66499500Y-43176661D01*
X66499500Y-51823339D01*
X66479498Y-51891460D01*
X66462595Y-51912434D01*
X65812434Y-52562595D01*
X65750122Y-52596621D01*
X65723339Y-52599500D01*
X59352366Y-52599500D01*
X59349693Y-52599304D01*
X59344658Y-52597575D01*
X59333036Y-52598011D01*
X59333034Y-52598011D01*
X59295745Y-52599411D01*
X59291019Y-52599500D01*
X59272052Y-52599500D01*
X59267317Y-52600382D01*
X59263791Y-52600610D01*
X59260051Y-52600751D01*
X59232792Y-52601774D01*
X59222107Y-52606364D01*
X59217507Y-52607401D01*
X59205786Y-52610962D01*
X59201383Y-52612661D01*
X59189947Y-52614791D01*
X59168961Y-52627727D01*
X59152589Y-52636231D01*
X59138112Y-52642451D01*
X59138108Y-52642453D01*
X59129937Y-52645964D01*
X59125051Y-52649978D01*
X59122866Y-52652163D01*
X59120603Y-52654215D01*
X59120458Y-52654055D01*
X59111451Y-52661175D01*
X59104556Y-52667427D01*
X59094652Y-52673532D01*
X59078084Y-52695320D01*
X59066890Y-52708139D01*
X55523436Y-56251593D01*
X55461124Y-56285619D01*
X55390309Y-56280554D01*
X55333473Y-56238007D01*
X55308662Y-56171487D01*
X55324417Y-56102996D01*
X55324536Y-56102841D01*
X55327697Y-56095211D01*
X55381884Y-55964391D01*
X55385044Y-55956762D01*
X55405682Y-55800000D01*
X55385044Y-55643238D01*
X55324536Y-55497159D01*
X55228282Y-55371718D01*
X55102841Y-55275464D01*
X54956762Y-55214956D01*
X54938001Y-55212486D01*
X54808188Y-55195396D01*
X54800000Y-55194318D01*
X54791812Y-55195396D01*
X54662000Y-55212486D01*
X54643238Y-55214956D01*
X54497159Y-55275464D01*
X54371718Y-55371718D01*
X54275464Y-55497159D01*
X54214956Y-55643238D01*
X54194318Y-55800000D01*
X54214956Y-55956762D01*
X54275464Y-56102841D01*
X54371718Y-56228282D01*
X54497159Y-56324536D01*
X54643238Y-56385044D01*
X54651426Y-56386122D01*
X54746039Y-56398578D01*
X54802387Y-56423505D01*
X54834909Y-56402604D01*
X54853961Y-56398578D01*
X54948574Y-56386122D01*
X54956762Y-56385044D01*
X54964391Y-56381884D01*
X55095215Y-56327695D01*
X55095216Y-56327694D01*
X55102841Y-56324536D01*
X55103080Y-56324353D01*
X55168496Y-56308484D01*
X55235587Y-56331706D01*
X55279473Y-56387514D01*
X55286221Y-56458189D01*
X55251593Y-56523436D01*
X55162434Y-56612595D01*
X55100122Y-56646621D01*
X55073339Y-56649500D01*
X54870407Y-56649500D01*
X54802286Y-56629498D01*
X54798222Y-56624808D01*
X54749008Y-56647995D01*
X54729593Y-56649500D01*
X50402366Y-56649500D01*
X50399693Y-56649304D01*
X50394658Y-56647575D01*
X50383036Y-56648011D01*
X50383034Y-56648011D01*
X50345745Y-56649411D01*
X50341019Y-56649500D01*
X50322052Y-56649500D01*
X50317317Y-56650382D01*
X50313791Y-56650610D01*
X50310051Y-56650751D01*
X50282792Y-56651774D01*
X50272107Y-56656364D01*
X50267507Y-56657401D01*
X50255786Y-56660962D01*
X50251383Y-56662661D01*
X50239947Y-56664791D01*
X50218961Y-56677727D01*
X50202589Y-56686231D01*
X50188112Y-56692451D01*
X50188108Y-56692453D01*
X50179937Y-56695964D01*
X50175051Y-56699978D01*
X50172866Y-56702163D01*
X50170603Y-56704215D01*
X50170458Y-56704055D01*
X50161451Y-56711175D01*
X50154556Y-56717427D01*
X50144652Y-56723532D01*
X50128084Y-56745320D01*
X50116890Y-56758139D01*
X49394059Y-57480970D01*
X49331747Y-57514996D01*
X49260932Y-57509931D01*
X49204096Y-57467384D01*
X49179285Y-57400864D01*
X49183033Y-57361616D01*
X49185044Y-57356762D01*
X49189337Y-57324158D01*
X49204604Y-57208188D01*
X49205682Y-57200000D01*
X49185044Y-57043238D01*
X49124536Y-56897159D01*
X49028282Y-56771718D01*
X49021524Y-56766532D01*
X48951149Y-56712532D01*
X48902841Y-56675464D01*
X48756762Y-56614956D01*
X48738829Y-56612595D01*
X48608188Y-56595396D01*
X48600000Y-56594318D01*
X48591812Y-56595396D01*
X48461172Y-56612595D01*
X48443238Y-56614956D01*
X48297159Y-56675464D01*
X48248851Y-56712532D01*
X48178477Y-56766532D01*
X48171718Y-56771718D01*
X48075464Y-56897159D01*
X48014956Y-57043238D01*
X47994318Y-57200000D01*
X48014956Y-57356762D01*
X48018115Y-57364389D01*
X48018116Y-57364392D01*
X48049825Y-57440944D01*
X48057414Y-57511534D01*
X48025634Y-57575021D01*
X47964576Y-57611248D01*
X47952699Y-57613537D01*
X47951426Y-57613878D01*
X47943238Y-57614956D01*
X47935609Y-57618116D01*
X47804787Y-57672304D01*
X47804785Y-57672305D01*
X47797159Y-57675464D01*
X47793090Y-57678586D01*
X47725502Y-57694981D01*
X47658410Y-57671759D01*
X47614525Y-57615951D01*
X47605500Y-57569124D01*
X47605500Y-56871257D01*
X47599992Y-56823997D01*
X47586664Y-56767597D01*
X47582939Y-56753952D01*
X47546951Y-56691861D01*
X47540625Y-56680947D01*
X47540624Y-56680946D01*
X47537077Y-56674826D01*
X47536388Y-56674086D01*
X47512745Y-56609704D01*
X47528188Y-56540407D01*
X47531054Y-56536022D01*
X47532527Y-56534578D01*
X47577174Y-56454760D01*
X47592488Y-56402604D01*
X47595907Y-56390962D01*
X47595908Y-56390958D01*
X47597176Y-56386639D01*
X47597860Y-56381884D01*
X47604861Y-56333191D01*
X47604862Y-56333184D01*
X47605500Y-56328743D01*
X47605500Y-53600000D01*
X48594318Y-53600000D01*
X48614956Y-53756762D01*
X48675464Y-53902841D01*
X48680491Y-53909392D01*
X48750017Y-54000000D01*
X48771718Y-54028282D01*
X48897159Y-54124536D01*
X49043238Y-54185044D01*
X49051426Y-54186122D01*
X49108681Y-54193660D01*
X49173608Y-54222383D01*
X49212699Y-54281648D01*
X49213795Y-54343085D01*
X49214956Y-54343238D01*
X49194318Y-54500000D01*
X49214956Y-54656762D01*
X49275464Y-54802841D01*
X49280491Y-54809392D01*
X49350017Y-54900000D01*
X49371718Y-54928282D01*
X49497159Y-55024536D01*
X49643238Y-55085044D01*
X49651426Y-55086122D01*
X49685501Y-55090608D01*
X49800000Y-55105682D01*
X49808188Y-55104604D01*
X49821580Y-55102841D01*
X49914499Y-55090608D01*
X49948574Y-55086122D01*
X49956762Y-55085044D01*
X50102841Y-55024536D01*
X50228282Y-54928282D01*
X50249984Y-54900000D01*
X50319509Y-54809392D01*
X50324536Y-54802841D01*
X50385044Y-54656762D01*
X50405682Y-54500000D01*
X50385044Y-54343238D01*
X50324536Y-54197159D01*
X50251044Y-54101382D01*
X50233305Y-54078264D01*
X50228282Y-54071718D01*
X50102841Y-53975464D01*
X49956762Y-53914956D01*
X49948574Y-53913878D01*
X49891319Y-53906340D01*
X49826392Y-53877617D01*
X49787301Y-53818352D01*
X49786205Y-53756915D01*
X49785044Y-53756762D01*
X49786064Y-53749016D01*
X49786064Y-53749015D01*
X49792517Y-53700000D01*
X55994318Y-53700000D01*
X56014956Y-53856762D01*
X56075464Y-54002841D01*
X56080491Y-54009392D01*
X56150017Y-54100000D01*
X56171718Y-54128282D01*
X56297159Y-54224536D01*
X56443238Y-54285044D01*
X56600000Y-54305682D01*
X56608188Y-54304604D01*
X56621580Y-54302841D01*
X56756762Y-54285044D01*
X56902841Y-54224536D01*
X57028282Y-54128282D01*
X57049984Y-54100000D01*
X57119509Y-54009392D01*
X57124536Y-54002841D01*
X57185044Y-53856762D01*
X57205682Y-53700000D01*
X57187656Y-53563075D01*
X57186122Y-53551426D01*
X57185044Y-53543238D01*
X57124536Y-53397159D01*
X57028282Y-53271718D01*
X56902841Y-53175464D01*
X56756762Y-53114956D01*
X56600000Y-53094318D01*
X56443238Y-53114956D01*
X56297159Y-53175464D01*
X56171718Y-53271718D01*
X56075464Y-53397159D01*
X56014956Y-53543238D01*
X56013878Y-53551426D01*
X56012344Y-53563075D01*
X55994318Y-53700000D01*
X49792517Y-53700000D01*
X49805682Y-53600000D01*
X49792517Y-53500000D01*
X49786122Y-53451426D01*
X49785044Y-53443238D01*
X49724536Y-53297159D01*
X49650367Y-53200500D01*
X49633305Y-53178264D01*
X49628282Y-53171718D01*
X49502841Y-53075464D01*
X49356762Y-53014956D01*
X49200000Y-52994318D01*
X49043238Y-53014956D01*
X48897159Y-53075464D01*
X48771718Y-53171718D01*
X48766695Y-53178264D01*
X48749633Y-53200500D01*
X48675464Y-53297159D01*
X48614956Y-53443238D01*
X48613878Y-53451426D01*
X48607483Y-53500000D01*
X48594318Y-53600000D01*
X47605500Y-53600000D01*
X47605500Y-53126000D01*
X47604802Y-53119509D01*
X47601166Y-53085683D01*
X47601165Y-53085677D01*
X47600804Y-53082319D01*
X47589418Y-53029977D01*
X47586930Y-53019797D01*
X47543921Y-52939084D01*
X47497428Y-52885428D01*
X47479835Y-52867473D01*
X47400017Y-52822826D01*
X47358910Y-52810756D01*
X47336219Y-52804093D01*
X47336215Y-52804092D01*
X47331896Y-52802824D01*
X47327448Y-52802184D01*
X47327441Y-52802183D01*
X47278448Y-52795139D01*
X47278441Y-52795138D01*
X47274000Y-52794500D01*
X44126000Y-52794500D01*
X44122654Y-52794860D01*
X44122649Y-52794860D01*
X44085683Y-52798834D01*
X44085677Y-52798835D01*
X44082319Y-52799196D01*
X44029977Y-52810582D01*
X44029283Y-52810752D01*
X44029264Y-52810756D01*
X44028130Y-52811033D01*
X44019797Y-52813070D01*
X43939084Y-52856079D01*
X43933738Y-52860711D01*
X43933737Y-52860712D01*
X43918508Y-52873908D01*
X43885428Y-52902572D01*
X43867473Y-52920165D01*
X43822826Y-52999983D01*
X43802824Y-53068104D01*
X43802184Y-53072552D01*
X43802183Y-53072559D01*
X43795139Y-53121552D01*
X43795138Y-53121559D01*
X43794500Y-53126000D01*
X43794500Y-53604943D01*
X43774498Y-53673064D01*
X43720842Y-53719557D01*
X43650568Y-53729661D01*
X43585988Y-53700167D01*
X43557305Y-53664201D01*
X43543921Y-53639084D01*
X43497428Y-53585428D01*
X43493956Y-53581884D01*
X43486140Y-53573908D01*
X43479835Y-53567473D01*
X43400017Y-53522826D01*
X43358910Y-53510756D01*
X43336219Y-53504093D01*
X43336215Y-53504092D01*
X43331896Y-53502824D01*
X43327448Y-53502184D01*
X43327441Y-53502183D01*
X43278448Y-53495139D01*
X43278441Y-53495138D01*
X43274000Y-53494500D01*
X43001382Y-53494500D01*
X43000000Y-53494318D01*
X42998618Y-53494500D01*
X42201382Y-53494500D01*
X42200000Y-53494318D01*
X42198618Y-53494500D01*
X41926000Y-53494500D01*
X41922654Y-53494860D01*
X41922649Y-53494860D01*
X41885683Y-53498834D01*
X41885677Y-53498835D01*
X41882319Y-53499196D01*
X41829977Y-53510582D01*
X41829283Y-53510752D01*
X41829264Y-53510756D01*
X41828130Y-53511033D01*
X41819797Y-53513070D01*
X41739084Y-53556079D01*
X41733738Y-53560711D01*
X41733737Y-53560712D01*
X41718508Y-53573908D01*
X41685428Y-53602572D01*
X41667473Y-53620165D01*
X41622826Y-53699983D01*
X41620832Y-53706775D01*
X41608491Y-53748805D01*
X41602824Y-53768104D01*
X41602184Y-53772552D01*
X41602183Y-53772559D01*
X41595139Y-53821552D01*
X41595138Y-53821559D01*
X41594500Y-53826000D01*
X41594500Y-54098618D01*
X41594318Y-54100000D01*
X41594500Y-54101382D01*
X41594500Y-54898618D01*
X41594318Y-54900000D01*
X41594500Y-54901382D01*
X41594500Y-61369124D01*
X41574498Y-61437245D01*
X41520842Y-61483738D01*
X41450568Y-61493842D01*
X41407256Y-61478852D01*
X41402841Y-61475464D01*
X41395215Y-61472305D01*
X41395213Y-61472304D01*
X41264391Y-61418116D01*
X41256762Y-61414956D01*
X41216915Y-61409710D01*
X41108188Y-61395396D01*
X41100000Y-61394318D01*
X41091812Y-61395396D01*
X40983086Y-61409710D01*
X40943238Y-61414956D01*
X40797159Y-61475464D01*
X40671718Y-61571718D01*
X40666695Y-61578264D01*
X40654038Y-61594759D01*
X40575464Y-61697159D01*
X40514956Y-61843238D01*
X40494318Y-62000000D01*
X40514956Y-62156762D01*
X40575464Y-62302841D01*
X40671718Y-62428282D01*
X40797159Y-62524536D01*
X40943238Y-62585044D01*
X41100000Y-62605682D01*
X41108188Y-62604604D01*
X41248574Y-62586122D01*
X41256762Y-62585044D01*
X41402841Y-62524536D01*
X41528282Y-62428282D01*
X41624536Y-62302841D01*
X41685044Y-62156762D01*
X41705682Y-62000000D01*
X41696634Y-61931273D01*
X41707573Y-61861124D01*
X41754702Y-61808026D01*
X41823056Y-61788836D01*
X41857053Y-61793931D01*
X41868104Y-61797176D01*
X41872552Y-61797816D01*
X41872559Y-61797817D01*
X41921552Y-61804861D01*
X41921559Y-61804862D01*
X41926000Y-61805500D01*
X42398618Y-61805500D01*
X42400000Y-61805682D01*
X42401382Y-61805500D01*
X43274000Y-61805500D01*
X43277346Y-61805140D01*
X43277351Y-61805140D01*
X43314317Y-61801166D01*
X43314323Y-61801165D01*
X43317681Y-61800804D01*
X43370023Y-61789418D01*
X43370717Y-61789248D01*
X43370736Y-61789244D01*
X43372404Y-61788836D01*
X43380203Y-61786930D01*
X43460916Y-61743921D01*
X43474066Y-61732527D01*
X43513111Y-61698694D01*
X43513112Y-61698693D01*
X43514572Y-61697428D01*
X43532527Y-61679835D01*
X43558535Y-61633339D01*
X43609246Y-61583653D01*
X43678771Y-61569270D01*
X43745034Y-61594759D01*
X43786999Y-61652025D01*
X43794500Y-61694851D01*
X43794500Y-65747810D01*
X43795677Y-65769773D01*
X43798556Y-65796556D01*
X43822517Y-65873081D01*
X43825483Y-65878513D01*
X43825484Y-65878515D01*
X43854385Y-65931442D01*
X43854388Y-65931447D01*
X43856543Y-65935393D01*
X43859241Y-65938997D01*
X43878252Y-65964391D01*
X43891595Y-65982215D01*
X44385309Y-66475929D01*
X44397186Y-66497680D01*
X44409279Y-66502027D01*
X44424071Y-66514691D01*
X45357595Y-67448215D01*
X45391621Y-67510527D01*
X45394500Y-67537310D01*
X45394500Y-79868500D01*
X45374498Y-79936621D01*
X45320842Y-79983114D01*
X45268500Y-79994500D01*
X43973014Y-79994500D01*
X43904893Y-79974498D01*
X43858400Y-79920842D01*
X43847584Y-79880467D01*
X43829900Y-79695121D01*
X43829466Y-79690569D01*
X43821315Y-79657256D01*
X43766721Y-79434149D01*
X43765636Y-79429715D01*
X43664818Y-79180808D01*
X43529125Y-78949062D01*
X43361399Y-78739331D01*
X43165154Y-78556009D01*
X43007199Y-78446431D01*
X42962632Y-78391171D01*
X42955015Y-78320585D01*
X42969056Y-78281397D01*
X42973719Y-78273060D01*
X42977174Y-78266884D01*
X42997176Y-78198763D01*
X42997817Y-78194308D01*
X43004861Y-78145315D01*
X43004862Y-78145308D01*
X43005500Y-78140867D01*
X43005500Y-76816181D01*
X43003231Y-76785725D01*
X43002885Y-76783414D01*
X43002883Y-76783399D01*
X43000905Y-76770195D01*
X43010593Y-76699863D01*
X43056767Y-76645933D01*
X43077296Y-76635117D01*
X43102841Y-76624536D01*
X43196792Y-76552445D01*
X43263012Y-76526845D01*
X43332561Y-76541110D01*
X43383357Y-76590711D01*
X43399273Y-76659901D01*
X43398418Y-76668853D01*
X43395396Y-76691810D01*
X43394318Y-76700000D01*
X43414956Y-76856762D01*
X43475464Y-77002841D01*
X43571718Y-77128282D01*
X43697159Y-77224536D01*
X43843238Y-77285044D01*
X44000000Y-77305682D01*
X44008188Y-77304604D01*
X44148574Y-77286122D01*
X44156762Y-77285044D01*
X44302841Y-77224536D01*
X44428282Y-77128282D01*
X44524536Y-77002841D01*
X44585044Y-76856762D01*
X44605682Y-76700000D01*
X44585044Y-76543238D01*
X44524536Y-76397159D01*
X44428282Y-76271718D01*
X44302841Y-76175464D01*
X44156762Y-76114956D01*
X44000000Y-76094318D01*
X43843238Y-76114956D01*
X43697159Y-76175464D01*
X43603208Y-76247555D01*
X43536988Y-76273155D01*
X43467439Y-76258890D01*
X43416643Y-76209289D01*
X43400727Y-76140099D01*
X43401582Y-76131147D01*
X43404604Y-76108190D01*
X43404604Y-76108188D01*
X43405682Y-76100000D01*
X43385044Y-75943238D01*
X43324536Y-75797159D01*
X43228282Y-75671718D01*
X43102841Y-75575464D01*
X43075395Y-75564095D01*
X43020115Y-75519549D01*
X42997693Y-75452186D01*
X42998896Y-75429755D01*
X43004860Y-75388278D01*
X43004861Y-75388263D01*
X43005500Y-75383819D01*
X43005500Y-71126000D01*
X43000804Y-71082319D01*
X42989418Y-71029977D01*
X42986930Y-71019797D01*
X42943921Y-70939084D01*
X42897428Y-70885428D01*
X42879835Y-70867473D01*
X42800017Y-70822826D01*
X42766552Y-70813000D01*
X42736219Y-70804093D01*
X42736215Y-70804092D01*
X42731896Y-70802824D01*
X42727448Y-70802184D01*
X42727441Y-70802183D01*
X42678448Y-70795139D01*
X42678441Y-70795138D01*
X42674000Y-70794500D01*
X39537310Y-70794500D01*
X39469189Y-70774498D01*
X39448215Y-70757595D01*
X37110319Y-68419699D01*
X37076293Y-68357387D01*
X37081358Y-68286572D01*
X37123905Y-68229736D01*
X37190425Y-68204925D01*
X37193434Y-68204818D01*
X37200000Y-68205682D01*
X37208188Y-68204604D01*
X37348574Y-68186122D01*
X37356762Y-68185044D01*
X37502841Y-68124536D01*
X37628282Y-68028282D01*
X37724536Y-67902841D01*
X37785044Y-67756762D01*
X37805682Y-67600000D01*
X41194318Y-67600000D01*
X41214956Y-67756762D01*
X41275464Y-67902841D01*
X41371718Y-68028282D01*
X41497159Y-68124536D01*
X41643238Y-68185044D01*
X41800000Y-68205682D01*
X41808188Y-68204604D01*
X41948574Y-68186122D01*
X41956762Y-68185044D01*
X42102841Y-68124536D01*
X42228282Y-68028282D01*
X42324536Y-67902841D01*
X42385044Y-67756762D01*
X42405682Y-67600000D01*
X42385044Y-67443238D01*
X42324536Y-67297159D01*
X42228282Y-67171718D01*
X42134817Y-67100000D01*
X43194318Y-67100000D01*
X43214956Y-67256762D01*
X43275464Y-67402841D01*
X43371718Y-67528282D01*
X43378264Y-67533305D01*
X43397167Y-67547810D01*
X43497159Y-67624536D01*
X43643238Y-67685044D01*
X43800000Y-67705682D01*
X43808188Y-67704604D01*
X43948574Y-67686122D01*
X43956762Y-67685044D01*
X44102841Y-67624536D01*
X44202833Y-67547810D01*
X44221736Y-67533305D01*
X44228282Y-67528282D01*
X44324536Y-67402841D01*
X44385044Y-67256762D01*
X44405682Y-67100000D01*
X44385044Y-66943238D01*
X44324536Y-66797159D01*
X44235013Y-66680490D01*
X44232218Y-66673261D01*
X44219510Y-66664987D01*
X44109392Y-66580491D01*
X44102841Y-66575464D01*
X43956762Y-66514956D01*
X43800000Y-66494318D01*
X43643238Y-66514956D01*
X43497159Y-66575464D01*
X43371718Y-66671718D01*
X43275464Y-66797159D01*
X43214956Y-66943238D01*
X43194318Y-67100000D01*
X42134817Y-67100000D01*
X42102841Y-67075464D01*
X41956762Y-67014956D01*
X41800000Y-66994318D01*
X41643238Y-67014956D01*
X41497159Y-67075464D01*
X41371718Y-67171718D01*
X41275464Y-67297159D01*
X41214956Y-67443238D01*
X41194318Y-67600000D01*
X37805682Y-67600000D01*
X37785044Y-67443238D01*
X37724536Y-67297159D01*
X37628282Y-67171718D01*
X37502841Y-67075464D01*
X37356762Y-67014956D01*
X37200000Y-66994318D01*
X37043238Y-67014956D01*
X36897159Y-67075464D01*
X36771718Y-67171718D01*
X36675464Y-67297159D01*
X36614956Y-67443238D01*
X36594318Y-67600000D01*
X36594705Y-67602939D01*
X36575394Y-67668707D01*
X36521738Y-67715200D01*
X36451464Y-67725304D01*
X36386884Y-67695810D01*
X36380301Y-67689681D01*
X34642405Y-65951785D01*
X34608379Y-65889473D01*
X34605500Y-65862690D01*
X34605500Y-65545357D01*
X34604450Y-65524610D01*
X34601881Y-65499294D01*
X34578952Y-65423707D01*
X34545670Y-65360994D01*
X34532552Y-65339554D01*
X34502138Y-65311999D01*
X34470020Y-65282901D01*
X34470016Y-65282898D01*
X34464775Y-65278150D01*
X34454366Y-65272304D01*
X34404536Y-65244320D01*
X34402873Y-65243386D01*
X34380242Y-65232440D01*
X34381318Y-65230214D01*
X34333429Y-65197914D01*
X34305376Y-65132694D01*
X34305457Y-65116446D01*
X34304604Y-65116446D01*
X34304604Y-65108188D01*
X34305682Y-65100000D01*
X34304604Y-65091812D01*
X34304604Y-65083554D01*
X34307811Y-65083554D01*
X34316424Y-65028335D01*
X34363554Y-64975238D01*
X34378634Y-64967898D01*
X34380203Y-64967573D01*
X34460916Y-64924564D01*
X34500104Y-64890608D01*
X34513111Y-64879337D01*
X34513112Y-64879336D01*
X34514572Y-64878071D01*
X34532527Y-64860478D01*
X34577174Y-64780660D01*
X34592726Y-64727696D01*
X34595907Y-64716862D01*
X34595908Y-64716858D01*
X34597176Y-64712539D01*
X34601784Y-64680491D01*
X34604861Y-64659091D01*
X34604862Y-64659084D01*
X34605500Y-64654643D01*
X34605500Y-59600000D01*
X35694318Y-59600000D01*
X35714956Y-59756762D01*
X35775464Y-59902841D01*
X35871718Y-60028282D01*
X35997159Y-60124536D01*
X36143238Y-60185044D01*
X36300000Y-60205682D01*
X36308188Y-60204604D01*
X36448574Y-60186122D01*
X36456762Y-60185044D01*
X36602841Y-60124536D01*
X36728282Y-60028282D01*
X36824536Y-59902841D01*
X36885044Y-59756762D01*
X36905682Y-59600000D01*
X37694318Y-59600000D01*
X37714956Y-59756762D01*
X37775464Y-59902841D01*
X37871718Y-60028282D01*
X37997159Y-60124536D01*
X38143238Y-60185044D01*
X38300000Y-60205682D01*
X38308188Y-60204604D01*
X38448574Y-60186122D01*
X38456762Y-60185044D01*
X38602841Y-60124536D01*
X38623298Y-60108839D01*
X38689515Y-60083239D01*
X38759064Y-60097503D01*
X38776697Y-60108835D01*
X38797159Y-60124536D01*
X38943238Y-60185044D01*
X39100000Y-60205682D01*
X39108188Y-60204604D01*
X39248574Y-60186122D01*
X39256762Y-60185044D01*
X39402841Y-60124536D01*
X39423298Y-60108839D01*
X39489515Y-60083239D01*
X39559064Y-60097503D01*
X39576697Y-60108835D01*
X39597159Y-60124536D01*
X39743238Y-60185044D01*
X39900000Y-60205682D01*
X39908188Y-60204604D01*
X40048574Y-60186122D01*
X40056762Y-60185044D01*
X40202841Y-60124536D01*
X40328282Y-60028282D01*
X40424536Y-59902841D01*
X40485044Y-59756762D01*
X40505682Y-59600000D01*
X40485044Y-59443238D01*
X40424536Y-59297159D01*
X40328282Y-59171718D01*
X40202841Y-59075464D01*
X40056762Y-59014956D01*
X39900000Y-58994318D01*
X39743238Y-59014956D01*
X39597159Y-59075464D01*
X39576702Y-59091161D01*
X39510485Y-59116761D01*
X39440936Y-59102497D01*
X39423303Y-59091165D01*
X39402841Y-59075464D01*
X39256762Y-59014956D01*
X39100000Y-58994318D01*
X38943238Y-59014956D01*
X38797159Y-59075464D01*
X38776702Y-59091161D01*
X38710485Y-59116761D01*
X38640936Y-59102497D01*
X38623303Y-59091165D01*
X38602841Y-59075464D01*
X38456762Y-59014956D01*
X38300000Y-58994318D01*
X38143238Y-59014956D01*
X37997159Y-59075464D01*
X37871718Y-59171718D01*
X37775464Y-59297159D01*
X37714956Y-59443238D01*
X37694318Y-59600000D01*
X36905682Y-59600000D01*
X36885044Y-59443238D01*
X36824536Y-59297159D01*
X36728282Y-59171718D01*
X36602841Y-59075464D01*
X36456762Y-59014956D01*
X36300000Y-58994318D01*
X36143238Y-59014956D01*
X35997159Y-59075464D01*
X35871718Y-59171718D01*
X35775464Y-59297159D01*
X35714956Y-59443238D01*
X35694318Y-59600000D01*
X34605500Y-59600000D01*
X34605500Y-58401382D01*
X34605682Y-58400000D01*
X34605500Y-58398618D01*
X34605500Y-58126000D01*
X34600804Y-58082319D01*
X34589418Y-58029977D01*
X34586930Y-58019797D01*
X34543921Y-57939084D01*
X34501917Y-57890608D01*
X34498694Y-57886889D01*
X34498693Y-57886888D01*
X34497428Y-57885428D01*
X34479835Y-57867473D01*
X34400017Y-57822826D01*
X34358910Y-57810756D01*
X34336219Y-57804093D01*
X34336215Y-57804092D01*
X34331896Y-57802824D01*
X34327448Y-57802184D01*
X34327441Y-57802183D01*
X34278448Y-57795139D01*
X34278441Y-57795138D01*
X34274000Y-57794500D01*
X34001382Y-57794500D01*
X34000000Y-57794318D01*
X33998618Y-57794500D01*
X33201382Y-57794500D01*
X33200000Y-57794318D01*
X33198618Y-57794500D01*
X31626000Y-57794500D01*
X31622654Y-57794860D01*
X31622649Y-57794860D01*
X31585683Y-57798834D01*
X31585677Y-57798835D01*
X31582319Y-57799196D01*
X31529977Y-57810582D01*
X31529283Y-57810752D01*
X31529264Y-57810756D01*
X31528130Y-57811033D01*
X31519797Y-57813070D01*
X31439084Y-57856079D01*
X31433738Y-57860711D01*
X31433737Y-57860712D01*
X31418508Y-57873908D01*
X31385428Y-57902572D01*
X31367473Y-57920165D01*
X31322826Y-57999983D01*
X31302824Y-58068104D01*
X31302184Y-58072552D01*
X31302183Y-58072559D01*
X31295139Y-58121552D01*
X31295138Y-58121559D01*
X31294500Y-58126000D01*
X31294500Y-58898618D01*
X31294318Y-58900000D01*
X31294500Y-58901382D01*
X31294500Y-65462690D01*
X31274498Y-65530811D01*
X31257595Y-65551785D01*
X29420595Y-67388785D01*
X29358283Y-67422811D01*
X29287468Y-67417746D01*
X29230632Y-67375199D01*
X29205821Y-67308679D01*
X29205500Y-67299690D01*
X29205500Y-56000000D01*
X35694318Y-56000000D01*
X35714956Y-56156762D01*
X35775464Y-56302841D01*
X35871718Y-56428282D01*
X35997159Y-56524536D01*
X36143238Y-56585044D01*
X36300000Y-56605682D01*
X36308188Y-56604604D01*
X36448574Y-56586122D01*
X36456762Y-56585044D01*
X36602841Y-56524536D01*
X36728282Y-56428282D01*
X36824536Y-56302841D01*
X36885044Y-56156762D01*
X36905682Y-56000000D01*
X37294318Y-56000000D01*
X37314956Y-56156762D01*
X37375464Y-56302841D01*
X37471718Y-56428282D01*
X37597159Y-56524536D01*
X37743238Y-56585044D01*
X37900000Y-56605682D01*
X37908188Y-56604604D01*
X38048574Y-56586122D01*
X38056762Y-56585044D01*
X38202841Y-56524536D01*
X38223298Y-56508839D01*
X38289515Y-56483239D01*
X38359064Y-56497503D01*
X38376697Y-56508835D01*
X38397159Y-56524536D01*
X38543238Y-56585044D01*
X38700000Y-56605682D01*
X38708188Y-56604604D01*
X38848574Y-56586122D01*
X38856762Y-56585044D01*
X39002841Y-56524536D01*
X39128282Y-56428282D01*
X39224536Y-56302841D01*
X39285044Y-56156762D01*
X39292401Y-56100877D01*
X39321123Y-56035950D01*
X39380388Y-55996858D01*
X39400875Y-55992402D01*
X39456762Y-55985044D01*
X39602841Y-55924536D01*
X39728282Y-55828282D01*
X39749984Y-55800000D01*
X39819509Y-55709392D01*
X39824536Y-55702841D01*
X39885044Y-55556762D01*
X39892401Y-55500877D01*
X39921123Y-55435950D01*
X39980388Y-55396858D01*
X40000875Y-55392402D01*
X40056762Y-55385044D01*
X40202841Y-55324536D01*
X40328282Y-55228282D01*
X40349984Y-55200000D01*
X40382066Y-55158189D01*
X40424536Y-55102841D01*
X40485044Y-54956762D01*
X40505682Y-54800000D01*
X40485044Y-54643238D01*
X40424536Y-54497159D01*
X40408839Y-54476702D01*
X40383239Y-54410485D01*
X40397503Y-54340936D01*
X40408835Y-54323303D01*
X40424536Y-54302841D01*
X40485044Y-54156762D01*
X40505682Y-54000000D01*
X40485044Y-53843238D01*
X40424536Y-53697159D01*
X40408839Y-53676702D01*
X40383239Y-53610485D01*
X40397503Y-53540936D01*
X40408835Y-53523303D01*
X40424536Y-53502841D01*
X40485044Y-53356762D01*
X40505682Y-53200000D01*
X40497654Y-53139022D01*
X40508593Y-53068874D01*
X40555721Y-53015775D01*
X40624075Y-52996585D01*
X40639020Y-52997654D01*
X40700000Y-53005682D01*
X40708188Y-53004604D01*
X40848574Y-52986122D01*
X40856762Y-52985044D01*
X41002841Y-52924536D01*
X41128282Y-52828282D01*
X41141390Y-52811200D01*
X41189444Y-52748574D01*
X41224536Y-52702841D01*
X41267134Y-52600000D01*
X51394318Y-52600000D01*
X51414956Y-52756762D01*
X51475464Y-52902841D01*
X51531189Y-52975464D01*
X51550017Y-53000000D01*
X51571718Y-53028282D01*
X51697159Y-53124536D01*
X51843238Y-53185044D01*
X52000000Y-53205682D01*
X52008188Y-53204604D01*
X52024740Y-53202425D01*
X52156762Y-53185044D01*
X52302841Y-53124536D01*
X52428282Y-53028282D01*
X52449984Y-53000000D01*
X52468811Y-52975464D01*
X52524536Y-52902841D01*
X52585044Y-52756762D01*
X52605682Y-52600000D01*
X52585044Y-52443238D01*
X52524536Y-52297159D01*
X52428282Y-52171718D01*
X52302841Y-52075464D01*
X52156762Y-52014956D01*
X52000000Y-51994318D01*
X51843238Y-52014956D01*
X51697159Y-52075464D01*
X51571718Y-52171718D01*
X51475464Y-52297159D01*
X51414956Y-52443238D01*
X51394318Y-52600000D01*
X41267134Y-52600000D01*
X41285044Y-52556762D01*
X41305682Y-52400000D01*
X41285044Y-52243238D01*
X41224536Y-52097159D01*
X41153516Y-52004604D01*
X41133305Y-51978264D01*
X41128282Y-51971718D01*
X41002841Y-51875464D01*
X40856762Y-51814956D01*
X40700000Y-51794318D01*
X40543238Y-51814956D01*
X40397159Y-51875464D01*
X40376702Y-51891161D01*
X40310485Y-51916761D01*
X40240936Y-51902497D01*
X40223303Y-51891165D01*
X40202841Y-51875464D01*
X40056762Y-51814956D01*
X39900000Y-51794318D01*
X39743238Y-51814956D01*
X39597159Y-51875464D01*
X39471718Y-51971718D01*
X39466695Y-51978264D01*
X39446484Y-52004604D01*
X39375464Y-52097159D01*
X39314956Y-52243238D01*
X39294318Y-52400000D01*
X39314956Y-52556762D01*
X39375464Y-52702841D01*
X39391161Y-52723298D01*
X39416761Y-52789515D01*
X39402497Y-52859064D01*
X39391165Y-52876697D01*
X39375464Y-52897159D01*
X39314956Y-53043238D01*
X39294318Y-53200000D01*
X39314956Y-53356762D01*
X39375464Y-53502841D01*
X39391161Y-53523298D01*
X39416761Y-53589515D01*
X39402497Y-53659064D01*
X39391165Y-53676697D01*
X39375464Y-53697159D01*
X39314956Y-53843238D01*
X39294318Y-54000000D01*
X39314956Y-54156762D01*
X39375464Y-54302841D01*
X39391161Y-54323298D01*
X39416761Y-54389515D01*
X39402497Y-54459064D01*
X39391165Y-54476697D01*
X39375464Y-54497159D01*
X39314956Y-54643238D01*
X39308090Y-54695396D01*
X39307599Y-54699122D01*
X39278877Y-54764050D01*
X39219612Y-54803142D01*
X39199125Y-54807598D01*
X39143238Y-54814956D01*
X38997159Y-54875464D01*
X38871718Y-54971718D01*
X38775464Y-55097159D01*
X38714956Y-55243238D01*
X38710714Y-55275464D01*
X38707599Y-55299122D01*
X38678877Y-55364050D01*
X38619612Y-55403142D01*
X38599125Y-55407598D01*
X38543238Y-55414956D01*
X38397159Y-55475464D01*
X38376702Y-55491161D01*
X38310485Y-55516761D01*
X38240936Y-55502497D01*
X38223303Y-55491165D01*
X38202841Y-55475464D01*
X38056762Y-55414956D01*
X37900000Y-55394318D01*
X37743238Y-55414956D01*
X37597159Y-55475464D01*
X37471718Y-55571718D01*
X37375464Y-55697159D01*
X37314956Y-55843238D01*
X37294318Y-56000000D01*
X36905682Y-56000000D01*
X36885044Y-55843238D01*
X36824536Y-55697159D01*
X36728282Y-55571718D01*
X36602841Y-55475464D01*
X36456762Y-55414956D01*
X36300000Y-55394318D01*
X36143238Y-55414956D01*
X35997159Y-55475464D01*
X35871718Y-55571718D01*
X35775464Y-55697159D01*
X35714956Y-55843238D01*
X35694318Y-56000000D01*
X29205500Y-56000000D01*
X29205500Y-55300000D01*
X34294318Y-55300000D01*
X34314956Y-55456762D01*
X34375464Y-55602841D01*
X34471718Y-55728282D01*
X34597159Y-55824536D01*
X34743238Y-55885044D01*
X34900000Y-55905682D01*
X34908188Y-55904604D01*
X35048574Y-55886122D01*
X35056762Y-55885044D01*
X35202841Y-55824536D01*
X35328282Y-55728282D01*
X35424536Y-55602841D01*
X35485044Y-55456762D01*
X35505682Y-55300000D01*
X35485044Y-55143238D01*
X35424536Y-54997159D01*
X35351044Y-54901382D01*
X35333305Y-54878264D01*
X35328282Y-54871718D01*
X35202841Y-54775464D01*
X35056762Y-54714956D01*
X34900000Y-54694318D01*
X34743238Y-54714956D01*
X34597159Y-54775464D01*
X34471718Y-54871718D01*
X34466695Y-54878264D01*
X34448956Y-54901382D01*
X34375464Y-54997159D01*
X34314956Y-55143238D01*
X34294318Y-55300000D01*
X29205500Y-55300000D01*
X29205500Y-53000000D01*
X36694318Y-53000000D01*
X36714956Y-53156762D01*
X36775464Y-53302841D01*
X36871718Y-53428282D01*
X36997159Y-53524536D01*
X37143238Y-53585044D01*
X37300000Y-53605682D01*
X37308188Y-53604604D01*
X37448574Y-53586122D01*
X37456762Y-53585044D01*
X37602841Y-53524536D01*
X37728282Y-53428282D01*
X37824536Y-53302841D01*
X37885044Y-53156762D01*
X37905682Y-53000000D01*
X37887656Y-52863075D01*
X37886122Y-52851426D01*
X37885044Y-52843238D01*
X37824536Y-52697159D01*
X37808228Y-52675905D01*
X37733305Y-52578264D01*
X37728282Y-52571718D01*
X37602841Y-52475464D01*
X37456762Y-52414956D01*
X37300000Y-52394318D01*
X37143238Y-52414956D01*
X36997159Y-52475464D01*
X36871718Y-52571718D01*
X36866695Y-52578264D01*
X36791773Y-52675905D01*
X36775464Y-52697159D01*
X36714956Y-52843238D01*
X36713878Y-52851426D01*
X36712344Y-52863075D01*
X36694318Y-53000000D01*
X29205500Y-53000000D01*
X29205500Y-51400000D01*
X31694318Y-51400000D01*
X31714956Y-51556762D01*
X31775464Y-51702841D01*
X31871718Y-51828282D01*
X31997159Y-51924536D01*
X32143238Y-51985044D01*
X32300000Y-52005682D01*
X32308188Y-52004604D01*
X32448574Y-51986122D01*
X32456762Y-51985044D01*
X32602841Y-51924536D01*
X32728282Y-51828282D01*
X32824536Y-51702841D01*
X32866927Y-51600500D01*
X47694318Y-51600500D01*
X47714956Y-51757262D01*
X47775464Y-51903341D01*
X47871718Y-52028782D01*
X47997159Y-52125036D01*
X48143238Y-52185544D01*
X48300000Y-52206182D01*
X48308188Y-52205104D01*
X48448574Y-52186622D01*
X48456762Y-52185544D01*
X48602841Y-52125036D01*
X48728282Y-52028782D01*
X48824536Y-51903341D01*
X48847866Y-51847018D01*
X48892413Y-51791738D01*
X48959776Y-51769317D01*
X49028567Y-51786875D01*
X49064235Y-51818531D01*
X49066692Y-51821733D01*
X49066695Y-51821736D01*
X49071718Y-51828282D01*
X49197159Y-51924536D01*
X49343238Y-51985044D01*
X49500000Y-52005682D01*
X49508188Y-52004604D01*
X49648574Y-51986122D01*
X49656762Y-51985044D01*
X49802841Y-51924536D01*
X49928282Y-51828282D01*
X50024536Y-51702841D01*
X50067134Y-51600000D01*
X52694318Y-51600000D01*
X52714956Y-51756762D01*
X52775464Y-51902841D01*
X52782825Y-51912434D01*
X52850017Y-52000000D01*
X52871718Y-52028282D01*
X52997159Y-52124536D01*
X53143238Y-52185044D01*
X53300000Y-52205682D01*
X53308188Y-52204604D01*
X53448574Y-52186122D01*
X53456762Y-52185044D01*
X53602841Y-52124536D01*
X53728282Y-52028282D01*
X53749984Y-52000000D01*
X53817175Y-51912434D01*
X53824536Y-51902841D01*
X53885044Y-51756762D01*
X53905682Y-51600000D01*
X53885044Y-51443238D01*
X53867134Y-51400000D01*
X60494318Y-51400000D01*
X60514956Y-51556762D01*
X60575464Y-51702841D01*
X60671718Y-51828282D01*
X60797159Y-51924536D01*
X60943238Y-51985044D01*
X61100000Y-52005682D01*
X61108188Y-52004604D01*
X61248574Y-51986122D01*
X61256762Y-51985044D01*
X61402841Y-51924536D01*
X61528282Y-51828282D01*
X61624536Y-51702841D01*
X61667134Y-51600000D01*
X64294318Y-51600000D01*
X64314956Y-51756762D01*
X64375464Y-51902841D01*
X64382825Y-51912434D01*
X64450017Y-52000000D01*
X64471718Y-52028282D01*
X64597159Y-52124536D01*
X64743238Y-52185044D01*
X64900000Y-52205682D01*
X64908188Y-52204604D01*
X65048574Y-52186122D01*
X65056762Y-52185044D01*
X65202841Y-52124536D01*
X65328282Y-52028282D01*
X65349984Y-52000000D01*
X65417175Y-51912434D01*
X65424536Y-51902841D01*
X65485044Y-51756762D01*
X65505682Y-51600000D01*
X65485044Y-51443238D01*
X65424536Y-51297159D01*
X65328282Y-51171718D01*
X65202841Y-51075464D01*
X65056762Y-51014956D01*
X64900000Y-50994318D01*
X64743238Y-51014956D01*
X64597159Y-51075464D01*
X64471718Y-51171718D01*
X64375464Y-51297159D01*
X64314956Y-51443238D01*
X64294318Y-51600000D01*
X61667134Y-51600000D01*
X61685044Y-51556762D01*
X61705682Y-51400000D01*
X61685044Y-51243238D01*
X61624536Y-51097159D01*
X61528282Y-50971718D01*
X61402841Y-50875464D01*
X61256762Y-50814956D01*
X61100000Y-50794318D01*
X60943238Y-50814956D01*
X60797159Y-50875464D01*
X60671718Y-50971718D01*
X60575464Y-51097159D01*
X60514956Y-51243238D01*
X60494318Y-51400000D01*
X53867134Y-51400000D01*
X53824536Y-51297159D01*
X53728282Y-51171718D01*
X53602841Y-51075464D01*
X53456762Y-51014956D01*
X53300000Y-50994318D01*
X53143238Y-51014956D01*
X52997159Y-51075464D01*
X52871718Y-51171718D01*
X52775464Y-51297159D01*
X52714956Y-51443238D01*
X52694318Y-51600000D01*
X50067134Y-51600000D01*
X50085044Y-51556762D01*
X50105682Y-51400000D01*
X50085044Y-51243238D01*
X50024536Y-51097159D01*
X49928282Y-50971718D01*
X49802841Y-50875464D01*
X49656762Y-50814956D01*
X49500000Y-50794318D01*
X49343238Y-50814956D01*
X49197159Y-50875464D01*
X49071718Y-50971718D01*
X48975464Y-51097159D01*
X48952986Y-51151426D01*
X48952135Y-51153481D01*
X48907587Y-51208762D01*
X48840224Y-51231183D01*
X48771433Y-51213625D01*
X48735765Y-51181969D01*
X48733308Y-51178767D01*
X48733305Y-51178764D01*
X48728282Y-51172218D01*
X48602841Y-51075964D01*
X48456762Y-51015456D01*
X48300000Y-50994818D01*
X48143238Y-51015456D01*
X47997159Y-51075964D01*
X47871718Y-51172218D01*
X47775464Y-51297659D01*
X47714956Y-51443738D01*
X47694318Y-51600500D01*
X32866927Y-51600500D01*
X32885044Y-51556762D01*
X32905682Y-51400000D01*
X32885044Y-51243238D01*
X32824536Y-51097159D01*
X32728282Y-50971718D01*
X32602841Y-50875464D01*
X32456762Y-50814956D01*
X32300000Y-50794318D01*
X32143238Y-50814956D01*
X31997159Y-50875464D01*
X31871718Y-50971718D01*
X31775464Y-51097159D01*
X31714956Y-51243238D01*
X31694318Y-51400000D01*
X29205500Y-51400000D01*
X29205500Y-50700000D01*
X36794318Y-50700000D01*
X36814956Y-50856762D01*
X36875464Y-51002841D01*
X36880491Y-51009392D01*
X36950017Y-51100000D01*
X36971718Y-51128282D01*
X37097159Y-51224536D01*
X37243238Y-51285044D01*
X37400000Y-51305682D01*
X37408188Y-51304604D01*
X37548574Y-51286122D01*
X37556762Y-51285044D01*
X37702841Y-51224536D01*
X37828282Y-51128282D01*
X37849984Y-51100000D01*
X37919509Y-51009392D01*
X37924536Y-51002841D01*
X37985044Y-50856762D01*
X38005682Y-50700000D01*
X37985044Y-50543238D01*
X37924536Y-50397159D01*
X37828282Y-50271718D01*
X37702841Y-50175464D01*
X37556762Y-50114956D01*
X37400000Y-50094318D01*
X37243238Y-50114956D01*
X37097159Y-50175464D01*
X36971718Y-50271718D01*
X36875464Y-50397159D01*
X36814956Y-50543238D01*
X36794318Y-50700000D01*
X29205500Y-50700000D01*
X29205500Y-49200000D01*
X42894318Y-49200000D01*
X42914956Y-49356762D01*
X42975464Y-49502841D01*
X42981878Y-49511200D01*
X43064290Y-49618601D01*
X43071718Y-49628282D01*
X43197159Y-49724536D01*
X43343238Y-49785044D01*
X43500000Y-49805682D01*
X43508188Y-49804604D01*
X43648574Y-49786122D01*
X43656762Y-49785044D01*
X43802841Y-49724536D01*
X43928282Y-49628282D01*
X43935711Y-49618601D01*
X44018122Y-49511200D01*
X44024536Y-49502841D01*
X44085044Y-49356762D01*
X44105682Y-49200000D01*
X44085044Y-49043238D01*
X44024536Y-48897159D01*
X43928282Y-48771718D01*
X43802841Y-48675464D01*
X43656762Y-48614956D01*
X43500000Y-48594318D01*
X43343238Y-48614956D01*
X43197159Y-48675464D01*
X43071718Y-48771718D01*
X42975464Y-48897159D01*
X42914956Y-49043238D01*
X42894318Y-49200000D01*
X29205500Y-49200000D01*
X29205500Y-48000000D01*
X32294318Y-48000000D01*
X32300889Y-48049911D01*
X32313225Y-48143610D01*
X32314956Y-48156762D01*
X32375464Y-48302841D01*
X32471718Y-48428282D01*
X32597159Y-48524536D01*
X32743238Y-48585044D01*
X32900000Y-48605682D01*
X32908188Y-48604604D01*
X33048574Y-48586122D01*
X33056762Y-48585044D01*
X33202841Y-48524536D01*
X33328282Y-48428282D01*
X33424536Y-48302841D01*
X33485044Y-48156762D01*
X33486776Y-48143610D01*
X33499111Y-48049911D01*
X33505682Y-48000000D01*
X33485044Y-47843238D01*
X33424536Y-47697159D01*
X33328282Y-47571718D01*
X33202841Y-47475464D01*
X33056762Y-47414956D01*
X33025521Y-47410843D01*
X32908188Y-47395396D01*
X32900000Y-47394318D01*
X32891812Y-47395396D01*
X32774480Y-47410843D01*
X32743238Y-47414956D01*
X32597159Y-47475464D01*
X32471718Y-47571718D01*
X32375464Y-47697159D01*
X32314956Y-47843238D01*
X32294318Y-48000000D01*
X29205500Y-48000000D01*
X29205500Y-46600000D01*
X33194318Y-46600000D01*
X33214956Y-46756762D01*
X33275464Y-46902841D01*
X33371718Y-47028282D01*
X33497159Y-47124536D01*
X33643238Y-47185044D01*
X33800000Y-47205682D01*
X33808188Y-47204604D01*
X33948574Y-47186122D01*
X33956762Y-47185044D01*
X34102841Y-47124536D01*
X34228282Y-47028282D01*
X34229177Y-47029449D01*
X34283591Y-46999736D01*
X34354406Y-47004801D01*
X34411242Y-47047348D01*
X34435296Y-47106411D01*
X34449863Y-47217055D01*
X34455066Y-47256579D01*
X34515574Y-47402658D01*
X34611828Y-47528099D01*
X34737269Y-47624353D01*
X34883348Y-47684861D01*
X35040110Y-47705499D01*
X35048298Y-47704421D01*
X35188684Y-47685939D01*
X35196872Y-47684861D01*
X35342951Y-47624353D01*
X35468392Y-47528099D01*
X35564646Y-47402658D01*
X35625154Y-47256579D01*
X35645792Y-47099817D01*
X35625154Y-46943055D01*
X35564646Y-46796976D01*
X35468392Y-46671535D01*
X35342951Y-46575281D01*
X35196872Y-46514773D01*
X35040110Y-46494135D01*
X34883348Y-46514773D01*
X34737269Y-46575281D01*
X34611828Y-46671535D01*
X34610933Y-46670368D01*
X34556519Y-46700081D01*
X34485704Y-46695016D01*
X34428868Y-46652469D01*
X34404814Y-46593406D01*
X34386122Y-46451426D01*
X34385044Y-46443238D01*
X34324536Y-46297159D01*
X34228282Y-46171718D01*
X34102841Y-46075464D01*
X33956762Y-46014956D01*
X33800000Y-45994318D01*
X33643238Y-46014956D01*
X33497159Y-46075464D01*
X33371718Y-46171718D01*
X33275464Y-46297159D01*
X33214956Y-46443238D01*
X33194318Y-46600000D01*
X29205500Y-46600000D01*
X29205500Y-45400000D01*
X46794318Y-45400000D01*
X46814956Y-45556762D01*
X46875464Y-45702841D01*
X46971718Y-45828282D01*
X47097159Y-45924536D01*
X47243238Y-45985044D01*
X47400000Y-46005682D01*
X47408188Y-46004604D01*
X47548574Y-45986122D01*
X47556762Y-45985044D01*
X47702841Y-45924536D01*
X47828282Y-45828282D01*
X47924536Y-45702841D01*
X47985044Y-45556762D01*
X48005682Y-45400000D01*
X48294318Y-45400000D01*
X48314956Y-45556762D01*
X48375464Y-45702841D01*
X48471718Y-45828282D01*
X48597159Y-45924536D01*
X48743238Y-45985044D01*
X48900000Y-46005682D01*
X48908188Y-46004604D01*
X49048574Y-45986122D01*
X49056762Y-45985044D01*
X49202841Y-45924536D01*
X49328282Y-45828282D01*
X49424536Y-45702841D01*
X49485044Y-45556762D01*
X49505682Y-45400000D01*
X49994318Y-45400000D01*
X50014956Y-45556762D01*
X50075464Y-45702841D01*
X50171718Y-45828282D01*
X50297159Y-45924536D01*
X50443238Y-45985044D01*
X50600000Y-46005682D01*
X50608188Y-46004604D01*
X50748574Y-45986122D01*
X50756762Y-45985044D01*
X50902841Y-45924536D01*
X51028282Y-45828282D01*
X51124536Y-45702841D01*
X51185044Y-45556762D01*
X51205682Y-45400000D01*
X51694318Y-45400000D01*
X51714956Y-45556762D01*
X51775464Y-45702841D01*
X51871718Y-45828282D01*
X51997159Y-45924536D01*
X52143238Y-45985044D01*
X52300000Y-46005682D01*
X52308188Y-46004604D01*
X52448574Y-45986122D01*
X52456762Y-45985044D01*
X52602841Y-45924536D01*
X52728282Y-45828282D01*
X52824536Y-45702841D01*
X52885044Y-45556762D01*
X52905682Y-45400000D01*
X58394318Y-45400000D01*
X58414956Y-45556762D01*
X58475464Y-45702841D01*
X58571718Y-45828282D01*
X58697159Y-45924536D01*
X58843238Y-45985044D01*
X59000000Y-46005682D01*
X59008188Y-46004604D01*
X59148574Y-45986122D01*
X59156762Y-45985044D01*
X59302841Y-45924536D01*
X59428282Y-45828282D01*
X59524536Y-45702841D01*
X59585044Y-45556762D01*
X59605682Y-45400000D01*
X59894318Y-45400000D01*
X59914956Y-45556762D01*
X59975464Y-45702841D01*
X60071718Y-45828282D01*
X60197159Y-45924536D01*
X60343238Y-45985044D01*
X60500000Y-46005682D01*
X60508188Y-46004604D01*
X60648574Y-45986122D01*
X60656762Y-45985044D01*
X60802841Y-45924536D01*
X60928282Y-45828282D01*
X61024536Y-45702841D01*
X61085044Y-45556762D01*
X61105682Y-45400000D01*
X61594318Y-45400000D01*
X61614956Y-45556762D01*
X61675464Y-45702841D01*
X61771718Y-45828282D01*
X61897159Y-45924536D01*
X62043238Y-45985044D01*
X62200000Y-46005682D01*
X62208188Y-46004604D01*
X62348574Y-45986122D01*
X62356762Y-45985044D01*
X62502841Y-45924536D01*
X62628282Y-45828282D01*
X62724536Y-45702841D01*
X62785044Y-45556762D01*
X62805682Y-45400000D01*
X63294318Y-45400000D01*
X63314956Y-45556762D01*
X63375464Y-45702841D01*
X63471718Y-45828282D01*
X63597159Y-45924536D01*
X63743238Y-45985044D01*
X63900000Y-46005682D01*
X63908188Y-46004604D01*
X64048574Y-45986122D01*
X64056762Y-45985044D01*
X64202841Y-45924536D01*
X64328282Y-45828282D01*
X64424536Y-45702841D01*
X64485044Y-45556762D01*
X64505682Y-45400000D01*
X64485044Y-45243238D01*
X64424536Y-45097159D01*
X64328282Y-44971718D01*
X64202841Y-44875464D01*
X64056762Y-44814956D01*
X63900000Y-44794318D01*
X63743238Y-44814956D01*
X63597159Y-44875464D01*
X63471718Y-44971718D01*
X63375464Y-45097159D01*
X63314956Y-45243238D01*
X63294318Y-45400000D01*
X62805682Y-45400000D01*
X62785044Y-45243238D01*
X62724536Y-45097159D01*
X62628282Y-44971718D01*
X62502841Y-44875464D01*
X62356762Y-44814956D01*
X62200000Y-44794318D01*
X62043238Y-44814956D01*
X61897159Y-44875464D01*
X61771718Y-44971718D01*
X61675464Y-45097159D01*
X61614956Y-45243238D01*
X61594318Y-45400000D01*
X61105682Y-45400000D01*
X61085044Y-45243238D01*
X61024536Y-45097159D01*
X60928282Y-44971718D01*
X60802841Y-44875464D01*
X60656762Y-44814956D01*
X60500000Y-44794318D01*
X60343238Y-44814956D01*
X60197159Y-44875464D01*
X60071718Y-44971718D01*
X59975464Y-45097159D01*
X59914956Y-45243238D01*
X59894318Y-45400000D01*
X59605682Y-45400000D01*
X59585044Y-45243238D01*
X59524536Y-45097159D01*
X59428282Y-44971718D01*
X59302841Y-44875464D01*
X59156762Y-44814956D01*
X59000000Y-44794318D01*
X58843238Y-44814956D01*
X58697159Y-44875464D01*
X58571718Y-44971718D01*
X58475464Y-45097159D01*
X58414956Y-45243238D01*
X58394318Y-45400000D01*
X52905682Y-45400000D01*
X52885044Y-45243238D01*
X52824536Y-45097159D01*
X52728282Y-44971718D01*
X52602841Y-44875464D01*
X52456762Y-44814956D01*
X52300000Y-44794318D01*
X52143238Y-44814956D01*
X51997159Y-44875464D01*
X51871718Y-44971718D01*
X51775464Y-45097159D01*
X51714956Y-45243238D01*
X51694318Y-45400000D01*
X51205682Y-45400000D01*
X51185044Y-45243238D01*
X51124536Y-45097159D01*
X51028282Y-44971718D01*
X50902841Y-44875464D01*
X50756762Y-44814956D01*
X50600000Y-44794318D01*
X50443238Y-44814956D01*
X50297159Y-44875464D01*
X50171718Y-44971718D01*
X50075464Y-45097159D01*
X50014956Y-45243238D01*
X49994318Y-45400000D01*
X49505682Y-45400000D01*
X49485044Y-45243238D01*
X49424536Y-45097159D01*
X49328282Y-44971718D01*
X49202841Y-44875464D01*
X49056762Y-44814956D01*
X48900000Y-44794318D01*
X48743238Y-44814956D01*
X48597159Y-44875464D01*
X48471718Y-44971718D01*
X48375464Y-45097159D01*
X48314956Y-45243238D01*
X48294318Y-45400000D01*
X48005682Y-45400000D01*
X47985044Y-45243238D01*
X47924536Y-45097159D01*
X47828282Y-44971718D01*
X47702841Y-44875464D01*
X47556762Y-44814956D01*
X47400000Y-44794318D01*
X47243238Y-44814956D01*
X47097159Y-44875464D01*
X46971718Y-44971718D01*
X46875464Y-45097159D01*
X46814956Y-45243238D01*
X46794318Y-45400000D01*
X29205500Y-45400000D01*
X29205500Y-44000000D01*
X38194318Y-44000000D01*
X38214956Y-44156762D01*
X38275464Y-44302841D01*
X38371718Y-44428282D01*
X38497159Y-44524536D01*
X38643238Y-44585044D01*
X38800000Y-44605682D01*
X38808188Y-44604604D01*
X38948574Y-44586122D01*
X38956762Y-44585044D01*
X39102841Y-44524536D01*
X39228282Y-44428282D01*
X39324536Y-44302841D01*
X39385044Y-44156762D01*
X39405682Y-44000000D01*
X39385044Y-43843238D01*
X39324536Y-43697159D01*
X39228282Y-43571718D01*
X39102841Y-43475464D01*
X38956762Y-43414956D01*
X38800000Y-43394318D01*
X38643238Y-43414956D01*
X38497159Y-43475464D01*
X38371718Y-43571718D01*
X38275464Y-43697159D01*
X38214956Y-43843238D01*
X38194318Y-44000000D01*
X29205500Y-44000000D01*
X29205500Y-43126000D01*
X29203200Y-43104604D01*
X29201166Y-43085683D01*
X29201165Y-43085677D01*
X29200804Y-43082319D01*
X29189418Y-43029977D01*
X29186930Y-43019797D01*
X29143921Y-42939084D01*
X29138914Y-42933305D01*
X29098694Y-42886889D01*
X29098693Y-42886888D01*
X29097428Y-42885428D01*
X29079835Y-42867473D01*
X29000017Y-42822826D01*
X28958910Y-42810756D01*
X28936219Y-42804093D01*
X28936215Y-42804092D01*
X28931896Y-42802824D01*
X28927448Y-42802184D01*
X28927441Y-42802183D01*
X28878448Y-42795139D01*
X28878441Y-42795138D01*
X28874000Y-42794500D01*
X25126000Y-42794500D01*
X25122654Y-42794860D01*
X25122649Y-42794860D01*
X25085683Y-42798834D01*
X25085677Y-42798835D01*
X25082319Y-42799196D01*
X25029977Y-42810582D01*
X25029283Y-42810752D01*
X25029264Y-42810756D01*
X25028130Y-42811033D01*
X25019797Y-42813070D01*
X24939084Y-42856079D01*
X24933738Y-42860711D01*
X24933737Y-42860712D01*
X24920359Y-42872304D01*
X24885428Y-42902572D01*
X24867473Y-42920165D01*
X24822826Y-42999983D01*
X24802824Y-43068104D01*
X24802184Y-43072552D01*
X24802183Y-43072559D01*
X24795139Y-43121552D01*
X24795138Y-43121559D01*
X24794500Y-43126000D01*
X24794500Y-49368500D01*
X24774498Y-49436621D01*
X24720842Y-49483114D01*
X24668500Y-49494500D01*
X21726000Y-49494500D01*
X21722654Y-49494860D01*
X21722649Y-49494860D01*
X21685683Y-49498834D01*
X21685677Y-49498835D01*
X21682319Y-49499196D01*
X21629977Y-49510582D01*
X21629283Y-49510752D01*
X21629264Y-49510756D01*
X21628130Y-49511033D01*
X21619797Y-49513070D01*
X21539084Y-49556079D01*
X21533738Y-49560711D01*
X21533737Y-49560712D01*
X21502987Y-49587357D01*
X21485428Y-49602572D01*
X21484051Y-49603921D01*
X21484048Y-49603924D01*
X21480237Y-49607658D01*
X21467473Y-49620165D01*
X21422826Y-49699983D01*
X21402824Y-49768104D01*
X21402184Y-49772552D01*
X21402183Y-49772559D01*
X21395139Y-49821552D01*
X21395138Y-49821559D01*
X21394500Y-49826000D01*
X21394500Y-51270654D01*
X21396769Y-51301110D01*
X21397113Y-51303407D01*
X21397114Y-51303414D01*
X21397830Y-51308188D01*
X21402304Y-51338045D01*
X21404754Y-51344438D01*
X21404754Y-51344439D01*
X21408182Y-51353385D01*
X21413877Y-51424153D01*
X21380409Y-51486766D01*
X21367227Y-51498430D01*
X21278268Y-51566691D01*
X21278264Y-51566695D01*
X21271718Y-51571718D01*
X21266695Y-51578264D01*
X21249633Y-51600500D01*
X21175464Y-51697159D01*
X21114956Y-51843238D01*
X21094318Y-52000000D01*
X21114956Y-52156762D01*
X21175464Y-52302841D01*
X21243734Y-52391812D01*
X21250017Y-52400000D01*
X21271718Y-52428282D01*
X21339759Y-52480491D01*
X21368461Y-52502515D01*
X21410328Y-52559853D01*
X21414550Y-52630724D01*
X21412657Y-52637961D01*
X21402824Y-52671450D01*
X21402184Y-52675898D01*
X21402183Y-52675905D01*
X21395139Y-52724898D01*
X21395138Y-52724905D01*
X21394500Y-52729346D01*
X21394500Y-56262690D01*
X21374498Y-56330811D01*
X21357595Y-56351785D01*
X15251785Y-62457595D01*
X15189473Y-62491621D01*
X15162690Y-62494500D01*
X14663465Y-62494500D01*
X14595344Y-62474498D01*
X14548851Y-62420842D01*
X14538747Y-62350568D01*
X14568241Y-62285988D01*
X14602379Y-62258298D01*
X14639681Y-62237621D01*
X14645261Y-62234528D01*
X14791875Y-62108864D01*
X14795787Y-62103821D01*
X14906311Y-61961335D01*
X14906313Y-61961332D01*
X14910227Y-61956286D01*
X14995481Y-61783026D01*
X14997088Y-61776856D01*
X14997090Y-61776851D01*
X15042545Y-61602345D01*
X15042545Y-61602342D01*
X15044155Y-61596163D01*
X15053652Y-61414956D01*
X15053927Y-61409710D01*
X15053927Y-61409706D01*
X15054261Y-61403329D01*
X15025386Y-61212401D01*
X14988170Y-61111250D01*
X14960914Y-61037168D01*
X14960912Y-61037164D01*
X14958710Y-61031179D01*
X14856955Y-60867066D01*
X14724279Y-60726765D01*
X14642672Y-60669623D01*
X14571335Y-60619673D01*
X14571334Y-60619672D01*
X14566102Y-60616009D01*
X14388885Y-60539320D01*
X14347853Y-60530748D01*
X14204612Y-60500823D01*
X14204608Y-60500823D01*
X14199867Y-60499832D01*
X14193532Y-60499500D01*
X13051741Y-60499500D01*
X12981351Y-60506650D01*
X12914239Y-60513467D01*
X12914238Y-60513467D01*
X12907890Y-60514112D01*
X12723627Y-60571856D01*
X12554739Y-60665472D01*
X12408125Y-60791136D01*
X12404214Y-60796178D01*
X12404213Y-60796179D01*
X12345019Y-60872492D01*
X12289773Y-60943714D01*
X12204519Y-61116974D01*
X12202912Y-61123144D01*
X12202910Y-61123149D01*
X12157455Y-61297655D01*
X12155845Y-61303837D01*
X12151476Y-61387203D01*
X12146417Y-61483738D01*
X12145739Y-61496671D01*
X12174614Y-61687599D01*
X12176820Y-61693594D01*
X12176820Y-61693595D01*
X12239086Y-61862832D01*
X12239088Y-61862836D01*
X12241290Y-61868821D01*
X12343045Y-62032934D01*
X12475721Y-62173235D01*
X12597205Y-62258298D01*
X12607186Y-62265287D01*
X12651515Y-62320744D01*
X12658824Y-62391363D01*
X12626794Y-62454723D01*
X12565593Y-62490709D01*
X12534916Y-62494500D01*
X11926000Y-62494500D01*
X11922654Y-62494860D01*
X11922649Y-62494860D01*
X11885683Y-62498834D01*
X11885677Y-62498835D01*
X11882319Y-62499196D01*
X11829977Y-62510582D01*
X11829283Y-62510752D01*
X11829264Y-62510756D01*
X11828130Y-62511033D01*
X11819797Y-62513070D01*
X11739084Y-62556079D01*
X11685428Y-62602572D01*
X11667473Y-62620165D01*
X11622826Y-62699983D01*
X11602824Y-62768104D01*
X11602184Y-62772552D01*
X11602183Y-62772559D01*
X11595139Y-62821552D01*
X11595138Y-62821559D01*
X11594500Y-62826000D01*
X11594500Y-65774000D01*
X11594860Y-65777346D01*
X11594860Y-65777351D01*
X11597561Y-65802470D01*
X11599196Y-65817681D01*
X11610582Y-65870023D01*
X11613070Y-65880203D01*
X11656079Y-65960916D01*
X11660711Y-65966262D01*
X11660712Y-65966263D01*
X11677297Y-65985403D01*
X11702572Y-66014572D01*
X11703921Y-66015949D01*
X11703924Y-66015952D01*
X11707944Y-66020054D01*
X11720165Y-66032527D01*
X11799983Y-66077174D01*
X11833448Y-66087000D01*
X11863781Y-66095907D01*
X11863785Y-66095908D01*
X11868104Y-66097176D01*
X11872552Y-66097816D01*
X11872559Y-66097817D01*
X11921552Y-66104861D01*
X11921559Y-66104862D01*
X11926000Y-66105500D01*
X18047810Y-66105500D01*
X18059734Y-66104861D01*
X18068080Y-66104414D01*
X18068090Y-66104413D01*
X18069773Y-66104323D01*
X18096556Y-66101444D01*
X18173081Y-66077483D01*
X18178513Y-66074517D01*
X18178515Y-66074516D01*
X18231442Y-66045615D01*
X18231447Y-66045612D01*
X18235393Y-66043457D01*
X18272134Y-66015952D01*
X18278610Y-66011104D01*
X18278612Y-66011102D01*
X18282215Y-66008405D01*
X24579405Y-59711215D01*
X24641717Y-59677189D01*
X24712532Y-59682254D01*
X24769368Y-59724801D01*
X24794179Y-59791321D01*
X24794500Y-59800310D01*
X24794500Y-69668500D01*
X24774498Y-69736621D01*
X24720842Y-69783114D01*
X24668500Y-69794500D01*
X10131500Y-69794500D01*
X10063379Y-69774498D01*
X10016886Y-69720842D01*
X10005500Y-69668500D01*
X10005500Y-68126000D01*
X10000804Y-68082319D01*
X9989418Y-68029977D01*
X9986930Y-68019797D01*
X9943921Y-67939084D01*
X9897428Y-67885428D01*
X9879835Y-67867473D01*
X9800017Y-67822826D01*
X9766552Y-67813000D01*
X9736219Y-67804093D01*
X9736215Y-67804092D01*
X9731896Y-67802824D01*
X9727448Y-67802184D01*
X9727441Y-67802183D01*
X9678448Y-67795139D01*
X9678441Y-67795138D01*
X9674000Y-67794500D01*
X9301382Y-67794500D01*
X9300000Y-67794318D01*
X9298618Y-67794500D01*
X326500Y-67794500D01*
X258379Y-67774498D01*
X211886Y-67720842D01*
X200500Y-67668500D01*
X200500Y-65800000D01*
X2394318Y-65800000D01*
X2414956Y-65956762D01*
X2475464Y-66102841D01*
X2571718Y-66228282D01*
X2697159Y-66324536D01*
X2843238Y-66385044D01*
X3000000Y-66405682D01*
X3008188Y-66404604D01*
X3148574Y-66386122D01*
X3156762Y-66385044D01*
X3302841Y-66324536D01*
X3428282Y-66228282D01*
X3524536Y-66102841D01*
X3585044Y-65956762D01*
X3605682Y-65800000D01*
X3585044Y-65643238D01*
X3524536Y-65497159D01*
X3428282Y-65371718D01*
X3302841Y-65275464D01*
X3156762Y-65214956D01*
X3000000Y-65194318D01*
X2843238Y-65214956D01*
X2697159Y-65275464D01*
X2571718Y-65371718D01*
X2475464Y-65497159D01*
X2414956Y-65643238D01*
X2394318Y-65800000D01*
X200500Y-65800000D01*
X200500Y-59672464D01*
X220502Y-59604343D01*
X274158Y-59557850D01*
X344432Y-59547746D01*
X409012Y-59577240D01*
X442909Y-59624245D01*
X475464Y-59702841D01*
X571718Y-59828282D01*
X697159Y-59924536D01*
X843238Y-59985044D01*
X1000000Y-60005682D01*
X1008188Y-60004604D01*
X1021580Y-60002841D01*
X1156762Y-59985044D01*
X1302841Y-59924536D01*
X1428282Y-59828282D01*
X1524536Y-59702841D01*
X1525713Y-59700000D01*
X3394318Y-59700000D01*
X3414956Y-59856762D01*
X3475464Y-60002841D01*
X3480491Y-60009392D01*
X3548101Y-60097503D01*
X3571718Y-60128282D01*
X3697159Y-60224536D01*
X3843238Y-60285044D01*
X4000000Y-60305682D01*
X4008188Y-60304604D01*
X4148574Y-60286122D01*
X4156762Y-60285044D01*
X4302841Y-60224536D01*
X4428282Y-60128282D01*
X4451900Y-60097503D01*
X4519509Y-60009392D01*
X4524536Y-60002841D01*
X4585044Y-59856762D01*
X4605682Y-59700000D01*
X4585044Y-59543238D01*
X4524536Y-59397159D01*
X4428282Y-59271718D01*
X4302841Y-59175464D01*
X4156762Y-59114956D01*
X4000000Y-59094318D01*
X3843238Y-59114956D01*
X3697159Y-59175464D01*
X3571718Y-59271718D01*
X3475464Y-59397159D01*
X3414956Y-59543238D01*
X3394318Y-59700000D01*
X1525713Y-59700000D01*
X1585044Y-59556762D01*
X1605682Y-59400000D01*
X1585044Y-59243238D01*
X1524536Y-59097159D01*
X1428282Y-58971718D01*
X1302841Y-58875464D01*
X1156762Y-58814956D01*
X1000000Y-58794318D01*
X843238Y-58814956D01*
X697159Y-58875464D01*
X571718Y-58971718D01*
X475464Y-59097159D01*
X446661Y-59166695D01*
X442909Y-59175754D01*
X398361Y-59231035D01*
X330997Y-59253456D01*
X262206Y-59235898D01*
X213828Y-59183936D01*
X200500Y-59127536D01*
X200500Y-58600000D01*
X9794318Y-58600000D01*
X9814956Y-58756762D01*
X9875464Y-58902841D01*
X9971718Y-59028282D01*
X10097159Y-59124536D01*
X10243238Y-59185044D01*
X10400000Y-59205682D01*
X10408188Y-59204604D01*
X10548574Y-59186122D01*
X10556762Y-59185044D01*
X10702841Y-59124536D01*
X10828282Y-59028282D01*
X10924536Y-58902841D01*
X10985044Y-58756762D01*
X11005682Y-58600000D01*
X10985044Y-58443238D01*
X10924536Y-58297159D01*
X10856059Y-58207918D01*
X10833305Y-58178264D01*
X10828282Y-58171718D01*
X10702841Y-58075464D01*
X10556762Y-58014956D01*
X10400000Y-57994318D01*
X10243238Y-58014956D01*
X10097159Y-58075464D01*
X9971718Y-58171718D01*
X9966695Y-58178264D01*
X9943941Y-58207918D01*
X9875464Y-58297159D01*
X9814956Y-58443238D01*
X9794318Y-58600000D01*
X200500Y-58600000D01*
X200500Y-55200000D01*
X894318Y-55200000D01*
X914956Y-55356762D01*
X975464Y-55502841D01*
X1071718Y-55628282D01*
X1197159Y-55724536D01*
X1343238Y-55785044D01*
X1500000Y-55805682D01*
X1508188Y-55804604D01*
X1648574Y-55786122D01*
X1656762Y-55785044D01*
X1802841Y-55724536D01*
X1928282Y-55628282D01*
X2024536Y-55502841D01*
X2085044Y-55356762D01*
X2105682Y-55200000D01*
X2085044Y-55043238D01*
X2024536Y-54897159D01*
X1952163Y-54802841D01*
X1933305Y-54778264D01*
X1928282Y-54771718D01*
X1802841Y-54675464D01*
X1656762Y-54614956D01*
X1500000Y-54594318D01*
X1343238Y-54614956D01*
X1197159Y-54675464D01*
X1071718Y-54771718D01*
X1066695Y-54778264D01*
X1047837Y-54802841D01*
X975464Y-54897159D01*
X914956Y-55043238D01*
X894318Y-55200000D01*
X200500Y-55200000D01*
X200500Y-52300000D01*
X17094318Y-52300000D01*
X17114956Y-52456762D01*
X17175464Y-52602841D01*
X17271718Y-52728282D01*
X17397159Y-52824536D01*
X17442310Y-52843238D01*
X17453157Y-52847731D01*
X17508437Y-52892280D01*
X17530858Y-52959643D01*
X17513300Y-53028434D01*
X17481642Y-53064102D01*
X17478268Y-53066691D01*
X17478264Y-53066695D01*
X17471718Y-53071718D01*
X17466695Y-53078264D01*
X17464986Y-53080491D01*
X17375464Y-53197159D01*
X17314956Y-53343238D01*
X17294318Y-53500000D01*
X17314956Y-53656762D01*
X17375464Y-53802841D01*
X17471718Y-53928282D01*
X17597159Y-54024536D01*
X17743238Y-54085044D01*
X17900000Y-54105682D01*
X17908188Y-54104604D01*
X18048574Y-54086122D01*
X18056762Y-54085044D01*
X18202841Y-54024536D01*
X18328282Y-53928282D01*
X18424536Y-53802841D01*
X18485044Y-53656762D01*
X18505682Y-53500000D01*
X18485044Y-53343238D01*
X18424536Y-53197159D01*
X18335014Y-53080491D01*
X18333305Y-53078264D01*
X18328282Y-53071718D01*
X18202841Y-52975464D01*
X18146843Y-52952269D01*
X18091563Y-52907720D01*
X18069142Y-52840357D01*
X18086700Y-52771566D01*
X18118358Y-52735898D01*
X18121732Y-52733309D01*
X18121736Y-52733305D01*
X18128282Y-52728282D01*
X18224536Y-52602841D01*
X18285044Y-52456762D01*
X18305682Y-52300000D01*
X18285044Y-52143238D01*
X18224536Y-51997159D01*
X18152163Y-51902841D01*
X18133305Y-51878264D01*
X18128282Y-51871718D01*
X18002841Y-51775464D01*
X17856762Y-51714956D01*
X17700000Y-51694318D01*
X17543238Y-51714956D01*
X17397159Y-51775464D01*
X17271718Y-51871718D01*
X17266695Y-51878264D01*
X17247837Y-51902841D01*
X17175464Y-51997159D01*
X17114956Y-52143238D01*
X17094318Y-52300000D01*
X200500Y-52300000D01*
X200500Y-51300000D01*
X12394318Y-51300000D01*
X12414956Y-51456762D01*
X12475464Y-51602841D01*
X12571718Y-51728282D01*
X12697159Y-51824536D01*
X12843238Y-51885044D01*
X13000000Y-51905682D01*
X13008188Y-51904604D01*
X13021580Y-51902841D01*
X13156762Y-51885044D01*
X13302841Y-51824536D01*
X13428282Y-51728282D01*
X13524536Y-51602841D01*
X13585044Y-51456762D01*
X13605682Y-51300000D01*
X13585044Y-51143238D01*
X13567134Y-51100000D01*
X15994318Y-51100000D01*
X16014956Y-51256762D01*
X16075464Y-51402841D01*
X16171718Y-51528282D01*
X16297159Y-51624536D01*
X16443238Y-51685044D01*
X16600000Y-51705682D01*
X16608188Y-51704604D01*
X16621580Y-51702841D01*
X16756762Y-51685044D01*
X16902841Y-51624536D01*
X17028282Y-51528282D01*
X17124536Y-51402841D01*
X17185044Y-51256762D01*
X17205682Y-51100000D01*
X17185044Y-50943238D01*
X17124536Y-50797159D01*
X17056059Y-50707918D01*
X17033305Y-50678264D01*
X17028282Y-50671718D01*
X16902841Y-50575464D01*
X16756762Y-50514956D01*
X16600000Y-50494318D01*
X16443238Y-50514956D01*
X16297159Y-50575464D01*
X16171718Y-50671718D01*
X16166695Y-50678264D01*
X16143941Y-50707918D01*
X16075464Y-50797159D01*
X16014956Y-50943238D01*
X15994318Y-51100000D01*
X13567134Y-51100000D01*
X13524536Y-50997159D01*
X13428282Y-50871718D01*
X13302841Y-50775464D01*
X13156762Y-50714956D01*
X13000000Y-50694318D01*
X12843238Y-50714956D01*
X12697159Y-50775464D01*
X12571718Y-50871718D01*
X12475464Y-50997159D01*
X12414956Y-51143238D01*
X12394318Y-51300000D01*
X200500Y-51300000D01*
X200500Y-49257094D01*
X6937529Y-49257094D01*
X6938693Y-49265996D01*
X6938693Y-49265999D01*
X6950562Y-49356762D01*
X6953797Y-49381498D01*
X7004327Y-49496336D01*
X7010104Y-49503209D01*
X7010105Y-49503210D01*
X7042037Y-49541198D01*
X7085057Y-49592376D01*
X7189497Y-49661898D01*
X7273096Y-49688016D01*
X7291632Y-49693807D01*
X7309252Y-49699312D01*
X7434694Y-49701611D01*
X7498832Y-49684125D01*
X7547081Y-49670971D01*
X7547083Y-49670970D01*
X7555740Y-49668610D01*
X7576305Y-49655983D01*
X7644823Y-49637385D01*
X7712518Y-49658782D01*
X7757899Y-49713381D01*
X7766557Y-49783848D01*
X7756289Y-49816906D01*
X7719331Y-49895624D01*
X7717951Y-49904490D01*
X7701410Y-50010721D01*
X7701410Y-50010725D01*
X7700029Y-50019594D01*
X7701193Y-50028496D01*
X7701193Y-50028499D01*
X7709800Y-50094318D01*
X7716297Y-50143998D01*
X7766827Y-50258836D01*
X7772604Y-50265709D01*
X7772605Y-50265710D01*
X7783158Y-50278264D01*
X7847557Y-50354876D01*
X7951997Y-50424398D01*
X8071752Y-50461812D01*
X8197194Y-50464111D01*
X8247738Y-50450331D01*
X8309581Y-50433471D01*
X8309583Y-50433470D01*
X8318240Y-50431110D01*
X8425157Y-50365462D01*
X8509352Y-50272445D01*
X8564057Y-50159536D01*
X8584872Y-50035811D01*
X8585004Y-50025000D01*
X8567218Y-49900804D01*
X8530000Y-49818947D01*
X8520014Y-49748656D01*
X8549614Y-49684125D01*
X8609404Y-49645841D01*
X8680401Y-49645959D01*
X8698945Y-49653070D01*
X8707023Y-49656923D01*
X8714497Y-49661898D01*
X8798096Y-49688016D01*
X8816632Y-49693807D01*
X8834252Y-49699312D01*
X8959694Y-49701611D01*
X9023832Y-49684125D01*
X9072081Y-49670971D01*
X9072083Y-49670970D01*
X9080740Y-49668610D01*
X9101305Y-49655983D01*
X9169823Y-49637385D01*
X9237518Y-49658782D01*
X9282899Y-49713381D01*
X9291557Y-49783848D01*
X9281289Y-49816906D01*
X9244331Y-49895624D01*
X9242951Y-49904490D01*
X9226410Y-50010721D01*
X9226410Y-50010725D01*
X9225029Y-50019594D01*
X9226193Y-50028496D01*
X9226193Y-50028499D01*
X9234800Y-50094318D01*
X9241297Y-50143998D01*
X9291827Y-50258836D01*
X9297604Y-50265709D01*
X9297605Y-50265710D01*
X9308158Y-50278264D01*
X9372557Y-50354876D01*
X9476997Y-50424398D01*
X9596752Y-50461812D01*
X9722194Y-50464111D01*
X9772738Y-50450331D01*
X9834581Y-50433471D01*
X9834583Y-50433470D01*
X9843240Y-50431110D01*
X9950157Y-50365462D01*
X10034352Y-50272445D01*
X10089057Y-50159536D01*
X10109872Y-50035811D01*
X10110004Y-50025000D01*
X10092218Y-49900804D01*
X10055000Y-49818947D01*
X10045014Y-49748656D01*
X10074614Y-49684125D01*
X10134404Y-49645841D01*
X10205401Y-49645959D01*
X10223945Y-49653070D01*
X10232023Y-49656923D01*
X10239497Y-49661898D01*
X10323096Y-49688016D01*
X10341632Y-49693807D01*
X10359252Y-49699312D01*
X10484694Y-49701611D01*
X10548832Y-49684125D01*
X10597081Y-49670971D01*
X10597083Y-49670970D01*
X10605740Y-49668610D01*
X10671420Y-49628282D01*
X10705009Y-49607658D01*
X10712657Y-49602962D01*
X10727427Y-49586645D01*
X10790830Y-49516598D01*
X10796852Y-49509945D01*
X10851557Y-49397036D01*
X10872372Y-49273311D01*
X10872504Y-49262500D01*
X10864726Y-49208188D01*
X10855991Y-49147190D01*
X10855990Y-49147187D01*
X10854718Y-49138304D01*
X10802789Y-49024092D01*
X10770101Y-48986156D01*
X10726749Y-48935843D01*
X10726747Y-48935841D01*
X10720891Y-48929045D01*
X10615609Y-48860805D01*
X10495406Y-48824857D01*
X10486430Y-48824802D01*
X10486429Y-48824802D01*
X10435290Y-48824489D01*
X10369945Y-48824090D01*
X10361313Y-48826557D01*
X10349700Y-48829876D01*
X10249312Y-48858567D01*
X10241724Y-48863355D01*
X10241721Y-48863356D01*
X10235019Y-48867585D01*
X10166734Y-48887020D01*
X10098783Y-48866451D01*
X10052738Y-48812411D01*
X10043219Y-48742055D01*
X10054391Y-48706085D01*
X10085145Y-48642611D01*
X10085146Y-48642609D01*
X10089057Y-48634536D01*
X10091820Y-48618116D01*
X10108171Y-48520923D01*
X10109872Y-48510811D01*
X10110004Y-48500000D01*
X10100453Y-48433305D01*
X10093491Y-48384690D01*
X10093490Y-48384687D01*
X10092218Y-48375804D01*
X10055000Y-48293947D01*
X10045014Y-48223656D01*
X10074614Y-48159125D01*
X10134404Y-48120841D01*
X10205401Y-48120959D01*
X10223945Y-48128070D01*
X10232023Y-48131923D01*
X10239497Y-48136898D01*
X10359252Y-48174312D01*
X10484694Y-48176611D01*
X10557499Y-48156762D01*
X10597081Y-48145971D01*
X10597083Y-48145970D01*
X10605740Y-48143610D01*
X10679526Y-48098305D01*
X10705009Y-48082658D01*
X10712657Y-48077962D01*
X10727427Y-48061645D01*
X10780483Y-48003029D01*
X10841026Y-47965947D01*
X10912006Y-47967485D01*
X10970887Y-48007153D01*
X10998975Y-48072357D01*
X10999560Y-48082001D01*
X10998820Y-48087618D01*
X11019458Y-48244380D01*
X11079966Y-48390459D01*
X11084993Y-48397010D01*
X11164020Y-48500000D01*
X11176220Y-48515900D01*
X11301661Y-48612154D01*
X11447740Y-48672662D01*
X11604502Y-48693300D01*
X11612690Y-48692222D01*
X11753076Y-48673740D01*
X11761264Y-48672662D01*
X11907343Y-48612154D01*
X12032784Y-48515900D01*
X12044985Y-48500000D01*
X12124011Y-48397010D01*
X12129038Y-48390459D01*
X12189546Y-48244380D01*
X12210184Y-48087618D01*
X12189546Y-47930856D01*
X12129038Y-47784777D01*
X12032784Y-47659336D01*
X11907343Y-47563082D01*
X11779555Y-47510150D01*
X11768893Y-47505734D01*
X11761264Y-47502574D01*
X11734816Y-47499092D01*
X11612690Y-47483014D01*
X11604502Y-47481936D01*
X11596314Y-47483014D01*
X11474189Y-47499092D01*
X11447740Y-47502574D01*
X11440111Y-47505734D01*
X11429449Y-47510150D01*
X11301661Y-47563082D01*
X11176220Y-47659336D01*
X11127200Y-47723221D01*
X11093089Y-47767675D01*
X11035751Y-47809542D01*
X10964880Y-47813764D01*
X10902977Y-47779000D01*
X10869696Y-47716288D01*
X10868399Y-47708834D01*
X10860591Y-47654313D01*
X10854718Y-47613304D01*
X10802789Y-47499092D01*
X10770101Y-47461156D01*
X10726749Y-47410843D01*
X10726747Y-47410841D01*
X10720891Y-47404045D01*
X10615609Y-47335805D01*
X10495406Y-47299857D01*
X10486430Y-47299802D01*
X10486429Y-47299802D01*
X10435290Y-47299489D01*
X10369945Y-47299090D01*
X10361313Y-47301557D01*
X10349700Y-47304876D01*
X10249312Y-47333567D01*
X10241724Y-47338355D01*
X10241721Y-47338356D01*
X10235019Y-47342585D01*
X10166734Y-47362020D01*
X10098783Y-47341451D01*
X10052738Y-47287411D01*
X10043219Y-47217055D01*
X10054391Y-47181085D01*
X10085145Y-47117611D01*
X10085146Y-47117609D01*
X10089057Y-47109536D01*
X10109872Y-46985811D01*
X10110004Y-46975000D01*
X10104337Y-46935426D01*
X10093491Y-46859690D01*
X10093490Y-46859687D01*
X10092218Y-46850804D01*
X10040289Y-46736592D01*
X9958391Y-46641545D01*
X9853109Y-46573305D01*
X9732906Y-46537357D01*
X9723930Y-46537302D01*
X9723929Y-46537302D01*
X9672790Y-46536989D01*
X9607445Y-46536590D01*
X9598813Y-46539057D01*
X9582822Y-46543627D01*
X9486812Y-46571067D01*
X9479225Y-46575854D01*
X9479223Y-46575855D01*
X9453933Y-46591812D01*
X9380704Y-46638016D01*
X9374761Y-46644745D01*
X9374760Y-46644746D01*
X9355537Y-46666512D01*
X9297652Y-46732055D01*
X9244331Y-46845624D01*
X9242951Y-46854490D01*
X9226410Y-46960721D01*
X9226410Y-46960725D01*
X9225029Y-46969594D01*
X9226193Y-46978496D01*
X9226193Y-46978499D01*
X9240133Y-47085099D01*
X9241297Y-47093998D01*
X9279616Y-47181085D01*
X9280587Y-47183291D01*
X9289715Y-47253698D01*
X9259328Y-47317863D01*
X9199075Y-47355414D01*
X9128085Y-47354429D01*
X9106373Y-47344279D01*
X9106292Y-47344453D01*
X9098141Y-47340687D01*
X9090609Y-47335805D01*
X8970406Y-47299857D01*
X8961430Y-47299802D01*
X8961429Y-47299802D01*
X8910290Y-47299489D01*
X8844945Y-47299090D01*
X8836313Y-47301557D01*
X8824700Y-47304876D01*
X8724312Y-47333567D01*
X8716724Y-47338355D01*
X8716721Y-47338356D01*
X8710019Y-47342585D01*
X8641734Y-47362020D01*
X8573783Y-47341451D01*
X8527738Y-47287411D01*
X8518219Y-47217055D01*
X8529391Y-47181085D01*
X8560145Y-47117611D01*
X8560146Y-47117609D01*
X8564057Y-47109536D01*
X8584872Y-46985811D01*
X8585004Y-46975000D01*
X8579337Y-46935426D01*
X8568491Y-46859690D01*
X8568490Y-46859687D01*
X8567218Y-46850804D01*
X8515289Y-46736592D01*
X8433391Y-46641545D01*
X8328109Y-46573305D01*
X8207906Y-46537357D01*
X8198930Y-46537302D01*
X8198929Y-46537302D01*
X8147790Y-46536989D01*
X8082445Y-46536590D01*
X8073813Y-46539057D01*
X8057822Y-46543627D01*
X7961812Y-46571067D01*
X7954225Y-46575854D01*
X7954223Y-46575855D01*
X7928933Y-46591812D01*
X7855704Y-46638016D01*
X7849761Y-46644745D01*
X7849760Y-46644746D01*
X7830537Y-46666512D01*
X7772652Y-46732055D01*
X7719331Y-46845624D01*
X7717951Y-46854490D01*
X7701410Y-46960721D01*
X7701410Y-46960725D01*
X7700029Y-46969594D01*
X7701193Y-46978496D01*
X7701193Y-46978499D01*
X7715133Y-47085099D01*
X7716297Y-47093998D01*
X7754616Y-47181085D01*
X7755587Y-47183291D01*
X7764715Y-47253698D01*
X7734328Y-47317863D01*
X7674075Y-47355414D01*
X7603085Y-47354429D01*
X7581373Y-47344279D01*
X7581292Y-47344453D01*
X7573141Y-47340687D01*
X7565609Y-47335805D01*
X7445406Y-47299857D01*
X7436430Y-47299802D01*
X7436429Y-47299802D01*
X7385290Y-47299489D01*
X7319945Y-47299090D01*
X7311313Y-47301557D01*
X7299700Y-47304876D01*
X7199312Y-47333567D01*
X7191725Y-47338354D01*
X7191723Y-47338355D01*
X7148590Y-47365570D01*
X7093204Y-47400516D01*
X7087261Y-47407245D01*
X7087260Y-47407246D01*
X7042936Y-47457434D01*
X7010152Y-47494555D01*
X6956831Y-47608124D01*
X6948857Y-47659336D01*
X6938910Y-47723221D01*
X6938910Y-47723225D01*
X6937529Y-47732094D01*
X6938693Y-47740996D01*
X6938693Y-47740999D01*
X6951065Y-47835609D01*
X6953797Y-47856498D01*
X7004327Y-47971336D01*
X7010104Y-47978209D01*
X7010105Y-47978210D01*
X7030968Y-48003029D01*
X7085057Y-48067376D01*
X7189497Y-48136898D01*
X7309252Y-48174312D01*
X7434694Y-48176611D01*
X7507499Y-48156762D01*
X7547081Y-48145971D01*
X7547083Y-48145970D01*
X7555740Y-48143610D01*
X7576305Y-48130983D01*
X7644823Y-48112385D01*
X7712518Y-48133782D01*
X7757899Y-48188381D01*
X7766557Y-48258848D01*
X7756289Y-48291906D01*
X7719331Y-48370624D01*
X7717951Y-48379490D01*
X7701410Y-48485721D01*
X7701410Y-48485725D01*
X7700029Y-48494594D01*
X7701193Y-48503496D01*
X7701193Y-48503499D01*
X7715133Y-48610099D01*
X7716297Y-48618998D01*
X7748991Y-48693300D01*
X7755587Y-48708291D01*
X7764715Y-48778698D01*
X7734328Y-48842863D01*
X7674075Y-48880414D01*
X7603085Y-48879429D01*
X7581373Y-48869279D01*
X7581292Y-48869453D01*
X7573141Y-48865687D01*
X7565609Y-48860805D01*
X7445406Y-48824857D01*
X7436430Y-48824802D01*
X7436429Y-48824802D01*
X7385290Y-48824489D01*
X7319945Y-48824090D01*
X7311313Y-48826557D01*
X7299700Y-48829876D01*
X7199312Y-48858567D01*
X7191725Y-48863354D01*
X7191723Y-48863355D01*
X7148590Y-48890570D01*
X7093204Y-48925516D01*
X7087261Y-48932245D01*
X7087260Y-48932246D01*
X7042936Y-48982434D01*
X7010152Y-49019555D01*
X6956831Y-49133124D01*
X6955451Y-49141990D01*
X6938910Y-49248221D01*
X6938910Y-49248225D01*
X6937529Y-49257094D01*
X200500Y-49257094D01*
X200500Y-43400000D01*
X8594318Y-43400000D01*
X8614956Y-43556762D01*
X8675464Y-43702841D01*
X8680491Y-43709392D01*
X8750017Y-43800000D01*
X8771718Y-43828282D01*
X8778264Y-43833305D01*
X8778268Y-43833309D01*
X8857650Y-43894221D01*
X8899517Y-43951559D01*
X8903739Y-44022429D01*
X8868975Y-44084332D01*
X8857651Y-44094145D01*
X8828269Y-44116691D01*
X8821718Y-44121718D01*
X8725464Y-44247159D01*
X8664956Y-44393238D01*
X8644318Y-44550000D01*
X8664956Y-44706762D01*
X8725464Y-44852841D01*
X8821718Y-44978282D01*
X8947159Y-45074536D01*
X9093238Y-45135044D01*
X9250000Y-45155682D01*
X9258188Y-45154604D01*
X9398574Y-45136122D01*
X9406762Y-45135044D01*
X9552841Y-45074536D01*
X9678282Y-44978282D01*
X9774536Y-44852841D01*
X9835044Y-44706762D01*
X9855682Y-44550000D01*
X9835044Y-44393238D01*
X9774536Y-44247159D01*
X9678282Y-44121718D01*
X9671735Y-44116694D01*
X9671732Y-44116691D01*
X9592350Y-44055779D01*
X9550483Y-43998441D01*
X9546261Y-43927571D01*
X9581025Y-43865668D01*
X9592349Y-43855855D01*
X9621735Y-43833306D01*
X9621736Y-43833305D01*
X9628282Y-43828282D01*
X9649984Y-43800000D01*
X12194318Y-43800000D01*
X12214956Y-43956762D01*
X12275464Y-44102841D01*
X12371718Y-44228282D01*
X12497159Y-44324536D01*
X12643238Y-44385044D01*
X12800000Y-44405682D01*
X12808188Y-44404604D01*
X12948574Y-44386122D01*
X12956762Y-44385044D01*
X13102841Y-44324536D01*
X13228282Y-44228282D01*
X13324536Y-44102841D01*
X13385044Y-43956762D01*
X13405682Y-43800000D01*
X13385044Y-43643238D01*
X13324536Y-43497159D01*
X13256059Y-43407918D01*
X13233305Y-43378264D01*
X13228282Y-43371718D01*
X13102841Y-43275464D01*
X12956762Y-43214956D01*
X12800000Y-43194318D01*
X12643238Y-43214956D01*
X12497159Y-43275464D01*
X12371718Y-43371718D01*
X12366695Y-43378264D01*
X12343941Y-43407918D01*
X12275464Y-43497159D01*
X12214956Y-43643238D01*
X12194318Y-43800000D01*
X9649984Y-43800000D01*
X9719509Y-43709392D01*
X9724536Y-43702841D01*
X9785044Y-43556762D01*
X9805682Y-43400000D01*
X9785044Y-43243238D01*
X9724536Y-43097159D01*
X9628282Y-42971718D01*
X9502841Y-42875464D01*
X9356762Y-42814956D01*
X9342437Y-42813070D01*
X9237052Y-42799196D01*
X9200000Y-42794318D01*
X9162948Y-42799196D01*
X9057564Y-42813070D01*
X9043238Y-42814956D01*
X8897159Y-42875464D01*
X8771718Y-42971718D01*
X8675464Y-43097159D01*
X8614956Y-43243238D01*
X8594318Y-43400000D01*
X200500Y-43400000D01*
X200500Y-42500000D01*
X4794318Y-42500000D01*
X4814956Y-42656762D01*
X4875464Y-42802841D01*
X4931189Y-42875464D01*
X4953028Y-42903924D01*
X4971718Y-42928282D01*
X5097159Y-43024536D01*
X5243238Y-43085044D01*
X5251426Y-43086122D01*
X5285501Y-43090608D01*
X5400000Y-43105682D01*
X5408188Y-43104604D01*
X5548574Y-43086122D01*
X5556762Y-43085044D01*
X5702841Y-43024536D01*
X5828282Y-42928282D01*
X5846973Y-42903924D01*
X5868811Y-42875464D01*
X5924536Y-42802841D01*
X5985044Y-42656762D01*
X6005682Y-42500000D01*
X5985044Y-42343238D01*
X5924536Y-42197159D01*
X5856059Y-42107918D01*
X5833305Y-42078264D01*
X5828282Y-42071718D01*
X5734817Y-42000000D01*
X12494318Y-42000000D01*
X12514956Y-42156762D01*
X12575464Y-42302841D01*
X12671718Y-42428282D01*
X12797159Y-42524536D01*
X12943238Y-42585044D01*
X13100000Y-42605682D01*
X13108188Y-42604604D01*
X13248574Y-42586122D01*
X13256762Y-42585044D01*
X13402841Y-42524536D01*
X13528282Y-42428282D01*
X13624536Y-42302841D01*
X13685044Y-42156762D01*
X13705682Y-42000000D01*
X13685044Y-41843238D01*
X13624536Y-41697159D01*
X13528282Y-41571718D01*
X13402841Y-41475464D01*
X13256762Y-41414956D01*
X13100000Y-41394318D01*
X12943238Y-41414956D01*
X12797159Y-41475464D01*
X12671718Y-41571718D01*
X12575464Y-41697159D01*
X12514956Y-41843238D01*
X12494318Y-42000000D01*
X5734817Y-42000000D01*
X5702841Y-41975464D01*
X5556762Y-41914956D01*
X5400000Y-41894318D01*
X5243238Y-41914956D01*
X5097159Y-41975464D01*
X4971718Y-42071718D01*
X4966695Y-42078264D01*
X4943941Y-42107918D01*
X4875464Y-42197159D01*
X4814956Y-42343238D01*
X4794318Y-42500000D01*
X200500Y-42500000D01*
X200500Y-40600000D01*
X894318Y-40600000D01*
X914956Y-40756762D01*
X975464Y-40902841D01*
X1071718Y-41028282D01*
X1197159Y-41124536D01*
X1343238Y-41185044D01*
X1500000Y-41205682D01*
X1508188Y-41204604D01*
X1648574Y-41186122D01*
X1656762Y-41185044D01*
X1802841Y-41124536D01*
X1928282Y-41028282D01*
X1933305Y-41021736D01*
X1933309Y-41021732D01*
X1991032Y-40946506D01*
X2048370Y-40904639D01*
X2119240Y-40900417D01*
X2181143Y-40935181D01*
X2214425Y-40997894D01*
X2213081Y-41042991D01*
X2214956Y-41043238D01*
X2194318Y-41200000D01*
X2214956Y-41356762D01*
X2275464Y-41502841D01*
X2371718Y-41628282D01*
X2497159Y-41724536D01*
X2643238Y-41785044D01*
X2800000Y-41805682D01*
X2808188Y-41804604D01*
X2948574Y-41786122D01*
X2956762Y-41785044D01*
X3102841Y-41724536D01*
X3228282Y-41628282D01*
X3324536Y-41502841D01*
X3385044Y-41356762D01*
X3392517Y-41300000D01*
X6094318Y-41300000D01*
X6114956Y-41456762D01*
X6175464Y-41602841D01*
X6271718Y-41728282D01*
X6397159Y-41824536D01*
X6543238Y-41885044D01*
X6700000Y-41905682D01*
X6708188Y-41904604D01*
X6848574Y-41886122D01*
X6856762Y-41885044D01*
X7002841Y-41824536D01*
X7128282Y-41728282D01*
X7224536Y-41602841D01*
X7285044Y-41456762D01*
X7305682Y-41300000D01*
X7285044Y-41143238D01*
X7224536Y-40997159D01*
X7128282Y-40871718D01*
X7034817Y-40800000D01*
X11094318Y-40800000D01*
X11114956Y-40956762D01*
X11175464Y-41102841D01*
X11236116Y-41181884D01*
X11250017Y-41200000D01*
X11271718Y-41228282D01*
X11397159Y-41324536D01*
X11543238Y-41385044D01*
X11700000Y-41405682D01*
X11708188Y-41404604D01*
X11848574Y-41386122D01*
X11856762Y-41385044D01*
X12002841Y-41324536D01*
X12128282Y-41228282D01*
X12149984Y-41200000D01*
X12163884Y-41181884D01*
X12224536Y-41102841D01*
X12285044Y-40956762D01*
X12305682Y-40800000D01*
X12285044Y-40643238D01*
X12225713Y-40500000D01*
X16094318Y-40500000D01*
X16114956Y-40656762D01*
X16175464Y-40802841D01*
X16271718Y-40928282D01*
X16397159Y-41024536D01*
X16543238Y-41085044D01*
X16700000Y-41105682D01*
X16708188Y-41104604D01*
X16721580Y-41102841D01*
X16856762Y-41085044D01*
X17002841Y-41024536D01*
X17128282Y-40928282D01*
X17133305Y-40921736D01*
X17133309Y-40921732D01*
X17135898Y-40918358D01*
X17138807Y-40916234D01*
X17139150Y-40915891D01*
X17139203Y-40915944D01*
X17193236Y-40876491D01*
X17264107Y-40872269D01*
X17326010Y-40907033D01*
X17352269Y-40946842D01*
X17375464Y-41002841D01*
X17471718Y-41128282D01*
X17597159Y-41224536D01*
X17681746Y-41259573D01*
X17737027Y-41304121D01*
X17759448Y-41371485D01*
X17741890Y-41440276D01*
X17689928Y-41488654D01*
X17649974Y-41500904D01*
X17543238Y-41514956D01*
X17397159Y-41575464D01*
X17271718Y-41671718D01*
X17175464Y-41797159D01*
X17114956Y-41943238D01*
X17094318Y-42100000D01*
X17114956Y-42256762D01*
X17175464Y-42402841D01*
X17218889Y-42459434D01*
X17250017Y-42500000D01*
X17271718Y-42528282D01*
X17278264Y-42533305D01*
X17278267Y-42533308D01*
X17317784Y-42563630D01*
X17359652Y-42620968D01*
X17363874Y-42691839D01*
X17329110Y-42753742D01*
X17304415Y-42772459D01*
X17297159Y-42775464D01*
X17171718Y-42871718D01*
X17075464Y-42997159D01*
X17014956Y-43143238D01*
X16994318Y-43300000D01*
X17014956Y-43456762D01*
X17075464Y-43602841D01*
X17171718Y-43728282D01*
X17297159Y-43824536D01*
X17443238Y-43885044D01*
X17600000Y-43905682D01*
X17608188Y-43904604D01*
X17748574Y-43886122D01*
X17756762Y-43885044D01*
X17902841Y-43824536D01*
X18028282Y-43728282D01*
X18124536Y-43602841D01*
X18185044Y-43456762D01*
X18205682Y-43300000D01*
X18185044Y-43143238D01*
X18124536Y-42997159D01*
X18028282Y-42871718D01*
X18021736Y-42866695D01*
X18021733Y-42866692D01*
X17982216Y-42836370D01*
X17940348Y-42779032D01*
X17936126Y-42708161D01*
X17970890Y-42646258D01*
X17995585Y-42627541D01*
X18002841Y-42624536D01*
X18128282Y-42528282D01*
X18149984Y-42500000D01*
X18181111Y-42459434D01*
X18224536Y-42402841D01*
X18285044Y-42256762D01*
X18305682Y-42100000D01*
X18285044Y-41943238D01*
X18224536Y-41797159D01*
X18128282Y-41671718D01*
X18002841Y-41575464D01*
X17918254Y-41540427D01*
X17862973Y-41495879D01*
X17840552Y-41428515D01*
X17858110Y-41359724D01*
X17910072Y-41311346D01*
X17950026Y-41299096D01*
X18048574Y-41286122D01*
X18056762Y-41285044D01*
X18202841Y-41224536D01*
X18328282Y-41128282D01*
X18424536Y-41002841D01*
X18485044Y-40856762D01*
X18505682Y-40700000D01*
X18485044Y-40543238D01*
X18424536Y-40397159D01*
X18328282Y-40271718D01*
X18202841Y-40175464D01*
X18056762Y-40114956D01*
X17900000Y-40094318D01*
X17743238Y-40114956D01*
X17597159Y-40175464D01*
X17471718Y-40271718D01*
X17466695Y-40278264D01*
X17466691Y-40278268D01*
X17464102Y-40281642D01*
X17461193Y-40283766D01*
X17460850Y-40284109D01*
X17460797Y-40284056D01*
X17406764Y-40323509D01*
X17335893Y-40327731D01*
X17273990Y-40292967D01*
X17247731Y-40253157D01*
X17224536Y-40197159D01*
X17128282Y-40071718D01*
X17002841Y-39975464D01*
X16856762Y-39914956D01*
X16700000Y-39894318D01*
X16543238Y-39914956D01*
X16397159Y-39975464D01*
X16271718Y-40071718D01*
X16175464Y-40197159D01*
X16114956Y-40343238D01*
X16094318Y-40500000D01*
X12225713Y-40500000D01*
X12224536Y-40497159D01*
X12128282Y-40371718D01*
X12002841Y-40275464D01*
X11856762Y-40214956D01*
X11700000Y-40194318D01*
X11543238Y-40214956D01*
X11397159Y-40275464D01*
X11271718Y-40371718D01*
X11175464Y-40497159D01*
X11114956Y-40643238D01*
X11094318Y-40800000D01*
X7034817Y-40800000D01*
X7002841Y-40775464D01*
X6856762Y-40714956D01*
X6700000Y-40694318D01*
X6543238Y-40714956D01*
X6397159Y-40775464D01*
X6271718Y-40871718D01*
X6175464Y-40997159D01*
X6114956Y-41143238D01*
X6094318Y-41300000D01*
X3392517Y-41300000D01*
X3405682Y-41200000D01*
X3385044Y-41043238D01*
X3324536Y-40897159D01*
X3251599Y-40802106D01*
X3233305Y-40778264D01*
X3228282Y-40771718D01*
X3102841Y-40675464D01*
X2956762Y-40614956D01*
X2800000Y-40594318D01*
X2643238Y-40614956D01*
X2497159Y-40675464D01*
X2371718Y-40771718D01*
X2366695Y-40778264D01*
X2366691Y-40778268D01*
X2308968Y-40853494D01*
X2251630Y-40895361D01*
X2180760Y-40899583D01*
X2118857Y-40864819D01*
X2085575Y-40802106D01*
X2086919Y-40757009D01*
X2085044Y-40756762D01*
X2104604Y-40608188D01*
X2105682Y-40600000D01*
X2085044Y-40443238D01*
X2024536Y-40297159D01*
X1928282Y-40171718D01*
X1802841Y-40075464D01*
X1656762Y-40014956D01*
X1500000Y-39994318D01*
X1343238Y-40014956D01*
X1197159Y-40075464D01*
X1071718Y-40171718D01*
X975464Y-40297159D01*
X914956Y-40443238D01*
X894318Y-40600000D01*
X200500Y-40600000D01*
X200500Y-39700000D01*
X56094318Y-39700000D01*
X56114956Y-39856762D01*
X56175464Y-40002841D01*
X56271718Y-40128282D01*
X56397159Y-40224536D01*
X56543238Y-40285044D01*
X56700000Y-40305682D01*
X56708188Y-40304604D01*
X56848574Y-40286122D01*
X56856762Y-40285044D01*
X57002841Y-40224536D01*
X57128282Y-40128282D01*
X57224536Y-40002841D01*
X57285044Y-39856762D01*
X57305682Y-39700000D01*
X57285044Y-39543238D01*
X57224536Y-39397159D01*
X57128282Y-39271718D01*
X57002841Y-39175464D01*
X56856762Y-39114956D01*
X56700000Y-39094318D01*
X56543238Y-39114956D01*
X56397159Y-39175464D01*
X56271718Y-39271718D01*
X56175464Y-39397159D01*
X56114956Y-39543238D01*
X56094318Y-39700000D01*
X200500Y-39700000D01*
X200500Y-36700000D01*
X9794318Y-36700000D01*
X9814956Y-36856762D01*
X9875464Y-37002841D01*
X9880491Y-37009392D01*
X9950017Y-37100000D01*
X9971718Y-37128282D01*
X10097159Y-37224536D01*
X10243238Y-37285044D01*
X10400000Y-37305682D01*
X10408188Y-37304604D01*
X10548574Y-37286122D01*
X10556762Y-37285044D01*
X10702841Y-37224536D01*
X10828282Y-37128282D01*
X10849984Y-37100000D01*
X10919509Y-37009392D01*
X10924536Y-37002841D01*
X10985044Y-36856762D01*
X11005682Y-36700000D01*
X10985044Y-36543238D01*
X10924536Y-36397159D01*
X10828282Y-36271718D01*
X10702841Y-36175464D01*
X10556762Y-36114956D01*
X10400000Y-36094318D01*
X10243238Y-36114956D01*
X10097159Y-36175464D01*
X9971718Y-36271718D01*
X9875464Y-36397159D01*
X9814956Y-36543238D01*
X9794318Y-36700000D01*
X200500Y-36700000D01*
X200500Y-34900000D01*
X3494318Y-34900000D01*
X3514956Y-35056762D01*
X3575464Y-35202841D01*
X3671718Y-35328282D01*
X3797159Y-35424536D01*
X3943238Y-35485044D01*
X4100000Y-35505682D01*
X4108188Y-35504604D01*
X4248574Y-35486122D01*
X4256762Y-35485044D01*
X4402841Y-35424536D01*
X4528282Y-35328282D01*
X4624536Y-35202841D01*
X4685044Y-35056762D01*
X4705682Y-34900000D01*
X4692517Y-34800000D01*
X5894318Y-34800000D01*
X5914956Y-34956762D01*
X5975464Y-35102841D01*
X6011393Y-35149665D01*
X6065365Y-35220002D01*
X6071718Y-35228282D01*
X6197159Y-35324536D01*
X6343238Y-35385044D01*
X6500000Y-35405682D01*
X6508188Y-35404604D01*
X6648574Y-35386122D01*
X6656762Y-35385044D01*
X6802841Y-35324536D01*
X6928282Y-35228282D01*
X6934636Y-35220002D01*
X6988607Y-35149665D01*
X7024536Y-35102841D01*
X7085044Y-34956762D01*
X7105682Y-34800000D01*
X7085044Y-34643238D01*
X7024536Y-34497159D01*
X6928282Y-34371718D01*
X6802841Y-34275464D01*
X6656762Y-34214956D01*
X6500000Y-34194318D01*
X6343238Y-34214956D01*
X6197159Y-34275464D01*
X6071718Y-34371718D01*
X5975464Y-34497159D01*
X5914956Y-34643238D01*
X5894318Y-34800000D01*
X4692517Y-34800000D01*
X4685044Y-34743238D01*
X4624536Y-34597159D01*
X4528282Y-34471718D01*
X4402841Y-34375464D01*
X4256762Y-34314956D01*
X4100000Y-34294318D01*
X3943238Y-34314956D01*
X3797159Y-34375464D01*
X3671718Y-34471718D01*
X3575464Y-34597159D01*
X3514956Y-34743238D01*
X3494318Y-34900000D01*
X200500Y-34900000D01*
X200500Y-32300000D01*
X6609818Y-32300000D01*
X6630456Y-32456762D01*
X6690964Y-32602841D01*
X6787218Y-32728282D01*
X6912659Y-32824536D01*
X7058738Y-32885044D01*
X7215500Y-32905682D01*
X7223688Y-32904604D01*
X7237080Y-32902841D01*
X7372262Y-32885044D01*
X7518341Y-32824536D01*
X7643782Y-32728282D01*
X7740036Y-32602841D01*
X7800544Y-32456762D01*
X7821182Y-32300000D01*
X7800544Y-32143238D01*
X7740036Y-31997159D01*
X7643782Y-31871718D01*
X7518341Y-31775464D01*
X7372262Y-31714956D01*
X7215500Y-31694318D01*
X7058738Y-31714956D01*
X6912659Y-31775464D01*
X6787218Y-31871718D01*
X6690964Y-31997159D01*
X6630456Y-32143238D01*
X6609818Y-32300000D01*
X200500Y-32300000D01*
X200500Y-29100000D01*
X7294318Y-29100000D01*
X7314956Y-29256762D01*
X7375464Y-29402841D01*
X7471718Y-29528282D01*
X7597159Y-29624536D01*
X7743238Y-29685044D01*
X7900000Y-29705682D01*
X7908188Y-29704604D01*
X8048574Y-29686122D01*
X8056762Y-29685044D01*
X8202841Y-29624536D01*
X8328282Y-29528282D01*
X8424536Y-29402841D01*
X8485044Y-29256762D01*
X8505682Y-29100000D01*
X8485044Y-28943238D01*
X8424536Y-28797159D01*
X8328282Y-28671718D01*
X8202841Y-28575464D01*
X8056762Y-28514956D01*
X7900000Y-28494318D01*
X7743238Y-28514956D01*
X7597159Y-28575464D01*
X7471718Y-28671718D01*
X7375464Y-28797159D01*
X7314956Y-28943238D01*
X7294318Y-29100000D01*
X200500Y-29100000D01*
X200500Y-27200000D01*
X7994318Y-27200000D01*
X7995396Y-27208188D01*
X8009749Y-27317207D01*
X8014956Y-27356762D01*
X8075464Y-27502841D01*
X8171718Y-27628282D01*
X8297159Y-27724536D01*
X8443238Y-27785044D01*
X8600000Y-27805682D01*
X8608188Y-27804604D01*
X8748574Y-27786122D01*
X8756762Y-27785044D01*
X8902841Y-27724536D01*
X9028282Y-27628282D01*
X9124536Y-27502841D01*
X9185044Y-27356762D01*
X9190252Y-27317207D01*
X9204604Y-27208188D01*
X9205682Y-27200000D01*
X9185044Y-27043238D01*
X9124536Y-26897159D01*
X9028282Y-26771718D01*
X8902841Y-26675464D01*
X8756762Y-26614956D01*
X8600000Y-26594318D01*
X8443238Y-26614956D01*
X8297159Y-26675464D01*
X8171718Y-26771718D01*
X8075464Y-26897159D01*
X8014956Y-27043238D01*
X7994318Y-27200000D01*
X200500Y-27200000D01*
X200500Y-21126000D01*
X220502Y-21057879D01*
X274158Y-21011386D01*
X326500Y-21000000D01*
X11874000Y-21000000D01*
X11942121Y-21020002D01*
G37*
%TD.AperFunction*%
%TD*%
M02*
