%TF.GenerationSoftware,KiCad,Pcbnew,(6.0.11)*%
%TF.CreationDate,2023-03-05T15:40:12+01:00*%
%TF.ProjectId,OBSPro,4f425350-726f-42e6-9b69-6361645f7063,rev?*%
%TF.SameCoordinates,PX7270e00PY2255100*%
%TF.FileFunction,Soldermask,Bot*%
%TF.FilePolarity,Negative*%
%FSLAX46Y46*%
G04 Gerber Fmt 4.6, Leading zero omitted, Abs format (unit mm)*
G04 Created by KiCad (PCBNEW (6.0.11)) date 2023-03-05 15:40:12*
%MOMM*%
%LPD*%
G01*
G04 APERTURE LIST*
%ADD10R,1.350000X4.200000*%
%ADD11C,3.200000*%
%ADD12R,1.700000X1.700000*%
%ADD13O,1.700000X1.700000*%
%ADD14O,2.500000X1.500000*%
%ADD15R,2.000000X2.000000*%
%ADD16C,2.000000*%
G04 APERTURE END LIST*
D10*
%TO.C,REF\u002A\u002A*%
X32725000Y-81900000D03*
X27075000Y-81900000D03*
%TD*%
D11*
%TO.C,H3*%
X42000000Y-80000000D03*
%TD*%
D12*
%TO.C,J4*%
X10600000Y-22300000D03*
D13*
X10600000Y-19760000D03*
X10600000Y-17220000D03*
X10600000Y-14680000D03*
X10600000Y-12140000D03*
X10600000Y-9600000D03*
%TD*%
D11*
%TO.C,H4*%
X65000000Y-37000000D03*
%TD*%
D14*
%TO.C,J2*%
X13600000Y-36100000D03*
X13600000Y-33560000D03*
X13600000Y-31020000D03*
X13600000Y-28480000D03*
X13600000Y-25940000D03*
%TD*%
D15*
%TO.C,LS1*%
X65400000Y-77700000D03*
D16*
X60400000Y-77700000D03*
%TD*%
D11*
%TO.C,H2*%
X4000000Y-4000000D03*
%TD*%
D14*
%TO.C,BT1*%
X13600000Y-63990000D03*
X13600000Y-61450000D03*
%TD*%
D15*
%TO.C,LS2*%
X65400000Y-6700000D03*
D16*
X60400000Y-6700000D03*
%TD*%
D11*
%TO.C,H1*%
X4000000Y-80000000D03*
%TD*%
D15*
%TO.C,LS3*%
X53800000Y-77700000D03*
D16*
X48800000Y-77700000D03*
%TD*%
D15*
%TO.C,LS4*%
X53800000Y-6700000D03*
D16*
X48800000Y-6700000D03*
%TD*%
G36*
X23159191Y-80718907D02*
G01*
X23195155Y-80768407D01*
X23200000Y-80799000D01*
X23200000Y-83601000D01*
X23181093Y-83659191D01*
X23131593Y-83695155D01*
X23101000Y-83700000D01*
X13799000Y-83700000D01*
X13740809Y-83681093D01*
X13704845Y-83631593D01*
X13700000Y-83601000D01*
X13700000Y-80799000D01*
X13718907Y-80740809D01*
X13768407Y-80704845D01*
X13799000Y-80700000D01*
X23101000Y-80700000D01*
X23159191Y-80718907D01*
G37*
M02*
