%TF.GenerationSoftware,KiCad,Pcbnew,(6.0.11)*%
%TF.CreationDate,2023-03-05T15:16:25+01:00*%
%TF.ProjectId,OBSPro,4f425350-726f-42e6-9b69-6361645f7063,rev?*%
%TF.SameCoordinates,PX7270e00PY2255100*%
%TF.FileFunction,Soldermask,Top*%
%TF.FilePolarity,Negative*%
%FSLAX46Y46*%
G04 Gerber Fmt 4.6, Leading zero omitted, Abs format (unit mm)*
G04 Created by KiCad (PCBNEW (6.0.11)) date 2023-03-05 15:16:25*
%MOMM*%
%LPD*%
G01*
G04 APERTURE LIST*
G04 Aperture macros list*
%AMRoundRect*
0 Rectangle with rounded corners*
0 $1 Rounding radius*
0 $2 $3 $4 $5 $6 $7 $8 $9 X,Y pos of 4 corners*
0 Add a 4 corners polygon primitive as box body*
4,1,4,$2,$3,$4,$5,$6,$7,$8,$9,$2,$3,0*
0 Add four circle primitives for the rounded corners*
1,1,$1+$1,$2,$3*
1,1,$1+$1,$4,$5*
1,1,$1+$1,$6,$7*
1,1,$1+$1,$8,$9*
0 Add four rect primitives between the rounded corners*
20,1,$1+$1,$2,$3,$4,$5,0*
20,1,$1+$1,$4,$5,$6,$7,0*
20,1,$1+$1,$6,$7,$8,$9,0*
20,1,$1+$1,$8,$9,$2,$3,0*%
G04 Aperture macros list end*
%ADD10RoundRect,0.200000X-0.275000X0.200000X-0.275000X-0.200000X0.275000X-0.200000X0.275000X0.200000X0*%
%ADD11RoundRect,0.237500X0.300000X0.237500X-0.300000X0.237500X-0.300000X-0.237500X0.300000X-0.237500X0*%
%ADD12R,1.150000X3.600000*%
%ADD13RoundRect,0.200000X-0.200000X-0.275000X0.200000X-0.275000X0.200000X0.275000X-0.200000X0.275000X0*%
%ADD14RoundRect,0.237500X-0.300000X-0.237500X0.300000X-0.237500X0.300000X0.237500X-0.300000X0.237500X0*%
%ADD15RoundRect,0.150000X0.825000X0.150000X-0.825000X0.150000X-0.825000X-0.150000X0.825000X-0.150000X0*%
%ADD16R,2.300000X2.300000*%
%ADD17RoundRect,0.200000X0.200000X0.275000X-0.200000X0.275000X-0.200000X-0.275000X0.200000X-0.275000X0*%
%ADD18C,3.200000*%
%ADD19RoundRect,0.350000X1.150000X0.350000X-1.150000X0.350000X-1.150000X-0.350000X1.150000X-0.350000X0*%
%ADD20RoundRect,0.225000X-0.250000X0.225000X-0.250000X-0.225000X0.250000X-0.225000X0.250000X0.225000X0*%
%ADD21RoundRect,0.237500X-0.237500X0.300000X-0.237500X-0.300000X0.237500X-0.300000X0.237500X0.300000X0*%
%ADD22RoundRect,0.250000X0.650000X-0.325000X0.650000X0.325000X-0.650000X0.325000X-0.650000X-0.325000X0*%
%ADD23RoundRect,0.250000X-0.325000X-0.650000X0.325000X-0.650000X0.325000X0.650000X-0.325000X0.650000X0*%
%ADD24R,1.100000X1.100000*%
%ADD25RoundRect,0.225000X0.225000X0.250000X-0.225000X0.250000X-0.225000X-0.250000X0.225000X-0.250000X0*%
%ADD26RoundRect,0.250000X0.412500X0.650000X-0.412500X0.650000X-0.412500X-0.650000X0.412500X-0.650000X0*%
%ADD27RoundRect,0.150000X-0.587500X-0.150000X0.587500X-0.150000X0.587500X0.150000X-0.587500X0.150000X0*%
%ADD28RoundRect,0.218750X-0.218750X-0.256250X0.218750X-0.256250X0.218750X0.256250X-0.218750X0.256250X0*%
%ADD29R,1.700000X1.700000*%
%ADD30O,1.700000X1.700000*%
%ADD31RoundRect,0.200000X0.275000X-0.200000X0.275000X0.200000X-0.275000X0.200000X-0.275000X-0.200000X0*%
%ADD32RoundRect,0.237500X0.237500X-0.300000X0.237500X0.300000X-0.237500X0.300000X-0.237500X-0.300000X0*%
%ADD33RoundRect,0.175000X0.175000X-0.725000X0.175000X0.725000X-0.175000X0.725000X-0.175000X-0.725000X0*%
%ADD34RoundRect,0.200000X0.200000X-0.700000X0.200000X0.700000X-0.200000X0.700000X-0.200000X-0.700000X0*%
%ADD35RoundRect,0.150000X0.587500X0.150000X-0.587500X0.150000X-0.587500X-0.150000X0.587500X-0.150000X0*%
%ADD36RoundRect,0.150000X0.150000X-0.512500X0.150000X0.512500X-0.150000X0.512500X-0.150000X-0.512500X0*%
%ADD37RoundRect,0.150000X-0.150000X0.725000X-0.150000X-0.725000X0.150000X-0.725000X0.150000X0.725000X0*%
%ADD38C,0.600000*%
%ADD39R,0.600000X1.140000*%
%ADD40R,0.300000X1.140000*%
%ADD41O,0.900000X2.000000*%
%ADD42O,0.900000X1.700000*%
%ADD43RoundRect,0.218750X-0.256250X0.218750X-0.256250X-0.218750X0.256250X-0.218750X0.256250X0.218750X0*%
%ADD44RoundRect,0.218750X0.256250X-0.218750X0.256250X0.218750X-0.256250X0.218750X-0.256250X-0.218750X0*%
%ADD45RoundRect,0.225000X0.250000X-0.225000X0.250000X0.225000X-0.250000X0.225000X-0.250000X-0.225000X0*%
%ADD46O,2.500000X1.500000*%
%ADD47RoundRect,0.225000X-0.225000X-0.250000X0.225000X-0.250000X0.225000X0.250000X-0.225000X0.250000X0*%
%ADD48RoundRect,0.100000X-0.100000X0.637500X-0.100000X-0.637500X0.100000X-0.637500X0.100000X0.637500X0*%
%ADD49R,2.000000X2.000000*%
%ADD50C,2.000000*%
%ADD51R,3.500000X2.400000*%
%ADD52RoundRect,0.150000X0.150000X-0.587500X0.150000X0.587500X-0.150000X0.587500X-0.150000X-0.587500X0*%
%ADD53RoundRect,0.150000X-0.150000X0.825000X-0.150000X-0.825000X0.150000X-0.825000X0.150000X0.825000X0*%
%ADD54RoundRect,0.250000X0.325000X0.650000X-0.325000X0.650000X-0.325000X-0.650000X0.325000X-0.650000X0*%
%ADD55R,0.900000X1.500000*%
%ADD56R,1.500000X0.900000*%
%ADD57C,0.475000*%
%ADD58R,4.200000X4.200000*%
%ADD59R,1.200000X1.200000*%
%ADD60R,1.500000X1.600000*%
%ADD61RoundRect,0.062500X0.062500X-0.337500X0.062500X0.337500X-0.062500X0.337500X-0.062500X-0.337500X0*%
%ADD62RoundRect,0.062500X0.337500X-0.062500X0.337500X0.062500X-0.337500X0.062500X-0.337500X-0.062500X0*%
%ADD63R,3.350000X3.350000*%
%ADD64C,1.000000*%
%ADD65R,0.700000X1.300000*%
%ADD66R,1.200000X1.400000*%
%ADD67R,1.200000X2.000000*%
G04 APERTURE END LIST*
D10*
%TO.C,R52*%
X54800000Y-49775000D03*
X54800000Y-51425000D03*
%TD*%
D11*
%TO.C,C45*%
X55362500Y-70100000D03*
X53637500Y-70100000D03*
%TD*%
D12*
%TO.C,L1*%
X24375000Y-58600000D03*
X21425000Y-58600000D03*
%TD*%
D13*
%TO.C,R2*%
X37275000Y-75500000D03*
X38925000Y-75500000D03*
%TD*%
D14*
%TO.C,C58*%
X49437500Y-26800000D03*
X51162500Y-26800000D03*
%TD*%
D15*
%TO.C,U1*%
X31475000Y-58005000D03*
X31475000Y-56735000D03*
X31475000Y-55465000D03*
X31475000Y-54195000D03*
X26525000Y-54195000D03*
X26525000Y-55465000D03*
X26525000Y-56735000D03*
X26525000Y-58005000D03*
D16*
X29000000Y-56100000D03*
%TD*%
D17*
%TO.C,R18*%
X3925000Y-74500000D03*
X2275000Y-74500000D03*
%TD*%
%TO.C,R30*%
X57025000Y-32600000D03*
X55375000Y-32600000D03*
%TD*%
D18*
%TO.C,H3*%
X42000000Y-80000000D03*
%TD*%
D10*
%TO.C,R40*%
X64300000Y-25175000D03*
X64300000Y-26825000D03*
%TD*%
D19*
%TO.C,AE1*%
X29000000Y-12000000D03*
X29000000Y-2000000D03*
%TD*%
D20*
%TO.C,C26*%
X24400000Y-37725000D03*
X24400000Y-39275000D03*
%TD*%
D21*
%TO.C,C56*%
X51300000Y-14437500D03*
X51300000Y-16162500D03*
%TD*%
D13*
%TO.C,R28*%
X58775000Y-38600000D03*
X60425000Y-38600000D03*
%TD*%
D22*
%TO.C,C11*%
X36600000Y-60775000D03*
X36600000Y-57825000D03*
%TD*%
D23*
%TO.C,C7*%
X25025000Y-52200000D03*
X27975000Y-52200000D03*
%TD*%
D10*
%TO.C,R47*%
X64400000Y-14475000D03*
X64400000Y-16125000D03*
%TD*%
D24*
%TO.C,D4*%
X22400000Y-37800000D03*
X22400000Y-40600000D03*
%TD*%
D25*
%TO.C,C20*%
X2575000Y-58420000D03*
X1025000Y-58420000D03*
%TD*%
D17*
%TO.C,R43*%
X64525000Y-12800000D03*
X62875000Y-12800000D03*
%TD*%
D26*
%TO.C,C27*%
X63362500Y-70500000D03*
X60237500Y-70500000D03*
%TD*%
D27*
%TO.C,Q4*%
X32462500Y-44550000D03*
X32462500Y-46450000D03*
X34337500Y-45500000D03*
%TD*%
D28*
%TO.C,D3*%
X3700000Y-66800000D03*
X5275000Y-66800000D03*
%TD*%
D10*
%TO.C,R44*%
X66400000Y-49775000D03*
X66400000Y-51425000D03*
%TD*%
%TO.C,R4*%
X33700000Y-59575000D03*
X33700000Y-61225000D03*
%TD*%
D29*
%TO.C,J4*%
X10600000Y-22300000D03*
D30*
X10600000Y-19760000D03*
X10600000Y-17220000D03*
X10600000Y-14680000D03*
X10600000Y-12140000D03*
X10600000Y-9600000D03*
%TD*%
D20*
%TO.C,C17*%
X44000000Y-74225000D03*
X44000000Y-75775000D03*
%TD*%
D13*
%TO.C,R32*%
X48175000Y-33900000D03*
X49825000Y-33900000D03*
%TD*%
D31*
%TO.C,R54*%
X54000000Y-48125000D03*
X54000000Y-46475000D03*
%TD*%
D26*
%TO.C,C52*%
X55162500Y-58200000D03*
X52037500Y-58200000D03*
%TD*%
D24*
%TO.C,D5*%
X22100000Y-42700000D03*
X24900000Y-42700000D03*
%TD*%
D14*
%TO.C,C41*%
X61037500Y-26800000D03*
X62762500Y-26800000D03*
%TD*%
D17*
%TO.C,R6*%
X32025000Y-52600000D03*
X30375000Y-52600000D03*
%TD*%
D20*
%TO.C,C19*%
X40700000Y-73825000D03*
X40700000Y-75375000D03*
%TD*%
D10*
%TO.C,R35*%
X41400000Y-29875000D03*
X41400000Y-31525000D03*
%TD*%
D13*
%TO.C,R33*%
X48175000Y-37100000D03*
X49825000Y-37100000D03*
%TD*%
D31*
%TO.C,R23*%
X28400000Y-48725000D03*
X28400000Y-47075000D03*
%TD*%
D14*
%TO.C,C24*%
X53437500Y-39700000D03*
X55162500Y-39700000D03*
%TD*%
D17*
%TO.C,R29*%
X49825000Y-38600000D03*
X48175000Y-38600000D03*
%TD*%
D32*
%TO.C,C34*%
X62200000Y-48062500D03*
X62200000Y-46337500D03*
%TD*%
D33*
%TO.C,U7*%
X18900000Y-35550000D03*
D34*
X20000000Y-35550000D03*
X21100000Y-35550000D03*
X22200000Y-35550000D03*
X23300000Y-35550000D03*
X24400000Y-35550000D03*
X25500000Y-35550000D03*
X26600000Y-35550000D03*
D33*
X27700000Y-35550000D03*
X27700000Y-26050000D03*
D34*
X26600000Y-26050000D03*
X25500000Y-26050000D03*
X24400000Y-26050000D03*
X23300000Y-26050000D03*
X22200000Y-26050000D03*
X21100000Y-26050000D03*
X20000000Y-26050000D03*
D33*
X18900000Y-26050000D03*
%TD*%
D10*
%TO.C,R48*%
X52700000Y-25175000D03*
X52700000Y-26825000D03*
%TD*%
D35*
%TO.C,Q6*%
X34337500Y-49950000D03*
X34337500Y-48050000D03*
X32462500Y-49000000D03*
%TD*%
D31*
%TO.C,R21*%
X15900000Y-27945000D03*
X15900000Y-26295000D03*
%TD*%
%TO.C,R46*%
X65600000Y-48125000D03*
X65600000Y-46475000D03*
%TD*%
D13*
%TO.C,R19*%
X5875000Y-74500000D03*
X7525000Y-74500000D03*
%TD*%
D11*
%TO.C,C22*%
X53862500Y-32600000D03*
X52137500Y-32600000D03*
%TD*%
D13*
%TO.C,R10*%
X30775000Y-40000000D03*
X32425000Y-40000000D03*
%TD*%
D12*
%TO.C,L2*%
X42575000Y-64000000D03*
X39625000Y-64000000D03*
%TD*%
D13*
%TO.C,R45*%
X61075000Y-25300000D03*
X62725000Y-25300000D03*
%TD*%
D31*
%TO.C,R3*%
X32000000Y-74725000D03*
X32000000Y-73075000D03*
%TD*%
D36*
%TO.C,U3*%
X26650000Y-43537500D03*
X27600000Y-43537500D03*
X28550000Y-43537500D03*
X28550000Y-41262500D03*
X26650000Y-41262500D03*
%TD*%
D17*
%TO.C,R34*%
X56825000Y-31100000D03*
X55175000Y-31100000D03*
%TD*%
D32*
%TO.C,C59*%
X48900000Y-48062500D03*
X48900000Y-46337500D03*
%TD*%
D10*
%TO.C,R39*%
X41400000Y-32875000D03*
X41400000Y-34525000D03*
%TD*%
D37*
%TO.C,U13*%
X55345000Y-62925000D03*
X54075000Y-62925000D03*
X52805000Y-62925000D03*
X51535000Y-62925000D03*
X50265000Y-62925000D03*
X48995000Y-62925000D03*
X47725000Y-62925000D03*
X46455000Y-62925000D03*
X46455000Y-68075000D03*
X47725000Y-68075000D03*
X48995000Y-68075000D03*
X50265000Y-68075000D03*
X51535000Y-68075000D03*
X52805000Y-68075000D03*
X54075000Y-68075000D03*
X55345000Y-68075000D03*
%TD*%
D32*
%TO.C,C51*%
X50600000Y-48062500D03*
X50600000Y-46337500D03*
%TD*%
D13*
%TO.C,R11*%
X4075000Y-58420000D03*
X5725000Y-58420000D03*
%TD*%
D38*
%TO.C,J1*%
X36290000Y-78197500D03*
X30510000Y-78197500D03*
D39*
X30200000Y-77127500D03*
X31000000Y-77127500D03*
D40*
X32150000Y-77127500D03*
X33150000Y-77127500D03*
X33650000Y-77127500D03*
X34650000Y-77127500D03*
D39*
X36600000Y-77127500D03*
X35800000Y-77127500D03*
D40*
X35150000Y-77127500D03*
X34150000Y-77127500D03*
X32650000Y-77127500D03*
X31650000Y-77127500D03*
D41*
X29075000Y-77697500D03*
D42*
X37725000Y-81877500D03*
D41*
X37725000Y-77697500D03*
D42*
X29075000Y-81877500D03*
%TD*%
D10*
%TO.C,R55*%
X52800000Y-14475000D03*
X52800000Y-16125000D03*
%TD*%
D43*
%TO.C,D1*%
X33600000Y-51512500D03*
X33600000Y-53087500D03*
%TD*%
D13*
%TO.C,R53*%
X49475000Y-25300000D03*
X51125000Y-25300000D03*
%TD*%
D44*
%TO.C,D6*%
X66400000Y-54587500D03*
X66400000Y-53012500D03*
%TD*%
D17*
%TO.C,R8*%
X8412500Y-66800000D03*
X6762500Y-66800000D03*
%TD*%
D21*
%TO.C,C32*%
X61300000Y-14437500D03*
X61300000Y-16162500D03*
%TD*%
D18*
%TO.C,H4*%
X65000000Y-37000000D03*
%TD*%
D27*
%TO.C,Q5*%
X24762500Y-46950000D03*
X24762500Y-48850000D03*
X26637500Y-47900000D03*
%TD*%
D26*
%TO.C,C48*%
X50162500Y-60600000D03*
X47037500Y-60600000D03*
%TD*%
D17*
%TO.C,R38*%
X53825000Y-31100000D03*
X52175000Y-31100000D03*
%TD*%
D10*
%TO.C,R26*%
X22900000Y-47075000D03*
X22900000Y-48725000D03*
%TD*%
D17*
%TO.C,R42*%
X61025000Y-28300000D03*
X59375000Y-28300000D03*
%TD*%
D45*
%TO.C,C5*%
X33700000Y-57275000D03*
X33700000Y-55725000D03*
%TD*%
D13*
%TO.C,R31*%
X58775000Y-35400000D03*
X60425000Y-35400000D03*
%TD*%
D46*
%TO.C,J2*%
X13600000Y-36100000D03*
X13600000Y-33560000D03*
X13600000Y-31020000D03*
X13600000Y-28480000D03*
X13600000Y-25940000D03*
%TD*%
D20*
%TO.C,C18*%
X42200000Y-73825000D03*
X42200000Y-75375000D03*
%TD*%
D27*
%TO.C,Q3*%
X36462500Y-45550000D03*
X36462500Y-47450000D03*
X38337500Y-46500000D03*
%TD*%
D47*
%TO.C,C21*%
X19525000Y-67500000D03*
X21075000Y-67500000D03*
%TD*%
D48*
%TO.C,U12*%
X53425000Y-50137500D03*
X52775000Y-50137500D03*
X52125000Y-50137500D03*
X51475000Y-50137500D03*
X50825000Y-50137500D03*
X50175000Y-50137500D03*
X49525000Y-50137500D03*
X48875000Y-50137500D03*
X48225000Y-50137500D03*
X47575000Y-50137500D03*
X47575000Y-55862500D03*
X48225000Y-55862500D03*
X48875000Y-55862500D03*
X49525000Y-55862500D03*
X50175000Y-55862500D03*
X50825000Y-55862500D03*
X51475000Y-55862500D03*
X52125000Y-55862500D03*
X52775000Y-55862500D03*
X53425000Y-55862500D03*
%TD*%
D17*
%TO.C,R36*%
X60425000Y-37000000D03*
X58775000Y-37000000D03*
%TD*%
D10*
%TO.C,R27*%
X36200000Y-48975000D03*
X36200000Y-50625000D03*
%TD*%
D22*
%TO.C,C8*%
X22500000Y-53870000D03*
X22500000Y-50920000D03*
%TD*%
D20*
%TO.C,C6*%
X33700000Y-62625000D03*
X33700000Y-64175000D03*
%TD*%
D17*
%TO.C,R15*%
X35325000Y-67600000D03*
X33675000Y-67600000D03*
%TD*%
D23*
%TO.C,C3*%
X27225000Y-62500000D03*
X30175000Y-62500000D03*
%TD*%
D44*
%TO.C,D7*%
X54800000Y-54587500D03*
X54800000Y-53012500D03*
%TD*%
D21*
%TO.C,C49*%
X49700000Y-14437500D03*
X49700000Y-16162500D03*
%TD*%
D49*
%TO.C,LS1*%
X65400000Y-77700000D03*
D50*
X60400000Y-77700000D03*
%TD*%
D21*
%TO.C,C55*%
X54300000Y-20837500D03*
X54300000Y-22562500D03*
%TD*%
D26*
%TO.C,C31*%
X61762500Y-60600000D03*
X58637500Y-60600000D03*
%TD*%
D18*
%TO.C,H2*%
X4000000Y-4000000D03*
%TD*%
D46*
%TO.C,BT1*%
X13600000Y-63990000D03*
X13600000Y-61450000D03*
%TD*%
D51*
%TO.C,Y1*%
X65500000Y-43500000D03*
X60300000Y-43500000D03*
%TD*%
D31*
%TO.C,R7*%
X36600000Y-53925000D03*
X36600000Y-52275000D03*
%TD*%
D52*
%TO.C,Q2*%
X5750000Y-72637500D03*
X7650000Y-72637500D03*
X6700000Y-70762500D03*
%TD*%
D17*
%TO.C,R16*%
X35325000Y-72100000D03*
X33675000Y-72100000D03*
%TD*%
D11*
%TO.C,C37*%
X64262500Y-28300000D03*
X62537500Y-28300000D03*
%TD*%
%TO.C,C28*%
X66962500Y-70100000D03*
X65237500Y-70100000D03*
%TD*%
D53*
%TO.C,U11*%
X52605000Y-18325000D03*
X51335000Y-18325000D03*
X50065000Y-18325000D03*
X48795000Y-18325000D03*
X48795000Y-23275000D03*
X50065000Y-23275000D03*
X51335000Y-23275000D03*
X52605000Y-23275000D03*
%TD*%
D17*
%TO.C,R37*%
X49825000Y-35500000D03*
X48175000Y-35500000D03*
%TD*%
D26*
%TO.C,C35*%
X66762500Y-58200000D03*
X63637500Y-58200000D03*
%TD*%
D11*
%TO.C,C54*%
X52662500Y-28300000D03*
X50937500Y-28300000D03*
%TD*%
D26*
%TO.C,C36*%
X61762500Y-58200000D03*
X58637500Y-58200000D03*
%TD*%
D15*
%TO.C,U6*%
X56775000Y-38105000D03*
X56775000Y-36835000D03*
X56775000Y-35565000D03*
X56775000Y-34295000D03*
X51825000Y-34295000D03*
X51825000Y-35565000D03*
X51825000Y-36835000D03*
X51825000Y-38105000D03*
%TD*%
D17*
%TO.C,R50*%
X49425000Y-28300000D03*
X47775000Y-28300000D03*
%TD*%
%TO.C,R1*%
X8425000Y-68400000D03*
X6775000Y-68400000D03*
%TD*%
D21*
%TO.C,C43*%
X65900000Y-14437500D03*
X65900000Y-16162500D03*
%TD*%
D31*
%TO.C,R12*%
X43800000Y-72725000D03*
X43800000Y-71075000D03*
%TD*%
D54*
%TO.C,C4*%
X25475000Y-64500000D03*
X22525000Y-64500000D03*
%TD*%
D21*
%TO.C,C23*%
X42900000Y-32837500D03*
X42900000Y-34562500D03*
%TD*%
D31*
%TO.C,R20*%
X15700000Y-35645000D03*
X15700000Y-33995000D03*
%TD*%
D55*
%TO.C,U5*%
X1565000Y-56570000D03*
X2835000Y-56570000D03*
X4105000Y-56570000D03*
X5375000Y-56570000D03*
X6645000Y-56570000D03*
X7915000Y-56570000D03*
X9185000Y-56570000D03*
X10455000Y-56570000D03*
X11725000Y-56570000D03*
X12995000Y-56570000D03*
X14265000Y-56570000D03*
X15535000Y-56570000D03*
X16805000Y-56570000D03*
X18075000Y-56570000D03*
D56*
X19325000Y-53530000D03*
X19325000Y-52260000D03*
X19325000Y-50990000D03*
X19325000Y-49720000D03*
X19325000Y-48450000D03*
X19325000Y-47180000D03*
X19325000Y-45910000D03*
X19325000Y-44640000D03*
X19325000Y-43370000D03*
X19325000Y-42100000D03*
D55*
X18075000Y-39070000D03*
X16805000Y-39070000D03*
X15535000Y-39070000D03*
X14265000Y-39070000D03*
X12995000Y-39070000D03*
X11725000Y-39070000D03*
X10455000Y-39070000D03*
X9185000Y-39070000D03*
X7915000Y-39070000D03*
X6645000Y-39070000D03*
X5375000Y-39070000D03*
X4105000Y-39070000D03*
X2835000Y-39070000D03*
X1565000Y-39070000D03*
D57*
X8905000Y-47737500D03*
X10430000Y-47737500D03*
X10430000Y-49262500D03*
X8142500Y-50025000D03*
X7380000Y-49262500D03*
X9667500Y-46975000D03*
X9667500Y-48500000D03*
X9667500Y-50025000D03*
X8142500Y-46975000D03*
X8142500Y-48500000D03*
X7380000Y-47737500D03*
D58*
X8905000Y-48500000D03*
D57*
X8905000Y-49262500D03*
%TD*%
D32*
%TO.C,C57*%
X47400000Y-48062500D03*
X47400000Y-46337500D03*
%TD*%
D21*
%TO.C,C46*%
X54300000Y-24237500D03*
X54300000Y-25962500D03*
%TD*%
D23*
%TO.C,C1*%
X27225000Y-60100000D03*
X30175000Y-60100000D03*
%TD*%
D47*
%TO.C,C25*%
X26625000Y-37500000D03*
X28175000Y-37500000D03*
%TD*%
D21*
%TO.C,C39*%
X62900000Y-14437500D03*
X62900000Y-16162500D03*
%TD*%
D10*
%TO.C,R49*%
X54300000Y-17675000D03*
X54300000Y-19325000D03*
%TD*%
D49*
%TO.C,LS2*%
X65400000Y-6700000D03*
D50*
X60400000Y-6700000D03*
%TD*%
D54*
%TO.C,C2*%
X25475000Y-62100000D03*
X22525000Y-62100000D03*
%TD*%
D22*
%TO.C,C10*%
X39000000Y-60775000D03*
X39000000Y-57825000D03*
%TD*%
D36*
%TO.C,U2*%
X41650000Y-52837500D03*
X42600000Y-52837500D03*
X43550000Y-52837500D03*
X43550000Y-50562500D03*
X42600000Y-50562500D03*
X41650000Y-50562500D03*
%TD*%
D21*
%TO.C,C38*%
X65900000Y-20837500D03*
X65900000Y-22562500D03*
%TD*%
D54*
%TO.C,C13*%
X44075000Y-58070000D03*
X41125000Y-58070000D03*
%TD*%
D26*
%TO.C,C53*%
X50162500Y-58200000D03*
X47037500Y-58200000D03*
%TD*%
D25*
%TO.C,C15*%
X25575000Y-45300000D03*
X24025000Y-45300000D03*
%TD*%
D53*
%TO.C,U8*%
X64205000Y-18325000D03*
X62935000Y-18325000D03*
X61665000Y-18325000D03*
X60395000Y-18325000D03*
X60395000Y-23275000D03*
X61665000Y-23275000D03*
X62935000Y-23275000D03*
X64205000Y-23275000D03*
%TD*%
D52*
%TO.C,Q1*%
X2150000Y-72637500D03*
X4050000Y-72637500D03*
X3100000Y-70762500D03*
%TD*%
D28*
%TO.C,D2*%
X3712500Y-68400000D03*
X5287500Y-68400000D03*
%TD*%
D32*
%TO.C,C40*%
X59000000Y-48062500D03*
X59000000Y-46337500D03*
%TD*%
D17*
%TO.C,R13*%
X35325000Y-70600000D03*
X33675000Y-70600000D03*
%TD*%
D59*
%TO.C,RV1*%
X39600000Y-33200000D03*
D60*
X36350000Y-32200000D03*
D59*
X39600000Y-31200000D03*
%TD*%
D25*
%TO.C,C14*%
X43375000Y-56100000D03*
X41825000Y-56100000D03*
%TD*%
D48*
%TO.C,U9*%
X65025000Y-50137500D03*
X64375000Y-50137500D03*
X63725000Y-50137500D03*
X63075000Y-50137500D03*
X62425000Y-50137500D03*
X61775000Y-50137500D03*
X61125000Y-50137500D03*
X60475000Y-50137500D03*
X59825000Y-50137500D03*
X59175000Y-50137500D03*
X59175000Y-55862500D03*
X59825000Y-55862500D03*
X60475000Y-55862500D03*
X61125000Y-55862500D03*
X61775000Y-55862500D03*
X62425000Y-55862500D03*
X63075000Y-55862500D03*
X63725000Y-55862500D03*
X64375000Y-55862500D03*
X65025000Y-55862500D03*
%TD*%
D32*
%TO.C,C42*%
X60500000Y-48062500D03*
X60500000Y-46337500D03*
%TD*%
D47*
%TO.C,C16*%
X26625000Y-39000000D03*
X28175000Y-39000000D03*
%TD*%
D26*
%TO.C,C47*%
X55162500Y-60600000D03*
X52037500Y-60600000D03*
%TD*%
D31*
%TO.C,R17*%
X43800000Y-69725000D03*
X43800000Y-68075000D03*
%TD*%
D45*
%TO.C,C9*%
X40100000Y-51175000D03*
X40100000Y-49625000D03*
%TD*%
D32*
%TO.C,C50*%
X52300000Y-48062500D03*
X52300000Y-46337500D03*
%TD*%
D21*
%TO.C,C60*%
X54300000Y-14437500D03*
X54300000Y-16162500D03*
%TD*%
D13*
%TO.C,R5*%
X22875000Y-55500000D03*
X24525000Y-55500000D03*
%TD*%
D17*
%TO.C,R51*%
X52925000Y-12800000D03*
X51275000Y-12800000D03*
%TD*%
D13*
%TO.C,R25*%
X36175000Y-44000000D03*
X37825000Y-44000000D03*
%TD*%
D26*
%TO.C,C44*%
X51762500Y-70500000D03*
X48637500Y-70500000D03*
%TD*%
%TO.C,C30*%
X66762500Y-60600000D03*
X63637500Y-60600000D03*
%TD*%
D32*
%TO.C,C33*%
X63900000Y-48062500D03*
X63900000Y-46337500D03*
%TD*%
D21*
%TO.C,C29*%
X65900000Y-24237500D03*
X65900000Y-25962500D03*
%TD*%
D54*
%TO.C,C12*%
X44075000Y-60470000D03*
X41125000Y-60470000D03*
%TD*%
D10*
%TO.C,R41*%
X65900000Y-17675000D03*
X65900000Y-19325000D03*
%TD*%
D18*
%TO.C,H1*%
X4000000Y-80000000D03*
%TD*%
D61*
%TO.C,U4*%
X38000000Y-72350000D03*
X38500000Y-72350000D03*
X39000000Y-72350000D03*
X39500000Y-72350000D03*
X40000000Y-72350000D03*
X40500000Y-72350000D03*
X41000000Y-72350000D03*
D62*
X41950000Y-71400000D03*
X41950000Y-70900000D03*
X41950000Y-70400000D03*
X41950000Y-69900000D03*
X41950000Y-69400000D03*
X41950000Y-68900000D03*
X41950000Y-68400000D03*
D61*
X41000000Y-67450000D03*
X40500000Y-67450000D03*
X40000000Y-67450000D03*
X39500000Y-67450000D03*
X39000000Y-67450000D03*
X38500000Y-67450000D03*
X38000000Y-67450000D03*
D62*
X37050000Y-68400000D03*
X37050000Y-68900000D03*
X37050000Y-69400000D03*
X37050000Y-69900000D03*
X37050000Y-70400000D03*
X37050000Y-70900000D03*
X37050000Y-71400000D03*
D63*
X39500000Y-69900000D03*
%TD*%
D31*
%TO.C,R24*%
X21400000Y-48725000D03*
X21400000Y-47075000D03*
%TD*%
D17*
%TO.C,R14*%
X35325000Y-69100000D03*
X33675000Y-69100000D03*
%TD*%
D10*
%TO.C,R9*%
X38100000Y-52275000D03*
X38100000Y-53925000D03*
%TD*%
D17*
%TO.C,R22*%
X41725000Y-46500000D03*
X40075000Y-46500000D03*
%TD*%
D37*
%TO.C,U10*%
X66945000Y-62925000D03*
X65675000Y-62925000D03*
X64405000Y-62925000D03*
X63135000Y-62925000D03*
X61865000Y-62925000D03*
X60595000Y-62925000D03*
X59325000Y-62925000D03*
X58055000Y-62925000D03*
X58055000Y-68075000D03*
X59325000Y-68075000D03*
X60595000Y-68075000D03*
X61865000Y-68075000D03*
X63135000Y-68075000D03*
X64405000Y-68075000D03*
X65675000Y-68075000D03*
X66945000Y-68075000D03*
%TD*%
D51*
%TO.C,Y2*%
X53900000Y-43500000D03*
X48700000Y-43500000D03*
%TD*%
D64*
%TO.C,J3*%
X22560000Y-79977491D03*
X14560000Y-79977491D03*
D65*
X21650000Y-69137491D03*
X20550000Y-69137491D03*
X19450000Y-69137491D03*
X18350000Y-69137491D03*
X17250000Y-69137491D03*
X16150000Y-69137491D03*
X15050000Y-69137491D03*
X13950000Y-69137491D03*
D66*
X11750000Y-69987491D03*
D67*
X27270000Y-79687491D03*
D66*
X26430000Y-69987491D03*
D67*
X11750000Y-79687491D03*
%TD*%
D49*
%TO.C,LS3*%
X53800000Y-77700000D03*
D50*
X48800000Y-77700000D03*
%TD*%
D49*
%TO.C,LS4*%
X53800000Y-6700000D03*
D50*
X48800000Y-6700000D03*
%TD*%
G36*
X23159191Y-80718907D02*
G01*
X23195155Y-80768407D01*
X23200000Y-80799000D01*
X23200000Y-83601000D01*
X23181093Y-83659191D01*
X23131593Y-83695155D01*
X23101000Y-83700000D01*
X13799000Y-83700000D01*
X13740809Y-83681093D01*
X13704845Y-83631593D01*
X13700000Y-83601000D01*
X13700000Y-80799000D01*
X13718907Y-80740809D01*
X13768407Y-80704845D01*
X13799000Y-80700000D01*
X23101000Y-80700000D01*
X23159191Y-80718907D01*
G37*
M02*
