%TF.GenerationSoftware,KiCad,Pcbnew,7.0.9*%
%TF.CreationDate,2024-01-04T13:11:27+01:00*%
%TF.ProjectId,OBSPro,4f425350-726f-42e6-9b69-6361645f7063,rev?*%
%TF.SameCoordinates,PX7270e00PY2255100*%
%TF.FileFunction,Copper,L2,Inr*%
%TF.FilePolarity,Positive*%
%FSLAX46Y46*%
G04 Gerber Fmt 4.6, Leading zero omitted, Abs format (unit mm)*
G04 Created by KiCad (PCBNEW 7.0.9) date 2024-01-04 13:11:27*
%MOMM*%
%LPD*%
G01*
G04 APERTURE LIST*
G04 Aperture macros list*
%AMRoundRect*
0 Rectangle with rounded corners*
0 $1 Rounding radius*
0 $2 $3 $4 $5 $6 $7 $8 $9 X,Y pos of 4 corners*
0 Add a 4 corners polygon primitive as box body*
4,1,4,$2,$3,$4,$5,$6,$7,$8,$9,$2,$3,0*
0 Add four circle primitives for the rounded corners*
1,1,$1+$1,$2,$3*
1,1,$1+$1,$4,$5*
1,1,$1+$1,$6,$7*
1,1,$1+$1,$8,$9*
0 Add four rect primitives between the rounded corners*
20,1,$1+$1,$2,$3,$4,$5,0*
20,1,$1+$1,$4,$5,$6,$7,0*
20,1,$1+$1,$6,$7,$8,$9,0*
20,1,$1+$1,$8,$9,$2,$3,0*%
G04 Aperture macros list end*
%ADD10C,0.300000*%
%TA.AperFunction,NonConductor*%
%ADD11C,0.300000*%
%TD*%
%TA.AperFunction,ComponentPad*%
%ADD12RoundRect,0.250000X-0.625000X0.350000X-0.625000X-0.350000X0.625000X-0.350000X0.625000X0.350000X0*%
%TD*%
%TA.AperFunction,ComponentPad*%
%ADD13O,1.750000X1.200000*%
%TD*%
%TA.AperFunction,ComponentPad*%
%ADD14O,0.900000X2.000000*%
%TD*%
%TA.AperFunction,ComponentPad*%
%ADD15O,0.900000X1.700000*%
%TD*%
%TA.AperFunction,ComponentPad*%
%ADD16O,2.500000X1.500000*%
%TD*%
%TA.AperFunction,HeatsinkPad*%
%ADD17C,0.475000*%
%TD*%
%TA.AperFunction,ComponentPad*%
%ADD18C,1.800000*%
%TD*%
%TA.AperFunction,ViaPad*%
%ADD19C,0.800000*%
%TD*%
%TA.AperFunction,ViaPad*%
%ADD20C,0.700000*%
%TD*%
G04 APERTURE END LIST*
D10*
D11*
X16771429Y-81521185D02*
X16842857Y-81449757D01*
X16842857Y-81449757D02*
X16985715Y-81378328D01*
X16985715Y-81378328D02*
X17342857Y-81378328D01*
X17342857Y-81378328D02*
X17485715Y-81449757D01*
X17485715Y-81449757D02*
X17557143Y-81521185D01*
X17557143Y-81521185D02*
X17628572Y-81664042D01*
X17628572Y-81664042D02*
X17628572Y-81806900D01*
X17628572Y-81806900D02*
X17557143Y-82021185D01*
X17557143Y-82021185D02*
X16700000Y-82878328D01*
X16700000Y-82878328D02*
X17628572Y-82878328D01*
D12*
%TO.N,+BATT*%
%TO.C,J2*%
X6850000Y-62900000D03*
D13*
%TO.N,GND*%
X6850000Y-64900000D03*
%TD*%
D14*
%TO.N,GND*%
%TO.C,J1*%
X29075000Y-77697500D03*
D15*
X29075000Y-81877500D03*
D14*
X37725000Y-77697500D03*
D15*
X37725000Y-81877500D03*
%TD*%
D16*
%TO.N,Net-(J3-Pin_1)*%
%TO.C,J3*%
X13600000Y-31900000D03*
%TO.N,Net-(J3-Pin_2)*%
X13600000Y-29360000D03*
%TO.N,Net-(J3-Pin_3)*%
X13600000Y-26820000D03*
%TO.N,Net-(J3-Pin_4)*%
X13600000Y-24280000D03*
%TO.N,Net-(J3-Pin_5)*%
X13600000Y-21740000D03*
%TO.N,Net-(J3-Pin_6)*%
X13600000Y-19200000D03*
%TO.N,Net-(J3-Pin_7)*%
X13600000Y-16660000D03*
%TO.N,GND*%
X13600000Y-14120000D03*
%TD*%
D17*
%TO.N,GND*%
%TO.C,U6*%
X8142500Y-45825000D03*
X9667500Y-45825000D03*
X7380000Y-45062500D03*
X8905000Y-45062500D03*
X10430000Y-45062500D03*
X8142500Y-44300000D03*
X9667500Y-44300000D03*
X7380000Y-43537500D03*
X8905000Y-43537500D03*
X10430000Y-43537500D03*
X8142500Y-42775000D03*
X9667500Y-42775000D03*
%TD*%
D18*
%TO.N,/Sensors/Ultrasonic1/INP*%
%TO.C,LS1*%
X56000000Y-75500000D03*
%TO.N,GND*%
X66000000Y-75500000D03*
%TD*%
%TO.N,/Sensors/Ultrasonic2/INP*%
%TO.C,LS2*%
X65999999Y-8500000D03*
%TO.N,GND*%
X55999999Y-8500000D03*
%TD*%
D19*
%TO.N,GND*%
X18800000Y-28500000D03*
%TO.N,+3V3*%
X17700000Y-30900000D03*
X19000000Y-32000000D03*
X18200000Y-32000000D03*
%TO.N,/Controller/BUTTON*%
X17400000Y-15700000D03*
%TO.N,/Controller/LCD_CS*%
X17400000Y-20300000D03*
%TO.N,/Controller/LCD_A0*%
X14900000Y-25500000D03*
%TO.N,/Controller/LCD_RES*%
X20200000Y-30600000D03*
%TO.N,/Controller/BUTTON*%
X22800000Y-30700000D03*
%TO.N,GND*%
X33000000Y-59200000D03*
D20*
X64000000Y-33800000D03*
X9300000Y-55800000D03*
D19*
X13300000Y-57200000D03*
X29100000Y-17600000D03*
D20*
X45900000Y-57700000D03*
D19*
X12500000Y-57700000D03*
X22000000Y-58900000D03*
D20*
X58200000Y-67600000D03*
D19*
X31800000Y-55600000D03*
D20*
X46100000Y-52300000D03*
D19*
X37100000Y-76200000D03*
D20*
X58000000Y-39300000D03*
X64000000Y-32400000D03*
D19*
X40600000Y-41900000D03*
D20*
X64000000Y-31700000D03*
D19*
X13300000Y-58000000D03*
D20*
X43100000Y-55700000D03*
D19*
X13000000Y-79700000D03*
X42000000Y-35200000D03*
D20*
X47750000Y-57450000D03*
D19*
X23000000Y-64400000D03*
D20*
X63800000Y-16400000D03*
D19*
X11750000Y-71150000D03*
X22200000Y-64400000D03*
X30200000Y-62800000D03*
X29100000Y-14500000D03*
X31000000Y-62000000D03*
X31300000Y-17600000D03*
X40900000Y-67100000D03*
X32600000Y-55600000D03*
D20*
X46100000Y-50200000D03*
X58000000Y-53000000D03*
X41900000Y-80600000D03*
X48600000Y-53300000D03*
X58900000Y-30100000D03*
X46400000Y-53100000D03*
D19*
X20600000Y-64400000D03*
X18800000Y-58900000D03*
X29700000Y-75900000D03*
D20*
X43100000Y-56500000D03*
X58000000Y-50900000D03*
X58000000Y-51600000D03*
D19*
X19600000Y-58900000D03*
D20*
X56700000Y-30100000D03*
X61300000Y-23700000D03*
X41900000Y-79000000D03*
D19*
X31000000Y-60400000D03*
X31300000Y-14500000D03*
D20*
X64000000Y-44700000D03*
D19*
X33000000Y-26000000D03*
D20*
X44700000Y-54900000D03*
D19*
X1800000Y-51000000D03*
D20*
X51300000Y-57300000D03*
X44900000Y-56700000D03*
X68500000Y-18800000D03*
D19*
X31000000Y-62800000D03*
X11100000Y-63700000D03*
X21400000Y-64400000D03*
X20900000Y-67500000D03*
D20*
X65500000Y-44700000D03*
X66700000Y-16200000D03*
D19*
X31600000Y-59800000D03*
X34300000Y-67600000D03*
D20*
X56500000Y-39300000D03*
D19*
X10900000Y-57700000D03*
D20*
X62500000Y-44700000D03*
D19*
X23300000Y-57200000D03*
X20400000Y-58900000D03*
D20*
X45400000Y-57200000D03*
X59500000Y-39300000D03*
X46400000Y-60800000D03*
D19*
X36100000Y-39200000D03*
X11700000Y-57700000D03*
X31000000Y-61200000D03*
D20*
X45900000Y-56700000D03*
D19*
X16200000Y-67700000D03*
D20*
X64000000Y-33100000D03*
D19*
X17700000Y-57200000D03*
X39700000Y-23500000D03*
X16900000Y-57200000D03*
D20*
X53500000Y-65200000D03*
D19*
X32200000Y-59200000D03*
D20*
X55100000Y-16600000D03*
X46400000Y-65300000D03*
X46400000Y-62300000D03*
X4300000Y-56900000D03*
D19*
X38240110Y-38299817D03*
X39900000Y-76100000D03*
D20*
X51300000Y-63900000D03*
X51300000Y-55800000D03*
D19*
X26400000Y-71200000D03*
D20*
X43100000Y-54900000D03*
D19*
X11100000Y-65300000D03*
X23800000Y-64400000D03*
D20*
X55700000Y-30100000D03*
D19*
X17900000Y-49300000D03*
D20*
X58000000Y-52300000D03*
D19*
X1900000Y-36200000D03*
D20*
X45500000Y-54900000D03*
D19*
X21200000Y-58900000D03*
X16900000Y-58800000D03*
X26100000Y-79700000D03*
X22300000Y-27075500D03*
D20*
X66300000Y-53900000D03*
X46100000Y-48800000D03*
D19*
X27000000Y-28900000D03*
D20*
X43900000Y-55700000D03*
D19*
X22200000Y-54800000D03*
D20*
X65300000Y-53900000D03*
D19*
X34300000Y-72200000D03*
D20*
X55300000Y-67800000D03*
X44900000Y-57700000D03*
D19*
X29300000Y-40100000D03*
X16900000Y-58000000D03*
X37000000Y-37800000D03*
D20*
X46100000Y-50900000D03*
D19*
X34600000Y-59200000D03*
X35844622Y-24055378D03*
D20*
X60700000Y-60300000D03*
X51300000Y-60300000D03*
X64000000Y-31000000D03*
D19*
X41100000Y-76700000D03*
D20*
X58000000Y-50200000D03*
X66900000Y-67400000D03*
X43900000Y-54900000D03*
X63100000Y-53900000D03*
D19*
X32700000Y-27500000D03*
X13300000Y-58800000D03*
X11100000Y-64500000D03*
X38500000Y-76300000D03*
X18000000Y-58900000D03*
X31000000Y-55600000D03*
D20*
X46100000Y-49500000D03*
D19*
X1800000Y-69400000D03*
D20*
X46400000Y-63800000D03*
D19*
X38900000Y-67600000D03*
X29800000Y-53200000D03*
X34600000Y-55600000D03*
D20*
%TO.N,+BATT*%
X2000000Y-42800000D03*
X43200000Y-64300000D03*
D19*
X8400000Y-62700000D03*
D20*
X21600000Y-41000000D03*
X17300000Y-41000000D03*
D19*
X6800000Y-61900000D03*
D20*
X43200000Y-62200000D03*
X43200000Y-61500000D03*
X900000Y-28500000D03*
X43200000Y-63600000D03*
D19*
X8400000Y-61900000D03*
X7600000Y-61900000D03*
D20*
X43200000Y-60800000D03*
X43200000Y-65000000D03*
X43200000Y-62900000D03*
%TO.N,+5V*%
X45990734Y-59709266D03*
X37500000Y-43400000D03*
X37537500Y-41900000D03*
X41500000Y-60500000D03*
D19*
%TO.N,+USB*%
X18700000Y-54500000D03*
X17900000Y-54500000D03*
X18700000Y-55300000D03*
X17900000Y-55300000D03*
X31000000Y-75900000D03*
X35400000Y-78600000D03*
X31400000Y-78500000D03*
X39200000Y-72800000D03*
X36000000Y-75900000D03*
D20*
%TO.N,+3V3*%
X58600000Y-45700000D03*
D19*
X34000000Y-53200000D03*
X32800000Y-29000000D03*
D20*
X67700000Y-38300000D03*
D19*
X33200000Y-53200000D03*
X32400000Y-51600000D03*
X18300000Y-70400000D03*
X41900000Y-72700000D03*
D20*
X54300000Y-45700000D03*
D19*
X2800000Y-51000000D03*
D20*
X64700000Y-39100000D03*
D19*
X34300000Y-60400000D03*
X34800000Y-53200000D03*
X6700000Y-54200000D03*
X32400000Y-52400000D03*
X32400000Y-53200000D03*
D20*
%TO.N,+9V*%
X54600000Y-60700000D03*
X53900000Y-60700000D03*
X43100000Y-49400000D03*
X60100000Y-28500000D03*
X61100000Y-53600000D03*
X66200000Y-22800000D03*
X43100000Y-52200000D03*
X66200000Y-22100000D03*
X43100000Y-53600000D03*
X43100000Y-50100000D03*
X60900000Y-30400000D03*
X50100000Y-51900000D03*
X61100000Y-55500000D03*
X45100000Y-51900000D03*
X43100000Y-50800000D03*
X55800000Y-61900000D03*
X60100000Y-30400000D03*
X61900000Y-53600000D03*
X67400000Y-23300000D03*
X66700000Y-23300000D03*
X43100000Y-48000000D03*
X55800000Y-61200000D03*
X55300000Y-60700000D03*
X61900000Y-55500000D03*
X43100000Y-48700000D03*
X60900000Y-28500000D03*
X61596329Y-46343898D03*
X43100000Y-52900000D03*
X43100000Y-51500000D03*
X60403671Y-37656102D03*
X68100000Y-23300000D03*
%TO.N,Net-(T1-PM)*%
X63700000Y-59400000D03*
X57900000Y-56500000D03*
X65700000Y-60100000D03*
X55300000Y-57600000D03*
X57900000Y-55800000D03*
X55300000Y-56800000D03*
X65700000Y-58000000D03*
X65700000Y-59400000D03*
X54500000Y-57600000D03*
X65700000Y-58700000D03*
X63700000Y-60100000D03*
X63700000Y-58700000D03*
X63700000Y-58000000D03*
%TO.N,Net-(T2-PM)*%
X56300000Y-23900000D03*
X56300000Y-26000000D03*
X58300000Y-26000000D03*
X58300000Y-25300000D03*
X66700000Y-27200000D03*
X56300000Y-25300000D03*
X64100000Y-27500000D03*
X64100000Y-28200000D03*
X67500000Y-26400000D03*
X56300000Y-24600000D03*
X58300000Y-24600000D03*
X66700000Y-26400000D03*
X58300000Y-23900000D03*
D19*
%TO.N,USB_DP*%
X32900000Y-75800000D03*
X34400000Y-75800000D03*
%TO.N,/Controller/SCK*%
X17300000Y-67700000D03*
D20*
X7800000Y-39500000D03*
D19*
%TO.N,/Controller/MOSI*%
X4700000Y-37900000D03*
X19400000Y-70400000D03*
D20*
%TO.N,/Controller/LCD_A0*%
X15500000Y-50900000D03*
%TO.N,US_IO_1*%
X27900000Y-48400000D03*
X15100000Y-48400000D03*
%TO.N,/Sensors/Ultrasonic1/IO*%
X61500000Y-50500000D03*
X67000000Y-51000000D03*
D19*
%TO.N,/Controller/~USB_DTR*%
X4600000Y-75400000D03*
X8600000Y-72700000D03*
X29800000Y-71800000D03*
D20*
%TO.N,/Controller/GPIO0*%
X3350500Y-41000000D03*
X4400000Y-61150500D03*
%TO.N,US_IO_2*%
X17800000Y-45400000D03*
X30600000Y-45400000D03*
%TO.N,/Sensors/Ultrasonic2/IO*%
X60500000Y-33500000D03*
X55000000Y-33000000D03*
D19*
%TO.N,Net-(U2-VFB)*%
X26600000Y-63700000D03*
X33600000Y-62200000D03*
%TO.N,/Controller/USB_RX*%
X5375000Y-36200000D03*
X29700000Y-69100000D03*
D20*
%TO.N,/Controller/USB_TX*%
X3100000Y-38800000D03*
D19*
X29700000Y-70600000D03*
D20*
%TO.N,IP5306_BTN*%
X12400000Y-60300000D03*
X34100000Y-41600000D03*
%TO.N,/Controller/LCD_RES*%
X16800000Y-36200000D03*
%TO.N,US_MISO*%
X54300000Y-42000000D03*
X54300000Y-40100000D03*
X29800000Y-46200000D03*
X17100000Y-46200000D03*
%TO.N,US_MOSI*%
X16300000Y-46900000D03*
X55290734Y-40409266D03*
X29100000Y-46900000D03*
X55300000Y-42700000D03*
%TO.N,US_SCK*%
X56200000Y-43400000D03*
X28500000Y-47700000D03*
X15700000Y-47700000D03*
X56200000Y-40400000D03*
D19*
%TO.N,/Power Supply/SW*%
X28700000Y-60300000D03*
X27900000Y-60300000D03*
X28000000Y-56000000D03*
X28700000Y-61100000D03*
X28100000Y-54700000D03*
X28500000Y-54000000D03*
X27900000Y-61100000D03*
X28500000Y-55400000D03*
D20*
%TO.N,/Controller/LCD_CS*%
X18000000Y-50800000D03*
D19*
%TO.N,/Controller/SD_CS*%
X20530378Y-70419622D03*
X5570572Y-40292143D03*
D20*
%TO.N,/Controller/MISO*%
X10400000Y-36100000D03*
D19*
X15100000Y-67700000D03*
%TD*%
%TA.AperFunction,Conductor*%
%TO.N,GND*%
G36*
X57359191Y-7318907D02*
G01*
X57395155Y-7368407D01*
X57400000Y-7399000D01*
X57400000Y-12800000D01*
X69900500Y-12800000D01*
X69958691Y-12818907D01*
X69994655Y-12868407D01*
X69999500Y-12899000D01*
X69999500Y-79998863D01*
X69999447Y-80001149D01*
X69991512Y-80172761D01*
X69981670Y-80373094D01*
X69981255Y-80377505D01*
X69955337Y-80563310D01*
X69927596Y-80750320D01*
X69926817Y-80754391D01*
X69883317Y-80939345D01*
X69837900Y-81120658D01*
X69836817Y-81124362D01*
X69776093Y-81305541D01*
X69713403Y-81480745D01*
X69712078Y-81484063D01*
X69634638Y-81659452D01*
X69555229Y-81827347D01*
X69553725Y-81830271D01*
X69460221Y-81998142D01*
X69364840Y-82157276D01*
X69363219Y-82159803D01*
X69254436Y-82318609D01*
X69143917Y-82467626D01*
X69142240Y-82469762D01*
X69019132Y-82618016D01*
X68894504Y-82755521D01*
X68892829Y-82757281D01*
X68757281Y-82892829D01*
X68755521Y-82894504D01*
X68618016Y-83019132D01*
X68469762Y-83142240D01*
X68467626Y-83143917D01*
X68318609Y-83254436D01*
X68159803Y-83363219D01*
X68157276Y-83364840D01*
X67998142Y-83460221D01*
X67830271Y-83553725D01*
X67827347Y-83555229D01*
X67659452Y-83634638D01*
X67484063Y-83712078D01*
X67480745Y-83713403D01*
X67305541Y-83776093D01*
X67124362Y-83836817D01*
X67120658Y-83837900D01*
X66939345Y-83883317D01*
X66754391Y-83926817D01*
X66750320Y-83927596D01*
X66563310Y-83955337D01*
X66377505Y-83981255D01*
X66373094Y-83981670D01*
X66172761Y-83991512D01*
X66022621Y-83998454D01*
X66001143Y-83999447D01*
X65998863Y-83999500D01*
X4001137Y-83999500D01*
X3998856Y-83999447D01*
X3976300Y-83998404D01*
X3827238Y-83991512D01*
X3626904Y-83981670D01*
X3622493Y-83981255D01*
X3436689Y-83955337D01*
X3249678Y-83927596D01*
X3245607Y-83926817D01*
X3060654Y-83883317D01*
X2879340Y-83837900D01*
X2875636Y-83836817D01*
X2694458Y-83776093D01*
X2519253Y-83713403D01*
X2515935Y-83712078D01*
X2340547Y-83634638D01*
X2172651Y-83555229D01*
X2169727Y-83553725D01*
X2001857Y-83460221D01*
X1939713Y-83422973D01*
X1842707Y-83364830D01*
X1840195Y-83363219D01*
X1681391Y-83254436D01*
X1532372Y-83143917D01*
X1530248Y-83142249D01*
X1456498Y-83081008D01*
X1381984Y-83019132D01*
X1310929Y-82954732D01*
X1244464Y-82894491D01*
X1242718Y-82892829D01*
X1107169Y-82757280D01*
X1105494Y-82755520D01*
X980867Y-82618016D01*
X857742Y-82469741D01*
X856096Y-82467646D01*
X745563Y-82318608D01*
X636779Y-82159803D01*
X635179Y-82157309D01*
X539778Y-81998142D01*
X457541Y-81850500D01*
X446263Y-81830252D01*
X444775Y-81827359D01*
X365370Y-81659474D01*
X287920Y-81484064D01*
X286601Y-81480761D01*
X223907Y-81305541D01*
X163173Y-81124338D01*
X162105Y-81120682D01*
X116675Y-80939315D01*
X111402Y-80916895D01*
X73176Y-80754367D01*
X72405Y-80750338D01*
X44662Y-80563310D01*
X18741Y-80377488D01*
X18329Y-80373110D01*
X8487Y-80172761D01*
X3632Y-80067765D01*
X2145788Y-80067765D01*
X2175414Y-80337020D01*
X2234564Y-80563270D01*
X2243928Y-80599088D01*
X2349870Y-80848390D01*
X2421999Y-80966577D01*
X2490983Y-81079612D01*
X2580252Y-81186880D01*
X2664255Y-81287820D01*
X2865998Y-81468582D01*
X3088624Y-81615870D01*
X3091913Y-81618046D01*
X3180241Y-81659452D01*
X3337176Y-81733020D01*
X3482628Y-81776780D01*
X3596555Y-81811056D01*
X3596559Y-81811057D01*
X3596569Y-81811060D01*
X3763840Y-81835677D01*
X3864560Y-81850500D01*
X3864561Y-81850500D01*
X4067633Y-81850500D01*
X4125495Y-81846264D01*
X4270156Y-81835677D01*
X4534553Y-81776780D01*
X4787558Y-81680014D01*
X5023777Y-81547441D01*
X5238177Y-81381888D01*
X5426186Y-81186881D01*
X5583799Y-80966579D01*
X5707656Y-80725675D01*
X5716415Y-80700000D01*
X13700000Y-80700000D01*
X13700000Y-83700000D01*
X13700001Y-83700000D01*
X23199999Y-83700000D01*
X23200000Y-83700000D01*
X23200000Y-80700000D01*
X13700000Y-80700000D01*
X5716415Y-80700000D01*
X5795118Y-80469305D01*
X5844319Y-80202933D01*
X5852558Y-79977492D01*
X14054353Y-79977492D01*
X14061536Y-80027449D01*
X14062544Y-80041539D01*
X14062544Y-80049014D01*
X14063713Y-80052996D01*
X14064650Y-80056188D01*
X14067649Y-80069977D01*
X14074835Y-80119948D01*
X14074836Y-80119951D01*
X14095802Y-80165859D01*
X14100738Y-80179091D01*
X14102845Y-80186267D01*
X14106888Y-80192558D01*
X14113653Y-80204946D01*
X14134623Y-80250864D01*
X14134624Y-80250865D01*
X14167678Y-80289013D01*
X14176141Y-80300318D01*
X14180181Y-80306604D01*
X14180182Y-80306605D01*
X14185825Y-80311495D01*
X14185827Y-80311496D01*
X14195815Y-80321484D01*
X14228872Y-80359634D01*
X14271346Y-80386930D01*
X14282637Y-80395383D01*
X14288290Y-80400281D01*
X14288291Y-80400281D01*
X14288293Y-80400283D01*
X14295081Y-80403383D01*
X14307478Y-80410150D01*
X14349947Y-80437444D01*
X14398380Y-80451665D01*
X14411613Y-80456601D01*
X14418404Y-80459702D01*
X14418405Y-80459702D01*
X14418409Y-80459704D01*
X14425805Y-80460767D01*
X14439599Y-80463767D01*
X14455308Y-80468380D01*
X14488033Y-80477990D01*
X14488038Y-80477990D01*
X14488039Y-80477991D01*
X14488040Y-80477991D01*
X14538517Y-80477991D01*
X14552605Y-80478998D01*
X14560000Y-80480062D01*
X14567394Y-80478998D01*
X14581483Y-80477991D01*
X14631960Y-80477991D01*
X14631961Y-80477991D01*
X14680409Y-80463765D01*
X14694181Y-80460769D01*
X14701591Y-80459704D01*
X14708391Y-80456598D01*
X14721614Y-80451666D01*
X14770053Y-80437444D01*
X14812528Y-80410146D01*
X14824906Y-80403388D01*
X14831710Y-80400281D01*
X14837364Y-80395381D01*
X14848657Y-80386927D01*
X14891128Y-80359634D01*
X14924190Y-80321477D01*
X14934162Y-80311505D01*
X14939818Y-80306605D01*
X14943861Y-80300313D01*
X14952312Y-80289023D01*
X14985377Y-80250864D01*
X15006353Y-80204931D01*
X15013107Y-80192564D01*
X15017155Y-80186267D01*
X15019262Y-80179089D01*
X15024188Y-80165878D01*
X15045165Y-80119948D01*
X15052350Y-80069971D01*
X15055348Y-80056191D01*
X15057456Y-80049014D01*
X15058049Y-80032325D01*
X15058520Y-80027060D01*
X15065647Y-79977492D01*
X22054353Y-79977492D01*
X22061536Y-80027449D01*
X22062544Y-80041539D01*
X22062544Y-80049014D01*
X22063713Y-80052996D01*
X22064650Y-80056188D01*
X22067649Y-80069977D01*
X22074835Y-80119948D01*
X22074836Y-80119951D01*
X22095802Y-80165859D01*
X22100738Y-80179091D01*
X22102845Y-80186267D01*
X22106888Y-80192558D01*
X22113653Y-80204946D01*
X22134623Y-80250864D01*
X22134624Y-80250865D01*
X22167678Y-80289013D01*
X22176141Y-80300318D01*
X22180181Y-80306604D01*
X22180182Y-80306605D01*
X22185825Y-80311495D01*
X22185827Y-80311496D01*
X22195815Y-80321484D01*
X22228872Y-80359634D01*
X22271346Y-80386930D01*
X22282637Y-80395383D01*
X22288290Y-80400281D01*
X22288291Y-80400281D01*
X22288293Y-80400283D01*
X22295081Y-80403383D01*
X22307478Y-80410150D01*
X22349947Y-80437444D01*
X22398380Y-80451665D01*
X22411613Y-80456601D01*
X22418404Y-80459702D01*
X22418405Y-80459702D01*
X22418409Y-80459704D01*
X22425805Y-80460767D01*
X22439599Y-80463767D01*
X22455308Y-80468380D01*
X22488033Y-80477990D01*
X22488038Y-80477990D01*
X22488039Y-80477991D01*
X22488040Y-80477991D01*
X22538517Y-80477991D01*
X22552605Y-80478998D01*
X22560000Y-80480062D01*
X22567394Y-80478998D01*
X22581483Y-80477991D01*
X22631960Y-80477991D01*
X22631961Y-80477991D01*
X22680409Y-80463765D01*
X22694181Y-80460769D01*
X22701591Y-80459704D01*
X22708391Y-80456598D01*
X22721614Y-80451666D01*
X22770053Y-80437444D01*
X22812528Y-80410146D01*
X22824906Y-80403388D01*
X22831710Y-80400281D01*
X22837364Y-80395381D01*
X22848657Y-80386927D01*
X22891128Y-80359634D01*
X22924190Y-80321477D01*
X22934162Y-80311505D01*
X22939818Y-80306605D01*
X22943861Y-80300313D01*
X22952312Y-80289023D01*
X22985377Y-80250864D01*
X23006353Y-80204931D01*
X23013107Y-80192564D01*
X23017155Y-80186267D01*
X23019262Y-80179089D01*
X23024188Y-80165878D01*
X23045165Y-80119948D01*
X23052350Y-80069971D01*
X23052830Y-80067765D01*
X47145788Y-80067765D01*
X47175414Y-80337020D01*
X47234564Y-80563270D01*
X47243928Y-80599088D01*
X47349870Y-80848390D01*
X47421999Y-80966577D01*
X47490983Y-81079612D01*
X47580252Y-81186880D01*
X47664255Y-81287820D01*
X47865998Y-81468582D01*
X48088624Y-81615870D01*
X48091913Y-81618046D01*
X48180241Y-81659452D01*
X48337176Y-81733020D01*
X48482628Y-81776780D01*
X48596555Y-81811056D01*
X48596559Y-81811057D01*
X48596569Y-81811060D01*
X48763840Y-81835677D01*
X48864560Y-81850500D01*
X48864561Y-81850500D01*
X49067633Y-81850500D01*
X49125495Y-81846264D01*
X49270156Y-81835677D01*
X49534553Y-81776780D01*
X49787558Y-81680014D01*
X50023777Y-81547441D01*
X50238177Y-81381888D01*
X50426186Y-81186881D01*
X50583799Y-80966579D01*
X50707656Y-80725675D01*
X50795118Y-80469305D01*
X50844319Y-80202933D01*
X50854212Y-79932235D01*
X50824586Y-79662982D01*
X50756072Y-79400912D01*
X50650130Y-79151610D01*
X50509018Y-78920390D01*
X50494411Y-78902838D01*
X50335746Y-78712181D01*
X50134007Y-78531422D01*
X50134004Y-78531420D01*
X50134002Y-78531418D01*
X49925749Y-78393639D01*
X49908086Y-78381953D01*
X49662822Y-78266979D01*
X49403444Y-78188943D01*
X49403428Y-78188939D01*
X49135440Y-78149500D01*
X49135439Y-78149500D01*
X48932369Y-78149500D01*
X48932367Y-78149500D01*
X48729848Y-78164322D01*
X48465450Y-78223219D01*
X48465447Y-78223219D01*
X48465447Y-78223220D01*
X48421404Y-78240065D01*
X48212439Y-78319987D01*
X47976219Y-78452561D01*
X47761826Y-78618108D01*
X47573814Y-78813119D01*
X47416199Y-79033422D01*
X47292342Y-79274328D01*
X47204884Y-79530687D01*
X47204881Y-79530698D01*
X47155680Y-79797069D01*
X47145788Y-80067765D01*
X23052830Y-80067765D01*
X23055348Y-80056191D01*
X23057456Y-80049014D01*
X23058049Y-80032325D01*
X23058520Y-80027060D01*
X23065647Y-79977491D01*
X23058520Y-79927923D01*
X23058049Y-79922649D01*
X23057456Y-79905968D01*
X23055351Y-79898799D01*
X23052349Y-79885000D01*
X23045165Y-79835034D01*
X23024194Y-79789115D01*
X23019260Y-79775884D01*
X23017156Y-79768718D01*
X23017154Y-79768713D01*
X23013118Y-79762434D01*
X23006345Y-79750031D01*
X22985377Y-79704118D01*
X22985375Y-79704116D01*
X22952323Y-79665971D01*
X22943858Y-79654663D01*
X22942367Y-79652343D01*
X22939818Y-79648377D01*
X22934167Y-79643480D01*
X22924184Y-79633497D01*
X22895154Y-79599994D01*
X22891129Y-79595348D01*
X22848662Y-79568057D01*
X22837359Y-79559596D01*
X22831710Y-79554701D01*
X22831708Y-79554700D01*
X22831708Y-79554699D01*
X22824908Y-79551594D01*
X22812516Y-79544827D01*
X22770052Y-79517537D01*
X22770050Y-79517536D01*
X22721615Y-79503314D01*
X22708389Y-79498382D01*
X22701593Y-79495279D01*
X22701591Y-79495278D01*
X22694192Y-79494214D01*
X22680398Y-79491213D01*
X22631963Y-79476991D01*
X22631961Y-79476991D01*
X22581483Y-79476991D01*
X22567394Y-79475983D01*
X22560000Y-79474920D01*
X22552605Y-79475983D01*
X22538517Y-79476991D01*
X22488039Y-79476991D01*
X22488037Y-79476991D01*
X22488033Y-79476992D01*
X22439602Y-79491212D01*
X22425811Y-79494213D01*
X22418406Y-79495278D01*
X22411602Y-79498385D01*
X22398380Y-79503315D01*
X22349950Y-79517536D01*
X22349948Y-79517537D01*
X22307478Y-79544829D01*
X22295095Y-79551592D01*
X22288289Y-79554700D01*
X22288289Y-79554701D01*
X22282639Y-79559596D01*
X22271341Y-79568053D01*
X22228874Y-79595345D01*
X22224846Y-79599994D01*
X22195815Y-79633497D01*
X22185833Y-79643480D01*
X22180182Y-79648376D01*
X22180178Y-79648381D01*
X22176136Y-79654670D01*
X22167678Y-79665968D01*
X22134624Y-79704116D01*
X22113654Y-79750032D01*
X22106889Y-79762421D01*
X22102847Y-79768710D01*
X22102843Y-79768718D01*
X22100738Y-79775889D01*
X22095804Y-79789116D01*
X22074835Y-79835032D01*
X22067650Y-79885000D01*
X22064650Y-79898791D01*
X22062544Y-79905965D01*
X22062544Y-79913441D01*
X22061536Y-79927530D01*
X22054353Y-79977489D01*
X22054353Y-79977492D01*
X15065647Y-79977492D01*
X15065647Y-79977491D01*
X15058520Y-79927923D01*
X15058049Y-79922649D01*
X15057456Y-79905968D01*
X15055351Y-79898799D01*
X15052349Y-79885000D01*
X15045165Y-79835034D01*
X15024194Y-79789115D01*
X15019260Y-79775884D01*
X15017156Y-79768718D01*
X15017154Y-79768713D01*
X15013118Y-79762434D01*
X15006345Y-79750031D01*
X14985377Y-79704118D01*
X14985375Y-79704116D01*
X14952323Y-79665971D01*
X14943858Y-79654663D01*
X14942367Y-79652343D01*
X14939818Y-79648377D01*
X14934167Y-79643480D01*
X14924184Y-79633497D01*
X14895154Y-79599994D01*
X14891129Y-79595348D01*
X14848662Y-79568057D01*
X14837359Y-79559596D01*
X14831710Y-79554701D01*
X14831708Y-79554700D01*
X14831708Y-79554699D01*
X14824908Y-79551594D01*
X14812516Y-79544827D01*
X14770052Y-79517537D01*
X14770050Y-79517536D01*
X14721615Y-79503314D01*
X14708389Y-79498382D01*
X14701593Y-79495279D01*
X14701591Y-79495278D01*
X14694192Y-79494214D01*
X14680398Y-79491213D01*
X14631963Y-79476991D01*
X14631961Y-79476991D01*
X14581483Y-79476991D01*
X14567394Y-79475983D01*
X14560000Y-79474920D01*
X14552605Y-79475983D01*
X14538517Y-79476991D01*
X14488039Y-79476991D01*
X14488037Y-79476991D01*
X14488033Y-79476992D01*
X14439602Y-79491212D01*
X14425811Y-79494213D01*
X14418406Y-79495278D01*
X14411602Y-79498385D01*
X14398380Y-79503315D01*
X14349950Y-79517536D01*
X14349948Y-79517537D01*
X14307478Y-79544829D01*
X14295095Y-79551592D01*
X14288289Y-79554700D01*
X14288289Y-79554701D01*
X14282639Y-79559596D01*
X14271341Y-79568053D01*
X14228874Y-79595345D01*
X14224846Y-79599994D01*
X14195815Y-79633497D01*
X14185833Y-79643480D01*
X14180182Y-79648376D01*
X14180178Y-79648381D01*
X14176136Y-79654670D01*
X14167678Y-79665968D01*
X14134624Y-79704116D01*
X14113654Y-79750032D01*
X14106889Y-79762421D01*
X14102847Y-79768710D01*
X14102843Y-79768718D01*
X14100738Y-79775889D01*
X14095804Y-79789116D01*
X14074835Y-79835032D01*
X14067650Y-79885000D01*
X14064650Y-79898791D01*
X14062544Y-79905965D01*
X14062544Y-79913441D01*
X14061536Y-79927530D01*
X14054353Y-79977489D01*
X14054353Y-79977492D01*
X5852558Y-79977492D01*
X5854212Y-79932235D01*
X5824586Y-79662982D01*
X5756072Y-79400912D01*
X5650130Y-79151610D01*
X5509018Y-78920390D01*
X5494411Y-78902838D01*
X5335746Y-78712181D01*
X5134007Y-78531422D01*
X5134004Y-78531420D01*
X5134002Y-78531418D01*
X4925749Y-78393639D01*
X4908086Y-78381953D01*
X4662822Y-78266979D01*
X4431886Y-78197500D01*
X30204864Y-78197500D01*
X30223265Y-78301861D01*
X30223265Y-78301862D01*
X30223266Y-78301863D01*
X30276251Y-78393637D01*
X30276253Y-78393639D01*
X30355615Y-78460232D01*
X30357432Y-78461756D01*
X30362011Y-78463422D01*
X30371143Y-78466747D01*
X30374569Y-78468217D01*
X30375117Y-78468372D01*
X30375120Y-78468375D01*
X30375720Y-78468545D01*
X30379044Y-78469622D01*
X30457014Y-78498000D01*
X30457016Y-78498000D01*
X30471075Y-78498000D01*
X30475645Y-78498211D01*
X30482073Y-78498806D01*
X30482080Y-78498808D01*
X30488086Y-78498251D01*
X30488523Y-78498211D01*
X30493092Y-78498000D01*
X30562985Y-78498000D01*
X30562986Y-78498000D01*
X30575633Y-78493396D01*
X30584104Y-78491496D01*
X30583980Y-78491059D01*
X30592805Y-78488547D01*
X30592810Y-78488547D01*
X30600779Y-78484578D01*
X30605898Y-78482381D01*
X30627133Y-78474652D01*
X30667578Y-78459933D01*
X30728726Y-78457799D01*
X30779450Y-78492014D01*
X30799589Y-78540041D01*
X30814955Y-78656758D01*
X30814957Y-78656766D01*
X30875462Y-78802838D01*
X30875462Y-78802839D01*
X30952194Y-78902838D01*
X30971718Y-78928282D01*
X31097159Y-79024536D01*
X31097160Y-79024536D01*
X31097161Y-79024537D01*
X31243233Y-79085042D01*
X31243238Y-79085044D01*
X31360809Y-79100522D01*
X31399999Y-79105682D01*
X31400000Y-79105682D01*
X31400001Y-79105682D01*
X31431352Y-79101554D01*
X31556762Y-79085044D01*
X31702841Y-79024536D01*
X31828282Y-78928282D01*
X31924536Y-78802841D01*
X31985044Y-78656762D01*
X31992517Y-78600000D01*
X34794318Y-78600000D01*
X34814955Y-78756758D01*
X34814957Y-78756766D01*
X34875462Y-78902838D01*
X34875462Y-78902839D01*
X34968844Y-79024537D01*
X34971718Y-79028282D01*
X34971722Y-79028285D01*
X34971723Y-79028286D01*
X35001082Y-79050813D01*
X35097159Y-79124536D01*
X35097160Y-79124536D01*
X35097161Y-79124537D01*
X35243233Y-79185042D01*
X35243238Y-79185044D01*
X35360809Y-79200522D01*
X35399999Y-79205682D01*
X35400000Y-79205682D01*
X35400001Y-79205682D01*
X35431352Y-79201554D01*
X35556762Y-79185044D01*
X35702841Y-79124536D01*
X35828282Y-79028282D01*
X35924536Y-78902841D01*
X35985044Y-78756762D01*
X36005682Y-78600000D01*
X36001229Y-78566180D01*
X36012378Y-78506023D01*
X36056760Y-78463905D01*
X36117421Y-78455917D01*
X36133247Y-78460232D01*
X36137431Y-78461755D01*
X36137432Y-78461756D01*
X36141329Y-78463174D01*
X36151145Y-78466748D01*
X36154568Y-78468216D01*
X36155116Y-78468372D01*
X36155120Y-78468375D01*
X36155720Y-78468545D01*
X36159044Y-78469622D01*
X36237014Y-78498000D01*
X36237016Y-78498000D01*
X36251075Y-78498000D01*
X36255645Y-78498211D01*
X36262073Y-78498806D01*
X36262080Y-78498808D01*
X36268086Y-78498251D01*
X36268523Y-78498211D01*
X36273092Y-78498000D01*
X36342985Y-78498000D01*
X36342986Y-78498000D01*
X36355633Y-78493396D01*
X36364104Y-78491496D01*
X36363980Y-78491059D01*
X36372805Y-78488547D01*
X36372810Y-78488547D01*
X36380779Y-78484578D01*
X36385898Y-78482381D01*
X36442568Y-78461756D01*
X36456859Y-78449764D01*
X36466039Y-78443750D01*
X36472351Y-78438982D01*
X36472351Y-78438981D01*
X36472356Y-78438979D01*
X36478736Y-78431979D01*
X36483475Y-78427430D01*
X36523748Y-78393638D01*
X36535764Y-78372825D01*
X36546110Y-78358678D01*
X36547271Y-78356803D01*
X36547272Y-78356800D01*
X36547274Y-78356798D01*
X36549120Y-78352031D01*
X36555690Y-78338311D01*
X36576734Y-78301863D01*
X36581884Y-78272655D01*
X36587064Y-78254086D01*
X36587446Y-78253102D01*
X36588044Y-78240065D01*
X36588742Y-78233760D01*
X36595136Y-78197500D01*
X36588743Y-78161244D01*
X36588044Y-78154932D01*
X36587446Y-78141898D01*
X36587064Y-78140911D01*
X36581883Y-78122341D01*
X36576734Y-78093137D01*
X36576734Y-78093136D01*
X36576733Y-78093134D01*
X36555696Y-78056697D01*
X36549117Y-78042959D01*
X36548793Y-78042123D01*
X36547274Y-78038202D01*
X36547272Y-78038200D01*
X36546120Y-78036337D01*
X36535762Y-78022171D01*
X36531596Y-78014955D01*
X36523748Y-78001362D01*
X36492882Y-77975462D01*
X36483497Y-77967587D01*
X36478728Y-77963011D01*
X36472356Y-77956021D01*
X36466046Y-77951256D01*
X36456859Y-77945235D01*
X36442571Y-77933246D01*
X36442569Y-77933244D01*
X36442568Y-77933244D01*
X36442566Y-77933243D01*
X36442564Y-77933242D01*
X36385900Y-77912618D01*
X36380763Y-77910413D01*
X36372810Y-77906453D01*
X36363988Y-77903943D01*
X36364111Y-77903507D01*
X36355642Y-77901606D01*
X36342986Y-77897000D01*
X36273092Y-77897000D01*
X36268523Y-77896789D01*
X36262083Y-77896192D01*
X36262081Y-77896192D01*
X36262080Y-77896192D01*
X36262078Y-77896192D01*
X36255645Y-77896789D01*
X36251075Y-77897000D01*
X36237012Y-77897000D01*
X36159071Y-77925367D01*
X36155710Y-77926456D01*
X36154585Y-77926776D01*
X36151150Y-77928250D01*
X36137432Y-77933244D01*
X36137430Y-77933245D01*
X36056253Y-78001360D01*
X36003265Y-78093138D01*
X35998281Y-78121407D01*
X35969555Y-78175430D01*
X35914562Y-78202251D01*
X35854306Y-78191625D01*
X35830781Y-78174218D01*
X35828285Y-78171722D01*
X35828282Y-78171718D01*
X35828277Y-78171714D01*
X35828276Y-78171713D01*
X35757104Y-78117101D01*
X35702841Y-78075464D01*
X35702840Y-78075463D01*
X35702838Y-78075462D01*
X35556766Y-78014957D01*
X35556758Y-78014955D01*
X35400001Y-77994318D01*
X35399999Y-77994318D01*
X35243241Y-78014955D01*
X35243233Y-78014957D01*
X35097161Y-78075462D01*
X35097160Y-78075462D01*
X34971723Y-78171713D01*
X34971713Y-78171723D01*
X34875462Y-78297160D01*
X34875462Y-78297161D01*
X34814957Y-78443233D01*
X34814955Y-78443241D01*
X34794318Y-78599999D01*
X34794318Y-78600000D01*
X31992517Y-78600000D01*
X32005682Y-78500000D01*
X32005446Y-78498211D01*
X31998209Y-78443238D01*
X31985044Y-78343238D01*
X31965958Y-78297160D01*
X31924537Y-78197161D01*
X31924537Y-78197160D01*
X31828286Y-78071723D01*
X31828285Y-78071722D01*
X31828282Y-78071718D01*
X31828277Y-78071714D01*
X31828276Y-78071713D01*
X31702838Y-77975462D01*
X31556766Y-77914957D01*
X31556758Y-77914955D01*
X31400001Y-77894318D01*
X31399999Y-77894318D01*
X31243241Y-77914955D01*
X31243233Y-77914957D01*
X31097161Y-77975462D01*
X31097160Y-77975462D01*
X30971723Y-78071713D01*
X30971712Y-78071724D01*
X30955004Y-78093499D01*
X30904580Y-78128154D01*
X30843415Y-78126552D01*
X30794874Y-78089304D01*
X30790727Y-78082732D01*
X30775696Y-78056698D01*
X30769117Y-78042959D01*
X30768793Y-78042123D01*
X30767274Y-78038202D01*
X30767272Y-78038200D01*
X30766120Y-78036337D01*
X30755762Y-78022171D01*
X30751596Y-78014955D01*
X30743748Y-78001362D01*
X30712882Y-77975462D01*
X30703497Y-77967587D01*
X30698728Y-77963011D01*
X30692356Y-77956021D01*
X30686046Y-77951256D01*
X30676859Y-77945235D01*
X30662571Y-77933246D01*
X30662569Y-77933244D01*
X30662568Y-77933244D01*
X30662566Y-77933243D01*
X30662564Y-77933242D01*
X30605900Y-77912618D01*
X30600763Y-77910413D01*
X30592810Y-77906453D01*
X30583988Y-77903943D01*
X30584111Y-77903507D01*
X30575642Y-77901606D01*
X30562986Y-77897000D01*
X30493092Y-77897000D01*
X30488523Y-77896789D01*
X30482083Y-77896192D01*
X30482081Y-77896192D01*
X30482080Y-77896192D01*
X30482078Y-77896192D01*
X30475645Y-77896789D01*
X30471075Y-77897000D01*
X30457012Y-77897000D01*
X30379071Y-77925367D01*
X30375710Y-77926456D01*
X30374585Y-77926776D01*
X30371150Y-77928250D01*
X30357432Y-77933244D01*
X30357430Y-77933245D01*
X30276253Y-78001360D01*
X30223265Y-78093138D01*
X30204864Y-78197500D01*
X4431886Y-78197500D01*
X4403444Y-78188943D01*
X4403428Y-78188939D01*
X4135440Y-78149500D01*
X4135439Y-78149500D01*
X3932369Y-78149500D01*
X3932367Y-78149500D01*
X3729848Y-78164322D01*
X3465450Y-78223219D01*
X3465447Y-78223219D01*
X3465447Y-78223220D01*
X3421404Y-78240065D01*
X3212439Y-78319987D01*
X2976219Y-78452561D01*
X2761826Y-78618108D01*
X2573814Y-78813119D01*
X2416199Y-79033422D01*
X2292342Y-79274328D01*
X2204884Y-79530687D01*
X2204881Y-79530698D01*
X2155680Y-79797069D01*
X2145788Y-80067765D01*
X3632Y-80067765D01*
X552Y-80001142D01*
X500Y-79998864D01*
X500Y-75400000D01*
X3994318Y-75400000D01*
X4014955Y-75556758D01*
X4014957Y-75556766D01*
X4075462Y-75702838D01*
X4075462Y-75702839D01*
X4171713Y-75828276D01*
X4171718Y-75828282D01*
X4297159Y-75924536D01*
X4297160Y-75924536D01*
X4297161Y-75924537D01*
X4374959Y-75956762D01*
X4443238Y-75985044D01*
X4560809Y-76000522D01*
X4599999Y-76005682D01*
X4600000Y-76005682D01*
X4600001Y-76005682D01*
X4631352Y-76001554D01*
X4756762Y-75985044D01*
X4902841Y-75924536D01*
X4934817Y-75900000D01*
X30394318Y-75900000D01*
X30414955Y-76056758D01*
X30414957Y-76056766D01*
X30475462Y-76202838D01*
X30475462Y-76202839D01*
X30568844Y-76324537D01*
X30571718Y-76328282D01*
X30697159Y-76424536D01*
X30843238Y-76485044D01*
X30960809Y-76500522D01*
X30999999Y-76505682D01*
X31000000Y-76505682D01*
X31000001Y-76505682D01*
X31031352Y-76501554D01*
X31156762Y-76485044D01*
X31302841Y-76424536D01*
X31428282Y-76328282D01*
X31524536Y-76202841D01*
X31585044Y-76056762D01*
X31605682Y-75900000D01*
X31592517Y-75800000D01*
X32294318Y-75800000D01*
X32314955Y-75956758D01*
X32314957Y-75956766D01*
X32375462Y-76102838D01*
X32375462Y-76102839D01*
X32375464Y-76102841D01*
X32471718Y-76228282D01*
X32597159Y-76324536D01*
X32597160Y-76324536D01*
X32597161Y-76324537D01*
X32606212Y-76328286D01*
X32743238Y-76385044D01*
X32860809Y-76400522D01*
X32899999Y-76405682D01*
X32900000Y-76405682D01*
X32900001Y-76405682D01*
X32931352Y-76401554D01*
X33056762Y-76385044D01*
X33202841Y-76324536D01*
X33328282Y-76228282D01*
X33424536Y-76102841D01*
X33485044Y-75956762D01*
X33505682Y-75800000D01*
X33794318Y-75800000D01*
X33814955Y-75956758D01*
X33814957Y-75956766D01*
X33875462Y-76102838D01*
X33875462Y-76102839D01*
X33875464Y-76102841D01*
X33971718Y-76228282D01*
X34097159Y-76324536D01*
X34097160Y-76324536D01*
X34097161Y-76324537D01*
X34106212Y-76328286D01*
X34243238Y-76385044D01*
X34360809Y-76400522D01*
X34399999Y-76405682D01*
X34400000Y-76405682D01*
X34400001Y-76405682D01*
X34431352Y-76401554D01*
X34556762Y-76385044D01*
X34702841Y-76324536D01*
X34828282Y-76228282D01*
X34924536Y-76102841D01*
X34985044Y-75956762D01*
X34992517Y-75900000D01*
X35394318Y-75900000D01*
X35414955Y-76056758D01*
X35414957Y-76056766D01*
X35475462Y-76202838D01*
X35475462Y-76202839D01*
X35568844Y-76324537D01*
X35571718Y-76328282D01*
X35697159Y-76424536D01*
X35843238Y-76485044D01*
X35960809Y-76500522D01*
X35999999Y-76505682D01*
X36000000Y-76505682D01*
X36000001Y-76505682D01*
X36031352Y-76501554D01*
X36156762Y-76485044D01*
X36302841Y-76424536D01*
X36428282Y-76328282D01*
X36524536Y-76202841D01*
X36585044Y-76056762D01*
X36605682Y-75900000D01*
X36585044Y-75743238D01*
X36524537Y-75597161D01*
X36524537Y-75597160D01*
X36449984Y-75500000D01*
X54894785Y-75500000D01*
X54913603Y-75703083D01*
X54969418Y-75899250D01*
X55060327Y-76081821D01*
X55183236Y-76244579D01*
X55333959Y-76381981D01*
X55507363Y-76489348D01*
X55697544Y-76563024D01*
X55898024Y-76600500D01*
X56101976Y-76600500D01*
X56302456Y-76563024D01*
X56492637Y-76489348D01*
X56666041Y-76381981D01*
X56816764Y-76244579D01*
X56939673Y-76081821D01*
X57030582Y-75899250D01*
X57086397Y-75703083D01*
X57105215Y-75500000D01*
X57086397Y-75296917D01*
X57030582Y-75100750D01*
X56939673Y-74918179D01*
X56816764Y-74755421D01*
X56666041Y-74618019D01*
X56492637Y-74510652D01*
X56302456Y-74436976D01*
X56302455Y-74436975D01*
X56302453Y-74436975D01*
X56101976Y-74399500D01*
X55898024Y-74399500D01*
X55697546Y-74436975D01*
X55627632Y-74464059D01*
X55507363Y-74510652D01*
X55333959Y-74618019D01*
X55183237Y-74755420D01*
X55060328Y-74918177D01*
X55060323Y-74918186D01*
X54971205Y-75097161D01*
X54969418Y-75100750D01*
X54913603Y-75296917D01*
X54894785Y-75500000D01*
X36449984Y-75500000D01*
X36428286Y-75471723D01*
X36428285Y-75471722D01*
X36428282Y-75471718D01*
X36428277Y-75471714D01*
X36428276Y-75471713D01*
X36302838Y-75375462D01*
X36156766Y-75314957D01*
X36156758Y-75314955D01*
X36000001Y-75294318D01*
X35999999Y-75294318D01*
X35843241Y-75314955D01*
X35843233Y-75314957D01*
X35697161Y-75375462D01*
X35697160Y-75375462D01*
X35571723Y-75471713D01*
X35571713Y-75471723D01*
X35475462Y-75597160D01*
X35475462Y-75597161D01*
X35414957Y-75743233D01*
X35414955Y-75743241D01*
X35394318Y-75899999D01*
X35394318Y-75900000D01*
X34992517Y-75900000D01*
X35005682Y-75800000D01*
X34985044Y-75643238D01*
X34965958Y-75597160D01*
X34924537Y-75497161D01*
X34924537Y-75497160D01*
X34828286Y-75371723D01*
X34828285Y-75371722D01*
X34828282Y-75371718D01*
X34828277Y-75371714D01*
X34828276Y-75371713D01*
X34702838Y-75275462D01*
X34556766Y-75214957D01*
X34556758Y-75214955D01*
X34400001Y-75194318D01*
X34399999Y-75194318D01*
X34243241Y-75214955D01*
X34243233Y-75214957D01*
X34097161Y-75275462D01*
X34097160Y-75275462D01*
X33971723Y-75371713D01*
X33971713Y-75371723D01*
X33875462Y-75497160D01*
X33875462Y-75497161D01*
X33814957Y-75643233D01*
X33814955Y-75643241D01*
X33794318Y-75799999D01*
X33794318Y-75800000D01*
X33505682Y-75800000D01*
X33485044Y-75643238D01*
X33465958Y-75597160D01*
X33424537Y-75497161D01*
X33424537Y-75497160D01*
X33328286Y-75371723D01*
X33328285Y-75371722D01*
X33328282Y-75371718D01*
X33328277Y-75371714D01*
X33328276Y-75371713D01*
X33202838Y-75275462D01*
X33056766Y-75214957D01*
X33056758Y-75214955D01*
X32900001Y-75194318D01*
X32899999Y-75194318D01*
X32743241Y-75214955D01*
X32743233Y-75214957D01*
X32597161Y-75275462D01*
X32597160Y-75275462D01*
X32471723Y-75371713D01*
X32471713Y-75371723D01*
X32375462Y-75497160D01*
X32375462Y-75497161D01*
X32314957Y-75643233D01*
X32314955Y-75643241D01*
X32294318Y-75799999D01*
X32294318Y-75800000D01*
X31592517Y-75800000D01*
X31585044Y-75743238D01*
X31524537Y-75597161D01*
X31524537Y-75597160D01*
X31428286Y-75471723D01*
X31428285Y-75471722D01*
X31428282Y-75471718D01*
X31428277Y-75471714D01*
X31428276Y-75471713D01*
X31302838Y-75375462D01*
X31156766Y-75314957D01*
X31156758Y-75314955D01*
X31000001Y-75294318D01*
X30999999Y-75294318D01*
X30843241Y-75314955D01*
X30843233Y-75314957D01*
X30697161Y-75375462D01*
X30697160Y-75375462D01*
X30571723Y-75471713D01*
X30571713Y-75471723D01*
X30475462Y-75597160D01*
X30475462Y-75597161D01*
X30414957Y-75743233D01*
X30414955Y-75743241D01*
X30394318Y-75899999D01*
X30394318Y-75900000D01*
X4934817Y-75900000D01*
X5028282Y-75828282D01*
X5124536Y-75702841D01*
X5185044Y-75556762D01*
X5205682Y-75400000D01*
X5185044Y-75243238D01*
X5164781Y-75194318D01*
X5124537Y-75097161D01*
X5124537Y-75097160D01*
X5028286Y-74971723D01*
X5028285Y-74971722D01*
X5028282Y-74971718D01*
X5028277Y-74971714D01*
X5028276Y-74971713D01*
X4902838Y-74875462D01*
X4756766Y-74814957D01*
X4756758Y-74814955D01*
X4600001Y-74794318D01*
X4599999Y-74794318D01*
X4443241Y-74814955D01*
X4443233Y-74814957D01*
X4297161Y-74875462D01*
X4297160Y-74875462D01*
X4171723Y-74971713D01*
X4171713Y-74971723D01*
X4075462Y-75097160D01*
X4075462Y-75097161D01*
X4014957Y-75243233D01*
X4014955Y-75243241D01*
X3994318Y-75399999D01*
X3994318Y-75400000D01*
X500Y-75400000D01*
X500Y-72700000D01*
X7994318Y-72700000D01*
X8014955Y-72856758D01*
X8014957Y-72856766D01*
X8075462Y-73002838D01*
X8075462Y-73002839D01*
X8075464Y-73002841D01*
X8171718Y-73128282D01*
X8297159Y-73224536D01*
X8297160Y-73224536D01*
X8297161Y-73224537D01*
X8306212Y-73228286D01*
X8443238Y-73285044D01*
X8560809Y-73300522D01*
X8599999Y-73305682D01*
X8600000Y-73305682D01*
X8600001Y-73305682D01*
X8631352Y-73301554D01*
X8756762Y-73285044D01*
X8902841Y-73224536D01*
X9028282Y-73128282D01*
X9124536Y-73002841D01*
X9185044Y-72856762D01*
X9192517Y-72800000D01*
X38594318Y-72800000D01*
X38614955Y-72956758D01*
X38614957Y-72956766D01*
X38675462Y-73102838D01*
X38675462Y-73102839D01*
X38768844Y-73224537D01*
X38771718Y-73228282D01*
X38897159Y-73324536D01*
X39043238Y-73385044D01*
X39160809Y-73400522D01*
X39199999Y-73405682D01*
X39200000Y-73405682D01*
X39200001Y-73405682D01*
X39231352Y-73401554D01*
X39356762Y-73385044D01*
X39502841Y-73324536D01*
X39628282Y-73228282D01*
X39724536Y-73102841D01*
X39785044Y-72956762D01*
X39805682Y-72800000D01*
X39792517Y-72700000D01*
X41294318Y-72700000D01*
X41314955Y-72856758D01*
X41314957Y-72856766D01*
X41375462Y-73002838D01*
X41375462Y-73002839D01*
X41375464Y-73002841D01*
X41471718Y-73128282D01*
X41597159Y-73224536D01*
X41597160Y-73224536D01*
X41597161Y-73224537D01*
X41606212Y-73228286D01*
X41743238Y-73285044D01*
X41860809Y-73300522D01*
X41899999Y-73305682D01*
X41900000Y-73305682D01*
X41900001Y-73305682D01*
X41931352Y-73301554D01*
X42056762Y-73285044D01*
X42202841Y-73224536D01*
X42328282Y-73128282D01*
X42424536Y-73002841D01*
X42485044Y-72856762D01*
X42505682Y-72700000D01*
X42485044Y-72543238D01*
X42465958Y-72497160D01*
X42424537Y-72397161D01*
X42424537Y-72397160D01*
X42328286Y-72271723D01*
X42328285Y-72271722D01*
X42328282Y-72271718D01*
X42328277Y-72271714D01*
X42328276Y-72271713D01*
X42202838Y-72175462D01*
X42056766Y-72114957D01*
X42056758Y-72114955D01*
X41900001Y-72094318D01*
X41899999Y-72094318D01*
X41743241Y-72114955D01*
X41743233Y-72114957D01*
X41597161Y-72175462D01*
X41597160Y-72175462D01*
X41471723Y-72271713D01*
X41471713Y-72271723D01*
X41375462Y-72397160D01*
X41375462Y-72397161D01*
X41314957Y-72543233D01*
X41314955Y-72543241D01*
X41294318Y-72699999D01*
X41294318Y-72700000D01*
X39792517Y-72700000D01*
X39785044Y-72643238D01*
X39724537Y-72497161D01*
X39724537Y-72497160D01*
X39628286Y-72371723D01*
X39628285Y-72371722D01*
X39628282Y-72371718D01*
X39628277Y-72371714D01*
X39628276Y-72371713D01*
X39502838Y-72275462D01*
X39356766Y-72214957D01*
X39356758Y-72214955D01*
X39200001Y-72194318D01*
X39199999Y-72194318D01*
X39043241Y-72214955D01*
X39043233Y-72214957D01*
X38897161Y-72275462D01*
X38897160Y-72275462D01*
X38771723Y-72371713D01*
X38771713Y-72371723D01*
X38675462Y-72497160D01*
X38675462Y-72497161D01*
X38614957Y-72643233D01*
X38614955Y-72643241D01*
X38594318Y-72799999D01*
X38594318Y-72800000D01*
X9192517Y-72800000D01*
X9205682Y-72700000D01*
X9185044Y-72543238D01*
X9165958Y-72497160D01*
X9124537Y-72397161D01*
X9124537Y-72397160D01*
X9028286Y-72271723D01*
X9028285Y-72271722D01*
X9028282Y-72271718D01*
X9028277Y-72271714D01*
X9028276Y-72271713D01*
X8902838Y-72175462D01*
X8756766Y-72114957D01*
X8756758Y-72114955D01*
X8600001Y-72094318D01*
X8599999Y-72094318D01*
X8443241Y-72114955D01*
X8443233Y-72114957D01*
X8297161Y-72175462D01*
X8297160Y-72175462D01*
X8171723Y-72271713D01*
X8171713Y-72271723D01*
X8075462Y-72397160D01*
X8075462Y-72397161D01*
X8014957Y-72543233D01*
X8014955Y-72543241D01*
X7994318Y-72699999D01*
X7994318Y-72700000D01*
X500Y-72700000D01*
X500Y-70400000D01*
X17694318Y-70400000D01*
X17714955Y-70556758D01*
X17714957Y-70556766D01*
X17775462Y-70702838D01*
X17775462Y-70702839D01*
X17816842Y-70756766D01*
X17871718Y-70828282D01*
X17997159Y-70924536D01*
X17997160Y-70924536D01*
X17997161Y-70924537D01*
X18044533Y-70944159D01*
X18143238Y-70985044D01*
X18260809Y-71000522D01*
X18299999Y-71005682D01*
X18300000Y-71005682D01*
X18300001Y-71005682D01*
X18331352Y-71001554D01*
X18456762Y-70985044D01*
X18602841Y-70924536D01*
X18728282Y-70828282D01*
X18771460Y-70772010D01*
X18821882Y-70737357D01*
X18883046Y-70738958D01*
X18928539Y-70772010D01*
X18971718Y-70828282D01*
X19097159Y-70924536D01*
X19097160Y-70924536D01*
X19097161Y-70924537D01*
X19144533Y-70944159D01*
X19243238Y-70985044D01*
X19360809Y-71000522D01*
X19399999Y-71005682D01*
X19400000Y-71005682D01*
X19400001Y-71005682D01*
X19431352Y-71001554D01*
X19556762Y-70985044D01*
X19702841Y-70924536D01*
X19828282Y-70828282D01*
X19879120Y-70762027D01*
X19929541Y-70727373D01*
X19990705Y-70728974D01*
X20036202Y-70762029D01*
X20087042Y-70828286D01*
X20102096Y-70847904D01*
X20227537Y-70944158D01*
X20227538Y-70944158D01*
X20227539Y-70944159D01*
X20326244Y-70985044D01*
X20373616Y-71004666D01*
X20491187Y-71020144D01*
X20530377Y-71025304D01*
X20530378Y-71025304D01*
X20530379Y-71025304D01*
X20561730Y-71021176D01*
X20687140Y-71004666D01*
X20833219Y-70944158D01*
X20958660Y-70847904D01*
X21054914Y-70722463D01*
X21105640Y-70600000D01*
X29094318Y-70600000D01*
X29114955Y-70756758D01*
X29114957Y-70756766D01*
X29175462Y-70902838D01*
X29175462Y-70902839D01*
X29254376Y-71005682D01*
X29271718Y-71028282D01*
X29397159Y-71124536D01*
X29431421Y-71138727D01*
X29477945Y-71178463D01*
X29492229Y-71237957D01*
X29468815Y-71294485D01*
X29453802Y-71308733D01*
X29371719Y-71371717D01*
X29371713Y-71371723D01*
X29275462Y-71497160D01*
X29275462Y-71497161D01*
X29214957Y-71643233D01*
X29214955Y-71643241D01*
X29194318Y-71799999D01*
X29194318Y-71800000D01*
X29214955Y-71956758D01*
X29214957Y-71956766D01*
X29275462Y-72102838D01*
X29275462Y-72102839D01*
X29361493Y-72214957D01*
X29371718Y-72228282D01*
X29497159Y-72324536D01*
X29643238Y-72385044D01*
X29760809Y-72400522D01*
X29799999Y-72405682D01*
X29800000Y-72405682D01*
X29800001Y-72405682D01*
X29831352Y-72401554D01*
X29956762Y-72385044D01*
X30102841Y-72324536D01*
X30228282Y-72228282D01*
X30324536Y-72102841D01*
X30385044Y-71956762D01*
X30405682Y-71800000D01*
X30385044Y-71643238D01*
X30324537Y-71497161D01*
X30324537Y-71497160D01*
X30228286Y-71371723D01*
X30228285Y-71371722D01*
X30228282Y-71371718D01*
X30228277Y-71371714D01*
X30228276Y-71371713D01*
X30146198Y-71308733D01*
X30102841Y-71275464D01*
X30068579Y-71261272D01*
X30022054Y-71221535D01*
X30007770Y-71162041D01*
X30031185Y-71105513D01*
X30046186Y-71091275D01*
X30128282Y-71028282D01*
X30224536Y-70902841D01*
X30285044Y-70756762D01*
X30305682Y-70600000D01*
X30285044Y-70443238D01*
X30224537Y-70297161D01*
X30224537Y-70297160D01*
X30128286Y-70171723D01*
X30128285Y-70171722D01*
X30128282Y-70171718D01*
X30128277Y-70171714D01*
X30128276Y-70171713D01*
X30031116Y-70097160D01*
X30002841Y-70075464D01*
X30002840Y-70075463D01*
X30002838Y-70075462D01*
X29856766Y-70014957D01*
X29856758Y-70014955D01*
X29700001Y-69994318D01*
X29699999Y-69994318D01*
X29543241Y-70014955D01*
X29543233Y-70014957D01*
X29397161Y-70075462D01*
X29397160Y-70075462D01*
X29271723Y-70171713D01*
X29271713Y-70171723D01*
X29175462Y-70297160D01*
X29175462Y-70297161D01*
X29114957Y-70443233D01*
X29114955Y-70443241D01*
X29094318Y-70599999D01*
X29094318Y-70600000D01*
X21105640Y-70600000D01*
X21115422Y-70576384D01*
X21136060Y-70419622D01*
X21115422Y-70262860D01*
X21054915Y-70116783D01*
X21054915Y-70116782D01*
X20958664Y-69991345D01*
X20958662Y-69991343D01*
X20958660Y-69991340D01*
X20958655Y-69991336D01*
X20958654Y-69991335D01*
X20833216Y-69895084D01*
X20687144Y-69834579D01*
X20687136Y-69834577D01*
X20530379Y-69813940D01*
X20530377Y-69813940D01*
X20373619Y-69834577D01*
X20373611Y-69834579D01*
X20227539Y-69895084D01*
X20227538Y-69895084D01*
X20102101Y-69991335D01*
X20102093Y-69991343D01*
X20051257Y-70057593D01*
X20000832Y-70092248D01*
X19939668Y-70090645D01*
X19894174Y-70057591D01*
X19871457Y-70027986D01*
X19828282Y-69971718D01*
X19828277Y-69971714D01*
X19828276Y-69971713D01*
X19702838Y-69875462D01*
X19556766Y-69814957D01*
X19556758Y-69814955D01*
X19400001Y-69794318D01*
X19399999Y-69794318D01*
X19243241Y-69814955D01*
X19243233Y-69814957D01*
X19097161Y-69875462D01*
X19097160Y-69875462D01*
X18971723Y-69971713D01*
X18971713Y-69971723D01*
X18928542Y-70027986D01*
X18878118Y-70062642D01*
X18816953Y-70061041D01*
X18771458Y-70027986D01*
X18728286Y-69971723D01*
X18728285Y-69971722D01*
X18728282Y-69971718D01*
X18728277Y-69971714D01*
X18728276Y-69971713D01*
X18602838Y-69875462D01*
X18456766Y-69814957D01*
X18456758Y-69814955D01*
X18300001Y-69794318D01*
X18299999Y-69794318D01*
X18143241Y-69814955D01*
X18143233Y-69814957D01*
X17997161Y-69875462D01*
X17997160Y-69875462D01*
X17871723Y-69971713D01*
X17871713Y-69971723D01*
X17775462Y-70097160D01*
X17775462Y-70097161D01*
X17714957Y-70243233D01*
X17714955Y-70243241D01*
X17694318Y-70399999D01*
X17694318Y-70400000D01*
X500Y-70400000D01*
X500Y-69100000D01*
X29094318Y-69100000D01*
X29114955Y-69256758D01*
X29114957Y-69256766D01*
X29175462Y-69402838D01*
X29175462Y-69402839D01*
X29175464Y-69402841D01*
X29271718Y-69528282D01*
X29397159Y-69624536D01*
X29543238Y-69685044D01*
X29660809Y-69700522D01*
X29699999Y-69705682D01*
X29700000Y-69705682D01*
X29700001Y-69705682D01*
X29731352Y-69701554D01*
X29856762Y-69685044D01*
X30002841Y-69624536D01*
X30128282Y-69528282D01*
X30224536Y-69402841D01*
X30285044Y-69256762D01*
X30305682Y-69100000D01*
X30285044Y-68943238D01*
X30224537Y-68797161D01*
X30224537Y-68797160D01*
X30128286Y-68671723D01*
X30128285Y-68671722D01*
X30128282Y-68671718D01*
X30128277Y-68671714D01*
X30128276Y-68671713D01*
X30002838Y-68575462D01*
X29856766Y-68514957D01*
X29856758Y-68514955D01*
X29700001Y-68494318D01*
X29699999Y-68494318D01*
X29543241Y-68514955D01*
X29543233Y-68514957D01*
X29397161Y-68575462D01*
X29397160Y-68575462D01*
X29271723Y-68671713D01*
X29271713Y-68671723D01*
X29175462Y-68797160D01*
X29175462Y-68797161D01*
X29114957Y-68943233D01*
X29114955Y-68943241D01*
X29094318Y-69099999D01*
X29094318Y-69100000D01*
X500Y-69100000D01*
X500Y-67700000D01*
X14494318Y-67700000D01*
X14514955Y-67856758D01*
X14514957Y-67856766D01*
X14575462Y-68002838D01*
X14575462Y-68002839D01*
X14575464Y-68002841D01*
X14671718Y-68128282D01*
X14797159Y-68224536D01*
X14943238Y-68285044D01*
X15060809Y-68300522D01*
X15099999Y-68305682D01*
X15100000Y-68305682D01*
X15100001Y-68305682D01*
X15131352Y-68301554D01*
X15256762Y-68285044D01*
X15402841Y-68224536D01*
X15528282Y-68128282D01*
X15624536Y-68002841D01*
X15685044Y-67856762D01*
X15705682Y-67700000D01*
X16694318Y-67700000D01*
X16714955Y-67856758D01*
X16714957Y-67856766D01*
X16775462Y-68002838D01*
X16775462Y-68002839D01*
X16775464Y-68002841D01*
X16871718Y-68128282D01*
X16997159Y-68224536D01*
X17143238Y-68285044D01*
X17260809Y-68300522D01*
X17299999Y-68305682D01*
X17300000Y-68305682D01*
X17300001Y-68305682D01*
X17331352Y-68301554D01*
X17456762Y-68285044D01*
X17602841Y-68224536D01*
X17728282Y-68128282D01*
X17824536Y-68002841D01*
X17885044Y-67856762D01*
X17905682Y-67700000D01*
X17902457Y-67675507D01*
X17885044Y-67543241D01*
X17885044Y-67543238D01*
X17824537Y-67397161D01*
X17824537Y-67397160D01*
X17728286Y-67271723D01*
X17728285Y-67271722D01*
X17728282Y-67271718D01*
X17728277Y-67271714D01*
X17728276Y-67271713D01*
X17602838Y-67175462D01*
X17456766Y-67114957D01*
X17456758Y-67114955D01*
X17300001Y-67094318D01*
X17299999Y-67094318D01*
X17143241Y-67114955D01*
X17143233Y-67114957D01*
X16997161Y-67175462D01*
X16997160Y-67175462D01*
X16871723Y-67271713D01*
X16871713Y-67271723D01*
X16775462Y-67397160D01*
X16775462Y-67397161D01*
X16714957Y-67543233D01*
X16714955Y-67543241D01*
X16694318Y-67699999D01*
X16694318Y-67700000D01*
X15705682Y-67700000D01*
X15702457Y-67675507D01*
X15685044Y-67543241D01*
X15685044Y-67543238D01*
X15624537Y-67397161D01*
X15624537Y-67397160D01*
X15528286Y-67271723D01*
X15528285Y-67271722D01*
X15528282Y-67271718D01*
X15528277Y-67271714D01*
X15528276Y-67271713D01*
X15402838Y-67175462D01*
X15256766Y-67114957D01*
X15256758Y-67114955D01*
X15100001Y-67094318D01*
X15099999Y-67094318D01*
X14943241Y-67114955D01*
X14943233Y-67114957D01*
X14797161Y-67175462D01*
X14797160Y-67175462D01*
X14671723Y-67271713D01*
X14671713Y-67271723D01*
X14575462Y-67397160D01*
X14575462Y-67397161D01*
X14514957Y-67543233D01*
X14514955Y-67543241D01*
X14494318Y-67699999D01*
X14494318Y-67700000D01*
X500Y-67700000D01*
X500Y-67675507D01*
X15000Y-67630879D01*
X15000Y-65000000D01*
X42644750Y-65000000D01*
X42663669Y-65143708D01*
X42663670Y-65143709D01*
X42719139Y-65277625D01*
X42807379Y-65392621D01*
X42922375Y-65480861D01*
X43056291Y-65536330D01*
X43200000Y-65555250D01*
X43343709Y-65536330D01*
X43477625Y-65480861D01*
X43592621Y-65392621D01*
X43680861Y-65277625D01*
X43736330Y-65143709D01*
X43755250Y-65000000D01*
X43736330Y-64856291D01*
X43680861Y-64722375D01*
X43671571Y-64710269D01*
X43651146Y-64652594D01*
X43668522Y-64593928D01*
X43671565Y-64589739D01*
X43680861Y-64577625D01*
X43736330Y-64443709D01*
X43755250Y-64300000D01*
X43736330Y-64156291D01*
X43680861Y-64022375D01*
X43671571Y-64010269D01*
X43651146Y-63952594D01*
X43668522Y-63893928D01*
X43671565Y-63889739D01*
X43680861Y-63877625D01*
X43736330Y-63743709D01*
X43755250Y-63600000D01*
X43751583Y-63572150D01*
X43736330Y-63456291D01*
X43680861Y-63322375D01*
X43671571Y-63310269D01*
X43651146Y-63252594D01*
X43668522Y-63193928D01*
X43671565Y-63189739D01*
X43680861Y-63177625D01*
X43736330Y-63043709D01*
X43755250Y-62900000D01*
X43740115Y-62785044D01*
X43736330Y-62756291D01*
X43680861Y-62622375D01*
X43671571Y-62610269D01*
X43651146Y-62552594D01*
X43668522Y-62493928D01*
X43671565Y-62489739D01*
X43680861Y-62477625D01*
X43736330Y-62343709D01*
X43755250Y-62200000D01*
X43742341Y-62101952D01*
X43736330Y-62056291D01*
X43680861Y-61922375D01*
X43671571Y-61910269D01*
X43651146Y-61852594D01*
X43668522Y-61793928D01*
X43671565Y-61789739D01*
X43680861Y-61777625D01*
X43736330Y-61643709D01*
X43755250Y-61500000D01*
X43752304Y-61477627D01*
X43736330Y-61356291D01*
X43680861Y-61222375D01*
X43671571Y-61210269D01*
X43651146Y-61152594D01*
X43668522Y-61093928D01*
X43671565Y-61089739D01*
X43680861Y-61077625D01*
X43736330Y-60943709D01*
X43755250Y-60800000D01*
X43752730Y-60780862D01*
X43742084Y-60700000D01*
X53344750Y-60700000D01*
X53363669Y-60843708D01*
X53363670Y-60843709D01*
X53405090Y-60943709D01*
X53419139Y-60977625D01*
X53507379Y-61092621D01*
X53622375Y-61180861D01*
X53756291Y-61236330D01*
X53900000Y-61255250D01*
X54043709Y-61236330D01*
X54177625Y-61180861D01*
X54189730Y-61171571D01*
X54247406Y-61151146D01*
X54306072Y-61168522D01*
X54310260Y-61171565D01*
X54322375Y-61180861D01*
X54456291Y-61236330D01*
X54600000Y-61255250D01*
X54743709Y-61236330D01*
X54877625Y-61180861D01*
X54889730Y-61171571D01*
X54947406Y-61151146D01*
X55006072Y-61168522D01*
X55010260Y-61171565D01*
X55022375Y-61180861D01*
X55156291Y-61236330D01*
X55175860Y-61238906D01*
X55231086Y-61265246D01*
X55260282Y-61319016D01*
X55261093Y-61324136D01*
X55263670Y-61343709D01*
X55288548Y-61403772D01*
X55319139Y-61477625D01*
X55319141Y-61477627D01*
X55328431Y-61489735D01*
X55348853Y-61547412D01*
X55331473Y-61606077D01*
X55328431Y-61610265D01*
X55319139Y-61622375D01*
X55319137Y-61622378D01*
X55263670Y-61756290D01*
X55263669Y-61756291D01*
X55244750Y-61899999D01*
X55244750Y-61900000D01*
X55263669Y-62043708D01*
X55263670Y-62043709D01*
X55306539Y-62147207D01*
X55319139Y-62177625D01*
X55407379Y-62292621D01*
X55522375Y-62380861D01*
X55656291Y-62436330D01*
X55800000Y-62455250D01*
X55943709Y-62436330D01*
X56077625Y-62380861D01*
X56192621Y-62292621D01*
X56280861Y-62177625D01*
X56336330Y-62043709D01*
X56355250Y-61900000D01*
X56336330Y-61756291D01*
X56280861Y-61622375D01*
X56271571Y-61610269D01*
X56251146Y-61552594D01*
X56268522Y-61493928D01*
X56271565Y-61489739D01*
X56280861Y-61477625D01*
X56336330Y-61343709D01*
X56355250Y-61200000D01*
X56352730Y-61180862D01*
X56336330Y-61056291D01*
X56280861Y-60922375D01*
X56192621Y-60807379D01*
X56077625Y-60719139D01*
X56077621Y-60719137D01*
X55943709Y-60663670D01*
X55924136Y-60661093D01*
X55868911Y-60634751D01*
X55839717Y-60580980D01*
X55838906Y-60575860D01*
X55836392Y-60556766D01*
X55836330Y-60556291D01*
X55780861Y-60422375D01*
X55692621Y-60307379D01*
X55577625Y-60219139D01*
X55577621Y-60219137D01*
X55443709Y-60163670D01*
X55443708Y-60163669D01*
X55300000Y-60144750D01*
X55156291Y-60163669D01*
X55156290Y-60163670D01*
X55022378Y-60219137D01*
X55022375Y-60219139D01*
X55010265Y-60228431D01*
X54952588Y-60248853D01*
X54893923Y-60231473D01*
X54889735Y-60228431D01*
X54881842Y-60222375D01*
X54877625Y-60219139D01*
X54877622Y-60219137D01*
X54877621Y-60219137D01*
X54743709Y-60163670D01*
X54743708Y-60163669D01*
X54600000Y-60144750D01*
X54456291Y-60163669D01*
X54456290Y-60163670D01*
X54322378Y-60219137D01*
X54322375Y-60219139D01*
X54310265Y-60228431D01*
X54252588Y-60248853D01*
X54193923Y-60231473D01*
X54189735Y-60228431D01*
X54181842Y-60222375D01*
X54177625Y-60219139D01*
X54177622Y-60219137D01*
X54177621Y-60219137D01*
X54043709Y-60163670D01*
X54043708Y-60163669D01*
X53900000Y-60144750D01*
X53756291Y-60163669D01*
X53756290Y-60163670D01*
X53622378Y-60219137D01*
X53622374Y-60219139D01*
X53507381Y-60307377D01*
X53507377Y-60307381D01*
X53419139Y-60422374D01*
X53419137Y-60422378D01*
X53363670Y-60556290D01*
X53363669Y-60556291D01*
X53344750Y-60699999D01*
X53344750Y-60700000D01*
X43742084Y-60700000D01*
X43736330Y-60656291D01*
X43680861Y-60522375D01*
X43592621Y-60407379D01*
X43477625Y-60319139D01*
X43477621Y-60319137D01*
X43343709Y-60263670D01*
X43343708Y-60263669D01*
X43200000Y-60244750D01*
X43056291Y-60263669D01*
X43056290Y-60263670D01*
X42922378Y-60319137D01*
X42922374Y-60319139D01*
X42807381Y-60407377D01*
X42807377Y-60407381D01*
X42719139Y-60522374D01*
X42719137Y-60522378D01*
X42663670Y-60656290D01*
X42663669Y-60656291D01*
X42644750Y-60799999D01*
X42644750Y-60800000D01*
X42663669Y-60943708D01*
X42663670Y-60943709D01*
X42689798Y-61006790D01*
X42719139Y-61077625D01*
X42719141Y-61077627D01*
X42728431Y-61089735D01*
X42748853Y-61147412D01*
X42731473Y-61206077D01*
X42728431Y-61210265D01*
X42719139Y-61222375D01*
X42719137Y-61222378D01*
X42663670Y-61356290D01*
X42663669Y-61356291D01*
X42644750Y-61499999D01*
X42644750Y-61500000D01*
X42663669Y-61643708D01*
X42663670Y-61643709D01*
X42704895Y-61743238D01*
X42719139Y-61777625D01*
X42719141Y-61777627D01*
X42728431Y-61789735D01*
X42748853Y-61847412D01*
X42731473Y-61906077D01*
X42728431Y-61910265D01*
X42719139Y-61922375D01*
X42719137Y-61922378D01*
X42663670Y-62056290D01*
X42663669Y-62056291D01*
X42644750Y-62199999D01*
X42644750Y-62200000D01*
X42663669Y-62343708D01*
X42663670Y-62343709D01*
X42719139Y-62477625D01*
X42719141Y-62477627D01*
X42728431Y-62489735D01*
X42748853Y-62547412D01*
X42731473Y-62606077D01*
X42728431Y-62610265D01*
X42719139Y-62622375D01*
X42719137Y-62622378D01*
X42663670Y-62756290D01*
X42663669Y-62756291D01*
X42644750Y-62899999D01*
X42644750Y-62900000D01*
X42663669Y-63043708D01*
X42663670Y-63043709D01*
X42693180Y-63114955D01*
X42719139Y-63177625D01*
X42719141Y-63177627D01*
X42728431Y-63189735D01*
X42748853Y-63247412D01*
X42731473Y-63306077D01*
X42728431Y-63310265D01*
X42719139Y-63322375D01*
X42719137Y-63322378D01*
X42663670Y-63456290D01*
X42663669Y-63456291D01*
X42644750Y-63599999D01*
X42644750Y-63600000D01*
X42663669Y-63743708D01*
X42663670Y-63743709D01*
X42710495Y-63856758D01*
X42719139Y-63877625D01*
X42719141Y-63877627D01*
X42728431Y-63889735D01*
X42748853Y-63947412D01*
X42731473Y-64006077D01*
X42728431Y-64010265D01*
X42719139Y-64022375D01*
X42719137Y-64022378D01*
X42663670Y-64156290D01*
X42663669Y-64156291D01*
X42644750Y-64299999D01*
X42644750Y-64300000D01*
X42663669Y-64443708D01*
X42663670Y-64443709D01*
X42719139Y-64577625D01*
X42719141Y-64577627D01*
X42728431Y-64589735D01*
X42748853Y-64647412D01*
X42731473Y-64706077D01*
X42728431Y-64710265D01*
X42719139Y-64722375D01*
X42719137Y-64722378D01*
X42663670Y-64856290D01*
X42663669Y-64856291D01*
X42644750Y-64999999D01*
X42644750Y-65000000D01*
X15000Y-65000000D01*
X15000Y-63304274D01*
X5774500Y-63304274D01*
X5777353Y-63334694D01*
X5777355Y-63334703D01*
X5822207Y-63462883D01*
X5902845Y-63572144D01*
X5902847Y-63572146D01*
X5902850Y-63572150D01*
X5902853Y-63572152D01*
X5902855Y-63572154D01*
X6012116Y-63652792D01*
X6012117Y-63652792D01*
X6012118Y-63652793D01*
X6140301Y-63697646D01*
X6170725Y-63700499D01*
X6170727Y-63700500D01*
X6170734Y-63700500D01*
X7529273Y-63700500D01*
X7529273Y-63700499D01*
X7534595Y-63700000D01*
X25994318Y-63700000D01*
X26014955Y-63856758D01*
X26014957Y-63856766D01*
X26075462Y-64002838D01*
X26075462Y-64002839D01*
X26090455Y-64022378D01*
X26171718Y-64128282D01*
X26297159Y-64224536D01*
X26443238Y-64285044D01*
X26556833Y-64299999D01*
X26599999Y-64305682D01*
X26600000Y-64305682D01*
X26600001Y-64305682D01*
X26643167Y-64299999D01*
X26756762Y-64285044D01*
X26902841Y-64224536D01*
X27028282Y-64128282D01*
X27124536Y-64002841D01*
X27185044Y-63856762D01*
X27205682Y-63700000D01*
X27185044Y-63543238D01*
X27151760Y-63462883D01*
X27124537Y-63397161D01*
X27124537Y-63397160D01*
X27028286Y-63271723D01*
X27028285Y-63271722D01*
X27028282Y-63271718D01*
X27028277Y-63271714D01*
X27028276Y-63271713D01*
X26902838Y-63175462D01*
X26756766Y-63114957D01*
X26756758Y-63114955D01*
X26600001Y-63094318D01*
X26599999Y-63094318D01*
X26443241Y-63114955D01*
X26443233Y-63114957D01*
X26297161Y-63175462D01*
X26297160Y-63175462D01*
X26171723Y-63271713D01*
X26171713Y-63271723D01*
X26075462Y-63397160D01*
X26075462Y-63397161D01*
X26014957Y-63543233D01*
X26014955Y-63543241D01*
X25994318Y-63699999D01*
X25994318Y-63700000D01*
X7534595Y-63700000D01*
X7559699Y-63697646D01*
X7687882Y-63652793D01*
X7797150Y-63572150D01*
X7877793Y-63462882D01*
X7922646Y-63334699D01*
X7925499Y-63304273D01*
X7925500Y-63304273D01*
X7925500Y-63293569D01*
X7944407Y-63235378D01*
X7993907Y-63199414D01*
X8055093Y-63199414D01*
X8084763Y-63215024D01*
X8097159Y-63224536D01*
X8097162Y-63224537D01*
X8097163Y-63224538D01*
X8211054Y-63271713D01*
X8243238Y-63285044D01*
X8360809Y-63300522D01*
X8399999Y-63305682D01*
X8400000Y-63305682D01*
X8400001Y-63305682D01*
X8431352Y-63301554D01*
X8556762Y-63285044D01*
X8702841Y-63224536D01*
X8828282Y-63128282D01*
X8924536Y-63002841D01*
X8985044Y-62856762D01*
X9005682Y-62700000D01*
X8985044Y-62543238D01*
X8965367Y-62495734D01*
X8924537Y-62397161D01*
X8924536Y-62397160D01*
X8924536Y-62397159D01*
X8896227Y-62360266D01*
X8875804Y-62302592D01*
X8893181Y-62243926D01*
X8896228Y-62239732D01*
X8924536Y-62202841D01*
X8925713Y-62200000D01*
X32994318Y-62200000D01*
X33014955Y-62356758D01*
X33014957Y-62356766D01*
X33075462Y-62502838D01*
X33075462Y-62502839D01*
X33171713Y-62628276D01*
X33171718Y-62628282D01*
X33297159Y-62724536D01*
X33443238Y-62785044D01*
X33560809Y-62800522D01*
X33599999Y-62805682D01*
X33600000Y-62805682D01*
X33600001Y-62805682D01*
X33631352Y-62801554D01*
X33756762Y-62785044D01*
X33902841Y-62724536D01*
X34028282Y-62628282D01*
X34124536Y-62502841D01*
X34185044Y-62356762D01*
X34205682Y-62200000D01*
X34185044Y-62043238D01*
X34125713Y-61900000D01*
X34124537Y-61897161D01*
X34124537Y-61897160D01*
X34028286Y-61771723D01*
X34028285Y-61771722D01*
X34028282Y-61771718D01*
X34028277Y-61771714D01*
X34028276Y-61771713D01*
X33957104Y-61717101D01*
X33902841Y-61675464D01*
X33902840Y-61675463D01*
X33902838Y-61675462D01*
X33756766Y-61614957D01*
X33756758Y-61614955D01*
X33600001Y-61594318D01*
X33599999Y-61594318D01*
X33443241Y-61614955D01*
X33443233Y-61614957D01*
X33297161Y-61675462D01*
X33297160Y-61675462D01*
X33171723Y-61771713D01*
X33171713Y-61771723D01*
X33075462Y-61897160D01*
X33075462Y-61897161D01*
X33014957Y-62043233D01*
X33014955Y-62043241D01*
X32994318Y-62199999D01*
X32994318Y-62200000D01*
X8925713Y-62200000D01*
X8985044Y-62056762D01*
X9005682Y-61900000D01*
X8985044Y-61743238D01*
X8943817Y-61643708D01*
X8924537Y-61597161D01*
X8924537Y-61597160D01*
X8828286Y-61471723D01*
X8828285Y-61471722D01*
X8828282Y-61471718D01*
X8828277Y-61471714D01*
X8828276Y-61471713D01*
X8738517Y-61402839D01*
X8702841Y-61375464D01*
X8702840Y-61375463D01*
X8702838Y-61375462D01*
X8556766Y-61314957D01*
X8556758Y-61314955D01*
X8400001Y-61294318D01*
X8399999Y-61294318D01*
X8243241Y-61314955D01*
X8243238Y-61314955D01*
X8243238Y-61314956D01*
X8221076Y-61324136D01*
X8097160Y-61375463D01*
X8097157Y-61375465D01*
X8060267Y-61403772D01*
X8002591Y-61424196D01*
X7943925Y-61406818D01*
X7939733Y-61403772D01*
X7902842Y-61375465D01*
X7902841Y-61375464D01*
X7902836Y-61375462D01*
X7856551Y-61356290D01*
X7756762Y-61314956D01*
X7756759Y-61314955D01*
X7756758Y-61314955D01*
X7600001Y-61294318D01*
X7599999Y-61294318D01*
X7443241Y-61314955D01*
X7443238Y-61314955D01*
X7443238Y-61314956D01*
X7421076Y-61324136D01*
X7297160Y-61375463D01*
X7297157Y-61375465D01*
X7260267Y-61403772D01*
X7202591Y-61424196D01*
X7143925Y-61406818D01*
X7139733Y-61403772D01*
X7102842Y-61375465D01*
X7102841Y-61375464D01*
X7102836Y-61375462D01*
X7056551Y-61356290D01*
X6956762Y-61314956D01*
X6956759Y-61314955D01*
X6956758Y-61314955D01*
X6800001Y-61294318D01*
X6799999Y-61294318D01*
X6643241Y-61314955D01*
X6643233Y-61314957D01*
X6497161Y-61375462D01*
X6497160Y-61375462D01*
X6371723Y-61471713D01*
X6371713Y-61471723D01*
X6275462Y-61597160D01*
X6275462Y-61597161D01*
X6214957Y-61743233D01*
X6214955Y-61743241D01*
X6194318Y-61899999D01*
X6194318Y-61900000D01*
X6206902Y-61995586D01*
X6195752Y-62055747D01*
X6151370Y-62097864D01*
X6141447Y-62101952D01*
X6012116Y-62147207D01*
X5902855Y-62227845D01*
X5902845Y-62227855D01*
X5822207Y-62337116D01*
X5777355Y-62465296D01*
X5777353Y-62465305D01*
X5774500Y-62495725D01*
X5774500Y-63304274D01*
X15000Y-63304274D01*
X15000Y-61150500D01*
X3844750Y-61150500D01*
X3863669Y-61294208D01*
X3863670Y-61294209D01*
X3917511Y-61424196D01*
X3919139Y-61428125D01*
X4007379Y-61543121D01*
X4122375Y-61631361D01*
X4256291Y-61686830D01*
X4400000Y-61705750D01*
X4543709Y-61686830D01*
X4677625Y-61631361D01*
X4792621Y-61543121D01*
X4880861Y-61428125D01*
X4936330Y-61294209D01*
X4955250Y-61150500D01*
X4954843Y-61147412D01*
X4948601Y-61100000D01*
X27294318Y-61100000D01*
X27314955Y-61256758D01*
X27314957Y-61256766D01*
X27375462Y-61402838D01*
X27375462Y-61402839D01*
X27471713Y-61528276D01*
X27471718Y-61528282D01*
X27597159Y-61624536D01*
X27597160Y-61624536D01*
X27597161Y-61624537D01*
X27720105Y-61675462D01*
X27743238Y-61685044D01*
X27860809Y-61700522D01*
X27899999Y-61705682D01*
X27900000Y-61705682D01*
X27900001Y-61705682D01*
X27931352Y-61701554D01*
X28056762Y-61685044D01*
X28202841Y-61624536D01*
X28239733Y-61596227D01*
X28297408Y-61575804D01*
X28356074Y-61593181D01*
X28360257Y-61596220D01*
X28397159Y-61624536D01*
X28397160Y-61624536D01*
X28397161Y-61624537D01*
X28520105Y-61675462D01*
X28543238Y-61685044D01*
X28660809Y-61700522D01*
X28699999Y-61705682D01*
X28700000Y-61705682D01*
X28700001Y-61705682D01*
X28731352Y-61701554D01*
X28856762Y-61685044D01*
X29002841Y-61624536D01*
X29128282Y-61528282D01*
X29224536Y-61402841D01*
X29285044Y-61256762D01*
X29305682Y-61100000D01*
X29285044Y-60943238D01*
X29277297Y-60924536D01*
X29224537Y-60797161D01*
X29224536Y-60797160D01*
X29224536Y-60797159D01*
X29196227Y-60760266D01*
X29175804Y-60702592D01*
X29193181Y-60643926D01*
X29196220Y-60639742D01*
X29224536Y-60602841D01*
X29285044Y-60456762D01*
X29292517Y-60400000D01*
X33694318Y-60400000D01*
X33714955Y-60556758D01*
X33714957Y-60556766D01*
X33775462Y-60702838D01*
X33775462Y-60702839D01*
X33855680Y-60807381D01*
X33871718Y-60828282D01*
X33997159Y-60924536D01*
X33997160Y-60924536D01*
X33997161Y-60924537D01*
X34125317Y-60977621D01*
X34143238Y-60985044D01*
X34260809Y-61000522D01*
X34299999Y-61005682D01*
X34300000Y-61005682D01*
X34300001Y-61005682D01*
X34331352Y-61001554D01*
X34456762Y-60985044D01*
X34602841Y-60924536D01*
X34728282Y-60828282D01*
X34824536Y-60702841D01*
X34885044Y-60556762D01*
X34892517Y-60500000D01*
X40944750Y-60500000D01*
X40963669Y-60643708D01*
X40963670Y-60643709D01*
X41011949Y-60760268D01*
X41019139Y-60777625D01*
X41107379Y-60892621D01*
X41222375Y-60980861D01*
X41356291Y-61036330D01*
X41500000Y-61055250D01*
X41643709Y-61036330D01*
X41777625Y-60980861D01*
X41892621Y-60892621D01*
X41980861Y-60777625D01*
X42036330Y-60643709D01*
X42055250Y-60500000D01*
X42036330Y-60356291D01*
X41980861Y-60222375D01*
X41892621Y-60107379D01*
X41777625Y-60019139D01*
X41777621Y-60019137D01*
X41643709Y-59963670D01*
X41643708Y-59963669D01*
X41500000Y-59944750D01*
X41356291Y-59963669D01*
X41356290Y-59963670D01*
X41222378Y-60019137D01*
X41222374Y-60019139D01*
X41107381Y-60107377D01*
X41107377Y-60107381D01*
X41019139Y-60222374D01*
X41019137Y-60222378D01*
X40963670Y-60356290D01*
X40963669Y-60356291D01*
X40944750Y-60499999D01*
X40944750Y-60500000D01*
X34892517Y-60500000D01*
X34905682Y-60400000D01*
X34885044Y-60243238D01*
X34878911Y-60228431D01*
X34824537Y-60097161D01*
X34824537Y-60097160D01*
X34728286Y-59971723D01*
X34728285Y-59971722D01*
X34728282Y-59971718D01*
X34728277Y-59971714D01*
X34728276Y-59971713D01*
X34644436Y-59907381D01*
X34602841Y-59875464D01*
X34602840Y-59875463D01*
X34602838Y-59875462D01*
X34456766Y-59814957D01*
X34456758Y-59814955D01*
X34300001Y-59794318D01*
X34299999Y-59794318D01*
X34143241Y-59814955D01*
X34143233Y-59814957D01*
X33997161Y-59875462D01*
X33997160Y-59875462D01*
X33871723Y-59971713D01*
X33871713Y-59971723D01*
X33775462Y-60097160D01*
X33775462Y-60097161D01*
X33714957Y-60243233D01*
X33714955Y-60243241D01*
X33694318Y-60399999D01*
X33694318Y-60400000D01*
X29292517Y-60400000D01*
X29305682Y-60300000D01*
X29285044Y-60143238D01*
X29265958Y-60097160D01*
X29224537Y-59997161D01*
X29224537Y-59997160D01*
X29128286Y-59871723D01*
X29128285Y-59871722D01*
X29128282Y-59871718D01*
X29128277Y-59871714D01*
X29128276Y-59871713D01*
X29002838Y-59775462D01*
X28856766Y-59714957D01*
X28856758Y-59714955D01*
X28813545Y-59709266D01*
X45435484Y-59709266D01*
X45454403Y-59852974D01*
X45454404Y-59852975D01*
X45500254Y-59963670D01*
X45509873Y-59986891D01*
X45598113Y-60101887D01*
X45713109Y-60190127D01*
X45847025Y-60245596D01*
X45990734Y-60264516D01*
X46134443Y-60245596D01*
X46268359Y-60190127D01*
X46383355Y-60101887D01*
X46384803Y-60100000D01*
X63144750Y-60100000D01*
X63163669Y-60243708D01*
X63163670Y-60243709D01*
X63194913Y-60319139D01*
X63219139Y-60377625D01*
X63307379Y-60492621D01*
X63422375Y-60580861D01*
X63556291Y-60636330D01*
X63700000Y-60655250D01*
X63843709Y-60636330D01*
X63977625Y-60580861D01*
X64092621Y-60492621D01*
X64180861Y-60377625D01*
X64236330Y-60243709D01*
X64255250Y-60100000D01*
X65144750Y-60100000D01*
X65163669Y-60243708D01*
X65163670Y-60243709D01*
X65194913Y-60319139D01*
X65219139Y-60377625D01*
X65307379Y-60492621D01*
X65422375Y-60580861D01*
X65556291Y-60636330D01*
X65700000Y-60655250D01*
X65843709Y-60636330D01*
X65977625Y-60580861D01*
X66092621Y-60492621D01*
X66180861Y-60377625D01*
X66236330Y-60243709D01*
X66255250Y-60100000D01*
X66241710Y-59997159D01*
X66236330Y-59956291D01*
X66180861Y-59822375D01*
X66171571Y-59810269D01*
X66151146Y-59752594D01*
X66168522Y-59693928D01*
X66171565Y-59689739D01*
X66180861Y-59677625D01*
X66236330Y-59543709D01*
X66255250Y-59400000D01*
X66236330Y-59256291D01*
X66180861Y-59122375D01*
X66171571Y-59110269D01*
X66151146Y-59052594D01*
X66168522Y-58993928D01*
X66171565Y-58989739D01*
X66180861Y-58977625D01*
X66236330Y-58843709D01*
X66255250Y-58700000D01*
X66236330Y-58556291D01*
X66180861Y-58422375D01*
X66171571Y-58410269D01*
X66151146Y-58352594D01*
X66168522Y-58293928D01*
X66171565Y-58289739D01*
X66180861Y-58277625D01*
X66236330Y-58143709D01*
X66255250Y-58000000D01*
X66253012Y-57983004D01*
X66236330Y-57856291D01*
X66180861Y-57722375D01*
X66092621Y-57607379D01*
X65977625Y-57519139D01*
X65977621Y-57519137D01*
X65843709Y-57463670D01*
X65843708Y-57463669D01*
X65700000Y-57444750D01*
X65556291Y-57463669D01*
X65556290Y-57463670D01*
X65422378Y-57519137D01*
X65422374Y-57519139D01*
X65307381Y-57607377D01*
X65307377Y-57607381D01*
X65219139Y-57722374D01*
X65219137Y-57722378D01*
X65163670Y-57856290D01*
X65163669Y-57856291D01*
X65144750Y-57999999D01*
X65144750Y-58000000D01*
X65163669Y-58143708D01*
X65163670Y-58143709D01*
X65219139Y-58277625D01*
X65219141Y-58277627D01*
X65228431Y-58289735D01*
X65248853Y-58347412D01*
X65231473Y-58406077D01*
X65228431Y-58410265D01*
X65219139Y-58422375D01*
X65219137Y-58422378D01*
X65163670Y-58556290D01*
X65163669Y-58556291D01*
X65144750Y-58699999D01*
X65144750Y-58700000D01*
X65163669Y-58843708D01*
X65163670Y-58843709D01*
X65219139Y-58977625D01*
X65219141Y-58977627D01*
X65228431Y-58989735D01*
X65248853Y-59047412D01*
X65231473Y-59106077D01*
X65228431Y-59110265D01*
X65219139Y-59122375D01*
X65219137Y-59122378D01*
X65163670Y-59256290D01*
X65163669Y-59256291D01*
X65144750Y-59399999D01*
X65144750Y-59400000D01*
X65163669Y-59543708D01*
X65163670Y-59543709D01*
X65219139Y-59677625D01*
X65219141Y-59677627D01*
X65228431Y-59689735D01*
X65248853Y-59747412D01*
X65231473Y-59806077D01*
X65228431Y-59810265D01*
X65219139Y-59822375D01*
X65219137Y-59822378D01*
X65163670Y-59956290D01*
X65163669Y-59956291D01*
X65144750Y-60099999D01*
X65144750Y-60100000D01*
X64255250Y-60100000D01*
X64241710Y-59997159D01*
X64236330Y-59956291D01*
X64180861Y-59822375D01*
X64171571Y-59810269D01*
X64151146Y-59752594D01*
X64168522Y-59693928D01*
X64171565Y-59689739D01*
X64180861Y-59677625D01*
X64236330Y-59543709D01*
X64255250Y-59400000D01*
X64236330Y-59256291D01*
X64180861Y-59122375D01*
X64171571Y-59110269D01*
X64151146Y-59052594D01*
X64168522Y-58993928D01*
X64171565Y-58989739D01*
X64180861Y-58977625D01*
X64236330Y-58843709D01*
X64255250Y-58700000D01*
X64236330Y-58556291D01*
X64180861Y-58422375D01*
X64171571Y-58410269D01*
X64151146Y-58352594D01*
X64168522Y-58293928D01*
X64171565Y-58289739D01*
X64180861Y-58277625D01*
X64236330Y-58143709D01*
X64255250Y-58000000D01*
X64253012Y-57983004D01*
X64236330Y-57856291D01*
X64180861Y-57722375D01*
X64092621Y-57607379D01*
X63977625Y-57519139D01*
X63977621Y-57519137D01*
X63843709Y-57463670D01*
X63843708Y-57463669D01*
X63700000Y-57444750D01*
X63556291Y-57463669D01*
X63556290Y-57463670D01*
X63422378Y-57519137D01*
X63422374Y-57519139D01*
X63307381Y-57607377D01*
X63307377Y-57607381D01*
X63219139Y-57722374D01*
X63219137Y-57722378D01*
X63163670Y-57856290D01*
X63163669Y-57856291D01*
X63144750Y-57999999D01*
X63144750Y-58000000D01*
X63163669Y-58143708D01*
X63163670Y-58143709D01*
X63219139Y-58277625D01*
X63219141Y-58277627D01*
X63228431Y-58289735D01*
X63248853Y-58347412D01*
X63231473Y-58406077D01*
X63228431Y-58410265D01*
X63219139Y-58422375D01*
X63219137Y-58422378D01*
X63163670Y-58556290D01*
X63163669Y-58556291D01*
X63144750Y-58699999D01*
X63144750Y-58700000D01*
X63163669Y-58843708D01*
X63163670Y-58843709D01*
X63219139Y-58977625D01*
X63219141Y-58977627D01*
X63228431Y-58989735D01*
X63248853Y-59047412D01*
X63231473Y-59106077D01*
X63228431Y-59110265D01*
X63219139Y-59122375D01*
X63219137Y-59122378D01*
X63163670Y-59256290D01*
X63163669Y-59256291D01*
X63144750Y-59399999D01*
X63144750Y-59400000D01*
X63163669Y-59543708D01*
X63163670Y-59543709D01*
X63219139Y-59677625D01*
X63219141Y-59677627D01*
X63228431Y-59689735D01*
X63248853Y-59747412D01*
X63231473Y-59806077D01*
X63228431Y-59810265D01*
X63219139Y-59822375D01*
X63219137Y-59822378D01*
X63163670Y-59956290D01*
X63163669Y-59956291D01*
X63144750Y-60099999D01*
X63144750Y-60100000D01*
X46384803Y-60100000D01*
X46471595Y-59986891D01*
X46527064Y-59852975D01*
X46545984Y-59709266D01*
X46527064Y-59565557D01*
X46471595Y-59431641D01*
X46383355Y-59316645D01*
X46268359Y-59228405D01*
X46268355Y-59228403D01*
X46134443Y-59172936D01*
X46134442Y-59172935D01*
X45990734Y-59154016D01*
X45847025Y-59172935D01*
X45847024Y-59172936D01*
X45713112Y-59228403D01*
X45713108Y-59228405D01*
X45598115Y-59316643D01*
X45598111Y-59316647D01*
X45509873Y-59431640D01*
X45509871Y-59431644D01*
X45454404Y-59565556D01*
X45454403Y-59565557D01*
X45435484Y-59709265D01*
X45435484Y-59709266D01*
X28813545Y-59709266D01*
X28700001Y-59694318D01*
X28699999Y-59694318D01*
X28543241Y-59714955D01*
X28543236Y-59714957D01*
X28397160Y-59775463D01*
X28397157Y-59775465D01*
X28360267Y-59803772D01*
X28302591Y-59824196D01*
X28243925Y-59806818D01*
X28239733Y-59803772D01*
X28202842Y-59775465D01*
X28202841Y-59775464D01*
X28202836Y-59775462D01*
X28147628Y-59752594D01*
X28056762Y-59714956D01*
X28056759Y-59714955D01*
X28056758Y-59714955D01*
X27900001Y-59694318D01*
X27899999Y-59694318D01*
X27743241Y-59714955D01*
X27743233Y-59714957D01*
X27597161Y-59775462D01*
X27597160Y-59775462D01*
X27471723Y-59871713D01*
X27471713Y-59871723D01*
X27375462Y-59997160D01*
X27375462Y-59997161D01*
X27314957Y-60143233D01*
X27314955Y-60143241D01*
X27294318Y-60299999D01*
X27294318Y-60300000D01*
X27313237Y-60443709D01*
X27314956Y-60456762D01*
X27342134Y-60522375D01*
X27375463Y-60602839D01*
X27375465Y-60602842D01*
X27403772Y-60639733D01*
X27424196Y-60697409D01*
X27406818Y-60756075D01*
X27403772Y-60760267D01*
X27375465Y-60797157D01*
X27375463Y-60797160D01*
X27314957Y-60943236D01*
X27314955Y-60943241D01*
X27294318Y-61099999D01*
X27294318Y-61100000D01*
X4948601Y-61100000D01*
X4936330Y-61006791D01*
X4880861Y-60872875D01*
X4792621Y-60757879D01*
X4677625Y-60669639D01*
X4677621Y-60669637D01*
X4543709Y-60614170D01*
X4543708Y-60614169D01*
X4400000Y-60595250D01*
X4256291Y-60614169D01*
X4256290Y-60614170D01*
X4122378Y-60669637D01*
X4122374Y-60669639D01*
X4007381Y-60757877D01*
X4007377Y-60757881D01*
X3919139Y-60872874D01*
X3919137Y-60872878D01*
X3863670Y-61006790D01*
X3863669Y-61006791D01*
X3844750Y-61150499D01*
X3844750Y-61150500D01*
X15000Y-61150500D01*
X15000Y-60300000D01*
X11844750Y-60300000D01*
X11863669Y-60443708D01*
X11863670Y-60443709D01*
X11910495Y-60556758D01*
X11919139Y-60577625D01*
X12007379Y-60692621D01*
X12122375Y-60780861D01*
X12256291Y-60836330D01*
X12400000Y-60855250D01*
X12543709Y-60836330D01*
X12677625Y-60780861D01*
X12792621Y-60692621D01*
X12880861Y-60577625D01*
X12936330Y-60443709D01*
X12955250Y-60300000D01*
X12948087Y-60245596D01*
X12936330Y-60156291D01*
X12880861Y-60022375D01*
X12792621Y-59907379D01*
X12677625Y-59819139D01*
X12677621Y-59819137D01*
X12543709Y-59763670D01*
X12543708Y-59763669D01*
X12400000Y-59744750D01*
X12256291Y-59763669D01*
X12256290Y-59763670D01*
X12122378Y-59819137D01*
X12122374Y-59819139D01*
X12007381Y-59907377D01*
X12007377Y-59907381D01*
X11919139Y-60022374D01*
X11919137Y-60022378D01*
X11863670Y-60156290D01*
X11863669Y-60156291D01*
X11844750Y-60299999D01*
X11844750Y-60300000D01*
X15000Y-60300000D01*
X15000Y-57600000D01*
X53944750Y-57600000D01*
X53963669Y-57743708D01*
X53963670Y-57743709D01*
X54019139Y-57877625D01*
X54107379Y-57992621D01*
X54222375Y-58080861D01*
X54356291Y-58136330D01*
X54500000Y-58155250D01*
X54643709Y-58136330D01*
X54777625Y-58080861D01*
X54839732Y-58033203D01*
X54897407Y-58012779D01*
X54956073Y-58030156D01*
X54960268Y-58033204D01*
X55022369Y-58080857D01*
X55022371Y-58080858D01*
X55022375Y-58080861D01*
X55156291Y-58136330D01*
X55300000Y-58155250D01*
X55443709Y-58136330D01*
X55577625Y-58080861D01*
X55692621Y-57992621D01*
X55780861Y-57877625D01*
X55836330Y-57743709D01*
X55855250Y-57600000D01*
X55836330Y-57456291D01*
X55780861Y-57322375D01*
X55780858Y-57322371D01*
X55780857Y-57322369D01*
X55733204Y-57260268D01*
X55712779Y-57202593D01*
X55730156Y-57143927D01*
X55733204Y-57139732D01*
X55749008Y-57119137D01*
X55780861Y-57077625D01*
X55836330Y-56943709D01*
X55855250Y-56800000D01*
X55836330Y-56656291D01*
X55780861Y-56522375D01*
X55763692Y-56500000D01*
X57344750Y-56500000D01*
X57363669Y-56643708D01*
X57363670Y-56643709D01*
X57419139Y-56777625D01*
X57507379Y-56892621D01*
X57622375Y-56980861D01*
X57756291Y-57036330D01*
X57900000Y-57055250D01*
X58043709Y-57036330D01*
X58177625Y-56980861D01*
X58292621Y-56892621D01*
X58380861Y-56777625D01*
X58436330Y-56643709D01*
X58455250Y-56500000D01*
X58445808Y-56428286D01*
X58436330Y-56356291D01*
X58380861Y-56222375D01*
X58371571Y-56210269D01*
X58351146Y-56152594D01*
X58368522Y-56093928D01*
X58371565Y-56089739D01*
X58380861Y-56077625D01*
X58436330Y-55943709D01*
X58455250Y-55800000D01*
X58454753Y-55796228D01*
X58436330Y-55656291D01*
X58380861Y-55522375D01*
X58363692Y-55500000D01*
X60544750Y-55500000D01*
X60563669Y-55643708D01*
X60563670Y-55643709D01*
X60618384Y-55775804D01*
X60619139Y-55777625D01*
X60707379Y-55892621D01*
X60822375Y-55980861D01*
X60956291Y-56036330D01*
X61100000Y-56055250D01*
X61243709Y-56036330D01*
X61377625Y-55980861D01*
X61439732Y-55933203D01*
X61497407Y-55912779D01*
X61556073Y-55930156D01*
X61560268Y-55933204D01*
X61622369Y-55980857D01*
X61622371Y-55980858D01*
X61622375Y-55980861D01*
X61756291Y-56036330D01*
X61900000Y-56055250D01*
X62043709Y-56036330D01*
X62177625Y-55980861D01*
X62292621Y-55892621D01*
X62380861Y-55777625D01*
X62436330Y-55643709D01*
X62455250Y-55500000D01*
X62436330Y-55356291D01*
X62380861Y-55222375D01*
X62292621Y-55107379D01*
X62177625Y-55019139D01*
X62177621Y-55019137D01*
X62043709Y-54963670D01*
X62043708Y-54963669D01*
X61900000Y-54944750D01*
X61756291Y-54963669D01*
X61756290Y-54963670D01*
X61622378Y-55019137D01*
X61622374Y-55019139D01*
X61560268Y-55066796D01*
X61502592Y-55087220D01*
X61443926Y-55069843D01*
X61439732Y-55066796D01*
X61377625Y-55019139D01*
X61377621Y-55019137D01*
X61243709Y-54963670D01*
X61243708Y-54963669D01*
X61100000Y-54944750D01*
X60956291Y-54963669D01*
X60956290Y-54963670D01*
X60822378Y-55019137D01*
X60822374Y-55019139D01*
X60707381Y-55107377D01*
X60707377Y-55107381D01*
X60619139Y-55222374D01*
X60619137Y-55222378D01*
X60563670Y-55356290D01*
X60563669Y-55356291D01*
X60544750Y-55499999D01*
X60544750Y-55500000D01*
X58363692Y-55500000D01*
X58292621Y-55407379D01*
X58177625Y-55319139D01*
X58177621Y-55319137D01*
X58043709Y-55263670D01*
X58043708Y-55263669D01*
X57900000Y-55244750D01*
X57756291Y-55263669D01*
X57756290Y-55263670D01*
X57622378Y-55319137D01*
X57622374Y-55319139D01*
X57507381Y-55407377D01*
X57507377Y-55407381D01*
X57419139Y-55522374D01*
X57419137Y-55522378D01*
X57363670Y-55656290D01*
X57363669Y-55656291D01*
X57344750Y-55799999D01*
X57344750Y-55800000D01*
X57363669Y-55943708D01*
X57363670Y-55943709D01*
X57419139Y-56077625D01*
X57419141Y-56077627D01*
X57428431Y-56089735D01*
X57448853Y-56147412D01*
X57431473Y-56206077D01*
X57428431Y-56210265D01*
X57419139Y-56222375D01*
X57419137Y-56222378D01*
X57363670Y-56356290D01*
X57363669Y-56356291D01*
X57344750Y-56499999D01*
X57344750Y-56500000D01*
X55763692Y-56500000D01*
X55692621Y-56407379D01*
X55577625Y-56319139D01*
X55577621Y-56319137D01*
X55443709Y-56263670D01*
X55443708Y-56263669D01*
X55300000Y-56244750D01*
X55156291Y-56263669D01*
X55156290Y-56263670D01*
X55022378Y-56319137D01*
X55022374Y-56319139D01*
X54907381Y-56407377D01*
X54907377Y-56407381D01*
X54819139Y-56522374D01*
X54819137Y-56522378D01*
X54763670Y-56656290D01*
X54763669Y-56656291D01*
X54744750Y-56799999D01*
X54744750Y-56800000D01*
X54764517Y-56950142D01*
X54762756Y-56950373D01*
X54759997Y-57003049D01*
X54721493Y-57050599D01*
X54662392Y-57066436D01*
X54650144Y-57064496D01*
X54650142Y-57064517D01*
X54500000Y-57044750D01*
X54356291Y-57063669D01*
X54356290Y-57063670D01*
X54222378Y-57119137D01*
X54222374Y-57119139D01*
X54107381Y-57207377D01*
X54107377Y-57207381D01*
X54019139Y-57322374D01*
X54019137Y-57322378D01*
X53963670Y-57456290D01*
X53963669Y-57456291D01*
X53944750Y-57599999D01*
X53944750Y-57600000D01*
X15000Y-57600000D01*
X15000Y-56000000D01*
X27394318Y-56000000D01*
X27414955Y-56156758D01*
X27414957Y-56156766D01*
X27475462Y-56302838D01*
X27475462Y-56302839D01*
X27555680Y-56407381D01*
X27571718Y-56428282D01*
X27697159Y-56524536D01*
X27843238Y-56585044D01*
X27960809Y-56600522D01*
X27999999Y-56605682D01*
X28000000Y-56605682D01*
X28000001Y-56605682D01*
X28031352Y-56601554D01*
X28156762Y-56585044D01*
X28302841Y-56524536D01*
X28428282Y-56428282D01*
X28524536Y-56302841D01*
X28585044Y-56156762D01*
X28597358Y-56063226D01*
X28623697Y-56008004D01*
X28657623Y-55984687D01*
X28802841Y-55924536D01*
X28928282Y-55828282D01*
X29024536Y-55702841D01*
X29085044Y-55556762D01*
X29105682Y-55400000D01*
X29085044Y-55243238D01*
X29077297Y-55224536D01*
X29024537Y-55097161D01*
X29024537Y-55097160D01*
X28928286Y-54971723D01*
X28928285Y-54971722D01*
X28928282Y-54971718D01*
X28928277Y-54971714D01*
X28928276Y-54971713D01*
X28885573Y-54938946D01*
X28802841Y-54875464D01*
X28778592Y-54865419D01*
X28758981Y-54857296D01*
X28712456Y-54817558D01*
X28698173Y-54758063D01*
X28698710Y-54752954D01*
X28705682Y-54700000D01*
X28698715Y-54647086D01*
X28709864Y-54586929D01*
X28754246Y-54544811D01*
X28758950Y-54542715D01*
X28802841Y-54524536D01*
X28928282Y-54428282D01*
X29024536Y-54302841D01*
X29085044Y-54156762D01*
X29105682Y-54000000D01*
X29103444Y-53983004D01*
X29089571Y-53877625D01*
X29085044Y-53843238D01*
X29060938Y-53785042D01*
X29024537Y-53697161D01*
X29024537Y-53697160D01*
X28928286Y-53571723D01*
X28928285Y-53571722D01*
X28928282Y-53571718D01*
X28928277Y-53571714D01*
X28928276Y-53571713D01*
X28838517Y-53502839D01*
X28802841Y-53475464D01*
X28802840Y-53475463D01*
X28802838Y-53475462D01*
X28656766Y-53414957D01*
X28656758Y-53414955D01*
X28500001Y-53394318D01*
X28499999Y-53394318D01*
X28343241Y-53414955D01*
X28343233Y-53414957D01*
X28197161Y-53475462D01*
X28197160Y-53475462D01*
X28071723Y-53571713D01*
X28071713Y-53571723D01*
X27975462Y-53697160D01*
X27975462Y-53697161D01*
X27914957Y-53843233D01*
X27914955Y-53843241D01*
X27894318Y-53999999D01*
X27894318Y-54000002D01*
X27901283Y-54052911D01*
X27890132Y-54113072D01*
X27845750Y-54155188D01*
X27841018Y-54157295D01*
X27797161Y-54175462D01*
X27797157Y-54175464D01*
X27671723Y-54271713D01*
X27671713Y-54271723D01*
X27575462Y-54397160D01*
X27575462Y-54397161D01*
X27514957Y-54543233D01*
X27514955Y-54543241D01*
X27494318Y-54699999D01*
X27494318Y-54700000D01*
X27514955Y-54856758D01*
X27514957Y-54856766D01*
X27575462Y-55002838D01*
X27575462Y-55002839D01*
X27655680Y-55107381D01*
X27671718Y-55128282D01*
X27797159Y-55224536D01*
X27797160Y-55224536D01*
X27797161Y-55224537D01*
X27829241Y-55237825D01*
X27875767Y-55277561D01*
X27890051Y-55337056D01*
X27866637Y-55393584D01*
X27829242Y-55420753D01*
X27697160Y-55475463D01*
X27571723Y-55571713D01*
X27571713Y-55571723D01*
X27475462Y-55697160D01*
X27475462Y-55697161D01*
X27414957Y-55843233D01*
X27414955Y-55843241D01*
X27394318Y-55999999D01*
X27394318Y-56000000D01*
X15000Y-56000000D01*
X15000Y-55300000D01*
X17294318Y-55300000D01*
X17314955Y-55456758D01*
X17314957Y-55456766D01*
X17375462Y-55602838D01*
X17375462Y-55602839D01*
X17447837Y-55697160D01*
X17471718Y-55728282D01*
X17597159Y-55824536D01*
X17597160Y-55824536D01*
X17597161Y-55824537D01*
X17738313Y-55883004D01*
X17743238Y-55885044D01*
X17860809Y-55900522D01*
X17899999Y-55905682D01*
X17900000Y-55905682D01*
X17900001Y-55905682D01*
X17931352Y-55901554D01*
X18056762Y-55885044D01*
X18202841Y-55824536D01*
X18239733Y-55796227D01*
X18297408Y-55775804D01*
X18356074Y-55793181D01*
X18360257Y-55796220D01*
X18397159Y-55824536D01*
X18397160Y-55824536D01*
X18397161Y-55824537D01*
X18538313Y-55883004D01*
X18543238Y-55885044D01*
X18660809Y-55900522D01*
X18699999Y-55905682D01*
X18700000Y-55905682D01*
X18700001Y-55905682D01*
X18731352Y-55901554D01*
X18856762Y-55885044D01*
X19002841Y-55824536D01*
X19128282Y-55728282D01*
X19224536Y-55602841D01*
X19285044Y-55456762D01*
X19305682Y-55300000D01*
X19285044Y-55143238D01*
X19265958Y-55097160D01*
X19224537Y-54997161D01*
X19224536Y-54997160D01*
X19224536Y-54997159D01*
X19196227Y-54960266D01*
X19175804Y-54902592D01*
X19193181Y-54843926D01*
X19196220Y-54839742D01*
X19224536Y-54802841D01*
X19285044Y-54656762D01*
X19305682Y-54500000D01*
X19285044Y-54343238D01*
X19268310Y-54302838D01*
X19224537Y-54197161D01*
X19224537Y-54197160D01*
X19128286Y-54071723D01*
X19128285Y-54071722D01*
X19128282Y-54071718D01*
X19128277Y-54071714D01*
X19128276Y-54071713D01*
X19039733Y-54003772D01*
X19002841Y-53975464D01*
X19002840Y-53975463D01*
X19002838Y-53975462D01*
X18856766Y-53914957D01*
X18856758Y-53914955D01*
X18700001Y-53894318D01*
X18699999Y-53894318D01*
X18543241Y-53914955D01*
X18543236Y-53914957D01*
X18397160Y-53975463D01*
X18397157Y-53975465D01*
X18360267Y-54003772D01*
X18302591Y-54024196D01*
X18243925Y-54006818D01*
X18239733Y-54003772D01*
X18225202Y-53992622D01*
X18202841Y-53975464D01*
X18202836Y-53975462D01*
X18169746Y-53961755D01*
X18056762Y-53914956D01*
X18056759Y-53914955D01*
X18056758Y-53914955D01*
X17900001Y-53894318D01*
X17899999Y-53894318D01*
X17743241Y-53914955D01*
X17743233Y-53914957D01*
X17597161Y-53975462D01*
X17597160Y-53975462D01*
X17471723Y-54071713D01*
X17471713Y-54071723D01*
X17375462Y-54197160D01*
X17375462Y-54197161D01*
X17314957Y-54343233D01*
X17314955Y-54343241D01*
X17294318Y-54499999D01*
X17294318Y-54500000D01*
X17313682Y-54647090D01*
X17314956Y-54656762D01*
X17375464Y-54802841D01*
X17403771Y-54839732D01*
X17403772Y-54839733D01*
X17424196Y-54897409D01*
X17406818Y-54956075D01*
X17403772Y-54960267D01*
X17375465Y-54997157D01*
X17375463Y-54997160D01*
X17346619Y-55066796D01*
X17321154Y-55128276D01*
X17314957Y-55143236D01*
X17314955Y-55143241D01*
X17294318Y-55299999D01*
X17294318Y-55300000D01*
X15000Y-55300000D01*
X15000Y-54200000D01*
X6094318Y-54200000D01*
X6114955Y-54356758D01*
X6114957Y-54356766D01*
X6175462Y-54502838D01*
X6175462Y-54502839D01*
X6271713Y-54628276D01*
X6271718Y-54628282D01*
X6397159Y-54724536D01*
X6543238Y-54785044D01*
X6660809Y-54800522D01*
X6699999Y-54805682D01*
X6700000Y-54805682D01*
X6700001Y-54805682D01*
X6731352Y-54801554D01*
X6856762Y-54785044D01*
X7002841Y-54724536D01*
X7128282Y-54628282D01*
X7224536Y-54502841D01*
X7285044Y-54356762D01*
X7305682Y-54200000D01*
X7285044Y-54043238D01*
X7277157Y-54024196D01*
X7224537Y-53897161D01*
X7224537Y-53897160D01*
X7128286Y-53771723D01*
X7128285Y-53771722D01*
X7128282Y-53771718D01*
X7128277Y-53771714D01*
X7128276Y-53771713D01*
X7031116Y-53697160D01*
X7002841Y-53675464D01*
X7002840Y-53675463D01*
X7002838Y-53675462D01*
X6856766Y-53614957D01*
X6856758Y-53614955D01*
X6700001Y-53594318D01*
X6699999Y-53594318D01*
X6543241Y-53614955D01*
X6543233Y-53614957D01*
X6397161Y-53675462D01*
X6397160Y-53675462D01*
X6271723Y-53771713D01*
X6271713Y-53771723D01*
X6175462Y-53897160D01*
X6175462Y-53897161D01*
X6114957Y-54043233D01*
X6114955Y-54043241D01*
X6094318Y-54199999D01*
X6094318Y-54200000D01*
X15000Y-54200000D01*
X15000Y-53200000D01*
X31794318Y-53200000D01*
X31814955Y-53356758D01*
X31814957Y-53356766D01*
X31875462Y-53502838D01*
X31875462Y-53502839D01*
X31961493Y-53614957D01*
X31971718Y-53628282D01*
X32097159Y-53724536D01*
X32097160Y-53724536D01*
X32097161Y-53724537D01*
X32211054Y-53771713D01*
X32243238Y-53785044D01*
X32360809Y-53800522D01*
X32399999Y-53805682D01*
X32400000Y-53805682D01*
X32400001Y-53805682D01*
X32431352Y-53801554D01*
X32556762Y-53785044D01*
X32702841Y-53724536D01*
X32739733Y-53696227D01*
X32797408Y-53675804D01*
X32856074Y-53693181D01*
X32860257Y-53696220D01*
X32897159Y-53724536D01*
X32897160Y-53724536D01*
X32897161Y-53724537D01*
X33011054Y-53771713D01*
X33043238Y-53785044D01*
X33160809Y-53800522D01*
X33199999Y-53805682D01*
X33200000Y-53805682D01*
X33200001Y-53805682D01*
X33231352Y-53801554D01*
X33356762Y-53785044D01*
X33502841Y-53724536D01*
X33539733Y-53696227D01*
X33597408Y-53675804D01*
X33656074Y-53693181D01*
X33660257Y-53696220D01*
X33697159Y-53724536D01*
X33697160Y-53724536D01*
X33697161Y-53724537D01*
X33811054Y-53771713D01*
X33843238Y-53785044D01*
X33960809Y-53800522D01*
X33999999Y-53805682D01*
X34000000Y-53805682D01*
X34000001Y-53805682D01*
X34031352Y-53801554D01*
X34156762Y-53785044D01*
X34302841Y-53724536D01*
X34339733Y-53696227D01*
X34397408Y-53675804D01*
X34456074Y-53693181D01*
X34460257Y-53696220D01*
X34497159Y-53724536D01*
X34497160Y-53724536D01*
X34497161Y-53724537D01*
X34611054Y-53771713D01*
X34643238Y-53785044D01*
X34760809Y-53800522D01*
X34799999Y-53805682D01*
X34800000Y-53805682D01*
X34800001Y-53805682D01*
X34831352Y-53801554D01*
X34956762Y-53785044D01*
X35102841Y-53724536D01*
X35228282Y-53628282D01*
X35249983Y-53600000D01*
X42544750Y-53600000D01*
X42563669Y-53743708D01*
X42563670Y-53743709D01*
X42604895Y-53843238D01*
X42619139Y-53877625D01*
X42707379Y-53992621D01*
X42822375Y-54080861D01*
X42956291Y-54136330D01*
X43100000Y-54155250D01*
X43243709Y-54136330D01*
X43377625Y-54080861D01*
X43492621Y-53992621D01*
X43580861Y-53877625D01*
X43636330Y-53743709D01*
X43655250Y-53600000D01*
X60544750Y-53600000D01*
X60563669Y-53743708D01*
X60563670Y-53743709D01*
X60604895Y-53843238D01*
X60619139Y-53877625D01*
X60707379Y-53992621D01*
X60822375Y-54080861D01*
X60956291Y-54136330D01*
X61100000Y-54155250D01*
X61243709Y-54136330D01*
X61377625Y-54080861D01*
X61439732Y-54033203D01*
X61497407Y-54012779D01*
X61556073Y-54030156D01*
X61560258Y-54033197D01*
X61573344Y-54043238D01*
X61622369Y-54080857D01*
X61622371Y-54080858D01*
X61622375Y-54080861D01*
X61756291Y-54136330D01*
X61900000Y-54155250D01*
X62043709Y-54136330D01*
X62177625Y-54080861D01*
X62292621Y-53992621D01*
X62380861Y-53877625D01*
X62436330Y-53743709D01*
X62455250Y-53600000D01*
X62436330Y-53456291D01*
X62380861Y-53322375D01*
X62292621Y-53207379D01*
X62177625Y-53119139D01*
X62177621Y-53119137D01*
X62043709Y-53063670D01*
X62043708Y-53063669D01*
X61900000Y-53044750D01*
X61756291Y-53063669D01*
X61756290Y-53063670D01*
X61622378Y-53119137D01*
X61622374Y-53119139D01*
X61560268Y-53166796D01*
X61502592Y-53187220D01*
X61443926Y-53169843D01*
X61439732Y-53166796D01*
X61377625Y-53119139D01*
X61377621Y-53119137D01*
X61243709Y-53063670D01*
X61243708Y-53063669D01*
X61100000Y-53044750D01*
X60956291Y-53063669D01*
X60956290Y-53063670D01*
X60822378Y-53119137D01*
X60822374Y-53119139D01*
X60707381Y-53207377D01*
X60707377Y-53207381D01*
X60619139Y-53322374D01*
X60619137Y-53322378D01*
X60563670Y-53456290D01*
X60563669Y-53456291D01*
X60544750Y-53599999D01*
X60544750Y-53600000D01*
X43655250Y-53600000D01*
X43636330Y-53456291D01*
X43580861Y-53322375D01*
X43571571Y-53310269D01*
X43551146Y-53252594D01*
X43568522Y-53193928D01*
X43571565Y-53189739D01*
X43580861Y-53177625D01*
X43636330Y-53043709D01*
X43655250Y-52900000D01*
X43636330Y-52756291D01*
X43580861Y-52622375D01*
X43571571Y-52610269D01*
X43551146Y-52552594D01*
X43568522Y-52493928D01*
X43571565Y-52489739D01*
X43580861Y-52477625D01*
X43636330Y-52343709D01*
X43655250Y-52200000D01*
X43641710Y-52097159D01*
X43636330Y-52056291D01*
X43580861Y-51922375D01*
X43571571Y-51910269D01*
X43567934Y-51900000D01*
X44544750Y-51900000D01*
X44563669Y-52043708D01*
X44563670Y-52043709D01*
X44585808Y-52097157D01*
X44619139Y-52177625D01*
X44707379Y-52292621D01*
X44822375Y-52380861D01*
X44956291Y-52436330D01*
X45100000Y-52455250D01*
X45243709Y-52436330D01*
X45377625Y-52380861D01*
X45492621Y-52292621D01*
X45580861Y-52177625D01*
X45636330Y-52043709D01*
X45655250Y-51900000D01*
X49544750Y-51900000D01*
X49563669Y-52043708D01*
X49563670Y-52043709D01*
X49585808Y-52097157D01*
X49619139Y-52177625D01*
X49707379Y-52292621D01*
X49822375Y-52380861D01*
X49956291Y-52436330D01*
X50100000Y-52455250D01*
X50243709Y-52436330D01*
X50377625Y-52380861D01*
X50492621Y-52292621D01*
X50580861Y-52177625D01*
X50636330Y-52043709D01*
X50655250Y-51900000D01*
X50636330Y-51756291D01*
X50580861Y-51622375D01*
X50492621Y-51507379D01*
X50377625Y-51419139D01*
X50377621Y-51419137D01*
X50243709Y-51363670D01*
X50243708Y-51363669D01*
X50100000Y-51344750D01*
X49956291Y-51363669D01*
X49956290Y-51363670D01*
X49822378Y-51419137D01*
X49822374Y-51419139D01*
X49707381Y-51507377D01*
X49707377Y-51507381D01*
X49619139Y-51622374D01*
X49619137Y-51622378D01*
X49563670Y-51756290D01*
X49563669Y-51756291D01*
X49544750Y-51899999D01*
X49544750Y-51900000D01*
X45655250Y-51900000D01*
X45636330Y-51756291D01*
X45580861Y-51622375D01*
X45492621Y-51507379D01*
X45377625Y-51419139D01*
X45377621Y-51419137D01*
X45243709Y-51363670D01*
X45243708Y-51363669D01*
X45100000Y-51344750D01*
X44956291Y-51363669D01*
X44956290Y-51363670D01*
X44822378Y-51419137D01*
X44822374Y-51419139D01*
X44707381Y-51507377D01*
X44707377Y-51507381D01*
X44619139Y-51622374D01*
X44619137Y-51622378D01*
X44563670Y-51756290D01*
X44563669Y-51756291D01*
X44544750Y-51899999D01*
X44544750Y-51900000D01*
X43567934Y-51900000D01*
X43551146Y-51852594D01*
X43568522Y-51793928D01*
X43571565Y-51789739D01*
X43580861Y-51777625D01*
X43636330Y-51643709D01*
X43655250Y-51500000D01*
X43652730Y-51480862D01*
X43636330Y-51356291D01*
X43580861Y-51222375D01*
X43571571Y-51210269D01*
X43551146Y-51152594D01*
X43568522Y-51093928D01*
X43571565Y-51089739D01*
X43580861Y-51077625D01*
X43636330Y-50943709D01*
X43655250Y-50800000D01*
X43649495Y-50756291D01*
X43636330Y-50656291D01*
X43580861Y-50522375D01*
X43571571Y-50510269D01*
X43567934Y-50500000D01*
X60944750Y-50500000D01*
X60963669Y-50643708D01*
X60963670Y-50643709D01*
X60996253Y-50722374D01*
X61019139Y-50777625D01*
X61107379Y-50892621D01*
X61222375Y-50980861D01*
X61356291Y-51036330D01*
X61500000Y-51055250D01*
X61643709Y-51036330D01*
X61731419Y-51000000D01*
X66444750Y-51000000D01*
X66463669Y-51143708D01*
X66463670Y-51143709D01*
X66475271Y-51171718D01*
X66519139Y-51277625D01*
X66607379Y-51392621D01*
X66722375Y-51480861D01*
X66856291Y-51536330D01*
X67000000Y-51555250D01*
X67143709Y-51536330D01*
X67277625Y-51480861D01*
X67392621Y-51392621D01*
X67480861Y-51277625D01*
X67536330Y-51143709D01*
X67555250Y-51000000D01*
X67552730Y-50980862D01*
X67536330Y-50856291D01*
X67480861Y-50722375D01*
X67392621Y-50607379D01*
X67277625Y-50519139D01*
X67277621Y-50519137D01*
X67143709Y-50463670D01*
X67143708Y-50463669D01*
X67000000Y-50444750D01*
X66856291Y-50463669D01*
X66856290Y-50463670D01*
X66722378Y-50519137D01*
X66722374Y-50519139D01*
X66607381Y-50607377D01*
X66607377Y-50607381D01*
X66519139Y-50722374D01*
X66519137Y-50722378D01*
X66463670Y-50856290D01*
X66463669Y-50856291D01*
X66444750Y-50999999D01*
X66444750Y-51000000D01*
X61731419Y-51000000D01*
X61777625Y-50980861D01*
X61892621Y-50892621D01*
X61980861Y-50777625D01*
X62036330Y-50643709D01*
X62055250Y-50500000D01*
X62052019Y-50475462D01*
X62036330Y-50356291D01*
X61980861Y-50222375D01*
X61892621Y-50107379D01*
X61777625Y-50019139D01*
X61777621Y-50019137D01*
X61643709Y-49963670D01*
X61643708Y-49963669D01*
X61500000Y-49944750D01*
X61356291Y-49963669D01*
X61356290Y-49963670D01*
X61222378Y-50019137D01*
X61222374Y-50019139D01*
X61107381Y-50107377D01*
X61107377Y-50107381D01*
X61019139Y-50222374D01*
X61019137Y-50222378D01*
X60963670Y-50356290D01*
X60963669Y-50356291D01*
X60944750Y-50499999D01*
X60944750Y-50500000D01*
X43567934Y-50500000D01*
X43551146Y-50452594D01*
X43568522Y-50393928D01*
X43571565Y-50389739D01*
X43580861Y-50377625D01*
X43636330Y-50243709D01*
X43655250Y-50100000D01*
X43636330Y-49956291D01*
X43580861Y-49822375D01*
X43571571Y-49810269D01*
X43551146Y-49752594D01*
X43568522Y-49693928D01*
X43571565Y-49689739D01*
X43580861Y-49677625D01*
X43636330Y-49543709D01*
X43655250Y-49400000D01*
X43636330Y-49256291D01*
X43580861Y-49122375D01*
X43571571Y-49110269D01*
X43551146Y-49052594D01*
X43568522Y-48993928D01*
X43571565Y-48989739D01*
X43580861Y-48977625D01*
X43636330Y-48843709D01*
X43655250Y-48700000D01*
X43636330Y-48556291D01*
X43580861Y-48422375D01*
X43571571Y-48410269D01*
X43551146Y-48352594D01*
X43568522Y-48293928D01*
X43571565Y-48289739D01*
X43580861Y-48277625D01*
X43636330Y-48143709D01*
X43655250Y-48000000D01*
X43636330Y-47856291D01*
X43580861Y-47722375D01*
X43492621Y-47607379D01*
X43377625Y-47519139D01*
X43377621Y-47519137D01*
X43243709Y-47463670D01*
X43243708Y-47463669D01*
X43100000Y-47444750D01*
X42956291Y-47463669D01*
X42956290Y-47463670D01*
X42822378Y-47519137D01*
X42822374Y-47519139D01*
X42707381Y-47607377D01*
X42707377Y-47607381D01*
X42619139Y-47722374D01*
X42619137Y-47722378D01*
X42563670Y-47856290D01*
X42563669Y-47856291D01*
X42544750Y-47999999D01*
X42544750Y-48000000D01*
X42563669Y-48143708D01*
X42563670Y-48143709D01*
X42619139Y-48277625D01*
X42619141Y-48277627D01*
X42628431Y-48289735D01*
X42648853Y-48347412D01*
X42631473Y-48406077D01*
X42628431Y-48410265D01*
X42619139Y-48422375D01*
X42619137Y-48422378D01*
X42563670Y-48556290D01*
X42563669Y-48556291D01*
X42544750Y-48699999D01*
X42544750Y-48700000D01*
X42563669Y-48843708D01*
X42563670Y-48843709D01*
X42619139Y-48977625D01*
X42619141Y-48977627D01*
X42628431Y-48989735D01*
X42648853Y-49047412D01*
X42631473Y-49106077D01*
X42628431Y-49110265D01*
X42619139Y-49122375D01*
X42619137Y-49122378D01*
X42563670Y-49256290D01*
X42563669Y-49256291D01*
X42544750Y-49399999D01*
X42544750Y-49400000D01*
X42563669Y-49543708D01*
X42563670Y-49543709D01*
X42619139Y-49677625D01*
X42619141Y-49677627D01*
X42628431Y-49689735D01*
X42648853Y-49747412D01*
X42631473Y-49806077D01*
X42628431Y-49810265D01*
X42619139Y-49822375D01*
X42619137Y-49822378D01*
X42563670Y-49956290D01*
X42563669Y-49956291D01*
X42544750Y-50099999D01*
X42544750Y-50100000D01*
X42563669Y-50243708D01*
X42563670Y-50243709D01*
X42613358Y-50363670D01*
X42619139Y-50377625D01*
X42619141Y-50377627D01*
X42628431Y-50389735D01*
X42648853Y-50447412D01*
X42631473Y-50506077D01*
X42628431Y-50510265D01*
X42619139Y-50522375D01*
X42619137Y-50522378D01*
X42563670Y-50656290D01*
X42563669Y-50656291D01*
X42544750Y-50799999D01*
X42544750Y-50800000D01*
X42563669Y-50943708D01*
X42563670Y-50943709D01*
X42605090Y-51043709D01*
X42619139Y-51077625D01*
X42619141Y-51077627D01*
X42628431Y-51089735D01*
X42648853Y-51147412D01*
X42631473Y-51206077D01*
X42628431Y-51210265D01*
X42619139Y-51222375D01*
X42619137Y-51222378D01*
X42563670Y-51356290D01*
X42563669Y-51356291D01*
X42544750Y-51499999D01*
X42544750Y-51500000D01*
X42563669Y-51643708D01*
X42563670Y-51643709D01*
X42610495Y-51756758D01*
X42619139Y-51777625D01*
X42619141Y-51777627D01*
X42628431Y-51789735D01*
X42648853Y-51847412D01*
X42631473Y-51906077D01*
X42628431Y-51910265D01*
X42619139Y-51922375D01*
X42619137Y-51922378D01*
X42563670Y-52056290D01*
X42563669Y-52056291D01*
X42544750Y-52199999D01*
X42544750Y-52200000D01*
X42563669Y-52343708D01*
X42563670Y-52343709D01*
X42619139Y-52477625D01*
X42619141Y-52477627D01*
X42628431Y-52489735D01*
X42648853Y-52547412D01*
X42631473Y-52606077D01*
X42628431Y-52610265D01*
X42619139Y-52622375D01*
X42619137Y-52622378D01*
X42563670Y-52756290D01*
X42563669Y-52756291D01*
X42544750Y-52899999D01*
X42544750Y-52900000D01*
X42563669Y-53043708D01*
X42563670Y-53043709D01*
X42615915Y-53169843D01*
X42619139Y-53177625D01*
X42619141Y-53177627D01*
X42628431Y-53189735D01*
X42648853Y-53247412D01*
X42631473Y-53306077D01*
X42628431Y-53310265D01*
X42619139Y-53322375D01*
X42619137Y-53322378D01*
X42563670Y-53456290D01*
X42563669Y-53456291D01*
X42544750Y-53599999D01*
X42544750Y-53600000D01*
X35249983Y-53600000D01*
X35324536Y-53502841D01*
X35385044Y-53356762D01*
X35405682Y-53200000D01*
X35403999Y-53187220D01*
X35400522Y-53160809D01*
X35385044Y-53043238D01*
X35325713Y-52900000D01*
X35324537Y-52897161D01*
X35324537Y-52897160D01*
X35228286Y-52771723D01*
X35228285Y-52771722D01*
X35228282Y-52771718D01*
X35228277Y-52771714D01*
X35228276Y-52771713D01*
X35102838Y-52675462D01*
X34956766Y-52614957D01*
X34956758Y-52614955D01*
X34800001Y-52594318D01*
X34799999Y-52594318D01*
X34643241Y-52614955D01*
X34643236Y-52614957D01*
X34497160Y-52675463D01*
X34497157Y-52675465D01*
X34460267Y-52703772D01*
X34402591Y-52724196D01*
X34343925Y-52706818D01*
X34339733Y-52703772D01*
X34302842Y-52675465D01*
X34302841Y-52675464D01*
X34302836Y-52675462D01*
X34256104Y-52656105D01*
X34156762Y-52614956D01*
X34156759Y-52614955D01*
X34156758Y-52614955D01*
X34000001Y-52594318D01*
X33999999Y-52594318D01*
X33843241Y-52614955D01*
X33843236Y-52614957D01*
X33697160Y-52675463D01*
X33697157Y-52675465D01*
X33660267Y-52703772D01*
X33602591Y-52724196D01*
X33543925Y-52706818D01*
X33539733Y-52703772D01*
X33502842Y-52675465D01*
X33502841Y-52675464D01*
X33502836Y-52675462D01*
X33456104Y-52656105D01*
X33356762Y-52614956D01*
X33356759Y-52614955D01*
X33356758Y-52614955D01*
X33200001Y-52594318D01*
X33199998Y-52594318D01*
X33104135Y-52606938D01*
X33043975Y-52595788D01*
X33001858Y-52551405D01*
X32993061Y-52495864D01*
X33005682Y-52400000D01*
X33003162Y-52380862D01*
X32985044Y-52243241D01*
X32985044Y-52243238D01*
X32924536Y-52097159D01*
X32896227Y-52060266D01*
X32875804Y-52002592D01*
X32893181Y-51943926D01*
X32896220Y-51939742D01*
X32924536Y-51902841D01*
X32985044Y-51756762D01*
X33005682Y-51600000D01*
X32985044Y-51443238D01*
X32964078Y-51392621D01*
X32924537Y-51297161D01*
X32924537Y-51297160D01*
X32828286Y-51171723D01*
X32828285Y-51171722D01*
X32828282Y-51171718D01*
X32828277Y-51171714D01*
X32828276Y-51171713D01*
X32702838Y-51075462D01*
X32556766Y-51014957D01*
X32556758Y-51014955D01*
X32400001Y-50994318D01*
X32399999Y-50994318D01*
X32243241Y-51014955D01*
X32243233Y-51014957D01*
X32097161Y-51075462D01*
X32097160Y-51075462D01*
X31971723Y-51171713D01*
X31971713Y-51171723D01*
X31875462Y-51297160D01*
X31875462Y-51297161D01*
X31814957Y-51443233D01*
X31814955Y-51443241D01*
X31794318Y-51599999D01*
X31794318Y-51600000D01*
X31814893Y-51756290D01*
X31814956Y-51756762D01*
X31875464Y-51902841D01*
X31890451Y-51922372D01*
X31903772Y-51939733D01*
X31924196Y-51997409D01*
X31906818Y-52056075D01*
X31903772Y-52060267D01*
X31875465Y-52097157D01*
X31875463Y-52097160D01*
X31814957Y-52243236D01*
X31814955Y-52243241D01*
X31794318Y-52399999D01*
X31794318Y-52400000D01*
X31814250Y-52551405D01*
X31814956Y-52556762D01*
X31875464Y-52702841D01*
X31878516Y-52706818D01*
X31903772Y-52739733D01*
X31924196Y-52797409D01*
X31906818Y-52856075D01*
X31903772Y-52860267D01*
X31875465Y-52897157D01*
X31875463Y-52897160D01*
X31814957Y-53043236D01*
X31814955Y-53043241D01*
X31794318Y-53199999D01*
X31794318Y-53200000D01*
X15000Y-53200000D01*
X15000Y-51000000D01*
X2194318Y-51000000D01*
X2214955Y-51156758D01*
X2214957Y-51156766D01*
X2275462Y-51302838D01*
X2275462Y-51302839D01*
X2364702Y-51419139D01*
X2371718Y-51428282D01*
X2497159Y-51524536D01*
X2497160Y-51524536D01*
X2497161Y-51524537D01*
X2525632Y-51536330D01*
X2643238Y-51585044D01*
X2756833Y-51599999D01*
X2799999Y-51605682D01*
X2800000Y-51605682D01*
X2800001Y-51605682D01*
X2843167Y-51599999D01*
X2956762Y-51585044D01*
X3102841Y-51524536D01*
X3228282Y-51428282D01*
X3324536Y-51302841D01*
X3385044Y-51156762D01*
X3405682Y-51000000D01*
X3403162Y-50980862D01*
X3392517Y-50900000D01*
X14944750Y-50900000D01*
X14963669Y-51043708D01*
X14963670Y-51043709D01*
X15010495Y-51156758D01*
X15019139Y-51177625D01*
X15107379Y-51292621D01*
X15222375Y-51380861D01*
X15356291Y-51436330D01*
X15500000Y-51455250D01*
X15643709Y-51436330D01*
X15777625Y-51380861D01*
X15892621Y-51292621D01*
X15980861Y-51177625D01*
X16036330Y-51043709D01*
X16055250Y-50900000D01*
X16049495Y-50856291D01*
X16042084Y-50800000D01*
X17444750Y-50800000D01*
X17463669Y-50943708D01*
X17463670Y-50943709D01*
X17505090Y-51043709D01*
X17519139Y-51077625D01*
X17607379Y-51192621D01*
X17722375Y-51280861D01*
X17856291Y-51336330D01*
X18000000Y-51355250D01*
X18143709Y-51336330D01*
X18277625Y-51280861D01*
X18392621Y-51192621D01*
X18480861Y-51077625D01*
X18536330Y-50943709D01*
X18555250Y-50800000D01*
X18549495Y-50756291D01*
X18536330Y-50656291D01*
X18480861Y-50522375D01*
X18392621Y-50407379D01*
X18277625Y-50319139D01*
X18277621Y-50319137D01*
X18143709Y-50263670D01*
X18143708Y-50263669D01*
X18000000Y-50244750D01*
X17856291Y-50263669D01*
X17856290Y-50263670D01*
X17722378Y-50319137D01*
X17722374Y-50319139D01*
X17607381Y-50407377D01*
X17607377Y-50407381D01*
X17519139Y-50522374D01*
X17519137Y-50522378D01*
X17463670Y-50656290D01*
X17463669Y-50656291D01*
X17444750Y-50799999D01*
X17444750Y-50800000D01*
X16042084Y-50800000D01*
X16036330Y-50756291D01*
X15980861Y-50622375D01*
X15892621Y-50507379D01*
X15777625Y-50419139D01*
X15777621Y-50419137D01*
X15643709Y-50363670D01*
X15643708Y-50363669D01*
X15500000Y-50344750D01*
X15356291Y-50363669D01*
X15356290Y-50363670D01*
X15222378Y-50419137D01*
X15222374Y-50419139D01*
X15107381Y-50507377D01*
X15107377Y-50507381D01*
X15019139Y-50622374D01*
X15019137Y-50622378D01*
X14963670Y-50756290D01*
X14963669Y-50756291D01*
X14944750Y-50899999D01*
X14944750Y-50900000D01*
X3392517Y-50900000D01*
X3385044Y-50843238D01*
X3334981Y-50722375D01*
X3324537Y-50697161D01*
X3324537Y-50697160D01*
X3228286Y-50571723D01*
X3228285Y-50571722D01*
X3228282Y-50571718D01*
X3228277Y-50571714D01*
X3228276Y-50571713D01*
X3144436Y-50507381D01*
X3102841Y-50475464D01*
X3102840Y-50475463D01*
X3102838Y-50475462D01*
X2956766Y-50414957D01*
X2956758Y-50414955D01*
X2800001Y-50394318D01*
X2799999Y-50394318D01*
X2643241Y-50414955D01*
X2643233Y-50414957D01*
X2497161Y-50475462D01*
X2497160Y-50475462D01*
X2371723Y-50571713D01*
X2371713Y-50571723D01*
X2275462Y-50697160D01*
X2275462Y-50697161D01*
X2214957Y-50843233D01*
X2214955Y-50843241D01*
X2194318Y-50999999D01*
X2194318Y-51000000D01*
X15000Y-51000000D01*
X15000Y-48400000D01*
X14544750Y-48400000D01*
X14563669Y-48543708D01*
X14563670Y-48543709D01*
X14619139Y-48677625D01*
X14707379Y-48792621D01*
X14822375Y-48880861D01*
X14956291Y-48936330D01*
X15100000Y-48955250D01*
X15243709Y-48936330D01*
X15377625Y-48880861D01*
X15492621Y-48792621D01*
X15580861Y-48677625D01*
X15636330Y-48543709D01*
X15655250Y-48400000D01*
X27344750Y-48400000D01*
X27363669Y-48543708D01*
X27363670Y-48543709D01*
X27419139Y-48677625D01*
X27507379Y-48792621D01*
X27622375Y-48880861D01*
X27756291Y-48936330D01*
X27900000Y-48955250D01*
X28043709Y-48936330D01*
X28177625Y-48880861D01*
X28292621Y-48792621D01*
X28380861Y-48677625D01*
X28436330Y-48543709D01*
X28455250Y-48400000D01*
X28450202Y-48361659D01*
X28461352Y-48301500D01*
X28505733Y-48259383D01*
X28535432Y-48250585D01*
X28643709Y-48236330D01*
X28777625Y-48180861D01*
X28892621Y-48092621D01*
X28980861Y-47977625D01*
X29036330Y-47843709D01*
X29055250Y-47700000D01*
X29037261Y-47563362D01*
X29048411Y-47503203D01*
X29092793Y-47461085D01*
X29122487Y-47452289D01*
X29243709Y-47436330D01*
X29377625Y-47380861D01*
X29492621Y-47292621D01*
X29580861Y-47177625D01*
X29636330Y-47043709D01*
X29655250Y-46900000D01*
X29650144Y-46861218D01*
X29661294Y-46801059D01*
X29705676Y-46758941D01*
X29761218Y-46750144D01*
X29800000Y-46755250D01*
X29943709Y-46736330D01*
X30077625Y-46680861D01*
X30192621Y-46592621D01*
X30280861Y-46477625D01*
X30336252Y-46343898D01*
X61041079Y-46343898D01*
X61059998Y-46487606D01*
X61059999Y-46487607D01*
X61103496Y-46592621D01*
X61115468Y-46621523D01*
X61203708Y-46736519D01*
X61318704Y-46824759D01*
X61452620Y-46880228D01*
X61596329Y-46899148D01*
X61740038Y-46880228D01*
X61873954Y-46824759D01*
X61988950Y-46736519D01*
X62077190Y-46621523D01*
X62132659Y-46487607D01*
X62151579Y-46343898D01*
X62132659Y-46200189D01*
X62077190Y-46066273D01*
X61988950Y-45951277D01*
X61873954Y-45863037D01*
X61873950Y-45863035D01*
X61740038Y-45807568D01*
X61740037Y-45807567D01*
X61596329Y-45788648D01*
X61452620Y-45807567D01*
X61452619Y-45807568D01*
X61318707Y-45863035D01*
X61318703Y-45863037D01*
X61203710Y-45951275D01*
X61203706Y-45951279D01*
X61115468Y-46066272D01*
X61115466Y-46066276D01*
X61059999Y-46200188D01*
X61059998Y-46200189D01*
X61041079Y-46343897D01*
X61041079Y-46343898D01*
X30336252Y-46343898D01*
X30336330Y-46343709D01*
X30355250Y-46200000D01*
X30336330Y-46056291D01*
X30336329Y-46056290D01*
X30335483Y-46049858D01*
X30337245Y-46049625D01*
X30339997Y-45996964D01*
X30378494Y-45949408D01*
X30437592Y-45933562D01*
X30449855Y-45935504D01*
X30449858Y-45935483D01*
X30456290Y-45936329D01*
X30456291Y-45936330D01*
X30600000Y-45955250D01*
X30743709Y-45936330D01*
X30877625Y-45880861D01*
X30992621Y-45792621D01*
X31063692Y-45700000D01*
X53744750Y-45700000D01*
X53763669Y-45843708D01*
X53763670Y-45843709D01*
X53809870Y-45955249D01*
X53819139Y-45977625D01*
X53907379Y-46092621D01*
X54022375Y-46180861D01*
X54156291Y-46236330D01*
X54300000Y-46255250D01*
X54443709Y-46236330D01*
X54577625Y-46180861D01*
X54692621Y-46092621D01*
X54780861Y-45977625D01*
X54836330Y-45843709D01*
X54855250Y-45700000D01*
X58044750Y-45700000D01*
X58063669Y-45843708D01*
X58063670Y-45843709D01*
X58109870Y-45955249D01*
X58119139Y-45977625D01*
X58207379Y-46092621D01*
X58322375Y-46180861D01*
X58456291Y-46236330D01*
X58600000Y-46255250D01*
X58743709Y-46236330D01*
X58877625Y-46180861D01*
X58992621Y-46092621D01*
X59080861Y-45977625D01*
X59136330Y-45843709D01*
X59155250Y-45700000D01*
X59150578Y-45664517D01*
X59136330Y-45556291D01*
X59080861Y-45422375D01*
X58992621Y-45307379D01*
X58877625Y-45219139D01*
X58877621Y-45219137D01*
X58743709Y-45163670D01*
X58743708Y-45163669D01*
X58600000Y-45144750D01*
X58456291Y-45163669D01*
X58456290Y-45163670D01*
X58322378Y-45219137D01*
X58322374Y-45219139D01*
X58207381Y-45307377D01*
X58207377Y-45307381D01*
X58119139Y-45422374D01*
X58119137Y-45422378D01*
X58063670Y-45556290D01*
X58063669Y-45556291D01*
X58044750Y-45699999D01*
X58044750Y-45700000D01*
X54855250Y-45700000D01*
X54850578Y-45664517D01*
X54836330Y-45556291D01*
X54780861Y-45422375D01*
X54692621Y-45307379D01*
X54577625Y-45219139D01*
X54577621Y-45219137D01*
X54443709Y-45163670D01*
X54443708Y-45163669D01*
X54300000Y-45144750D01*
X54156291Y-45163669D01*
X54156290Y-45163670D01*
X54022378Y-45219137D01*
X54022374Y-45219139D01*
X53907381Y-45307377D01*
X53907377Y-45307381D01*
X53819139Y-45422374D01*
X53819137Y-45422378D01*
X53763670Y-45556290D01*
X53763669Y-45556291D01*
X53744750Y-45699999D01*
X53744750Y-45700000D01*
X31063692Y-45700000D01*
X31080861Y-45677625D01*
X31136330Y-45543709D01*
X31155250Y-45400000D01*
X31136330Y-45256291D01*
X31080861Y-45122375D01*
X30992621Y-45007379D01*
X30877625Y-44919139D01*
X30877621Y-44919137D01*
X30743709Y-44863670D01*
X30743708Y-44863669D01*
X30600000Y-44844750D01*
X30456291Y-44863669D01*
X30456290Y-44863670D01*
X30322378Y-44919137D01*
X30322374Y-44919139D01*
X30207381Y-45007377D01*
X30207377Y-45007381D01*
X30119139Y-45122374D01*
X30119137Y-45122378D01*
X30063670Y-45256290D01*
X30063669Y-45256291D01*
X30044750Y-45399999D01*
X30044750Y-45400000D01*
X30064517Y-45550142D01*
X30062756Y-45550373D01*
X30059997Y-45603049D01*
X30021493Y-45650599D01*
X29962392Y-45666436D01*
X29950144Y-45664496D01*
X29950142Y-45664517D01*
X29800000Y-45644750D01*
X29656291Y-45663669D01*
X29656290Y-45663670D01*
X29522378Y-45719137D01*
X29522374Y-45719139D01*
X29407381Y-45807377D01*
X29407377Y-45807381D01*
X29319139Y-45922374D01*
X29319137Y-45922378D01*
X29263670Y-46056290D01*
X29263669Y-46056291D01*
X29244750Y-46199999D01*
X29244750Y-46200002D01*
X29249855Y-46238781D01*
X29238704Y-46298941D01*
X29194322Y-46341058D01*
X29138781Y-46349855D01*
X29100002Y-46344750D01*
X29100000Y-46344750D01*
X28956291Y-46363669D01*
X28956290Y-46363670D01*
X28822378Y-46419137D01*
X28822374Y-46419139D01*
X28707381Y-46507377D01*
X28707377Y-46507381D01*
X28619139Y-46622374D01*
X28619137Y-46622378D01*
X28563670Y-46756290D01*
X28563669Y-46756291D01*
X28544750Y-46899999D01*
X28544750Y-46900000D01*
X28562738Y-47036636D01*
X28551588Y-47096797D01*
X28507205Y-47138914D01*
X28477508Y-47147711D01*
X28356290Y-47163670D01*
X28222378Y-47219137D01*
X28222374Y-47219139D01*
X28107381Y-47307377D01*
X28107377Y-47307381D01*
X28019139Y-47422374D01*
X28019137Y-47422378D01*
X27963670Y-47556290D01*
X27963669Y-47556291D01*
X27944750Y-47699999D01*
X27944750Y-47700001D01*
X27949797Y-47738340D01*
X27938647Y-47798500D01*
X27894264Y-47840617D01*
X27864567Y-47849414D01*
X27756291Y-47863670D01*
X27756290Y-47863670D01*
X27622378Y-47919137D01*
X27622374Y-47919139D01*
X27507381Y-48007377D01*
X27507377Y-48007381D01*
X27419139Y-48122374D01*
X27419137Y-48122378D01*
X27363670Y-48256290D01*
X27363669Y-48256291D01*
X27344750Y-48399999D01*
X27344750Y-48400000D01*
X15655250Y-48400000D01*
X15650202Y-48361659D01*
X15661352Y-48301500D01*
X15705733Y-48259383D01*
X15735432Y-48250585D01*
X15843709Y-48236330D01*
X15977625Y-48180861D01*
X16092621Y-48092621D01*
X16180861Y-47977625D01*
X16236330Y-47843709D01*
X16255250Y-47700000D01*
X16237261Y-47563362D01*
X16248411Y-47503203D01*
X16292793Y-47461085D01*
X16322487Y-47452289D01*
X16443709Y-47436330D01*
X16577625Y-47380861D01*
X16692621Y-47292621D01*
X16780861Y-47177625D01*
X16836330Y-47043709D01*
X16855250Y-46900000D01*
X16848380Y-46847820D01*
X16859530Y-46787661D01*
X16903912Y-46745543D01*
X16959453Y-46736746D01*
X17100000Y-46755250D01*
X17243709Y-46736330D01*
X17377625Y-46680861D01*
X17492621Y-46592621D01*
X17580861Y-46477625D01*
X17636330Y-46343709D01*
X17655250Y-46200000D01*
X17636746Y-46059453D01*
X17647896Y-45999295D01*
X17692278Y-45957177D01*
X17747820Y-45948380D01*
X17800000Y-45955250D01*
X17943709Y-45936330D01*
X18077625Y-45880861D01*
X18192621Y-45792621D01*
X18280861Y-45677625D01*
X18336330Y-45543709D01*
X18355250Y-45400000D01*
X18336330Y-45256291D01*
X18280861Y-45122375D01*
X18192621Y-45007379D01*
X18077625Y-44919139D01*
X18077621Y-44919137D01*
X17943709Y-44863670D01*
X17943708Y-44863669D01*
X17800000Y-44844750D01*
X17656291Y-44863669D01*
X17656290Y-44863670D01*
X17522378Y-44919137D01*
X17522374Y-44919139D01*
X17407381Y-45007377D01*
X17407377Y-45007381D01*
X17319139Y-45122374D01*
X17319137Y-45122378D01*
X17263670Y-45256290D01*
X17263669Y-45256291D01*
X17244750Y-45399999D01*
X17244750Y-45400000D01*
X17263253Y-45540544D01*
X17252103Y-45600705D01*
X17207721Y-45642822D01*
X17152178Y-45651619D01*
X17100001Y-45644750D01*
X17100000Y-45644750D01*
X16956291Y-45663669D01*
X16956290Y-45663670D01*
X16822378Y-45719137D01*
X16822374Y-45719139D01*
X16707381Y-45807377D01*
X16707377Y-45807381D01*
X16619139Y-45922374D01*
X16619137Y-45922378D01*
X16563670Y-46056290D01*
X16563669Y-46056291D01*
X16544750Y-46199999D01*
X16544750Y-46200000D01*
X16551619Y-46252178D01*
X16540469Y-46312339D01*
X16496086Y-46354456D01*
X16440544Y-46363253D01*
X16300001Y-46344750D01*
X16300000Y-46344750D01*
X16156291Y-46363669D01*
X16156290Y-46363670D01*
X16022378Y-46419137D01*
X16022374Y-46419139D01*
X15907381Y-46507377D01*
X15907377Y-46507381D01*
X15819139Y-46622374D01*
X15819137Y-46622378D01*
X15763670Y-46756290D01*
X15763669Y-46756291D01*
X15744750Y-46899999D01*
X15744750Y-46900000D01*
X15762738Y-47036636D01*
X15751588Y-47096797D01*
X15707205Y-47138914D01*
X15677508Y-47147711D01*
X15556290Y-47163670D01*
X15422378Y-47219137D01*
X15422374Y-47219139D01*
X15307381Y-47307377D01*
X15307377Y-47307381D01*
X15219139Y-47422374D01*
X15219137Y-47422378D01*
X15163670Y-47556290D01*
X15163669Y-47556291D01*
X15144750Y-47699999D01*
X15144750Y-47700001D01*
X15149797Y-47738340D01*
X15138647Y-47798500D01*
X15094264Y-47840617D01*
X15064567Y-47849414D01*
X14956291Y-47863670D01*
X14956290Y-47863670D01*
X14822378Y-47919137D01*
X14822374Y-47919139D01*
X14707381Y-48007377D01*
X14707377Y-48007381D01*
X14619139Y-48122374D01*
X14619137Y-48122378D01*
X14563670Y-48256290D01*
X14563669Y-48256291D01*
X14544750Y-48399999D01*
X14544750Y-48400000D01*
X15000Y-48400000D01*
X15000Y-43400000D01*
X36944750Y-43400000D01*
X36963669Y-43543708D01*
X36963670Y-43543709D01*
X37019139Y-43677625D01*
X37107379Y-43792621D01*
X37222375Y-43880861D01*
X37356291Y-43936330D01*
X37500000Y-43955250D01*
X37643709Y-43936330D01*
X37777625Y-43880861D01*
X37892621Y-43792621D01*
X37980861Y-43677625D01*
X38036330Y-43543709D01*
X38055250Y-43400000D01*
X38049358Y-43355250D01*
X38036330Y-43256291D01*
X37980861Y-43122375D01*
X37892621Y-43007379D01*
X37777625Y-42919139D01*
X37777621Y-42919137D01*
X37643709Y-42863670D01*
X37643708Y-42863669D01*
X37500000Y-42844750D01*
X37356291Y-42863669D01*
X37356290Y-42863670D01*
X37222378Y-42919137D01*
X37222374Y-42919139D01*
X37107381Y-43007377D01*
X37107377Y-43007381D01*
X37019139Y-43122374D01*
X37019137Y-43122378D01*
X36963670Y-43256290D01*
X36963669Y-43256291D01*
X36944750Y-43399999D01*
X36944750Y-43400000D01*
X15000Y-43400000D01*
X15000Y-42800000D01*
X1444750Y-42800000D01*
X1463669Y-42943708D01*
X1463670Y-42943709D01*
X1490042Y-43007379D01*
X1519139Y-43077625D01*
X1607379Y-43192621D01*
X1722375Y-43280861D01*
X1856291Y-43336330D01*
X2000000Y-43355250D01*
X2143709Y-43336330D01*
X2277625Y-43280861D01*
X2392621Y-43192621D01*
X2480861Y-43077625D01*
X2536330Y-42943709D01*
X2555250Y-42800000D01*
X2536330Y-42656291D01*
X2480861Y-42522375D01*
X2392621Y-42407379D01*
X2277625Y-42319139D01*
X2277621Y-42319137D01*
X2143709Y-42263670D01*
X2143708Y-42263669D01*
X2000000Y-42244750D01*
X1856291Y-42263669D01*
X1856290Y-42263670D01*
X1722378Y-42319137D01*
X1722374Y-42319139D01*
X1607381Y-42407377D01*
X1607377Y-42407381D01*
X1519139Y-42522374D01*
X1519137Y-42522378D01*
X1463670Y-42656290D01*
X1463669Y-42656291D01*
X1444750Y-42799999D01*
X1444750Y-42800000D01*
X15000Y-42800000D01*
X15000Y-41600000D01*
X33544750Y-41600000D01*
X33563669Y-41743708D01*
X33563670Y-41743709D01*
X33619139Y-41877625D01*
X33707379Y-41992621D01*
X33822375Y-42080861D01*
X33956291Y-42136330D01*
X34100000Y-42155250D01*
X34243709Y-42136330D01*
X34377625Y-42080861D01*
X34492621Y-41992621D01*
X34563692Y-41900000D01*
X36982250Y-41900000D01*
X37001169Y-42043708D01*
X37001170Y-42043709D01*
X37050858Y-42163670D01*
X37056639Y-42177625D01*
X37144879Y-42292621D01*
X37259875Y-42380861D01*
X37393791Y-42436330D01*
X37537500Y-42455250D01*
X37681209Y-42436330D01*
X37815125Y-42380861D01*
X37930121Y-42292621D01*
X38018361Y-42177625D01*
X38073830Y-42043709D01*
X38079585Y-42000000D01*
X53744750Y-42000000D01*
X53763669Y-42143708D01*
X53763670Y-42143709D01*
X53813358Y-42263670D01*
X53819139Y-42277625D01*
X53907379Y-42392621D01*
X54022375Y-42480861D01*
X54156291Y-42536330D01*
X54300000Y-42555250D01*
X54443709Y-42536330D01*
X54577625Y-42480861D01*
X54606006Y-42459083D01*
X54663680Y-42438659D01*
X54722346Y-42456035D01*
X54759594Y-42504576D01*
X54764426Y-42550547D01*
X54744750Y-42699999D01*
X54744750Y-42700000D01*
X54763669Y-42843708D01*
X54763670Y-42843709D01*
X54805090Y-42943709D01*
X54819139Y-42977625D01*
X54907379Y-43092621D01*
X55022375Y-43180861D01*
X55156291Y-43236330D01*
X55300000Y-43255250D01*
X55443709Y-43236330D01*
X55520719Y-43204431D01*
X55581712Y-43199631D01*
X55633881Y-43231600D01*
X55657296Y-43288128D01*
X55656754Y-43308818D01*
X55644750Y-43399999D01*
X55644750Y-43400000D01*
X55663669Y-43543708D01*
X55663670Y-43543709D01*
X55719139Y-43677625D01*
X55807379Y-43792621D01*
X55922375Y-43880861D01*
X56056291Y-43936330D01*
X56200000Y-43955250D01*
X56343709Y-43936330D01*
X56477625Y-43880861D01*
X56592621Y-43792621D01*
X56680861Y-43677625D01*
X56736330Y-43543709D01*
X56755250Y-43400000D01*
X56749358Y-43355250D01*
X56736330Y-43256291D01*
X56680861Y-43122375D01*
X56592621Y-43007379D01*
X56477625Y-42919139D01*
X56477621Y-42919137D01*
X56343709Y-42863670D01*
X56343708Y-42863669D01*
X56200000Y-42844750D01*
X56056291Y-42863669D01*
X56056290Y-42863670D01*
X55979283Y-42895567D01*
X55918286Y-42900367D01*
X55866117Y-42868398D01*
X55842703Y-42811869D01*
X55843244Y-42791186D01*
X55855250Y-42700000D01*
X55849495Y-42656291D01*
X55836330Y-42556291D01*
X55780861Y-42422375D01*
X55692621Y-42307379D01*
X55577625Y-42219139D01*
X55577621Y-42219137D01*
X55443709Y-42163670D01*
X55443708Y-42163669D01*
X55300000Y-42144750D01*
X55156291Y-42163669D01*
X55156290Y-42163670D01*
X55022378Y-42219137D01*
X55022370Y-42219141D01*
X54993992Y-42240917D01*
X54936316Y-42261340D01*
X54877651Y-42243962D01*
X54840404Y-42195420D01*
X54835573Y-42149451D01*
X54836328Y-42143712D01*
X54836330Y-42143709D01*
X54855250Y-42000000D01*
X54836330Y-41856291D01*
X54780861Y-41722375D01*
X54692621Y-41607379D01*
X54577625Y-41519139D01*
X54577621Y-41519137D01*
X54443709Y-41463670D01*
X54443708Y-41463669D01*
X54300000Y-41444750D01*
X54156291Y-41463669D01*
X54156290Y-41463670D01*
X54022378Y-41519137D01*
X54022374Y-41519139D01*
X53907381Y-41607377D01*
X53907377Y-41607381D01*
X53819139Y-41722374D01*
X53819137Y-41722378D01*
X53763670Y-41856290D01*
X53763669Y-41856291D01*
X53744750Y-41999999D01*
X53744750Y-42000000D01*
X38079585Y-42000000D01*
X38092750Y-41900000D01*
X38086995Y-41856291D01*
X38073830Y-41756291D01*
X38018361Y-41622375D01*
X37930121Y-41507379D01*
X37815125Y-41419139D01*
X37815121Y-41419137D01*
X37681209Y-41363670D01*
X37681208Y-41363669D01*
X37537500Y-41344750D01*
X37393791Y-41363669D01*
X37393790Y-41363670D01*
X37259878Y-41419137D01*
X37259874Y-41419139D01*
X37144881Y-41507377D01*
X37144877Y-41507381D01*
X37056639Y-41622374D01*
X37056637Y-41622378D01*
X37001170Y-41756290D01*
X37001169Y-41756291D01*
X36982250Y-41899999D01*
X36982250Y-41900000D01*
X34563692Y-41900000D01*
X34580861Y-41877625D01*
X34636330Y-41743709D01*
X34655250Y-41600000D01*
X34649358Y-41555250D01*
X34636330Y-41456291D01*
X34580861Y-41322375D01*
X34492621Y-41207379D01*
X34377625Y-41119139D01*
X34377621Y-41119137D01*
X34243709Y-41063670D01*
X34243708Y-41063669D01*
X34100000Y-41044750D01*
X33956291Y-41063669D01*
X33956290Y-41063670D01*
X33822378Y-41119137D01*
X33822374Y-41119139D01*
X33707381Y-41207377D01*
X33707377Y-41207381D01*
X33619139Y-41322374D01*
X33619137Y-41322378D01*
X33563670Y-41456290D01*
X33563669Y-41456291D01*
X33544750Y-41599999D01*
X33544750Y-41600000D01*
X15000Y-41600000D01*
X15000Y-41000000D01*
X2795250Y-41000000D01*
X2814169Y-41143708D01*
X2814170Y-41143709D01*
X2840542Y-41207379D01*
X2869639Y-41277625D01*
X2957879Y-41392621D01*
X3072875Y-41480861D01*
X3206791Y-41536330D01*
X3350500Y-41555250D01*
X3494209Y-41536330D01*
X3628125Y-41480861D01*
X3743121Y-41392621D01*
X3831361Y-41277625D01*
X3886830Y-41143709D01*
X3905750Y-41000000D01*
X16744750Y-41000000D01*
X16763669Y-41143708D01*
X16763670Y-41143709D01*
X16790042Y-41207379D01*
X16819139Y-41277625D01*
X16907379Y-41392621D01*
X17022375Y-41480861D01*
X17156291Y-41536330D01*
X17300000Y-41555250D01*
X17443709Y-41536330D01*
X17577625Y-41480861D01*
X17692621Y-41392621D01*
X17780861Y-41277625D01*
X17836330Y-41143709D01*
X17855250Y-41000000D01*
X21044750Y-41000000D01*
X21063669Y-41143708D01*
X21063670Y-41143709D01*
X21090042Y-41207379D01*
X21119139Y-41277625D01*
X21207379Y-41392621D01*
X21322375Y-41480861D01*
X21456291Y-41536330D01*
X21600000Y-41555250D01*
X21743709Y-41536330D01*
X21877625Y-41480861D01*
X21992621Y-41392621D01*
X22080861Y-41277625D01*
X22136330Y-41143709D01*
X22155250Y-41000000D01*
X22149358Y-40955250D01*
X22136330Y-40856291D01*
X22080861Y-40722375D01*
X21992621Y-40607379D01*
X21877625Y-40519139D01*
X21877621Y-40519137D01*
X21743709Y-40463670D01*
X21743708Y-40463669D01*
X21600000Y-40444750D01*
X21456291Y-40463669D01*
X21456290Y-40463670D01*
X21322378Y-40519137D01*
X21322374Y-40519139D01*
X21207381Y-40607377D01*
X21207377Y-40607381D01*
X21119139Y-40722374D01*
X21119137Y-40722378D01*
X21063670Y-40856290D01*
X21063669Y-40856291D01*
X21044750Y-40999999D01*
X21044750Y-41000000D01*
X17855250Y-41000000D01*
X17849358Y-40955250D01*
X17836330Y-40856291D01*
X17780861Y-40722375D01*
X17692621Y-40607379D01*
X17577625Y-40519139D01*
X17577621Y-40519137D01*
X17443709Y-40463670D01*
X17443708Y-40463669D01*
X17300000Y-40444750D01*
X17156291Y-40463669D01*
X17156290Y-40463670D01*
X17022378Y-40519137D01*
X17022374Y-40519139D01*
X16907381Y-40607377D01*
X16907377Y-40607381D01*
X16819139Y-40722374D01*
X16819137Y-40722378D01*
X16763670Y-40856290D01*
X16763669Y-40856291D01*
X16744750Y-40999999D01*
X16744750Y-41000000D01*
X3905750Y-41000000D01*
X3899858Y-40955250D01*
X3886830Y-40856291D01*
X3831361Y-40722375D01*
X3743121Y-40607379D01*
X3628125Y-40519139D01*
X3628121Y-40519137D01*
X3494209Y-40463670D01*
X3494208Y-40463669D01*
X3350500Y-40444750D01*
X3206791Y-40463669D01*
X3206790Y-40463670D01*
X3072878Y-40519137D01*
X3072874Y-40519139D01*
X2957881Y-40607377D01*
X2957877Y-40607381D01*
X2869639Y-40722374D01*
X2869637Y-40722378D01*
X2814170Y-40856290D01*
X2814169Y-40856291D01*
X2795250Y-40999999D01*
X2795250Y-41000000D01*
X15000Y-41000000D01*
X15000Y-40292143D01*
X4964890Y-40292143D01*
X4985527Y-40448901D01*
X4985529Y-40448909D01*
X5046034Y-40594981D01*
X5046034Y-40594982D01*
X5142285Y-40720419D01*
X5142290Y-40720425D01*
X5267731Y-40816679D01*
X5267732Y-40816679D01*
X5267733Y-40816680D01*
X5413805Y-40877185D01*
X5413810Y-40877187D01*
X5531381Y-40892665D01*
X5570571Y-40897825D01*
X5570572Y-40897825D01*
X5570573Y-40897825D01*
X5601924Y-40893697D01*
X5727334Y-40877187D01*
X5873413Y-40816679D01*
X5998854Y-40720425D01*
X6095108Y-40594984D01*
X6155616Y-40448905D01*
X6176254Y-40292143D01*
X6155616Y-40135381D01*
X6140961Y-40100000D01*
X53744750Y-40100000D01*
X53763669Y-40243708D01*
X53763670Y-40243709D01*
X53819139Y-40377625D01*
X53907379Y-40492621D01*
X54022375Y-40580861D01*
X54156291Y-40636330D01*
X54300000Y-40655250D01*
X54443709Y-40636330D01*
X54577625Y-40580861D01*
X54618176Y-40549744D01*
X54675848Y-40529321D01*
X54734515Y-40546697D01*
X54769906Y-40590402D01*
X54788930Y-40636330D01*
X54809873Y-40686891D01*
X54898113Y-40801887D01*
X55013109Y-40890127D01*
X55147025Y-40945596D01*
X55290734Y-40964516D01*
X55434443Y-40945596D01*
X55568359Y-40890127D01*
X55683355Y-40801887D01*
X55683356Y-40801885D01*
X55688502Y-40797937D01*
X55689859Y-40799705D01*
X55735549Y-40776413D01*
X55795983Y-40785972D01*
X55811324Y-40795649D01*
X55890355Y-40856291D01*
X55922375Y-40880861D01*
X56056291Y-40936330D01*
X56200000Y-40955250D01*
X56343709Y-40936330D01*
X56477625Y-40880861D01*
X56592621Y-40792621D01*
X56680861Y-40677625D01*
X56736330Y-40543709D01*
X56755250Y-40400000D01*
X56736330Y-40256291D01*
X56680861Y-40122375D01*
X56592621Y-40007379D01*
X56477625Y-39919139D01*
X56477621Y-39919137D01*
X56343709Y-39863670D01*
X56343708Y-39863669D01*
X56200000Y-39844750D01*
X56056291Y-39863669D01*
X56056290Y-39863670D01*
X55922378Y-39919137D01*
X55922374Y-39919139D01*
X55865780Y-39962566D01*
X55807379Y-40007379D01*
X55807378Y-40007380D01*
X55802232Y-40011329D01*
X55800879Y-40009566D01*
X55755142Y-40032859D01*
X55694712Y-40023274D01*
X55679409Y-40013616D01*
X55568363Y-39928408D01*
X55568362Y-39928407D01*
X55568359Y-39928405D01*
X55568356Y-39928404D01*
X55568355Y-39928403D01*
X55434443Y-39872936D01*
X55434442Y-39872935D01*
X55290734Y-39854016D01*
X55147025Y-39872935D01*
X55147024Y-39872936D01*
X55013112Y-39928403D01*
X55013104Y-39928408D01*
X54972558Y-39959520D01*
X54914882Y-39979944D01*
X54856216Y-39962566D01*
X54820827Y-39918863D01*
X54780862Y-39822378D01*
X54780861Y-39822375D01*
X54692621Y-39707379D01*
X54577625Y-39619139D01*
X54577621Y-39619137D01*
X54443709Y-39563670D01*
X54443708Y-39563669D01*
X54300000Y-39544750D01*
X54156291Y-39563669D01*
X54156290Y-39563670D01*
X54022378Y-39619137D01*
X54022374Y-39619139D01*
X53907381Y-39707377D01*
X53907377Y-39707381D01*
X53819139Y-39822374D01*
X53819137Y-39822378D01*
X53763670Y-39956290D01*
X53763669Y-39956291D01*
X53744750Y-40099999D01*
X53744750Y-40100000D01*
X6140961Y-40100000D01*
X6137990Y-40092827D01*
X6095109Y-39989304D01*
X6095109Y-39989303D01*
X5998858Y-39863866D01*
X5998857Y-39863865D01*
X5998854Y-39863861D01*
X5998849Y-39863857D01*
X5998848Y-39863856D01*
X5927676Y-39809244D01*
X5873413Y-39767607D01*
X5873412Y-39767606D01*
X5873410Y-39767605D01*
X5727338Y-39707100D01*
X5727330Y-39707098D01*
X5570573Y-39686461D01*
X5570571Y-39686461D01*
X5413813Y-39707098D01*
X5413805Y-39707100D01*
X5267733Y-39767605D01*
X5267732Y-39767605D01*
X5142295Y-39863856D01*
X5142285Y-39863866D01*
X5046034Y-39989303D01*
X5046034Y-39989304D01*
X4985529Y-40135376D01*
X4985527Y-40135384D01*
X4964890Y-40292142D01*
X4964890Y-40292143D01*
X15000Y-40292143D01*
X15000Y-39500000D01*
X7244750Y-39500000D01*
X7263669Y-39643708D01*
X7263670Y-39643709D01*
X7314988Y-39767605D01*
X7319139Y-39777625D01*
X7407379Y-39892621D01*
X7522375Y-39980861D01*
X7656291Y-40036330D01*
X7800000Y-40055250D01*
X7943709Y-40036330D01*
X8077625Y-39980861D01*
X8192621Y-39892621D01*
X8280861Y-39777625D01*
X8336330Y-39643709D01*
X8355250Y-39500000D01*
X8336330Y-39356291D01*
X8280861Y-39222375D01*
X8192621Y-39107379D01*
X8183005Y-39100000D01*
X64144750Y-39100000D01*
X64163669Y-39243708D01*
X64163670Y-39243709D01*
X64219139Y-39377625D01*
X64307379Y-39492621D01*
X64422375Y-39580861D01*
X64556291Y-39636330D01*
X64700000Y-39655250D01*
X64843709Y-39636330D01*
X64977625Y-39580861D01*
X65092621Y-39492621D01*
X65180861Y-39377625D01*
X65236330Y-39243709D01*
X65255250Y-39100000D01*
X65236330Y-38956291D01*
X65180861Y-38822375D01*
X65092621Y-38707379D01*
X64977625Y-38619139D01*
X64977621Y-38619137D01*
X64843709Y-38563670D01*
X64843708Y-38563669D01*
X64700000Y-38544750D01*
X64556291Y-38563669D01*
X64556290Y-38563670D01*
X64422378Y-38619137D01*
X64422374Y-38619139D01*
X64307381Y-38707377D01*
X64307377Y-38707381D01*
X64219139Y-38822374D01*
X64219137Y-38822378D01*
X64163670Y-38956290D01*
X64163669Y-38956291D01*
X64144750Y-39099999D01*
X64144750Y-39100000D01*
X8183005Y-39100000D01*
X8077625Y-39019139D01*
X8077621Y-39019137D01*
X7943709Y-38963670D01*
X7943708Y-38963669D01*
X7800000Y-38944750D01*
X7656291Y-38963669D01*
X7656290Y-38963670D01*
X7522378Y-39019137D01*
X7522374Y-39019139D01*
X7407381Y-39107377D01*
X7407377Y-39107381D01*
X7319139Y-39222374D01*
X7319137Y-39222378D01*
X7263670Y-39356290D01*
X7263669Y-39356291D01*
X7244750Y-39499999D01*
X7244750Y-39500000D01*
X15000Y-39500000D01*
X15000Y-38800000D01*
X2544750Y-38800000D01*
X2563669Y-38943708D01*
X2563670Y-38943709D01*
X2594913Y-39019139D01*
X2619139Y-39077625D01*
X2707379Y-39192621D01*
X2822375Y-39280861D01*
X2956291Y-39336330D01*
X3100000Y-39355250D01*
X3243709Y-39336330D01*
X3377625Y-39280861D01*
X3492621Y-39192621D01*
X3580861Y-39077625D01*
X3636330Y-38943709D01*
X3655250Y-38800000D01*
X3652730Y-38780862D01*
X3636330Y-38656291D01*
X3580861Y-38522375D01*
X3492621Y-38407379D01*
X3377625Y-38319139D01*
X3377621Y-38319137D01*
X3243709Y-38263670D01*
X3243708Y-38263669D01*
X3100000Y-38244750D01*
X2956291Y-38263669D01*
X2956290Y-38263670D01*
X2822378Y-38319137D01*
X2822374Y-38319139D01*
X2707381Y-38407377D01*
X2707377Y-38407381D01*
X2619139Y-38522374D01*
X2619137Y-38522378D01*
X2563670Y-38656290D01*
X2563669Y-38656291D01*
X2544750Y-38799999D01*
X2544750Y-38800000D01*
X15000Y-38800000D01*
X15000Y-37900000D01*
X4094318Y-37900000D01*
X4114955Y-38056758D01*
X4114957Y-38056766D01*
X4175462Y-38202838D01*
X4175462Y-38202839D01*
X4264702Y-38319139D01*
X4271718Y-38328282D01*
X4397159Y-38424536D01*
X4397160Y-38424536D01*
X4397161Y-38424537D01*
X4543233Y-38485042D01*
X4543238Y-38485044D01*
X4660809Y-38500522D01*
X4699999Y-38505682D01*
X4700000Y-38505682D01*
X4700001Y-38505682D01*
X4731352Y-38501554D01*
X4856762Y-38485044D01*
X5002841Y-38424536D01*
X5128282Y-38328282D01*
X5149983Y-38300000D01*
X67144750Y-38300000D01*
X67163669Y-38443708D01*
X67163670Y-38443709D01*
X67213358Y-38563670D01*
X67219139Y-38577625D01*
X67307379Y-38692621D01*
X67422375Y-38780861D01*
X67556291Y-38836330D01*
X67700000Y-38855250D01*
X67843709Y-38836330D01*
X67977625Y-38780861D01*
X68092621Y-38692621D01*
X68180861Y-38577625D01*
X68236330Y-38443709D01*
X68255250Y-38300000D01*
X68236330Y-38156291D01*
X68180861Y-38022375D01*
X68092621Y-37907379D01*
X67977625Y-37819139D01*
X67977621Y-37819137D01*
X67843709Y-37763670D01*
X67843708Y-37763669D01*
X67700000Y-37744750D01*
X67556291Y-37763669D01*
X67556290Y-37763670D01*
X67422378Y-37819137D01*
X67422374Y-37819139D01*
X67307381Y-37907377D01*
X67307377Y-37907381D01*
X67219139Y-38022374D01*
X67219137Y-38022378D01*
X67163670Y-38156290D01*
X67163669Y-38156291D01*
X67144750Y-38299999D01*
X67144750Y-38300000D01*
X5149983Y-38300000D01*
X5224536Y-38202841D01*
X5285044Y-38056762D01*
X5305682Y-37900000D01*
X5285044Y-37743238D01*
X5248951Y-37656102D01*
X59848421Y-37656102D01*
X59867340Y-37799810D01*
X59867341Y-37799811D01*
X59911895Y-37907377D01*
X59922810Y-37933727D01*
X60011050Y-38048723D01*
X60126046Y-38136963D01*
X60259962Y-38192432D01*
X60403671Y-38211352D01*
X60547380Y-38192432D01*
X60681296Y-38136963D01*
X60796292Y-38048723D01*
X60884532Y-37933727D01*
X60940001Y-37799811D01*
X60958921Y-37656102D01*
X60940001Y-37512393D01*
X60884532Y-37378477D01*
X60796292Y-37263481D01*
X60681296Y-37175241D01*
X60681292Y-37175239D01*
X60547380Y-37119772D01*
X60547379Y-37119771D01*
X60403671Y-37100852D01*
X60259962Y-37119771D01*
X60259961Y-37119772D01*
X60126049Y-37175239D01*
X60126045Y-37175241D01*
X60011052Y-37263479D01*
X60011048Y-37263483D01*
X59922810Y-37378476D01*
X59922808Y-37378480D01*
X59867341Y-37512392D01*
X59867340Y-37512393D01*
X59848421Y-37656101D01*
X59848421Y-37656102D01*
X5248951Y-37656102D01*
X5224537Y-37597161D01*
X5224537Y-37597160D01*
X5128286Y-37471723D01*
X5128285Y-37471722D01*
X5128282Y-37471718D01*
X5128277Y-37471714D01*
X5128276Y-37471713D01*
X5057104Y-37417101D01*
X5002841Y-37375464D01*
X5002840Y-37375463D01*
X5002838Y-37375462D01*
X4856766Y-37314957D01*
X4856758Y-37314955D01*
X4700001Y-37294318D01*
X4699999Y-37294318D01*
X4543241Y-37314955D01*
X4543233Y-37314957D01*
X4397161Y-37375462D01*
X4397160Y-37375462D01*
X4271723Y-37471713D01*
X4271713Y-37471723D01*
X4175462Y-37597160D01*
X4175462Y-37597161D01*
X4114957Y-37743233D01*
X4114955Y-37743241D01*
X4094318Y-37899999D01*
X4094318Y-37900000D01*
X15000Y-37900000D01*
X15000Y-36200000D01*
X4769318Y-36200000D01*
X4789955Y-36356758D01*
X4789957Y-36356766D01*
X4850462Y-36502838D01*
X4850462Y-36502839D01*
X4910331Y-36580862D01*
X4946718Y-36628282D01*
X5072159Y-36724536D01*
X5072160Y-36724536D01*
X5072161Y-36724537D01*
X5100632Y-36736330D01*
X5218238Y-36785044D01*
X5335809Y-36800522D01*
X5374999Y-36805682D01*
X5375000Y-36805682D01*
X5375001Y-36805682D01*
X5406352Y-36801554D01*
X5531762Y-36785044D01*
X5677841Y-36724536D01*
X5803282Y-36628282D01*
X5899536Y-36502841D01*
X5960044Y-36356762D01*
X5980682Y-36200000D01*
X5967517Y-36100000D01*
X9844750Y-36100000D01*
X9863669Y-36243708D01*
X9863670Y-36243709D01*
X9910495Y-36356758D01*
X9919139Y-36377625D01*
X10007379Y-36492621D01*
X10122375Y-36580861D01*
X10256291Y-36636330D01*
X10400000Y-36655250D01*
X10543709Y-36636330D01*
X10677625Y-36580861D01*
X10792621Y-36492621D01*
X10880861Y-36377625D01*
X10936330Y-36243709D01*
X10942085Y-36200000D01*
X16244750Y-36200000D01*
X16263669Y-36343708D01*
X16263670Y-36343709D01*
X16319139Y-36477625D01*
X16407379Y-36592621D01*
X16522375Y-36680861D01*
X16656291Y-36736330D01*
X16800000Y-36755250D01*
X16943709Y-36736330D01*
X17077625Y-36680861D01*
X17192621Y-36592621D01*
X17280861Y-36477625D01*
X17336330Y-36343709D01*
X17355250Y-36200000D01*
X17336330Y-36056291D01*
X17280861Y-35922375D01*
X17192621Y-35807379D01*
X17077625Y-35719139D01*
X17077621Y-35719137D01*
X16943709Y-35663670D01*
X16943708Y-35663669D01*
X16800000Y-35644750D01*
X16656291Y-35663669D01*
X16656290Y-35663670D01*
X16522378Y-35719137D01*
X16522374Y-35719139D01*
X16407381Y-35807377D01*
X16407377Y-35807381D01*
X16319139Y-35922374D01*
X16319137Y-35922378D01*
X16263670Y-36056290D01*
X16263669Y-36056291D01*
X16244750Y-36199999D01*
X16244750Y-36200000D01*
X10942085Y-36200000D01*
X10955250Y-36100000D01*
X10949495Y-36056291D01*
X10936330Y-35956291D01*
X10880861Y-35822375D01*
X10792621Y-35707379D01*
X10677625Y-35619139D01*
X10677621Y-35619137D01*
X10543709Y-35563670D01*
X10543708Y-35563669D01*
X10400000Y-35544750D01*
X10256291Y-35563669D01*
X10256290Y-35563670D01*
X10122378Y-35619137D01*
X10122374Y-35619139D01*
X10007381Y-35707377D01*
X10007377Y-35707381D01*
X9919139Y-35822374D01*
X9919137Y-35822378D01*
X9863670Y-35956290D01*
X9863669Y-35956291D01*
X9844750Y-36099999D01*
X9844750Y-36100000D01*
X5967517Y-36100000D01*
X5960044Y-36043238D01*
X5909981Y-35922375D01*
X5899537Y-35897161D01*
X5899537Y-35897160D01*
X5803286Y-35771723D01*
X5803285Y-35771722D01*
X5803282Y-35771718D01*
X5803277Y-35771714D01*
X5803276Y-35771713D01*
X5719436Y-35707381D01*
X5677841Y-35675464D01*
X5677840Y-35675463D01*
X5677838Y-35675462D01*
X5531766Y-35614957D01*
X5531758Y-35614955D01*
X5375001Y-35594318D01*
X5374999Y-35594318D01*
X5218241Y-35614955D01*
X5218233Y-35614957D01*
X5072161Y-35675462D01*
X5072160Y-35675462D01*
X4946723Y-35771713D01*
X4946713Y-35771723D01*
X4850462Y-35897160D01*
X4850462Y-35897161D01*
X4789957Y-36043233D01*
X4789955Y-36043241D01*
X4769318Y-36199999D01*
X4769318Y-36200000D01*
X15000Y-36200000D01*
X15000Y-33000000D01*
X54444750Y-33000000D01*
X54463669Y-33143708D01*
X54463670Y-33143709D01*
X54496253Y-33222374D01*
X54519139Y-33277625D01*
X54607379Y-33392621D01*
X54722375Y-33480861D01*
X54856291Y-33536330D01*
X55000000Y-33555250D01*
X55143709Y-33536330D01*
X55231419Y-33500000D01*
X59944750Y-33500000D01*
X59963669Y-33643708D01*
X59963670Y-33643709D01*
X60019139Y-33777625D01*
X60107379Y-33892621D01*
X60222375Y-33980861D01*
X60356291Y-34036330D01*
X60500000Y-34055250D01*
X60643709Y-34036330D01*
X60777625Y-33980861D01*
X60892621Y-33892621D01*
X60980861Y-33777625D01*
X61036330Y-33643709D01*
X61055250Y-33500000D01*
X61052730Y-33480862D01*
X61036330Y-33356291D01*
X60980861Y-33222375D01*
X60892621Y-33107379D01*
X60777625Y-33019139D01*
X60777621Y-33019137D01*
X60643709Y-32963670D01*
X60643708Y-32963669D01*
X60500000Y-32944750D01*
X60356291Y-32963669D01*
X60356290Y-32963670D01*
X60222378Y-33019137D01*
X60222374Y-33019139D01*
X60107381Y-33107377D01*
X60107377Y-33107381D01*
X60019139Y-33222374D01*
X60019137Y-33222378D01*
X59963670Y-33356290D01*
X59963669Y-33356291D01*
X59944750Y-33499999D01*
X59944750Y-33500000D01*
X55231419Y-33500000D01*
X55277625Y-33480861D01*
X55392621Y-33392621D01*
X55480861Y-33277625D01*
X55536330Y-33143709D01*
X55555250Y-33000000D01*
X55536330Y-32856291D01*
X55480861Y-32722375D01*
X55392621Y-32607379D01*
X55277625Y-32519139D01*
X55277621Y-32519137D01*
X55143709Y-32463670D01*
X55143708Y-32463669D01*
X55000000Y-32444750D01*
X54856291Y-32463669D01*
X54856290Y-32463670D01*
X54722378Y-32519137D01*
X54722374Y-32519139D01*
X54607381Y-32607377D01*
X54607377Y-32607381D01*
X54519139Y-32722374D01*
X54519137Y-32722378D01*
X54463670Y-32856290D01*
X54463669Y-32856291D01*
X54444750Y-32999999D01*
X54444750Y-33000000D01*
X15000Y-33000000D01*
X15000Y-31948393D01*
X12145823Y-31948393D01*
X12175096Y-32139474D01*
X12242233Y-32320749D01*
X12294979Y-32405372D01*
X12338879Y-32475804D01*
X12344492Y-32484808D01*
X12344497Y-32484814D01*
X12382256Y-32524536D01*
X12477677Y-32624919D01*
X12559689Y-32682001D01*
X12636334Y-32735348D01*
X12636337Y-32735350D01*
X12636342Y-32735353D01*
X12813988Y-32811587D01*
X13003344Y-32850500D01*
X13003347Y-32850500D01*
X14148208Y-32850500D01*
X14172564Y-32848023D01*
X14292321Y-32835845D01*
X14476768Y-32777974D01*
X14645791Y-32684159D01*
X14792468Y-32558240D01*
X14910796Y-32405373D01*
X14995930Y-32231816D01*
X15044385Y-32044674D01*
X15054176Y-31851610D01*
X15024903Y-31660526D01*
X15024903Y-31660525D01*
X14957766Y-31479250D01*
X14923663Y-31424537D01*
X14855509Y-31315193D01*
X14855506Y-31315190D01*
X14855502Y-31315185D01*
X14722324Y-31175082D01*
X14563665Y-31064651D01*
X14563654Y-31064645D01*
X14386013Y-30988413D01*
X14338673Y-30978684D01*
X14196656Y-30949500D01*
X13051794Y-30949500D01*
X13051792Y-30949500D01*
X12907678Y-30964155D01*
X12723231Y-31022026D01*
X12723229Y-31022027D01*
X12554212Y-31115838D01*
X12554209Y-31115840D01*
X12407531Y-31241759D01*
X12289203Y-31394627D01*
X12204071Y-31568180D01*
X12155614Y-31755328D01*
X12155614Y-31755332D01*
X12145824Y-31948390D01*
X12145823Y-31948393D01*
X15000Y-31948393D01*
X15000Y-30900000D01*
X17094318Y-30900000D01*
X17114955Y-31056758D01*
X17114957Y-31056766D01*
X17175462Y-31202838D01*
X17175462Y-31202839D01*
X17271713Y-31328276D01*
X17271718Y-31328282D01*
X17397159Y-31424536D01*
X17543238Y-31485044D01*
X17641154Y-31497934D01*
X17696379Y-31524274D01*
X17725574Y-31578045D01*
X17717588Y-31638707D01*
X17706775Y-31656353D01*
X17675462Y-31697161D01*
X17614957Y-31843233D01*
X17614955Y-31843241D01*
X17594318Y-31999999D01*
X17594318Y-32000000D01*
X17614955Y-32156758D01*
X17614957Y-32156766D01*
X17675462Y-32302838D01*
X17675462Y-32302839D01*
X17754139Y-32405373D01*
X17771718Y-32428282D01*
X17897159Y-32524536D01*
X17897160Y-32524536D01*
X17897161Y-32524537D01*
X18043233Y-32585042D01*
X18043238Y-32585044D01*
X18160809Y-32600522D01*
X18199999Y-32605682D01*
X18200000Y-32605682D01*
X18200001Y-32605682D01*
X18231352Y-32601554D01*
X18356762Y-32585044D01*
X18502841Y-32524536D01*
X18539733Y-32496227D01*
X18597408Y-32475804D01*
X18656074Y-32493181D01*
X18660257Y-32496220D01*
X18697159Y-32524536D01*
X18697160Y-32524536D01*
X18697161Y-32524537D01*
X18843233Y-32585042D01*
X18843238Y-32585044D01*
X18960809Y-32600522D01*
X18999999Y-32605682D01*
X19000000Y-32605682D01*
X19000001Y-32605682D01*
X19031352Y-32601554D01*
X19156762Y-32585044D01*
X19302841Y-32524536D01*
X19428282Y-32428282D01*
X19524536Y-32302841D01*
X19585044Y-32156762D01*
X19605682Y-32000000D01*
X19585044Y-31843238D01*
X19548632Y-31755332D01*
X19524537Y-31697161D01*
X19524537Y-31697160D01*
X19428286Y-31571723D01*
X19428285Y-31571722D01*
X19428282Y-31571718D01*
X19428277Y-31571714D01*
X19428276Y-31571713D01*
X19339733Y-31503772D01*
X19302841Y-31475464D01*
X19302840Y-31475463D01*
X19302838Y-31475462D01*
X19156766Y-31414957D01*
X19156758Y-31414955D01*
X19000001Y-31394318D01*
X18999999Y-31394318D01*
X18843241Y-31414955D01*
X18843238Y-31414955D01*
X18843238Y-31414956D01*
X18810143Y-31428664D01*
X18697160Y-31475463D01*
X18697157Y-31475465D01*
X18660267Y-31503772D01*
X18602591Y-31524196D01*
X18543925Y-31506818D01*
X18539733Y-31503772D01*
X18502842Y-31475465D01*
X18502841Y-31475464D01*
X18502836Y-31475462D01*
X18469746Y-31461755D01*
X18356762Y-31414956D01*
X18356759Y-31414955D01*
X18356758Y-31414955D01*
X18258845Y-31402065D01*
X18203620Y-31375724D01*
X18174425Y-31321953D01*
X18182411Y-31261291D01*
X18193222Y-31243649D01*
X18224536Y-31202841D01*
X18285044Y-31056762D01*
X18305682Y-30900000D01*
X18303162Y-30880862D01*
X18285044Y-30743241D01*
X18285044Y-30743238D01*
X18225713Y-30600000D01*
X19594318Y-30600000D01*
X19614955Y-30756758D01*
X19614957Y-30756766D01*
X19675462Y-30902838D01*
X19675462Y-30902839D01*
X19766918Y-31022027D01*
X19771718Y-31028282D01*
X19897159Y-31124536D01*
X19897160Y-31124536D01*
X19897161Y-31124537D01*
X20043233Y-31185042D01*
X20043238Y-31185044D01*
X20160809Y-31200522D01*
X20199999Y-31205682D01*
X20200000Y-31205682D01*
X20200001Y-31205682D01*
X20231352Y-31201554D01*
X20356762Y-31185044D01*
X20502841Y-31124536D01*
X20628282Y-31028282D01*
X20724536Y-30902841D01*
X20785044Y-30756762D01*
X20792517Y-30700000D01*
X22194318Y-30700000D01*
X22214955Y-30856758D01*
X22214957Y-30856766D01*
X22275462Y-31002838D01*
X22275462Y-31002839D01*
X22368844Y-31124537D01*
X22371718Y-31128282D01*
X22497159Y-31224536D01*
X22497160Y-31224536D01*
X22497161Y-31224537D01*
X22585893Y-31261291D01*
X22643238Y-31285044D01*
X22760809Y-31300522D01*
X22799999Y-31305682D01*
X22800000Y-31305682D01*
X22800001Y-31305682D01*
X22831352Y-31301554D01*
X22956762Y-31285044D01*
X23102841Y-31224536D01*
X23228282Y-31128282D01*
X23324536Y-31002841D01*
X23385044Y-30856762D01*
X23405682Y-30700000D01*
X23385044Y-30543238D01*
X23385042Y-30543233D01*
X23325713Y-30400000D01*
X59544750Y-30400000D01*
X59563669Y-30543708D01*
X59563670Y-30543709D01*
X59619139Y-30677625D01*
X59707379Y-30792621D01*
X59822375Y-30880861D01*
X59956291Y-30936330D01*
X60100000Y-30955250D01*
X60243709Y-30936330D01*
X60377625Y-30880861D01*
X60439732Y-30833203D01*
X60497407Y-30812779D01*
X60556073Y-30830156D01*
X60560268Y-30833204D01*
X60622369Y-30880857D01*
X60622371Y-30880858D01*
X60622375Y-30880861D01*
X60756291Y-30936330D01*
X60900000Y-30955250D01*
X61043709Y-30936330D01*
X61177625Y-30880861D01*
X61292621Y-30792621D01*
X61380861Y-30677625D01*
X61436330Y-30543709D01*
X61455250Y-30400000D01*
X61452019Y-30375462D01*
X61436330Y-30256291D01*
X61380861Y-30122375D01*
X61292621Y-30007379D01*
X61177625Y-29919139D01*
X61177621Y-29919137D01*
X61043709Y-29863670D01*
X61043708Y-29863669D01*
X60900000Y-29844750D01*
X60756291Y-29863669D01*
X60756290Y-29863670D01*
X60622378Y-29919137D01*
X60622374Y-29919139D01*
X60560268Y-29966796D01*
X60502592Y-29987220D01*
X60443926Y-29969843D01*
X60439732Y-29966796D01*
X60377625Y-29919139D01*
X60377621Y-29919137D01*
X60243709Y-29863670D01*
X60243708Y-29863669D01*
X60100000Y-29844750D01*
X59956291Y-29863669D01*
X59956290Y-29863670D01*
X59822378Y-29919137D01*
X59822374Y-29919139D01*
X59707381Y-30007377D01*
X59707377Y-30007381D01*
X59619139Y-30122374D01*
X59619137Y-30122378D01*
X59563670Y-30256290D01*
X59563669Y-30256291D01*
X59544750Y-30399999D01*
X59544750Y-30400000D01*
X23325713Y-30400000D01*
X23324537Y-30397161D01*
X23324537Y-30397160D01*
X23228286Y-30271723D01*
X23228285Y-30271722D01*
X23228282Y-30271718D01*
X23228277Y-30271714D01*
X23228276Y-30271713D01*
X23102838Y-30175462D01*
X22956766Y-30114957D01*
X22956758Y-30114955D01*
X22800001Y-30094318D01*
X22799999Y-30094318D01*
X22643241Y-30114955D01*
X22643233Y-30114957D01*
X22497161Y-30175462D01*
X22497160Y-30175462D01*
X22371723Y-30271713D01*
X22371713Y-30271723D01*
X22275462Y-30397160D01*
X22275462Y-30397161D01*
X22214957Y-30543233D01*
X22214955Y-30543241D01*
X22194318Y-30699999D01*
X22194318Y-30700000D01*
X20792517Y-30700000D01*
X20805682Y-30600000D01*
X20785044Y-30443238D01*
X20765958Y-30397160D01*
X20724537Y-30297161D01*
X20724537Y-30297160D01*
X20628286Y-30171723D01*
X20628285Y-30171722D01*
X20628282Y-30171718D01*
X20628277Y-30171714D01*
X20628276Y-30171713D01*
X20502838Y-30075462D01*
X20356766Y-30014957D01*
X20356758Y-30014955D01*
X20200001Y-29994318D01*
X20199999Y-29994318D01*
X20043241Y-30014955D01*
X20043233Y-30014957D01*
X19897161Y-30075462D01*
X19897160Y-30075462D01*
X19771723Y-30171713D01*
X19771713Y-30171723D01*
X19675462Y-30297160D01*
X19675462Y-30297161D01*
X19614957Y-30443233D01*
X19614955Y-30443241D01*
X19594318Y-30599999D01*
X19594318Y-30600000D01*
X18225713Y-30600000D01*
X18224537Y-30597161D01*
X18224537Y-30597160D01*
X18128286Y-30471723D01*
X18128285Y-30471722D01*
X18128282Y-30471718D01*
X18128277Y-30471714D01*
X18128276Y-30471713D01*
X18031116Y-30397160D01*
X18002841Y-30375464D01*
X18002840Y-30375463D01*
X18002838Y-30375462D01*
X17856766Y-30314957D01*
X17856758Y-30314955D01*
X17700001Y-30294318D01*
X17699999Y-30294318D01*
X17543241Y-30314955D01*
X17543233Y-30314957D01*
X17397161Y-30375462D01*
X17397160Y-30375462D01*
X17271723Y-30471713D01*
X17271713Y-30471723D01*
X17175462Y-30597160D01*
X17175462Y-30597161D01*
X17114957Y-30743233D01*
X17114955Y-30743241D01*
X17094318Y-30899999D01*
X17094318Y-30900000D01*
X15000Y-30900000D01*
X15000Y-29408393D01*
X12145823Y-29408393D01*
X12175096Y-29599474D01*
X12242233Y-29780749D01*
X12344492Y-29944808D01*
X12344497Y-29944814D01*
X12414294Y-30018240D01*
X12477677Y-30084919D01*
X12520834Y-30114957D01*
X12636334Y-30195348D01*
X12636337Y-30195350D01*
X12636342Y-30195353D01*
X12813988Y-30271587D01*
X13003344Y-30310500D01*
X13003347Y-30310500D01*
X14148208Y-30310500D01*
X14172564Y-30308023D01*
X14292321Y-30295845D01*
X14476768Y-30237974D01*
X14645791Y-30144159D01*
X14792468Y-30018240D01*
X14910796Y-29865373D01*
X14995930Y-29691816D01*
X15044385Y-29504674D01*
X15054176Y-29311610D01*
X15024903Y-29120526D01*
X15024903Y-29120525D01*
X14980265Y-29000000D01*
X32194318Y-29000000D01*
X32214955Y-29156758D01*
X32214957Y-29156766D01*
X32275462Y-29302838D01*
X32275462Y-29302839D01*
X32371713Y-29428276D01*
X32371718Y-29428282D01*
X32497159Y-29524536D01*
X32643238Y-29585044D01*
X32760809Y-29600522D01*
X32799999Y-29605682D01*
X32800000Y-29605682D01*
X32800001Y-29605682D01*
X32831352Y-29601554D01*
X32956762Y-29585044D01*
X33102841Y-29524536D01*
X33228282Y-29428282D01*
X33324536Y-29302841D01*
X33385044Y-29156762D01*
X33405682Y-29000000D01*
X33403162Y-28980862D01*
X33385044Y-28843241D01*
X33385044Y-28843238D01*
X33356858Y-28775191D01*
X33324537Y-28697161D01*
X33324537Y-28697160D01*
X33228286Y-28571723D01*
X33228285Y-28571722D01*
X33228282Y-28571718D01*
X33228277Y-28571714D01*
X33228276Y-28571713D01*
X33134817Y-28500000D01*
X59544750Y-28500000D01*
X59563669Y-28643708D01*
X59563670Y-28643709D01*
X59618131Y-28775193D01*
X59619139Y-28777625D01*
X59707379Y-28892621D01*
X59822375Y-28980861D01*
X59956291Y-29036330D01*
X60100000Y-29055250D01*
X60243709Y-29036330D01*
X60377625Y-28980861D01*
X60439732Y-28933203D01*
X60497407Y-28912779D01*
X60556073Y-28930156D01*
X60560268Y-28933204D01*
X60622369Y-28980857D01*
X60622371Y-28980858D01*
X60622375Y-28980861D01*
X60756291Y-29036330D01*
X60900000Y-29055250D01*
X61043709Y-29036330D01*
X61177625Y-28980861D01*
X61292621Y-28892621D01*
X61380861Y-28777625D01*
X61436330Y-28643709D01*
X61455250Y-28500000D01*
X61452019Y-28475462D01*
X61436330Y-28356291D01*
X61380861Y-28222375D01*
X61363692Y-28200000D01*
X63544750Y-28200000D01*
X63563669Y-28343708D01*
X63563670Y-28343709D01*
X63593180Y-28414955D01*
X63619139Y-28477625D01*
X63707379Y-28592621D01*
X63822375Y-28680861D01*
X63956291Y-28736330D01*
X64100000Y-28755250D01*
X64243709Y-28736330D01*
X64377625Y-28680861D01*
X64492621Y-28592621D01*
X64580861Y-28477625D01*
X64636330Y-28343709D01*
X64655250Y-28200000D01*
X64636330Y-28056291D01*
X64580861Y-27922375D01*
X64571571Y-27910269D01*
X64551146Y-27852594D01*
X64568522Y-27793928D01*
X64571565Y-27789739D01*
X64580861Y-27777625D01*
X64636330Y-27643709D01*
X64655250Y-27500000D01*
X64636330Y-27356291D01*
X64580861Y-27222375D01*
X64563692Y-27200000D01*
X66144750Y-27200000D01*
X66163669Y-27343708D01*
X66163670Y-27343709D01*
X66219139Y-27477625D01*
X66307379Y-27592621D01*
X66422375Y-27680861D01*
X66556291Y-27736330D01*
X66700000Y-27755250D01*
X66843709Y-27736330D01*
X66977625Y-27680861D01*
X67092621Y-27592621D01*
X67180861Y-27477625D01*
X67236330Y-27343709D01*
X67255250Y-27200000D01*
X67236330Y-27056291D01*
X67236329Y-27056290D01*
X67235483Y-27049858D01*
X67237245Y-27049625D01*
X67239997Y-26996964D01*
X67278494Y-26949408D01*
X67337592Y-26933562D01*
X67349855Y-26935504D01*
X67349858Y-26935483D01*
X67356290Y-26936329D01*
X67356291Y-26936330D01*
X67500000Y-26955250D01*
X67643709Y-26936330D01*
X67777625Y-26880861D01*
X67892621Y-26792621D01*
X67980861Y-26677625D01*
X68036330Y-26543709D01*
X68055250Y-26400000D01*
X68036330Y-26256291D01*
X67980861Y-26122375D01*
X67892621Y-26007379D01*
X67777625Y-25919139D01*
X67777621Y-25919137D01*
X67643709Y-25863670D01*
X67643708Y-25863669D01*
X67500000Y-25844750D01*
X67356291Y-25863669D01*
X67356290Y-25863670D01*
X67222378Y-25919137D01*
X67222374Y-25919139D01*
X67160268Y-25966796D01*
X67102592Y-25987220D01*
X67043926Y-25969843D01*
X67039732Y-25966796D01*
X66989545Y-25928286D01*
X66977625Y-25919139D01*
X66977621Y-25919137D01*
X66843709Y-25863670D01*
X66843708Y-25863669D01*
X66700000Y-25844750D01*
X66556291Y-25863669D01*
X66556290Y-25863670D01*
X66422378Y-25919137D01*
X66422374Y-25919139D01*
X66307381Y-26007377D01*
X66307377Y-26007381D01*
X66219139Y-26122374D01*
X66219137Y-26122378D01*
X66163670Y-26256290D01*
X66163669Y-26256291D01*
X66144750Y-26399999D01*
X66144750Y-26400000D01*
X66163669Y-26543708D01*
X66163670Y-26543709D01*
X66219137Y-26677621D01*
X66219139Y-26677625D01*
X66266796Y-26739732D01*
X66287220Y-26797408D01*
X66269843Y-26856074D01*
X66266802Y-26860258D01*
X66260561Y-26868393D01*
X66219139Y-26922374D01*
X66219137Y-26922378D01*
X66163670Y-27056290D01*
X66163669Y-27056291D01*
X66144750Y-27199999D01*
X66144750Y-27200000D01*
X64563692Y-27200000D01*
X64492621Y-27107379D01*
X64377625Y-27019139D01*
X64377621Y-27019137D01*
X64243709Y-26963670D01*
X64243708Y-26963669D01*
X64100000Y-26944750D01*
X63956291Y-26963669D01*
X63956290Y-26963670D01*
X63822378Y-27019137D01*
X63822374Y-27019139D01*
X63707381Y-27107377D01*
X63707377Y-27107381D01*
X63619139Y-27222374D01*
X63619137Y-27222378D01*
X63563670Y-27356290D01*
X63563669Y-27356291D01*
X63544750Y-27499999D01*
X63544750Y-27500000D01*
X63563669Y-27643708D01*
X63563670Y-27643709D01*
X63616187Y-27770500D01*
X63619139Y-27777625D01*
X63619141Y-27777627D01*
X63628431Y-27789735D01*
X63648853Y-27847412D01*
X63631473Y-27906077D01*
X63628431Y-27910265D01*
X63619139Y-27922375D01*
X63619137Y-27922378D01*
X63563670Y-28056290D01*
X63563669Y-28056291D01*
X63544750Y-28199999D01*
X63544750Y-28200000D01*
X61363692Y-28200000D01*
X61292621Y-28107379D01*
X61177625Y-28019139D01*
X61177621Y-28019137D01*
X61043709Y-27963670D01*
X61043708Y-27963669D01*
X60900000Y-27944750D01*
X60756291Y-27963669D01*
X60756290Y-27963670D01*
X60622378Y-28019137D01*
X60622374Y-28019139D01*
X60560268Y-28066796D01*
X60502592Y-28087220D01*
X60443926Y-28069843D01*
X60439732Y-28066796D01*
X60426040Y-28056290D01*
X60377625Y-28019139D01*
X60377621Y-28019137D01*
X60243709Y-27963670D01*
X60243708Y-27963669D01*
X60100000Y-27944750D01*
X59956291Y-27963669D01*
X59956290Y-27963670D01*
X59822378Y-28019137D01*
X59822374Y-28019139D01*
X59707381Y-28107377D01*
X59707377Y-28107381D01*
X59619139Y-28222374D01*
X59619137Y-28222378D01*
X59563670Y-28356290D01*
X59563669Y-28356291D01*
X59544750Y-28499999D01*
X59544750Y-28500000D01*
X33134817Y-28500000D01*
X33111394Y-28482027D01*
X33102841Y-28475464D01*
X33102840Y-28475463D01*
X33102838Y-28475462D01*
X32956766Y-28414957D01*
X32956758Y-28414955D01*
X32800001Y-28394318D01*
X32799999Y-28394318D01*
X32643241Y-28414955D01*
X32643233Y-28414957D01*
X32497161Y-28475462D01*
X32497160Y-28475462D01*
X32371723Y-28571713D01*
X32371713Y-28571723D01*
X32275462Y-28697160D01*
X32275462Y-28697161D01*
X32214957Y-28843233D01*
X32214955Y-28843241D01*
X32194318Y-28999999D01*
X32194318Y-29000000D01*
X14980265Y-29000000D01*
X14957766Y-28939250D01*
X14941266Y-28912779D01*
X14855509Y-28775193D01*
X14855506Y-28775190D01*
X14855502Y-28775185D01*
X14722324Y-28635082D01*
X14563665Y-28524651D01*
X14563654Y-28524645D01*
X14386013Y-28448413D01*
X14338673Y-28438684D01*
X14196656Y-28409500D01*
X13051794Y-28409500D01*
X13051792Y-28409500D01*
X12907678Y-28424155D01*
X12723231Y-28482026D01*
X12723229Y-28482027D01*
X12554212Y-28575838D01*
X12554209Y-28575840D01*
X12407531Y-28701759D01*
X12289203Y-28854627D01*
X12204071Y-29028180D01*
X12155614Y-29215328D01*
X12155614Y-29215332D01*
X12145824Y-29408390D01*
X12145823Y-29408393D01*
X15000Y-29408393D01*
X15000Y-28500000D01*
X344750Y-28500000D01*
X363669Y-28643708D01*
X363670Y-28643709D01*
X418131Y-28775193D01*
X419139Y-28777625D01*
X507379Y-28892621D01*
X622375Y-28980861D01*
X756291Y-29036330D01*
X900000Y-29055250D01*
X1043709Y-29036330D01*
X1177625Y-28980861D01*
X1292621Y-28892621D01*
X1380861Y-28777625D01*
X1436330Y-28643709D01*
X1455250Y-28500000D01*
X1452019Y-28475462D01*
X1436330Y-28356291D01*
X1380861Y-28222375D01*
X1292621Y-28107379D01*
X1177625Y-28019139D01*
X1177621Y-28019137D01*
X1043709Y-27963670D01*
X1043708Y-27963669D01*
X900000Y-27944750D01*
X756291Y-27963669D01*
X756290Y-27963670D01*
X622378Y-28019137D01*
X622374Y-28019139D01*
X507381Y-28107377D01*
X507377Y-28107381D01*
X419139Y-28222374D01*
X419137Y-28222378D01*
X363670Y-28356290D01*
X363669Y-28356291D01*
X344750Y-28499999D01*
X344750Y-28500000D01*
X15000Y-28500000D01*
X15000Y-26868393D01*
X12145823Y-26868393D01*
X12175096Y-27059474D01*
X12242233Y-27240749D01*
X12344492Y-27404808D01*
X12344497Y-27404814D01*
X12413709Y-27477625D01*
X12477677Y-27544919D01*
X12546214Y-27592622D01*
X12636334Y-27655348D01*
X12636337Y-27655350D01*
X12636342Y-27655353D01*
X12813988Y-27731587D01*
X13003344Y-27770500D01*
X13003347Y-27770500D01*
X14148208Y-27770500D01*
X14172564Y-27768023D01*
X14292321Y-27755845D01*
X14476768Y-27697974D01*
X14645791Y-27604159D01*
X14792468Y-27478240D01*
X14910796Y-27325373D01*
X14995930Y-27151816D01*
X15044385Y-26964674D01*
X15054176Y-26771610D01*
X15024903Y-26580526D01*
X15015542Y-26555250D01*
X14957766Y-26399250D01*
X14905020Y-26314627D01*
X14865592Y-26251370D01*
X14850858Y-26191988D01*
X14873842Y-26135284D01*
X14925767Y-26102919D01*
X14936685Y-26100852D01*
X15056762Y-26085044D01*
X15202841Y-26024536D01*
X15234817Y-26000000D01*
X55744750Y-26000000D01*
X55763669Y-26143708D01*
X55763670Y-26143709D01*
X55783667Y-26191988D01*
X55819139Y-26277625D01*
X55907379Y-26392621D01*
X56022375Y-26480861D01*
X56156291Y-26536330D01*
X56300000Y-26555250D01*
X56443709Y-26536330D01*
X56577625Y-26480861D01*
X56692621Y-26392621D01*
X56780861Y-26277625D01*
X56836330Y-26143709D01*
X56855250Y-26000000D01*
X57744750Y-26000000D01*
X57763669Y-26143708D01*
X57763670Y-26143709D01*
X57783667Y-26191988D01*
X57819139Y-26277625D01*
X57907379Y-26392621D01*
X58022375Y-26480861D01*
X58156291Y-26536330D01*
X58300000Y-26555250D01*
X58443709Y-26536330D01*
X58577625Y-26480861D01*
X58692621Y-26392621D01*
X58780861Y-26277625D01*
X58836330Y-26143709D01*
X58855250Y-26000000D01*
X58853567Y-25987220D01*
X58836330Y-25856291D01*
X58780861Y-25722375D01*
X58771571Y-25710269D01*
X58751146Y-25652594D01*
X58768522Y-25593928D01*
X58771565Y-25589739D01*
X58780861Y-25577625D01*
X58836330Y-25443709D01*
X58855250Y-25300000D01*
X58841710Y-25197159D01*
X58836330Y-25156291D01*
X58780861Y-25022375D01*
X58771571Y-25010269D01*
X58751146Y-24952594D01*
X58768522Y-24893928D01*
X58771565Y-24889739D01*
X58780861Y-24877625D01*
X58836330Y-24743709D01*
X58855250Y-24600000D01*
X58836330Y-24456291D01*
X58780861Y-24322375D01*
X58771571Y-24310269D01*
X58751146Y-24252594D01*
X58768522Y-24193928D01*
X58771565Y-24189739D01*
X58780861Y-24177625D01*
X58836330Y-24043709D01*
X58855250Y-23900000D01*
X58849358Y-23855250D01*
X58836330Y-23756291D01*
X58780861Y-23622375D01*
X58692621Y-23507379D01*
X58577625Y-23419139D01*
X58577621Y-23419137D01*
X58443709Y-23363670D01*
X58443708Y-23363669D01*
X58300000Y-23344750D01*
X58156291Y-23363669D01*
X58156290Y-23363670D01*
X58022378Y-23419137D01*
X58022374Y-23419139D01*
X57907381Y-23507377D01*
X57907377Y-23507381D01*
X57819139Y-23622374D01*
X57819137Y-23622378D01*
X57763670Y-23756290D01*
X57763669Y-23756291D01*
X57744750Y-23899999D01*
X57744750Y-23900000D01*
X57763669Y-24043708D01*
X57763670Y-24043709D01*
X57819139Y-24177625D01*
X57819141Y-24177627D01*
X57828431Y-24189735D01*
X57848853Y-24247412D01*
X57831473Y-24306077D01*
X57828431Y-24310265D01*
X57819139Y-24322375D01*
X57819137Y-24322378D01*
X57763670Y-24456290D01*
X57763669Y-24456291D01*
X57744750Y-24599999D01*
X57744750Y-24600000D01*
X57763669Y-24743708D01*
X57763670Y-24743709D01*
X57813832Y-24864814D01*
X57819139Y-24877625D01*
X57819141Y-24877627D01*
X57828431Y-24889735D01*
X57848853Y-24947412D01*
X57831473Y-25006077D01*
X57828431Y-25010265D01*
X57819139Y-25022375D01*
X57819137Y-25022378D01*
X57763670Y-25156290D01*
X57763669Y-25156291D01*
X57744750Y-25299999D01*
X57744750Y-25300000D01*
X57763669Y-25443708D01*
X57763670Y-25443709D01*
X57819139Y-25577625D01*
X57819141Y-25577627D01*
X57828431Y-25589735D01*
X57848853Y-25647412D01*
X57831473Y-25706077D01*
X57828431Y-25710265D01*
X57819139Y-25722375D01*
X57819137Y-25722378D01*
X57763670Y-25856290D01*
X57763669Y-25856291D01*
X57744750Y-25999999D01*
X57744750Y-26000000D01*
X56855250Y-26000000D01*
X56853567Y-25987220D01*
X56836330Y-25856291D01*
X56780861Y-25722375D01*
X56771571Y-25710269D01*
X56751146Y-25652594D01*
X56768522Y-25593928D01*
X56771565Y-25589739D01*
X56780861Y-25577625D01*
X56836330Y-25443709D01*
X56855250Y-25300000D01*
X56841710Y-25197159D01*
X56836330Y-25156291D01*
X56780861Y-25022375D01*
X56771571Y-25010269D01*
X56751146Y-24952594D01*
X56768522Y-24893928D01*
X56771565Y-24889739D01*
X56780861Y-24877625D01*
X56836330Y-24743709D01*
X56855250Y-24600000D01*
X56836330Y-24456291D01*
X56780861Y-24322375D01*
X56771571Y-24310269D01*
X56751146Y-24252594D01*
X56768522Y-24193928D01*
X56771565Y-24189739D01*
X56780861Y-24177625D01*
X56836330Y-24043709D01*
X56855250Y-23900000D01*
X56849358Y-23855250D01*
X56836330Y-23756291D01*
X56780861Y-23622375D01*
X56692621Y-23507379D01*
X56577625Y-23419139D01*
X56577621Y-23419137D01*
X56443709Y-23363670D01*
X56443708Y-23363669D01*
X56300000Y-23344750D01*
X56156291Y-23363669D01*
X56156290Y-23363670D01*
X56022378Y-23419137D01*
X56022374Y-23419139D01*
X55907381Y-23507377D01*
X55907377Y-23507381D01*
X55819139Y-23622374D01*
X55819137Y-23622378D01*
X55763670Y-23756290D01*
X55763669Y-23756291D01*
X55744750Y-23899999D01*
X55744750Y-23900000D01*
X55763669Y-24043708D01*
X55763670Y-24043709D01*
X55819139Y-24177625D01*
X55819141Y-24177627D01*
X55828431Y-24189735D01*
X55848853Y-24247412D01*
X55831473Y-24306077D01*
X55828431Y-24310265D01*
X55819139Y-24322375D01*
X55819137Y-24322378D01*
X55763670Y-24456290D01*
X55763669Y-24456291D01*
X55744750Y-24599999D01*
X55744750Y-24600000D01*
X55763669Y-24743708D01*
X55763670Y-24743709D01*
X55813832Y-24864814D01*
X55819139Y-24877625D01*
X55819141Y-24877627D01*
X55828431Y-24889735D01*
X55848853Y-24947412D01*
X55831473Y-25006077D01*
X55828431Y-25010265D01*
X55819139Y-25022375D01*
X55819137Y-25022378D01*
X55763670Y-25156290D01*
X55763669Y-25156291D01*
X55744750Y-25299999D01*
X55744750Y-25300000D01*
X55763669Y-25443708D01*
X55763670Y-25443709D01*
X55819139Y-25577625D01*
X55819141Y-25577627D01*
X55828431Y-25589735D01*
X55848853Y-25647412D01*
X55831473Y-25706077D01*
X55828431Y-25710265D01*
X55819139Y-25722375D01*
X55819137Y-25722378D01*
X55763670Y-25856290D01*
X55763669Y-25856291D01*
X55744750Y-25999999D01*
X55744750Y-26000000D01*
X15234817Y-26000000D01*
X15328282Y-25928282D01*
X15424536Y-25802841D01*
X15485044Y-25656762D01*
X15505682Y-25500000D01*
X15485044Y-25343238D01*
X15424537Y-25197161D01*
X15424537Y-25197160D01*
X15328286Y-25071723D01*
X15328285Y-25071722D01*
X15328282Y-25071718D01*
X15328277Y-25071714D01*
X15328276Y-25071713D01*
X15242737Y-25006077D01*
X15202841Y-24975464D01*
X15202840Y-24975463D01*
X15202838Y-24975462D01*
X15056766Y-24914957D01*
X15056759Y-24914955D01*
X14996609Y-24907036D01*
X14941384Y-24880694D01*
X14912190Y-24826923D01*
X14920177Y-24766261D01*
X14920604Y-24765376D01*
X14995930Y-24611816D01*
X15044385Y-24424674D01*
X15054176Y-24231610D01*
X15025391Y-24043709D01*
X15024903Y-24040525D01*
X14957766Y-23859250D01*
X14942708Y-23835091D01*
X14855509Y-23695193D01*
X14855506Y-23695190D01*
X14855502Y-23695185D01*
X14722324Y-23555082D01*
X14563665Y-23444651D01*
X14563654Y-23444645D01*
X14386013Y-23368413D01*
X14338673Y-23358684D01*
X14196656Y-23329500D01*
X13051794Y-23329500D01*
X13051792Y-23329500D01*
X12907678Y-23344155D01*
X12723231Y-23402026D01*
X12723229Y-23402027D01*
X12554212Y-23495838D01*
X12554209Y-23495840D01*
X12407531Y-23621759D01*
X12289203Y-23774627D01*
X12204071Y-23948180D01*
X12155614Y-24135328D01*
X12155614Y-24135332D01*
X12145824Y-24328390D01*
X12145823Y-24328393D01*
X12175096Y-24519474D01*
X12242233Y-24700749D01*
X12344492Y-24864808D01*
X12344497Y-24864814D01*
X12449676Y-24975462D01*
X12477677Y-25004919D01*
X12559689Y-25062001D01*
X12636334Y-25115348D01*
X12636337Y-25115350D01*
X12636342Y-25115353D01*
X12813988Y-25191587D01*
X13003344Y-25230500D01*
X13003347Y-25230500D01*
X14148206Y-25230500D01*
X14207892Y-25224430D01*
X14267695Y-25237353D01*
X14308483Y-25282960D01*
X14313934Y-25336558D01*
X14315803Y-25336805D01*
X14294318Y-25499999D01*
X14294318Y-25500000D01*
X14314955Y-25656758D01*
X14314957Y-25656767D01*
X14350858Y-25743439D01*
X14355658Y-25804436D01*
X14323689Y-25856605D01*
X14267161Y-25880019D01*
X14239469Y-25878298D01*
X14196656Y-25869500D01*
X13051794Y-25869500D01*
X13051792Y-25869500D01*
X12907678Y-25884155D01*
X12723231Y-25942026D01*
X12723229Y-25942027D01*
X12554212Y-26035838D01*
X12554209Y-26035840D01*
X12407531Y-26161759D01*
X12289203Y-26314627D01*
X12204071Y-26488180D01*
X12155614Y-26675328D01*
X12155614Y-26675332D01*
X12145824Y-26868390D01*
X12145823Y-26868393D01*
X15000Y-26868393D01*
X15000Y-22800000D01*
X65644750Y-22800000D01*
X65663669Y-22943708D01*
X65663670Y-22943709D01*
X65696253Y-23022374D01*
X65719139Y-23077625D01*
X65807379Y-23192621D01*
X65922375Y-23280861D01*
X66056291Y-23336330D01*
X66075860Y-23338906D01*
X66131086Y-23365246D01*
X66160282Y-23419016D01*
X66161093Y-23424136D01*
X66163670Y-23443709D01*
X66209801Y-23555082D01*
X66219139Y-23577625D01*
X66307379Y-23692621D01*
X66422375Y-23780861D01*
X66556291Y-23836330D01*
X66700000Y-23855250D01*
X66843709Y-23836330D01*
X66977625Y-23780861D01*
X66989730Y-23771571D01*
X67047406Y-23751146D01*
X67106072Y-23768522D01*
X67110260Y-23771565D01*
X67122375Y-23780861D01*
X67256291Y-23836330D01*
X67400000Y-23855250D01*
X67543709Y-23836330D01*
X67677625Y-23780861D01*
X67689730Y-23771571D01*
X67747406Y-23751146D01*
X67806072Y-23768522D01*
X67810260Y-23771565D01*
X67822375Y-23780861D01*
X67956291Y-23836330D01*
X68100000Y-23855250D01*
X68243709Y-23836330D01*
X68377625Y-23780861D01*
X68492621Y-23692621D01*
X68580861Y-23577625D01*
X68636330Y-23443709D01*
X68655250Y-23300000D01*
X68652730Y-23280862D01*
X68636330Y-23156291D01*
X68580861Y-23022375D01*
X68492621Y-22907379D01*
X68377625Y-22819139D01*
X68377621Y-22819137D01*
X68243709Y-22763670D01*
X68243708Y-22763669D01*
X68100000Y-22744750D01*
X67956291Y-22763669D01*
X67956290Y-22763670D01*
X67822378Y-22819137D01*
X67822375Y-22819139D01*
X67810265Y-22828431D01*
X67752588Y-22848853D01*
X67693923Y-22831473D01*
X67689735Y-22828431D01*
X67686487Y-22825939D01*
X67677625Y-22819139D01*
X67677622Y-22819137D01*
X67677621Y-22819137D01*
X67543709Y-22763670D01*
X67543708Y-22763669D01*
X67400000Y-22744750D01*
X67256291Y-22763669D01*
X67256290Y-22763670D01*
X67122378Y-22819137D01*
X67122375Y-22819139D01*
X67110265Y-22828431D01*
X67052588Y-22848853D01*
X66993923Y-22831473D01*
X66989735Y-22828431D01*
X66986487Y-22825939D01*
X66977625Y-22819139D01*
X66977622Y-22819137D01*
X66977621Y-22819137D01*
X66843709Y-22763670D01*
X66824136Y-22761093D01*
X66768911Y-22734751D01*
X66739717Y-22680980D01*
X66738906Y-22675860D01*
X66736330Y-22656292D01*
X66736330Y-22656291D01*
X66680861Y-22522375D01*
X66671571Y-22510269D01*
X66651146Y-22452594D01*
X66668522Y-22393928D01*
X66671565Y-22389739D01*
X66680861Y-22377625D01*
X66736330Y-22243709D01*
X66755250Y-22100000D01*
X66751539Y-22071816D01*
X66736330Y-21956291D01*
X66680861Y-21822375D01*
X66592621Y-21707379D01*
X66477625Y-21619139D01*
X66477621Y-21619137D01*
X66343709Y-21563670D01*
X66343708Y-21563669D01*
X66200000Y-21544750D01*
X66056291Y-21563669D01*
X66056290Y-21563670D01*
X65922378Y-21619137D01*
X65922374Y-21619139D01*
X65807381Y-21707377D01*
X65807377Y-21707381D01*
X65719139Y-21822374D01*
X65719137Y-21822378D01*
X65663670Y-21956290D01*
X65663669Y-21956291D01*
X65644750Y-22099999D01*
X65644750Y-22100000D01*
X65663669Y-22243708D01*
X65663670Y-22243709D01*
X65719139Y-22377625D01*
X65719141Y-22377627D01*
X65728431Y-22389735D01*
X65748853Y-22447412D01*
X65731473Y-22506077D01*
X65728431Y-22510265D01*
X65719139Y-22522375D01*
X65719137Y-22522378D01*
X65663670Y-22656290D01*
X65663669Y-22656291D01*
X65644750Y-22799999D01*
X65644750Y-22800000D01*
X15000Y-22800000D01*
X15000Y-21788393D01*
X12145823Y-21788393D01*
X12175096Y-21979474D01*
X12242233Y-22160749D01*
X12344492Y-22324808D01*
X12344497Y-22324814D01*
X12406209Y-22389735D01*
X12477677Y-22464919D01*
X12542835Y-22510270D01*
X12636334Y-22575348D01*
X12636337Y-22575350D01*
X12636342Y-22575353D01*
X12813988Y-22651587D01*
X13003344Y-22690500D01*
X13003347Y-22690500D01*
X14148208Y-22690500D01*
X14172564Y-22688023D01*
X14292321Y-22675845D01*
X14476768Y-22617974D01*
X14645791Y-22524159D01*
X14792468Y-22398240D01*
X14910796Y-22245373D01*
X14995930Y-22071816D01*
X15044385Y-21884674D01*
X15054176Y-21691610D01*
X15024903Y-21500526D01*
X15024903Y-21500525D01*
X14957766Y-21319250D01*
X14905020Y-21234627D01*
X14855509Y-21155193D01*
X14855506Y-21155190D01*
X14855502Y-21155185D01*
X14722324Y-21015082D01*
X14563665Y-20904651D01*
X14563654Y-20904645D01*
X14386013Y-20828413D01*
X14338673Y-20818684D01*
X14196656Y-20789500D01*
X13051794Y-20789500D01*
X13051792Y-20789500D01*
X12907678Y-20804155D01*
X12723231Y-20862026D01*
X12723229Y-20862027D01*
X12554212Y-20955838D01*
X12554209Y-20955840D01*
X12407531Y-21081759D01*
X12289203Y-21234627D01*
X12204071Y-21408180D01*
X12155614Y-21595328D01*
X12155614Y-21595332D01*
X12145824Y-21788390D01*
X12145823Y-21788393D01*
X15000Y-21788393D01*
X15000Y-20300000D01*
X16794318Y-20300000D01*
X16814955Y-20456758D01*
X16814957Y-20456766D01*
X16875462Y-20602838D01*
X16875462Y-20602839D01*
X16875464Y-20602841D01*
X16971718Y-20728282D01*
X17097159Y-20824536D01*
X17097160Y-20824536D01*
X17097161Y-20824537D01*
X17187670Y-20862027D01*
X17243238Y-20885044D01*
X17360809Y-20900522D01*
X17399999Y-20905682D01*
X17400000Y-20905682D01*
X17400001Y-20905682D01*
X17431352Y-20901554D01*
X17556762Y-20885044D01*
X17702841Y-20824536D01*
X17828282Y-20728282D01*
X17924536Y-20602841D01*
X17985044Y-20456762D01*
X18005682Y-20300000D01*
X17985044Y-20143238D01*
X17940357Y-20035354D01*
X17924537Y-19997161D01*
X17924537Y-19997160D01*
X17828286Y-19871723D01*
X17828285Y-19871722D01*
X17828282Y-19871718D01*
X17828277Y-19871714D01*
X17828276Y-19871713D01*
X17702838Y-19775462D01*
X17556766Y-19714957D01*
X17556758Y-19714955D01*
X17400001Y-19694318D01*
X17399999Y-19694318D01*
X17243241Y-19714955D01*
X17243233Y-19714957D01*
X17097161Y-19775462D01*
X17097160Y-19775462D01*
X16971723Y-19871713D01*
X16971713Y-19871723D01*
X16875462Y-19997160D01*
X16875462Y-19997161D01*
X16814957Y-20143233D01*
X16814955Y-20143241D01*
X16794318Y-20299999D01*
X16794318Y-20300000D01*
X15000Y-20300000D01*
X15000Y-19606046D01*
X1719Y-19579980D01*
X500Y-19564493D01*
X500Y-19248393D01*
X12145823Y-19248393D01*
X12175096Y-19439474D01*
X12242233Y-19620749D01*
X12288089Y-19694318D01*
X12338666Y-19775462D01*
X12344492Y-19784808D01*
X12344497Y-19784814D01*
X12477675Y-19924917D01*
X12477677Y-19924919D01*
X12559689Y-19982001D01*
X12636334Y-20035348D01*
X12636337Y-20035350D01*
X12636342Y-20035353D01*
X12813988Y-20111587D01*
X13003344Y-20150500D01*
X13003347Y-20150500D01*
X14148208Y-20150500D01*
X14172564Y-20148023D01*
X14292321Y-20135845D01*
X14476768Y-20077974D01*
X14645791Y-19984159D01*
X14792468Y-19858240D01*
X14910796Y-19705373D01*
X14995930Y-19531816D01*
X15044385Y-19344674D01*
X15054176Y-19151610D01*
X15024903Y-18960526D01*
X15024903Y-18960525D01*
X14957766Y-18779250D01*
X14895912Y-18680014D01*
X14855509Y-18615193D01*
X14855506Y-18615190D01*
X14855502Y-18615185D01*
X14722324Y-18475082D01*
X14712985Y-18468582D01*
X14681316Y-18446539D01*
X14563665Y-18364651D01*
X14563654Y-18364645D01*
X14386013Y-18288413D01*
X14338673Y-18278684D01*
X14196656Y-18249500D01*
X13051794Y-18249500D01*
X13051792Y-18249500D01*
X12907678Y-18264155D01*
X12723231Y-18322026D01*
X12723229Y-18322027D01*
X12554212Y-18415838D01*
X12554209Y-18415840D01*
X12407531Y-18541759D01*
X12289203Y-18694627D01*
X12204071Y-18868180D01*
X12155614Y-19055328D01*
X12155614Y-19055332D01*
X12145824Y-19248390D01*
X12145823Y-19248393D01*
X500Y-19248393D01*
X500Y-16708393D01*
X12145823Y-16708393D01*
X12175096Y-16899474D01*
X12242233Y-17080749D01*
X12344492Y-17244808D01*
X12344497Y-17244814D01*
X12477675Y-17384917D01*
X12477677Y-17384919D01*
X12559689Y-17442001D01*
X12636334Y-17495348D01*
X12636337Y-17495350D01*
X12636342Y-17495353D01*
X12813988Y-17571587D01*
X13003344Y-17610500D01*
X13003347Y-17610500D01*
X14148208Y-17610500D01*
X14172564Y-17608023D01*
X14292321Y-17595845D01*
X14476768Y-17537974D01*
X14645791Y-17444159D01*
X14792468Y-17318240D01*
X14910796Y-17165373D01*
X14958675Y-17067765D01*
X47145788Y-17067765D01*
X47175414Y-17337020D01*
X47236738Y-17571586D01*
X47243928Y-17599088D01*
X47349870Y-17848390D01*
X47421999Y-17966577D01*
X47490983Y-18079612D01*
X47580252Y-18186880D01*
X47664255Y-18287820D01*
X47865998Y-18468582D01*
X48087589Y-18615185D01*
X48091913Y-18618046D01*
X48224100Y-18680012D01*
X48337176Y-18733020D01*
X48482628Y-18776780D01*
X48596555Y-18811056D01*
X48596559Y-18811057D01*
X48596569Y-18811060D01*
X48763840Y-18835677D01*
X48864560Y-18850500D01*
X48864561Y-18850500D01*
X49067633Y-18850500D01*
X49125495Y-18846264D01*
X49270156Y-18835677D01*
X49534553Y-18776780D01*
X49787558Y-18680014D01*
X50023777Y-18547441D01*
X50238177Y-18381888D01*
X50426186Y-18186881D01*
X50583799Y-17966579D01*
X50707656Y-17725675D01*
X50795118Y-17469305D01*
X50844319Y-17202933D01*
X50854212Y-16932235D01*
X50824586Y-16662982D01*
X50756072Y-16400912D01*
X50650130Y-16151610D01*
X50509018Y-15920390D01*
X50471944Y-15875841D01*
X50335746Y-15712181D01*
X50134007Y-15531422D01*
X50134004Y-15531420D01*
X50134002Y-15531418D01*
X49984489Y-15432501D01*
X49908086Y-15381953D01*
X49662822Y-15266979D01*
X49403444Y-15188943D01*
X49403428Y-15188939D01*
X49135440Y-15149500D01*
X49135439Y-15149500D01*
X48932369Y-15149500D01*
X48932367Y-15149500D01*
X48729848Y-15164322D01*
X48465450Y-15223219D01*
X48212439Y-15319987D01*
X47976219Y-15452561D01*
X47761826Y-15618108D01*
X47573814Y-15813119D01*
X47416199Y-16033422D01*
X47292342Y-16274328D01*
X47204884Y-16530687D01*
X47204881Y-16530698D01*
X47155680Y-16797069D01*
X47145788Y-17067765D01*
X14958675Y-17067765D01*
X14995930Y-16991816D01*
X15044385Y-16804674D01*
X15054176Y-16611610D01*
X15024903Y-16420526D01*
X15024903Y-16420525D01*
X14957766Y-16239250D01*
X14905020Y-16154627D01*
X14855509Y-16075193D01*
X14855506Y-16075190D01*
X14855502Y-16075185D01*
X14722324Y-15935082D01*
X14701211Y-15920387D01*
X14681316Y-15906539D01*
X14563665Y-15824651D01*
X14563654Y-15824645D01*
X14386013Y-15748413D01*
X14338673Y-15738684D01*
X14196656Y-15709500D01*
X13051794Y-15709500D01*
X13051792Y-15709500D01*
X12907678Y-15724155D01*
X12723231Y-15782026D01*
X12723229Y-15782027D01*
X12554212Y-15875838D01*
X12554209Y-15875840D01*
X12407531Y-16001759D01*
X12289203Y-16154627D01*
X12204071Y-16328180D01*
X12155614Y-16515328D01*
X12155614Y-16515332D01*
X12145824Y-16708390D01*
X12145823Y-16708393D01*
X500Y-16708393D01*
X500Y-15700000D01*
X16794318Y-15700000D01*
X16814955Y-15856758D01*
X16814957Y-15856766D01*
X16875462Y-16002838D01*
X16875462Y-16002839D01*
X16930975Y-16075185D01*
X16971718Y-16128282D01*
X17097159Y-16224536D01*
X17097160Y-16224536D01*
X17097161Y-16224537D01*
X17217360Y-16274325D01*
X17243238Y-16285044D01*
X17360809Y-16300522D01*
X17399999Y-16305682D01*
X17400000Y-16305682D01*
X17400001Y-16305682D01*
X17431352Y-16301554D01*
X17556762Y-16285044D01*
X17702841Y-16224536D01*
X17828282Y-16128282D01*
X17924536Y-16002841D01*
X17985044Y-15856762D01*
X18005682Y-15700000D01*
X17985044Y-15543238D01*
X17947484Y-15452561D01*
X17924537Y-15397161D01*
X17924537Y-15397160D01*
X17828286Y-15271723D01*
X17828285Y-15271722D01*
X17828282Y-15271718D01*
X17828277Y-15271714D01*
X17828276Y-15271713D01*
X17702838Y-15175462D01*
X17556766Y-15114957D01*
X17556758Y-15114955D01*
X17400001Y-15094318D01*
X17399999Y-15094318D01*
X17243241Y-15114955D01*
X17243233Y-15114957D01*
X17097161Y-15175462D01*
X17097160Y-15175462D01*
X16971723Y-15271713D01*
X16971713Y-15271723D01*
X16875462Y-15397160D01*
X16875462Y-15397161D01*
X16814957Y-15543233D01*
X16814955Y-15543241D01*
X16794318Y-15699999D01*
X16794318Y-15700000D01*
X500Y-15700000D01*
X500Y-12899000D01*
X19407Y-12840809D01*
X68907Y-12804845D01*
X99500Y-12800000D01*
X54599999Y-12800000D01*
X54600000Y-12800000D01*
X54600000Y-7399000D01*
X54618907Y-7340809D01*
X54668407Y-7304845D01*
X54699000Y-7300000D01*
X57301000Y-7300000D01*
X57359191Y-7318907D01*
G37*
%TD.AperFunction*%
%TD*%
M02*
