%TF.GenerationSoftware,KiCad,Pcbnew,7.0.9*%
%TF.CreationDate,2024-01-04T13:11:27+01:00*%
%TF.ProjectId,OBSPro,4f425350-726f-42e6-9b69-6361645f7063,rev?*%
%TF.SameCoordinates,PX7270e00PY2255100*%
%TF.FileFunction,Copper,L1,Top*%
%TF.FilePolarity,Positive*%
%FSLAX46Y46*%
G04 Gerber Fmt 4.6, Leading zero omitted, Abs format (unit mm)*
G04 Created by KiCad (PCBNEW 7.0.9) date 2024-01-04 13:11:27*
%MOMM*%
%LPD*%
G01*
G04 APERTURE LIST*
G04 Aperture macros list*
%AMRoundRect*
0 Rectangle with rounded corners*
0 $1 Rounding radius*
0 $2 $3 $4 $5 $6 $7 $8 $9 X,Y pos of 4 corners*
0 Add a 4 corners polygon primitive as box body*
4,1,4,$2,$3,$4,$5,$6,$7,$8,$9,$2,$3,0*
0 Add four circle primitives for the rounded corners*
1,1,$1+$1,$2,$3*
1,1,$1+$1,$4,$5*
1,1,$1+$1,$6,$7*
1,1,$1+$1,$8,$9*
0 Add four rect primitives between the rounded corners*
20,1,$1+$1,$2,$3,$4,$5,0*
20,1,$1+$1,$4,$5,$6,$7,0*
20,1,$1+$1,$6,$7,$8,$9,0*
20,1,$1+$1,$8,$9,$2,$3,0*%
G04 Aperture macros list end*
%ADD10C,0.300000*%
%TA.AperFunction,NonConductor*%
%ADD11C,0.300000*%
%TD*%
%TA.AperFunction,SMDPad,CuDef*%
%ADD12RoundRect,0.218750X-0.218750X-0.256250X0.218750X-0.256250X0.218750X0.256250X-0.218750X0.256250X0*%
%TD*%
%TA.AperFunction,SMDPad,CuDef*%
%ADD13RoundRect,0.225000X0.250000X-0.225000X0.250000X0.225000X-0.250000X0.225000X-0.250000X-0.225000X0*%
%TD*%
%TA.AperFunction,SMDPad,CuDef*%
%ADD14R,1.000000X1.000000*%
%TD*%
%TA.AperFunction,SMDPad,CuDef*%
%ADD15R,3.600000X1.150000*%
%TD*%
%TA.AperFunction,SMDPad,CuDef*%
%ADD16RoundRect,0.200000X-0.200000X-0.275000X0.200000X-0.275000X0.200000X0.275000X-0.200000X0.275000X0*%
%TD*%
%TA.AperFunction,SMDPad,CuDef*%
%ADD17RoundRect,0.250000X-0.625000X0.312500X-0.625000X-0.312500X0.625000X-0.312500X0.625000X0.312500X0*%
%TD*%
%TA.AperFunction,SMDPad,CuDef*%
%ADD18RoundRect,0.150000X-0.150000X0.825000X-0.150000X-0.825000X0.150000X-0.825000X0.150000X0.825000X0*%
%TD*%
%TA.AperFunction,SMDPad,CuDef*%
%ADD19R,2.300000X2.300000*%
%TD*%
%TA.AperFunction,SMDPad,CuDef*%
%ADD20RoundRect,0.200000X0.200000X0.275000X-0.200000X0.275000X-0.200000X-0.275000X0.200000X-0.275000X0*%
%TD*%
%TA.AperFunction,SMDPad,CuDef*%
%ADD21RoundRect,0.350000X1.150000X0.350000X-1.150000X0.350000X-1.150000X-0.350000X1.150000X-0.350000X0*%
%TD*%
%TA.AperFunction,SMDPad,CuDef*%
%ADD22RoundRect,0.225000X-0.250000X0.225000X-0.250000X-0.225000X0.250000X-0.225000X0.250000X0.225000X0*%
%TD*%
%TA.AperFunction,SMDPad,CuDef*%
%ADD23RoundRect,0.225000X-0.225000X-0.250000X0.225000X-0.250000X0.225000X0.250000X-0.225000X0.250000X0*%
%TD*%
%TA.AperFunction,SMDPad,CuDef*%
%ADD24RoundRect,0.250000X-0.650000X0.325000X-0.650000X-0.325000X0.650000X-0.325000X0.650000X0.325000X0*%
%TD*%
%TA.AperFunction,SMDPad,CuDef*%
%ADD25RoundRect,0.250000X0.650000X-0.325000X0.650000X0.325000X-0.650000X0.325000X-0.650000X-0.325000X0*%
%TD*%
%TA.AperFunction,SMDPad,CuDef*%
%ADD26RoundRect,0.250000X0.625000X-0.312500X0.625000X0.312500X-0.625000X0.312500X-0.625000X-0.312500X0*%
%TD*%
%TA.AperFunction,SMDPad,CuDef*%
%ADD27RoundRect,0.100000X0.100000X-0.637500X0.100000X0.637500X-0.100000X0.637500X-0.100000X-0.637500X0*%
%TD*%
%TA.AperFunction,SMDPad,CuDef*%
%ADD28RoundRect,0.250000X-0.300000X-0.300000X0.300000X-0.300000X0.300000X0.300000X-0.300000X0.300000X0*%
%TD*%
%TA.AperFunction,SMDPad,CuDef*%
%ADD29RoundRect,0.225000X0.225000X0.250000X-0.225000X0.250000X-0.225000X-0.250000X0.225000X-0.250000X0*%
%TD*%
%TA.AperFunction,SMDPad,CuDef*%
%ADD30RoundRect,0.150000X-0.587500X-0.150000X0.587500X-0.150000X0.587500X0.150000X-0.587500X0.150000X0*%
%TD*%
%TA.AperFunction,SMDPad,CuDef*%
%ADD31RoundRect,0.200000X0.275000X-0.200000X0.275000X0.200000X-0.275000X0.200000X-0.275000X-0.200000X0*%
%TD*%
%TA.AperFunction,SMDPad,CuDef*%
%ADD32RoundRect,0.250000X0.300000X0.300000X-0.300000X0.300000X-0.300000X-0.300000X0.300000X-0.300000X0*%
%TD*%
%TA.AperFunction,SMDPad,CuDef*%
%ADD33RoundRect,0.200000X-0.275000X0.200000X-0.275000X-0.200000X0.275000X-0.200000X0.275000X0.200000X0*%
%TD*%
%TA.AperFunction,SMDPad,CuDef*%
%ADD34RoundRect,0.150000X0.587500X0.150000X-0.587500X0.150000X-0.587500X-0.150000X0.587500X-0.150000X0*%
%TD*%
%TA.AperFunction,ComponentPad*%
%ADD35RoundRect,0.250000X-0.625000X0.350000X-0.625000X-0.350000X0.625000X-0.350000X0.625000X0.350000X0*%
%TD*%
%TA.AperFunction,ComponentPad*%
%ADD36O,1.750000X1.200000*%
%TD*%
%TA.AperFunction,SMDPad,CuDef*%
%ADD37RoundRect,0.175000X0.175000X-0.725000X0.175000X0.725000X-0.175000X0.725000X-0.175000X-0.725000X0*%
%TD*%
%TA.AperFunction,SMDPad,CuDef*%
%ADD38RoundRect,0.200000X0.200000X-0.700000X0.200000X0.700000X-0.200000X0.700000X-0.200000X-0.700000X0*%
%TD*%
%TA.AperFunction,SMDPad,CuDef*%
%ADD39RoundRect,0.250000X-1.400000X-1.000000X1.400000X-1.000000X1.400000X1.000000X-1.400000X1.000000X0*%
%TD*%
%TA.AperFunction,SMDPad,CuDef*%
%ADD40R,1.150000X3.600000*%
%TD*%
%TA.AperFunction,SMDPad,CuDef*%
%ADD41RoundRect,0.150000X0.512500X0.150000X-0.512500X0.150000X-0.512500X-0.150000X0.512500X-0.150000X0*%
%TD*%
%TA.AperFunction,SMDPad,CuDef*%
%ADD42R,0.600000X1.140000*%
%TD*%
%TA.AperFunction,SMDPad,CuDef*%
%ADD43R,0.300000X1.140000*%
%TD*%
%TA.AperFunction,ComponentPad*%
%ADD44O,0.900000X2.000000*%
%TD*%
%TA.AperFunction,ComponentPad*%
%ADD45O,0.900000X1.700000*%
%TD*%
%TA.AperFunction,SMDPad,CuDef*%
%ADD46RoundRect,0.218750X0.256250X-0.218750X0.256250X0.218750X-0.256250X0.218750X-0.256250X-0.218750X0*%
%TD*%
%TA.AperFunction,ComponentPad*%
%ADD47O,2.500000X1.500000*%
%TD*%
%TA.AperFunction,SMDPad,CuDef*%
%ADD48RoundRect,0.250000X0.325000X0.650000X-0.325000X0.650000X-0.325000X-0.650000X0.325000X-0.650000X0*%
%TD*%
%TA.AperFunction,SMDPad,CuDef*%
%ADD49RoundRect,0.062500X0.062500X-0.350000X0.062500X0.350000X-0.062500X0.350000X-0.062500X-0.350000X0*%
%TD*%
%TA.AperFunction,SMDPad,CuDef*%
%ADD50RoundRect,0.062500X0.350000X-0.062500X0.350000X0.062500X-0.350000X0.062500X-0.350000X-0.062500X0*%
%TD*%
%TA.AperFunction,SMDPad,CuDef*%
%ADD51R,1.680000X1.680000*%
%TD*%
%TA.AperFunction,SMDPad,CuDef*%
%ADD52RoundRect,0.150000X0.150000X-0.587500X0.150000X0.587500X-0.150000X0.587500X-0.150000X-0.587500X0*%
%TD*%
%TA.AperFunction,SMDPad,CuDef*%
%ADD53RoundRect,0.250000X-0.325000X-0.650000X0.325000X-0.650000X0.325000X0.650000X-0.325000X0.650000X0*%
%TD*%
%TA.AperFunction,SMDPad,CuDef*%
%ADD54R,1.200000X2.500000*%
%TD*%
%TA.AperFunction,SMDPad,CuDef*%
%ADD55R,0.900000X1.500000*%
%TD*%
%TA.AperFunction,SMDPad,CuDef*%
%ADD56R,1.500000X0.900000*%
%TD*%
%TA.AperFunction,SMDPad,CuDef*%
%ADD57R,1.050000X1.050000*%
%TD*%
%TA.AperFunction,HeatsinkPad*%
%ADD58C,0.475000*%
%TD*%
%TA.AperFunction,SMDPad,CuDef*%
%ADD59R,4.200000X4.200000*%
%TD*%
%TA.AperFunction,SMDPad,CuDef*%
%ADD60RoundRect,0.150000X-0.150000X0.512500X-0.150000X-0.512500X0.150000X-0.512500X0.150000X0.512500X0*%
%TD*%
%TA.AperFunction,SMDPad,CuDef*%
%ADD61R,2.500000X1.900000*%
%TD*%
%TA.AperFunction,SMDPad,CuDef*%
%ADD62RoundRect,0.250000X-0.550000X1.500000X-0.550000X-1.500000X0.550000X-1.500000X0.550000X1.500000X0*%
%TD*%
%TA.AperFunction,SMDPad,CuDef*%
%ADD63RoundRect,0.250000X0.550000X-1.500000X0.550000X1.500000X-0.550000X1.500000X-0.550000X-1.500000X0*%
%TD*%
%TA.AperFunction,ComponentPad*%
%ADD64C,1.800000*%
%TD*%
%TA.AperFunction,SMDPad,CuDef*%
%ADD65RoundRect,0.062500X0.062500X-0.337500X0.062500X0.337500X-0.062500X0.337500X-0.062500X-0.337500X0*%
%TD*%
%TA.AperFunction,SMDPad,CuDef*%
%ADD66RoundRect,0.062500X0.337500X-0.062500X0.337500X0.062500X-0.337500X0.062500X-0.337500X-0.062500X0*%
%TD*%
%TA.AperFunction,SMDPad,CuDef*%
%ADD67R,3.350000X3.350000*%
%TD*%
%TA.AperFunction,SMDPad,CuDef*%
%ADD68RoundRect,0.100000X-0.100000X0.637500X-0.100000X-0.637500X0.100000X-0.637500X0.100000X0.637500X0*%
%TD*%
%TA.AperFunction,SMDPad,CuDef*%
%ADD69R,0.700000X1.300000*%
%TD*%
%TA.AperFunction,SMDPad,CuDef*%
%ADD70R,1.200000X1.400000*%
%TD*%
%TA.AperFunction,SMDPad,CuDef*%
%ADD71R,1.200000X2.000000*%
%TD*%
%TA.AperFunction,ViaPad*%
%ADD72C,0.800000*%
%TD*%
%TA.AperFunction,ViaPad*%
%ADD73C,0.700000*%
%TD*%
%TA.AperFunction,Conductor*%
%ADD74C,0.200000*%
%TD*%
%TA.AperFunction,Conductor*%
%ADD75C,0.500000*%
%TD*%
%TA.AperFunction,Conductor*%
%ADD76C,0.400000*%
%TD*%
%TA.AperFunction,Conductor*%
%ADD77C,0.250000*%
%TD*%
%TA.AperFunction,Conductor*%
%ADD78C,0.290000*%
%TD*%
G04 APERTURE END LIST*
D10*
D11*
X15128572Y-82878328D02*
X14271429Y-82878328D01*
X14700000Y-82878328D02*
X14700000Y-81378328D01*
X14700000Y-81378328D02*
X14557143Y-81592614D01*
X14557143Y-81592614D02*
X14414286Y-81735471D01*
X14414286Y-81735471D02*
X14271429Y-81806900D01*
D12*
%TO.P,FB7,1*%
%TO.N,Net-(J3-Pin_7)*%
X15812500Y-16600000D03*
%TO.P,FB7,2*%
%TO.N,/Controller/BUTTON*%
X17387500Y-16600000D03*
%TD*%
%TO.P,FB6,1*%
%TO.N,Net-(J3-Pin_6)*%
X15812500Y-19200000D03*
%TO.P,FB6,2*%
%TO.N,/Controller/LCD_CS*%
X17387500Y-19200000D03*
%TD*%
%TO.P,FB5,1*%
%TO.N,Net-(J3-Pin_5)*%
X15712500Y-21800000D03*
%TO.P,FB5,2*%
%TO.N,/Controller/LCD_RES*%
X17287500Y-21800000D03*
%TD*%
%TO.P,FB4,1*%
%TO.N,Net-(J3-Pin_4)*%
X15712500Y-24300000D03*
%TO.P,FB4,2*%
%TO.N,/Controller/LCD_A0*%
X17287500Y-24300000D03*
%TD*%
%TO.P,FB3,1*%
%TO.N,Net-(J3-Pin_3)*%
X15712500Y-26800000D03*
%TO.P,FB3,2*%
%TO.N,/Controller/MOSI*%
X17287500Y-26800000D03*
%TD*%
%TO.P,FB2,1*%
%TO.N,Net-(J3-Pin_2)*%
X15712500Y-29400000D03*
%TO.P,FB2,2*%
%TO.N,/Controller/SCK*%
X17287500Y-29400000D03*
%TD*%
%TO.P,FB1,2*%
%TO.N,+3V3*%
X17287500Y-31900000D03*
%TO.P,FB1,1*%
%TO.N,Net-(J3-Pin_1)*%
X15712500Y-31900000D03*
%TD*%
D13*
%TO.P,C49,1*%
%TO.N,+3V3*%
X18800000Y-30975000D03*
%TO.P,C49,2*%
%TO.N,GND*%
X18800000Y-29425000D03*
%TD*%
D14*
%TO.P,TP4,1,1*%
%TO.N,/Sensors/Ultrasonic1/IO*%
X61500000Y-49000000D03*
%TD*%
D15*
%TO.P,L1,1*%
%TO.N,Net-(U1-SW)*%
X17600000Y-62525000D03*
%TO.P,L1,2*%
%TO.N,Net-(C8-Pad1)*%
X17600000Y-65475000D03*
%TD*%
D16*
%TO.P,R2,1*%
%TO.N,Net-(J1-CC2)*%
X39375000Y-79000000D03*
%TO.P,R2,2*%
%TO.N,GND*%
X41025000Y-79000000D03*
%TD*%
D17*
%TO.P,R44,1*%
%TO.N,+9V*%
X60500000Y-29437500D03*
%TO.P,R44,2*%
%TO.N,Net-(U9-VPWR)*%
X60500000Y-32362500D03*
%TD*%
D18*
%TO.P,U1,1,VIN*%
%TO.N,+USB*%
X17105000Y-55525000D03*
%TO.P,U1,2,LED1*%
%TO.N,Net-(D1-A)*%
X15835000Y-55525000D03*
%TO.P,U1,3,LED2*%
%TO.N,Net-(U1-LED2)*%
X14565000Y-55525000D03*
%TO.P,U1,4,LED3*%
X13295000Y-55525000D03*
%TO.P,U1,5,KEY*%
%TO.N,IP5306_BTN*%
X13295000Y-60475000D03*
%TO.P,U1,6,BAT*%
%TO.N,+BATT*%
X14565000Y-60475000D03*
%TO.P,U1,7,SW*%
%TO.N,Net-(U1-SW)*%
X15835000Y-60475000D03*
%TO.P,U1,8,VOUT*%
%TO.N,+5V*%
X17105000Y-60475000D03*
D19*
%TO.P,U1,9,GND*%
%TO.N,GND*%
X15200000Y-58000000D03*
%TD*%
D20*
%TO.P,R21,1*%
%TO.N,/Controller/~USB_DTR*%
X3925000Y-74500000D03*
%TO.P,R21,2*%
%TO.N,Net-(Q1-B)*%
X2275000Y-74500000D03*
%TD*%
%TO.P,R40,1*%
%TO.N,GND*%
X66724999Y-17200000D03*
%TO.P,R40,2*%
%TO.N,Net-(Q9-D)*%
X65074999Y-17200000D03*
%TD*%
D21*
%TO.P,AE1,1,FEED*%
%TO.N,/Sensors/ANT*%
X30200000Y-12000000D03*
%TO.P,AE1,2,PCB_Trace*%
%TO.N,unconnected-(AE1-PCB_Trace-Pad2)*%
X30200000Y-2000000D03*
%TD*%
D22*
%TO.P,C33,1*%
%TO.N,Net-(D4-K)*%
X28000000Y-27525000D03*
%TO.P,C33,2*%
%TO.N,GND*%
X28000000Y-29075000D03*
%TD*%
D16*
%TO.P,R38,1*%
%TO.N,/Sensors/Ultrasonic2/INP*%
X62074999Y-17500000D03*
%TO.P,R38,2*%
%TO.N,GND*%
X63724999Y-17500000D03*
%TD*%
D23*
%TO.P,C20,1*%
%TO.N,+BATT*%
X44025000Y-60800000D03*
%TO.P,C20,2*%
%TO.N,GND*%
X45575000Y-60800000D03*
%TD*%
D16*
%TO.P,R11,1*%
%TO.N,Net-(U4-FREQ)*%
X46975000Y-54200000D03*
%TO.P,R11,2*%
%TO.N,GND*%
X48625000Y-54200000D03*
%TD*%
D24*
%TO.P,C11,1*%
%TO.N,+3V3*%
X34300000Y-54425000D03*
%TO.P,C11,2*%
%TO.N,GND*%
X34300000Y-57375000D03*
%TD*%
D25*
%TO.P,C7,1*%
%TO.N,+BATT*%
X11300000Y-61975000D03*
%TO.P,C7,2*%
%TO.N,GND*%
X11300000Y-59025000D03*
%TD*%
D26*
%TO.P,R43,1*%
%TO.N,+9V*%
X61500000Y-54562500D03*
%TO.P,R43,2*%
%TO.N,Net-(U8-VPWR)*%
X61500000Y-51637500D03*
%TD*%
D27*
%TO.P,U8,1,GND*%
%TO.N,GND*%
X63225000Y-55162500D03*
%TO.P,U8,2,INP*%
%TO.N,Net-(U8-INP)*%
X63875000Y-55162500D03*
%TO.P,U8,3,INN*%
%TO.N,Net-(U8-INN)*%
X64525000Y-55162500D03*
%TO.P,U8,4,GND*%
%TO.N,GND*%
X65175000Y-55162500D03*
%TO.P,U8,5,OUTA*%
%TO.N,/Sensors/Ultrasonic1/OUTA*%
X65825000Y-55162500D03*
%TO.P,U8,6,GNDP*%
%TO.N,GND*%
X66475000Y-55162500D03*
%TO.P,U8,7,OUTB*%
%TO.N,/Sensors/Ultrasonic1/OUTB*%
X67125000Y-55162500D03*
%TO.P,U8,8,IO*%
%TO.N,/Sensors/Ultrasonic1/IO*%
X67775000Y-55162500D03*
%TO.P,U8,9,TEST*%
%TO.N,/Sensors/Ultrasonic1/TEST*%
X67775000Y-49437500D03*
%TO.P,U8,10,TXD*%
%TO.N,US_MISO*%
X67125000Y-49437500D03*
%TO.P,U8,11,RXD*%
%TO.N,US_MOSI*%
X66475000Y-49437500D03*
%TO.P,U8,12,SCLK*%
%TO.N,US_SCK*%
X65825000Y-49437500D03*
%TO.P,U8,13,DECPL*%
%TO.N,/Sensors/Ultrasonic1/DECPL*%
X65175000Y-49437500D03*
%TO.P,U8,14,IOREG*%
%TO.N,/Sensors/Ultrasonic1/IOREG*%
X64525000Y-49437500D03*
%TO.P,U8,15,VPWR*%
%TO.N,Net-(U8-VPWR)*%
X63875000Y-49437500D03*
%TO.P,U8,16,AVDD*%
%TO.N,/Sensors/Ultrasonic1/AVDD*%
X63225000Y-49437500D03*
%TD*%
D28*
%TO.P,D4,1,K*%
%TO.N,Net-(D4-K)*%
X33200000Y-21300000D03*
%TO.P,D4,2,A*%
%TO.N,Net-(D4-A)*%
X36000000Y-21300000D03*
%TD*%
D29*
%TO.P,C30,1*%
%TO.N,+3V3*%
X2575000Y-54220000D03*
%TO.P,C30,2*%
%TO.N,GND*%
X1025000Y-54220000D03*
%TD*%
D30*
%TO.P,Q4,1,G*%
%TO.N,Net-(Q4-G)*%
X35662500Y-35750000D03*
%TO.P,Q4,2,S*%
%TO.N,GND*%
X35662500Y-37650000D03*
%TO.P,Q4,3,D*%
%TO.N,Net-(Q3-D)*%
X37537500Y-36700000D03*
%TD*%
D13*
%TO.P,C36,1*%
%TO.N,/Sensors/Ultrasonic1/AVDD*%
X62500000Y-47175000D03*
%TO.P,C36,2*%
%TO.N,GND*%
X62500000Y-45625000D03*
%TD*%
D23*
%TO.P,C17,1*%
%TO.N,+BATT*%
X44025000Y-65300000D03*
%TO.P,C17,2*%
%TO.N,GND*%
X45575000Y-65300000D03*
%TD*%
D16*
%TO.P,R4,1*%
%TO.N,+USB*%
X18675000Y-56300000D03*
%TO.P,R4,2*%
%TO.N,Net-(C6-Pad1)*%
X20325000Y-56300000D03*
%TD*%
D22*
%TO.P,C27,1*%
%TO.N,+USB*%
X41100000Y-74225000D03*
%TO.P,C27,2*%
%TO.N,GND*%
X41100000Y-75775000D03*
%TD*%
D31*
%TO.P,R35,1*%
%TO.N,US_IO_1*%
X55600000Y-47325000D03*
%TO.P,R35,2*%
%TO.N,+3V3*%
X55600000Y-45675000D03*
%TD*%
D32*
%TO.P,D5,1,K*%
%TO.N,Net-(D4-A)*%
X36000000Y-18900000D03*
%TO.P,D5,2,A*%
%TO.N,+BATT*%
X33200000Y-18900000D03*
%TD*%
D33*
%TO.P,R6,1*%
%TO.N,Net-(U1-LED2)*%
X11700000Y-54975000D03*
%TO.P,R6,2*%
%TO.N,+BATT*%
X11700000Y-56625000D03*
%TD*%
D22*
%TO.P,C29,1*%
%TO.N,/Controller/VDD_USB*%
X37800000Y-73825000D03*
%TO.P,C29,2*%
%TO.N,GND*%
X37800000Y-75375000D03*
%TD*%
D31*
%TO.P,R26,1*%
%TO.N,+BATT*%
X31600000Y-39925000D03*
%TO.P,R26,2*%
%TO.N,Net-(Q4-G)*%
X31600000Y-38275000D03*
%TD*%
D34*
%TO.P,Q10,1,G*%
%TO.N,+3V3*%
X64637500Y-38249999D03*
%TO.P,Q10,2,S*%
%TO.N,US_IO_2*%
X64637500Y-36349999D03*
%TO.P,Q10,3,D*%
%TO.N,/Sensors/Ultrasonic2/IO*%
X62762500Y-37299999D03*
%TD*%
D35*
%TO.P,J2,1,Pin_1*%
%TO.N,+BATT*%
X6850000Y-62900000D03*
D36*
%TO.P,J2,2,Pin_2*%
%TO.N,GND*%
X6850000Y-64900000D03*
%TD*%
D37*
%TO.P,U7,1,GND*%
%TO.N,GND*%
X22500000Y-25550000D03*
D38*
%TO.P,U7,2,TXD*%
%TO.N,GPS_TX*%
X23600000Y-25550000D03*
%TO.P,U7,3,RXD*%
%TO.N,GPS_RX*%
X24700000Y-25550000D03*
%TO.P,U7,4,TIMEPULSE*%
%TO.N,unconnected-(U7-TIMEPULSE-Pad4)*%
X25800000Y-25550000D03*
%TO.P,U7,5,EXTINT*%
%TO.N,unconnected-(U7-EXTINT-Pad5)*%
X26900000Y-25550000D03*
%TO.P,U7,6,V_BCKP*%
%TO.N,Net-(D4-K)*%
X28000000Y-25550000D03*
%TO.P,U7,7,VCC_IO*%
%TO.N,+3V3GPS*%
X29100000Y-25550000D03*
%TO.P,U7,8,VCC*%
X30200000Y-25550000D03*
D37*
%TO.P,U7,9,~{RESET}*%
%TO.N,unconnected-(U7-~{RESET}-Pad9)*%
X31300000Y-25550000D03*
%TO.P,U7,10,GND*%
%TO.N,GND*%
X31300000Y-16050000D03*
D38*
%TO.P,U7,11,RF_IN*%
%TO.N,/Sensors/ANT*%
X30200000Y-16050000D03*
%TO.P,U7,12,GND*%
%TO.N,GND*%
X29100000Y-16050000D03*
%TO.P,U7,13,LNA_EN*%
%TO.N,unconnected-(U7-LNA_EN-Pad13)*%
X28000000Y-16050000D03*
%TO.P,U7,14,VCC_RF*%
%TO.N,unconnected-(U7-VCC_RF-Pad14)*%
X26900000Y-16050000D03*
%TO.P,U7,15,VIO_SEL*%
%TO.N,unconnected-(U7-VIO_SEL-Pad15)*%
X25800000Y-16050000D03*
%TO.P,U7,16,SDA*%
%TO.N,unconnected-(U7-SDA-Pad16)*%
X24700000Y-16050000D03*
%TO.P,U7,17,SCL*%
%TO.N,unconnected-(U7-SCL-Pad17)*%
X23600000Y-16050000D03*
D37*
%TO.P,U7,18,~{SAFEBOOT}*%
%TO.N,unconnected-(U7-~{SAFEBOOT}-Pad18)*%
X22500000Y-16050000D03*
%TD*%
D20*
%TO.P,R32,1*%
%TO.N,/Sensors/Ultrasonic1/INP*%
X59925000Y-66500000D03*
%TO.P,R32,2*%
%TO.N,GND*%
X58275000Y-66500000D03*
%TD*%
D39*
%TO.P,D3,1,K*%
%TO.N,+9V*%
X39900000Y-48900000D03*
%TO.P,D3,2,A*%
%TO.N,Net-(D3-A)*%
X39900000Y-55700000D03*
%TD*%
D20*
%TO.P,R23,1*%
%TO.N,+BATT*%
X9125000Y-59300000D03*
%TO.P,R23,2*%
%TO.N,/Controller/BATT_MEAS*%
X7475000Y-59300000D03*
%TD*%
D34*
%TO.P,Q6,1,G*%
%TO.N,+5V*%
X37537500Y-41150000D03*
%TO.P,Q6,2,S*%
%TO.N,GND*%
X37537500Y-39250000D03*
%TO.P,Q6,3,D*%
%TO.N,Net-(Q4-G)*%
X35662500Y-40200000D03*
%TD*%
D14*
%TO.P,TP5,1,1*%
%TO.N,/Sensors/Ultrasonic2/TEST*%
X54000001Y-38100000D03*
%TD*%
D13*
%TO.P,C45,1*%
%TO.N,Net-(U9-INP)*%
X63699999Y-23775000D03*
%TO.P,C45,2*%
%TO.N,Net-(C45-Pad2)*%
X63699999Y-22225000D03*
%TD*%
D22*
%TO.P,C41,1*%
%TO.N,Net-(U9-VPWR)*%
X58000000Y-36825000D03*
%TO.P,C41,2*%
%TO.N,GND*%
X58000000Y-38375000D03*
%TD*%
D16*
%TO.P,R22,1*%
%TO.N,/Controller/~USB_RTS*%
X5875000Y-74500000D03*
%TO.P,R22,2*%
%TO.N,Net-(Q2-B)*%
X7525000Y-74500000D03*
%TD*%
D13*
%TO.P,C40,1*%
%TO.N,GND*%
X59800000Y-60275000D03*
%TO.P,C40,2*%
%TO.N,Net-(U8-INN)*%
X59800000Y-58725000D03*
%TD*%
D16*
%TO.P,R9,1*%
%TO.N,+3V3GPS*%
X30175000Y-29000000D03*
%TO.P,R9,2*%
%TO.N,+3V3*%
X31825000Y-29000000D03*
%TD*%
D23*
%TO.P,C18,1*%
%TO.N,+BATT*%
X44025000Y-63800000D03*
%TO.P,C18,2*%
%TO.N,GND*%
X45575000Y-63800000D03*
%TD*%
D40*
%TO.P,L2,1*%
%TO.N,/Power Supply/SW*%
X28325000Y-51200000D03*
%TO.P,L2,2*%
%TO.N,+3V3*%
X31275000Y-51200000D03*
%TD*%
D16*
%TO.P,R3,1*%
%TO.N,Net-(J1-CC1)*%
X39375000Y-80600000D03*
%TO.P,R3,2*%
%TO.N,GND*%
X41025000Y-80600000D03*
%TD*%
D13*
%TO.P,C37,1*%
%TO.N,/Sensors/Ultrasonic1/IOREG*%
X65500000Y-47175000D03*
%TO.P,C37,2*%
%TO.N,GND*%
X65500000Y-45625000D03*
%TD*%
D41*
%TO.P,U3,1,VCC*%
%TO.N,+5V*%
X36937500Y-25250000D03*
%TO.P,U3,2,GND*%
%TO.N,GND*%
X36937500Y-24300000D03*
%TO.P,U3,3,NC*%
%TO.N,unconnected-(U3-NC-Pad3)*%
X36937500Y-23350000D03*
%TO.P,U3,4,EN*%
%TO.N,+5V*%
X34662500Y-23350000D03*
%TO.P,U3,5,VOUT*%
%TO.N,+3V3GPS*%
X34662500Y-25250000D03*
%TD*%
D26*
%TO.P,R31,1*%
%TO.N,+9V*%
X54400000Y-61762500D03*
%TO.P,R31,2*%
%TO.N,Net-(T1-PM)*%
X54400000Y-58837500D03*
%TD*%
D33*
%TO.P,R10,1*%
%TO.N,+9V*%
X50100000Y-52675000D03*
%TO.P,R10,2*%
%TO.N,Net-(U4-FB)*%
X50100000Y-54325000D03*
%TD*%
D16*
%TO.P,R14,1*%
%TO.N,/Controller/EN*%
X4075000Y-54220000D03*
%TO.P,R14,2*%
%TO.N,+3V3*%
X5725000Y-54220000D03*
%TD*%
D42*
%TO.P,J1,A1,GND*%
%TO.N,GND*%
X30200000Y-77127500D03*
%TO.P,J1,A4,VBUS*%
%TO.N,+USB*%
X31000000Y-77127500D03*
D43*
%TO.P,J1,A5,CC1*%
%TO.N,Net-(J1-CC1)*%
X32150000Y-77127500D03*
%TO.P,J1,A6,D+*%
%TO.N,USB_DP*%
X33150000Y-77127500D03*
%TO.P,J1,A7,D-*%
%TO.N,USB_DN*%
X33650000Y-77127500D03*
%TO.P,J1,A8,SBU1*%
%TO.N,unconnected-(J1-SBU1-PadA8)*%
X34650000Y-77127500D03*
D42*
%TO.P,J1,B1,GND*%
%TO.N,GND*%
X36600000Y-77127500D03*
%TO.P,J1,B4,VBUS*%
%TO.N,+USB*%
X35800000Y-77127500D03*
D43*
%TO.P,J1,B5,CC2*%
%TO.N,Net-(J1-CC2)*%
X35150000Y-77127500D03*
%TO.P,J1,B6,D+*%
%TO.N,USB_DP*%
X34150000Y-77127500D03*
%TO.P,J1,B7,D-*%
%TO.N,USB_DN*%
X32650000Y-77127500D03*
%TO.P,J1,B8,SBU2*%
%TO.N,unconnected-(J1-SBU2-PadB8)*%
X31650000Y-77127500D03*
D44*
%TO.P,J1,S1,SHIELD*%
%TO.N,GND*%
X29075000Y-77697500D03*
D45*
X29075000Y-81877500D03*
D44*
X37725000Y-77697500D03*
D45*
X37725000Y-81877500D03*
%TD*%
D22*
%TO.P,C38,1*%
%TO.N,Net-(U8-INP)*%
X58300000Y-60225000D03*
%TO.P,C38,2*%
%TO.N,Net-(C38-Pad2)*%
X58300000Y-61775000D03*
%TD*%
D46*
%TO.P,D1,1,K*%
%TO.N,GND*%
X10200000Y-55787500D03*
%TO.P,D1,2,A*%
%TO.N,Net-(D1-A)*%
X10200000Y-54212500D03*
%TD*%
D47*
%TO.P,J3,1,Pin_1*%
%TO.N,Net-(J3-Pin_1)*%
X13600000Y-31900000D03*
%TO.P,J3,2,Pin_2*%
%TO.N,Net-(J3-Pin_2)*%
X13600000Y-29360000D03*
%TO.P,J3,3,Pin_3*%
%TO.N,Net-(J3-Pin_3)*%
X13600000Y-26820000D03*
%TO.P,J3,4,Pin_4*%
%TO.N,Net-(J3-Pin_4)*%
X13600000Y-24280000D03*
%TO.P,J3,5,Pin_5*%
%TO.N,Net-(J3-Pin_5)*%
X13600000Y-21740000D03*
%TO.P,J3,6,Pin_6*%
%TO.N,Net-(J3-Pin_6)*%
X13600000Y-19200000D03*
%TO.P,J3,7,Pin_7*%
%TO.N,Net-(J3-Pin_7)*%
X13600000Y-16660000D03*
%TO.P,J3,8,Pin_8*%
%TO.N,GND*%
X13600000Y-14120000D03*
%TD*%
D23*
%TO.P,C25,1*%
%TO.N,Net-(C25-Pad1)*%
X48925000Y-60300000D03*
%TO.P,C25,2*%
%TO.N,GND*%
X50475000Y-60300000D03*
%TD*%
D22*
%TO.P,C47,1*%
%TO.N,GND*%
X62199999Y-23725000D03*
%TO.P,C47,2*%
%TO.N,Net-(U9-INN)*%
X62199999Y-25275000D03*
%TD*%
D14*
%TO.P,TP2,1,1*%
%TO.N,/Sensors/Ultrasonic1/TEST*%
X68000000Y-45900000D03*
%TD*%
D30*
%TO.P,Q5,1,G*%
%TO.N,/Controller/BUTTON*%
X27962500Y-38150000D03*
%TO.P,Q5,2,S*%
%TO.N,GND*%
X27962500Y-40050000D03*
%TO.P,Q5,3,D*%
%TO.N,Net-(Q4-G)*%
X29837500Y-39100000D03*
%TD*%
D33*
%TO.P,R29,1*%
%TO.N,/Controller/BUTTON*%
X24600000Y-38275000D03*
%TO.P,R29,2*%
%TO.N,/Controller/BTN_READ*%
X24600000Y-39925000D03*
%TD*%
D30*
%TO.P,Q8,1,G*%
%TO.N,+3V3*%
X57362500Y-45750000D03*
%TO.P,Q8,2,S*%
%TO.N,US_IO_1*%
X57362500Y-47650000D03*
%TO.P,Q8,3,D*%
%TO.N,/Sensors/Ultrasonic1/IO*%
X59237500Y-46700000D03*
%TD*%
D23*
%TO.P,C5,1*%
%TO.N,+USB*%
X19625000Y-54800000D03*
%TO.P,C5,2*%
%TO.N,GND*%
X21175000Y-54800000D03*
%TD*%
D22*
%TO.P,C28,1*%
%TO.N,+USB*%
X39300000Y-73825000D03*
%TO.P,C28,2*%
%TO.N,GND*%
X39300000Y-75375000D03*
%TD*%
D30*
%TO.P,Q3,1,G*%
%TO.N,/Controller/BTN_PRESS*%
X39662500Y-36750000D03*
%TO.P,Q3,2,S*%
%TO.N,GND*%
X39662500Y-38650000D03*
%TO.P,Q3,3,D*%
%TO.N,Net-(Q3-D)*%
X41537500Y-37700000D03*
%TD*%
D23*
%TO.P,C31,1*%
%TO.N,+3V3*%
X18425000Y-67500000D03*
%TO.P,C31,2*%
%TO.N,GND*%
X19975000Y-67500000D03*
%TD*%
D22*
%TO.P,C43,1*%
%TO.N,/Sensors/Ultrasonic2/AVDD*%
X59500000Y-36825000D03*
%TO.P,C43,2*%
%TO.N,GND*%
X59500000Y-38375000D03*
%TD*%
D33*
%TO.P,R30,1*%
%TO.N,+5V*%
X39400000Y-40175000D03*
%TO.P,R30,2*%
%TO.N,GND*%
X39400000Y-41825000D03*
%TD*%
D22*
%TO.P,C44,1*%
%TO.N,/Sensors/Ultrasonic2/IOREG*%
X56500000Y-36825000D03*
%TO.P,C44,2*%
%TO.N,GND*%
X56500000Y-38375000D03*
%TD*%
D48*
%TO.P,C8,1*%
%TO.N,Net-(C8-Pad1)*%
X12970000Y-64500000D03*
%TO.P,C8,2*%
%TO.N,GND*%
X10020000Y-64500000D03*
%TD*%
D23*
%TO.P,C6,1*%
%TO.N,Net-(C6-Pad1)*%
X21700000Y-56300000D03*
%TO.P,C6,2*%
%TO.N,GND*%
X23250000Y-56300000D03*
%TD*%
D20*
%TO.P,R18,1*%
%TO.N,Net-(U5-~{RTS})*%
X32425000Y-67600000D03*
%TO.P,R18,2*%
%TO.N,/Controller/~USB_RTS*%
X30775000Y-67600000D03*
%TD*%
D25*
%TO.P,C3,1*%
%TO.N,+5V*%
X21500000Y-60875000D03*
%TO.P,C3,2*%
%TO.N,GND*%
X21500000Y-57925000D03*
%TD*%
D14*
%TO.P,TP7,1,1*%
%TO.N,/Sensors/Ultrasonic2/IO*%
X60500000Y-34999999D03*
%TD*%
D23*
%TO.P,C42,1*%
%TO.N,/Sensors/Ultrasonic2/INP*%
X62124999Y-19100000D03*
%TO.P,C42,2*%
%TO.N,Net-(Q9-D)*%
X63674999Y-19100000D03*
%TD*%
D33*
%TO.P,R7,1*%
%TO.N,+3V3*%
X34300000Y-61275000D03*
%TO.P,R7,2*%
%TO.N,Net-(U2-VFB)*%
X34300000Y-62925000D03*
%TD*%
D49*
%TO.P,U4,1,SW*%
%TO.N,Net-(D3-A)*%
X44650000Y-58662500D03*
%TO.P,U4,2,VIN*%
%TO.N,+BATT*%
X45150000Y-58662500D03*
%TO.P,U4,3,EN*%
%TO.N,+5V*%
X45650000Y-58662500D03*
%TO.P,U4,4,SS*%
%TO.N,Net-(U4-SS)*%
X46150000Y-58662500D03*
D50*
%TO.P,U4,5,SYNC*%
%TO.N,Net-(U4-SYNC)*%
X46862500Y-57950000D03*
%TO.P,U4,6,AGND*%
%TO.N,GND*%
X46862500Y-57450000D03*
%TO.P,U4,7,COMP*%
%TO.N,Net-(U4-COMP)*%
X46862500Y-56950000D03*
%TO.P,U4,8,FB*%
%TO.N,Net-(U4-FB)*%
X46862500Y-56450000D03*
D49*
%TO.P,U4,9,FREQ*%
%TO.N,Net-(U4-FREQ)*%
X46150000Y-55737500D03*
%TO.P,U4,10,NC*%
%TO.N,GND*%
X45650000Y-55737500D03*
%TO.P,U4,11,PGND*%
X45150000Y-55737500D03*
%TO.P,U4,12,PGND*%
X44650000Y-55737500D03*
D50*
%TO.P,U4,13,PGND*%
X43937500Y-56450000D03*
%TO.P,U4,14,NC*%
X43937500Y-56950000D03*
%TO.P,U4,15,SW*%
%TO.N,Net-(D3-A)*%
X43937500Y-57450000D03*
%TO.P,U4,16,SW*%
X43937500Y-57950000D03*
D51*
%TO.P,U4,17,PowerPAD*%
%TO.N,GND*%
X45400000Y-57200000D03*
%TD*%
D20*
%TO.P,R1,1*%
%TO.N,+5V*%
X7525000Y-68500000D03*
%TO.P,R1,2*%
%TO.N,Net-(D2-A)*%
X5875000Y-68500000D03*
%TD*%
D52*
%TO.P,Q2,1,B*%
%TO.N,Net-(Q2-B)*%
X5750000Y-72637500D03*
%TO.P,Q2,2,E*%
%TO.N,/Controller/~USB_DTR*%
X7650000Y-72637500D03*
%TO.P,Q2,3,C*%
%TO.N,/Controller/GPIO0*%
X6700000Y-70762500D03*
%TD*%
D31*
%TO.P,R39,1*%
%TO.N,Net-(C45-Pad2)*%
X62199999Y-22225000D03*
%TO.P,R39,2*%
%TO.N,/Sensors/Ultrasonic2/INP*%
X62199999Y-20575000D03*
%TD*%
D20*
%TO.P,R19,1*%
%TO.N,Net-(U5-~{DTR})*%
X32425000Y-72100000D03*
%TO.P,R19,2*%
%TO.N,/Controller/~USB_DTR*%
X30775000Y-72100000D03*
%TD*%
D33*
%TO.P,R42,1*%
%TO.N,/Sensors/Ultrasonic2/IO*%
X61000000Y-36774999D03*
%TO.P,R42,2*%
%TO.N,+9V*%
X61000000Y-38424999D03*
%TD*%
D53*
%TO.P,C23,1*%
%TO.N,+9V*%
X44125000Y-49500000D03*
%TO.P,C23,2*%
%TO.N,GND*%
X47075000Y-49500000D03*
%TD*%
D23*
%TO.P,C26,1*%
%TO.N,Net-(U4-COMP)*%
X48925000Y-57300000D03*
%TO.P,C26,2*%
%TO.N,GND*%
X50475000Y-57300000D03*
%TD*%
D14*
%TO.P,TP6,1,1*%
%TO.N,US_IO_2*%
X62800000Y-34299999D03*
%TD*%
D54*
%TO.P,T2,1,PR1*%
%TO.N,/Sensors/Ultrasonic2/OUTB*%
X55100000Y-25150000D03*
%TO.P,T2,2,PM*%
%TO.N,Net-(T2-PM)*%
X57300000Y-25150000D03*
%TO.P,T2,3,PR2*%
%TO.N,/Sensors/Ultrasonic2/OUTA*%
X59500000Y-25150000D03*
%TO.P,T2,4,S1*%
%TO.N,/Sensors/Ultrasonic2/INP*%
X59500000Y-18450000D03*
%TO.P,T2,6,S2*%
%TO.N,GND*%
X55100000Y-18450000D03*
%TD*%
D13*
%TO.P,C34,1*%
%TO.N,Net-(U8-VPWR)*%
X64000000Y-47175000D03*
%TO.P,C34,2*%
%TO.N,GND*%
X64000000Y-45625000D03*
%TD*%
D23*
%TO.P,C19,1*%
%TO.N,+BATT*%
X44025000Y-62300000D03*
%TO.P,C19,2*%
%TO.N,GND*%
X45575000Y-62300000D03*
%TD*%
D31*
%TO.P,R15,1*%
%TO.N,+3V3*%
X40900000Y-72725000D03*
%TO.P,R15,2*%
%TO.N,Net-(U5-~{RST})*%
X40900000Y-71075000D03*
%TD*%
D24*
%TO.P,C4,1*%
%TO.N,+5V*%
X23300000Y-62525000D03*
%TO.P,C4,2*%
%TO.N,GND*%
X23300000Y-65475000D03*
%TD*%
D14*
%TO.P,TP3,1,1*%
%TO.N,US_IO_1*%
X59200000Y-49700000D03*
%TD*%
D55*
%TO.P,U6,1,GND*%
%TO.N,GND*%
X1565000Y-52370000D03*
%TO.P,U6,2,VDD*%
%TO.N,+3V3*%
X2835000Y-52370000D03*
%TO.P,U6,3,EN*%
%TO.N,/Controller/EN*%
X4105000Y-52370000D03*
%TO.P,U6,4,SENSOR_VP*%
%TO.N,unconnected-(U6-SENSOR_VP-Pad4)*%
X5375000Y-52370000D03*
%TO.P,U6,5,SENSOR_VN*%
%TO.N,unconnected-(U6-SENSOR_VN-Pad5)*%
X6645000Y-52370000D03*
%TO.P,U6,6,IO34*%
%TO.N,/Controller/BATT_MEAS*%
X7915000Y-52370000D03*
%TO.P,U6,7,IO35*%
%TO.N,US_IO_2*%
X9185000Y-52370000D03*
%TO.P,U6,8,IO32*%
%TO.N,US_MISO*%
X10455000Y-52370000D03*
%TO.P,U6,9,IO33*%
%TO.N,US_MOSI*%
X11725000Y-52370000D03*
%TO.P,U6,10,IO25*%
%TO.N,US_SCK*%
X12995000Y-52370000D03*
%TO.P,U6,11,IO26*%
%TO.N,US_IO_1*%
X14265000Y-52370000D03*
%TO.P,U6,12,IO27*%
%TO.N,/Controller/LCD_A0*%
X15535000Y-52370000D03*
%TO.P,U6,13,IO14*%
%TO.N,unconnected-(U6-IO14-Pad13)*%
X16805000Y-52370000D03*
%TO.P,U6,14,IO12*%
%TO.N,/Controller/LCD_CS*%
X18075000Y-52370000D03*
D56*
%TO.P,U6,15,GND*%
%TO.N,GND*%
X19325000Y-49330000D03*
%TO.P,U6,16,IO13*%
%TO.N,/Controller/BTN_PRESS*%
X19325000Y-48060000D03*
%TO.P,U6,17,SHD/SD2*%
%TO.N,unconnected-(U6-SHD{slash}SD2-Pad17)*%
X19325000Y-46790000D03*
%TO.P,U6,18,SWP/SD3*%
%TO.N,unconnected-(U6-SWP{slash}SD3-Pad18)*%
X19325000Y-45520000D03*
%TO.P,U6,19,SCS/CMD*%
%TO.N,unconnected-(U6-SCS{slash}CMD-Pad19)*%
X19325000Y-44250000D03*
%TO.P,U6,20,SCK/CLK*%
%TO.N,unconnected-(U6-SCK{slash}CLK-Pad20)*%
X19325000Y-42980000D03*
%TO.P,U6,21,SDO/SD0*%
%TO.N,unconnected-(U6-SDO{slash}SD0-Pad21)*%
X19325000Y-41710000D03*
%TO.P,U6,22,SDI/SD1*%
%TO.N,unconnected-(U6-SDI{slash}SD1-Pad22)*%
X19325000Y-40440000D03*
%TO.P,U6,23,IO15*%
%TO.N,unconnected-(U6-IO15-Pad23)*%
X19325000Y-39170000D03*
%TO.P,U6,24,IO2*%
%TO.N,/Controller/BTN_READ*%
X19325000Y-37900000D03*
D55*
%TO.P,U6,25,IO0*%
%TO.N,/Controller/GPIO0*%
X18075000Y-34870000D03*
%TO.P,U6,26,IO4*%
%TO.N,/Controller/LCD_RES*%
X16805000Y-34870000D03*
%TO.P,U6,27,IO16*%
%TO.N,GPS_TX*%
X15535000Y-34870000D03*
%TO.P,U6,28,IO17*%
%TO.N,GPS_RX*%
X14265000Y-34870000D03*
%TO.P,U6,29,IO5*%
%TO.N,/Controller/SD_CS*%
X12995000Y-34870000D03*
%TO.P,U6,30,IO18*%
%TO.N,/Controller/SCK*%
X11725000Y-34870000D03*
%TO.P,U6,31,IO19*%
%TO.N,/Controller/MISO*%
X10455000Y-34870000D03*
%TO.P,U6,32,NC*%
%TO.N,unconnected-(U6-NC-Pad32)*%
X9185000Y-34870000D03*
%TO.P,U6,33,IO21*%
%TO.N,unconnected-(U6-IO21-Pad33)*%
X7915000Y-34870000D03*
%TO.P,U6,34,RXD0/IO3*%
%TO.N,/Controller/USB_TX*%
X6645000Y-34870000D03*
%TO.P,U6,35,TXD0/IO1*%
%TO.N,/Controller/USB_RX*%
X5375000Y-34870000D03*
%TO.P,U6,36,IO22*%
%TO.N,unconnected-(U6-IO22-Pad36)*%
X4105000Y-34870000D03*
%TO.P,U6,37,IO23*%
%TO.N,/Controller/MOSI*%
X2835000Y-34870000D03*
%TO.P,U6,38,GND*%
%TO.N,GND*%
X1565000Y-34870000D03*
D57*
%TO.P,U6,39,GND*%
X7380000Y-45825000D03*
D58*
X8142500Y-45825000D03*
D57*
X8905000Y-45825000D03*
D58*
X9667500Y-45825000D03*
D57*
X10430000Y-45825000D03*
D58*
X7380000Y-45062500D03*
X8905000Y-45062500D03*
X10430000Y-45062500D03*
D57*
X7380000Y-44300000D03*
D58*
X8142500Y-44300000D03*
D57*
X8905000Y-44300000D03*
D59*
X8905000Y-44300000D03*
D58*
X9667500Y-44300000D03*
D57*
X10430000Y-44300000D03*
D58*
X7380000Y-43537500D03*
X8905000Y-43537500D03*
X10430000Y-43537500D03*
D57*
X7380000Y-42775000D03*
D58*
X8142500Y-42775000D03*
D57*
X8905000Y-42775000D03*
D58*
X9667500Y-42775000D03*
D57*
X10430000Y-42775000D03*
%TD*%
D29*
%TO.P,C48,1*%
%TO.N,/Controller/BATT_MEAS*%
X5975000Y-57700000D03*
%TO.P,C48,2*%
%TO.N,GND*%
X4425000Y-57700000D03*
%TD*%
D25*
%TO.P,C1,1*%
%TO.N,+5V*%
X19100000Y-60875000D03*
%TO.P,C1,2*%
%TO.N,GND*%
X19100000Y-57925000D03*
%TD*%
D20*
%TO.P,R12,1*%
%TO.N,Net-(C25-Pad1)*%
X50525000Y-58800000D03*
%TO.P,R12,2*%
%TO.N,Net-(U4-COMP)*%
X48875000Y-58800000D03*
%TD*%
D23*
%TO.P,C32,1*%
%TO.N,+3V3GPS*%
X30225000Y-27500000D03*
%TO.P,C32,2*%
%TO.N,GND*%
X31775000Y-27500000D03*
%TD*%
D24*
%TO.P,C2,1*%
%TO.N,+5V*%
X21000000Y-62525000D03*
%TO.P,C2,2*%
%TO.N,GND*%
X21000000Y-65475000D03*
%TD*%
%TO.P,C10,1*%
%TO.N,+3V3*%
X31900000Y-54425000D03*
%TO.P,C10,2*%
%TO.N,GND*%
X31900000Y-57375000D03*
%TD*%
D60*
%TO.P,U2,1,GND*%
%TO.N,GND*%
X29250000Y-62362500D03*
%TO.P,U2,2,SW*%
%TO.N,/Power Supply/SW*%
X28300000Y-62362500D03*
%TO.P,U2,3,VIN*%
%TO.N,+5V*%
X27350000Y-62362500D03*
%TO.P,U2,4,VFB*%
%TO.N,Net-(U2-VFB)*%
X27350000Y-64637500D03*
%TO.P,U2,5,EN*%
%TO.N,+5V*%
X28300000Y-64637500D03*
%TO.P,U2,6,VBST*%
%TO.N,/Power Supply/VBST*%
X29250000Y-64637500D03*
%TD*%
D14*
%TO.P,TP1,1,1*%
%TO.N,Net-(U4-SYNC)*%
X49200000Y-62100000D03*
%TD*%
D53*
%TO.P,C13,1*%
%TO.N,+5V*%
X26825000Y-57130000D03*
%TO.P,C13,2*%
%TO.N,GND*%
X29775000Y-57130000D03*
%TD*%
D17*
%TO.P,R37,1*%
%TO.N,+9V*%
X67599999Y-22237500D03*
%TO.P,R37,2*%
%TO.N,Net-(T2-PM)*%
X67599999Y-25162500D03*
%TD*%
D13*
%TO.P,C15,1*%
%TO.N,+5V*%
X38700000Y-25075000D03*
%TO.P,C15,2*%
%TO.N,GND*%
X38700000Y-23525000D03*
%TD*%
D61*
%TO.P,L3,1*%
%TO.N,+BATT*%
X40300000Y-62550000D03*
%TO.P,L3,2*%
%TO.N,Net-(D3-A)*%
X40300000Y-58450000D03*
%TD*%
D52*
%TO.P,Q1,1,B*%
%TO.N,Net-(Q1-B)*%
X2150000Y-72637500D03*
%TO.P,Q1,2,E*%
%TO.N,/Controller/~USB_RTS*%
X4050000Y-72637500D03*
%TO.P,Q1,3,C*%
%TO.N,/Controller/EN*%
X3100000Y-70762500D03*
%TD*%
D62*
%TO.P,C46,1*%
%TO.N,Net-(T2-PM)*%
X65300000Y-26800000D03*
%TO.P,C46,2*%
%TO.N,GND*%
X65300000Y-32400000D03*
%TD*%
D12*
%TO.P,D2,1,K*%
%TO.N,GND*%
X2712500Y-68500000D03*
%TO.P,D2,2,A*%
%TO.N,Net-(D2-A)*%
X4287500Y-68500000D03*
%TD*%
D23*
%TO.P,C21,1*%
%TO.N,+9V*%
X44025000Y-53700000D03*
%TO.P,C21,2*%
%TO.N,GND*%
X45575000Y-53700000D03*
%TD*%
D20*
%TO.P,R16,1*%
%TO.N,Net-(U5-TXD)*%
X32425000Y-70600000D03*
%TO.P,R16,2*%
%TO.N,/Controller/USB_TX*%
X30775000Y-70600000D03*
%TD*%
D31*
%TO.P,R36,1*%
%TO.N,/Sensors/Ultrasonic1/IO*%
X61000000Y-47225000D03*
%TO.P,R36,2*%
%TO.N,+9V*%
X61000000Y-45575000D03*
%TD*%
D33*
%TO.P,R41,1*%
%TO.N,US_IO_2*%
X66400000Y-36674999D03*
%TO.P,R41,2*%
%TO.N,+3V3*%
X66400000Y-38324999D03*
%TD*%
D23*
%TO.P,C14,1*%
%TO.N,+5V*%
X27525000Y-59100000D03*
%TO.P,C14,2*%
%TO.N,GND*%
X29075000Y-59100000D03*
%TD*%
D22*
%TO.P,C16,1*%
%TO.N,+3V3GPS*%
X33000000Y-23525000D03*
%TO.P,C16,2*%
%TO.N,GND*%
X33000000Y-25075000D03*
%TD*%
D63*
%TO.P,C39,1*%
%TO.N,Net-(T1-PM)*%
X56700000Y-57200000D03*
%TO.P,C39,2*%
%TO.N,GND*%
X56700000Y-51600000D03*
%TD*%
D64*
%TO.P,LS1,1,1*%
%TO.N,/Sensors/Ultrasonic1/INP*%
X56000000Y-75500000D03*
%TO.P,LS1,2,2*%
%TO.N,GND*%
X66000000Y-75500000D03*
%TD*%
D16*
%TO.P,R34,1*%
%TO.N,GND*%
X55275000Y-66800000D03*
%TO.P,R34,2*%
%TO.N,Net-(Q7-D)*%
X56925000Y-66800000D03*
%TD*%
D20*
%TO.P,R24,1*%
%TO.N,/Controller/BATT_MEAS*%
X6025000Y-59300000D03*
%TO.P,R24,2*%
%TO.N,GND*%
X4375000Y-59300000D03*
%TD*%
D31*
%TO.P,R20,1*%
%TO.N,Net-(U5-~{SUSPEND})*%
X40900000Y-69725000D03*
%TO.P,R20,2*%
%TO.N,GND*%
X40900000Y-68075000D03*
%TD*%
D22*
%TO.P,C9,1*%
%TO.N,/Power Supply/SW*%
X30800000Y-64025000D03*
%TO.P,C9,2*%
%TO.N,/Power Supply/VBST*%
X30800000Y-65575000D03*
%TD*%
D34*
%TO.P,Q9,1,G*%
%TO.N,/Sensors/Ultrasonic2/DECPL*%
X67337499Y-20650000D03*
%TO.P,Q9,2,S*%
%TO.N,GND*%
X67337499Y-18750000D03*
%TO.P,Q9,3,D*%
%TO.N,Net-(Q9-D)*%
X65462499Y-19700000D03*
%TD*%
D31*
%TO.P,R5,1*%
%TO.N,Net-(C8-Pad1)*%
X14600000Y-64125000D03*
%TO.P,R5,2*%
%TO.N,+BATT*%
X14600000Y-62475000D03*
%TD*%
D16*
%TO.P,R28,1*%
%TO.N,/Controller/BTN_PRESS*%
X39375000Y-35200000D03*
%TO.P,R28,2*%
%TO.N,GND*%
X41025000Y-35200000D03*
%TD*%
D33*
%TO.P,R33,1*%
%TO.N,Net-(C38-Pad2)*%
X59800000Y-61775000D03*
%TO.P,R33,2*%
%TO.N,/Sensors/Ultrasonic1/INP*%
X59800000Y-63425000D03*
%TD*%
D30*
%TO.P,Q7,1,G*%
%TO.N,/Sensors/Ultrasonic1/DECPL*%
X54662500Y-63350000D03*
%TO.P,Q7,2,S*%
%TO.N,GND*%
X54662500Y-65250000D03*
%TO.P,Q7,3,D*%
%TO.N,Net-(Q7-D)*%
X56537500Y-64300000D03*
%TD*%
D53*
%TO.P,C12,1*%
%TO.N,+5V*%
X26825000Y-54730000D03*
%TO.P,C12,2*%
%TO.N,GND*%
X29775000Y-54730000D03*
%TD*%
D16*
%TO.P,R13,1*%
%TO.N,Net-(U4-FB)*%
X48875000Y-55800000D03*
%TO.P,R13,2*%
%TO.N,GND*%
X50525000Y-55800000D03*
%TD*%
D65*
%TO.P,U5,1,~{DCD}*%
%TO.N,unconnected-(U5-~{DCD}-Pad1)*%
X35100000Y-72350000D03*
%TO.P,U5,2,~{RI}/CLK*%
%TO.N,unconnected-(U5-~{RI}{slash}CLK-Pad2)*%
X35600000Y-72350000D03*
%TO.P,U5,3,GND*%
%TO.N,GND*%
X36100000Y-72350000D03*
%TO.P,U5,4,D+*%
%TO.N,USB_DP*%
X36600000Y-72350000D03*
%TO.P,U5,5,D-*%
%TO.N,USB_DN*%
X37100000Y-72350000D03*
%TO.P,U5,6,VDD*%
%TO.N,/Controller/VDD_USB*%
X37600000Y-72350000D03*
%TO.P,U5,7,VREGIN*%
%TO.N,+USB*%
X38100000Y-72350000D03*
D66*
%TO.P,U5,8,VBUS*%
X39050000Y-71400000D03*
%TO.P,U5,9,~{RST}*%
%TO.N,Net-(U5-~{RST})*%
X39050000Y-70900000D03*
%TO.P,U5,10,NC*%
%TO.N,unconnected-(U5-NC-Pad10)*%
X39050000Y-70400000D03*
%TO.P,U5,11,~{SUSPEND}*%
%TO.N,Net-(U5-~{SUSPEND})*%
X39050000Y-69900000D03*
%TO.P,U5,12,SUSPEND*%
%TO.N,unconnected-(U5-SUSPEND-Pad12)*%
X39050000Y-69400000D03*
%TO.P,U5,13,CHREN*%
%TO.N,unconnected-(U5-CHREN-Pad13)*%
X39050000Y-68900000D03*
%TO.P,U5,14,CHR1*%
%TO.N,unconnected-(U5-CHR1-Pad14)*%
X39050000Y-68400000D03*
D65*
%TO.P,U5,15,CHR0*%
%TO.N,unconnected-(U5-CHR0-Pad15)*%
X38100000Y-67450000D03*
%TO.P,U5,16,~{WAKEUP}/GPIO.3*%
%TO.N,unconnected-(U5-~{WAKEUP}{slash}GPIO.3-Pad16)*%
X37600000Y-67450000D03*
%TO.P,U5,17,RS485/GPIO.2*%
%TO.N,unconnected-(U5-RS485{slash}GPIO.2-Pad17)*%
X37100000Y-67450000D03*
%TO.P,U5,18,~{RXT}/GPIO.1*%
%TO.N,unconnected-(U5-~{RXT}{slash}GPIO.1-Pad18)*%
X36600000Y-67450000D03*
%TO.P,U5,19,~{TXT}/GPIO.0*%
%TO.N,unconnected-(U5-~{TXT}{slash}GPIO.0-Pad19)*%
X36100000Y-67450000D03*
%TO.P,U5,20,GPIO.6*%
%TO.N,unconnected-(U5-GPIO.6-Pad20)*%
X35600000Y-67450000D03*
%TO.P,U5,21,GPIO.5*%
%TO.N,unconnected-(U5-GPIO.5-Pad21)*%
X35100000Y-67450000D03*
D66*
%TO.P,U5,22,GPIO.4*%
%TO.N,unconnected-(U5-GPIO.4-Pad22)*%
X34150000Y-68400000D03*
%TO.P,U5,23,~{CTS}*%
%TO.N,unconnected-(U5-~{CTS}-Pad23)*%
X34150000Y-68900000D03*
%TO.P,U5,24,~{RTS}*%
%TO.N,Net-(U5-~{RTS})*%
X34150000Y-69400000D03*
%TO.P,U5,25,RXD*%
%TO.N,Net-(U5-RXD)*%
X34150000Y-69900000D03*
%TO.P,U5,26,TXD*%
%TO.N,Net-(U5-TXD)*%
X34150000Y-70400000D03*
%TO.P,U5,27,~{DSR}*%
%TO.N,unconnected-(U5-~{DSR}-Pad27)*%
X34150000Y-70900000D03*
%TO.P,U5,28,~{DTR}*%
%TO.N,Net-(U5-~{DTR})*%
X34150000Y-71400000D03*
D67*
%TO.P,U5,29,GND*%
%TO.N,GND*%
X36600000Y-69900000D03*
%TD*%
D31*
%TO.P,R27,1*%
%TO.N,+BATT*%
X26100000Y-39925000D03*
%TO.P,R27,2*%
%TO.N,/Controller/BUTTON*%
X26100000Y-38275000D03*
%TD*%
D53*
%TO.P,C22,1*%
%TO.N,+9V*%
X44125000Y-51800000D03*
%TO.P,C22,2*%
%TO.N,GND*%
X47075000Y-51800000D03*
%TD*%
D20*
%TO.P,R17,1*%
%TO.N,Net-(U5-RXD)*%
X32425000Y-69100000D03*
%TO.P,R17,2*%
%TO.N,/Controller/USB_RX*%
X30775000Y-69100000D03*
%TD*%
D68*
%TO.P,U9,1,GND*%
%TO.N,GND*%
X58775000Y-28837500D03*
%TO.P,U9,2,INP*%
%TO.N,Net-(U9-INP)*%
X58125000Y-28837500D03*
%TO.P,U9,3,INN*%
%TO.N,Net-(U9-INN)*%
X57475000Y-28837500D03*
%TO.P,U9,4,GND*%
%TO.N,GND*%
X56825000Y-28837500D03*
%TO.P,U9,5,OUTA*%
%TO.N,/Sensors/Ultrasonic2/OUTA*%
X56175000Y-28837500D03*
%TO.P,U9,6,GNDP*%
%TO.N,GND*%
X55525000Y-28837500D03*
%TO.P,U9,7,OUTB*%
%TO.N,/Sensors/Ultrasonic2/OUTB*%
X54875000Y-28837500D03*
%TO.P,U9,8,IO*%
%TO.N,/Sensors/Ultrasonic2/IO*%
X54225000Y-28837500D03*
%TO.P,U9,9,TEST*%
%TO.N,/Sensors/Ultrasonic2/TEST*%
X54225000Y-34562500D03*
%TO.P,U9,10,TXD*%
%TO.N,US_MISO*%
X54875000Y-34562500D03*
%TO.P,U9,11,RXD*%
%TO.N,US_MOSI*%
X55525000Y-34562500D03*
%TO.P,U9,12,SCLK*%
%TO.N,US_SCK*%
X56175000Y-34562500D03*
%TO.P,U9,13,DECPL*%
%TO.N,/Sensors/Ultrasonic2/DECPL*%
X56825000Y-34562500D03*
%TO.P,U9,14,IOREG*%
%TO.N,/Sensors/Ultrasonic2/IOREG*%
X57475000Y-34562500D03*
%TO.P,U9,15,VPWR*%
%TO.N,Net-(U9-VPWR)*%
X58125000Y-34562500D03*
%TO.P,U9,16,AVDD*%
%TO.N,/Sensors/Ultrasonic2/AVDD*%
X58775000Y-34562500D03*
%TD*%
D31*
%TO.P,R8,1*%
%TO.N,Net-(U2-VFB)*%
X32800000Y-62925000D03*
%TO.P,R8,2*%
%TO.N,GND*%
X32800000Y-61275000D03*
%TD*%
%TO.P,R25,1*%
%TO.N,IP5306_BTN*%
X41900000Y-41825000D03*
%TO.P,R25,2*%
%TO.N,Net-(Q3-D)*%
X41900000Y-40175000D03*
%TD*%
D23*
%TO.P,C24,1*%
%TO.N,Net-(U4-SS)*%
X48925000Y-63900000D03*
%TO.P,C24,2*%
%TO.N,GND*%
X50475000Y-63900000D03*
%TD*%
D69*
%TO.P,J4,1,DAT2*%
%TO.N,unconnected-(J4-DAT2-Pad1)*%
X21650000Y-69137491D03*
%TO.P,J4,2,DAT3/CD*%
%TO.N,/Controller/SD_CS*%
X20550000Y-69137491D03*
%TO.P,J4,3,CMD*%
%TO.N,/Controller/MOSI*%
X19450000Y-69137491D03*
%TO.P,J4,4,VDD*%
%TO.N,+3V3*%
X18350000Y-69137491D03*
%TO.P,J4,5,CLK*%
%TO.N,/Controller/SCK*%
X17250000Y-69137491D03*
%TO.P,J4,6,VSS*%
%TO.N,GND*%
X16150000Y-69137491D03*
%TO.P,J4,7,DAT0*%
%TO.N,/Controller/MISO*%
X15050000Y-69137491D03*
%TO.P,J4,8,DAT1*%
%TO.N,unconnected-(J4-DAT1-Pad8)*%
X13950000Y-69137491D03*
D70*
%TO.P,J4,9,SHIELD*%
%TO.N,GND*%
X11750000Y-69987491D03*
D71*
X11750000Y-79687491D03*
D70*
X26430000Y-69987491D03*
D71*
X27270000Y-79687491D03*
%TD*%
D29*
%TO.P,C35,1*%
%TO.N,/Sensors/Ultrasonic1/INP*%
X59875000Y-64900000D03*
%TO.P,C35,2*%
%TO.N,Net-(Q7-D)*%
X58325000Y-64900000D03*
%TD*%
D54*
%TO.P,T1,1,PR1*%
%TO.N,/Sensors/Ultrasonic1/OUTB*%
X66899999Y-58850000D03*
%TO.P,T1,2,PM*%
%TO.N,Net-(T1-PM)*%
X64699999Y-58850000D03*
%TO.P,T1,3,PR2*%
%TO.N,/Sensors/Ultrasonic1/OUTA*%
X62499999Y-58850000D03*
%TO.P,T1,4,S1*%
%TO.N,/Sensors/Ultrasonic1/INP*%
X62499999Y-65550000D03*
%TO.P,T1,6,S2*%
%TO.N,GND*%
X66899999Y-65550000D03*
%TD*%
D64*
%TO.P,LS2,1,1*%
%TO.N,/Sensors/Ultrasonic2/INP*%
X65999999Y-8500000D03*
%TO.P,LS2,2,2*%
%TO.N,GND*%
X55999999Y-8500000D03*
%TD*%
D72*
%TO.N,GND*%
X18800000Y-28500000D03*
%TO.N,+3V3*%
X17700000Y-30900000D03*
X19000000Y-32000000D03*
X18200000Y-32000000D03*
%TO.N,/Controller/BUTTON*%
X17400000Y-15700000D03*
%TO.N,/Controller/LCD_CS*%
X17400000Y-20300000D03*
%TO.N,/Controller/LCD_A0*%
X14900000Y-25500000D03*
%TO.N,/Controller/LCD_RES*%
X20200000Y-30600000D03*
%TO.N,/Controller/BUTTON*%
X22800000Y-30700000D03*
%TO.N,GND*%
X33000000Y-59200000D03*
D73*
X64000000Y-33800000D03*
X9300000Y-55800000D03*
D72*
X13300000Y-57200000D03*
X29100000Y-17600000D03*
D73*
X45900000Y-57700000D03*
D72*
X12500000Y-57700000D03*
X22000000Y-58900000D03*
D73*
X58200000Y-67600000D03*
D72*
X31800000Y-55600000D03*
D73*
X46100000Y-52300000D03*
D72*
X37100000Y-76200000D03*
D73*
X58000000Y-39300000D03*
X64000000Y-32400000D03*
D72*
X40600000Y-41900000D03*
D73*
X64000000Y-31700000D03*
D72*
X13300000Y-58000000D03*
D73*
X43100000Y-55700000D03*
D72*
X13000000Y-79700000D03*
X42000000Y-35200000D03*
D73*
X47750000Y-57450000D03*
D72*
X23000000Y-64400000D03*
D73*
X63800000Y-16400000D03*
D72*
X11750000Y-71150000D03*
X22200000Y-64400000D03*
X30200000Y-62800000D03*
X29100000Y-14500000D03*
X31000000Y-62000000D03*
X31300000Y-17600000D03*
X40900000Y-67100000D03*
X32600000Y-55600000D03*
D73*
X46100000Y-50200000D03*
X58000000Y-53000000D03*
X41900000Y-80600000D03*
X48600000Y-53300000D03*
X58900000Y-30100000D03*
X46400000Y-53100000D03*
D72*
X20600000Y-64400000D03*
X18800000Y-58900000D03*
X29700000Y-75900000D03*
D73*
X43100000Y-56500000D03*
X58000000Y-50900000D03*
X58000000Y-51600000D03*
D72*
X19600000Y-58900000D03*
D73*
X56700000Y-30100000D03*
X61300000Y-23700000D03*
X41900000Y-79000000D03*
D72*
X31000000Y-60400000D03*
X31300000Y-14500000D03*
D73*
X64000000Y-44700000D03*
D72*
X33000000Y-26000000D03*
D73*
X44700000Y-54900000D03*
D72*
X1800000Y-51000000D03*
D73*
X51300000Y-57300000D03*
X44900000Y-56700000D03*
X68500000Y-18800000D03*
D72*
X31000000Y-62800000D03*
X11100000Y-63700000D03*
X21400000Y-64400000D03*
X20900000Y-67500000D03*
D73*
X65500000Y-44700000D03*
X66700000Y-16200000D03*
D72*
X31600000Y-59800000D03*
X34300000Y-67600000D03*
D73*
X56500000Y-39300000D03*
D72*
X10900000Y-57700000D03*
D73*
X62500000Y-44700000D03*
D72*
X23300000Y-57200000D03*
X20400000Y-58900000D03*
D73*
X45400000Y-57200000D03*
X59500000Y-39300000D03*
X46400000Y-60800000D03*
D72*
X36100000Y-39200000D03*
X11700000Y-57700000D03*
X31000000Y-61200000D03*
D73*
X45900000Y-56700000D03*
D72*
X16200000Y-67700000D03*
D73*
X64000000Y-33100000D03*
D72*
X17700000Y-57200000D03*
X39700000Y-23500000D03*
X16900000Y-57200000D03*
D73*
X53500000Y-65200000D03*
D72*
X32200000Y-59200000D03*
D73*
X55100000Y-16600000D03*
X46400000Y-65300000D03*
X46400000Y-62300000D03*
X4300000Y-56900000D03*
D72*
X38240110Y-38299817D03*
X39900000Y-76100000D03*
D73*
X51300000Y-63900000D03*
X51300000Y-55800000D03*
D72*
X26400000Y-71200000D03*
D73*
X43100000Y-54900000D03*
D72*
X11100000Y-65300000D03*
X23800000Y-64400000D03*
D73*
X55700000Y-30100000D03*
D72*
X17900000Y-49300000D03*
D73*
X58000000Y-52300000D03*
D72*
X1900000Y-36200000D03*
D73*
X45500000Y-54900000D03*
D72*
X21200000Y-58900000D03*
X16900000Y-58800000D03*
X26100000Y-79700000D03*
X22300000Y-27075500D03*
D73*
X66300000Y-53900000D03*
X46100000Y-48800000D03*
D72*
X27000000Y-28900000D03*
D73*
X43900000Y-55700000D03*
D72*
X22200000Y-54800000D03*
D73*
X65300000Y-53900000D03*
D72*
X34300000Y-72200000D03*
D73*
X55300000Y-67800000D03*
X44900000Y-57700000D03*
D72*
X29300000Y-40100000D03*
X16900000Y-58000000D03*
X37000000Y-37800000D03*
D73*
X46100000Y-50900000D03*
D72*
X34600000Y-59200000D03*
X35844622Y-24055378D03*
D73*
X60700000Y-60300000D03*
X51300000Y-60300000D03*
X64000000Y-31000000D03*
D72*
X41100000Y-76700000D03*
D73*
X58000000Y-50200000D03*
X66900000Y-67400000D03*
X43900000Y-54900000D03*
X63100000Y-53900000D03*
D72*
X32700000Y-27500000D03*
X13300000Y-58800000D03*
X11100000Y-64500000D03*
X38500000Y-76300000D03*
X18000000Y-58900000D03*
X31000000Y-55600000D03*
D73*
X46100000Y-49500000D03*
D72*
X1800000Y-69400000D03*
D73*
X46400000Y-63800000D03*
D72*
X38900000Y-67600000D03*
X29800000Y-53200000D03*
X34600000Y-55600000D03*
D73*
%TO.N,+BATT*%
X2000000Y-42800000D03*
X43200000Y-64300000D03*
D72*
X8400000Y-62700000D03*
D73*
X21600000Y-41000000D03*
X17300000Y-41000000D03*
D72*
X6800000Y-61900000D03*
D73*
X43200000Y-62200000D03*
X43200000Y-61500000D03*
X900000Y-28500000D03*
X43200000Y-63600000D03*
D72*
X8400000Y-61900000D03*
X7600000Y-61900000D03*
D73*
X43200000Y-60800000D03*
X43200000Y-65000000D03*
X43200000Y-62900000D03*
%TO.N,+5V*%
X45990734Y-59709266D03*
X37500000Y-43400000D03*
X37537500Y-41900000D03*
X41500000Y-60500000D03*
D72*
%TO.N,+USB*%
X18700000Y-54500000D03*
X17900000Y-54500000D03*
X18700000Y-55300000D03*
X17900000Y-55300000D03*
X31000000Y-75900000D03*
X35400000Y-78600000D03*
X31400000Y-78500000D03*
X39200000Y-72800000D03*
X36000000Y-75900000D03*
D73*
%TO.N,+3V3*%
X58600000Y-45700000D03*
D72*
X34000000Y-53200000D03*
X32800000Y-29000000D03*
D73*
X67700000Y-38300000D03*
D72*
X33200000Y-53200000D03*
X32400000Y-51600000D03*
X18300000Y-70400000D03*
X41900000Y-72700000D03*
D73*
X54300000Y-45700000D03*
D72*
X2800000Y-51000000D03*
D73*
X64700000Y-39100000D03*
D72*
X34300000Y-60400000D03*
X34800000Y-53200000D03*
X6700000Y-54200000D03*
X32400000Y-52400000D03*
X32400000Y-53200000D03*
D73*
%TO.N,+9V*%
X54600000Y-60700000D03*
X53900000Y-60700000D03*
X43100000Y-49400000D03*
X60100000Y-28500000D03*
X61100000Y-53600000D03*
X66200000Y-22800000D03*
X43100000Y-52200000D03*
X66200000Y-22100000D03*
X43100000Y-53600000D03*
X43100000Y-50100000D03*
X60900000Y-30400000D03*
X50100000Y-51900000D03*
X61100000Y-55500000D03*
X45100000Y-51900000D03*
X43100000Y-50800000D03*
X55800000Y-61900000D03*
X60100000Y-30400000D03*
X61900000Y-53600000D03*
X67400000Y-23300000D03*
X66700000Y-23300000D03*
X43100000Y-48000000D03*
X55800000Y-61200000D03*
X55300000Y-60700000D03*
X61900000Y-55500000D03*
X43100000Y-48700000D03*
X60900000Y-28500000D03*
X61596329Y-46343898D03*
X43100000Y-52900000D03*
X43100000Y-51500000D03*
X60403671Y-37656102D03*
X68100000Y-23300000D03*
%TO.N,Net-(T1-PM)*%
X63700000Y-59400000D03*
X57900000Y-56500000D03*
X65700000Y-60100000D03*
X55300000Y-57600000D03*
X57900000Y-55800000D03*
X55300000Y-56800000D03*
X65700000Y-58000000D03*
X65700000Y-59400000D03*
X54500000Y-57600000D03*
X65700000Y-58700000D03*
X63700000Y-60100000D03*
X63700000Y-58700000D03*
X63700000Y-58000000D03*
%TO.N,Net-(T2-PM)*%
X56300000Y-23900000D03*
X56300000Y-26000000D03*
X58300000Y-26000000D03*
X58300000Y-25300000D03*
X66700000Y-27200000D03*
X56300000Y-25300000D03*
X64100000Y-27500000D03*
X64100000Y-28200000D03*
X67500000Y-26400000D03*
X56300000Y-24600000D03*
X58300000Y-24600000D03*
X66700000Y-26400000D03*
X58300000Y-23900000D03*
D72*
%TO.N,USB_DP*%
X32900000Y-75800000D03*
X34400000Y-75800000D03*
%TO.N,/Controller/SCK*%
X17300000Y-67700000D03*
D73*
X7800000Y-39500000D03*
D72*
%TO.N,/Controller/MOSI*%
X4700000Y-37900000D03*
X19400000Y-70400000D03*
D73*
%TO.N,/Controller/LCD_A0*%
X15500000Y-50900000D03*
%TO.N,US_IO_1*%
X27900000Y-48400000D03*
X15100000Y-48400000D03*
%TO.N,/Sensors/Ultrasonic1/IO*%
X61500000Y-50500000D03*
X67000000Y-51000000D03*
D72*
%TO.N,/Controller/~USB_DTR*%
X4600000Y-75400000D03*
X8600000Y-72700000D03*
X29800000Y-71800000D03*
D73*
%TO.N,/Controller/GPIO0*%
X3350500Y-41000000D03*
X4400000Y-61150500D03*
%TO.N,US_IO_2*%
X17800000Y-45400000D03*
X30600000Y-45400000D03*
%TO.N,/Sensors/Ultrasonic2/IO*%
X60500000Y-33500000D03*
X55000000Y-33000000D03*
D72*
%TO.N,Net-(U2-VFB)*%
X26600000Y-63700000D03*
X33600000Y-62200000D03*
%TO.N,/Controller/USB_RX*%
X5375000Y-36200000D03*
X29700000Y-69100000D03*
D73*
%TO.N,/Controller/USB_TX*%
X3100000Y-38800000D03*
D72*
X29700000Y-70600000D03*
D73*
%TO.N,IP5306_BTN*%
X12400000Y-60300000D03*
X34100000Y-41600000D03*
%TO.N,/Controller/LCD_RES*%
X16800000Y-36200000D03*
%TO.N,US_MISO*%
X54300000Y-42000000D03*
X54300000Y-40100000D03*
X29800000Y-46200000D03*
X17100000Y-46200000D03*
%TO.N,US_MOSI*%
X16300000Y-46900000D03*
X55290734Y-40409266D03*
X29100000Y-46900000D03*
X55300000Y-42700000D03*
%TO.N,US_SCK*%
X56200000Y-43400000D03*
X28500000Y-47700000D03*
X15700000Y-47700000D03*
X56200000Y-40400000D03*
D72*
%TO.N,/Power Supply/SW*%
X28700000Y-60300000D03*
X27900000Y-60300000D03*
X28000000Y-56000000D03*
X28700000Y-61100000D03*
X28100000Y-54700000D03*
X28500000Y-54000000D03*
X27900000Y-61100000D03*
X28500000Y-55400000D03*
D73*
%TO.N,/Controller/LCD_CS*%
X18000000Y-50800000D03*
D72*
%TO.N,/Controller/SD_CS*%
X20530378Y-70419622D03*
X5570572Y-40292143D03*
D73*
%TO.N,/Controller/MISO*%
X10400000Y-36100000D03*
D72*
X15100000Y-67700000D03*
%TD*%
D74*
%TO.N,/Controller/BUTTON*%
X22800000Y-30700000D02*
X22800000Y-35300000D01*
X22800000Y-35300000D02*
X24600000Y-37100000D01*
X24600000Y-37100000D02*
X24600000Y-38275000D01*
%TO.N,/Controller/LCD_RES*%
X20200000Y-30600000D02*
X20200000Y-23500000D01*
X20200000Y-23500000D02*
X18500000Y-21800000D01*
X18500000Y-21800000D02*
X17287500Y-21800000D01*
%TO.N,/Controller/BUTTON*%
X17387500Y-15712500D02*
X17400000Y-15700000D01*
X17387500Y-16600000D02*
X17387500Y-15712500D01*
D75*
%TO.N,GND*%
X18800000Y-29425000D02*
X18800000Y-28500000D01*
D74*
%TO.N,GPS_TX*%
X15535000Y-34870000D02*
X15535000Y-34265000D01*
X21400000Y-32700000D02*
X21400000Y-29100000D01*
X15535000Y-34265000D02*
X16200000Y-33600000D01*
X16200000Y-33600000D02*
X20500000Y-33600000D01*
X23600000Y-26900000D02*
X23600000Y-25550000D01*
X20500000Y-33600000D02*
X21400000Y-32700000D01*
X21400000Y-29100000D02*
X23600000Y-26900000D01*
%TO.N,GPS_RX*%
X14265000Y-34870000D02*
X14265000Y-33535000D01*
X14265000Y-33535000D02*
X14800000Y-33000000D01*
X14800000Y-33000000D02*
X20200000Y-33000000D01*
X20900000Y-32300000D02*
X20900000Y-25300000D01*
X20200000Y-33000000D02*
X20900000Y-32300000D01*
X20900000Y-25300000D02*
X22000000Y-24200000D01*
X22000000Y-24200000D02*
X24100000Y-24200000D01*
X24100000Y-24200000D02*
X24700000Y-24800000D01*
X24700000Y-24800000D02*
X24700000Y-25550000D01*
D75*
%TO.N,Net-(J3-Pin_1)*%
X15712500Y-31900000D02*
X13600000Y-31900000D01*
D74*
%TO.N,Net-(J3-Pin_7)*%
X15812500Y-16600000D02*
X13660000Y-16600000D01*
X13660000Y-16600000D02*
X13600000Y-16660000D01*
%TO.N,/Controller/LCD_CS*%
X17400000Y-20300000D02*
X17400000Y-19212500D01*
X17400000Y-19212500D02*
X17387500Y-19200000D01*
%TO.N,Net-(J3-Pin_6)*%
X15812500Y-19200000D02*
X13600000Y-19200000D01*
%TO.N,/Controller/MOSI*%
X3417500Y-28717500D02*
X2835000Y-29300000D01*
X3417500Y-28717500D02*
X4035000Y-28100000D01*
X4035000Y-28100000D02*
X15987500Y-28100000D01*
X15987500Y-28100000D02*
X17287500Y-26800000D01*
%TO.N,/Controller/LCD_A0*%
X14900000Y-25500000D02*
X16087500Y-25500000D01*
X16087500Y-25500000D02*
X17287500Y-24300000D01*
%TO.N,Net-(J3-Pin_4)*%
X15712500Y-24300000D02*
X13620000Y-24300000D01*
X13620000Y-24300000D02*
X13600000Y-24280000D01*
%TO.N,Net-(J3-Pin_3)*%
X15712500Y-26800000D02*
X13620000Y-26800000D01*
X13620000Y-26800000D02*
X13600000Y-26820000D01*
%TO.N,/Controller/SCK*%
X11725000Y-31235000D02*
X12080000Y-30880000D01*
X12080000Y-30880000D02*
X12360000Y-30600000D01*
X12360000Y-30600000D02*
X16087500Y-30600000D01*
X16087500Y-30600000D02*
X17287500Y-29400000D01*
%TO.N,Net-(J3-Pin_2)*%
X15712500Y-29400000D02*
X14040000Y-29400000D01*
X14040000Y-29400000D02*
X14000000Y-29360000D01*
%TO.N,Net-(J3-Pin_5)*%
X15712500Y-21800000D02*
X13660000Y-21800000D01*
X13660000Y-21800000D02*
X13600000Y-21740000D01*
%TO.N,/Controller/LCD_RES*%
X16800000Y-36200000D02*
X16805000Y-36195000D01*
X16805000Y-36195000D02*
X16805000Y-34870000D01*
%TO.N,/Controller/GPIO0*%
X3350500Y-41000000D02*
X13900000Y-41000000D01*
X13900000Y-41000000D02*
X18075000Y-36825000D01*
X18075000Y-36825000D02*
X18075000Y-34870000D01*
%TO.N,GND*%
X68450000Y-18750000D02*
X68500000Y-18800000D01*
D76*
X66300000Y-53900000D02*
X66475000Y-54075000D01*
X29700000Y-75900000D02*
X30200000Y-76400000D01*
D75*
X21175000Y-54800000D02*
X22200000Y-54800000D01*
D76*
X36600000Y-77127500D02*
X37155000Y-77127500D01*
D74*
X27000000Y-28900000D02*
X27625000Y-28900000D01*
D76*
X1565000Y-51235000D02*
X1565000Y-52370000D01*
X27270000Y-79687491D02*
X26112509Y-79687491D01*
D74*
X36850000Y-37650000D02*
X37000000Y-37800000D01*
X62200000Y-23725000D02*
X61325000Y-23725000D01*
D76*
X19325000Y-49330000D02*
X17930000Y-49330000D01*
D74*
X32800000Y-59800000D02*
X32800000Y-61275000D01*
X66700000Y-17175000D02*
X66725000Y-17200000D01*
X46862500Y-57450000D02*
X47750000Y-57450000D01*
D76*
X31775000Y-27500000D02*
X32700000Y-27500000D01*
X65175000Y-54025000D02*
X65300000Y-53900000D01*
D77*
X38500000Y-76300000D02*
X38500000Y-76075000D01*
D74*
X60675000Y-60275000D02*
X60700000Y-60300000D01*
X58000000Y-38375000D02*
X58000000Y-39300000D01*
D76*
X29645000Y-77127500D02*
X29075000Y-77697500D01*
D74*
X27625000Y-28900000D02*
X28000000Y-29275000D01*
X1565000Y-52370000D02*
X1565000Y-53680000D01*
X37537500Y-39250000D02*
X36150000Y-39250000D01*
X50475000Y-60300000D02*
X51300000Y-60300000D01*
X64000000Y-45625000D02*
X64000000Y-44700000D01*
X58275000Y-66500000D02*
X58275000Y-67525000D01*
D76*
X17930000Y-49330000D02*
X17900000Y-49300000D01*
D74*
X66700000Y-16200000D02*
X66700000Y-17175000D01*
X55300000Y-66825000D02*
X55275000Y-66800000D01*
X31300000Y-16050000D02*
X31300000Y-17600000D01*
D76*
X55700000Y-30100000D02*
X55525000Y-29925000D01*
D74*
X29250000Y-40050000D02*
X29300000Y-40100000D01*
X48625000Y-54200000D02*
X48625000Y-53325000D01*
X54662500Y-65250000D02*
X53550000Y-65250000D01*
X22500000Y-26875500D02*
X22300000Y-27075500D01*
D76*
X63225000Y-55162500D02*
X63225000Y-54025000D01*
D74*
X16150000Y-67750000D02*
X16200000Y-67700000D01*
X36150000Y-39250000D02*
X36100000Y-39200000D01*
D76*
X1565000Y-35865000D02*
X1565000Y-34870000D01*
D74*
X41025000Y-35200000D02*
X42000000Y-35200000D01*
X41025000Y-79000000D02*
X41900000Y-79000000D01*
D76*
X58775000Y-29975000D02*
X58900000Y-30100000D01*
D74*
X59800000Y-60275000D02*
X60675000Y-60275000D01*
D76*
X1900000Y-36200000D02*
X1565000Y-35865000D01*
X66475000Y-54075000D02*
X66475000Y-55162500D01*
D74*
X67337500Y-18750000D02*
X68450000Y-18750000D01*
D76*
X26430000Y-71170000D02*
X26430000Y-69987491D01*
D74*
X40900000Y-68075000D02*
X40900000Y-67100000D01*
X58275000Y-67525000D02*
X58200000Y-67600000D01*
D76*
X33000000Y-25075000D02*
X33000000Y-26000000D01*
D74*
X50525000Y-55800000D02*
X51300000Y-55800000D01*
X56500000Y-38375000D02*
X56500000Y-39300000D01*
X27962500Y-40050000D02*
X29250000Y-40050000D01*
D77*
X39300000Y-75500000D02*
X39900000Y-76100000D01*
X39300000Y-75330000D02*
X39300000Y-75500000D01*
X37800000Y-75330000D02*
X38500000Y-76300000D01*
D74*
X4375000Y-57750000D02*
X4425000Y-57700000D01*
D76*
X63225000Y-54025000D02*
X63100000Y-53900000D01*
X26400000Y-71200000D02*
X26430000Y-71170000D01*
X30200000Y-76400000D02*
X30200000Y-77127500D01*
D74*
X65500000Y-45625000D02*
X65500000Y-44700000D01*
X40525000Y-41825000D02*
X40600000Y-41900000D01*
X41025000Y-80600000D02*
X41900000Y-80600000D01*
D76*
X58775000Y-28837500D02*
X58775000Y-29975000D01*
D74*
X53550000Y-65250000D02*
X53500000Y-65200000D01*
X22500000Y-25550000D02*
X22500000Y-26875500D01*
X35662500Y-37650000D02*
X36850000Y-37650000D01*
X63725000Y-16475000D02*
X63800000Y-16400000D01*
X62500000Y-45625000D02*
X62500000Y-44700000D01*
X55100001Y-18450000D02*
X55100000Y-16600000D01*
D76*
X30200000Y-77127500D02*
X29645000Y-77127500D01*
X56825000Y-28837500D02*
X56825000Y-29975000D01*
D74*
X39400000Y-41825000D02*
X40525000Y-41825000D01*
D76*
X26112509Y-79687491D02*
X26100000Y-79700000D01*
D74*
X1565000Y-53680000D02*
X1025000Y-54220000D01*
D76*
X12987491Y-79687491D02*
X13000000Y-79700000D01*
X11750000Y-79687491D02*
X12987491Y-79687491D01*
D74*
X16150000Y-69137491D02*
X16150000Y-67750000D01*
D75*
X23250000Y-57150000D02*
X23300000Y-57200000D01*
D76*
X36937500Y-24300000D02*
X36089244Y-24300000D01*
X39675000Y-23525000D02*
X39700000Y-23500000D01*
D74*
X63725000Y-17500000D02*
X63725000Y-16475000D01*
X50475000Y-63900000D02*
X51300000Y-63900000D01*
D76*
X36089244Y-24300000D02*
X35844622Y-24055378D01*
D74*
X48625000Y-53325000D02*
X48600000Y-53300000D01*
D76*
X55525000Y-29925000D02*
X55525000Y-28837500D01*
D74*
X38240110Y-38299817D02*
X38590293Y-38650000D01*
X4425000Y-57700000D02*
X4425000Y-57025000D01*
D76*
X11750000Y-71150000D02*
X11750000Y-69987491D01*
D74*
X55300000Y-67800000D02*
X55300000Y-66825000D01*
X32200000Y-59200000D02*
X32800000Y-59800000D01*
D76*
X36600000Y-77127500D02*
X36600000Y-76700000D01*
X36600000Y-76700000D02*
X37100000Y-76200000D01*
D74*
X4425000Y-57025000D02*
X4300000Y-56900000D01*
D77*
X38500000Y-76075000D02*
X37800000Y-75375000D01*
X41100000Y-76700000D02*
X41100000Y-75775000D01*
D74*
X59500000Y-38375000D02*
X59500000Y-39300000D01*
D76*
X1800000Y-51000000D02*
X1565000Y-51235000D01*
D74*
X29100000Y-16050000D02*
X29100000Y-14500000D01*
X4375000Y-59300000D02*
X4375000Y-57750000D01*
D76*
X38700000Y-23525000D02*
X39675000Y-23525000D01*
D74*
X31300000Y-16050000D02*
X31300000Y-14500000D01*
X38590293Y-38650000D02*
X39662500Y-38650000D01*
X29100000Y-16050000D02*
X29100000Y-17600000D01*
X10200000Y-55787500D02*
X9312500Y-55787500D01*
D75*
X19975000Y-67500000D02*
X20900000Y-67500000D01*
D74*
X9312500Y-55787500D02*
X9300000Y-55800000D01*
D76*
X37155000Y-77127500D02*
X37725000Y-77697500D01*
D74*
X61325000Y-23725000D02*
X61300000Y-23700000D01*
X66899999Y-65550000D02*
X66900000Y-67400000D01*
D76*
X65175000Y-55162500D02*
X65175000Y-54025000D01*
D75*
X23250000Y-56300000D02*
X23250000Y-57150000D01*
D74*
X1800000Y-69400000D02*
X2700000Y-68500000D01*
D76*
X56825000Y-29975000D02*
X56700000Y-30100000D01*
D74*
X50475000Y-57300000D02*
X51300000Y-57300000D01*
%TO.N,+BATT*%
X11700000Y-56625000D02*
X10275000Y-56625000D01*
X17300000Y-41000000D02*
X15200000Y-41000000D01*
X14600000Y-41600000D02*
X5500000Y-41600000D01*
X31275000Y-39925000D02*
X31600000Y-39925000D01*
D76*
X14595000Y-62500000D02*
X14595000Y-60535000D01*
D74*
X10275000Y-56625000D02*
X9200000Y-57700000D01*
D76*
X5900000Y-18000000D02*
X27200000Y-18000000D01*
D74*
X26100000Y-41000000D02*
X21600000Y-41000000D01*
D76*
X900000Y-23000000D02*
X5900000Y-18000000D01*
D74*
X9200000Y-57700000D02*
X9200000Y-59300000D01*
X15200000Y-41000000D02*
X14600000Y-41600000D01*
D76*
X900000Y-28500000D02*
X900000Y-23000000D01*
X14595000Y-60535000D02*
X14560000Y-60500000D01*
D74*
X9200000Y-59300000D02*
X9200000Y-61100000D01*
D76*
X27200000Y-18000000D02*
X28100000Y-18900000D01*
D74*
X4300000Y-42800000D02*
X2000000Y-42800000D01*
X9200000Y-61100000D02*
X8400000Y-61900000D01*
X26100000Y-39925000D02*
X26100000Y-41000000D01*
D76*
X33200000Y-18900000D02*
X28100000Y-18900000D01*
D74*
X30200000Y-41000000D02*
X31275000Y-39925000D01*
X5500000Y-41600000D02*
X4800000Y-42300000D01*
X26100000Y-41000000D02*
X30200000Y-41000000D01*
X4800000Y-42300000D02*
X4300000Y-42800000D01*
%TO.N,+5V*%
X23925000Y-62525000D02*
X23300000Y-62525000D01*
D75*
X43700000Y-44100000D02*
X44600000Y-43200000D01*
D74*
X38425000Y-41150000D02*
X39400000Y-40175000D01*
X24600000Y-66600000D02*
X24900000Y-66300000D01*
D75*
X26825000Y-44875000D02*
X26825000Y-54730000D01*
D74*
X45650000Y-59368532D02*
X45990734Y-59709266D01*
D77*
X28300000Y-64637500D02*
X28300000Y-64000000D01*
D74*
X24900000Y-66300000D02*
X24900000Y-63500000D01*
X29100000Y-66500000D02*
X28300000Y-65700000D01*
X7525000Y-68500000D02*
X7525000Y-68175000D01*
D75*
X37500000Y-44100000D02*
X43700000Y-44100000D01*
X44600000Y-32912500D02*
X36937500Y-25250000D01*
D74*
X45650000Y-58662500D02*
X45650000Y-59368532D01*
X36050000Y-25250000D02*
X34662500Y-23862500D01*
X24900000Y-63500000D02*
X23925000Y-62525000D01*
X32500000Y-66500000D02*
X29100000Y-66500000D01*
X28300000Y-65700000D02*
X28300000Y-64637500D01*
D76*
X38700000Y-25075000D02*
X37112500Y-25075000D01*
D74*
X9100000Y-66600000D02*
X24600000Y-66600000D01*
X37537500Y-41900000D02*
X37537500Y-41150000D01*
D76*
X37112500Y-25075000D02*
X36937500Y-25250000D01*
D74*
X36937500Y-25250000D02*
X36050000Y-25250000D01*
X41500000Y-60500000D02*
X38500000Y-60500000D01*
X37500000Y-43400000D02*
X37500000Y-44100000D01*
X38500000Y-60500000D02*
X32500000Y-66500000D01*
D75*
X44600000Y-43200000D02*
X44600000Y-32912500D01*
X37500000Y-44100000D02*
X27600000Y-44100000D01*
X27600000Y-44100000D02*
X26825000Y-44875000D01*
D77*
X28300000Y-64000000D02*
X27350000Y-63050000D01*
X27350000Y-63050000D02*
X27350000Y-62362500D01*
D74*
X34662500Y-23862500D02*
X34662500Y-23350000D01*
X37537500Y-41150000D02*
X38425000Y-41150000D01*
X7525000Y-68175000D02*
X9100000Y-66600000D01*
%TO.N,+USB*%
X35800000Y-77800000D02*
X35800000Y-77127500D01*
X38730000Y-72330000D02*
X39200000Y-72800000D01*
X35400000Y-78200000D02*
X35800000Y-77800000D01*
D76*
X36000000Y-75900000D02*
X35800000Y-76100000D01*
D74*
X39700000Y-74225000D02*
X39300000Y-73825000D01*
X39300000Y-73780000D02*
X39300000Y-72900000D01*
X39050000Y-71380000D02*
X39050000Y-72650000D01*
X39300000Y-72900000D02*
X39200000Y-72800000D01*
X38100000Y-72330000D02*
X38730000Y-72330000D01*
X31000000Y-77700000D02*
X31000000Y-77127500D01*
X31400000Y-78100000D02*
X31000000Y-77700000D01*
X39050000Y-72650000D02*
X39200000Y-72800000D01*
X41100000Y-74225000D02*
X39700000Y-74225000D01*
D76*
X31000000Y-77127500D02*
X31000000Y-75900000D01*
D74*
X31400000Y-78500000D02*
X31400000Y-78100000D01*
D76*
X35800000Y-76100000D02*
X35800000Y-77127500D01*
D74*
X35400000Y-78600000D02*
X35400000Y-78200000D01*
D76*
%TO.N,Net-(C6-Pad1)*%
X20325000Y-56300000D02*
X21700000Y-56300000D01*
D74*
%TO.N,+3V3*%
X57362500Y-45750000D02*
X58550000Y-45750000D01*
D76*
X2835000Y-52370000D02*
X2835000Y-51035000D01*
D74*
X41875000Y-72725000D02*
X41900000Y-72700000D01*
D75*
X18425000Y-69062491D02*
X18350000Y-69137491D01*
D76*
X2835000Y-52370000D02*
X2835000Y-53960000D01*
D74*
X66325000Y-38250000D02*
X66400000Y-38325000D01*
D75*
X18350000Y-69137491D02*
X18350000Y-70350000D01*
D76*
X32800000Y-29000000D02*
X31825000Y-29000000D01*
D74*
X64637500Y-39037500D02*
X64700000Y-39100000D01*
X40900000Y-72725000D02*
X41875000Y-72725000D01*
X65550000Y-38250000D02*
X66325000Y-38250000D01*
D76*
X2835000Y-51035000D02*
X2800000Y-51000000D01*
D74*
X5725000Y-54220000D02*
X6680000Y-54220000D01*
D76*
X2835000Y-53960000D02*
X2575000Y-54220000D01*
D75*
X18425000Y-67500000D02*
X18425000Y-69062491D01*
D74*
X58550000Y-45750000D02*
X58600000Y-45700000D01*
X55675000Y-45750000D02*
X55600000Y-45675000D01*
X6680000Y-54220000D02*
X6700000Y-54200000D01*
X64700000Y-39100000D02*
X65550000Y-38250000D01*
X34300000Y-60400000D02*
X34300000Y-61275000D01*
X18350000Y-70350000D02*
X18300000Y-70400000D01*
X64637500Y-38249999D02*
X64637500Y-39037500D01*
X57362500Y-45750000D02*
X55675000Y-45750000D01*
%TO.N,/Controller/VDD_USB*%
X37600000Y-73625000D02*
X37800000Y-73825000D01*
X37600000Y-72350000D02*
X37600000Y-73625000D01*
%TO.N,+9V*%
X45100000Y-51900000D02*
X44225000Y-51900000D01*
X50100000Y-52675000D02*
X50100000Y-51900000D01*
X61000000Y-45747569D02*
X61596329Y-46343898D01*
X61000000Y-45575000D02*
X61000000Y-45747569D01*
X44225000Y-51900000D02*
X44125000Y-51800000D01*
X61000000Y-38425000D02*
X61000000Y-38252431D01*
X61000000Y-38252431D02*
X60403671Y-37656102D01*
D76*
%TO.N,+3V3GPS*%
X30200000Y-24500000D02*
X31175000Y-23525000D01*
X31175000Y-23525000D02*
X33000000Y-23525000D01*
X29400000Y-27500000D02*
X29100000Y-27200000D01*
X30225000Y-27500000D02*
X30225000Y-29000000D01*
X30225000Y-27500000D02*
X29400000Y-27500000D01*
X29100000Y-27200000D02*
X29100000Y-25550000D01*
X30225000Y-25575000D02*
X30200000Y-25550000D01*
X33000000Y-23587500D02*
X34662500Y-25250000D01*
X30200000Y-25550000D02*
X30200000Y-24500000D01*
X33000000Y-23525000D02*
X33000000Y-23587500D01*
X30225000Y-27500000D02*
X30225000Y-25575000D01*
X32925000Y-23600000D02*
X33000000Y-23525000D01*
D74*
%TO.N,Net-(U4-SS)*%
X47400000Y-60200000D02*
X47400000Y-62375000D01*
X46150000Y-58662500D02*
X46150000Y-58950000D01*
X46150000Y-58950000D02*
X47400000Y-60200000D01*
X47400000Y-62375000D02*
X48925000Y-63900000D01*
%TO.N,Net-(C25-Pad1)*%
X49025000Y-60300000D02*
X50525000Y-58800000D01*
X48925000Y-60300000D02*
X49025000Y-60300000D01*
%TO.N,Net-(U4-COMP)*%
X47580761Y-56700000D02*
X48325000Y-56700000D01*
X48875000Y-58800000D02*
X48875000Y-57350000D01*
X47330761Y-56950000D02*
X47580761Y-56700000D01*
X48325000Y-56700000D02*
X48925000Y-57300000D01*
X46862500Y-56950000D02*
X47330761Y-56950000D01*
X48875000Y-57350000D02*
X48925000Y-57300000D01*
%TO.N,Net-(D4-K)*%
X29900000Y-21300000D02*
X28000000Y-23200000D01*
X27925000Y-27800000D02*
X28000000Y-27725000D01*
X33200000Y-21300000D02*
X29900000Y-21300000D01*
X28000000Y-27725000D02*
X28000000Y-25550000D01*
X28000000Y-23200000D02*
X28000000Y-25550000D01*
D76*
%TO.N,/Sensors/Ultrasonic1/INP*%
X59925000Y-71575000D02*
X59925000Y-66500000D01*
D74*
X59800000Y-64825000D02*
X59875000Y-64900000D01*
X59925000Y-64950000D02*
X59875000Y-64900000D01*
X59800000Y-63425000D02*
X59800000Y-64825000D01*
D76*
X62499999Y-65550000D02*
X60875000Y-65550000D01*
X56000000Y-75500000D02*
X59925000Y-71575000D01*
D74*
X59925000Y-66500000D02*
X59925000Y-64950000D01*
D76*
X60875000Y-65550000D02*
X59925000Y-66500000D01*
D74*
%TO.N,Net-(Q7-D)*%
X57725000Y-64300000D02*
X58325000Y-64900000D01*
X56925000Y-66800000D02*
X56925000Y-66300000D01*
X56537500Y-64300000D02*
X57725000Y-64300000D01*
X56925000Y-66300000D02*
X58325000Y-64900000D01*
%TO.N,/Sensors/Ultrasonic1/AVDD*%
X63225000Y-47900000D02*
X62500000Y-47175000D01*
X63225000Y-49437500D02*
X63225000Y-48100000D01*
X63225000Y-48100000D02*
X63225000Y-47900000D01*
%TO.N,/Sensors/Ultrasonic1/IOREG*%
X64525000Y-49437500D02*
X64525000Y-48150000D01*
X64525000Y-48150000D02*
X65500000Y-47175000D01*
%TO.N,Net-(U8-INP)*%
X63700000Y-56300000D02*
X60900000Y-56300000D01*
X63875000Y-56125000D02*
X63700000Y-56300000D01*
X63875000Y-56125000D02*
X63875000Y-55162500D01*
X60900000Y-56300000D02*
X58700000Y-58500000D01*
X58700000Y-58500000D02*
X58700000Y-59825000D01*
X58700000Y-59825000D02*
X58300000Y-60225000D01*
%TO.N,Net-(U8-INN)*%
X64525000Y-56475000D02*
X64300000Y-56700000D01*
X61600000Y-56700000D02*
X59800000Y-58500000D01*
X64525000Y-56475000D02*
X64525000Y-55162500D01*
X64300000Y-56700000D02*
X61600000Y-56700000D01*
X59800000Y-58500000D02*
X59800000Y-58725000D01*
%TO.N,/Sensors/Ultrasonic2/INP*%
X62075000Y-19050000D02*
X62125000Y-19100000D01*
D76*
X66000000Y-8500000D02*
X62075000Y-12425000D01*
D74*
X62200000Y-19175000D02*
X62125000Y-19100000D01*
D76*
X62075000Y-12425000D02*
X62075000Y-17500000D01*
D74*
X62075000Y-17500000D02*
X62075000Y-19050000D01*
D76*
X61125000Y-18450000D02*
X62075000Y-17500000D01*
D74*
X62200000Y-20575000D02*
X62200000Y-19175000D01*
D76*
X59500001Y-18450000D02*
X61125000Y-18450000D01*
D74*
%TO.N,Net-(Q9-D)*%
X65075000Y-17200000D02*
X65075000Y-17700000D01*
X65075000Y-17700000D02*
X63675000Y-19100000D01*
X65462500Y-19700000D02*
X64275000Y-19700000D01*
X64275000Y-19700000D02*
X63675000Y-19100000D01*
%TO.N,/Sensors/Ultrasonic2/AVDD*%
X58775000Y-35900000D02*
X58775000Y-36100000D01*
X58775000Y-34562500D02*
X58775000Y-35900000D01*
X58775000Y-36100000D02*
X59500000Y-36825000D01*
%TO.N,/Sensors/Ultrasonic2/IOREG*%
X57475000Y-35850000D02*
X56500000Y-36825000D01*
X57475000Y-34562500D02*
X57475000Y-35850000D01*
%TO.N,Net-(U9-INP)*%
X58125000Y-27875000D02*
X58125000Y-28837500D01*
X58300000Y-27700000D02*
X61100000Y-27700000D01*
X58125000Y-27875000D02*
X58300000Y-27700000D01*
X63300000Y-24175000D02*
X63700000Y-23775000D01*
X61100000Y-27700000D02*
X63300000Y-25500000D01*
X63300000Y-25500000D02*
X63300000Y-24175000D01*
%TO.N,Net-(C45-Pad2)*%
X63700000Y-22225000D02*
X62200000Y-22225000D01*
%TO.N,Net-(U9-INN)*%
X60400000Y-27300000D02*
X62200000Y-25500000D01*
X57475000Y-27525000D02*
X57700000Y-27300000D01*
X62200000Y-25500000D02*
X62200000Y-25275000D01*
X57700000Y-27300000D02*
X60400000Y-27300000D01*
X57475000Y-27525000D02*
X57475000Y-28837500D01*
%TO.N,Net-(D1-A)*%
X12200000Y-53900000D02*
X15184999Y-53900000D01*
X15184999Y-53900000D02*
X15835000Y-54550001D01*
X12200000Y-53900000D02*
X11887500Y-54212500D01*
X15835000Y-54550001D02*
X15835000Y-55525000D01*
X11887500Y-54212500D02*
X10200000Y-54212500D01*
%TO.N,Net-(D2-A)*%
X5775000Y-68500000D02*
X4287500Y-68500000D01*
%TO.N,USB_DP*%
X32925000Y-75825000D02*
X32900000Y-75800000D01*
X36624999Y-72856801D02*
X35806800Y-73675000D01*
X33175000Y-76247499D02*
X33150000Y-76272499D01*
X34306800Y-73675000D02*
X33175000Y-74806800D01*
X34150000Y-76050000D02*
X34150000Y-77127500D01*
X35700000Y-73675000D02*
X34306800Y-73675000D01*
X36624999Y-72374999D02*
X36624999Y-72856801D01*
X33175000Y-74806800D02*
X33175000Y-75825000D01*
X33175000Y-75825000D02*
X33175000Y-76247499D01*
X33175000Y-75825000D02*
X32925000Y-75825000D01*
X36600000Y-72350000D02*
X36624999Y-72374999D01*
X33150000Y-76272499D02*
X33150000Y-77127500D01*
X35806800Y-73675000D02*
X35700000Y-73675000D01*
X34400000Y-75800000D02*
X34150000Y-76050000D01*
%TO.N,USB_DN*%
X37075001Y-73043199D02*
X35993200Y-74125000D01*
X35993200Y-74125000D02*
X34493200Y-74125000D01*
X37100000Y-72350000D02*
X37075001Y-72374999D01*
X33650000Y-77850000D02*
X33400000Y-78100000D01*
X33625000Y-74993200D02*
X33625000Y-76247499D01*
X34493200Y-74125000D02*
X33625000Y-74993200D01*
X33400000Y-78100000D02*
X32900000Y-78100000D01*
X32650000Y-77850000D02*
X32650000Y-77127500D01*
X32900000Y-78100000D02*
X32650000Y-77850000D01*
X37075001Y-72374999D02*
X37075001Y-73043199D01*
X33650000Y-77127500D02*
X33650000Y-77850000D01*
X33650000Y-76272499D02*
X33650000Y-77127500D01*
X33625000Y-76247499D02*
X33650000Y-76272499D01*
%TO.N,Net-(D4-A)*%
X36000000Y-18900000D02*
X36000000Y-21300000D01*
%TO.N,/Controller/BUTTON*%
X26100000Y-38275000D02*
X27837500Y-38275000D01*
X24600000Y-38275000D02*
X26100000Y-38275000D01*
X27837500Y-38275000D02*
X27962500Y-38150000D01*
%TO.N,Net-(J1-CC1)*%
X34200000Y-80200000D02*
X38300000Y-80200000D01*
X32150000Y-77127500D02*
X32150000Y-78150000D01*
X38700000Y-80600000D02*
X39375000Y-80600000D01*
X32150000Y-78150000D02*
X34200000Y-80200000D01*
X38300000Y-80200000D02*
X38700000Y-80600000D01*
%TO.N,/Controller/SCK*%
X11700000Y-36600000D02*
X11700000Y-34895000D01*
X11700000Y-34895000D02*
X11725000Y-34870000D01*
X11700000Y-36600000D02*
X11700000Y-38300000D01*
X11725000Y-34870000D02*
X11725000Y-31235000D01*
X17250000Y-69137491D02*
X17250000Y-67750000D01*
X7900000Y-39600000D02*
X7800000Y-39500000D01*
X17250000Y-67750000D02*
X17300000Y-67700000D01*
X11700000Y-38300000D02*
X10400000Y-39600000D01*
X10400000Y-39600000D02*
X7900000Y-39600000D01*
%TO.N,/Controller/MOSI*%
X2835000Y-29300000D02*
X2835000Y-31600000D01*
X2835000Y-36035000D02*
X2835000Y-34870000D01*
X4700000Y-37900000D02*
X2835000Y-36035000D01*
%TO.N,Net-(J3-Pin_3)*%
X12580000Y-26820000D02*
X13500000Y-26820000D01*
%TO.N,/Controller/MOSI*%
X19450000Y-70350000D02*
X19450000Y-69137491D01*
X19400000Y-70400000D02*
X19450000Y-70350000D01*
X2835000Y-34870000D02*
X2835000Y-31600000D01*
%TO.N,/Controller/LCD_A0*%
X15535000Y-50935000D02*
X15500000Y-50900000D01*
X15535000Y-52370000D02*
X15535000Y-50935000D01*
%TO.N,Net-(J1-CC2)*%
X35000000Y-79400000D02*
X38200000Y-79400000D01*
X38200000Y-79400000D02*
X38600000Y-79000000D01*
X35150000Y-77850000D02*
X34700000Y-78300000D01*
X38600000Y-79000000D02*
X39375000Y-79000000D01*
X34700000Y-79100000D02*
X35000000Y-79400000D01*
X34700000Y-78300000D02*
X34700000Y-79100000D01*
X35150000Y-77127500D02*
X35150000Y-77850000D01*
%TO.N,Net-(Q1-B)*%
X2150000Y-74375000D02*
X2275000Y-74500000D01*
X2150000Y-72637500D02*
X2150000Y-74375000D01*
%TO.N,Net-(Q2-B)*%
X5750000Y-72637500D02*
X5750000Y-72725000D01*
X5750000Y-72725000D02*
X7525000Y-74500000D01*
%TO.N,Net-(Q3-D)*%
X37537500Y-36700000D02*
X37600000Y-36700000D01*
X41900000Y-38062500D02*
X41537500Y-37700000D01*
X41900000Y-40175000D02*
X41900000Y-38062500D01*
X38600000Y-37700000D02*
X41537500Y-37700000D01*
X37600000Y-36700000D02*
X38600000Y-37700000D01*
%TO.N,Net-(Q4-G)*%
X31600000Y-38275000D02*
X33737500Y-38275000D01*
X35662500Y-35750000D02*
X34850000Y-35750000D01*
X30775000Y-39100000D02*
X31600000Y-38275000D01*
X34850000Y-35750000D02*
X33737500Y-36862500D01*
X33737500Y-36862500D02*
X33737500Y-38275000D01*
X33737500Y-38275000D02*
X35662500Y-40200000D01*
X29837500Y-39100000D02*
X30775000Y-39100000D01*
%TO.N,/Sensors/Ultrasonic1/DECPL*%
X54662500Y-63350000D02*
X56450000Y-63350000D01*
X65175000Y-51225000D02*
X65175000Y-49437500D01*
X59600000Y-56500000D02*
X59600000Y-53200000D01*
X57200000Y-59800000D02*
X58000000Y-59000000D01*
X59600000Y-53200000D02*
X60000000Y-52800000D01*
X60000000Y-52800000D02*
X63600000Y-52800000D01*
X56450000Y-63350000D02*
X57200000Y-62600000D01*
X58000000Y-59000000D02*
X58000000Y-58100000D01*
X58000000Y-58100000D02*
X59600000Y-56500000D01*
X57200000Y-62600000D02*
X57200000Y-59800000D01*
X63600000Y-52800000D02*
X65175000Y-51225000D01*
%TO.N,US_IO_1*%
X55600000Y-47325000D02*
X32775000Y-47325000D01*
X15100000Y-48400000D02*
X14265000Y-49235000D01*
X57362500Y-47650000D02*
X55925000Y-47650000D01*
X59200000Y-49700000D02*
X59200000Y-48100000D01*
X32775000Y-47325000D02*
X31700000Y-48400000D01*
X14265000Y-49235000D02*
X14265000Y-52370000D01*
X59200000Y-48100000D02*
X58750000Y-47650000D01*
X55925000Y-47650000D02*
X55600000Y-47325000D01*
X31700000Y-48400000D02*
X27900000Y-48400000D01*
X58750000Y-47650000D02*
X57362500Y-47650000D01*
%TO.N,/Sensors/Ultrasonic1/IO*%
X59237500Y-46700000D02*
X60475000Y-46700000D01*
X61500000Y-47725000D02*
X61000000Y-47225000D01*
X67775000Y-51775000D02*
X67000000Y-51000000D01*
X61500000Y-49000000D02*
X61500000Y-47725000D01*
X60475000Y-46700000D02*
X61000000Y-47225000D01*
X61500000Y-50500000D02*
X61500000Y-49000000D01*
X67775000Y-55162500D02*
X67775000Y-51775000D01*
%TO.N,/Controller/~USB_RTS*%
X29000000Y-67600000D02*
X28300000Y-68300000D01*
X28300000Y-72600000D02*
X24900000Y-76000000D01*
X30775000Y-67600000D02*
X29000000Y-67600000D01*
X24900000Y-76000000D02*
X7375000Y-76000000D01*
X5875000Y-74462500D02*
X4050000Y-72637500D01*
X28300000Y-68300000D02*
X28300000Y-72600000D01*
X7375000Y-76000000D02*
X5875000Y-74500000D01*
X5875000Y-74500000D02*
X5875000Y-74462500D01*
%TO.N,/Controller/EN*%
X2700000Y-67000000D02*
X3500000Y-67800000D01*
X3100000Y-69700000D02*
X3500000Y-69300000D01*
X2700000Y-56700000D02*
X2700000Y-67000000D01*
X3500000Y-67800000D02*
X3500000Y-69300000D01*
X3100000Y-70762500D02*
X3100000Y-69700000D01*
X4075000Y-55325000D02*
X2700000Y-56700000D01*
X4075000Y-54220000D02*
X4075000Y-55325000D01*
X4105000Y-54190000D02*
X4075000Y-54220000D01*
X4105000Y-52370000D02*
X4105000Y-54190000D01*
%TO.N,/Sensors/Ultrasonic2/DECPL*%
X67337500Y-20650000D02*
X65550000Y-20650000D01*
X56825000Y-32775000D02*
X56825000Y-34562500D01*
X62000000Y-31200000D02*
X58400000Y-31200000D01*
X58400000Y-31200000D02*
X56825000Y-32775000D01*
X62400000Y-27500000D02*
X62400000Y-30800000D01*
X62400000Y-30800000D02*
X62000000Y-31200000D01*
X64800000Y-21400000D02*
X64800000Y-24200000D01*
X64000000Y-25000000D02*
X64000000Y-25900000D01*
X64800000Y-24200000D02*
X64000000Y-25000000D01*
X64000000Y-25900000D02*
X62400000Y-27500000D01*
X65550000Y-20650000D02*
X64800000Y-21400000D01*
%TO.N,/Controller/~USB_DTR*%
X30100000Y-72100000D02*
X29800000Y-71800000D01*
X3925000Y-74725000D02*
X4600000Y-75400000D01*
X7712500Y-72700000D02*
X7650000Y-72637500D01*
X3925000Y-74500000D02*
X3925000Y-74725000D01*
X30775000Y-72100000D02*
X30100000Y-72100000D01*
X8600000Y-72700000D02*
X7712500Y-72700000D01*
%TO.N,/Controller/GPIO0*%
X6700000Y-67600000D02*
X4800000Y-65700000D01*
X4800000Y-61550500D02*
X4400000Y-61150500D01*
X4800000Y-65700000D02*
X4800000Y-61550500D01*
X6700000Y-70762500D02*
X6700000Y-67600000D01*
%TO.N,/Controller/BTN_PRESS*%
X19385000Y-48000000D02*
X19325000Y-48060000D01*
X42350000Y-36750000D02*
X39662500Y-36750000D01*
X25900000Y-42700000D02*
X42425000Y-42700000D01*
X42950000Y-42175000D02*
X42950000Y-37350000D01*
X39375000Y-35200000D02*
X39375000Y-36462500D01*
X19325000Y-48060000D02*
X20540000Y-48060000D01*
X42425000Y-42700000D02*
X42950000Y-42175000D01*
X39375000Y-36462500D02*
X39662500Y-36750000D01*
X42950000Y-37350000D02*
X42350000Y-36750000D01*
X20540000Y-48060000D02*
X25900000Y-42700000D01*
%TO.N,US_IO_2*%
X48350000Y-45700000D02*
X45600000Y-45700000D01*
X45600000Y-45700000D02*
X30900000Y-45700000D01*
X17800000Y-45400000D02*
X16600000Y-45400000D01*
X64637500Y-36862500D02*
X60350000Y-41150000D01*
X64637500Y-36350000D02*
X66075000Y-36350000D01*
X66075000Y-36350000D02*
X66400000Y-36675000D01*
X30900000Y-45700000D02*
X30600000Y-45400000D01*
X16600000Y-45400000D02*
X15205000Y-45400000D01*
X63250000Y-36350000D02*
X64637500Y-36350000D01*
X9185000Y-51420000D02*
X9185000Y-52370000D01*
X64637500Y-36349999D02*
X64637500Y-36862500D01*
X15205000Y-45400000D02*
X9185000Y-51420000D01*
X62800000Y-34300000D02*
X62800000Y-35900000D01*
X52900000Y-41150000D02*
X48350000Y-45700000D01*
X62800000Y-35900000D02*
X63250000Y-36350000D01*
X60350000Y-41150000D02*
X52900000Y-41150000D01*
%TO.N,/Sensors/Ultrasonic2/IO*%
X54225000Y-32225000D02*
X55000000Y-33000000D01*
X60500000Y-35000000D02*
X60500000Y-36275000D01*
X60500000Y-33500000D02*
X60500000Y-35000000D01*
X61525000Y-37300000D02*
X61000000Y-36775000D01*
X60500000Y-36275000D02*
X61000000Y-36775000D01*
X62762500Y-37300000D02*
X61525000Y-37300000D01*
X54225000Y-28837500D02*
X54225000Y-32225000D01*
%TO.N,Net-(U1-LED2)*%
X13295000Y-55525000D02*
X14565000Y-55525000D01*
X11700000Y-54975000D02*
X12745000Y-54975000D01*
X12745000Y-54975000D02*
X13295000Y-55525000D01*
%TO.N,Net-(U2-VFB)*%
X34300000Y-62925000D02*
X34300000Y-62900000D01*
X27350000Y-64450000D02*
X27350000Y-64637500D01*
X34300000Y-62900000D02*
X33600000Y-62200000D01*
X26600000Y-63700000D02*
X27350000Y-64450000D01*
X34300000Y-62925000D02*
X32800000Y-62925000D01*
%TO.N,/Controller/USB_RX*%
X5375000Y-36200000D02*
X5375000Y-34870000D01*
X30775000Y-69100000D02*
X29700000Y-69100000D01*
%TO.N,Net-(U4-FB)*%
X46862500Y-56450000D02*
X47250000Y-56450000D01*
X47250000Y-56450000D02*
X47900000Y-55800000D01*
X47900000Y-55800000D02*
X48875000Y-55800000D01*
X48875000Y-55800000D02*
X48875000Y-55550000D01*
X48875000Y-55550000D02*
X50100000Y-54325000D01*
%TO.N,/Controller/USB_TX*%
X3100000Y-38800000D02*
X6300000Y-38800000D01*
X6300000Y-38800000D02*
X6645000Y-38455000D01*
X29700000Y-70600000D02*
X30775000Y-70600000D01*
X6645000Y-38455000D02*
X6645000Y-34870000D01*
%TO.N,Net-(U4-FREQ)*%
X46150000Y-55025000D02*
X46975000Y-54200000D01*
X46150000Y-55737500D02*
X46150000Y-55025000D01*
%TO.N,Net-(U5-~{RST})*%
X40725000Y-70900000D02*
X40900000Y-71075000D01*
X39050000Y-70900000D02*
X40725000Y-70900000D01*
%TO.N,Net-(U5-TXD)*%
X32625000Y-70400000D02*
X32425000Y-70600000D01*
X34150000Y-70400000D02*
X32625000Y-70400000D01*
%TO.N,IP5306_BTN*%
X36361957Y-40900000D02*
X37061957Y-40200000D01*
X34800000Y-40900000D02*
X36361957Y-40900000D01*
X34100000Y-41600000D02*
X34800000Y-40900000D01*
X12400000Y-60300000D02*
X12575000Y-60475000D01*
X38100000Y-40200000D02*
X39000000Y-39300000D01*
X40000000Y-39300000D02*
X40700000Y-40000000D01*
X40700000Y-40800000D02*
X41725000Y-41825000D01*
X40700000Y-40000000D02*
X40700000Y-40800000D01*
X39000000Y-39300000D02*
X40000000Y-39300000D01*
X37061957Y-40200000D02*
X38100000Y-40200000D01*
X41725000Y-41825000D02*
X41900000Y-41825000D01*
X12575000Y-60475000D02*
X13295000Y-60475000D01*
%TO.N,/Controller/BTN_READ*%
X21700000Y-37900000D02*
X23725000Y-39925000D01*
X19325000Y-37900000D02*
X21700000Y-37900000D01*
X23725000Y-39925000D02*
X24600000Y-39925000D01*
%TO.N,Net-(U5-RXD)*%
X34150000Y-69900000D02*
X33225000Y-69900000D01*
X33225000Y-69900000D02*
X32425000Y-69100000D01*
%TO.N,Net-(U5-~{RTS})*%
X33200000Y-68100000D02*
X32700000Y-67600000D01*
X34150000Y-69400000D02*
X33600000Y-69400000D01*
X33200000Y-69000000D02*
X33200000Y-68100000D01*
X33600000Y-69400000D02*
X33200000Y-69000000D01*
X32700000Y-67600000D02*
X32425000Y-67600000D01*
%TO.N,Net-(U5-~{DTR})*%
X32425000Y-72100000D02*
X33125000Y-71400000D01*
X33125000Y-71400000D02*
X34150000Y-71400000D01*
%TO.N,Net-(U5-~{SUSPEND})*%
X40725000Y-69900000D02*
X40900000Y-69725000D01*
X39050000Y-69900000D02*
X40725000Y-69900000D01*
D76*
%TO.N,/Sensors/Ultrasonic1/OUTA*%
X65300000Y-57200000D02*
X65825000Y-56675000D01*
X65825000Y-56675000D02*
X65825000Y-55162500D01*
X62499999Y-58850000D02*
X62499999Y-57650001D01*
X62499999Y-57650001D02*
X62950000Y-57200000D01*
X62950000Y-57200000D02*
X65300000Y-57200000D01*
%TO.N,/Sensors/Ultrasonic1/OUTB*%
X66899999Y-58850000D02*
X67125000Y-58624999D01*
X67125000Y-58624999D02*
X67125000Y-55162500D01*
%TO.N,/Sensors/Ultrasonic2/OUTA*%
X59050000Y-26800000D02*
X56700000Y-26800000D01*
X59500001Y-25150000D02*
X59500001Y-26349999D01*
X56175000Y-27325000D02*
X56175000Y-28837500D01*
X56700000Y-26800000D02*
X56175000Y-27325000D01*
X59500001Y-26349999D02*
X59050000Y-26800000D01*
%TO.N,/Sensors/Ultrasonic2/OUTB*%
X55100001Y-25150000D02*
X54875000Y-25375001D01*
X54875000Y-25375001D02*
X54875000Y-28837500D01*
D74*
%TO.N,Net-(U4-SYNC)*%
X46862500Y-57950000D02*
X47330761Y-57950000D01*
X47330761Y-57950000D02*
X47800000Y-58419239D01*
X48900000Y-62100000D02*
X49200000Y-62100000D01*
X47800000Y-61000000D02*
X48900000Y-62100000D01*
X47800000Y-58419239D02*
X47800000Y-61000000D01*
%TO.N,/Sensors/Ultrasonic1/TEST*%
X67775000Y-49437500D02*
X67775000Y-48575000D01*
X68000000Y-48350000D02*
X68000000Y-45900000D01*
X67775000Y-48575000D02*
X68000000Y-48350000D01*
%TO.N,/Sensors/Ultrasonic2/TEST*%
X54225000Y-34562500D02*
X54225000Y-35425000D01*
X54000000Y-35650000D02*
X54000000Y-38100000D01*
X54225000Y-35425000D02*
X54000000Y-35650000D01*
%TO.N,/Controller/BATT_MEAS*%
X5975000Y-57700000D02*
X7915000Y-55760000D01*
X6025000Y-57750000D02*
X5975000Y-57700000D01*
X7915000Y-55760000D02*
X7915000Y-52370000D01*
X6025000Y-59300000D02*
X6025000Y-57750000D01*
X7475000Y-59300000D02*
X6025000Y-59300000D01*
%TO.N,Net-(J3-Pin_5)*%
X13600000Y-21740000D02*
X14740000Y-21740000D01*
%TO.N,US_MISO*%
X49300000Y-46100000D02*
X29900000Y-46100000D01*
X65565686Y-42000000D02*
X67100000Y-43534314D01*
X15400000Y-46200000D02*
X15068628Y-46200000D01*
X54300000Y-42000000D02*
X53400000Y-42000000D01*
X54300000Y-42000000D02*
X65565686Y-42000000D01*
X67100000Y-43534314D02*
X67100000Y-49412500D01*
X53400000Y-42000000D02*
X49300000Y-46100000D01*
X54300000Y-40100000D02*
X54875000Y-39525000D01*
X29900000Y-46100000D02*
X29800000Y-46200000D01*
X54875000Y-34562500D02*
X54900000Y-34587500D01*
X10455000Y-50813628D02*
X10455000Y-52370000D01*
X54875000Y-39525000D02*
X54875000Y-34562500D01*
X67100000Y-49412500D02*
X67125000Y-49437500D01*
X15068628Y-46200000D02*
X10455000Y-50813628D01*
X17100000Y-46200000D02*
X15400000Y-46200000D01*
%TO.N,US_MOSI*%
X55525000Y-35475000D02*
X55525000Y-34562500D01*
X16300000Y-46900000D02*
X15200000Y-46900000D01*
X66475000Y-48525000D02*
X66475000Y-49437500D01*
X65700000Y-42700000D02*
X66700000Y-43700000D01*
X55300000Y-35700000D02*
X55525000Y-35475000D01*
X53300000Y-42700000D02*
X49500000Y-46500000D01*
X55300000Y-42700000D02*
X65700000Y-42700000D01*
X49500000Y-46500000D02*
X31900000Y-46500000D01*
X31500000Y-46900000D02*
X29100000Y-46900000D01*
X55300000Y-42700000D02*
X53300000Y-42700000D01*
X15200000Y-46900000D02*
X14934314Y-46900000D01*
X66700000Y-48300000D02*
X66475000Y-48525000D01*
X14934314Y-46900000D02*
X11725000Y-50109314D01*
X31900000Y-46500000D02*
X31500000Y-46900000D01*
X66700000Y-43700000D02*
X66700000Y-48300000D01*
X11725000Y-50109314D02*
X11725000Y-52370000D01*
X55290734Y-40409266D02*
X55300000Y-40400000D01*
X55300000Y-40400000D02*
X55300000Y-35700000D01*
%TO.N,US_SCK*%
X66300000Y-44000000D02*
X65700000Y-43400000D01*
X15700000Y-47700000D02*
X14700000Y-47700000D01*
X65825000Y-48375000D02*
X66300000Y-47900000D01*
X12995000Y-49405000D02*
X12995000Y-52370000D01*
X14700000Y-47700000D02*
X12995000Y-49405000D01*
X65700000Y-43400000D02*
X56200000Y-43400000D01*
X55700000Y-36100000D02*
X56175000Y-35625000D01*
X49975000Y-46925000D02*
X32375000Y-46925000D01*
X31600000Y-47700000D02*
X28500000Y-47700000D01*
X53500000Y-43400000D02*
X49975000Y-46925000D01*
X66300000Y-47900000D02*
X66300000Y-44000000D01*
X56200000Y-40400000D02*
X55700000Y-39900000D01*
X65825000Y-49437500D02*
X65825000Y-48375000D01*
X55700000Y-39900000D02*
X55700000Y-36100000D01*
X32375000Y-46925000D02*
X31600000Y-47700000D01*
X56200000Y-43400000D02*
X53500000Y-43400000D01*
X56175000Y-35625000D02*
X56175000Y-34562500D01*
%TO.N,/Power Supply/VBST*%
X30800000Y-65575000D02*
X30187500Y-65575000D01*
X30187500Y-65575000D02*
X29250000Y-64637500D01*
%TO.N,/Power Supply/SW*%
X30375000Y-63600000D02*
X30800000Y-64025000D01*
X28300000Y-63000000D02*
X28900000Y-63600000D01*
D77*
X28000000Y-56000000D02*
X28300000Y-56300000D01*
D74*
X28900000Y-63600000D02*
X30375000Y-63600000D01*
X28300000Y-62362500D02*
X28300000Y-63000000D01*
D77*
X28300000Y-56300000D02*
X28300000Y-60700000D01*
X28300000Y-60700000D02*
X27900000Y-61100000D01*
D78*
%TO.N,/Sensors/ANT*%
X30200000Y-16050000D02*
X30200000Y-12000000D01*
D74*
%TO.N,Net-(C38-Pad2)*%
X58300000Y-61775000D02*
X59800000Y-61775000D01*
%TO.N,/Controller/LCD_CS*%
X18000000Y-52295000D02*
X18075000Y-52370000D01*
X18000000Y-50800000D02*
X18000000Y-52295000D01*
%TO.N,/Controller/SD_CS*%
X12995000Y-38700000D02*
X12995000Y-34870000D01*
X11445000Y-40250000D02*
X12995000Y-38700000D01*
X20530378Y-70419622D02*
X20550000Y-70400000D01*
X5570572Y-40292143D02*
X5612715Y-40250000D01*
X5612715Y-40250000D02*
X11445000Y-40250000D01*
X20550000Y-70400000D02*
X20550000Y-69137491D01*
%TO.N,/Controller/MISO*%
X15050000Y-67750000D02*
X15100000Y-67700000D01*
X10400000Y-36100000D02*
X10400000Y-34925000D01*
X15050000Y-69137491D02*
X15050000Y-67750000D01*
X10400000Y-34925000D02*
X10455000Y-34870000D01*
D76*
%TO.N,Net-(U8-VPWR)*%
X61500000Y-51637500D02*
X63162500Y-51637500D01*
X63875000Y-47300000D02*
X64000000Y-47175000D01*
X63162500Y-51637500D02*
X63875000Y-50925000D01*
X63875000Y-50925000D02*
X63875000Y-49437500D01*
X63875000Y-49437500D02*
X63875000Y-47300000D01*
%TO.N,Net-(U9-VPWR)*%
X58125000Y-33075000D02*
X58125000Y-34562500D01*
X60500000Y-32362500D02*
X58837500Y-32362500D01*
X58837500Y-32362500D02*
X58125000Y-33075000D01*
X58125000Y-34562500D02*
X58125000Y-36700000D01*
X58125000Y-36700000D02*
X58000000Y-36825000D01*
%TD*%
%TA.AperFunction,Conductor*%
%TO.N,Net-(T1-PM)*%
G36*
X66042538Y-57619685D02*
G01*
X66088293Y-57672489D01*
X66099499Y-57724000D01*
X66099499Y-60119745D01*
X66099701Y-60121795D01*
X66100000Y-60127879D01*
X66100000Y-60376000D01*
X66080315Y-60443039D01*
X66027511Y-60488794D01*
X65976000Y-60500000D01*
X63424000Y-60500000D01*
X63356961Y-60480315D01*
X63311206Y-60427511D01*
X63300000Y-60376000D01*
X63300000Y-60127860D01*
X63300299Y-60121776D01*
X63300499Y-60119747D01*
X63300499Y-57724500D01*
X63320184Y-57657461D01*
X63372988Y-57611706D01*
X63424499Y-57600500D01*
X65369997Y-57600500D01*
X65376348Y-57600000D01*
X65975499Y-57600000D01*
X66042538Y-57619685D01*
G37*
%TD.AperFunction*%
%TD*%
%TA.AperFunction,Conductor*%
%TO.N,Net-(D3-A)*%
G36*
X41543039Y-54419685D02*
G01*
X41588794Y-54472489D01*
X41600000Y-54524000D01*
X41600000Y-56600000D01*
X42300000Y-57300000D01*
X42776878Y-57300000D01*
X42794525Y-57301262D01*
X42797965Y-57301756D01*
X42824000Y-57305500D01*
X44235500Y-57305500D01*
X44302539Y-57325185D01*
X44348294Y-57377989D01*
X44359500Y-57429500D01*
X44359500Y-57583896D01*
X44358969Y-57591998D01*
X44344750Y-57699999D01*
X44344750Y-57700000D01*
X44358969Y-57808001D01*
X44359500Y-57816103D01*
X44359500Y-58059752D01*
X44371131Y-58118229D01*
X44375627Y-58124958D01*
X44379099Y-58130153D01*
X44399980Y-58196829D01*
X44400000Y-58199047D01*
X44400000Y-58200000D01*
X44400952Y-58200000D01*
X44467991Y-58219685D01*
X44469830Y-58220889D01*
X44481769Y-58228867D01*
X44481772Y-58228867D01*
X44481773Y-58228868D01*
X44540247Y-58240499D01*
X44540250Y-58240500D01*
X44540252Y-58240500D01*
X44645999Y-58240500D01*
X44713038Y-58260185D01*
X44758793Y-58312989D01*
X44769999Y-58364500D01*
X44769999Y-58992330D01*
X44750314Y-59059369D01*
X44749722Y-59060282D01*
X44747780Y-59063244D01*
X44747770Y-59063264D01*
X44720596Y-59122092D01*
X44718634Y-59121185D01*
X44681927Y-59169958D01*
X44616400Y-59194206D01*
X44607873Y-59194500D01*
X43645858Y-59194500D01*
X43634866Y-59195089D01*
X43634857Y-59195089D01*
X43634856Y-59195090D01*
X43634855Y-59195090D01*
X43596979Y-59199163D01*
X43596916Y-59198578D01*
X43583116Y-59200000D01*
X43502033Y-59200000D01*
X43272980Y-59427511D01*
X43236267Y-59463977D01*
X43174831Y-59497255D01*
X43148882Y-59500000D01*
X38324000Y-59500000D01*
X38256961Y-59480315D01*
X38211206Y-59427511D01*
X38200000Y-59376000D01*
X38200000Y-54524000D01*
X38219685Y-54456961D01*
X38272489Y-54411206D01*
X38324000Y-54400000D01*
X41476000Y-54400000D01*
X41543039Y-54419685D01*
G37*
%TD.AperFunction*%
%TD*%
%TA.AperFunction,Conductor*%
%TO.N,+9V*%
G36*
X61343039Y-28119685D02*
G01*
X61388794Y-28172489D01*
X61400000Y-28224000D01*
X61400000Y-30676000D01*
X61380315Y-30743039D01*
X61327511Y-30788794D01*
X61276000Y-30800000D01*
X59724000Y-30800000D01*
X59656961Y-30780315D01*
X59611206Y-30727511D01*
X59600000Y-30676000D01*
X59600000Y-28224000D01*
X59619685Y-28156961D01*
X59672489Y-28111206D01*
X59724000Y-28100000D01*
X61276000Y-28100000D01*
X61343039Y-28119685D01*
G37*
%TD.AperFunction*%
%TD*%
%TA.AperFunction,Conductor*%
%TO.N,GND*%
G36*
X13107115Y-56700165D02*
G01*
X13111736Y-56700500D01*
X13111740Y-56700500D01*
X13478264Y-56700500D01*
X13482885Y-56700165D01*
X13487440Y-56700000D01*
X14372560Y-56700000D01*
X14377115Y-56700165D01*
X14381736Y-56700500D01*
X14381740Y-56700500D01*
X14748264Y-56700500D01*
X14752885Y-56700165D01*
X14757440Y-56700000D01*
X15642560Y-56700000D01*
X15647115Y-56700165D01*
X15651736Y-56700500D01*
X15651740Y-56700500D01*
X16018264Y-56700500D01*
X16022885Y-56700165D01*
X16027440Y-56700000D01*
X16778732Y-56700000D01*
X16796662Y-56701282D01*
X16806476Y-56702692D01*
X16826000Y-56705500D01*
X17753310Y-56705500D01*
X17821431Y-56725502D01*
X17842400Y-56742400D01*
X18400000Y-57300000D01*
X22274000Y-57300000D01*
X22342121Y-57320002D01*
X22388614Y-57373658D01*
X22400000Y-57426000D01*
X22400000Y-59174000D01*
X22379998Y-59242121D01*
X22326342Y-59288614D01*
X22274000Y-59300000D01*
X17297440Y-59300000D01*
X17292885Y-59299835D01*
X17288264Y-59299500D01*
X17288260Y-59299500D01*
X16921740Y-59299500D01*
X16921736Y-59299500D01*
X16917115Y-59299835D01*
X16912560Y-59300000D01*
X16027440Y-59300000D01*
X16022885Y-59299835D01*
X16018264Y-59299500D01*
X16018260Y-59299500D01*
X15651740Y-59299500D01*
X15651736Y-59299500D01*
X15647115Y-59299835D01*
X15642560Y-59300000D01*
X14757440Y-59300000D01*
X14752885Y-59299835D01*
X14748264Y-59299500D01*
X14748260Y-59299500D01*
X14381740Y-59299500D01*
X14381736Y-59299500D01*
X14377115Y-59299835D01*
X14372560Y-59300000D01*
X13487440Y-59300000D01*
X13482885Y-59299835D01*
X13478264Y-59299500D01*
X13478260Y-59299500D01*
X13111740Y-59299500D01*
X13111736Y-59299500D01*
X13107115Y-59299835D01*
X13102560Y-59300000D01*
X12700000Y-59300000D01*
X12436903Y-59563096D01*
X12374593Y-59597120D01*
X12347810Y-59600000D01*
X10526000Y-59600000D01*
X10457879Y-59579998D01*
X10411386Y-59526342D01*
X10400000Y-59474000D01*
X10400000Y-57326000D01*
X10420002Y-57257879D01*
X10473658Y-57211386D01*
X10526000Y-57200000D01*
X11248552Y-57200000D01*
X11289527Y-57209837D01*
X11290261Y-57207581D01*
X11299689Y-57210644D01*
X11299693Y-57210644D01*
X11299696Y-57210646D01*
X11393481Y-57225500D01*
X12006518Y-57225499D01*
X12100304Y-57210646D01*
X12109735Y-57207582D01*
X12110468Y-57209838D01*
X12151448Y-57200000D01*
X12399999Y-57200000D01*
X12400000Y-57200000D01*
X12863096Y-56736903D01*
X12925407Y-56702880D01*
X12952190Y-56700000D01*
X13102560Y-56700000D01*
X13107115Y-56700165D01*
G37*
%TD.AperFunction*%
%TD*%
%TA.AperFunction,Conductor*%
%TO.N,+9V*%
G36*
X68443039Y-21719685D02*
G01*
X68488794Y-21772489D01*
X68500000Y-21824000D01*
X68500000Y-23576000D01*
X68480315Y-23643039D01*
X68427511Y-23688794D01*
X68376000Y-23700000D01*
X65924000Y-23700000D01*
X65856961Y-23680315D01*
X65811206Y-23627511D01*
X65800000Y-23576000D01*
X65800000Y-21824000D01*
X65819685Y-21756961D01*
X65872489Y-21711206D01*
X65924000Y-21700000D01*
X68376000Y-21700000D01*
X68443039Y-21719685D01*
G37*
%TD.AperFunction*%
%TD*%
%TA.AperFunction,Conductor*%
%TO.N,+9V*%
G36*
X44643039Y-47645185D02*
G01*
X44688794Y-47697989D01*
X44700000Y-47749500D01*
X44700000Y-48476878D01*
X44698738Y-48494525D01*
X44694500Y-48524000D01*
X44694500Y-48789898D01*
X44694612Y-48794688D01*
X44694933Y-48801590D01*
X44695000Y-48804445D01*
X44695000Y-50195549D01*
X44694933Y-50198412D01*
X44694612Y-50205306D01*
X44694612Y-50205308D01*
X44694500Y-50210104D01*
X44694500Y-51089900D01*
X44694612Y-51094702D01*
X44694932Y-51101536D01*
X44695000Y-51104436D01*
X44695000Y-51229620D01*
X44699394Y-51260843D01*
X44700000Y-51269494D01*
X44700000Y-52523192D01*
X44698738Y-52540839D01*
X44694500Y-52570314D01*
X44694500Y-54076000D01*
X44674815Y-54143039D01*
X44622011Y-54188794D01*
X44570500Y-54200000D01*
X43251362Y-54200000D01*
X43184323Y-54180315D01*
X43163681Y-54163681D01*
X39400000Y-50400000D01*
X38324000Y-50400000D01*
X38256961Y-50380315D01*
X38211206Y-50327511D01*
X38200000Y-50276000D01*
X38200000Y-47749500D01*
X38219685Y-47682461D01*
X38272489Y-47636706D01*
X38324000Y-47625500D01*
X44576000Y-47625500D01*
X44643039Y-47645185D01*
G37*
%TD.AperFunction*%
%TD*%
%TA.AperFunction,Conductor*%
%TO.N,Net-(T1-PM)*%
G36*
X58243039Y-55419685D02*
G01*
X58288794Y-55472489D01*
X58300000Y-55524000D01*
X58300000Y-56748638D01*
X58280315Y-56815677D01*
X58263681Y-56836319D01*
X57500000Y-57599999D01*
X57500000Y-59023666D01*
X57480315Y-59090705D01*
X57463681Y-59111347D01*
X57211347Y-59363681D01*
X57150024Y-59397166D01*
X57123666Y-59400000D01*
X53624000Y-59400000D01*
X53556961Y-59380315D01*
X53511206Y-59327511D01*
X53500000Y-59276000D01*
X53500000Y-57851362D01*
X53519685Y-57784323D01*
X53536319Y-57763681D01*
X55863681Y-55436319D01*
X55925004Y-55402834D01*
X55951362Y-55400000D01*
X58176000Y-55400000D01*
X58243039Y-55419685D01*
G37*
%TD.AperFunction*%
%TD*%
%TA.AperFunction,Conductor*%
%TO.N,GND*%
G36*
X30458691Y-52818907D02*
G01*
X30494655Y-52868407D01*
X30499500Y-52899000D01*
X30499500Y-53019744D01*
X30499501Y-53019759D01*
X30504599Y-53045391D01*
X30506501Y-53065002D01*
X30500000Y-55200000D01*
X30856482Y-55200000D01*
X30871969Y-55201219D01*
X30898998Y-55205500D01*
X30899000Y-55205500D01*
X30956958Y-55205500D01*
X30963683Y-55205280D01*
X30976860Y-55204416D01*
X30983550Y-55203757D01*
X30987074Y-55203293D01*
X31012925Y-55203293D01*
X31016449Y-55203757D01*
X31023140Y-55204416D01*
X31036318Y-55205280D01*
X31043042Y-55205500D01*
X31756958Y-55205500D01*
X31763683Y-55205280D01*
X31776860Y-55204416D01*
X31783550Y-55203757D01*
X31787074Y-55203293D01*
X31812925Y-55203293D01*
X31816449Y-55203757D01*
X31823140Y-55204416D01*
X31836318Y-55205280D01*
X31843042Y-55205500D01*
X32556958Y-55205500D01*
X32563683Y-55205280D01*
X32576860Y-55204416D01*
X32583550Y-55203757D01*
X32587074Y-55203293D01*
X32612925Y-55203293D01*
X32616449Y-55203757D01*
X32623140Y-55204416D01*
X32636318Y-55205280D01*
X32643042Y-55205500D01*
X34556958Y-55205500D01*
X34563683Y-55205280D01*
X34576860Y-55204416D01*
X34583550Y-55203757D01*
X34587074Y-55203293D01*
X34612925Y-55203293D01*
X34616449Y-55203757D01*
X34623140Y-55204416D01*
X34636318Y-55205280D01*
X34643042Y-55205500D01*
X35101000Y-55205500D01*
X35159191Y-55224407D01*
X35195155Y-55273907D01*
X35200000Y-55304500D01*
X35200000Y-59501000D01*
X35181093Y-59559191D01*
X35131593Y-59595155D01*
X35101000Y-59600000D01*
X32400000Y-59600000D01*
X31400000Y-60600000D01*
X31400000Y-60600001D01*
X31400000Y-63101000D01*
X31381093Y-63159191D01*
X31331593Y-63195155D01*
X31301000Y-63200000D01*
X29004500Y-63200000D01*
X28946309Y-63181093D01*
X28910345Y-63131593D01*
X28905500Y-63101000D01*
X28905500Y-61835507D01*
X28924407Y-61777316D01*
X28934490Y-61765509D01*
X29300000Y-61400000D01*
X29300000Y-61301509D01*
X29301219Y-61286021D01*
X29305500Y-61258992D01*
X29305500Y-61104633D01*
X29305682Y-61101855D01*
X29305682Y-61098148D01*
X29305500Y-61095369D01*
X29305500Y-60304633D01*
X29305682Y-60301855D01*
X29305682Y-60298148D01*
X29305500Y-60295369D01*
X29305500Y-59999004D01*
X29303352Y-59971718D01*
X29302970Y-59966856D01*
X29301218Y-59955799D01*
X29300000Y-59940314D01*
X29300000Y-59900000D01*
X29299999Y-59899998D01*
X29285218Y-59885217D01*
X29264189Y-59854123D01*
X29261409Y-59847619D01*
X29261407Y-59847615D01*
X29237678Y-59814956D01*
X29225444Y-59798117D01*
X29201203Y-59770372D01*
X29148013Y-59738592D01*
X29135151Y-59730907D01*
X29115927Y-59715926D01*
X29100001Y-59700000D01*
X29100000Y-59700000D01*
X29043518Y-59700000D01*
X29028031Y-59698781D01*
X29001002Y-59694500D01*
X29001000Y-59694500D01*
X28835508Y-59694500D01*
X28777317Y-59675593D01*
X28765504Y-59665504D01*
X28654496Y-59554496D01*
X28626719Y-59499979D01*
X28625500Y-59484492D01*
X28625500Y-57215507D01*
X28644407Y-57157316D01*
X28654490Y-57145509D01*
X29100000Y-56700000D01*
X29100000Y-55446406D01*
X29100424Y-55439938D01*
X29105682Y-55400000D01*
X29105682Y-55399999D01*
X29100424Y-55360060D01*
X29100000Y-55353592D01*
X29100000Y-54046406D01*
X29100424Y-54039938D01*
X29105682Y-54000000D01*
X29105682Y-53999999D01*
X29100424Y-53960060D01*
X29100000Y-53953592D01*
X29100000Y-53027255D01*
X29100239Y-53022398D01*
X29100500Y-53019747D01*
X29100500Y-52899000D01*
X29119407Y-52840809D01*
X29168907Y-52804845D01*
X29199500Y-52800000D01*
X30400500Y-52800000D01*
X30458691Y-52818907D01*
G37*
%TD.AperFunction*%
%TD*%
%TA.AperFunction,Conductor*%
%TO.N,GND*%
G36*
X24142121Y-63920002D02*
G01*
X24188614Y-63973658D01*
X24200000Y-64026000D01*
X24200000Y-65974000D01*
X24179998Y-66042121D01*
X24126342Y-66088614D01*
X24074000Y-66100000D01*
X20326000Y-66100000D01*
X20257879Y-66079998D01*
X20211386Y-66026342D01*
X20200000Y-65974000D01*
X20200000Y-64026000D01*
X20220002Y-63957879D01*
X20273658Y-63911386D01*
X20326000Y-63900000D01*
X24074000Y-63900000D01*
X24142121Y-63920002D01*
G37*
%TD.AperFunction*%
%TD*%
%TA.AperFunction,Conductor*%
%TO.N,GND*%
G36*
X47643039Y-48419685D02*
G01*
X47688794Y-48472489D01*
X47700000Y-48524000D01*
X47700000Y-52648637D01*
X47680315Y-52715676D01*
X47663681Y-52736318D01*
X46911817Y-53488181D01*
X46850494Y-53521666D01*
X46824137Y-53524500D01*
X46743482Y-53524500D01*
X46662519Y-53537323D01*
X46649696Y-53539354D01*
X46536658Y-53596950D01*
X46536657Y-53596951D01*
X46536652Y-53596954D01*
X46446954Y-53686652D01*
X46446951Y-53686657D01*
X46389352Y-53799698D01*
X46374500Y-53893475D01*
X46374500Y-53974138D01*
X46354815Y-54041177D01*
X46338181Y-54061819D01*
X45900000Y-54499999D01*
X45900000Y-54815291D01*
X45891624Y-54860092D01*
X45887578Y-54870534D01*
X45874259Y-54895802D01*
X45870345Y-54901515D01*
X45870343Y-54901521D01*
X45863244Y-54931699D01*
X45860702Y-54939907D01*
X45849500Y-54968826D01*
X45849500Y-54975751D01*
X45846206Y-55004141D01*
X45844621Y-55010877D01*
X45844621Y-55010881D01*
X45848905Y-55041590D01*
X45849500Y-55050166D01*
X45849500Y-55236703D01*
X45840060Y-55284158D01*
X45839758Y-55284885D01*
X45824500Y-55361594D01*
X45824500Y-56113397D01*
X45839760Y-56190118D01*
X45839761Y-56190120D01*
X45879102Y-56248997D01*
X45892825Y-56292825D01*
X45902275Y-56302275D01*
X45961566Y-56319685D01*
X45963418Y-56320898D01*
X45984883Y-56335240D01*
X46061599Y-56350500D01*
X46125500Y-56350499D01*
X46192538Y-56370183D01*
X46238294Y-56422986D01*
X46249500Y-56474497D01*
X46249500Y-56538398D01*
X46264760Y-56615119D01*
X46275446Y-56631111D01*
X46296323Y-56697788D01*
X46277837Y-56765168D01*
X46275446Y-56768889D01*
X46264759Y-56784882D01*
X46249500Y-56861596D01*
X46249500Y-57038398D01*
X46264760Y-57115118D01*
X46264761Y-57115120D01*
X46286556Y-57147737D01*
X46322888Y-57202112D01*
X46409883Y-57260240D01*
X46409886Y-57260240D01*
X46409887Y-57260241D01*
X46448241Y-57267870D01*
X46486599Y-57275500D01*
X47176000Y-57275499D01*
X47243039Y-57295183D01*
X47288794Y-57347987D01*
X47300000Y-57399499D01*
X47300000Y-57500500D01*
X47280315Y-57567539D01*
X47227511Y-57613294D01*
X47176000Y-57624500D01*
X46486602Y-57624500D01*
X46409881Y-57639760D01*
X46409879Y-57639761D01*
X46322888Y-57697888D01*
X46264760Y-57784883D01*
X46264758Y-57784887D01*
X46249500Y-57861595D01*
X46249500Y-57876000D01*
X46229815Y-57943039D01*
X46177011Y-57988794D01*
X46125500Y-58000000D01*
X44724000Y-58000000D01*
X44656961Y-57980315D01*
X44611206Y-57927511D01*
X44600000Y-57876000D01*
X44600000Y-57100000D01*
X42824000Y-57100000D01*
X42756961Y-57080315D01*
X42711206Y-57027511D01*
X42700000Y-56976000D01*
X42700000Y-54624000D01*
X42719685Y-54556961D01*
X42772489Y-54511206D01*
X42824000Y-54500000D01*
X44900000Y-54500000D01*
X44900000Y-52570314D01*
X44919685Y-52503275D01*
X44972489Y-52457520D01*
X45040185Y-52447375D01*
X45075617Y-52452039D01*
X45099999Y-52455250D01*
X45100000Y-52455250D01*
X45100001Y-52455250D01*
X45114977Y-52453278D01*
X45243709Y-52436330D01*
X45377625Y-52380861D01*
X45492621Y-52292621D01*
X45580861Y-52177625D01*
X45636330Y-52043709D01*
X45655250Y-51900000D01*
X45636330Y-51756291D01*
X45580861Y-51622375D01*
X45492621Y-51507379D01*
X45377625Y-51419139D01*
X45377624Y-51419138D01*
X45377622Y-51419137D01*
X45243712Y-51363671D01*
X45243710Y-51363670D01*
X45243709Y-51363670D01*
X45159314Y-51352559D01*
X45100001Y-51344750D01*
X45099999Y-51344750D01*
X45040686Y-51352559D01*
X44971650Y-51341794D01*
X44919394Y-51295414D01*
X44900500Y-51229620D01*
X44900500Y-51095736D01*
X44900271Y-51093296D01*
X44900000Y-51087502D01*
X44900000Y-50212497D01*
X44900270Y-50206715D01*
X44900500Y-50204266D01*
X44900500Y-48795734D01*
X44900270Y-48793288D01*
X44900000Y-48787502D01*
X44900000Y-48524000D01*
X44919685Y-48456961D01*
X44972489Y-48411206D01*
X45024000Y-48400000D01*
X47576000Y-48400000D01*
X47643039Y-48419685D01*
G37*
%TD.AperFunction*%
%TD*%
%TA.AperFunction,Conductor*%
%TO.N,GND*%
G36*
X66043039Y-30619685D02*
G01*
X66088794Y-30672489D01*
X66100000Y-30724000D01*
X66100000Y-34076000D01*
X66080315Y-34143039D01*
X66027511Y-34188794D01*
X65976000Y-34200000D01*
X63724000Y-34200000D01*
X63656961Y-34180315D01*
X63611206Y-34127511D01*
X63600000Y-34076000D01*
X63600000Y-30724000D01*
X63619685Y-30656961D01*
X63672489Y-30611206D01*
X63724000Y-30600000D01*
X65976000Y-30600000D01*
X66043039Y-30619685D01*
G37*
%TD.AperFunction*%
%TD*%
%TA.AperFunction,Conductor*%
%TO.N,+3V3*%
G36*
X32759191Y-49418907D02*
G01*
X32795155Y-49468407D01*
X32800000Y-49499000D01*
X32800000Y-52200000D01*
X35101000Y-52200000D01*
X35159191Y-52218907D01*
X35195155Y-52268407D01*
X35200000Y-52299000D01*
X35200000Y-54901000D01*
X35181093Y-54959191D01*
X35131593Y-54995155D01*
X35101000Y-55000000D01*
X34646406Y-55000000D01*
X34639939Y-54999576D01*
X34600000Y-54994318D01*
X34560060Y-54999576D01*
X34553594Y-55000000D01*
X32646406Y-55000000D01*
X32639939Y-54999576D01*
X32600000Y-54994318D01*
X32560060Y-54999576D01*
X32553594Y-55000000D01*
X31846406Y-55000000D01*
X31839939Y-54999576D01*
X31800000Y-54994318D01*
X31760060Y-54999576D01*
X31753594Y-55000000D01*
X31046406Y-55000000D01*
X31039939Y-54999576D01*
X31000000Y-54994318D01*
X30960060Y-54999576D01*
X30953594Y-55000000D01*
X30899000Y-55000000D01*
X30840809Y-54981093D01*
X30804845Y-54931593D01*
X30800000Y-54901000D01*
X30800000Y-49499000D01*
X30818907Y-49440809D01*
X30868407Y-49404845D01*
X30899000Y-49400000D01*
X32701000Y-49400000D01*
X32759191Y-49418907D01*
G37*
%TD.AperFunction*%
%TD*%
%TA.AperFunction,Conductor*%
%TO.N,GND*%
G36*
X34762391Y-66820002D02*
G01*
X34808884Y-66873658D01*
X34818988Y-66943932D01*
X34799035Y-66996002D01*
X34789760Y-67009882D01*
X34789759Y-67009883D01*
X34774500Y-67086595D01*
X34774500Y-67813397D01*
X34774501Y-67813406D01*
X34789759Y-67890116D01*
X34839851Y-67965084D01*
X34844311Y-67979328D01*
X34859916Y-67985149D01*
X34934883Y-68035240D01*
X35011599Y-68050500D01*
X35188400Y-68050499D01*
X35188403Y-68050498D01*
X35188406Y-68050498D01*
X35200837Y-68048025D01*
X35265117Y-68035240D01*
X35279996Y-68025297D01*
X35347748Y-68004081D01*
X35416215Y-68022862D01*
X35420004Y-68025298D01*
X35434881Y-68035239D01*
X35434883Y-68035240D01*
X35511599Y-68050500D01*
X35688400Y-68050499D01*
X35688403Y-68050498D01*
X35688406Y-68050498D01*
X35700837Y-68048025D01*
X35765117Y-68035240D01*
X35779996Y-68025297D01*
X35847748Y-68004081D01*
X35916215Y-68022862D01*
X35920004Y-68025298D01*
X35934881Y-68035239D01*
X35934883Y-68035240D01*
X36011599Y-68050500D01*
X36188400Y-68050499D01*
X36188403Y-68050498D01*
X36188406Y-68050498D01*
X36200837Y-68048025D01*
X36265117Y-68035240D01*
X36279996Y-68025297D01*
X36347748Y-68004081D01*
X36416215Y-68022862D01*
X36420004Y-68025298D01*
X36434881Y-68035239D01*
X36434883Y-68035240D01*
X36511599Y-68050500D01*
X36688400Y-68050499D01*
X36688403Y-68050498D01*
X36688406Y-68050498D01*
X36700837Y-68048025D01*
X36765117Y-68035240D01*
X36779996Y-68025297D01*
X36847748Y-68004081D01*
X36916215Y-68022862D01*
X36920004Y-68025298D01*
X36934881Y-68035239D01*
X36934883Y-68035240D01*
X37011599Y-68050500D01*
X37188400Y-68050499D01*
X37188403Y-68050498D01*
X37188406Y-68050498D01*
X37200837Y-68048025D01*
X37265117Y-68035240D01*
X37279996Y-68025297D01*
X37347748Y-68004081D01*
X37416215Y-68022862D01*
X37420004Y-68025298D01*
X37434881Y-68035239D01*
X37434883Y-68035240D01*
X37511599Y-68050500D01*
X37688400Y-68050499D01*
X37688403Y-68050498D01*
X37688406Y-68050498D01*
X37700837Y-68048025D01*
X37765117Y-68035240D01*
X37779996Y-68025297D01*
X37847748Y-68004081D01*
X37916215Y-68022862D01*
X37920004Y-68025298D01*
X37934881Y-68035239D01*
X37934883Y-68035240D01*
X38011599Y-68050500D01*
X38188400Y-68050499D01*
X38188403Y-68050498D01*
X38188406Y-68050498D01*
X38226223Y-68042975D01*
X38265117Y-68035240D01*
X38340084Y-67985148D01*
X38354328Y-67980688D01*
X38360149Y-67965083D01*
X38363851Y-67959543D01*
X38410240Y-67890117D01*
X38425500Y-67813401D01*
X38425499Y-67086600D01*
X38410240Y-67009883D01*
X38400964Y-66996001D01*
X38379750Y-66928249D01*
X38398533Y-66859782D01*
X38451350Y-66812339D01*
X38505730Y-66800000D01*
X39574000Y-66800000D01*
X39642121Y-66820002D01*
X39688614Y-66873658D01*
X39700000Y-66926000D01*
X39700000Y-67994269D01*
X39679998Y-68062390D01*
X39626342Y-68108883D01*
X39556068Y-68118987D01*
X39504001Y-68099036D01*
X39490118Y-68089760D01*
X39490116Y-68089759D01*
X39413402Y-68074500D01*
X38686602Y-68074500D01*
X38686593Y-68074501D01*
X38609883Y-68089759D01*
X38534915Y-68139851D01*
X38520670Y-68144310D01*
X38514851Y-68159915D01*
X38464759Y-68234883D01*
X38449500Y-68311596D01*
X38449500Y-68488397D01*
X38449501Y-68488406D01*
X38464759Y-68565114D01*
X38464760Y-68565117D01*
X38474703Y-68579998D01*
X38495918Y-68647750D01*
X38477135Y-68716217D01*
X38474705Y-68719999D01*
X38464759Y-68734883D01*
X38449500Y-68811596D01*
X38449500Y-68988397D01*
X38449501Y-68988406D01*
X38464759Y-69065114D01*
X38464760Y-69065117D01*
X38474703Y-69079998D01*
X38495918Y-69147750D01*
X38477135Y-69216217D01*
X38474705Y-69219999D01*
X38464759Y-69234883D01*
X38449500Y-69311596D01*
X38449500Y-69488397D01*
X38449501Y-69488406D01*
X38464759Y-69565114D01*
X38464760Y-69565117D01*
X38474703Y-69579998D01*
X38495918Y-69647750D01*
X38477135Y-69716217D01*
X38474705Y-69719999D01*
X38464759Y-69734883D01*
X38449500Y-69811596D01*
X38449500Y-69988397D01*
X38449501Y-69988406D01*
X38464759Y-70065114D01*
X38464760Y-70065117D01*
X38474703Y-70079998D01*
X38495918Y-70147750D01*
X38477135Y-70216217D01*
X38474705Y-70219999D01*
X38464759Y-70234883D01*
X38449500Y-70311596D01*
X38449500Y-70488397D01*
X38449501Y-70488406D01*
X38464759Y-70565114D01*
X38464760Y-70565117D01*
X38474703Y-70579998D01*
X38495918Y-70647750D01*
X38477135Y-70716217D01*
X38474705Y-70719999D01*
X38464759Y-70734883D01*
X38449500Y-70811596D01*
X38449500Y-70988397D01*
X38449501Y-70988406D01*
X38464759Y-71065114D01*
X38464760Y-71065117D01*
X38474703Y-71079998D01*
X38495918Y-71147750D01*
X38477135Y-71216217D01*
X38474705Y-71219999D01*
X38464759Y-71234883D01*
X38449500Y-71311596D01*
X38449500Y-71488397D01*
X38449501Y-71488406D01*
X38464759Y-71565116D01*
X38514851Y-71640084D01*
X38519311Y-71654328D01*
X38534916Y-71660149D01*
X38609883Y-71710240D01*
X38648081Y-71717838D01*
X38710991Y-71750745D01*
X38746123Y-71812440D01*
X38749500Y-71841417D01*
X38749500Y-71903500D01*
X38729498Y-71971621D01*
X38675842Y-72018114D01*
X38623500Y-72029500D01*
X38537439Y-72029500D01*
X38469318Y-72009498D01*
X38422825Y-71955842D01*
X38413860Y-71928082D01*
X38413075Y-71924138D01*
X38410240Y-71909883D01*
X38360149Y-71834916D01*
X38355688Y-71820671D01*
X38340084Y-71814851D01*
X38265116Y-71764759D01*
X38188402Y-71749500D01*
X38011602Y-71749500D01*
X38011593Y-71749501D01*
X37934885Y-71764759D01*
X37934883Y-71764759D01*
X37934883Y-71764760D01*
X37919998Y-71774705D01*
X37852246Y-71795918D01*
X37783780Y-71777134D01*
X37779998Y-71774703D01*
X37765117Y-71764760D01*
X37765116Y-71764759D01*
X37688402Y-71749500D01*
X37511602Y-71749500D01*
X37511593Y-71749501D01*
X37434885Y-71764759D01*
X37434883Y-71764759D01*
X37434883Y-71764760D01*
X37419998Y-71774705D01*
X37352246Y-71795918D01*
X37283780Y-71777134D01*
X37279998Y-71774703D01*
X37265117Y-71764760D01*
X37265116Y-71764759D01*
X37188402Y-71749500D01*
X37011602Y-71749500D01*
X37011593Y-71749501D01*
X36934885Y-71764759D01*
X36934883Y-71764759D01*
X36934883Y-71764760D01*
X36919998Y-71774705D01*
X36852246Y-71795918D01*
X36783780Y-71777134D01*
X36779998Y-71774703D01*
X36765117Y-71764760D01*
X36765116Y-71764759D01*
X36688402Y-71749500D01*
X36511602Y-71749500D01*
X36511593Y-71749501D01*
X36434882Y-71764759D01*
X36347887Y-71822887D01*
X36289760Y-71909882D01*
X36289759Y-71909883D01*
X36274500Y-71986595D01*
X36274500Y-72713404D01*
X36274840Y-72716849D01*
X36274500Y-72718635D01*
X36274501Y-72719590D01*
X36274320Y-72719590D01*
X36261607Y-72786601D01*
X36238541Y-72818286D01*
X36097024Y-72959803D01*
X36034712Y-72993829D01*
X35963897Y-72988764D01*
X35907061Y-72946217D01*
X35882250Y-72879697D01*
X35897341Y-72810323D01*
X35903155Y-72800720D01*
X35910240Y-72790117D01*
X35925500Y-72713401D01*
X35925499Y-71986600D01*
X35919381Y-71955842D01*
X35910240Y-71909882D01*
X35852112Y-71822887D01*
X35765117Y-71764760D01*
X35765116Y-71764759D01*
X35688402Y-71749500D01*
X35511602Y-71749500D01*
X35511593Y-71749501D01*
X35434885Y-71764759D01*
X35434883Y-71764759D01*
X35434883Y-71764760D01*
X35419998Y-71774705D01*
X35352246Y-71795918D01*
X35283780Y-71777134D01*
X35279998Y-71774703D01*
X35265117Y-71764760D01*
X35265116Y-71764759D01*
X35188402Y-71749500D01*
X35011602Y-71749500D01*
X35011593Y-71749501D01*
X34934883Y-71764759D01*
X34859915Y-71814851D01*
X34845670Y-71819310D01*
X34839851Y-71834915D01*
X34789759Y-71909883D01*
X34774500Y-71986595D01*
X34774500Y-72713397D01*
X34774501Y-72713406D01*
X34789759Y-72790116D01*
X34799035Y-72803998D01*
X34820250Y-72871751D01*
X34801467Y-72940218D01*
X34748650Y-72987661D01*
X34694270Y-73000000D01*
X33626000Y-73000000D01*
X33557879Y-72979998D01*
X33511386Y-72926342D01*
X33500000Y-72874000D01*
X33500000Y-71826500D01*
X33520002Y-71758379D01*
X33573658Y-71711886D01*
X33626000Y-71700500D01*
X33661305Y-71700500D01*
X33709522Y-71710091D01*
X33709880Y-71710239D01*
X33709882Y-71710239D01*
X33709883Y-71710240D01*
X33786599Y-71725500D01*
X34513400Y-71725499D01*
X34513403Y-71725498D01*
X34513406Y-71725498D01*
X34581841Y-71711886D01*
X34590117Y-71710240D01*
X34665084Y-71660148D01*
X34679328Y-71655688D01*
X34685149Y-71640083D01*
X34735240Y-71565117D01*
X34750500Y-71488401D01*
X34750499Y-71311600D01*
X34735240Y-71234883D01*
X34725297Y-71220003D01*
X34704081Y-71152252D01*
X34722862Y-71083785D01*
X34725293Y-71080002D01*
X34735240Y-71065117D01*
X34750500Y-70988401D01*
X34750499Y-70811600D01*
X34735240Y-70734883D01*
X34725297Y-70720003D01*
X34704081Y-70652252D01*
X34722862Y-70583785D01*
X34725293Y-70580002D01*
X34735240Y-70565117D01*
X34750500Y-70488401D01*
X34750499Y-70311600D01*
X34735240Y-70234883D01*
X34725297Y-70220003D01*
X34704081Y-70152252D01*
X34722862Y-70083785D01*
X34725293Y-70080002D01*
X34735240Y-70065117D01*
X34750500Y-69988401D01*
X34750499Y-69811600D01*
X34735240Y-69734883D01*
X34725297Y-69720003D01*
X34704081Y-69652252D01*
X34722862Y-69583785D01*
X34725293Y-69580002D01*
X34735240Y-69565117D01*
X34750500Y-69488401D01*
X34750499Y-69311600D01*
X34735240Y-69234883D01*
X34725297Y-69220003D01*
X34704081Y-69152252D01*
X34722862Y-69083785D01*
X34725293Y-69080002D01*
X34735240Y-69065117D01*
X34750500Y-68988401D01*
X34750499Y-68811600D01*
X34750209Y-68810143D01*
X34745482Y-68786376D01*
X34735240Y-68734883D01*
X34725297Y-68720003D01*
X34704081Y-68652252D01*
X34722862Y-68583785D01*
X34725293Y-68580002D01*
X34735240Y-68565117D01*
X34750500Y-68488401D01*
X34750499Y-68311600D01*
X34735240Y-68234883D01*
X34735240Y-68234882D01*
X34685149Y-68159916D01*
X34680688Y-68145671D01*
X34665084Y-68139851D01*
X34590116Y-68089759D01*
X34513402Y-68074500D01*
X33786602Y-68074500D01*
X33786593Y-68074501D01*
X33709882Y-68089760D01*
X33709881Y-68089760D01*
X33695999Y-68099036D01*
X33628246Y-68120249D01*
X33559779Y-68101464D01*
X33512337Y-68048646D01*
X33500000Y-67994269D01*
X33500000Y-66926000D01*
X33520002Y-66857879D01*
X33573658Y-66811386D01*
X33626000Y-66800000D01*
X34694270Y-66800000D01*
X34762391Y-66820002D01*
G37*
%TD.AperFunction*%
%TD*%
%TA.AperFunction,Conductor*%
%TO.N,+9V*%
G36*
X56143039Y-60319685D02*
G01*
X56188794Y-60372489D01*
X56200000Y-60424000D01*
X56200000Y-62176000D01*
X56180315Y-62243039D01*
X56127511Y-62288794D01*
X56076000Y-62300000D01*
X53624000Y-62300000D01*
X53556961Y-62280315D01*
X53511206Y-62227511D01*
X53500000Y-62176000D01*
X53500000Y-60424000D01*
X53519685Y-60356961D01*
X53572489Y-60311206D01*
X53624000Y-60300000D01*
X56076000Y-60300000D01*
X56143039Y-60319685D01*
G37*
%TD.AperFunction*%
%TD*%
%TA.AperFunction,Conductor*%
%TO.N,Net-(C8-Pad1)*%
G36*
X19442121Y-63620002D02*
G01*
X19488614Y-63673658D01*
X19500000Y-63726000D01*
X19500000Y-66074000D01*
X19479998Y-66142121D01*
X19426342Y-66188614D01*
X19374000Y-66200000D01*
X12426000Y-66200000D01*
X12357879Y-66179998D01*
X12311386Y-66126342D01*
X12300000Y-66074000D01*
X12300000Y-63726000D01*
X12320002Y-63657879D01*
X12373658Y-63611386D01*
X12426000Y-63600000D01*
X19374000Y-63600000D01*
X19442121Y-63620002D01*
G37*
%TD.AperFunction*%
%TD*%
%TA.AperFunction,Conductor*%
%TO.N,Net-(T2-PM)*%
G36*
X68443039Y-24619685D02*
G01*
X68488794Y-24672489D01*
X68500000Y-24724000D01*
X68500000Y-26148638D01*
X68480315Y-26215677D01*
X68463681Y-26236319D01*
X66136319Y-28563681D01*
X66074996Y-28597166D01*
X66048638Y-28600000D01*
X63824000Y-28600000D01*
X63756961Y-28580315D01*
X63711206Y-28527511D01*
X63700000Y-28476000D01*
X63700000Y-27251362D01*
X63719685Y-27184323D01*
X63736319Y-27163681D01*
X64500000Y-26400000D01*
X64500000Y-24976332D01*
X64519685Y-24909293D01*
X64536316Y-24888654D01*
X64788651Y-24636318D01*
X64849974Y-24602834D01*
X64876332Y-24600000D01*
X68376000Y-24600000D01*
X68443039Y-24619685D01*
G37*
%TD.AperFunction*%
%TD*%
%TA.AperFunction,Conductor*%
%TO.N,GND*%
G36*
X46843039Y-60319685D02*
G01*
X46888794Y-60372489D01*
X46900000Y-60424000D01*
X46900000Y-65676000D01*
X46880315Y-65743039D01*
X46827511Y-65788794D01*
X46776000Y-65800000D01*
X45224000Y-65800000D01*
X45156961Y-65780315D01*
X45111206Y-65727511D01*
X45100000Y-65676000D01*
X45100000Y-60424000D01*
X45119685Y-60356961D01*
X45172489Y-60311206D01*
X45224000Y-60300000D01*
X46776000Y-60300000D01*
X46843039Y-60319685D01*
G37*
%TD.AperFunction*%
%TD*%
%TA.AperFunction,Conductor*%
%TO.N,Net-(U1-SW)*%
G36*
X16242121Y-59620002D02*
G01*
X16288614Y-59673658D01*
X16300000Y-59726000D01*
X16300000Y-61500001D01*
X16699998Y-61899999D01*
X16700000Y-61900000D01*
X19274000Y-61900000D01*
X19342121Y-61920002D01*
X19388614Y-61973658D01*
X19400000Y-62026000D01*
X19400000Y-63074000D01*
X19379998Y-63142121D01*
X19326342Y-63188614D01*
X19274000Y-63200000D01*
X15626000Y-63200000D01*
X15557879Y-63179998D01*
X15511386Y-63126342D01*
X15500000Y-63074000D01*
X15500000Y-59726000D01*
X15520002Y-59657879D01*
X15573658Y-59611386D01*
X15626000Y-59600000D01*
X16174000Y-59600000D01*
X16242121Y-59620002D01*
G37*
%TD.AperFunction*%
%TD*%
%TA.AperFunction,Conductor*%
%TO.N,GND*%
G36*
X11122254Y-63304299D02*
G01*
X11137199Y-63305280D01*
X11143926Y-63305500D01*
X11374000Y-63305500D01*
X11442121Y-63325502D01*
X11488614Y-63379158D01*
X11500000Y-63431500D01*
X11500000Y-65574000D01*
X11479998Y-65642121D01*
X11426342Y-65688614D01*
X11374000Y-65700000D01*
X9626000Y-65700000D01*
X9557879Y-65679998D01*
X9511386Y-65626342D01*
X9500000Y-65574000D01*
X9500000Y-63442811D01*
X9520002Y-63374690D01*
X9536904Y-63353716D01*
X9548220Y-63342401D01*
X9610534Y-63308378D01*
X9637312Y-63305500D01*
X11056074Y-63305500D01*
X11062801Y-63305280D01*
X11077745Y-63304299D01*
X11084391Y-63303645D01*
X11083466Y-63303768D01*
X11116520Y-63303766D01*
X11115605Y-63303645D01*
X11122254Y-63304299D01*
G37*
%TD.AperFunction*%
%TD*%
%TA.AperFunction,Conductor*%
%TO.N,+BATT*%
G36*
X12515931Y-61520002D02*
G01*
X12536900Y-61536900D01*
X12900000Y-61900000D01*
X14874000Y-61900000D01*
X14942121Y-61920002D01*
X14988614Y-61973658D01*
X15000000Y-62026000D01*
X15000000Y-62974000D01*
X14979998Y-63042121D01*
X14926342Y-63088614D01*
X14874000Y-63100000D01*
X11147292Y-63100000D01*
X11139060Y-63099460D01*
X11100001Y-63094318D01*
X11099999Y-63094318D01*
X11060940Y-63099460D01*
X11052708Y-63100000D01*
X9500000Y-63100000D01*
X9136903Y-63463096D01*
X9074593Y-63497120D01*
X9047810Y-63500000D01*
X5826000Y-63500000D01*
X5757879Y-63479998D01*
X5711386Y-63426342D01*
X5700000Y-63374000D01*
X5700000Y-62152190D01*
X5720002Y-62084069D01*
X5736905Y-62063095D01*
X6263095Y-61536905D01*
X6325407Y-61502879D01*
X6352190Y-61500000D01*
X12447810Y-61500000D01*
X12515931Y-61520002D01*
G37*
%TD.AperFunction*%
%TD*%
%TA.AperFunction,Conductor*%
%TO.N,/Power Supply/SW*%
G36*
X29059191Y-59918907D02*
G01*
X29095155Y-59968407D01*
X29100000Y-59999000D01*
X29100000Y-61258992D01*
X29081093Y-61317183D01*
X29071004Y-61328995D01*
X28700000Y-61699999D01*
X28700000Y-63101000D01*
X28681093Y-63159191D01*
X28631593Y-63195155D01*
X28601000Y-63200000D01*
X28001334Y-63200000D01*
X27943143Y-63181093D01*
X27931330Y-63171004D01*
X27928996Y-63168670D01*
X27901219Y-63114153D01*
X27900000Y-63098666D01*
X27900000Y-61700000D01*
X27899999Y-61699999D01*
X27528996Y-61328995D01*
X27501219Y-61274479D01*
X27500000Y-61258992D01*
X27500000Y-59999000D01*
X27518907Y-59940809D01*
X27568407Y-59904845D01*
X27599000Y-59900000D01*
X29001000Y-59900000D01*
X29059191Y-59918907D01*
G37*
%TD.AperFunction*%
%TD*%
%TA.AperFunction,Conductor*%
%TO.N,/Power Supply/SW*%
G36*
X28859191Y-49418907D02*
G01*
X28895155Y-49468407D01*
X28900000Y-49499000D01*
X28900000Y-52859639D01*
X28898781Y-52875126D01*
X28895000Y-52898997D01*
X28895000Y-53010826D01*
X28894940Y-53013260D01*
X28894624Y-53019680D01*
X28894500Y-53024731D01*
X28894500Y-53956955D01*
X28894720Y-53963677D01*
X28895584Y-53976858D01*
X28896243Y-53983551D01*
X28896708Y-53987083D01*
X28896708Y-54012915D01*
X28896243Y-54016447D01*
X28895584Y-54023140D01*
X28894720Y-54036321D01*
X28894500Y-54043043D01*
X28894500Y-55356955D01*
X28894720Y-55363677D01*
X28895584Y-55376858D01*
X28896243Y-55383551D01*
X28896708Y-55387083D01*
X28896708Y-55412915D01*
X28896243Y-55416447D01*
X28895584Y-55423140D01*
X28894720Y-55436321D01*
X28894500Y-55443043D01*
X28894500Y-56501000D01*
X28875593Y-56559191D01*
X28826093Y-56595155D01*
X28795500Y-56600000D01*
X27704500Y-56600000D01*
X27646309Y-56581093D01*
X27610345Y-56531593D01*
X27605500Y-56501000D01*
X27605500Y-56043043D01*
X27605280Y-56036320D01*
X27604416Y-56023138D01*
X27603758Y-56016451D01*
X27603294Y-56012930D01*
X27603294Y-55987065D01*
X27603757Y-55983549D01*
X27604416Y-55976857D01*
X27605280Y-55963678D01*
X27605500Y-55956955D01*
X27605500Y-53899000D01*
X27602970Y-53866856D01*
X27601218Y-53855799D01*
X27600000Y-53840314D01*
X27600000Y-49499000D01*
X27618907Y-49440809D01*
X27668407Y-49404845D01*
X27699000Y-49400000D01*
X28801000Y-49400000D01*
X28859191Y-49418907D01*
G37*
%TD.AperFunction*%
%TD*%
%TA.AperFunction,Conductor*%
%TO.N,+USB*%
G36*
X20042121Y-54120002D02*
G01*
X20088614Y-54173658D01*
X20100000Y-54226000D01*
X20100000Y-55374000D01*
X20079998Y-55442121D01*
X20026342Y-55488614D01*
X19974000Y-55500000D01*
X19699998Y-55500000D01*
X19400000Y-55799998D01*
X19400000Y-56674000D01*
X19379998Y-56742121D01*
X19326342Y-56788614D01*
X19274000Y-56800000D01*
X18252190Y-56800000D01*
X18184069Y-56779998D01*
X18163099Y-56763099D01*
X17900000Y-56500000D01*
X16826000Y-56500000D01*
X16757879Y-56479998D01*
X16711386Y-56426342D01*
X16700000Y-56374000D01*
X16700000Y-54226000D01*
X16720002Y-54157879D01*
X16773658Y-54111386D01*
X16826000Y-54100000D01*
X19974000Y-54100000D01*
X20042121Y-54120002D01*
G37*
%TD.AperFunction*%
%TD*%
%TA.AperFunction,Conductor*%
%TO.N,GND*%
G36*
X58343039Y-49819685D02*
G01*
X58388794Y-49872489D01*
X58400000Y-49924000D01*
X58400000Y-53276000D01*
X58380315Y-53343039D01*
X58327511Y-53388794D01*
X58276000Y-53400000D01*
X56024000Y-53400000D01*
X55956961Y-53380315D01*
X55911206Y-53327511D01*
X55900000Y-53276000D01*
X55900000Y-49924000D01*
X55919685Y-49856961D01*
X55972489Y-49811206D01*
X56024000Y-49800000D01*
X58276000Y-49800000D01*
X58343039Y-49819685D01*
G37*
%TD.AperFunction*%
%TD*%
%TA.AperFunction,Conductor*%
%TO.N,+BATT*%
G36*
X45267539Y-58260185D02*
G01*
X45313294Y-58312989D01*
X45324500Y-58364500D01*
X45324500Y-59038397D01*
X45324501Y-59038400D01*
X45339760Y-59115117D01*
X45339761Y-59115119D01*
X45340059Y-59115836D01*
X45349500Y-59163295D01*
X45349500Y-59305690D01*
X45348905Y-59314264D01*
X45347227Y-59326295D01*
X45349434Y-59374041D01*
X45349500Y-59376904D01*
X45349500Y-59396377D01*
X45349993Y-59399014D01*
X45350982Y-59407547D01*
X45352415Y-59438523D01*
X45352416Y-59438529D01*
X45355214Y-59444866D01*
X45363664Y-59472152D01*
X45364937Y-59478961D01*
X45364938Y-59478963D01*
X45364939Y-59478965D01*
X45381265Y-59505334D01*
X45385267Y-59512927D01*
X45389433Y-59522361D01*
X45400000Y-59572450D01*
X45400000Y-59748637D01*
X45380315Y-59815676D01*
X45363681Y-59836318D01*
X45064218Y-60135780D01*
X45043229Y-60151330D01*
X45043658Y-60151955D01*
X45037919Y-60155896D01*
X44985110Y-60201656D01*
X44967159Y-60219243D01*
X44967154Y-60219249D01*
X44958282Y-60235110D01*
X44937745Y-60262253D01*
X44600000Y-60599999D01*
X44600000Y-65676000D01*
X44580315Y-65743039D01*
X44527511Y-65788794D01*
X44476000Y-65800000D01*
X43551362Y-65800000D01*
X43484323Y-65780315D01*
X43463681Y-65763681D01*
X41200000Y-63500000D01*
X39124000Y-63500000D01*
X39056961Y-63480315D01*
X39011206Y-63427511D01*
X39000000Y-63376000D01*
X39000000Y-61624000D01*
X39019685Y-61556961D01*
X39072489Y-61511206D01*
X39124000Y-61500000D01*
X41500000Y-61500000D01*
X43563681Y-59436319D01*
X43625004Y-59402834D01*
X43651362Y-59400000D01*
X44800000Y-59400000D01*
X44900000Y-59300000D01*
X44900000Y-59242887D01*
X44919685Y-59175848D01*
X44920898Y-59173996D01*
X44960240Y-59115117D01*
X44975500Y-59038401D01*
X44975499Y-58364499D01*
X44995183Y-58297461D01*
X45047987Y-58251706D01*
X45099499Y-58240500D01*
X45200500Y-58240500D01*
X45267539Y-58260185D01*
G37*
%TD.AperFunction*%
%TD*%
%TA.AperFunction,Conductor*%
%TO.N,+9V*%
G36*
X62343039Y-53219685D02*
G01*
X62388794Y-53272489D01*
X62400000Y-53324000D01*
X62400000Y-55776000D01*
X62380315Y-55843039D01*
X62327511Y-55888794D01*
X62276000Y-55900000D01*
X60724000Y-55900000D01*
X60656961Y-55880315D01*
X60611206Y-55827511D01*
X60600000Y-55776000D01*
X60600000Y-53324000D01*
X60619685Y-53256961D01*
X60672489Y-53211206D01*
X60724000Y-53200000D01*
X62276000Y-53200000D01*
X62343039Y-53219685D01*
G37*
%TD.AperFunction*%
%TD*%
%TA.AperFunction,Conductor*%
%TO.N,+5V*%
G36*
X27359191Y-53818907D02*
G01*
X27395155Y-53868407D01*
X27400000Y-53899000D01*
X27400000Y-55953592D01*
X27399576Y-55960060D01*
X27394318Y-55999999D01*
X27394318Y-56000000D01*
X27399576Y-56039938D01*
X27400000Y-56046406D01*
X27400000Y-57500000D01*
X27945505Y-58045505D01*
X27973281Y-58100020D01*
X27974500Y-58115507D01*
X27974500Y-59595500D01*
X27955593Y-59653691D01*
X27906093Y-59689655D01*
X27875500Y-59694500D01*
X27599000Y-59694500D01*
X27566856Y-59697030D01*
X27555800Y-59698781D01*
X27540314Y-59700000D01*
X27400000Y-59700000D01*
X27400000Y-59700001D01*
X27400000Y-59727944D01*
X27381093Y-59786135D01*
X27375152Y-59792634D01*
X27375367Y-59792814D01*
X27370373Y-59798795D01*
X27323464Y-59877307D01*
X27323462Y-59877310D01*
X27304556Y-59935499D01*
X27294500Y-59998996D01*
X27294500Y-60295369D01*
X27294318Y-60298148D01*
X27294318Y-60301855D01*
X27294500Y-60304633D01*
X27294500Y-61095369D01*
X27294318Y-61098148D01*
X27294318Y-61101855D01*
X27294500Y-61104633D01*
X27294500Y-61263027D01*
X27294817Y-61271093D01*
X27296353Y-61290602D01*
X27296354Y-61290608D01*
X27318115Y-61367768D01*
X27318116Y-61367771D01*
X27318117Y-61367773D01*
X27345894Y-61422289D01*
X27383685Y-61474305D01*
X27665504Y-61756124D01*
X27693280Y-61810639D01*
X27694499Y-61826126D01*
X27694500Y-63001000D01*
X27675593Y-63059191D01*
X27626093Y-63095155D01*
X27595500Y-63100000D01*
X26646406Y-63100000D01*
X26639939Y-63099576D01*
X26600000Y-63094318D01*
X26560060Y-63099576D01*
X26553594Y-63100000D01*
X25700000Y-63100000D01*
X25700000Y-53899000D01*
X25718907Y-53840809D01*
X25768407Y-53804845D01*
X25799000Y-53800000D01*
X27301000Y-53800000D01*
X27359191Y-53818907D01*
G37*
%TD.AperFunction*%
%TD*%
%TA.AperFunction,Conductor*%
%TO.N,Net-(T2-PM)*%
G36*
X58643039Y-23519685D02*
G01*
X58688794Y-23572489D01*
X58700000Y-23624000D01*
X58700000Y-23872128D01*
X58699701Y-23878208D01*
X58699500Y-23880249D01*
X58699500Y-26275500D01*
X58679815Y-26342539D01*
X58627011Y-26388294D01*
X58575500Y-26399500D01*
X56630003Y-26399500D01*
X56623652Y-26400000D01*
X56024500Y-26400000D01*
X55957461Y-26380315D01*
X55911706Y-26327511D01*
X55900500Y-26276000D01*
X55900500Y-23880249D01*
X55900299Y-23878208D01*
X55900000Y-23872128D01*
X55900000Y-23624000D01*
X55919685Y-23556961D01*
X55972489Y-23511206D01*
X56024000Y-23500000D01*
X58576000Y-23500000D01*
X58643039Y-23519685D01*
G37*
%TD.AperFunction*%
%TD*%
%TA.AperFunction,Conductor*%
%TO.N,+5V*%
G36*
X25700000Y-63100000D02*
G01*
X20252190Y-63100000D01*
X20184069Y-63079998D01*
X20163095Y-63063095D01*
X20036905Y-62936905D01*
X20002879Y-62874593D01*
X20000000Y-62847810D01*
X20000000Y-62100000D01*
X19999999Y-62099998D01*
X19500001Y-61600000D01*
X19500000Y-61600000D01*
X16826000Y-61600000D01*
X16757879Y-61579998D01*
X16711386Y-61526342D01*
X16700000Y-61474000D01*
X16700000Y-59631500D01*
X16720002Y-59563379D01*
X16773658Y-59516886D01*
X16826000Y-59505500D01*
X16916281Y-59505500D01*
X16930092Y-59505000D01*
X17279918Y-59505000D01*
X17281738Y-59505065D01*
X17281739Y-59505066D01*
X17293719Y-59505500D01*
X17994483Y-59505500D01*
X17997258Y-59505682D01*
X18000000Y-59505682D01*
X18002742Y-59505682D01*
X18005517Y-59505500D01*
X18794483Y-59505500D01*
X18797258Y-59505682D01*
X18800000Y-59505682D01*
X18802742Y-59505682D01*
X18805517Y-59505500D01*
X19594483Y-59505500D01*
X19597258Y-59505682D01*
X19600000Y-59505682D01*
X19602742Y-59505682D01*
X19605517Y-59505500D01*
X20394483Y-59505500D01*
X20397258Y-59505682D01*
X20400000Y-59505682D01*
X20402742Y-59505682D01*
X20405517Y-59505500D01*
X21194483Y-59505500D01*
X21197258Y-59505682D01*
X21200000Y-59505682D01*
X21202742Y-59505682D01*
X21205517Y-59505500D01*
X21994483Y-59505500D01*
X21997258Y-59505682D01*
X22000000Y-59505682D01*
X22002742Y-59505682D01*
X22005517Y-59505500D01*
X22273994Y-59505500D01*
X22274000Y-59505500D01*
X22317681Y-59500804D01*
X22317687Y-59500802D01*
X22321795Y-59500361D01*
X22328534Y-59500000D01*
X25700000Y-59500000D01*
X25700000Y-63100000D01*
G37*
%TD.AperFunction*%
%TD*%
%TA.AperFunction,Conductor*%
%TO.N,+3V3*%
G36*
X19339394Y-30519685D02*
G01*
X19385149Y-30572489D01*
X19395574Y-30610116D01*
X19398499Y-30636073D01*
X19399610Y-30645926D01*
X19400000Y-30652873D01*
X19400000Y-32276000D01*
X19380315Y-32343039D01*
X19327511Y-32388794D01*
X19276000Y-32400000D01*
X17024000Y-32400000D01*
X16956961Y-32380315D01*
X16911206Y-32327511D01*
X16900000Y-32276000D01*
X16900000Y-30624000D01*
X16919685Y-30556961D01*
X16972489Y-30511206D01*
X17024000Y-30500000D01*
X19272355Y-30500000D01*
X19339394Y-30519685D01*
G37*
%TD.AperFunction*%
%TD*%
M02*
