%TF.GenerationSoftware,KiCad,Pcbnew,(6.0.11)*%
%TF.CreationDate,2023-03-05T15:16:25+01:00*%
%TF.ProjectId,OBSPro,4f425350-726f-42e6-9b69-6361645f7063,rev?*%
%TF.SameCoordinates,PX7270e00PY2255100*%
%TF.FileFunction,Soldermask,Bot*%
%TF.FilePolarity,Negative*%
%FSLAX46Y46*%
G04 Gerber Fmt 4.6, Leading zero omitted, Abs format (unit mm)*
G04 Created by KiCad (PCBNEW (6.0.11)) date 2023-03-05 15:16:25*
%MOMM*%
%LPD*%
G01*
G04 APERTURE LIST*
%ADD10C,3.200000*%
%ADD11R,1.700000X1.700000*%
%ADD12O,1.700000X1.700000*%
%ADD13C,0.600000*%
%ADD14O,0.900000X2.000000*%
%ADD15O,0.900000X1.700000*%
%ADD16O,2.500000X1.500000*%
%ADD17R,2.000000X2.000000*%
%ADD18C,2.000000*%
%ADD19C,1.000000*%
G04 APERTURE END LIST*
D10*
%TO.C,H3*%
X42000000Y-80000000D03*
%TD*%
D11*
%TO.C,J4*%
X10600000Y-22300000D03*
D12*
X10600000Y-19760000D03*
X10600000Y-17220000D03*
X10600000Y-14680000D03*
X10600000Y-12140000D03*
X10600000Y-9600000D03*
%TD*%
D13*
%TO.C,J1*%
X36290000Y-78197500D03*
X30510000Y-78197500D03*
D14*
X29075000Y-77697500D03*
D15*
X37725000Y-81877500D03*
D14*
X37725000Y-77697500D03*
D15*
X29075000Y-81877500D03*
%TD*%
D10*
%TO.C,H4*%
X65000000Y-37000000D03*
%TD*%
D16*
%TO.C,J2*%
X13600000Y-36100000D03*
X13600000Y-33560000D03*
X13600000Y-31020000D03*
X13600000Y-28480000D03*
X13600000Y-25940000D03*
%TD*%
D17*
%TO.C,LS1*%
X65400000Y-77700000D03*
D18*
X60400000Y-77700000D03*
%TD*%
D10*
%TO.C,H2*%
X4000000Y-4000000D03*
%TD*%
D16*
%TO.C,BT1*%
X13600000Y-63990000D03*
X13600000Y-61450000D03*
%TD*%
D17*
%TO.C,LS2*%
X65400000Y-6700000D03*
D18*
X60400000Y-6700000D03*
%TD*%
D10*
%TO.C,H1*%
X4000000Y-80000000D03*
%TD*%
D19*
%TO.C,J3*%
X22560000Y-79977491D03*
X14560000Y-79977491D03*
%TD*%
D17*
%TO.C,LS3*%
X53800000Y-77700000D03*
D18*
X48800000Y-77700000D03*
%TD*%
D17*
%TO.C,LS4*%
X53800000Y-6700000D03*
D18*
X48800000Y-6700000D03*
%TD*%
G36*
X23159191Y-80718907D02*
G01*
X23195155Y-80768407D01*
X23200000Y-80799000D01*
X23200000Y-83601000D01*
X23181093Y-83659191D01*
X23131593Y-83695155D01*
X23101000Y-83700000D01*
X13799000Y-83700000D01*
X13740809Y-83681093D01*
X13704845Y-83631593D01*
X13700000Y-83601000D01*
X13700000Y-80799000D01*
X13718907Y-80740809D01*
X13768407Y-80704845D01*
X13799000Y-80700000D01*
X23101000Y-80700000D01*
X23159191Y-80718907D01*
G37*
M02*
