%TF.GenerationSoftware,KiCad,Pcbnew,(6.0.11)*%
%TF.CreationDate,2023-03-05T15:16:25+01:00*%
%TF.ProjectId,OBSPro,4f425350-726f-42e6-9b69-6361645f7063,rev?*%
%TF.SameCoordinates,PX7270e00PY2255100*%
%TF.FileFunction,Copper,L4,Bot*%
%TF.FilePolarity,Positive*%
%FSLAX46Y46*%
G04 Gerber Fmt 4.6, Leading zero omitted, Abs format (unit mm)*
G04 Created by KiCad (PCBNEW (6.0.11)) date 2023-03-05 15:16:25*
%MOMM*%
%LPD*%
G01*
G04 APERTURE LIST*
%ADD10C,0.300000*%
%TA.AperFunction,NonConductor*%
%ADD11C,0.300000*%
%TD*%
%TA.AperFunction,ComponentPad*%
%ADD12R,1.700000X1.700000*%
%TD*%
%TA.AperFunction,ComponentPad*%
%ADD13O,1.700000X1.700000*%
%TD*%
%TA.AperFunction,ComponentPad*%
%ADD14O,0.900000X2.000000*%
%TD*%
%TA.AperFunction,ComponentPad*%
%ADD15O,0.900000X1.700000*%
%TD*%
%TA.AperFunction,ComponentPad*%
%ADD16O,2.500000X1.500000*%
%TD*%
%TA.AperFunction,ComponentPad*%
%ADD17R,2.000000X2.000000*%
%TD*%
%TA.AperFunction,ComponentPad*%
%ADD18C,2.000000*%
%TD*%
%TA.AperFunction,HeatsinkPad*%
%ADD19C,0.475000*%
%TD*%
%TA.AperFunction,ViaPad*%
%ADD20C,0.800000*%
%TD*%
%TA.AperFunction,Conductor*%
%ADD21C,0.400000*%
%TD*%
%TA.AperFunction,Conductor*%
%ADD22C,0.200000*%
%TD*%
G04 APERTURE END LIST*
D10*
D11*
X22485714Y-81878571D02*
X22485714Y-82878571D01*
X22128571Y-81307142D02*
X21771428Y-82378571D01*
X22700000Y-82378571D01*
D12*
%TO.P,J4,1,Pin_1*%
%TO.N,+3V3*%
X10600000Y-22300000D03*
D13*
%TO.P,J4,2,Pin_2*%
%TO.N,/Sensors/SWIM1*%
X10600000Y-19760000D03*
%TO.P,J4,3,Pin_3*%
%TO.N,/Sensors/SWIM2*%
X10600000Y-17220000D03*
%TO.P,J4,4,Pin_4*%
%TO.N,/Sensors/NRST1*%
X10600000Y-14680000D03*
%TO.P,J4,5,Pin_5*%
%TO.N,/Sensors/NRST2*%
X10600000Y-12140000D03*
%TO.P,J4,6,Pin_6*%
%TO.N,GND*%
X10600000Y-9600000D03*
%TD*%
D14*
%TO.P,J1,S1,SHIELD*%
%TO.N,GND*%
X29075000Y-77697500D03*
D15*
X37725000Y-81877500D03*
D14*
X37725000Y-77697500D03*
D15*
X29075000Y-81877500D03*
%TD*%
D16*
%TO.P,J2,1,Pin_1*%
%TO.N,+3V3*%
X13600000Y-36100000D03*
%TO.P,J2,2,Pin_2*%
%TO.N,/Controller/SCL*%
X13600000Y-33560000D03*
%TO.P,J2,3,Pin_3*%
%TO.N,/Controller/BUTTON*%
X13600000Y-31020000D03*
%TO.P,J2,4,Pin_4*%
%TO.N,GND*%
X13600000Y-28480000D03*
%TO.P,J2,5,Pin_5*%
%TO.N,/Controller/SDA*%
X13600000Y-25940000D03*
%TD*%
D17*
%TO.P,LS1,1,1*%
%TO.N,Net-(LS1-Pad1)*%
X65400000Y-77700000D03*
D18*
%TO.P,LS1,2,2*%
%TO.N,Net-(LS1-Pad2)*%
X60400000Y-77700000D03*
%TD*%
D16*
%TO.P,BT1,1,+*%
%TO.N,+BATT*%
X13600000Y-63990000D03*
%TO.P,BT1,2,-*%
%TO.N,GND*%
X13600000Y-61450000D03*
%TD*%
D19*
%TO.P,U5,39,GND*%
%TO.N,GND*%
X8905000Y-47737500D03*
X10430000Y-47737500D03*
X10430000Y-49262500D03*
X8142500Y-50025000D03*
X7380000Y-49262500D03*
X9667500Y-46975000D03*
X9667500Y-48500000D03*
X9667500Y-50025000D03*
X8142500Y-46975000D03*
X8142500Y-48500000D03*
X7380000Y-47737500D03*
X8905000Y-49262500D03*
%TD*%
D17*
%TO.P,LS2,1,1*%
%TO.N,Net-(LS2-Pad1)*%
X65400000Y-6700000D03*
D18*
%TO.P,LS2,2,2*%
%TO.N,GND*%
X60400000Y-6700000D03*
%TD*%
D17*
%TO.P,LS3,1,1*%
%TO.N,Net-(LS3-Pad1)*%
X53800000Y-77700000D03*
D18*
%TO.P,LS3,2,2*%
%TO.N,Net-(LS3-Pad2)*%
X48800000Y-77700000D03*
%TD*%
D17*
%TO.P,LS4,1,1*%
%TO.N,Net-(LS4-Pad1)*%
X53800000Y-6700000D03*
D18*
%TO.P,LS4,2,2*%
%TO.N,GND*%
X48800000Y-6700000D03*
%TD*%
D20*
%TO.N,+USB*%
X31600000Y-78300000D03*
X35200000Y-78300000D03*
%TO.N,GND*%
X37900000Y-56000000D03*
X29800000Y-54200000D03*
X25500000Y-27600000D03*
X29300000Y-53400000D03*
X29000000Y-62600000D03*
X53100000Y-58200000D03*
X39100000Y-59600000D03*
X47400000Y-45400000D03*
X37400000Y-50700000D03*
X61300000Y-70500000D03*
X29000000Y-54200000D03*
X13000000Y-79700000D03*
X38800000Y-44000000D03*
X23700000Y-64200000D03*
X11750000Y-71150000D03*
X23700000Y-63300000D03*
X40700000Y-52400000D03*
X25500000Y-24500000D03*
X65300000Y-71000000D03*
X34900000Y-55300000D03*
X50600000Y-32600000D03*
X61700000Y-19800000D03*
X43900000Y-34600000D03*
X39900000Y-53200000D03*
X27700000Y-27600000D03*
X43800000Y-67100000D03*
X50600000Y-45400000D03*
X38300000Y-59600000D03*
X54100000Y-66600000D03*
X61300000Y-13200000D03*
X66400000Y-55800000D03*
X23700000Y-61500000D03*
X65900000Y-27000000D03*
X29000000Y-59400000D03*
X52300000Y-45400000D03*
X29700000Y-75900000D03*
X49700000Y-70500000D03*
X29000000Y-60200000D03*
X38900000Y-76600000D03*
X39900000Y-54800000D03*
X27700000Y-24500000D03*
X23700000Y-65100000D03*
X54800000Y-55800000D03*
X48100000Y-58200000D03*
X29100000Y-39000000D03*
X1500000Y-55200000D03*
X33700000Y-65100000D03*
X53700000Y-71000000D03*
X39900000Y-52400000D03*
X23300000Y-52000000D03*
X38400000Y-33200000D03*
X23700000Y-62400000D03*
X39300000Y-55400000D03*
X37200000Y-67600000D03*
X48900000Y-45400000D03*
X29300000Y-51800000D03*
X50100000Y-19800000D03*
X63900000Y-45400000D03*
X29000000Y-61000000D03*
X32900000Y-48000000D03*
X29300000Y-52600000D03*
X61100000Y-51400000D03*
X65700000Y-66600000D03*
X59000000Y-45400000D03*
X32300000Y-51400000D03*
X39900000Y-54000000D03*
X16200000Y-67700000D03*
X24000000Y-44300000D03*
X29800000Y-57800000D03*
X38700000Y-56000000D03*
X49700000Y-13200000D03*
X60400000Y-21800000D03*
X35040110Y-47099817D03*
X46500000Y-64200000D03*
X42800000Y-76100000D03*
X63100000Y-66600000D03*
X26400000Y-71200000D03*
X56700000Y-39700000D03*
X21700000Y-52000000D03*
X17900000Y-53500000D03*
X54300000Y-27000000D03*
X1500000Y-40600000D03*
X29000000Y-61800000D03*
X48800000Y-21800000D03*
X51500000Y-66600000D03*
X28200000Y-57800000D03*
X50600000Y-31100000D03*
X22200000Y-67500000D03*
X26100000Y-79700000D03*
X62200000Y-45400000D03*
X18700000Y-37075500D03*
X24400000Y-40400000D03*
X59700000Y-58200000D03*
X37200000Y-72200000D03*
X26100000Y-48900000D03*
X29000000Y-57800000D03*
X58100000Y-33500000D03*
X64700000Y-58200000D03*
X33800000Y-46600000D03*
X36300000Y-56000000D03*
X27844622Y-42444622D03*
X49500000Y-51400000D03*
X60500000Y-45400000D03*
X58100000Y-64200000D03*
X44000000Y-76700000D03*
X39900000Y-34600000D03*
X29100000Y-37500000D03*
X28200000Y-54200000D03*
X22500000Y-52000000D03*
X40700000Y-76200000D03*
X29000000Y-58600000D03*
X1000000Y-59400000D03*
X39900000Y-59600000D03*
X3000000Y-65800000D03*
X41800000Y-67600000D03*
X30800000Y-73000000D03*
X41100000Y-62000000D03*
X36300000Y-59600000D03*
%TO.N,+BATT*%
X24900000Y-41500000D03*
X24500000Y-54500000D03*
X25100000Y-50900000D03*
X24500000Y-53700000D03*
X24300000Y-50900000D03*
%TO.N,+5V*%
X44600000Y-55200000D03*
X25900000Y-60500000D03*
X44600000Y-53600000D03*
X26700000Y-64900000D03*
X9300000Y-68400000D03*
X44600000Y-56000000D03*
X25900000Y-58900000D03*
X44600000Y-54400000D03*
X25900000Y-59700000D03*
X25800000Y-44300000D03*
X26700000Y-64100000D03*
X55400000Y-71200000D03*
X67000000Y-71200000D03*
%TO.N,+USB*%
X34000000Y-58400000D03*
X32600000Y-59700000D03*
X32600000Y-58900000D03*
X31900000Y-58900000D03*
X31000000Y-75900000D03*
X27925000Y-74675000D03*
X42100000Y-72800000D03*
X33200000Y-58400000D03*
X36000000Y-75900000D03*
%TO.N,+3V3*%
X38400000Y-31200000D03*
X36900000Y-62000000D03*
X15900000Y-29100000D03*
X18400000Y-67700000D03*
X33400000Y-40000000D03*
X61300000Y-38800000D03*
X57900000Y-31100000D03*
X37700000Y-62000000D03*
X52300000Y-39600000D03*
X65600000Y-45600000D03*
X38500000Y-63600000D03*
X46500000Y-48100000D03*
X9287500Y-66800000D03*
X44800000Y-72700000D03*
X58100000Y-48100000D03*
X41400000Y-28800000D03*
X2800000Y-55200000D03*
X36600000Y-54800000D03*
X47100000Y-38600000D03*
X36100000Y-62000000D03*
X6700000Y-58400000D03*
X54000000Y-45600000D03*
X38500000Y-62800000D03*
X38500000Y-62000000D03*
%TO.N,/Sensors/Vref*%
X49400000Y-32600000D03*
X58500000Y-32200000D03*
%TO.N,/Sensors/Ultrasonic1/V+*%
X65000000Y-23800000D03*
X65700000Y-58200000D03*
%TO.N,/Sensors/Ultrasonic1/V-*%
X60700000Y-58200000D03*
X60400000Y-19800000D03*
%TO.N,/Sensors/Ultrasonic1/SIGOUT*%
X54900000Y-37100000D03*
X61000000Y-29600000D03*
%TO.N,/Sensors/Ultrasonic2/V+*%
X53400000Y-23800000D03*
X54100000Y-58200000D03*
%TO.N,/Sensors/Ultrasonic2/V-*%
X49100000Y-58200000D03*
X48800000Y-19800000D03*
%TO.N,/Sensors/Ultrasonic2/SIGOUT*%
X53400000Y-36100000D03*
X49400000Y-29600000D03*
%TO.N,USB_DP*%
X32900000Y-75800000D03*
X34400000Y-75800000D03*
%TO.N,/Controller/SCL*%
X4100000Y-34900000D03*
%TO.N,/Controller/BUTTON*%
X10400000Y-36700000D03*
X19400000Y-38500000D03*
%TO.N,/Controller/SD_CMD*%
X2800000Y-41200000D03*
X19400000Y-70600000D03*
%TO.N,/Controller/SD_CLK*%
X11700000Y-40800000D03*
X17300000Y-67700000D03*
X13000000Y-51300000D03*
X13100000Y-42000000D03*
%TO.N,/Controller/SD_DAT0*%
X9200000Y-43400000D03*
X15100000Y-67700000D03*
%TO.N,/Sensors/SWIM1*%
X63700000Y-54500000D03*
X8600000Y-27200000D03*
%TO.N,/Sensors/SWIM2*%
X7900000Y-29100000D03*
X52000000Y-52600000D03*
%TO.N,/Sensors/NRST1*%
X56600000Y-53700000D03*
X7215500Y-32300000D03*
%TO.N,/Sensors/NRST2*%
X6500000Y-34800000D03*
X48300000Y-51600500D03*
%TO.N,Net-(LS1-Pad1)*%
X64400000Y-66600000D03*
%TO.N,Net-(LS1-Pad2)*%
X61700000Y-65200000D03*
%TO.N,Net-(LS3-Pad1)*%
X52800000Y-66600000D03*
%TO.N,Net-(LS3-Pad2)*%
X50100000Y-65200000D03*
%TO.N,/Controller/EN*%
X4000000Y-59700000D03*
X4000000Y-70800000D03*
%TO.N,/Controller/~USB_DTR*%
X4600000Y-75400000D03*
X8600000Y-72700000D03*
X32700000Y-71800000D03*
%TO.N,/Controller/GPIO0*%
X10400000Y-58600000D03*
X17900000Y-40700000D03*
X11604502Y-48087618D03*
X12800000Y-43800000D03*
%TO.N,/Controller/USB_RX*%
X5400000Y-42500000D03*
X32700000Y-70600000D03*
%TO.N,/Controller/USB_TX*%
X32700000Y-69100000D03*
X6700000Y-41300000D03*
%TO.N,/Controller/BTN_READ*%
X23900000Y-47900000D03*
X17700000Y-42100000D03*
%TO.N,/Sensors/Ultrasonic1/MUTE*%
X64900000Y-51600000D03*
X59700000Y-34100000D03*
%TO.N,/Sensors/Ultrasonic2/MUTE*%
X47100000Y-31500000D03*
X53300000Y-51600000D03*
%TO.N,TRIG2*%
X49200000Y-53600000D03*
X16600000Y-51100000D03*
%TO.N,ECHO2*%
X49800000Y-54500000D03*
X17700000Y-52300000D03*
%TO.N,TRIG1*%
X17600000Y-43300000D03*
X60800000Y-53600000D03*
%TO.N,ECHO1*%
X61400000Y-54500000D03*
X16700000Y-40500000D03*
%TO.N,/Controller/SD_CD*%
X20600000Y-70600000D03*
X9250000Y-44550000D03*
%TO.N,/Sensors/Ultrasonic1/TXN*%
X58200000Y-56600000D03*
X59300000Y-66500000D03*
%TO.N,/Sensors/Ultrasonic1/TXP*%
X60200000Y-57200000D03*
X60600000Y-66500000D03*
%TO.N,/Sensors/Ultrasonic2/TXN*%
X47700000Y-66500000D03*
X46600000Y-56600000D03*
%TO.N,/Sensors/Ultrasonic2/TXP*%
X49000000Y-66500000D03*
X48600000Y-57200000D03*
%TO.N,/Power Supply/SW*%
X42200000Y-54900000D03*
X43000000Y-54900000D03*
X42900000Y-59200000D03*
X42200000Y-54100000D03*
X42800000Y-60500000D03*
X42400000Y-61200000D03*
X43000000Y-54100000D03*
X42400000Y-59800000D03*
%TO.N,Net-(R7-Pad2)*%
X43500000Y-49200000D03*
X37300000Y-53000000D03*
%TD*%
D21*
%TO.N,+BATT*%
X24900000Y-41500000D02*
X24900000Y-50700000D01*
X24900000Y-50700000D02*
X25100000Y-50900000D01*
D22*
%TO.N,/Sensors/Vref*%
X49400000Y-32600000D02*
X50200000Y-31800000D01*
X58100000Y-31800000D02*
X58500000Y-32200000D01*
X50200000Y-31800000D02*
X58100000Y-31800000D01*
%TO.N,/Sensors/Ultrasonic1/SIGOUT*%
X54900000Y-37100000D02*
X57600000Y-34400000D01*
X58400000Y-34400000D02*
X61000000Y-31800000D01*
X61000000Y-31800000D02*
X61000000Y-29600000D01*
X57600000Y-34400000D02*
X58400000Y-34400000D01*
%TO.N,/Sensors/Ultrasonic2/SIGOUT*%
X48300000Y-32300000D02*
X48300000Y-30700000D01*
X48300000Y-34100000D02*
X48300000Y-32300000D01*
X48300000Y-30700000D02*
X49400000Y-29600000D01*
X50300000Y-36100000D02*
X48300000Y-34100000D01*
X53400000Y-36100000D02*
X50300000Y-36100000D01*
%TO.N,USB_DP*%
X32900000Y-75800000D02*
X34400000Y-75800000D01*
%TO.N,/Controller/SCL*%
X5440000Y-33560000D02*
X4100000Y-34900000D01*
X13500000Y-33560000D02*
X5440000Y-33560000D01*
%TO.N,/Controller/BUTTON*%
X18800000Y-37900000D02*
X11600000Y-37900000D01*
X19400000Y-38500000D02*
X18800000Y-37900000D01*
X11600000Y-37900000D02*
X10400000Y-36700000D01*
%TO.N,/Controller/SD_CMD*%
X3800000Y-51600000D02*
X2800000Y-50600000D01*
X8600000Y-56400000D02*
X3800000Y-51600000D01*
X11500000Y-67600000D02*
X8600000Y-64700000D01*
X8600000Y-64700000D02*
X8600000Y-58500000D01*
X19400000Y-70600000D02*
X14500000Y-70600000D01*
X8600000Y-58500000D02*
X8600000Y-56400000D01*
X14500000Y-70600000D02*
X11500000Y-67600000D01*
X2800000Y-50600000D02*
X2800000Y-41200000D01*
%TO.N,/Controller/SD_CLK*%
X13100000Y-42000000D02*
X12900000Y-42000000D01*
X17300000Y-58300000D02*
X17300000Y-67700000D01*
X13000000Y-54000000D02*
X17300000Y-58300000D01*
X12900000Y-42000000D02*
X11700000Y-40800000D01*
X13000000Y-51300000D02*
X13000000Y-54000000D01*
%TO.N,/Controller/SD_DAT0*%
X15100000Y-67700000D02*
X16000000Y-66800000D01*
X16000000Y-59600000D02*
X12300000Y-55900000D01*
X12300000Y-48382070D02*
X12304502Y-48377568D01*
X16000000Y-66800000D02*
X16000000Y-59600000D01*
X12304502Y-48377568D02*
X12304502Y-46504502D01*
X12304502Y-46504502D02*
X9200000Y-43400000D01*
X12300000Y-55900000D02*
X12300000Y-48382070D01*
%TO.N,/Sensors/SWIM1*%
X55000000Y-52300000D02*
X56000000Y-51300000D01*
X59900000Y-51300000D02*
X60800000Y-52200000D01*
X61500000Y-52200000D02*
X63700000Y-54400000D01*
X60800000Y-52200000D02*
X61500000Y-52200000D01*
X18350000Y-29750000D02*
X15800000Y-27200000D01*
X8600000Y-27200000D02*
X15800000Y-27200000D01*
X30250000Y-29750000D02*
X52800000Y-52300000D01*
X63700000Y-54400000D02*
X63700000Y-54500000D01*
X56000000Y-51300000D02*
X59900000Y-51300000D01*
X30250000Y-29750000D02*
X18350000Y-29750000D01*
X52800000Y-52300000D02*
X55000000Y-52300000D01*
%TO.N,/Sensors/SWIM2*%
X52100000Y-52500000D02*
X52000000Y-52600000D01*
X8500000Y-29700000D02*
X15100000Y-29700000D01*
X15900000Y-30500000D02*
X30300000Y-30500000D01*
X7900000Y-29100000D02*
X8500000Y-29700000D01*
X30300000Y-30500000D02*
X52100000Y-52300000D01*
X15100000Y-29700000D02*
X15900000Y-30500000D01*
X52100000Y-52300000D02*
X52100000Y-52500000D01*
%TO.N,/Sensors/NRST1*%
X49500000Y-50400000D02*
X51200000Y-52100000D01*
X51200000Y-52900000D02*
X51600000Y-53300000D01*
X51200000Y-52100000D02*
X51200000Y-52900000D01*
X47800000Y-50400000D02*
X49500000Y-50400000D01*
X51600000Y-53300000D02*
X56200000Y-53300000D01*
X56200000Y-53300000D02*
X56600000Y-53700000D01*
X7215500Y-32300000D02*
X29700000Y-32300000D01*
X29700000Y-32300000D02*
X47800000Y-50400000D01*
%TO.N,/Sensors/NRST2*%
X48300000Y-51600500D02*
X48200500Y-51600500D01*
X48200500Y-51600500D02*
X31400000Y-34800000D01*
X31400000Y-34800000D02*
X6500000Y-34800000D01*
%TO.N,Net-(LS1-Pad1)*%
X64400000Y-66600000D02*
X64400000Y-71800000D01*
X64400000Y-71800000D02*
X65400000Y-72800000D01*
X65400000Y-72800000D02*
X65400000Y-77700000D01*
%TO.N,Net-(LS1-Pad2)*%
X62300000Y-65800000D02*
X62300000Y-75800000D01*
X61700000Y-65200000D02*
X62300000Y-65800000D01*
X62300000Y-75800000D02*
X60400000Y-77700000D01*
%TO.N,Net-(LS3-Pad1)*%
X53800000Y-72800000D02*
X53800000Y-77700000D01*
X52800000Y-66600000D02*
X52800000Y-71800000D01*
X52800000Y-71800000D02*
X53800000Y-72800000D01*
%TO.N,Net-(LS3-Pad2)*%
X50100000Y-65200000D02*
X50700000Y-65800000D01*
X50700000Y-75800000D02*
X48800000Y-77700000D01*
X50700000Y-65800000D02*
X50700000Y-75800000D01*
%TO.N,/Controller/EN*%
X4000000Y-70800000D02*
X4000000Y-59700000D01*
%TO.N,/Controller/~USB_DTR*%
X4600000Y-75400000D02*
X5900000Y-75400000D01*
X32700000Y-71800000D02*
X32500000Y-72000000D01*
X32500000Y-72000000D02*
X9300000Y-72000000D01*
X9300000Y-72000000D02*
X8600000Y-72700000D01*
X5900000Y-75400000D02*
X8600000Y-72700000D01*
%TO.N,/Controller/GPIO0*%
X12800000Y-43800000D02*
X15200000Y-41400000D01*
X15200000Y-41400000D02*
X17200000Y-41400000D01*
X11604502Y-48087618D02*
X11600000Y-48092120D01*
X10400000Y-52500000D02*
X10400000Y-58600000D01*
X17200000Y-41400000D02*
X17900000Y-40700000D01*
X11600000Y-48092120D02*
X11600000Y-51300000D01*
X11600000Y-51300000D02*
X10400000Y-52500000D01*
%TO.N,/Controller/USB_RX*%
X31100000Y-69000000D02*
X31100000Y-67500000D01*
X14600000Y-47700000D02*
X9400000Y-42500000D01*
X19300000Y-55700000D02*
X16100000Y-55700000D01*
X9400000Y-42500000D02*
X5400000Y-42500000D01*
X31100000Y-67500000D02*
X19300000Y-55700000D01*
X14600000Y-54200000D02*
X14600000Y-47700000D01*
X32700000Y-70600000D02*
X31100000Y-69000000D01*
X16100000Y-55700000D02*
X14600000Y-54200000D01*
%TO.N,/Controller/USB_TX*%
X19465685Y-55300000D02*
X16400000Y-55300000D01*
X32700000Y-68534314D02*
X19465685Y-55300000D01*
X15000000Y-53900000D02*
X15000000Y-47200000D01*
X9100000Y-41300000D02*
X6700000Y-41300000D01*
X16400000Y-55300000D02*
X15000000Y-53900000D01*
X15000000Y-47200000D02*
X9100000Y-41300000D01*
X32700000Y-69100000D02*
X32700000Y-68534314D01*
%TO.N,/Controller/BTN_READ*%
X23900000Y-47600000D02*
X18400000Y-42100000D01*
X23900000Y-47900000D02*
X23900000Y-47600000D01*
X18400000Y-42100000D02*
X17700000Y-42100000D01*
%TO.N,/Sensors/Ultrasonic1/MUTE*%
X59700000Y-38900000D02*
X61800000Y-41000000D01*
X63000000Y-49700000D02*
X64900000Y-51600000D01*
X59700000Y-34100000D02*
X59700000Y-38900000D01*
X63000000Y-42200000D02*
X63000000Y-46400000D01*
X61800000Y-41000000D02*
X63000000Y-42200000D01*
X63000000Y-46400000D02*
X63000000Y-49700000D01*
%TO.N,/Sensors/Ultrasonic2/MUTE*%
X48100000Y-46400000D02*
X48100000Y-42100000D01*
X45900000Y-32700000D02*
X47100000Y-31500000D01*
X53300000Y-51600000D02*
X48100000Y-46400000D01*
X48100000Y-42100000D02*
X45900000Y-39900000D01*
X45900000Y-39900000D02*
X45900000Y-32700000D01*
%TO.N,TRIG2*%
X44800000Y-57200000D02*
X45500000Y-56500000D01*
X31800000Y-55900000D02*
X33200000Y-55900000D01*
X34500000Y-57200000D02*
X44800000Y-57200000D01*
X45500000Y-55300000D02*
X47200000Y-53600000D01*
X16600000Y-53400000D02*
X17400000Y-54200000D01*
X34100000Y-56800000D02*
X34500000Y-57200000D01*
X20700000Y-54400000D02*
X22000000Y-55700000D01*
X16600000Y-51100000D02*
X16600000Y-53400000D01*
X22000000Y-55700000D02*
X22200000Y-55900000D01*
X17400000Y-54200000D02*
X17600000Y-54400000D01*
X47200000Y-53600000D02*
X49200000Y-53600000D01*
X17600000Y-54400000D02*
X19300000Y-54400000D01*
X19300000Y-54400000D02*
X20700000Y-54400000D01*
X45500000Y-56500000D02*
X45500000Y-55300000D01*
X34000000Y-56700000D02*
X34100000Y-56800000D01*
X22200000Y-55900000D02*
X31800000Y-55900000D01*
X33200000Y-55900000D02*
X34000000Y-56700000D01*
%TO.N,ECHO2*%
X17700000Y-52300000D02*
X19400000Y-52300000D01*
X50100000Y-53200000D02*
X50100000Y-54200000D01*
X38700000Y-53100000D02*
X38700000Y-52400000D01*
X43300000Y-52700000D02*
X49600000Y-52700000D01*
X31000000Y-55200000D02*
X32100000Y-54100000D01*
X39700000Y-51400000D02*
X42000000Y-51400000D01*
X32100000Y-54100000D02*
X37700000Y-54100000D01*
X38700000Y-52400000D02*
X39700000Y-51400000D01*
X37700000Y-54100000D02*
X38700000Y-53100000D01*
X50100000Y-54200000D02*
X49800000Y-54500000D01*
X42000000Y-51400000D02*
X43300000Y-52700000D01*
X22300000Y-55200000D02*
X31000000Y-55200000D01*
X19400000Y-52300000D02*
X22300000Y-55200000D01*
X49600000Y-52700000D02*
X50100000Y-53200000D01*
%TO.N,TRIG1*%
X45000000Y-57600000D02*
X45900000Y-56700000D01*
X16600000Y-43300000D02*
X15600000Y-44300000D01*
X46600000Y-55600000D02*
X49400000Y-55600000D01*
X21700000Y-56500000D02*
X30800000Y-56500000D01*
X49400000Y-55600000D02*
X51000000Y-57200000D01*
X60100000Y-53600000D02*
X60800000Y-53600000D01*
X51000000Y-57200000D02*
X56500000Y-57200000D01*
X45900000Y-56300000D02*
X46600000Y-55600000D01*
X45900000Y-56700000D02*
X45900000Y-56300000D01*
X17600000Y-43300000D02*
X16600000Y-43300000D01*
X30800000Y-56500000D02*
X31900000Y-57600000D01*
X15600000Y-53400000D02*
X17050000Y-54850000D01*
X15600000Y-44300000D02*
X15600000Y-53400000D01*
X20050000Y-54850000D02*
X21700000Y-56500000D01*
X56500000Y-57200000D02*
X60100000Y-53600000D01*
X17050000Y-54850000D02*
X20050000Y-54850000D01*
X31900000Y-57600000D02*
X45000000Y-57600000D01*
%TO.N,ECHO1*%
X44200000Y-51300000D02*
X44200000Y-48600000D01*
X50600000Y-52700000D02*
X50200000Y-52300000D01*
X17500000Y-39700000D02*
X16700000Y-40500000D01*
X61400000Y-54500000D02*
X61700000Y-54200000D01*
X61700000Y-54200000D02*
X61700000Y-53200000D01*
X61200000Y-52700000D02*
X58800000Y-52700000D01*
X51400000Y-53800000D02*
X50600000Y-53000000D01*
X58800000Y-52700000D02*
X57000000Y-54500000D01*
X57000000Y-54500000D02*
X55800000Y-54500000D01*
X55800000Y-54500000D02*
X55100000Y-53800000D01*
X50200000Y-52300000D02*
X45200000Y-52300000D01*
X45200000Y-52300000D02*
X44200000Y-51300000D01*
X44200000Y-48600000D02*
X43400000Y-47800000D01*
X61700000Y-53200000D02*
X61200000Y-52700000D01*
X50600000Y-53000000D02*
X50600000Y-52700000D01*
X30600000Y-39700000D02*
X17500000Y-39700000D01*
X55100000Y-53800000D02*
X51400000Y-53800000D01*
X43400000Y-47800000D02*
X38700000Y-47800000D01*
X38700000Y-47800000D02*
X30600000Y-39700000D01*
%TO.N,/Controller/SD_CD*%
X9250000Y-44550000D02*
X7550000Y-44550000D01*
X7550000Y-44550000D02*
X6100000Y-46000000D01*
X20600000Y-70000000D02*
X20600000Y-70600000D01*
X19900000Y-69300000D02*
X20600000Y-70000000D01*
X6100000Y-46000000D02*
X6100000Y-52400000D01*
X6100000Y-52400000D02*
X9300000Y-55600000D01*
X9300000Y-63900000D02*
X14700000Y-69300000D01*
X14700000Y-69300000D02*
X19900000Y-69300000D01*
X9300000Y-55600000D02*
X9300000Y-63900000D01*
%TO.N,/Sensors/Ultrasonic1/TXN*%
X58200000Y-60700000D02*
X59300000Y-61800000D01*
X58200000Y-56600000D02*
X58200000Y-60700000D01*
X59300000Y-61800000D02*
X59300000Y-66500000D01*
%TO.N,/Sensors/Ultrasonic1/TXP*%
X60200000Y-57200000D02*
X59710050Y-57200000D01*
X58800000Y-60100000D02*
X60600000Y-61900000D01*
X59710050Y-57200000D02*
X58800000Y-58110050D01*
X60600000Y-61900000D02*
X60600000Y-66500000D01*
X58800000Y-58110050D02*
X58800000Y-60100000D01*
%TO.N,/Sensors/Ultrasonic2/TXN*%
X46600000Y-60700000D02*
X47700000Y-61800000D01*
X47700000Y-61800000D02*
X47700000Y-66500000D01*
X46600000Y-56600000D02*
X46600000Y-60700000D01*
%TO.N,/Sensors/Ultrasonic2/TXP*%
X49000000Y-61900000D02*
X49000000Y-66500000D01*
X47200000Y-60100000D02*
X49000000Y-61900000D01*
X48110050Y-57200000D02*
X47200000Y-58110050D01*
X48600000Y-57200000D02*
X48110050Y-57200000D01*
X47200000Y-58110050D02*
X47200000Y-60100000D01*
%TO.N,Net-(R7-Pad2)*%
X42600000Y-50100000D02*
X43500000Y-49200000D01*
X37300000Y-53000000D02*
X40200000Y-50100000D01*
X40200000Y-50100000D02*
X42600000Y-50100000D01*
%TD*%
M02*
