%TF.GenerationSoftware,KiCad,Pcbnew,7.0.9*%
%TF.CreationDate,2024-01-04T13:11:27+01:00*%
%TF.ProjectId,OBSPro,4f425350-726f-42e6-9b69-6361645f7063,rev?*%
%TF.SameCoordinates,PX7270e00PY2255100*%
%TF.FileFunction,Soldermask,Top*%
%TF.FilePolarity,Negative*%
%FSLAX46Y46*%
G04 Gerber Fmt 4.6, Leading zero omitted, Abs format (unit mm)*
G04 Created by KiCad (PCBNEW 7.0.9) date 2024-01-04 13:11:27*
%MOMM*%
%LPD*%
G01*
G04 APERTURE LIST*
G04 Aperture macros list*
%AMRoundRect*
0 Rectangle with rounded corners*
0 $1 Rounding radius*
0 $2 $3 $4 $5 $6 $7 $8 $9 X,Y pos of 4 corners*
0 Add a 4 corners polygon primitive as box body*
4,1,4,$2,$3,$4,$5,$6,$7,$8,$9,$2,$3,0*
0 Add four circle primitives for the rounded corners*
1,1,$1+$1,$2,$3*
1,1,$1+$1,$4,$5*
1,1,$1+$1,$6,$7*
1,1,$1+$1,$8,$9*
0 Add four rect primitives between the rounded corners*
20,1,$1+$1,$2,$3,$4,$5,0*
20,1,$1+$1,$4,$5,$6,$7,0*
20,1,$1+$1,$6,$7,$8,$9,0*
20,1,$1+$1,$8,$9,$2,$3,0*%
G04 Aperture macros list end*
%ADD10RoundRect,0.218750X-0.218750X-0.256250X0.218750X-0.256250X0.218750X0.256250X-0.218750X0.256250X0*%
%ADD11RoundRect,0.225000X0.250000X-0.225000X0.250000X0.225000X-0.250000X0.225000X-0.250000X-0.225000X0*%
%ADD12R,1.000000X1.000000*%
%ADD13R,3.600000X1.150000*%
%ADD14RoundRect,0.200000X-0.200000X-0.275000X0.200000X-0.275000X0.200000X0.275000X-0.200000X0.275000X0*%
%ADD15RoundRect,0.250000X-0.625000X0.312500X-0.625000X-0.312500X0.625000X-0.312500X0.625000X0.312500X0*%
%ADD16RoundRect,0.150000X-0.150000X0.825000X-0.150000X-0.825000X0.150000X-0.825000X0.150000X0.825000X0*%
%ADD17R,2.300000X2.300000*%
%ADD18RoundRect,0.200000X0.200000X0.275000X-0.200000X0.275000X-0.200000X-0.275000X0.200000X-0.275000X0*%
%ADD19C,3.200000*%
%ADD20RoundRect,0.350000X1.150000X0.350000X-1.150000X0.350000X-1.150000X-0.350000X1.150000X-0.350000X0*%
%ADD21RoundRect,0.225000X-0.250000X0.225000X-0.250000X-0.225000X0.250000X-0.225000X0.250000X0.225000X0*%
%ADD22RoundRect,0.225000X-0.225000X-0.250000X0.225000X-0.250000X0.225000X0.250000X-0.225000X0.250000X0*%
%ADD23RoundRect,0.250000X-0.650000X0.325000X-0.650000X-0.325000X0.650000X-0.325000X0.650000X0.325000X0*%
%ADD24RoundRect,0.250000X0.650000X-0.325000X0.650000X0.325000X-0.650000X0.325000X-0.650000X-0.325000X0*%
%ADD25RoundRect,0.250000X0.625000X-0.312500X0.625000X0.312500X-0.625000X0.312500X-0.625000X-0.312500X0*%
%ADD26RoundRect,0.100000X0.100000X-0.637500X0.100000X0.637500X-0.100000X0.637500X-0.100000X-0.637500X0*%
%ADD27RoundRect,0.250000X-0.300000X-0.300000X0.300000X-0.300000X0.300000X0.300000X-0.300000X0.300000X0*%
%ADD28RoundRect,0.225000X0.225000X0.250000X-0.225000X0.250000X-0.225000X-0.250000X0.225000X-0.250000X0*%
%ADD29RoundRect,0.150000X-0.587500X-0.150000X0.587500X-0.150000X0.587500X0.150000X-0.587500X0.150000X0*%
%ADD30RoundRect,0.200000X0.275000X-0.200000X0.275000X0.200000X-0.275000X0.200000X-0.275000X-0.200000X0*%
%ADD31RoundRect,0.250000X0.300000X0.300000X-0.300000X0.300000X-0.300000X-0.300000X0.300000X-0.300000X0*%
%ADD32RoundRect,0.200000X-0.275000X0.200000X-0.275000X-0.200000X0.275000X-0.200000X0.275000X0.200000X0*%
%ADD33RoundRect,0.150000X0.587500X0.150000X-0.587500X0.150000X-0.587500X-0.150000X0.587500X-0.150000X0*%
%ADD34RoundRect,0.250000X-0.625000X0.350000X-0.625000X-0.350000X0.625000X-0.350000X0.625000X0.350000X0*%
%ADD35O,1.750000X1.200000*%
%ADD36RoundRect,0.175000X0.175000X-0.725000X0.175000X0.725000X-0.175000X0.725000X-0.175000X-0.725000X0*%
%ADD37RoundRect,0.200000X0.200000X-0.700000X0.200000X0.700000X-0.200000X0.700000X-0.200000X-0.700000X0*%
%ADD38RoundRect,0.250000X-1.400000X-1.000000X1.400000X-1.000000X1.400000X1.000000X-1.400000X1.000000X0*%
%ADD39R,1.150000X3.600000*%
%ADD40RoundRect,0.150000X0.512500X0.150000X-0.512500X0.150000X-0.512500X-0.150000X0.512500X-0.150000X0*%
%ADD41R,0.600000X1.140000*%
%ADD42R,0.300000X1.140000*%
%ADD43O,0.900000X2.000000*%
%ADD44O,0.900000X1.700000*%
%ADD45RoundRect,0.218750X0.256250X-0.218750X0.256250X0.218750X-0.256250X0.218750X-0.256250X-0.218750X0*%
%ADD46O,2.500000X1.500000*%
%ADD47RoundRect,0.250000X0.325000X0.650000X-0.325000X0.650000X-0.325000X-0.650000X0.325000X-0.650000X0*%
%ADD48RoundRect,0.062500X0.062500X-0.350000X0.062500X0.350000X-0.062500X0.350000X-0.062500X-0.350000X0*%
%ADD49RoundRect,0.062500X0.350000X-0.062500X0.350000X0.062500X-0.350000X0.062500X-0.350000X-0.062500X0*%
%ADD50R,1.680000X1.680000*%
%ADD51RoundRect,0.150000X0.150000X-0.587500X0.150000X0.587500X-0.150000X0.587500X-0.150000X-0.587500X0*%
%ADD52RoundRect,0.250000X-0.325000X-0.650000X0.325000X-0.650000X0.325000X0.650000X-0.325000X0.650000X0*%
%ADD53R,1.200000X2.500000*%
%ADD54R,0.900000X1.500000*%
%ADD55R,1.500000X0.900000*%
%ADD56C,0.475000*%
%ADD57R,4.200000X4.200000*%
%ADD58RoundRect,0.150000X-0.150000X0.512500X-0.150000X-0.512500X0.150000X-0.512500X0.150000X0.512500X0*%
%ADD59R,2.500000X1.900000*%
%ADD60RoundRect,0.250000X-0.550000X1.500000X-0.550000X-1.500000X0.550000X-1.500000X0.550000X1.500000X0*%
%ADD61RoundRect,0.250000X0.550000X-1.500000X0.550000X1.500000X-0.550000X1.500000X-0.550000X-1.500000X0*%
%ADD62C,1.800000*%
%ADD63RoundRect,0.062500X0.062500X-0.337500X0.062500X0.337500X-0.062500X0.337500X-0.062500X-0.337500X0*%
%ADD64RoundRect,0.062500X0.337500X-0.062500X0.337500X0.062500X-0.337500X0.062500X-0.337500X-0.062500X0*%
%ADD65R,3.350000X3.350000*%
%ADD66RoundRect,0.100000X-0.100000X0.637500X-0.100000X-0.637500X0.100000X-0.637500X0.100000X0.637500X0*%
%ADD67R,0.700000X1.300000*%
%ADD68R,1.200000X1.400000*%
%ADD69R,1.200000X2.000000*%
G04 APERTURE END LIST*
D10*
%TO.C,FB7*%
X15812500Y-16600000D03*
X17387500Y-16600000D03*
%TD*%
%TO.C,FB6*%
X15812500Y-19200000D03*
X17387500Y-19200000D03*
%TD*%
%TO.C,FB5*%
X15712500Y-21800000D03*
X17287500Y-21800000D03*
%TD*%
%TO.C,FB4*%
X15712500Y-24300000D03*
X17287500Y-24300000D03*
%TD*%
%TO.C,FB3*%
X15712500Y-26800000D03*
X17287500Y-26800000D03*
%TD*%
%TO.C,FB2*%
X15712500Y-29400000D03*
X17287500Y-29400000D03*
%TD*%
%TO.C,FB1*%
X17287500Y-31900000D03*
X15712500Y-31900000D03*
%TD*%
D11*
%TO.C,C49*%
X18800000Y-30975000D03*
X18800000Y-29425000D03*
%TD*%
D12*
%TO.C,TP4*%
X61500000Y-49000000D03*
%TD*%
D13*
%TO.C,L1*%
X17600000Y-62525000D03*
X17600000Y-65475000D03*
%TD*%
D14*
%TO.C,R2*%
X39375000Y-79000000D03*
X41025000Y-79000000D03*
%TD*%
D15*
%TO.C,R44*%
X60500000Y-29437500D03*
X60500000Y-32362500D03*
%TD*%
D16*
%TO.C,U1*%
X17105000Y-55525000D03*
X15835000Y-55525000D03*
X14565000Y-55525000D03*
X13295000Y-55525000D03*
X13295000Y-60475000D03*
X14565000Y-60475000D03*
X15835000Y-60475000D03*
X17105000Y-60475000D03*
D17*
X15200000Y-58000000D03*
%TD*%
D18*
%TO.C,R21*%
X3925000Y-74500000D03*
X2275000Y-74500000D03*
%TD*%
D19*
%TO.C,H3*%
X49000000Y-80000000D03*
%TD*%
D18*
%TO.C,R40*%
X66724999Y-17200000D03*
X65074999Y-17200000D03*
%TD*%
D20*
%TO.C,AE1*%
X30200000Y-12000000D03*
X30200000Y-2000000D03*
%TD*%
D21*
%TO.C,C33*%
X28000000Y-27525000D03*
X28000000Y-29075000D03*
%TD*%
D14*
%TO.C,R38*%
X62074999Y-17500000D03*
X63724999Y-17500000D03*
%TD*%
D22*
%TO.C,C20*%
X44025000Y-60800000D03*
X45575000Y-60800000D03*
%TD*%
D14*
%TO.C,R11*%
X46975000Y-54200000D03*
X48625000Y-54200000D03*
%TD*%
D23*
%TO.C,C11*%
X34300000Y-54425000D03*
X34300000Y-57375000D03*
%TD*%
D24*
%TO.C,C7*%
X11300000Y-61975000D03*
X11300000Y-59025000D03*
%TD*%
D25*
%TO.C,R43*%
X61500000Y-54562500D03*
X61500000Y-51637500D03*
%TD*%
D26*
%TO.C,U8*%
X63225000Y-55162500D03*
X63875000Y-55162500D03*
X64525000Y-55162500D03*
X65175000Y-55162500D03*
X65825000Y-55162500D03*
X66475000Y-55162500D03*
X67125000Y-55162500D03*
X67775000Y-55162500D03*
X67775000Y-49437500D03*
X67125000Y-49437500D03*
X66475000Y-49437500D03*
X65825000Y-49437500D03*
X65175000Y-49437500D03*
X64525000Y-49437500D03*
X63875000Y-49437500D03*
X63225000Y-49437500D03*
%TD*%
D27*
%TO.C,D4*%
X33200000Y-21300000D03*
X36000000Y-21300000D03*
%TD*%
D28*
%TO.C,C30*%
X2575000Y-54220000D03*
X1025000Y-54220000D03*
%TD*%
D29*
%TO.C,Q4*%
X35662500Y-35750000D03*
X35662500Y-37650000D03*
X37537500Y-36700000D03*
%TD*%
D11*
%TO.C,C36*%
X62500000Y-47175000D03*
X62500000Y-45625000D03*
%TD*%
D22*
%TO.C,C17*%
X44025000Y-65300000D03*
X45575000Y-65300000D03*
%TD*%
D14*
%TO.C,R4*%
X18675000Y-56300000D03*
X20325000Y-56300000D03*
%TD*%
D21*
%TO.C,C27*%
X41100000Y-74225000D03*
X41100000Y-75775000D03*
%TD*%
D30*
%TO.C,R35*%
X55600000Y-47325000D03*
X55600000Y-45675000D03*
%TD*%
D31*
%TO.C,D5*%
X36000000Y-18900000D03*
X33200000Y-18900000D03*
%TD*%
D32*
%TO.C,R6*%
X11700000Y-54975000D03*
X11700000Y-56625000D03*
%TD*%
D21*
%TO.C,C29*%
X37800000Y-73825000D03*
X37800000Y-75375000D03*
%TD*%
D30*
%TO.C,R26*%
X31600000Y-39925000D03*
X31600000Y-38275000D03*
%TD*%
D33*
%TO.C,Q10*%
X64637500Y-38249999D03*
X64637500Y-36349999D03*
X62762500Y-37299999D03*
%TD*%
D34*
%TO.C,J2*%
X6850000Y-62900000D03*
D35*
X6850000Y-64900000D03*
%TD*%
D36*
%TO.C,U7*%
X22500000Y-25550000D03*
D37*
X23600000Y-25550000D03*
X24700000Y-25550000D03*
X25800000Y-25550000D03*
X26900000Y-25550000D03*
X28000000Y-25550000D03*
X29100000Y-25550000D03*
X30200000Y-25550000D03*
D36*
X31300000Y-25550000D03*
X31300000Y-16050000D03*
D37*
X30200000Y-16050000D03*
X29100000Y-16050000D03*
X28000000Y-16050000D03*
X26900000Y-16050000D03*
X25800000Y-16050000D03*
X24700000Y-16050000D03*
X23600000Y-16050000D03*
D36*
X22500000Y-16050000D03*
%TD*%
D18*
%TO.C,R32*%
X59925000Y-66500000D03*
X58275000Y-66500000D03*
%TD*%
D38*
%TO.C,D3*%
X39900000Y-48900000D03*
X39900000Y-55700000D03*
%TD*%
D18*
%TO.C,R23*%
X9125000Y-59300000D03*
X7475000Y-59300000D03*
%TD*%
D33*
%TO.C,Q6*%
X37537500Y-41150000D03*
X37537500Y-39250000D03*
X35662500Y-40200000D03*
%TD*%
D12*
%TO.C,TP5*%
X54000001Y-38100000D03*
%TD*%
D11*
%TO.C,C45*%
X63699999Y-23775000D03*
X63699999Y-22225000D03*
%TD*%
D21*
%TO.C,C41*%
X58000000Y-36825000D03*
X58000000Y-38375000D03*
%TD*%
D14*
%TO.C,R22*%
X5875000Y-74500000D03*
X7525000Y-74500000D03*
%TD*%
D11*
%TO.C,C40*%
X59800000Y-60275000D03*
X59800000Y-58725000D03*
%TD*%
D14*
%TO.C,R9*%
X30175000Y-29000000D03*
X31825000Y-29000000D03*
%TD*%
D22*
%TO.C,C18*%
X44025000Y-63800000D03*
X45575000Y-63800000D03*
%TD*%
D39*
%TO.C,L2*%
X28325000Y-51200000D03*
X31275000Y-51200000D03*
%TD*%
D14*
%TO.C,R3*%
X39375000Y-80600000D03*
X41025000Y-80600000D03*
%TD*%
D11*
%TO.C,C37*%
X65500000Y-47175000D03*
X65500000Y-45625000D03*
%TD*%
D40*
%TO.C,U3*%
X36937500Y-25250000D03*
X36937500Y-24300000D03*
X36937500Y-23350000D03*
X34662500Y-23350000D03*
X34662500Y-25250000D03*
%TD*%
D25*
%TO.C,R31*%
X54400000Y-61762500D03*
X54400000Y-58837500D03*
%TD*%
D32*
%TO.C,R10*%
X50100000Y-52675000D03*
X50100000Y-54325000D03*
%TD*%
D14*
%TO.C,R14*%
X4075000Y-54220000D03*
X5725000Y-54220000D03*
%TD*%
D41*
%TO.C,J1*%
X30200000Y-77127500D03*
X31000000Y-77127500D03*
D42*
X32150000Y-77127500D03*
X33150000Y-77127500D03*
X33650000Y-77127500D03*
X34650000Y-77127500D03*
D41*
X36600000Y-77127500D03*
X35800000Y-77127500D03*
D42*
X35150000Y-77127500D03*
X34150000Y-77127500D03*
X32650000Y-77127500D03*
X31650000Y-77127500D03*
D43*
X29075000Y-77697500D03*
D44*
X29075000Y-81877500D03*
D43*
X37725000Y-77697500D03*
D44*
X37725000Y-81877500D03*
%TD*%
D21*
%TO.C,C38*%
X58300000Y-60225000D03*
X58300000Y-61775000D03*
%TD*%
D45*
%TO.C,D1*%
X10200000Y-55787500D03*
X10200000Y-54212500D03*
%TD*%
D46*
%TO.C,J3*%
X13600000Y-31900000D03*
X13600000Y-29360000D03*
X13600000Y-26820000D03*
X13600000Y-24280000D03*
X13600000Y-21740000D03*
X13600000Y-19200000D03*
X13600000Y-16660000D03*
X13600000Y-14120000D03*
%TD*%
D19*
%TO.C,H4*%
X49000000Y-17000000D03*
%TD*%
D22*
%TO.C,C25*%
X48925000Y-60300000D03*
X50475000Y-60300000D03*
%TD*%
D21*
%TO.C,C47*%
X62199999Y-23725000D03*
X62199999Y-25275000D03*
%TD*%
D12*
%TO.C,TP2*%
X68000000Y-45900000D03*
%TD*%
D29*
%TO.C,Q5*%
X27962500Y-38150000D03*
X27962500Y-40050000D03*
X29837500Y-39100000D03*
%TD*%
D32*
%TO.C,R29*%
X24600000Y-38275000D03*
X24600000Y-39925000D03*
%TD*%
D29*
%TO.C,Q8*%
X57362500Y-45750000D03*
X57362500Y-47650000D03*
X59237500Y-46700000D03*
%TD*%
D22*
%TO.C,C5*%
X19625000Y-54800000D03*
X21175000Y-54800000D03*
%TD*%
D21*
%TO.C,C28*%
X39300000Y-73825000D03*
X39300000Y-75375000D03*
%TD*%
D29*
%TO.C,Q3*%
X39662500Y-36750000D03*
X39662500Y-38650000D03*
X41537500Y-37700000D03*
%TD*%
D22*
%TO.C,C31*%
X18425000Y-67500000D03*
X19975000Y-67500000D03*
%TD*%
D21*
%TO.C,C43*%
X59500000Y-36825000D03*
X59500000Y-38375000D03*
%TD*%
D32*
%TO.C,R30*%
X39400000Y-40175000D03*
X39400000Y-41825000D03*
%TD*%
D21*
%TO.C,C44*%
X56500000Y-36825000D03*
X56500000Y-38375000D03*
%TD*%
D47*
%TO.C,C8*%
X12970000Y-64500000D03*
X10020000Y-64500000D03*
%TD*%
D22*
%TO.C,C6*%
X21700000Y-56300000D03*
X23250000Y-56300000D03*
%TD*%
D18*
%TO.C,R18*%
X32425000Y-67600000D03*
X30775000Y-67600000D03*
%TD*%
D24*
%TO.C,C3*%
X21500000Y-60875000D03*
X21500000Y-57925000D03*
%TD*%
D12*
%TO.C,TP7*%
X60500000Y-34999999D03*
%TD*%
D19*
%TO.C,H2*%
X4000000Y-4000000D03*
%TD*%
D22*
%TO.C,C42*%
X62124999Y-19100000D03*
X63674999Y-19100000D03*
%TD*%
D32*
%TO.C,R7*%
X34300000Y-61275000D03*
X34300000Y-62925000D03*
%TD*%
D48*
%TO.C,U4*%
X44650000Y-58662500D03*
X45150000Y-58662500D03*
X45650000Y-58662500D03*
X46150000Y-58662500D03*
D49*
X46862500Y-57950000D03*
X46862500Y-57450000D03*
X46862500Y-56950000D03*
X46862500Y-56450000D03*
D48*
X46150000Y-55737500D03*
X45650000Y-55737500D03*
X45150000Y-55737500D03*
X44650000Y-55737500D03*
D49*
X43937500Y-56450000D03*
X43937500Y-56950000D03*
X43937500Y-57450000D03*
X43937500Y-57950000D03*
D50*
X45400000Y-57200000D03*
%TD*%
D18*
%TO.C,R1*%
X7525000Y-68500000D03*
X5875000Y-68500000D03*
%TD*%
D51*
%TO.C,Q2*%
X5750000Y-72637500D03*
X7650000Y-72637500D03*
X6700000Y-70762500D03*
%TD*%
D30*
%TO.C,R39*%
X62199999Y-22225000D03*
X62199999Y-20575000D03*
%TD*%
D18*
%TO.C,R19*%
X32425000Y-72100000D03*
X30775000Y-72100000D03*
%TD*%
D32*
%TO.C,R42*%
X61000000Y-36774999D03*
X61000000Y-38424999D03*
%TD*%
D52*
%TO.C,C23*%
X44125000Y-49500000D03*
X47075000Y-49500000D03*
%TD*%
D22*
%TO.C,C26*%
X48925000Y-57300000D03*
X50475000Y-57300000D03*
%TD*%
D12*
%TO.C,TP6*%
X62800000Y-34299999D03*
%TD*%
D53*
%TO.C,T2*%
X55100000Y-25150000D03*
X57300000Y-25150000D03*
X59500000Y-25150000D03*
X59500000Y-18450000D03*
X55100000Y-18450000D03*
%TD*%
D11*
%TO.C,C34*%
X64000000Y-47175000D03*
X64000000Y-45625000D03*
%TD*%
D22*
%TO.C,C19*%
X44025000Y-62300000D03*
X45575000Y-62300000D03*
%TD*%
D30*
%TO.C,R15*%
X40900000Y-72725000D03*
X40900000Y-71075000D03*
%TD*%
D23*
%TO.C,C4*%
X23300000Y-62525000D03*
X23300000Y-65475000D03*
%TD*%
D12*
%TO.C,TP3*%
X59200000Y-49700000D03*
%TD*%
D54*
%TO.C,U6*%
X1565000Y-52370000D03*
X2835000Y-52370000D03*
X4105000Y-52370000D03*
X5375000Y-52370000D03*
X6645000Y-52370000D03*
X7915000Y-52370000D03*
X9185000Y-52370000D03*
X10455000Y-52370000D03*
X11725000Y-52370000D03*
X12995000Y-52370000D03*
X14265000Y-52370000D03*
X15535000Y-52370000D03*
X16805000Y-52370000D03*
X18075000Y-52370000D03*
D55*
X19325000Y-49330000D03*
X19325000Y-48060000D03*
X19325000Y-46790000D03*
X19325000Y-45520000D03*
X19325000Y-44250000D03*
X19325000Y-42980000D03*
X19325000Y-41710000D03*
X19325000Y-40440000D03*
X19325000Y-39170000D03*
X19325000Y-37900000D03*
D54*
X18075000Y-34870000D03*
X16805000Y-34870000D03*
X15535000Y-34870000D03*
X14265000Y-34870000D03*
X12995000Y-34870000D03*
X11725000Y-34870000D03*
X10455000Y-34870000D03*
X9185000Y-34870000D03*
X7915000Y-34870000D03*
X6645000Y-34870000D03*
X5375000Y-34870000D03*
X4105000Y-34870000D03*
X2835000Y-34870000D03*
X1565000Y-34870000D03*
D56*
X8142500Y-45825000D03*
X9667500Y-45825000D03*
X7380000Y-45062500D03*
X8905000Y-45062500D03*
X10430000Y-45062500D03*
X8142500Y-44300000D03*
D57*
X8905000Y-44300000D03*
D56*
X9667500Y-44300000D03*
X7380000Y-43537500D03*
X8905000Y-43537500D03*
X10430000Y-43537500D03*
X8142500Y-42775000D03*
X9667500Y-42775000D03*
%TD*%
D28*
%TO.C,C48*%
X5975000Y-57700000D03*
X4425000Y-57700000D03*
%TD*%
D24*
%TO.C,C1*%
X19100000Y-60875000D03*
X19100000Y-57925000D03*
%TD*%
D18*
%TO.C,R12*%
X50525000Y-58800000D03*
X48875000Y-58800000D03*
%TD*%
D22*
%TO.C,C32*%
X30225000Y-27500000D03*
X31775000Y-27500000D03*
%TD*%
D23*
%TO.C,C2*%
X21000000Y-62525000D03*
X21000000Y-65475000D03*
%TD*%
%TO.C,C10*%
X31900000Y-54425000D03*
X31900000Y-57375000D03*
%TD*%
D58*
%TO.C,U2*%
X29250000Y-62362500D03*
X28300000Y-62362500D03*
X27350000Y-62362500D03*
X27350000Y-64637500D03*
X28300000Y-64637500D03*
X29250000Y-64637500D03*
%TD*%
D12*
%TO.C,TP1*%
X49200000Y-62100000D03*
%TD*%
D52*
%TO.C,C13*%
X26825000Y-57130000D03*
X29775000Y-57130000D03*
%TD*%
D15*
%TO.C,R37*%
X67599999Y-22237500D03*
X67599999Y-25162500D03*
%TD*%
D11*
%TO.C,C15*%
X38700000Y-25075000D03*
X38700000Y-23525000D03*
%TD*%
D59*
%TO.C,L3*%
X40300000Y-62550000D03*
X40300000Y-58450000D03*
%TD*%
D51*
%TO.C,Q1*%
X2150000Y-72637500D03*
X4050000Y-72637500D03*
X3100000Y-70762500D03*
%TD*%
D60*
%TO.C,C46*%
X65300000Y-26800000D03*
X65300000Y-32400000D03*
%TD*%
D10*
%TO.C,D2*%
X2712500Y-68500000D03*
X4287500Y-68500000D03*
%TD*%
D22*
%TO.C,C21*%
X44025000Y-53700000D03*
X45575000Y-53700000D03*
%TD*%
D18*
%TO.C,R16*%
X32425000Y-70600000D03*
X30775000Y-70600000D03*
%TD*%
D30*
%TO.C,R36*%
X61000000Y-47225000D03*
X61000000Y-45575000D03*
%TD*%
D32*
%TO.C,R41*%
X66400000Y-36674999D03*
X66400000Y-38324999D03*
%TD*%
D22*
%TO.C,C14*%
X27525000Y-59100000D03*
X29075000Y-59100000D03*
%TD*%
D21*
%TO.C,C16*%
X33000000Y-23525000D03*
X33000000Y-25075000D03*
%TD*%
D61*
%TO.C,C39*%
X56700000Y-57200000D03*
X56700000Y-51600000D03*
%TD*%
D62*
%TO.C,LS1*%
X56000000Y-75500000D03*
X66000000Y-75500000D03*
%TD*%
D14*
%TO.C,R34*%
X55275000Y-66800000D03*
X56925000Y-66800000D03*
%TD*%
D18*
%TO.C,R24*%
X6025000Y-59300000D03*
X4375000Y-59300000D03*
%TD*%
D30*
%TO.C,R20*%
X40900000Y-69725000D03*
X40900000Y-68075000D03*
%TD*%
D21*
%TO.C,C9*%
X30800000Y-64025000D03*
X30800000Y-65575000D03*
%TD*%
D33*
%TO.C,Q9*%
X67337499Y-20650000D03*
X67337499Y-18750000D03*
X65462499Y-19700000D03*
%TD*%
D30*
%TO.C,R5*%
X14600000Y-64125000D03*
X14600000Y-62475000D03*
%TD*%
D14*
%TO.C,R28*%
X39375000Y-35200000D03*
X41025000Y-35200000D03*
%TD*%
D32*
%TO.C,R33*%
X59800000Y-61775000D03*
X59800000Y-63425000D03*
%TD*%
D29*
%TO.C,Q7*%
X54662500Y-63350000D03*
X54662500Y-65250000D03*
X56537500Y-64300000D03*
%TD*%
D52*
%TO.C,C12*%
X26825000Y-54730000D03*
X29775000Y-54730000D03*
%TD*%
D19*
%TO.C,H1*%
X4000000Y-80000000D03*
%TD*%
D14*
%TO.C,R13*%
X48875000Y-55800000D03*
X50525000Y-55800000D03*
%TD*%
D63*
%TO.C,U5*%
X35100000Y-72350000D03*
X35600000Y-72350000D03*
X36100000Y-72350000D03*
X36600000Y-72350000D03*
X37100000Y-72350000D03*
X37600000Y-72350000D03*
X38100000Y-72350000D03*
D64*
X39050000Y-71400000D03*
X39050000Y-70900000D03*
X39050000Y-70400000D03*
X39050000Y-69900000D03*
X39050000Y-69400000D03*
X39050000Y-68900000D03*
X39050000Y-68400000D03*
D63*
X38100000Y-67450000D03*
X37600000Y-67450000D03*
X37100000Y-67450000D03*
X36600000Y-67450000D03*
X36100000Y-67450000D03*
X35600000Y-67450000D03*
X35100000Y-67450000D03*
D64*
X34150000Y-68400000D03*
X34150000Y-68900000D03*
X34150000Y-69400000D03*
X34150000Y-69900000D03*
X34150000Y-70400000D03*
X34150000Y-70900000D03*
X34150000Y-71400000D03*
D65*
X36600000Y-69900000D03*
%TD*%
D30*
%TO.C,R27*%
X26100000Y-39925000D03*
X26100000Y-38275000D03*
%TD*%
D52*
%TO.C,C22*%
X44125000Y-51800000D03*
X47075000Y-51800000D03*
%TD*%
D18*
%TO.C,R17*%
X32425000Y-69100000D03*
X30775000Y-69100000D03*
%TD*%
D66*
%TO.C,U9*%
X58775000Y-28837500D03*
X58125000Y-28837500D03*
X57475000Y-28837500D03*
X56825000Y-28837500D03*
X56175000Y-28837500D03*
X55525000Y-28837500D03*
X54875000Y-28837500D03*
X54225000Y-28837500D03*
X54225000Y-34562500D03*
X54875000Y-34562500D03*
X55525000Y-34562500D03*
X56175000Y-34562500D03*
X56825000Y-34562500D03*
X57475000Y-34562500D03*
X58125000Y-34562500D03*
X58775000Y-34562500D03*
%TD*%
D30*
%TO.C,R8*%
X32800000Y-62925000D03*
X32800000Y-61275000D03*
%TD*%
%TO.C,R25*%
X41900000Y-41825000D03*
X41900000Y-40175000D03*
%TD*%
D22*
%TO.C,C24*%
X48925000Y-63900000D03*
X50475000Y-63900000D03*
%TD*%
D67*
%TO.C,J4*%
X21650000Y-69137491D03*
X20550000Y-69137491D03*
X19450000Y-69137491D03*
X18350000Y-69137491D03*
X17250000Y-69137491D03*
X16150000Y-69137491D03*
X15050000Y-69137491D03*
X13950000Y-69137491D03*
D68*
X11750000Y-69987491D03*
D69*
X11750000Y-79687491D03*
D68*
X26430000Y-69987491D03*
D69*
X27270000Y-79687491D03*
%TD*%
D28*
%TO.C,C35*%
X59875000Y-64900000D03*
X58325000Y-64900000D03*
%TD*%
D53*
%TO.C,T1*%
X66899999Y-58850000D03*
X64699999Y-58850000D03*
X62499999Y-58850000D03*
X62499999Y-65550000D03*
X66899999Y-65550000D03*
%TD*%
D62*
%TO.C,LS2*%
X65999999Y-8500000D03*
X55999999Y-8500000D03*
%TD*%
G36*
X23159191Y-80718907D02*
G01*
X23195155Y-80768407D01*
X23200000Y-80799000D01*
X23200000Y-83601000D01*
X23181093Y-83659191D01*
X23131593Y-83695155D01*
X23101000Y-83700000D01*
X13799000Y-83700000D01*
X13740809Y-83681093D01*
X13704845Y-83631593D01*
X13700000Y-83601000D01*
X13700000Y-80799000D01*
X13718907Y-80740809D01*
X13768407Y-80704845D01*
X13799000Y-80700000D01*
X23101000Y-80700000D01*
X23159191Y-80718907D01*
G37*
M02*
