M48
; DRILL file {KiCad 7.0.9} date Do 04 Jan 2024 13:11:29 CET
; FORMAT={-:-/ absolute / metric / decimal}
; #@! TF.CreationDate,2024-01-04T13:11:29+01:00
; #@! TF.GenerationSoftware,Kicad,Pcbnew,7.0.9
; #@! TF.FileFunction,Plated,1,4,PTH
FMAT,2
METRIC
; #@! TA.AperFunction,Plated,PTH,ComponentDrill
T1C0.200
; #@! TA.AperFunction,Plated,PTH,ViaDrill
T2C0.300
; #@! TA.AperFunction,Plated,PTH,ViaDrill
T3C0.400
; #@! TA.AperFunction,Plated,PTH,ComponentDrill
T4C0.600
; #@! TA.AperFunction,Plated,PTH,ComponentDrill
T5C0.750
; #@! TA.AperFunction,Plated,PTH,ComponentDrill
T6C1.000
; #@! TA.AperFunction,Plated,PTH,ComponentDrill
T7C1.100
%
G90
G05
T1
X7.38Y-43.538
X7.38Y-45.062
X8.143Y-42.775
X8.143Y-44.3
X8.143Y-45.825
X8.905Y-43.538
X8.905Y-45.062
X9.668Y-42.775
X9.668Y-44.3
X9.668Y-45.825
X10.43Y-43.538
X10.43Y-45.062
T2
X0.9Y-28.5
X2.0Y-42.8
X3.1Y-38.8
X3.35Y-41.0
X4.3Y-56.9
X4.4Y-61.15
X7.8Y-39.5
X9.3Y-55.8
X10.4Y-36.1
X12.4Y-60.3
X15.1Y-48.4
X15.5Y-50.9
X15.7Y-47.7
X16.3Y-46.9
X16.8Y-36.2
X17.1Y-46.2
X17.3Y-41.0
X17.8Y-45.4
X18.0Y-50.8
X21.6Y-41.0
X27.9Y-48.4
X28.5Y-47.7
X29.1Y-46.9
X29.8Y-46.2
X30.6Y-45.4
X34.1Y-41.6
X37.5Y-43.4
X37.538Y-41.9
X41.5Y-60.5
X41.9Y-79.0
X41.9Y-80.6
X43.1Y-48.0
X43.1Y-48.7
X43.1Y-49.4
X43.1Y-50.1
X43.1Y-50.8
X43.1Y-51.5
X43.1Y-52.2
X43.1Y-52.9
X43.1Y-53.6
X43.1Y-54.9
X43.1Y-55.7
X43.1Y-56.5
X43.2Y-60.8
X43.2Y-61.5
X43.2Y-62.2
X43.2Y-62.9
X43.2Y-63.6
X43.2Y-64.3
X43.2Y-65.0
X43.9Y-54.9
X43.9Y-55.7
X44.7Y-54.9
X44.9Y-56.7
X44.9Y-57.7
X45.1Y-51.9
X45.4Y-57.2
X45.5Y-54.9
X45.9Y-56.7
X45.9Y-57.7
X45.991Y-59.709
X46.1Y-48.8
X46.1Y-49.5
X46.1Y-50.2
X46.1Y-50.9
X46.1Y-52.3
X46.4Y-53.1
X46.4Y-60.8
X46.4Y-62.3
X46.4Y-63.8
X46.4Y-65.3
X47.75Y-57.45
X48.6Y-53.3
X50.1Y-51.9
X51.3Y-55.8
X51.3Y-57.3
X51.3Y-60.3
X51.3Y-63.9
X53.5Y-65.2
X53.9Y-60.7
X54.3Y-40.1
X54.3Y-42.0
X54.3Y-45.7
X54.5Y-57.6
X54.6Y-60.7
X55.0Y-33.0
X55.1Y-16.6
X55.291Y-40.409
X55.3Y-42.7
X55.3Y-56.8
X55.3Y-57.6
X55.3Y-60.7
X55.3Y-67.8
X55.7Y-30.1
X55.8Y-61.2
X55.8Y-61.9
X56.2Y-40.4
X56.2Y-43.4
X56.3Y-23.9
X56.3Y-24.6
X56.3Y-25.3
X56.3Y-26.0
X56.5Y-39.3
X56.7Y-30.1
X57.9Y-55.8
X57.9Y-56.5
X58.0Y-39.3
X58.0Y-50.2
X58.0Y-50.9
X58.0Y-51.6
X58.0Y-52.3
X58.0Y-53.0
X58.2Y-67.6
X58.3Y-23.9
X58.3Y-24.6
X58.3Y-25.3
X58.3Y-26.0
X58.6Y-45.7
X58.9Y-30.1
X59.5Y-39.3
X60.1Y-28.5
X60.1Y-30.4
X60.404Y-37.656
X60.5Y-33.5
X60.7Y-60.3
X60.9Y-28.5
X60.9Y-30.4
X61.1Y-53.6
X61.1Y-55.5
X61.3Y-23.7
X61.5Y-50.5
X61.596Y-46.344
X61.9Y-53.6
X61.9Y-55.5
X62.5Y-44.7
X63.1Y-53.9
X63.7Y-58.0
X63.7Y-58.7
X63.7Y-59.4
X63.7Y-60.1
X63.8Y-16.4
X64.0Y-31.0
X64.0Y-31.7
X64.0Y-32.4
X64.0Y-33.1
X64.0Y-33.8
X64.0Y-44.7
X64.1Y-27.5
X64.1Y-28.2
X64.7Y-39.1
X65.3Y-53.9
X65.5Y-44.7
X65.7Y-58.0
X65.7Y-58.7
X65.7Y-59.4
X65.7Y-60.1
X66.2Y-22.1
X66.2Y-22.8
X66.3Y-53.9
X66.7Y-16.2
X66.7Y-23.3
X66.7Y-26.4
X66.7Y-27.2
X66.9Y-67.4
X67.0Y-51.0
X67.4Y-23.3
X67.5Y-26.4
X67.7Y-38.3
X68.1Y-23.3
X68.5Y-18.8
T3
X1.8Y-51.0
X1.8Y-69.4
X1.9Y-36.2
X2.8Y-51.0
X4.6Y-75.4
X4.7Y-37.9
X5.375Y-36.2
X5.571Y-40.292
X6.7Y-54.2
X6.8Y-61.9
X7.6Y-61.9
X8.4Y-61.9
X8.4Y-62.7
X8.6Y-72.7
X10.9Y-57.7
X11.1Y-63.7
X11.1Y-64.5
X11.1Y-65.3
X11.7Y-57.7
X11.75Y-71.15
X12.5Y-57.7
X13.0Y-79.7
X13.3Y-57.2
X13.3Y-58.0
X13.3Y-58.8
X14.9Y-25.5
X15.1Y-67.7
X16.2Y-67.7
X16.9Y-57.2
X16.9Y-58.0
X16.9Y-58.8
X17.3Y-67.7
X17.4Y-15.7
X17.4Y-20.3
X17.7Y-30.9
X17.7Y-57.2
X17.9Y-49.3
X17.9Y-54.5
X17.9Y-55.3
X18.0Y-58.9
X18.2Y-32.0
X18.3Y-70.4
X18.7Y-54.5
X18.7Y-55.3
X18.8Y-28.5
X18.8Y-58.9
X19.0Y-32.0
X19.4Y-70.4
X19.6Y-58.9
X20.2Y-30.6
X20.4Y-58.9
X20.53Y-70.42
X20.6Y-64.4
X20.9Y-67.5
X21.2Y-58.9
X21.4Y-64.4
X22.0Y-58.9
X22.2Y-54.8
X22.2Y-64.4
X22.3Y-27.075
X22.8Y-30.7
X23.0Y-64.4
X23.3Y-57.2
X23.8Y-64.4
X26.1Y-79.7
X26.4Y-71.2
X26.6Y-63.7
X27.0Y-28.9
X27.9Y-60.3
X27.9Y-61.1
X28.0Y-56.0
X28.1Y-54.7
X28.5Y-54.0
X28.5Y-55.4
X28.7Y-60.3
X28.7Y-61.1
X29.1Y-14.5
X29.1Y-17.6
X29.3Y-40.1
X29.7Y-69.1
X29.7Y-70.6
X29.7Y-75.9
X29.8Y-53.2
X29.8Y-71.8
X30.2Y-62.8
X31.0Y-55.6
X31.0Y-60.4
X31.0Y-61.2
X31.0Y-62.0
X31.0Y-62.8
X31.0Y-75.9
X31.3Y-14.5
X31.3Y-17.6
X31.4Y-78.5
X31.6Y-59.8
X31.8Y-55.6
X32.2Y-59.2
X32.4Y-51.6
X32.4Y-52.4
X32.4Y-53.2
X32.6Y-55.6
X32.7Y-27.5
X32.8Y-29.0
X32.9Y-75.8
X33.0Y-26.0
X33.0Y-59.2
X33.2Y-53.2
X33.6Y-62.2
X34.0Y-53.2
X34.3Y-60.4
X34.3Y-67.6
X34.3Y-72.2
X34.4Y-75.8
X34.6Y-55.6
X34.6Y-59.2
X34.8Y-53.2
X35.4Y-78.6
X35.845Y-24.055
X36.0Y-75.9
X36.1Y-39.2
X37.0Y-37.8
X37.1Y-76.2
X38.24Y-38.3
X38.5Y-76.3
X38.9Y-67.6
X39.2Y-72.8
X39.7Y-23.5
X39.9Y-76.1
X40.6Y-41.9
X40.9Y-67.1
X41.1Y-76.7
X41.9Y-72.7
X42.0Y-35.2
T5
X6.85Y-62.9
X6.85Y-64.9
T6
X13.6Y-14.12
X13.6Y-16.66
X13.6Y-19.2
X13.6Y-21.74
X13.6Y-24.28
X13.6Y-26.82
X13.6Y-29.36
X13.6Y-31.9
T7
X56.0Y-8.5
X56.0Y-75.5
X66.0Y-8.5
X66.0Y-75.5
T4
G00X29.075Y-77.147
M15
G01X29.075Y-78.248
M16
G05
G00X29.075Y-81.477
M15
G01X29.075Y-82.277
M16
G05
G00X37.725Y-77.147
M15
G01X37.725Y-78.248
M16
G05
G00X37.725Y-81.477
M15
G01X37.725Y-82.277
M16
G05
T0
M30
