%TF.GenerationSoftware,KiCad,Pcbnew,7.0.9*%
%TF.CreationDate,2024-01-04T13:11:27+01:00*%
%TF.ProjectId,OBSPro,4f425350-726f-42e6-9b69-6361645f7063,rev?*%
%TF.SameCoordinates,PX7270e00PY2255100*%
%TF.FileFunction,Legend,Bot*%
%TF.FilePolarity,Positive*%
%FSLAX46Y46*%
G04 Gerber Fmt 4.6, Leading zero omitted, Abs format (unit mm)*
G04 Created by KiCad (PCBNEW 7.0.9) date 2024-01-04 13:11:27*
%MOMM*%
%LPD*%
G01*
G04 APERTURE LIST*
%ADD10C,0.150000*%
%ADD11C,0.120000*%
G04 APERTURE END LIST*
D10*
X68442856Y-15554818D02*
X68919046Y-15554818D01*
X68919046Y-15554818D02*
X68919046Y-14554818D01*
X68157141Y-15507199D02*
X68014284Y-15554818D01*
X68014284Y-15554818D02*
X67776189Y-15554818D01*
X67776189Y-15554818D02*
X67680951Y-15507199D01*
X67680951Y-15507199D02*
X67633332Y-15459579D01*
X67633332Y-15459579D02*
X67585713Y-15364341D01*
X67585713Y-15364341D02*
X67585713Y-15269103D01*
X67585713Y-15269103D02*
X67633332Y-15173865D01*
X67633332Y-15173865D02*
X67680951Y-15126246D01*
X67680951Y-15126246D02*
X67776189Y-15078627D01*
X67776189Y-15078627D02*
X67966665Y-15031008D01*
X67966665Y-15031008D02*
X68061903Y-14983389D01*
X68061903Y-14983389D02*
X68109522Y-14935770D01*
X68109522Y-14935770D02*
X68157141Y-14840532D01*
X68157141Y-14840532D02*
X68157141Y-14745294D01*
X68157141Y-14745294D02*
X68109522Y-14650056D01*
X68109522Y-14650056D02*
X68061903Y-14602437D01*
X68061903Y-14602437D02*
X67966665Y-14554818D01*
X67966665Y-14554818D02*
X67728570Y-14554818D01*
X67728570Y-14554818D02*
X67585713Y-14602437D01*
X67204760Y-14650056D02*
X67157141Y-14602437D01*
X67157141Y-14602437D02*
X67061903Y-14554818D01*
X67061903Y-14554818D02*
X66823808Y-14554818D01*
X66823808Y-14554818D02*
X66728570Y-14602437D01*
X66728570Y-14602437D02*
X66680951Y-14650056D01*
X66680951Y-14650056D02*
X66633332Y-14745294D01*
X66633332Y-14745294D02*
X66633332Y-14840532D01*
X66633332Y-14840532D02*
X66680951Y-14983389D01*
X66680951Y-14983389D02*
X67252379Y-15554818D01*
X67252379Y-15554818D02*
X66633332Y-15554818D01*
D11*
%TO.C,LS2*%
X66599999Y-6500000D02*
X65399999Y-6500000D01*
X65999999Y-5900000D02*
X65999999Y-7100000D01*
X56599999Y-6500000D02*
X55399999Y-6500000D01*
X68999999Y-8500000D02*
G75*
G03*
X68999999Y-8500000I-8000000J0D01*
G01*
%TD*%
M02*
