%TF.GenerationSoftware,KiCad,Pcbnew,7.0.10*%
%TF.CreationDate,2024-02-25T16:32:58+01:00*%
%TF.ProjectId,OBSPro,4f425350-726f-42e6-9b69-6361645f7063,rev?*%
%TF.SameCoordinates,PX7270e00PY2255100*%
%TF.FileFunction,Copper,L2,Inr*%
%TF.FilePolarity,Positive*%
%FSLAX46Y46*%
G04 Gerber Fmt 4.6, Leading zero omitted, Abs format (unit mm)*
G04 Created by KiCad (PCBNEW 7.0.10) date 2024-02-25 16:32:58*
%MOMM*%
%LPD*%
G01*
G04 APERTURE LIST*
G04 Aperture macros list*
%AMRoundRect*
0 Rectangle with rounded corners*
0 $1 Rounding radius*
0 $2 $3 $4 $5 $6 $7 $8 $9 X,Y pos of 4 corners*
0 Add a 4 corners polygon primitive as box body*
4,1,4,$2,$3,$4,$5,$6,$7,$8,$9,$2,$3,0*
0 Add four circle primitives for the rounded corners*
1,1,$1+$1,$2,$3*
1,1,$1+$1,$4,$5*
1,1,$1+$1,$6,$7*
1,1,$1+$1,$8,$9*
0 Add four rect primitives between the rounded corners*
20,1,$1+$1,$2,$3,$4,$5,0*
20,1,$1+$1,$4,$5,$6,$7,0*
20,1,$1+$1,$6,$7,$8,$9,0*
20,1,$1+$1,$8,$9,$2,$3,0*%
G04 Aperture macros list end*
%ADD10C,0.300000*%
%TA.AperFunction,NonConductor*%
%ADD11C,0.300000*%
%TD*%
%TA.AperFunction,ComponentPad*%
%ADD12RoundRect,0.250000X-0.625000X0.350000X-0.625000X-0.350000X0.625000X-0.350000X0.625000X0.350000X0*%
%TD*%
%TA.AperFunction,ComponentPad*%
%ADD13O,1.750000X1.200000*%
%TD*%
%TA.AperFunction,ComponentPad*%
%ADD14O,0.900000X2.000000*%
%TD*%
%TA.AperFunction,ComponentPad*%
%ADD15O,0.900000X1.700000*%
%TD*%
%TA.AperFunction,ComponentPad*%
%ADD16O,2.500000X1.500000*%
%TD*%
%TA.AperFunction,HeatsinkPad*%
%ADD17C,0.475000*%
%TD*%
%TA.AperFunction,ComponentPad*%
%ADD18C,1.800000*%
%TD*%
%TA.AperFunction,ViaPad*%
%ADD19C,0.800000*%
%TD*%
%TA.AperFunction,ViaPad*%
%ADD20C,0.700000*%
%TD*%
G04 APERTURE END LIST*
D10*
D11*
X16771429Y-81521185D02*
X16842857Y-81449757D01*
X16842857Y-81449757D02*
X16985715Y-81378328D01*
X16985715Y-81378328D02*
X17342857Y-81378328D01*
X17342857Y-81378328D02*
X17485715Y-81449757D01*
X17485715Y-81449757D02*
X17557143Y-81521185D01*
X17557143Y-81521185D02*
X17628572Y-81664042D01*
X17628572Y-81664042D02*
X17628572Y-81806900D01*
X17628572Y-81806900D02*
X17557143Y-82021185D01*
X17557143Y-82021185D02*
X16700000Y-82878328D01*
X16700000Y-82878328D02*
X17628572Y-82878328D01*
D12*
%TO.N,Net-(J2-Pin_1)*%
%TO.C,J2*%
X6850000Y-62900000D03*
D13*
%TO.N,GND*%
X6850000Y-64900000D03*
%TD*%
D14*
%TO.N,GND*%
%TO.C,J1*%
X29075000Y-78410000D03*
D15*
X29075000Y-82590000D03*
D14*
X37725000Y-78410000D03*
D15*
X37725000Y-82590000D03*
%TD*%
D16*
%TO.N,Net-(J3-Pin_1)*%
%TO.C,J3*%
X13600000Y-31900000D03*
%TO.N,Net-(J3-Pin_2)*%
X13600000Y-29360000D03*
%TO.N,Net-(J3-Pin_3)*%
X13600000Y-26820000D03*
%TO.N,Net-(J3-Pin_4)*%
X13600000Y-24280000D03*
%TO.N,Net-(J3-Pin_5)*%
X13600000Y-21740000D03*
%TO.N,Net-(J3-Pin_6)*%
X13600000Y-19200000D03*
%TO.N,/Controller/BUTTON*%
X13600000Y-16660000D03*
%TO.N,GND*%
X13600000Y-14120000D03*
%TD*%
D17*
%TO.N,GND*%
%TO.C,U6*%
X8142500Y-45825000D03*
X9667500Y-45825000D03*
X7380000Y-45062500D03*
X8905000Y-45062500D03*
X10430000Y-45062500D03*
X8142500Y-44300000D03*
X9667500Y-44300000D03*
X7380000Y-43537500D03*
X8905000Y-43537500D03*
X10430000Y-43537500D03*
X8142500Y-42775000D03*
X9667500Y-42775000D03*
%TD*%
D18*
%TO.N,/Sensors/Ultrasonic1/INP*%
%TO.C,LS1*%
X56000000Y-75500000D03*
%TO.N,GND*%
X66000000Y-75500000D03*
%TD*%
%TO.N,/Sensors/Ultrasonic2/INP*%
%TO.C,LS2*%
X65999999Y-8500000D03*
%TO.N,GND*%
X55999999Y-8500000D03*
%TD*%
D19*
%TO.N,GND*%
X33000000Y-59200000D03*
X64000000Y-33800000D03*
X11000000Y-55900000D03*
X15000000Y-57300000D03*
X29100000Y-17600000D03*
D20*
X45900000Y-57700000D03*
D19*
X14200000Y-57800000D03*
X23700000Y-59000000D03*
X58200000Y-67600000D03*
X31800000Y-55600000D03*
X46100000Y-52300000D03*
X37100000Y-76912500D03*
X58000000Y-39300000D03*
X64000000Y-32400000D03*
X64000000Y-31700000D03*
X15000000Y-58100000D03*
X43100000Y-55700000D03*
X13000000Y-79700000D03*
X42000000Y-35200000D03*
D20*
X47750000Y-57450000D03*
D19*
X18800000Y-28500000D03*
X24700000Y-64500000D03*
X63800000Y-16400000D03*
X11750000Y-71150000D03*
X23900000Y-64500000D03*
X30200000Y-62800000D03*
X29100000Y-14500000D03*
X31000000Y-62000000D03*
X31300000Y-17600000D03*
X40900000Y-67100000D03*
X32600000Y-55600000D03*
X46100000Y-50200000D03*
X58000000Y-53000000D03*
X41900000Y-81300000D03*
X48600000Y-53300000D03*
X58900000Y-30100000D03*
X46400000Y-53100000D03*
X22300000Y-64500000D03*
X20500000Y-59000000D03*
X29700000Y-76612500D03*
X43100000Y-56500000D03*
X58000000Y-50900000D03*
X58000000Y-51600000D03*
X21300000Y-59000000D03*
X56700000Y-30100000D03*
X61300000Y-23700000D03*
X41900000Y-79700000D03*
X31000000Y-60400000D03*
X31300000Y-14500000D03*
X64000000Y-44700000D03*
X33000000Y-26000000D03*
X44700000Y-54900000D03*
X1800000Y-51000000D03*
X51300000Y-57300000D03*
D20*
X44900000Y-56700000D03*
D19*
X68500000Y-18800000D03*
X31000000Y-62800000D03*
X12800000Y-63800000D03*
X23100000Y-64500000D03*
X20900000Y-67500000D03*
X65500000Y-44700000D03*
X66700000Y-16200000D03*
X46900000Y-42400000D03*
X31600000Y-59800000D03*
X34300000Y-67600000D03*
X56500000Y-39300000D03*
X12600000Y-57800000D03*
X62500000Y-44700000D03*
X25000000Y-57300000D03*
X22100000Y-59000000D03*
D20*
X45400000Y-57200000D03*
D19*
X59500000Y-39300000D03*
X46400000Y-60800000D03*
X36100000Y-39200000D03*
X13400000Y-57800000D03*
X31000000Y-61200000D03*
D20*
X45900000Y-56700000D03*
D19*
X16200000Y-67700000D03*
X64000000Y-33100000D03*
X19400000Y-57300000D03*
X38700000Y-22600000D03*
X18600000Y-57300000D03*
X53500000Y-65200000D03*
X32200000Y-59200000D03*
X46400000Y-65300000D03*
X46400000Y-62300000D03*
X4300000Y-56900000D03*
X38240110Y-38299817D03*
X23500000Y-50600000D03*
X39900000Y-76100000D03*
X51300000Y-63900000D03*
X51300000Y-55800000D03*
X26400000Y-71200000D03*
X43100000Y-54900000D03*
X12800000Y-65400000D03*
X25500000Y-64500000D03*
X55700000Y-30100000D03*
X17900000Y-49300000D03*
X58000000Y-52300000D03*
X1900000Y-36200000D03*
X45400000Y-54900000D03*
X22900000Y-59000000D03*
X18600000Y-58900000D03*
X26100000Y-79700000D03*
X22300000Y-27075500D03*
X66300000Y-53900000D03*
X46100000Y-48800000D03*
X27000000Y-28900000D03*
X43900000Y-55700000D03*
X23900000Y-54900000D03*
X65300000Y-53900000D03*
X34300000Y-72200000D03*
X55300000Y-67800000D03*
D20*
X44900000Y-57700000D03*
D19*
X29300000Y-40100000D03*
X18600000Y-58100000D03*
X37000000Y-37800000D03*
X46100000Y-50900000D03*
X34600000Y-59200000D03*
X35844622Y-24055378D03*
X46200000Y-37800000D03*
X60700000Y-60300000D03*
X51300000Y-60300000D03*
X64000000Y-31000000D03*
X41100000Y-76700000D03*
X58000000Y-50200000D03*
X43900000Y-54900000D03*
X63100000Y-53900000D03*
X32700000Y-27500000D03*
X15000000Y-58900000D03*
X12800000Y-64600000D03*
X38500000Y-76300000D03*
X19700000Y-59000000D03*
X31000000Y-55600000D03*
X46100000Y-49500000D03*
X46400000Y-63800000D03*
X38900000Y-67600000D03*
X29800000Y-53200000D03*
X34600000Y-55600000D03*
%TO.N,+BATT*%
X2000000Y-42800000D03*
X7400000Y-60700000D03*
X21600000Y-41000000D03*
X17300000Y-41000000D03*
X900000Y-28500000D03*
%TO.N,+USB*%
X20400000Y-54600000D03*
X19600000Y-54600000D03*
X20400000Y-55400000D03*
X19600000Y-55400000D03*
X31000000Y-76612500D03*
X35400000Y-79312500D03*
X31400000Y-79212500D03*
X39200000Y-72800000D03*
X36000000Y-76612500D03*
%TO.N,+3V3*%
X17700000Y-30900000D03*
X43200000Y-64300000D03*
X18200000Y-32000000D03*
X34000000Y-53200000D03*
X43200000Y-62200000D03*
X33200000Y-53200000D03*
X43200000Y-61500000D03*
X32400000Y-51600000D03*
X18300000Y-70400000D03*
X25100000Y-50600000D03*
X41900000Y-72700000D03*
X43200000Y-63600000D03*
X2800000Y-51000000D03*
X34300000Y-60400000D03*
X34800000Y-53200000D03*
X43200000Y-60800000D03*
X19000000Y-32000000D03*
X43200000Y-65000000D03*
X43200000Y-62900000D03*
X6700000Y-54200000D03*
X32400000Y-52400000D03*
X32400000Y-53200000D03*
%TO.N,+9V*%
X54600000Y-60700000D03*
X53900000Y-60700000D03*
X43100000Y-49400000D03*
X66200000Y-22800000D03*
X43100000Y-52200000D03*
X66200000Y-22100000D03*
X43100000Y-53600000D03*
X43100000Y-50100000D03*
X50100000Y-51900000D03*
X61100000Y-53600000D03*
X45100000Y-51900000D03*
X43100000Y-50800000D03*
X55800000Y-61900000D03*
X60100000Y-30400000D03*
X61900000Y-53600000D03*
X67400000Y-23300000D03*
X66700000Y-23300000D03*
X43100000Y-48000000D03*
X55800000Y-61200000D03*
X55300000Y-60700000D03*
X43100000Y-48700000D03*
X60900000Y-30400000D03*
X43100000Y-52900000D03*
X43100000Y-51500000D03*
X68100000Y-23300000D03*
%TO.N,Net-(T1-PM)*%
X63700000Y-59400000D03*
X57900000Y-56500000D03*
X65700000Y-60100000D03*
X55300000Y-57600000D03*
X57900000Y-55800000D03*
X55300000Y-56800000D03*
X65700000Y-58000000D03*
X65700000Y-59400000D03*
X54500000Y-57600000D03*
X65700000Y-58700000D03*
X63700000Y-60100000D03*
X63700000Y-58700000D03*
X63700000Y-58000000D03*
%TO.N,Net-(T2-PM)*%
X56300000Y-23900000D03*
X56300000Y-26000000D03*
X58300000Y-26000000D03*
X58300000Y-25300000D03*
X66700000Y-27200000D03*
X56300000Y-25300000D03*
X64100000Y-27500000D03*
X64100000Y-28200000D03*
X67500000Y-26400000D03*
X56300000Y-24600000D03*
X58300000Y-24600000D03*
X66700000Y-26400000D03*
X58300000Y-23900000D03*
%TO.N,USB_DP*%
X32900000Y-76512500D03*
X34400000Y-76512500D03*
%TO.N,/Controller/BUTTON*%
X22200000Y-30700000D03*
X16800000Y-16600000D03*
%TO.N,/Controller/SCK*%
X17300000Y-67700000D03*
X7800000Y-39500000D03*
%TO.N,/Controller/MOSI*%
X4700000Y-37900000D03*
X19400000Y-70400000D03*
%TO.N,/Controller/LCD_A0*%
X15500000Y-50900000D03*
X14900000Y-25500000D03*
%TO.N,US1_SCK*%
X28500000Y-47700000D03*
X17400000Y-47600000D03*
%TO.N,/Controller/~USB_DTR*%
X4600000Y-74375000D03*
X8600000Y-71675000D03*
X29550000Y-72050000D03*
%TO.N,/Controller/GPIO0*%
X3200000Y-41000000D03*
X4700000Y-60500000D03*
%TO.N,US1_MOSI*%
X16300000Y-46900000D03*
X29100000Y-46900000D03*
%TO.N,US1_MISO*%
X30000000Y-46200000D03*
X17100000Y-46200000D03*
%TO.N,Net-(U2-VFB)*%
X26600000Y-63700000D03*
X33600000Y-62200000D03*
%TO.N,/Controller/USB_RX*%
X5375000Y-36200000D03*
X29700000Y-69100000D03*
%TO.N,/Controller/USB_TX*%
X3100000Y-38800000D03*
X29700000Y-70600000D03*
%TO.N,IP5306_BTN*%
X14100000Y-60400000D03*
X34100000Y-41600000D03*
%TO.N,/Controller/LCD_RES*%
X16800000Y-36200000D03*
X20200000Y-30600000D03*
%TO.N,US2_SCK*%
X16800000Y-51000000D03*
X31200000Y-45300000D03*
%TO.N,/Power Supply/SW*%
X28700000Y-60300000D03*
X27900000Y-60300000D03*
X28000000Y-56000000D03*
X28700000Y-61100000D03*
X28100000Y-54700000D03*
X28500000Y-54000000D03*
X27900000Y-61100000D03*
X28500000Y-55400000D03*
%TO.N,/Controller/LCD_CS*%
X18000000Y-50800000D03*
X17400000Y-20300000D03*
%TO.N,/Controller/SD_CS*%
X20530378Y-70419622D03*
X5570572Y-40292143D03*
%TO.N,/Controller/MISO*%
X7900000Y-38300000D03*
X15100000Y-67700000D03*
%TO.N,US2_MOSI*%
X21000000Y-39200000D03*
X32500000Y-45000000D03*
%TO.N,US2_MISO*%
X8000000Y-36600000D03*
X52600000Y-39700000D03*
X13500000Y-36600000D03*
X15600000Y-36600000D03*
%TO.N,PWR_EN*%
X45990734Y-59709266D03*
X46700000Y-40400000D03*
X47800000Y-37700000D03*
X34800000Y-24200000D03*
X41500000Y-60500000D03*
X38900000Y-41200000D03*
%TD*%
%TA.AperFunction,Conductor*%
%TO.N,GND*%
G36*
X11000000Y-46400000D02*
G01*
X6800000Y-46400000D01*
X6800000Y-42200000D01*
X11000000Y-42200000D01*
X11000000Y-46400000D01*
G37*
%TD.AperFunction*%
%TD*%
%TA.AperFunction,Conductor*%
%TO.N,GND*%
G36*
X6170725Y-63700499D02*
G01*
X6170727Y-63700500D01*
X6170734Y-63700500D01*
X7529273Y-63700500D01*
X7529273Y-63700499D01*
X7534598Y-63700000D01*
X9100000Y-63700000D01*
X9100000Y-67100000D01*
X4800000Y-67100000D01*
X4800000Y-65150000D01*
X5814918Y-65150000D01*
X5849665Y-65249304D01*
X5945574Y-65401944D01*
X6073055Y-65529425D01*
X6073054Y-65529425D01*
X6225697Y-65625336D01*
X6395850Y-65684875D01*
X6395854Y-65684876D01*
X6530081Y-65699999D01*
X6530084Y-65700000D01*
X6599999Y-65700000D01*
X6600000Y-65699999D01*
X6600000Y-65180617D01*
X6669052Y-65234363D01*
X6787424Y-65275000D01*
X6881073Y-65275000D01*
X6973446Y-65259586D01*
X7083514Y-65200019D01*
X7100000Y-65182110D01*
X7100000Y-65699999D01*
X7100001Y-65700000D01*
X7169916Y-65700000D01*
X7169918Y-65699999D01*
X7304145Y-65684876D01*
X7304149Y-65684875D01*
X7474302Y-65625336D01*
X7626944Y-65529425D01*
X7754425Y-65401944D01*
X7850334Y-65249304D01*
X7885082Y-65150000D01*
X7129560Y-65150000D01*
X7168278Y-65107941D01*
X7218551Y-64993330D01*
X7228886Y-64868605D01*
X7198163Y-64747281D01*
X7134606Y-64650000D01*
X7885082Y-64650000D01*
X7850334Y-64550695D01*
X7754425Y-64398055D01*
X7626944Y-64270574D01*
X7626945Y-64270574D01*
X7474302Y-64174663D01*
X7304149Y-64115124D01*
X7304145Y-64115123D01*
X7169918Y-64100000D01*
X7100001Y-64100000D01*
X7100000Y-64100001D01*
X7100000Y-64619382D01*
X7030948Y-64565637D01*
X6912576Y-64525000D01*
X6818927Y-64525000D01*
X6726554Y-64540414D01*
X6616486Y-64599981D01*
X6600000Y-64617889D01*
X6600000Y-64100001D01*
X6599999Y-64100000D01*
X6530081Y-64100000D01*
X6395854Y-64115123D01*
X6395850Y-64115124D01*
X6225697Y-64174663D01*
X6073055Y-64270574D01*
X5945574Y-64398055D01*
X5849665Y-64550695D01*
X5814918Y-64650000D01*
X6570440Y-64650000D01*
X6531722Y-64692059D01*
X6481449Y-64806670D01*
X6471114Y-64931395D01*
X6501837Y-65052719D01*
X6565394Y-65150000D01*
X5814918Y-65150000D01*
X4800000Y-65150000D01*
X4800000Y-63700000D01*
X6165402Y-63700000D01*
X6170725Y-63700499D01*
G37*
%TD.AperFunction*%
%TD*%
%TA.AperFunction,Conductor*%
%TO.N,GND*%
G36*
X55581090Y-7318907D02*
G01*
X55617054Y-7368407D01*
X55617054Y-7429593D01*
X55581090Y-7479093D01*
X55558661Y-7491315D01*
X55507588Y-7511100D01*
X55507583Y-7511102D01*
X55419311Y-7565757D01*
X55828432Y-7974878D01*
X55711541Y-8025651D01*
X55594260Y-8121066D01*
X55507071Y-8244585D01*
X55476643Y-8330199D01*
X55062532Y-7916087D01*
X55060752Y-7918445D01*
X55060749Y-7918449D01*
X54969886Y-8100929D01*
X54914096Y-8297010D01*
X54895286Y-8500000D01*
X54914096Y-8702989D01*
X54969886Y-8899070D01*
X55060750Y-9081551D01*
X55062531Y-9083911D01*
X55474068Y-8672373D01*
X55476883Y-8685915D01*
X55546441Y-8820156D01*
X55649637Y-8930652D01*
X55778818Y-9009209D01*
X55830001Y-9023550D01*
X55419311Y-9434241D01*
X55507580Y-9488895D01*
X55507585Y-9488898D01*
X55697682Y-9562541D01*
X55898069Y-9600000D01*
X56101929Y-9600000D01*
X56302315Y-9562541D01*
X56492414Y-9488897D01*
X56492415Y-9488897D01*
X56580685Y-9434241D01*
X56171565Y-9025121D01*
X56288457Y-8974349D01*
X56405738Y-8878934D01*
X56492927Y-8755415D01*
X56523354Y-8669800D01*
X56937465Y-9083911D01*
X56939244Y-9081556D01*
X56939248Y-9081549D01*
X57030111Y-8899070D01*
X57085901Y-8702989D01*
X57104711Y-8500000D01*
X57085901Y-8297010D01*
X57030111Y-8100929D01*
X56939248Y-7918450D01*
X56939243Y-7918441D01*
X56937465Y-7916087D01*
X56525928Y-8327623D01*
X56523115Y-8314085D01*
X56453557Y-8179844D01*
X56350361Y-8069348D01*
X56221180Y-7990791D01*
X56169992Y-7976449D01*
X56580685Y-7565757D01*
X56492417Y-7511104D01*
X56492409Y-7511100D01*
X56441337Y-7491315D01*
X56393905Y-7452664D01*
X56378251Y-7393515D01*
X56400353Y-7336461D01*
X56451770Y-7303295D01*
X56477099Y-7300000D01*
X57301000Y-7300000D01*
X57359191Y-7318907D01*
X57395155Y-7368407D01*
X57400000Y-7399000D01*
X57400000Y-12800000D01*
X69401000Y-12800000D01*
X69459191Y-12818907D01*
X69495155Y-12868407D01*
X69500000Y-12899000D01*
X69500000Y-80458992D01*
X69481093Y-80517183D01*
X69471004Y-80528996D01*
X66528996Y-83471004D01*
X66474479Y-83498781D01*
X66458992Y-83500000D01*
X38353774Y-83500000D01*
X38295583Y-83481093D01*
X38259619Y-83431593D01*
X38259619Y-83370407D01*
X38267020Y-83353306D01*
X38334157Y-83231184D01*
X38374999Y-83072116D01*
X38375000Y-83072111D01*
X38375000Y-82840001D01*
X38374999Y-82840000D01*
X38025000Y-82840000D01*
X38025000Y-82340000D01*
X38374999Y-82340000D01*
X38375000Y-82339999D01*
X38375000Y-82149104D01*
X38359584Y-82027072D01*
X38359582Y-82027065D01*
X38299126Y-81874372D01*
X38299126Y-81874371D01*
X38202595Y-81741507D01*
X38076054Y-81636824D01*
X37975000Y-81589272D01*
X37975000Y-82023889D01*
X37950543Y-81984390D01*
X37861038Y-81916799D01*
X37753160Y-81886105D01*
X37641479Y-81896454D01*
X37541078Y-81946448D01*
X37475000Y-82018930D01*
X37475000Y-81587779D01*
X37446044Y-81597188D01*
X37307382Y-81685185D01*
X37307380Y-81685187D01*
X37194959Y-81804902D01*
X37115842Y-81948815D01*
X37075000Y-82107883D01*
X37075000Y-82339999D01*
X37075001Y-82340000D01*
X37425000Y-82340000D01*
X37425000Y-82840000D01*
X37075001Y-82840000D01*
X37075000Y-82840001D01*
X37075000Y-83030895D01*
X37090415Y-83152927D01*
X37090417Y-83152934D01*
X37150873Y-83305627D01*
X37150873Y-83305628D01*
X37177887Y-83342809D01*
X37196794Y-83401000D01*
X37177887Y-83459191D01*
X37128387Y-83495155D01*
X37097794Y-83500000D01*
X29703774Y-83500000D01*
X29645583Y-83481093D01*
X29609619Y-83431593D01*
X29609619Y-83370407D01*
X29617020Y-83353306D01*
X29684157Y-83231184D01*
X29724999Y-83072116D01*
X29725000Y-83072111D01*
X29725000Y-82840001D01*
X29724999Y-82840000D01*
X29375000Y-82840000D01*
X29375000Y-82340000D01*
X29724999Y-82340000D01*
X29725000Y-82339999D01*
X29725000Y-82149104D01*
X29709584Y-82027072D01*
X29709582Y-82027065D01*
X29649126Y-81874372D01*
X29649126Y-81874371D01*
X29552595Y-81741507D01*
X29426054Y-81636824D01*
X29325000Y-81589272D01*
X29325000Y-82023889D01*
X29300543Y-81984390D01*
X29211038Y-81916799D01*
X29103160Y-81886105D01*
X28991479Y-81896454D01*
X28891078Y-81946448D01*
X28825000Y-82018930D01*
X28825000Y-81587779D01*
X28796044Y-81597188D01*
X28657382Y-81685185D01*
X28657380Y-81685187D01*
X28544959Y-81804902D01*
X28465842Y-81948815D01*
X28425000Y-82107883D01*
X28425000Y-82339999D01*
X28425001Y-82340000D01*
X28775000Y-82340000D01*
X28775000Y-82840000D01*
X28425001Y-82840000D01*
X28425000Y-82840001D01*
X28425000Y-83030895D01*
X28440415Y-83152927D01*
X28440417Y-83152934D01*
X28500873Y-83305627D01*
X28500873Y-83305628D01*
X28527887Y-83342809D01*
X28546794Y-83401000D01*
X28527887Y-83459191D01*
X28478387Y-83495155D01*
X28447794Y-83500000D01*
X23299000Y-83500000D01*
X23240809Y-83481093D01*
X23204845Y-83431593D01*
X23200000Y-83401000D01*
X23200000Y-80700001D01*
X23200000Y-80700000D01*
X13700000Y-80700000D01*
X13700000Y-80700001D01*
X13700000Y-83401000D01*
X13681093Y-83459191D01*
X13631593Y-83495155D01*
X13601000Y-83500000D01*
X3541008Y-83500000D01*
X3482817Y-83481093D01*
X3471004Y-83471004D01*
X528996Y-80528996D01*
X501219Y-80474479D01*
X500000Y-80458992D01*
X500000Y-80067765D01*
X2145788Y-80067765D01*
X2175414Y-80337020D01*
X2243927Y-80599085D01*
X2243928Y-80599088D01*
X2349870Y-80848390D01*
X2421999Y-80966577D01*
X2490983Y-81079612D01*
X2580252Y-81186880D01*
X2664255Y-81287820D01*
X2865998Y-81468582D01*
X3048421Y-81589272D01*
X3091913Y-81618046D01*
X3224100Y-81680012D01*
X3337176Y-81733020D01*
X3482628Y-81776780D01*
X3596555Y-81811056D01*
X3596559Y-81811057D01*
X3596569Y-81811060D01*
X3763840Y-81835677D01*
X3864560Y-81850500D01*
X3864561Y-81850500D01*
X4067631Y-81850500D01*
X4270156Y-81835677D01*
X4534553Y-81776780D01*
X4787558Y-81680014D01*
X5023777Y-81547441D01*
X5238177Y-81381888D01*
X5426186Y-81186881D01*
X5583799Y-80966579D01*
X5707656Y-80725675D01*
X5795118Y-80469305D01*
X5844319Y-80202933D01*
X5852558Y-79977492D01*
X14054353Y-79977492D01*
X14061536Y-80027449D01*
X14062544Y-80041539D01*
X14062544Y-80049014D01*
X14063713Y-80052996D01*
X14064650Y-80056188D01*
X14067649Y-80069977D01*
X14074835Y-80119948D01*
X14074836Y-80119951D01*
X14095802Y-80165859D01*
X14100738Y-80179091D01*
X14102845Y-80186267D01*
X14106888Y-80192558D01*
X14113653Y-80204946D01*
X14134623Y-80250864D01*
X14134624Y-80250865D01*
X14167678Y-80289013D01*
X14176141Y-80300318D01*
X14180181Y-80306604D01*
X14180182Y-80306605D01*
X14185825Y-80311495D01*
X14185827Y-80311496D01*
X14195815Y-80321484D01*
X14228872Y-80359634D01*
X14271346Y-80386930D01*
X14282637Y-80395383D01*
X14288290Y-80400281D01*
X14288291Y-80400281D01*
X14288293Y-80400283D01*
X14295081Y-80403383D01*
X14307478Y-80410150D01*
X14349947Y-80437444D01*
X14398380Y-80451665D01*
X14411613Y-80456601D01*
X14418404Y-80459702D01*
X14418405Y-80459702D01*
X14418409Y-80459704D01*
X14425805Y-80460767D01*
X14439599Y-80463767D01*
X14455308Y-80468380D01*
X14488033Y-80477990D01*
X14488038Y-80477990D01*
X14488039Y-80477991D01*
X14488040Y-80477991D01*
X14538517Y-80477991D01*
X14552605Y-80478998D01*
X14560000Y-80480062D01*
X14567394Y-80478998D01*
X14581483Y-80477991D01*
X14631960Y-80477991D01*
X14631961Y-80477991D01*
X14680409Y-80463765D01*
X14694181Y-80460769D01*
X14701591Y-80459704D01*
X14708391Y-80456598D01*
X14721614Y-80451666D01*
X14770053Y-80437444D01*
X14812528Y-80410146D01*
X14824906Y-80403388D01*
X14831710Y-80400281D01*
X14837364Y-80395381D01*
X14848657Y-80386927D01*
X14891128Y-80359634D01*
X14924190Y-80321477D01*
X14934162Y-80311505D01*
X14939818Y-80306605D01*
X14943861Y-80300313D01*
X14952312Y-80289023D01*
X14985377Y-80250864D01*
X15006353Y-80204931D01*
X15013107Y-80192564D01*
X15017155Y-80186267D01*
X15019262Y-80179089D01*
X15024188Y-80165878D01*
X15045165Y-80119948D01*
X15052350Y-80069971D01*
X15055348Y-80056191D01*
X15057456Y-80049014D01*
X15057955Y-80034969D01*
X15058897Y-80024434D01*
X15065647Y-79977492D01*
X22054353Y-79977492D01*
X22061536Y-80027449D01*
X22062544Y-80041539D01*
X22062544Y-80049014D01*
X22063713Y-80052996D01*
X22064650Y-80056188D01*
X22067649Y-80069977D01*
X22074835Y-80119948D01*
X22074836Y-80119951D01*
X22095802Y-80165859D01*
X22100738Y-80179091D01*
X22102845Y-80186267D01*
X22106888Y-80192558D01*
X22113653Y-80204946D01*
X22134623Y-80250864D01*
X22134624Y-80250865D01*
X22167678Y-80289013D01*
X22176141Y-80300318D01*
X22180181Y-80306604D01*
X22180182Y-80306605D01*
X22185825Y-80311495D01*
X22185827Y-80311496D01*
X22195815Y-80321484D01*
X22228872Y-80359634D01*
X22271346Y-80386930D01*
X22282637Y-80395383D01*
X22288290Y-80400281D01*
X22288291Y-80400281D01*
X22288293Y-80400283D01*
X22295081Y-80403383D01*
X22307478Y-80410150D01*
X22349947Y-80437444D01*
X22398380Y-80451665D01*
X22411613Y-80456601D01*
X22418404Y-80459702D01*
X22418405Y-80459702D01*
X22418409Y-80459704D01*
X22425805Y-80460767D01*
X22439599Y-80463767D01*
X22455308Y-80468380D01*
X22488033Y-80477990D01*
X22488038Y-80477990D01*
X22488039Y-80477991D01*
X22488040Y-80477991D01*
X22538517Y-80477991D01*
X22552605Y-80478998D01*
X22560000Y-80480062D01*
X22567394Y-80478998D01*
X22581483Y-80477991D01*
X22631960Y-80477991D01*
X22631961Y-80477991D01*
X22680409Y-80463765D01*
X22694181Y-80460769D01*
X22701591Y-80459704D01*
X22708391Y-80456598D01*
X22721614Y-80451666D01*
X22770053Y-80437444D01*
X22812528Y-80410146D01*
X22824906Y-80403388D01*
X22831710Y-80400281D01*
X22837364Y-80395381D01*
X22848657Y-80386927D01*
X22891128Y-80359634D01*
X22924190Y-80321477D01*
X22934162Y-80311505D01*
X22939818Y-80306605D01*
X22943861Y-80300313D01*
X22952312Y-80289023D01*
X22985377Y-80250864D01*
X23006353Y-80204931D01*
X23013107Y-80192564D01*
X23017155Y-80186267D01*
X23019262Y-80179089D01*
X23024188Y-80165878D01*
X23045165Y-80119948D01*
X23052350Y-80069971D01*
X23052830Y-80067765D01*
X47145788Y-80067765D01*
X47175414Y-80337020D01*
X47243927Y-80599085D01*
X47243928Y-80599088D01*
X47349870Y-80848390D01*
X47421999Y-80966577D01*
X47490983Y-81079612D01*
X47580252Y-81186880D01*
X47664255Y-81287820D01*
X47865998Y-81468582D01*
X48048421Y-81589272D01*
X48091913Y-81618046D01*
X48224100Y-81680012D01*
X48337176Y-81733020D01*
X48482628Y-81776780D01*
X48596555Y-81811056D01*
X48596559Y-81811057D01*
X48596569Y-81811060D01*
X48763840Y-81835677D01*
X48864560Y-81850500D01*
X48864561Y-81850500D01*
X49067631Y-81850500D01*
X49270156Y-81835677D01*
X49534553Y-81776780D01*
X49787558Y-81680014D01*
X50023777Y-81547441D01*
X50238177Y-81381888D01*
X50426186Y-81186881D01*
X50583799Y-80966579D01*
X50707656Y-80725675D01*
X50795118Y-80469305D01*
X50844319Y-80202933D01*
X50854212Y-79932235D01*
X50824586Y-79662982D01*
X50756072Y-79400912D01*
X50650130Y-79151610D01*
X50509018Y-78920390D01*
X50504325Y-78914751D01*
X50335746Y-78712181D01*
X50134007Y-78531422D01*
X50134004Y-78531420D01*
X50134002Y-78531418D01*
X49984489Y-78432501D01*
X49908086Y-78381953D01*
X49662822Y-78266979D01*
X49403444Y-78188943D01*
X49403428Y-78188939D01*
X49135440Y-78149500D01*
X49135439Y-78149500D01*
X48932369Y-78149500D01*
X48729848Y-78164322D01*
X48465450Y-78223219D01*
X48212439Y-78319987D01*
X47976219Y-78452561D01*
X47761826Y-78618108D01*
X47573814Y-78813119D01*
X47416199Y-79033422D01*
X47292342Y-79274328D01*
X47204884Y-79530687D01*
X47204881Y-79530698D01*
X47155680Y-79797069D01*
X47145788Y-80067765D01*
X23052830Y-80067765D01*
X23055348Y-80056191D01*
X23057456Y-80049014D01*
X23057955Y-80034969D01*
X23058897Y-80024434D01*
X23065647Y-79977491D01*
X23058898Y-79930551D01*
X23057955Y-79920010D01*
X23057456Y-79905968D01*
X23055349Y-79898791D01*
X23052349Y-79885000D01*
X23045165Y-79835034D01*
X23024194Y-79789115D01*
X23019260Y-79775884D01*
X23017156Y-79768718D01*
X23017154Y-79768713D01*
X23013118Y-79762434D01*
X23006345Y-79750031D01*
X22985377Y-79704118D01*
X22985375Y-79704116D01*
X22952323Y-79665971D01*
X22943858Y-79654663D01*
X22942367Y-79652343D01*
X22939818Y-79648377D01*
X22934167Y-79643480D01*
X22924184Y-79633497D01*
X22895154Y-79599994D01*
X22891129Y-79595348D01*
X22848662Y-79568057D01*
X22837359Y-79559596D01*
X22831710Y-79554701D01*
X22831708Y-79554700D01*
X22831708Y-79554699D01*
X22824908Y-79551594D01*
X22812516Y-79544827D01*
X22770052Y-79517537D01*
X22770050Y-79517536D01*
X22721615Y-79503314D01*
X22708389Y-79498382D01*
X22701593Y-79495279D01*
X22701591Y-79495278D01*
X22694192Y-79494214D01*
X22680398Y-79491213D01*
X22631963Y-79476991D01*
X22631961Y-79476991D01*
X22581483Y-79476991D01*
X22567394Y-79475983D01*
X22560000Y-79474920D01*
X22552605Y-79475983D01*
X22538517Y-79476991D01*
X22488039Y-79476991D01*
X22488037Y-79476991D01*
X22488033Y-79476992D01*
X22439602Y-79491212D01*
X22425811Y-79494213D01*
X22418406Y-79495278D01*
X22411602Y-79498385D01*
X22398380Y-79503315D01*
X22349950Y-79517536D01*
X22349948Y-79517537D01*
X22307478Y-79544829D01*
X22295095Y-79551592D01*
X22288289Y-79554700D01*
X22288289Y-79554701D01*
X22282639Y-79559596D01*
X22271341Y-79568053D01*
X22228874Y-79595345D01*
X22224846Y-79599994D01*
X22195815Y-79633497D01*
X22185833Y-79643480D01*
X22180182Y-79648376D01*
X22180178Y-79648381D01*
X22176136Y-79654670D01*
X22167678Y-79665968D01*
X22134624Y-79704116D01*
X22113654Y-79750032D01*
X22106889Y-79762421D01*
X22102847Y-79768710D01*
X22102843Y-79768718D01*
X22100738Y-79775889D01*
X22095804Y-79789116D01*
X22074835Y-79835032D01*
X22067650Y-79885000D01*
X22064650Y-79898791D01*
X22062544Y-79905965D01*
X22062544Y-79913441D01*
X22061536Y-79927530D01*
X22054353Y-79977489D01*
X22054353Y-79977492D01*
X15065647Y-79977492D01*
X15065647Y-79977491D01*
X15058898Y-79930551D01*
X15057955Y-79920010D01*
X15057456Y-79905968D01*
X15055349Y-79898791D01*
X15052349Y-79885000D01*
X15045165Y-79835034D01*
X15024194Y-79789115D01*
X15019260Y-79775884D01*
X15017156Y-79768718D01*
X15017154Y-79768713D01*
X15013118Y-79762434D01*
X15006345Y-79750031D01*
X14985377Y-79704118D01*
X14985375Y-79704116D01*
X14952323Y-79665971D01*
X14943858Y-79654663D01*
X14942367Y-79652343D01*
X14939818Y-79648377D01*
X14934167Y-79643480D01*
X14924184Y-79633497D01*
X14895154Y-79599994D01*
X14891129Y-79595348D01*
X14848662Y-79568057D01*
X14837359Y-79559596D01*
X14831710Y-79554701D01*
X14831708Y-79554700D01*
X14831708Y-79554699D01*
X14824908Y-79551594D01*
X14812516Y-79544827D01*
X14770052Y-79517537D01*
X14770050Y-79517536D01*
X14721615Y-79503314D01*
X14708389Y-79498382D01*
X14701593Y-79495279D01*
X14701591Y-79495278D01*
X14694192Y-79494214D01*
X14680398Y-79491213D01*
X14631963Y-79476991D01*
X14631961Y-79476991D01*
X14581483Y-79476991D01*
X14567394Y-79475983D01*
X14560000Y-79474920D01*
X14552605Y-79475983D01*
X14538517Y-79476991D01*
X14488039Y-79476991D01*
X14488037Y-79476991D01*
X14488033Y-79476992D01*
X14439602Y-79491212D01*
X14425811Y-79494213D01*
X14418406Y-79495278D01*
X14411602Y-79498385D01*
X14398380Y-79503315D01*
X14349950Y-79517536D01*
X14349948Y-79517537D01*
X14307478Y-79544829D01*
X14295095Y-79551592D01*
X14288289Y-79554700D01*
X14288289Y-79554701D01*
X14282639Y-79559596D01*
X14271341Y-79568053D01*
X14228874Y-79595345D01*
X14224846Y-79599994D01*
X14195815Y-79633497D01*
X14185833Y-79643480D01*
X14180182Y-79648376D01*
X14180178Y-79648381D01*
X14176136Y-79654670D01*
X14167678Y-79665968D01*
X14134624Y-79704116D01*
X14113654Y-79750032D01*
X14106889Y-79762421D01*
X14102847Y-79768710D01*
X14102843Y-79768718D01*
X14100738Y-79775889D01*
X14095804Y-79789116D01*
X14074835Y-79835032D01*
X14067650Y-79885000D01*
X14064650Y-79898791D01*
X14062544Y-79905965D01*
X14062544Y-79913441D01*
X14061536Y-79927530D01*
X14054353Y-79977489D01*
X14054353Y-79977492D01*
X5852558Y-79977492D01*
X5854212Y-79932235D01*
X5824586Y-79662982D01*
X5756072Y-79400912D01*
X5650130Y-79151610D01*
X5558150Y-79000895D01*
X28425000Y-79000895D01*
X28440415Y-79122927D01*
X28440417Y-79122934D01*
X28500873Y-79275627D01*
X28500873Y-79275628D01*
X28597404Y-79408492D01*
X28723944Y-79513174D01*
X28825000Y-79560726D01*
X28825000Y-79126110D01*
X28849457Y-79165610D01*
X28938962Y-79233201D01*
X29046840Y-79263895D01*
X29158521Y-79253546D01*
X29258922Y-79203552D01*
X29325000Y-79131069D01*
X29325000Y-79562219D01*
X29353955Y-79552811D01*
X29492617Y-79464814D01*
X29492619Y-79464812D01*
X29605040Y-79345097D01*
X29684157Y-79201184D01*
X29724999Y-79042116D01*
X29725000Y-79042111D01*
X29725000Y-78910000D01*
X30204864Y-78910000D01*
X30223265Y-79014361D01*
X30223265Y-79014362D01*
X30223266Y-79014363D01*
X30276251Y-79106137D01*
X30276253Y-79106139D01*
X30355615Y-79172732D01*
X30357432Y-79174256D01*
X30363336Y-79176405D01*
X30368523Y-79178293D01*
X30373391Y-79180382D01*
X30373974Y-79180548D01*
X30380720Y-79182731D01*
X30457014Y-79210500D01*
X30457016Y-79210500D01*
X30468787Y-79210500D01*
X30477923Y-79210922D01*
X30482073Y-79211306D01*
X30482080Y-79211308D01*
X30485975Y-79210946D01*
X30486246Y-79210922D01*
X30495379Y-79210500D01*
X30562985Y-79210500D01*
X30562986Y-79210500D01*
X30575633Y-79205896D01*
X30584104Y-79203996D01*
X30583980Y-79203559D01*
X30592807Y-79201047D01*
X30592810Y-79201047D01*
X30598265Y-79198330D01*
X30608525Y-79193925D01*
X30639255Y-79182741D01*
X30667578Y-79172433D01*
X30728726Y-79170299D01*
X30779450Y-79204514D01*
X30799589Y-79252541D01*
X30814955Y-79369258D01*
X30814957Y-79369266D01*
X30875462Y-79515338D01*
X30875462Y-79515339D01*
X30966125Y-79633493D01*
X30971718Y-79640782D01*
X31097159Y-79737036D01*
X31097160Y-79737036D01*
X31097161Y-79737037D01*
X31173634Y-79768713D01*
X31243238Y-79797544D01*
X31360809Y-79813022D01*
X31399999Y-79818182D01*
X31400000Y-79818182D01*
X31400001Y-79818182D01*
X31431352Y-79814054D01*
X31556762Y-79797544D01*
X31702841Y-79737036D01*
X31828282Y-79640782D01*
X31924536Y-79515341D01*
X31985044Y-79369262D01*
X31992517Y-79312500D01*
X34794318Y-79312500D01*
X34814955Y-79469258D01*
X34814957Y-79469266D01*
X34875462Y-79615338D01*
X34875462Y-79615339D01*
X34968844Y-79737037D01*
X34971718Y-79740782D01*
X34971722Y-79740785D01*
X34971723Y-79740786D01*
X34983773Y-79750032D01*
X35097159Y-79837036D01*
X35243238Y-79897544D01*
X35360809Y-79913022D01*
X35399999Y-79918182D01*
X35400000Y-79918182D01*
X35400001Y-79918182D01*
X35436012Y-79913441D01*
X35556762Y-79897544D01*
X35702841Y-79837036D01*
X35828282Y-79740782D01*
X35924536Y-79615341D01*
X35985044Y-79469262D01*
X36005682Y-79312500D01*
X36001229Y-79278680D01*
X36012378Y-79218523D01*
X36056760Y-79176405D01*
X36117421Y-79168417D01*
X36133247Y-79172732D01*
X36137430Y-79174255D01*
X36137432Y-79174256D01*
X36145384Y-79177150D01*
X36148526Y-79178294D01*
X36153392Y-79180382D01*
X36153974Y-79180548D01*
X36160720Y-79182731D01*
X36237014Y-79210500D01*
X36237016Y-79210500D01*
X36248787Y-79210500D01*
X36257923Y-79210922D01*
X36262073Y-79211306D01*
X36262080Y-79211308D01*
X36265975Y-79210946D01*
X36266246Y-79210922D01*
X36275379Y-79210500D01*
X36342985Y-79210500D01*
X36342986Y-79210500D01*
X36355633Y-79205896D01*
X36364104Y-79203996D01*
X36363980Y-79203559D01*
X36372807Y-79201047D01*
X36372810Y-79201047D01*
X36378265Y-79198330D01*
X36388525Y-79193925D01*
X36442568Y-79174256D01*
X36456859Y-79162264D01*
X36466039Y-79156250D01*
X36472349Y-79151484D01*
X36472351Y-79151481D01*
X36472356Y-79151479D01*
X36476515Y-79146916D01*
X36486011Y-79137802D01*
X36523748Y-79106138D01*
X36535764Y-79085325D01*
X36546110Y-79071178D01*
X36547271Y-79069303D01*
X36547272Y-79069300D01*
X36547274Y-79069298D01*
X36549120Y-79064531D01*
X36555690Y-79050811D01*
X36576734Y-79014363D01*
X36579109Y-79000895D01*
X37075000Y-79000895D01*
X37090415Y-79122927D01*
X37090417Y-79122934D01*
X37150873Y-79275627D01*
X37150873Y-79275628D01*
X37247404Y-79408492D01*
X37373944Y-79513174D01*
X37475000Y-79560726D01*
X37475000Y-79126110D01*
X37499457Y-79165610D01*
X37588962Y-79233201D01*
X37696840Y-79263895D01*
X37808521Y-79253546D01*
X37908922Y-79203552D01*
X37975000Y-79131069D01*
X37975000Y-79562219D01*
X38003955Y-79552811D01*
X38142617Y-79464814D01*
X38142619Y-79464812D01*
X38255040Y-79345097D01*
X38334157Y-79201184D01*
X38374999Y-79042116D01*
X38375000Y-79042111D01*
X38375000Y-78660001D01*
X38374999Y-78660000D01*
X38025000Y-78660000D01*
X38025000Y-78160000D01*
X38374999Y-78160000D01*
X38375000Y-78159999D01*
X38375000Y-77819104D01*
X38359584Y-77697072D01*
X38359582Y-77697065D01*
X38299126Y-77544372D01*
X38299126Y-77544371D01*
X38202595Y-77411507D01*
X38076054Y-77306824D01*
X37975000Y-77259272D01*
X37975000Y-77693889D01*
X37950543Y-77654390D01*
X37861038Y-77586799D01*
X37753160Y-77556105D01*
X37641479Y-77566454D01*
X37541078Y-77616448D01*
X37475000Y-77688930D01*
X37475000Y-77257779D01*
X37446044Y-77267188D01*
X37307382Y-77355185D01*
X37307380Y-77355187D01*
X37194959Y-77474902D01*
X37115842Y-77618815D01*
X37075000Y-77777883D01*
X37075000Y-78159999D01*
X37075001Y-78160000D01*
X37425000Y-78160000D01*
X37425000Y-78660000D01*
X37075001Y-78660000D01*
X37075000Y-78660001D01*
X37075000Y-79000895D01*
X36579109Y-79000895D01*
X36581884Y-78985155D01*
X36587064Y-78966586D01*
X36587446Y-78965602D01*
X36587898Y-78955753D01*
X36589297Y-78943113D01*
X36593304Y-78920390D01*
X36595136Y-78910002D01*
X36591244Y-78887930D01*
X36589295Y-78876875D01*
X36587898Y-78864244D01*
X36587446Y-78854398D01*
X36587064Y-78853411D01*
X36581883Y-78834841D01*
X36576734Y-78805637D01*
X36576734Y-78805636D01*
X36576733Y-78805634D01*
X36555696Y-78769197D01*
X36549117Y-78755459D01*
X36548793Y-78754623D01*
X36547274Y-78750702D01*
X36547272Y-78750700D01*
X36546120Y-78748837D01*
X36535762Y-78734671D01*
X36523749Y-78713863D01*
X36523748Y-78713862D01*
X36486021Y-78682205D01*
X36476502Y-78673069D01*
X36472356Y-78668521D01*
X36466046Y-78663756D01*
X36456859Y-78657735D01*
X36442571Y-78645746D01*
X36442569Y-78645744D01*
X36442568Y-78645744D01*
X36442566Y-78645743D01*
X36442564Y-78645742D01*
X36388527Y-78626074D01*
X36378261Y-78621667D01*
X36372810Y-78618953D01*
X36363988Y-78616443D01*
X36364111Y-78616007D01*
X36355642Y-78614106D01*
X36342986Y-78609500D01*
X36275379Y-78609500D01*
X36266246Y-78609078D01*
X36262083Y-78608692D01*
X36262081Y-78608692D01*
X36262080Y-78608692D01*
X36262078Y-78608692D01*
X36257923Y-78609078D01*
X36248787Y-78609500D01*
X36237012Y-78609500D01*
X36160732Y-78637262D01*
X36154011Y-78639440D01*
X36153411Y-78639610D01*
X36148544Y-78641699D01*
X36137431Y-78645744D01*
X36137430Y-78645745D01*
X36056253Y-78713860D01*
X36003265Y-78805638D01*
X35998281Y-78833907D01*
X35969555Y-78887930D01*
X35914562Y-78914751D01*
X35854306Y-78904125D01*
X35830781Y-78886718D01*
X35828285Y-78884222D01*
X35828282Y-78884218D01*
X35828277Y-78884214D01*
X35828276Y-78884213D01*
X35735624Y-78813119D01*
X35702841Y-78787964D01*
X35702840Y-78787963D01*
X35702838Y-78787962D01*
X35556766Y-78727457D01*
X35556758Y-78727455D01*
X35400001Y-78706818D01*
X35399999Y-78706818D01*
X35243241Y-78727455D01*
X35243233Y-78727457D01*
X35097161Y-78787962D01*
X35097160Y-78787962D01*
X34971723Y-78884213D01*
X34971713Y-78884223D01*
X34875462Y-79009660D01*
X34875462Y-79009661D01*
X34814957Y-79155733D01*
X34814955Y-79155741D01*
X34794318Y-79312499D01*
X34794318Y-79312500D01*
X31992517Y-79312500D01*
X32005682Y-79212500D01*
X32005477Y-79210946D01*
X31998209Y-79155738D01*
X31985044Y-79055738D01*
X31965958Y-79009660D01*
X31924537Y-78909661D01*
X31924537Y-78909660D01*
X31828286Y-78784223D01*
X31828285Y-78784222D01*
X31828282Y-78784218D01*
X31828277Y-78784214D01*
X31828276Y-78784213D01*
X31702838Y-78687962D01*
X31556766Y-78627457D01*
X31556758Y-78627455D01*
X31400001Y-78606818D01*
X31399999Y-78606818D01*
X31243241Y-78627455D01*
X31243233Y-78627457D01*
X31097161Y-78687962D01*
X31097160Y-78687962D01*
X30971723Y-78784213D01*
X30971712Y-78784224D01*
X30955004Y-78805999D01*
X30904580Y-78840654D01*
X30843415Y-78839052D01*
X30794874Y-78801804D01*
X30790727Y-78795232D01*
X30775696Y-78769198D01*
X30769117Y-78755459D01*
X30768793Y-78754623D01*
X30767274Y-78750702D01*
X30767272Y-78750700D01*
X30766120Y-78748837D01*
X30755762Y-78734671D01*
X30743749Y-78713863D01*
X30743748Y-78713862D01*
X30706021Y-78682205D01*
X30696502Y-78673069D01*
X30692356Y-78668521D01*
X30686046Y-78663756D01*
X30676859Y-78657735D01*
X30662571Y-78645746D01*
X30662569Y-78645744D01*
X30662568Y-78645744D01*
X30662566Y-78645743D01*
X30662564Y-78645742D01*
X30608527Y-78626074D01*
X30598261Y-78621667D01*
X30592810Y-78618953D01*
X30583988Y-78616443D01*
X30584111Y-78616007D01*
X30575642Y-78614106D01*
X30562986Y-78609500D01*
X30495379Y-78609500D01*
X30486246Y-78609078D01*
X30482083Y-78608692D01*
X30482081Y-78608692D01*
X30482080Y-78608692D01*
X30482078Y-78608692D01*
X30477923Y-78609078D01*
X30468787Y-78609500D01*
X30457012Y-78609500D01*
X30380732Y-78637262D01*
X30374011Y-78639440D01*
X30373411Y-78639610D01*
X30368544Y-78641699D01*
X30357431Y-78645744D01*
X30357430Y-78645745D01*
X30276253Y-78713860D01*
X30223265Y-78805638D01*
X30204864Y-78910000D01*
X29725000Y-78910000D01*
X29725000Y-78660001D01*
X29724999Y-78660000D01*
X29375000Y-78660000D01*
X29375000Y-78160000D01*
X29724999Y-78160000D01*
X29725000Y-78159999D01*
X29725000Y-77819104D01*
X29709584Y-77697072D01*
X29709582Y-77697065D01*
X29649126Y-77544372D01*
X29649126Y-77544371D01*
X29552595Y-77411507D01*
X29426054Y-77306824D01*
X29325000Y-77259272D01*
X29325000Y-77693889D01*
X29300543Y-77654390D01*
X29211038Y-77586799D01*
X29103160Y-77556105D01*
X28991479Y-77566454D01*
X28891078Y-77616448D01*
X28825000Y-77688930D01*
X28825000Y-77257779D01*
X28796044Y-77267188D01*
X28657382Y-77355185D01*
X28657380Y-77355187D01*
X28544959Y-77474902D01*
X28465842Y-77618815D01*
X28425000Y-77777883D01*
X28425000Y-78159999D01*
X28425001Y-78160000D01*
X28775000Y-78160000D01*
X28775000Y-78660000D01*
X28425001Y-78660000D01*
X28425000Y-78660001D01*
X28425000Y-79000895D01*
X5558150Y-79000895D01*
X5509018Y-78920390D01*
X5504325Y-78914751D01*
X5335746Y-78712181D01*
X5134007Y-78531422D01*
X5134004Y-78531420D01*
X5134002Y-78531418D01*
X4984489Y-78432501D01*
X4908086Y-78381953D01*
X4662822Y-78266979D01*
X4403444Y-78188943D01*
X4403428Y-78188939D01*
X4135440Y-78149500D01*
X4135439Y-78149500D01*
X3932369Y-78149500D01*
X3729848Y-78164322D01*
X3465450Y-78223219D01*
X3212439Y-78319987D01*
X2976219Y-78452561D01*
X2761826Y-78618108D01*
X2573814Y-78813119D01*
X2416199Y-79033422D01*
X2292342Y-79274328D01*
X2204884Y-79530687D01*
X2204881Y-79530698D01*
X2155680Y-79797069D01*
X2145788Y-80067765D01*
X500000Y-80067765D01*
X500000Y-76612500D01*
X30394318Y-76612500D01*
X30414955Y-76769258D01*
X30414957Y-76769266D01*
X30475462Y-76915338D01*
X30475462Y-76915339D01*
X30568844Y-77037037D01*
X30571718Y-77040782D01*
X30697159Y-77137036D01*
X30843238Y-77197544D01*
X30960809Y-77213022D01*
X30999999Y-77218182D01*
X31000000Y-77218182D01*
X31000001Y-77218182D01*
X31031352Y-77214054D01*
X31156762Y-77197544D01*
X31302841Y-77137036D01*
X31428282Y-77040782D01*
X31524536Y-76915341D01*
X31585044Y-76769262D01*
X31605682Y-76612500D01*
X31592517Y-76512500D01*
X32294318Y-76512500D01*
X32314955Y-76669258D01*
X32314957Y-76669266D01*
X32375462Y-76815338D01*
X32375462Y-76815339D01*
X32375464Y-76815341D01*
X32471718Y-76940782D01*
X32597159Y-77037036D01*
X32597160Y-77037036D01*
X32597161Y-77037037D01*
X32606212Y-77040786D01*
X32743238Y-77097544D01*
X32860809Y-77113022D01*
X32899999Y-77118182D01*
X32900000Y-77118182D01*
X32900001Y-77118182D01*
X32931352Y-77114054D01*
X33056762Y-77097544D01*
X33202841Y-77037036D01*
X33328282Y-76940782D01*
X33424536Y-76815341D01*
X33485044Y-76669262D01*
X33505682Y-76512500D01*
X33794318Y-76512500D01*
X33814955Y-76669258D01*
X33814957Y-76669266D01*
X33875462Y-76815338D01*
X33875462Y-76815339D01*
X33875464Y-76815341D01*
X33971718Y-76940782D01*
X34097159Y-77037036D01*
X34097160Y-77037036D01*
X34097161Y-77037037D01*
X34106212Y-77040786D01*
X34243238Y-77097544D01*
X34360809Y-77113022D01*
X34399999Y-77118182D01*
X34400000Y-77118182D01*
X34400001Y-77118182D01*
X34431352Y-77114054D01*
X34556762Y-77097544D01*
X34702841Y-77037036D01*
X34828282Y-76940782D01*
X34924536Y-76815341D01*
X34985044Y-76669262D01*
X34992517Y-76612500D01*
X35394318Y-76612500D01*
X35414955Y-76769258D01*
X35414957Y-76769266D01*
X35475462Y-76915338D01*
X35475462Y-76915339D01*
X35568844Y-77037037D01*
X35571718Y-77040782D01*
X35697159Y-77137036D01*
X35843238Y-77197544D01*
X35960809Y-77213022D01*
X35999999Y-77218182D01*
X36000000Y-77218182D01*
X36000001Y-77218182D01*
X36031352Y-77214054D01*
X36156762Y-77197544D01*
X36302841Y-77137036D01*
X36428282Y-77040782D01*
X36524536Y-76915341D01*
X36585044Y-76769262D01*
X36605682Y-76612500D01*
X36585044Y-76455738D01*
X36554493Y-76381981D01*
X36524537Y-76309661D01*
X36524537Y-76309660D01*
X36428286Y-76184223D01*
X36428285Y-76184222D01*
X36428282Y-76184218D01*
X36428277Y-76184214D01*
X36428276Y-76184213D01*
X36302838Y-76087962D01*
X36156766Y-76027457D01*
X36156758Y-76027455D01*
X36000001Y-76006818D01*
X35999999Y-76006818D01*
X35843241Y-76027455D01*
X35843233Y-76027457D01*
X35697161Y-76087962D01*
X35697160Y-76087962D01*
X35571723Y-76184213D01*
X35571713Y-76184223D01*
X35475462Y-76309660D01*
X35475462Y-76309661D01*
X35414957Y-76455733D01*
X35414955Y-76455741D01*
X35394318Y-76612499D01*
X35394318Y-76612500D01*
X34992517Y-76612500D01*
X35005682Y-76512500D01*
X34985044Y-76355738D01*
X34965958Y-76309660D01*
X34924537Y-76209661D01*
X34924537Y-76209660D01*
X34828286Y-76084223D01*
X34828285Y-76084222D01*
X34828282Y-76084218D01*
X34828277Y-76084214D01*
X34828276Y-76084213D01*
X34702838Y-75987962D01*
X34556766Y-75927457D01*
X34556758Y-75927455D01*
X34400001Y-75906818D01*
X34399999Y-75906818D01*
X34243241Y-75927455D01*
X34243233Y-75927457D01*
X34097161Y-75987962D01*
X34097160Y-75987962D01*
X33971723Y-76084213D01*
X33971713Y-76084223D01*
X33875462Y-76209660D01*
X33875462Y-76209661D01*
X33814957Y-76355733D01*
X33814955Y-76355741D01*
X33794318Y-76512499D01*
X33794318Y-76512500D01*
X33505682Y-76512500D01*
X33485044Y-76355738D01*
X33465958Y-76309660D01*
X33424537Y-76209661D01*
X33424537Y-76209660D01*
X33328286Y-76084223D01*
X33328285Y-76084222D01*
X33328282Y-76084218D01*
X33328277Y-76084214D01*
X33328276Y-76084213D01*
X33202838Y-75987962D01*
X33056766Y-75927457D01*
X33056758Y-75927455D01*
X32900001Y-75906818D01*
X32899999Y-75906818D01*
X32743241Y-75927455D01*
X32743233Y-75927457D01*
X32597161Y-75987962D01*
X32597160Y-75987962D01*
X32471723Y-76084213D01*
X32471713Y-76084223D01*
X32375462Y-76209660D01*
X32375462Y-76209661D01*
X32314957Y-76355733D01*
X32314955Y-76355741D01*
X32294318Y-76512499D01*
X32294318Y-76512500D01*
X31592517Y-76512500D01*
X31585044Y-76455738D01*
X31554493Y-76381981D01*
X31524537Y-76309661D01*
X31524537Y-76309660D01*
X31428286Y-76184223D01*
X31428285Y-76184222D01*
X31428282Y-76184218D01*
X31428277Y-76184214D01*
X31428276Y-76184213D01*
X31302838Y-76087962D01*
X31156766Y-76027457D01*
X31156758Y-76027455D01*
X31000001Y-76006818D01*
X30999999Y-76006818D01*
X30843241Y-76027455D01*
X30843233Y-76027457D01*
X30697161Y-76087962D01*
X30697160Y-76087962D01*
X30571723Y-76184213D01*
X30571713Y-76184223D01*
X30475462Y-76309660D01*
X30475462Y-76309661D01*
X30414957Y-76455733D01*
X30414955Y-76455741D01*
X30394318Y-76612499D01*
X30394318Y-76612500D01*
X500000Y-76612500D01*
X500000Y-75500000D01*
X54894785Y-75500000D01*
X54913603Y-75703083D01*
X54969418Y-75899250D01*
X55060327Y-76081821D01*
X55183236Y-76244579D01*
X55333959Y-76381981D01*
X55507363Y-76489348D01*
X55697544Y-76563024D01*
X55898024Y-76600500D01*
X56101976Y-76600500D01*
X56302456Y-76563024D01*
X56492637Y-76489348D01*
X56666041Y-76381981D01*
X56816764Y-76244579D01*
X56939673Y-76081821D01*
X57030582Y-75899250D01*
X57086397Y-75703083D01*
X57105215Y-75500000D01*
X64895287Y-75500000D01*
X64914097Y-75702989D01*
X64969887Y-75899070D01*
X65060751Y-76081551D01*
X65062532Y-76083911D01*
X65474069Y-75672373D01*
X65476884Y-75685915D01*
X65546442Y-75820156D01*
X65649638Y-75930652D01*
X65778819Y-76009209D01*
X65830002Y-76023550D01*
X65419312Y-76434241D01*
X65507581Y-76488895D01*
X65507586Y-76488898D01*
X65697683Y-76562541D01*
X65898070Y-76600000D01*
X66101930Y-76600000D01*
X66302316Y-76562541D01*
X66492415Y-76488897D01*
X66492416Y-76488897D01*
X66580686Y-76434241D01*
X66171566Y-76025121D01*
X66288458Y-75974349D01*
X66405739Y-75878934D01*
X66492928Y-75755415D01*
X66523355Y-75669800D01*
X66937466Y-76083911D01*
X66939245Y-76081556D01*
X66939249Y-76081549D01*
X67030112Y-75899070D01*
X67085902Y-75702989D01*
X67104712Y-75500000D01*
X67085902Y-75297010D01*
X67030112Y-75100929D01*
X66939249Y-74918450D01*
X66939244Y-74918441D01*
X66937466Y-74916087D01*
X66525929Y-75327623D01*
X66523116Y-75314085D01*
X66453558Y-75179844D01*
X66350362Y-75069348D01*
X66221181Y-74990791D01*
X66169993Y-74976449D01*
X66580686Y-74565757D01*
X66492418Y-74511104D01*
X66492413Y-74511101D01*
X66302316Y-74437458D01*
X66101930Y-74400000D01*
X65898070Y-74400000D01*
X65697683Y-74437458D01*
X65507586Y-74511101D01*
X65507584Y-74511102D01*
X65419312Y-74565757D01*
X65828433Y-74974878D01*
X65711542Y-75025651D01*
X65594261Y-75121066D01*
X65507072Y-75244585D01*
X65476644Y-75330199D01*
X65062533Y-74916087D01*
X65060753Y-74918445D01*
X65060750Y-74918449D01*
X64969887Y-75100929D01*
X64914097Y-75297010D01*
X64895287Y-75500000D01*
X57105215Y-75500000D01*
X57086397Y-75296917D01*
X57030582Y-75100750D01*
X56939673Y-74918179D01*
X56816764Y-74755421D01*
X56666041Y-74618019D01*
X56492637Y-74510652D01*
X56302456Y-74436976D01*
X56302455Y-74436975D01*
X56302453Y-74436975D01*
X56101976Y-74399500D01*
X55898024Y-74399500D01*
X55697546Y-74436975D01*
X55627632Y-74464059D01*
X55507363Y-74510652D01*
X55333959Y-74618019D01*
X55183237Y-74755420D01*
X55060328Y-74918177D01*
X55060323Y-74918186D01*
X54985054Y-75069348D01*
X54969418Y-75100750D01*
X54913603Y-75296917D01*
X54894785Y-75500000D01*
X500000Y-75500000D01*
X500000Y-74375000D01*
X3994318Y-74375000D01*
X4014955Y-74531758D01*
X4014957Y-74531766D01*
X4075462Y-74677838D01*
X4075462Y-74677839D01*
X4075464Y-74677841D01*
X4171718Y-74803282D01*
X4297159Y-74899536D01*
X4297160Y-74899536D01*
X4297161Y-74899537D01*
X4443233Y-74960042D01*
X4443238Y-74960044D01*
X4560809Y-74975522D01*
X4599999Y-74980682D01*
X4600000Y-74980682D01*
X4600001Y-74980682D01*
X4631352Y-74976554D01*
X4756762Y-74960044D01*
X4902841Y-74899536D01*
X5028282Y-74803282D01*
X5124536Y-74677841D01*
X5185044Y-74531762D01*
X5205682Y-74375000D01*
X5185044Y-74218238D01*
X5124537Y-74072161D01*
X5124537Y-74072160D01*
X5028286Y-73946723D01*
X5028285Y-73946722D01*
X5028282Y-73946718D01*
X5028277Y-73946714D01*
X5028276Y-73946713D01*
X4902838Y-73850462D01*
X4756766Y-73789957D01*
X4756758Y-73789955D01*
X4600001Y-73769318D01*
X4599999Y-73769318D01*
X4443241Y-73789955D01*
X4443233Y-73789957D01*
X4297161Y-73850462D01*
X4297160Y-73850462D01*
X4171723Y-73946713D01*
X4171713Y-73946723D01*
X4075462Y-74072160D01*
X4075462Y-74072161D01*
X4014957Y-74218233D01*
X4014955Y-74218241D01*
X3994318Y-74374999D01*
X3994318Y-74375000D01*
X500000Y-74375000D01*
X500000Y-72800000D01*
X38594318Y-72800000D01*
X38614955Y-72956758D01*
X38614957Y-72956766D01*
X38675462Y-73102838D01*
X38675462Y-73102839D01*
X38768844Y-73224537D01*
X38771718Y-73228282D01*
X38897159Y-73324536D01*
X39043238Y-73385044D01*
X39160809Y-73400522D01*
X39199999Y-73405682D01*
X39200000Y-73405682D01*
X39200001Y-73405682D01*
X39231352Y-73401554D01*
X39356762Y-73385044D01*
X39502841Y-73324536D01*
X39628282Y-73228282D01*
X39724536Y-73102841D01*
X39785044Y-72956762D01*
X39805682Y-72800000D01*
X39792517Y-72700000D01*
X41294318Y-72700000D01*
X41314955Y-72856758D01*
X41314957Y-72856766D01*
X41375462Y-73002838D01*
X41375462Y-73002839D01*
X41375464Y-73002841D01*
X41471718Y-73128282D01*
X41597159Y-73224536D01*
X41597160Y-73224536D01*
X41597161Y-73224537D01*
X41606212Y-73228286D01*
X41743238Y-73285044D01*
X41860809Y-73300522D01*
X41899999Y-73305682D01*
X41900000Y-73305682D01*
X41900001Y-73305682D01*
X41931352Y-73301554D01*
X42056762Y-73285044D01*
X42202841Y-73224536D01*
X42328282Y-73128282D01*
X42424536Y-73002841D01*
X42485044Y-72856762D01*
X42505682Y-72700000D01*
X42485044Y-72543238D01*
X42465958Y-72497160D01*
X42424537Y-72397161D01*
X42424537Y-72397160D01*
X42328286Y-72271723D01*
X42328285Y-72271722D01*
X42328282Y-72271718D01*
X42328277Y-72271714D01*
X42328276Y-72271713D01*
X42243624Y-72206758D01*
X42202841Y-72175464D01*
X42202840Y-72175463D01*
X42202838Y-72175462D01*
X42056766Y-72114957D01*
X42056758Y-72114955D01*
X41900001Y-72094318D01*
X41899999Y-72094318D01*
X41743241Y-72114955D01*
X41743233Y-72114957D01*
X41597161Y-72175462D01*
X41597160Y-72175462D01*
X41471723Y-72271713D01*
X41471713Y-72271723D01*
X41375462Y-72397160D01*
X41375462Y-72397161D01*
X41314957Y-72543233D01*
X41314955Y-72543241D01*
X41294318Y-72699999D01*
X41294318Y-72700000D01*
X39792517Y-72700000D01*
X39785044Y-72643238D01*
X39724537Y-72497161D01*
X39724537Y-72497160D01*
X39628286Y-72371723D01*
X39628285Y-72371722D01*
X39628282Y-72371718D01*
X39628277Y-72371714D01*
X39628276Y-72371713D01*
X39502838Y-72275462D01*
X39356766Y-72214957D01*
X39356758Y-72214955D01*
X39200001Y-72194318D01*
X39199999Y-72194318D01*
X39043241Y-72214955D01*
X39043233Y-72214957D01*
X38897161Y-72275462D01*
X38897160Y-72275462D01*
X38771723Y-72371713D01*
X38771713Y-72371723D01*
X38675462Y-72497160D01*
X38675462Y-72497161D01*
X38614957Y-72643233D01*
X38614955Y-72643241D01*
X38594318Y-72799999D01*
X38594318Y-72800000D01*
X500000Y-72800000D01*
X500000Y-71675000D01*
X7994318Y-71675000D01*
X8014955Y-71831758D01*
X8014957Y-71831766D01*
X8075462Y-71977838D01*
X8075462Y-71977839D01*
X8171713Y-72103276D01*
X8171718Y-72103282D01*
X8171722Y-72103285D01*
X8171723Y-72103286D01*
X8186932Y-72114956D01*
X8297159Y-72199536D01*
X8297160Y-72199536D01*
X8297161Y-72199537D01*
X8443233Y-72260042D01*
X8443238Y-72260044D01*
X8560350Y-72275462D01*
X8599999Y-72280682D01*
X8600000Y-72280682D01*
X8600001Y-72280682D01*
X8639650Y-72275462D01*
X8756762Y-72260044D01*
X8902841Y-72199536D01*
X9028282Y-72103282D01*
X9069167Y-72050000D01*
X28944318Y-72050000D01*
X28964955Y-72206758D01*
X28964957Y-72206766D01*
X29025462Y-72352838D01*
X29025462Y-72352839D01*
X29121713Y-72478276D01*
X29121718Y-72478282D01*
X29247159Y-72574536D01*
X29393238Y-72635044D01*
X29510809Y-72650522D01*
X29549999Y-72655682D01*
X29550000Y-72655682D01*
X29550001Y-72655682D01*
X29581352Y-72651554D01*
X29706762Y-72635044D01*
X29852841Y-72574536D01*
X29978282Y-72478282D01*
X30074536Y-72352841D01*
X30135044Y-72206762D01*
X30155682Y-72050000D01*
X30135044Y-71893238D01*
X30135042Y-71893233D01*
X30074537Y-71747161D01*
X30074537Y-71747160D01*
X29978286Y-71621723D01*
X29978285Y-71621722D01*
X29978282Y-71621718D01*
X29978277Y-71621714D01*
X29978276Y-71621713D01*
X29852838Y-71525462D01*
X29706766Y-71464957D01*
X29706758Y-71464955D01*
X29550001Y-71444318D01*
X29549999Y-71444318D01*
X29393241Y-71464955D01*
X29393233Y-71464957D01*
X29247161Y-71525462D01*
X29247160Y-71525462D01*
X29121723Y-71621713D01*
X29121713Y-71621723D01*
X29025462Y-71747160D01*
X29025462Y-71747161D01*
X28964957Y-71893233D01*
X28964955Y-71893241D01*
X28944318Y-72049999D01*
X28944318Y-72050000D01*
X9069167Y-72050000D01*
X9124536Y-71977841D01*
X9185044Y-71831762D01*
X9205682Y-71675000D01*
X9185044Y-71518238D01*
X9162974Y-71464956D01*
X9124537Y-71372161D01*
X9124537Y-71372160D01*
X9028286Y-71246723D01*
X9028285Y-71246722D01*
X9028282Y-71246718D01*
X9028277Y-71246714D01*
X9028276Y-71246713D01*
X8902838Y-71150462D01*
X8756766Y-71089957D01*
X8756758Y-71089955D01*
X8600001Y-71069318D01*
X8599999Y-71069318D01*
X8443241Y-71089955D01*
X8443233Y-71089957D01*
X8297161Y-71150462D01*
X8297160Y-71150462D01*
X8171723Y-71246713D01*
X8171713Y-71246723D01*
X8075462Y-71372160D01*
X8075462Y-71372161D01*
X8014957Y-71518233D01*
X8014955Y-71518241D01*
X7994318Y-71674999D01*
X7994318Y-71675000D01*
X500000Y-71675000D01*
X500000Y-70400000D01*
X17694318Y-70400000D01*
X17714955Y-70556758D01*
X17714957Y-70556766D01*
X17775462Y-70702838D01*
X17775462Y-70702839D01*
X17816842Y-70756766D01*
X17871718Y-70828282D01*
X17997159Y-70924536D01*
X17997160Y-70924536D01*
X17997161Y-70924537D01*
X18044533Y-70944159D01*
X18143238Y-70985044D01*
X18260809Y-71000522D01*
X18299999Y-71005682D01*
X18300000Y-71005682D01*
X18300001Y-71005682D01*
X18331352Y-71001554D01*
X18456762Y-70985044D01*
X18602841Y-70924536D01*
X18728282Y-70828282D01*
X18771460Y-70772010D01*
X18821882Y-70737357D01*
X18883046Y-70738958D01*
X18928539Y-70772010D01*
X18971718Y-70828282D01*
X19097159Y-70924536D01*
X19097160Y-70924536D01*
X19097161Y-70924537D01*
X19144533Y-70944159D01*
X19243238Y-70985044D01*
X19360809Y-71000522D01*
X19399999Y-71005682D01*
X19400000Y-71005682D01*
X19400001Y-71005682D01*
X19431352Y-71001554D01*
X19556762Y-70985044D01*
X19702841Y-70924536D01*
X19828282Y-70828282D01*
X19879120Y-70762027D01*
X19929541Y-70727373D01*
X19990705Y-70728974D01*
X20036202Y-70762029D01*
X20087042Y-70828286D01*
X20102096Y-70847904D01*
X20227537Y-70944158D01*
X20227538Y-70944158D01*
X20227539Y-70944159D01*
X20326244Y-70985044D01*
X20373616Y-71004666D01*
X20491187Y-71020144D01*
X20530377Y-71025304D01*
X20530378Y-71025304D01*
X20530379Y-71025304D01*
X20561730Y-71021176D01*
X20687140Y-71004666D01*
X20833219Y-70944158D01*
X20958660Y-70847904D01*
X21054914Y-70722463D01*
X21105640Y-70600000D01*
X29094318Y-70600000D01*
X29114955Y-70756758D01*
X29114957Y-70756766D01*
X29175462Y-70902838D01*
X29175462Y-70902839D01*
X29254376Y-71005682D01*
X29271718Y-71028282D01*
X29397159Y-71124536D01*
X29397160Y-71124536D01*
X29397161Y-71124537D01*
X29543233Y-71185042D01*
X29543238Y-71185044D01*
X29660809Y-71200522D01*
X29699999Y-71205682D01*
X29700000Y-71205682D01*
X29700001Y-71205682D01*
X29731352Y-71201554D01*
X29856762Y-71185044D01*
X30002841Y-71124536D01*
X30128282Y-71028282D01*
X30224536Y-70902841D01*
X30285044Y-70756762D01*
X30305682Y-70600000D01*
X30285044Y-70443238D01*
X30224537Y-70297161D01*
X30224537Y-70297160D01*
X30128286Y-70171723D01*
X30128285Y-70171722D01*
X30128282Y-70171718D01*
X30128277Y-70171714D01*
X30128276Y-70171713D01*
X30031116Y-70097160D01*
X30002841Y-70075464D01*
X30002840Y-70075463D01*
X30002838Y-70075462D01*
X29856766Y-70014957D01*
X29856758Y-70014955D01*
X29700001Y-69994318D01*
X29699999Y-69994318D01*
X29543241Y-70014955D01*
X29543233Y-70014957D01*
X29397161Y-70075462D01*
X29397160Y-70075462D01*
X29271723Y-70171713D01*
X29271713Y-70171723D01*
X29175462Y-70297160D01*
X29175462Y-70297161D01*
X29114957Y-70443233D01*
X29114955Y-70443241D01*
X29094318Y-70599999D01*
X29094318Y-70600000D01*
X21105640Y-70600000D01*
X21115422Y-70576384D01*
X21136060Y-70419622D01*
X21115422Y-70262860D01*
X21054915Y-70116783D01*
X21054915Y-70116782D01*
X20958664Y-69991345D01*
X20958662Y-69991343D01*
X20958660Y-69991340D01*
X20958655Y-69991336D01*
X20958654Y-69991335D01*
X20833216Y-69895084D01*
X20687144Y-69834579D01*
X20687136Y-69834577D01*
X20530379Y-69813940D01*
X20530377Y-69813940D01*
X20373619Y-69834577D01*
X20373611Y-69834579D01*
X20227539Y-69895084D01*
X20227538Y-69895084D01*
X20102101Y-69991335D01*
X20102093Y-69991343D01*
X20051257Y-70057593D01*
X20000832Y-70092248D01*
X19939668Y-70090645D01*
X19894174Y-70057591D01*
X19871457Y-70027986D01*
X19828282Y-69971718D01*
X19828277Y-69971714D01*
X19828276Y-69971713D01*
X19702838Y-69875462D01*
X19556766Y-69814957D01*
X19556758Y-69814955D01*
X19400001Y-69794318D01*
X19399999Y-69794318D01*
X19243241Y-69814955D01*
X19243233Y-69814957D01*
X19097161Y-69875462D01*
X19097160Y-69875462D01*
X18971723Y-69971713D01*
X18971713Y-69971723D01*
X18928542Y-70027986D01*
X18878118Y-70062642D01*
X18816953Y-70061041D01*
X18771458Y-70027986D01*
X18728286Y-69971723D01*
X18728285Y-69971722D01*
X18728282Y-69971718D01*
X18728277Y-69971714D01*
X18728276Y-69971713D01*
X18602838Y-69875462D01*
X18456766Y-69814957D01*
X18456758Y-69814955D01*
X18300001Y-69794318D01*
X18299999Y-69794318D01*
X18143241Y-69814955D01*
X18143233Y-69814957D01*
X17997161Y-69875462D01*
X17997160Y-69875462D01*
X17871723Y-69971713D01*
X17871713Y-69971723D01*
X17775462Y-70097160D01*
X17775462Y-70097161D01*
X17714957Y-70243233D01*
X17714955Y-70243241D01*
X17694318Y-70399999D01*
X17694318Y-70400000D01*
X500000Y-70400000D01*
X500000Y-69100000D01*
X29094318Y-69100000D01*
X29114955Y-69256758D01*
X29114957Y-69256766D01*
X29175462Y-69402838D01*
X29175462Y-69402839D01*
X29175464Y-69402841D01*
X29271718Y-69528282D01*
X29397159Y-69624536D01*
X29543238Y-69685044D01*
X29660809Y-69700522D01*
X29699999Y-69705682D01*
X29700000Y-69705682D01*
X29700001Y-69705682D01*
X29731352Y-69701554D01*
X29856762Y-69685044D01*
X30002841Y-69624536D01*
X30128282Y-69528282D01*
X30224536Y-69402841D01*
X30285044Y-69256762D01*
X30305682Y-69100000D01*
X30285044Y-68943238D01*
X30224537Y-68797161D01*
X30224537Y-68797160D01*
X30128286Y-68671723D01*
X30128285Y-68671722D01*
X30128282Y-68671718D01*
X30128277Y-68671714D01*
X30128276Y-68671713D01*
X30002838Y-68575462D01*
X29856766Y-68514957D01*
X29856758Y-68514955D01*
X29700001Y-68494318D01*
X29699999Y-68494318D01*
X29543241Y-68514955D01*
X29543233Y-68514957D01*
X29397161Y-68575462D01*
X29397160Y-68575462D01*
X29271723Y-68671713D01*
X29271713Y-68671723D01*
X29175462Y-68797160D01*
X29175462Y-68797161D01*
X29114957Y-68943233D01*
X29114955Y-68943241D01*
X29094318Y-69099999D01*
X29094318Y-69100000D01*
X500000Y-69100000D01*
X500000Y-67700000D01*
X14494318Y-67700000D01*
X14514955Y-67856758D01*
X14514957Y-67856766D01*
X14575462Y-68002838D01*
X14575462Y-68002839D01*
X14575464Y-68002841D01*
X14671718Y-68128282D01*
X14797159Y-68224536D01*
X14943238Y-68285044D01*
X15060809Y-68300522D01*
X15099999Y-68305682D01*
X15100000Y-68305682D01*
X15100001Y-68305682D01*
X15131352Y-68301554D01*
X15256762Y-68285044D01*
X15402841Y-68224536D01*
X15528282Y-68128282D01*
X15624536Y-68002841D01*
X15685044Y-67856762D01*
X15705682Y-67700000D01*
X16694318Y-67700000D01*
X16714955Y-67856758D01*
X16714957Y-67856766D01*
X16775462Y-68002838D01*
X16775462Y-68002839D01*
X16775464Y-68002841D01*
X16871718Y-68128282D01*
X16997159Y-68224536D01*
X17143238Y-68285044D01*
X17260809Y-68300522D01*
X17299999Y-68305682D01*
X17300000Y-68305682D01*
X17300001Y-68305682D01*
X17331352Y-68301554D01*
X17456762Y-68285044D01*
X17602841Y-68224536D01*
X17728282Y-68128282D01*
X17824536Y-68002841D01*
X17885044Y-67856762D01*
X17905682Y-67700000D01*
X17885044Y-67543238D01*
X17824537Y-67397161D01*
X17824537Y-67397160D01*
X17728286Y-67271723D01*
X17728285Y-67271722D01*
X17728282Y-67271718D01*
X17728277Y-67271714D01*
X17728276Y-67271713D01*
X17602838Y-67175462D01*
X17456766Y-67114957D01*
X17456758Y-67114955D01*
X17300001Y-67094318D01*
X17299999Y-67094318D01*
X17143241Y-67114955D01*
X17143233Y-67114957D01*
X16997161Y-67175462D01*
X16997160Y-67175462D01*
X16871723Y-67271713D01*
X16871713Y-67271723D01*
X16775462Y-67397160D01*
X16775462Y-67397161D01*
X16714957Y-67543233D01*
X16714955Y-67543241D01*
X16694318Y-67699999D01*
X16694318Y-67700000D01*
X15705682Y-67700000D01*
X15685044Y-67543238D01*
X15624537Y-67397161D01*
X15624537Y-67397160D01*
X15528286Y-67271723D01*
X15528285Y-67271722D01*
X15528282Y-67271718D01*
X15528277Y-67271714D01*
X15528276Y-67271713D01*
X15402838Y-67175462D01*
X15256766Y-67114957D01*
X15256758Y-67114955D01*
X15100001Y-67094318D01*
X15099999Y-67094318D01*
X14943241Y-67114955D01*
X14943233Y-67114957D01*
X14797161Y-67175462D01*
X14797160Y-67175462D01*
X14671723Y-67271713D01*
X14671713Y-67271723D01*
X14575462Y-67397160D01*
X14575462Y-67397161D01*
X14514957Y-67543233D01*
X14514955Y-67543241D01*
X14494318Y-67699999D01*
X14494318Y-67700000D01*
X500000Y-67700000D01*
X500000Y-67100000D01*
X4800000Y-67100000D01*
X9100000Y-67100000D01*
X9100000Y-65000000D01*
X42594318Y-65000000D01*
X42614955Y-65156758D01*
X42614957Y-65156766D01*
X42675462Y-65302838D01*
X42675462Y-65302839D01*
X42675464Y-65302841D01*
X42771718Y-65428282D01*
X42897159Y-65524536D01*
X43043238Y-65585044D01*
X43160809Y-65600522D01*
X43199999Y-65605682D01*
X43200000Y-65605682D01*
X43200001Y-65605682D01*
X43231352Y-65601554D01*
X43356762Y-65585044D01*
X43502841Y-65524536D01*
X43628282Y-65428282D01*
X43724536Y-65302841D01*
X43785044Y-65156762D01*
X43805682Y-65000000D01*
X43785044Y-64843238D01*
X43769897Y-64806670D01*
X43722053Y-64691163D01*
X43723950Y-64690376D01*
X43713165Y-64639662D01*
X43723047Y-64609248D01*
X43722053Y-64608837D01*
X43785042Y-64456766D01*
X43785044Y-64456762D01*
X43805682Y-64300000D01*
X43785044Y-64143238D01*
X43773399Y-64115124D01*
X43722053Y-63991163D01*
X43723950Y-63990376D01*
X43713165Y-63939662D01*
X43723047Y-63909248D01*
X43722053Y-63908837D01*
X43785042Y-63756766D01*
X43785044Y-63756762D01*
X43805682Y-63600000D01*
X43802015Y-63572150D01*
X43798209Y-63543238D01*
X43785044Y-63443238D01*
X43765958Y-63397160D01*
X43722053Y-63291163D01*
X43723950Y-63290376D01*
X43713165Y-63239662D01*
X43723047Y-63209248D01*
X43722053Y-63208837D01*
X43785042Y-63056766D01*
X43785044Y-63056762D01*
X43805682Y-62900000D01*
X43785044Y-62743238D01*
X43777298Y-62724537D01*
X43722053Y-62591163D01*
X43723950Y-62590376D01*
X43713165Y-62539662D01*
X43723047Y-62509248D01*
X43722053Y-62508837D01*
X43785042Y-62356766D01*
X43785044Y-62356762D01*
X43805682Y-62200000D01*
X43785044Y-62043238D01*
X43725713Y-61900000D01*
X43722053Y-61891163D01*
X43723950Y-61890376D01*
X43713165Y-61839662D01*
X43723047Y-61809248D01*
X43722053Y-61808837D01*
X43785042Y-61656766D01*
X43785044Y-61656762D01*
X43805682Y-61500000D01*
X43785044Y-61343238D01*
X43761088Y-61285403D01*
X43722053Y-61191163D01*
X43723950Y-61190376D01*
X43713165Y-61139662D01*
X43723047Y-61109248D01*
X43722053Y-61108837D01*
X43785042Y-60956766D01*
X43785044Y-60956762D01*
X43805682Y-60800000D01*
X43792517Y-60700000D01*
X53294318Y-60700000D01*
X53314955Y-60856758D01*
X53314957Y-60856766D01*
X53375462Y-61002838D01*
X53375462Y-61002839D01*
X53457398Y-61109620D01*
X53471718Y-61128282D01*
X53597159Y-61224536D01*
X53597160Y-61224536D01*
X53597161Y-61224537D01*
X53674959Y-61256762D01*
X53743238Y-61285044D01*
X53860809Y-61300522D01*
X53899999Y-61305682D01*
X53900000Y-61305682D01*
X53900001Y-61305682D01*
X53931352Y-61301554D01*
X54056762Y-61285044D01*
X54125041Y-61256762D01*
X54208837Y-61222053D01*
X54209623Y-61223950D01*
X54260338Y-61213165D01*
X54290751Y-61223047D01*
X54291163Y-61222053D01*
X54443231Y-61285041D01*
X54443238Y-61285044D01*
X54560809Y-61300522D01*
X54599999Y-61305682D01*
X54600000Y-61305682D01*
X54600001Y-61305682D01*
X54631352Y-61301554D01*
X54756762Y-61285044D01*
X54825041Y-61256762D01*
X54908837Y-61222053D01*
X54909623Y-61223950D01*
X54960338Y-61213165D01*
X54990751Y-61223047D01*
X54991163Y-61222053D01*
X55122266Y-61276357D01*
X55143238Y-61285044D01*
X55143246Y-61285045D01*
X55144581Y-61285403D01*
X55145421Y-61285948D01*
X55149232Y-61287527D01*
X55148939Y-61288232D01*
X55195899Y-61318722D01*
X55212271Y-61350850D01*
X55212473Y-61350767D01*
X55213534Y-61353330D01*
X55214594Y-61355409D01*
X55214955Y-61356758D01*
X55214956Y-61356762D01*
X55234041Y-61402838D01*
X55277947Y-61508835D01*
X55276051Y-61509620D01*
X55286833Y-61560351D01*
X55276954Y-61590753D01*
X55277947Y-61591165D01*
X55214957Y-61743236D01*
X55214955Y-61743241D01*
X55194318Y-61899999D01*
X55194318Y-61900000D01*
X55214955Y-62056758D01*
X55214957Y-62056766D01*
X55275462Y-62202838D01*
X55275462Y-62202839D01*
X55371713Y-62328276D01*
X55371718Y-62328282D01*
X55497159Y-62424536D01*
X55643238Y-62485044D01*
X55760809Y-62500522D01*
X55799999Y-62505682D01*
X55800000Y-62505682D01*
X55800001Y-62505682D01*
X55831352Y-62501554D01*
X55956762Y-62485044D01*
X56102841Y-62424536D01*
X56228282Y-62328282D01*
X56324536Y-62202841D01*
X56385044Y-62056762D01*
X56405682Y-61900000D01*
X56385044Y-61743238D01*
X56369488Y-61705682D01*
X56322053Y-61591163D01*
X56323950Y-61590376D01*
X56313165Y-61539662D01*
X56323047Y-61509248D01*
X56322053Y-61508837D01*
X56385042Y-61356766D01*
X56385044Y-61356762D01*
X56405682Y-61200000D01*
X56385044Y-61043238D01*
X56349225Y-60956763D01*
X56324537Y-60897161D01*
X56324537Y-60897160D01*
X56228286Y-60771723D01*
X56228285Y-60771722D01*
X56228282Y-60771718D01*
X56228277Y-60771714D01*
X56228276Y-60771713D01*
X56138517Y-60702839D01*
X56102841Y-60675464D01*
X56102840Y-60675463D01*
X56102838Y-60675462D01*
X55956767Y-60614957D01*
X55955409Y-60614594D01*
X55954564Y-60614045D01*
X55950768Y-60612473D01*
X55951059Y-60611769D01*
X55904095Y-60581270D01*
X55887729Y-60549148D01*
X55887527Y-60549232D01*
X55886459Y-60546654D01*
X55885403Y-60544581D01*
X55885044Y-60543241D01*
X55885044Y-60543238D01*
X55825713Y-60400000D01*
X55824537Y-60397161D01*
X55824537Y-60397160D01*
X55728286Y-60271723D01*
X55728285Y-60271722D01*
X55728282Y-60271718D01*
X55728277Y-60271714D01*
X55728276Y-60271713D01*
X55631116Y-60197160D01*
X55602841Y-60175464D01*
X55602840Y-60175463D01*
X55602838Y-60175462D01*
X55456766Y-60114957D01*
X55456758Y-60114955D01*
X55343161Y-60100000D01*
X63094318Y-60100000D01*
X63114955Y-60256758D01*
X63114957Y-60256766D01*
X63175462Y-60402838D01*
X63175462Y-60402839D01*
X63271713Y-60528276D01*
X63271718Y-60528282D01*
X63397159Y-60624536D01*
X63397160Y-60624536D01*
X63397161Y-60624537D01*
X63474959Y-60656762D01*
X63543238Y-60685044D01*
X63656833Y-60699999D01*
X63699999Y-60705682D01*
X63700000Y-60705682D01*
X63700001Y-60705682D01*
X63743167Y-60699999D01*
X63856762Y-60685044D01*
X64002841Y-60624536D01*
X64128282Y-60528282D01*
X64224536Y-60402841D01*
X64285044Y-60256762D01*
X64305682Y-60100000D01*
X65094318Y-60100000D01*
X65114955Y-60256758D01*
X65114957Y-60256766D01*
X65175462Y-60402838D01*
X65175462Y-60402839D01*
X65271713Y-60528276D01*
X65271718Y-60528282D01*
X65397159Y-60624536D01*
X65397160Y-60624536D01*
X65397161Y-60624537D01*
X65474959Y-60656762D01*
X65543238Y-60685044D01*
X65656833Y-60699999D01*
X65699999Y-60705682D01*
X65700000Y-60705682D01*
X65700001Y-60705682D01*
X65743167Y-60699999D01*
X65856762Y-60685044D01*
X66002841Y-60624536D01*
X66128282Y-60528282D01*
X66224536Y-60402841D01*
X66285044Y-60256762D01*
X66305682Y-60100000D01*
X66285044Y-59943238D01*
X66256971Y-59875464D01*
X66222053Y-59791163D01*
X66223950Y-59790376D01*
X66213165Y-59739662D01*
X66223047Y-59709248D01*
X66222053Y-59708837D01*
X66285042Y-59556766D01*
X66285044Y-59556762D01*
X66305682Y-59400000D01*
X66285044Y-59243238D01*
X66260809Y-59184730D01*
X66222053Y-59091163D01*
X66223950Y-59090376D01*
X66213165Y-59039662D01*
X66223047Y-59009248D01*
X66222053Y-59008837D01*
X66285042Y-58856766D01*
X66285044Y-58856762D01*
X66305682Y-58700000D01*
X66285044Y-58543238D01*
X66285042Y-58543233D01*
X66222053Y-58391163D01*
X66223950Y-58390376D01*
X66213165Y-58339662D01*
X66223047Y-58309248D01*
X66222053Y-58308837D01*
X66285042Y-58156766D01*
X66285044Y-58156762D01*
X66305682Y-58000000D01*
X66285044Y-57843238D01*
X66249226Y-57756766D01*
X66224537Y-57697161D01*
X66224537Y-57697160D01*
X66128286Y-57571723D01*
X66128285Y-57571722D01*
X66128282Y-57571718D01*
X66128277Y-57571714D01*
X66128276Y-57571713D01*
X66002838Y-57475462D01*
X65856766Y-57414957D01*
X65856758Y-57414955D01*
X65700001Y-57394318D01*
X65699999Y-57394318D01*
X65543241Y-57414955D01*
X65543233Y-57414957D01*
X65397161Y-57475462D01*
X65397160Y-57475462D01*
X65271723Y-57571713D01*
X65271713Y-57571723D01*
X65175462Y-57697160D01*
X65175462Y-57697161D01*
X65114957Y-57843233D01*
X65114955Y-57843241D01*
X65094318Y-57999999D01*
X65094318Y-58000000D01*
X65110713Y-58124537D01*
X65114956Y-58156762D01*
X65175464Y-58302841D01*
X65177947Y-58308835D01*
X65176051Y-58309620D01*
X65186833Y-58360351D01*
X65176954Y-58390753D01*
X65177947Y-58391165D01*
X65114957Y-58543236D01*
X65114955Y-58543241D01*
X65094318Y-58699999D01*
X65094318Y-58700000D01*
X65114956Y-58856762D01*
X65114958Y-58856766D01*
X65177947Y-59008835D01*
X65176051Y-59009620D01*
X65186833Y-59060351D01*
X65176954Y-59090753D01*
X65177947Y-59091165D01*
X65114957Y-59243236D01*
X65114955Y-59243241D01*
X65094318Y-59399999D01*
X65094318Y-59400000D01*
X65114395Y-59552507D01*
X65114956Y-59556762D01*
X65114958Y-59556766D01*
X65177947Y-59708835D01*
X65176051Y-59709620D01*
X65186833Y-59760351D01*
X65176954Y-59790753D01*
X65177947Y-59791165D01*
X65175464Y-59797158D01*
X65175464Y-59797159D01*
X65114958Y-59943233D01*
X65114957Y-59943236D01*
X65114955Y-59943241D01*
X65094318Y-60099999D01*
X65094318Y-60100000D01*
X64305682Y-60100000D01*
X64285044Y-59943238D01*
X64256971Y-59875464D01*
X64222053Y-59791163D01*
X64223950Y-59790376D01*
X64213165Y-59739662D01*
X64223047Y-59709248D01*
X64222053Y-59708837D01*
X64285042Y-59556766D01*
X64285044Y-59556762D01*
X64305682Y-59400000D01*
X64285044Y-59243238D01*
X64260809Y-59184730D01*
X64222053Y-59091163D01*
X64223950Y-59090376D01*
X64213165Y-59039662D01*
X64223047Y-59009248D01*
X64222053Y-59008837D01*
X64285042Y-58856766D01*
X64285044Y-58856762D01*
X64305682Y-58700000D01*
X64285044Y-58543238D01*
X64285042Y-58543233D01*
X64222053Y-58391163D01*
X64223950Y-58390376D01*
X64213165Y-58339662D01*
X64223047Y-58309248D01*
X64222053Y-58308837D01*
X64285042Y-58156766D01*
X64285044Y-58156762D01*
X64305682Y-58000000D01*
X64285044Y-57843238D01*
X64249226Y-57756766D01*
X64224537Y-57697161D01*
X64224537Y-57697160D01*
X64128286Y-57571723D01*
X64128285Y-57571722D01*
X64128282Y-57571718D01*
X64128277Y-57571714D01*
X64128276Y-57571713D01*
X64002838Y-57475462D01*
X63856766Y-57414957D01*
X63856758Y-57414955D01*
X63700001Y-57394318D01*
X63699999Y-57394318D01*
X63543241Y-57414955D01*
X63543233Y-57414957D01*
X63397161Y-57475462D01*
X63397160Y-57475462D01*
X63271723Y-57571713D01*
X63271713Y-57571723D01*
X63175462Y-57697160D01*
X63175462Y-57697161D01*
X63114957Y-57843233D01*
X63114955Y-57843241D01*
X63094318Y-57999999D01*
X63094318Y-58000000D01*
X63110713Y-58124537D01*
X63114956Y-58156762D01*
X63175464Y-58302841D01*
X63177947Y-58308835D01*
X63176051Y-58309620D01*
X63186833Y-58360351D01*
X63176954Y-58390753D01*
X63177947Y-58391165D01*
X63114957Y-58543236D01*
X63114955Y-58543241D01*
X63094318Y-58699999D01*
X63094318Y-58700000D01*
X63114956Y-58856762D01*
X63114958Y-58856766D01*
X63177947Y-59008835D01*
X63176051Y-59009620D01*
X63186833Y-59060351D01*
X63176954Y-59090753D01*
X63177947Y-59091165D01*
X63114957Y-59243236D01*
X63114955Y-59243241D01*
X63094318Y-59399999D01*
X63094318Y-59400000D01*
X63114395Y-59552507D01*
X63114956Y-59556762D01*
X63114958Y-59556766D01*
X63177947Y-59708835D01*
X63176051Y-59709620D01*
X63186833Y-59760351D01*
X63176954Y-59790753D01*
X63177947Y-59791165D01*
X63175464Y-59797158D01*
X63175464Y-59797159D01*
X63114958Y-59943233D01*
X63114957Y-59943236D01*
X63114955Y-59943241D01*
X63094318Y-60099999D01*
X63094318Y-60100000D01*
X55343161Y-60100000D01*
X55300001Y-60094318D01*
X55299999Y-60094318D01*
X55143241Y-60114955D01*
X55143238Y-60114955D01*
X55143238Y-60114956D01*
X55074953Y-60143241D01*
X54991165Y-60177947D01*
X54990379Y-60176051D01*
X54939649Y-60186833D01*
X54909246Y-60176954D01*
X54908835Y-60177947D01*
X54902841Y-60175464D01*
X54756762Y-60114956D01*
X54756759Y-60114955D01*
X54756758Y-60114955D01*
X54600001Y-60094318D01*
X54599999Y-60094318D01*
X54443241Y-60114955D01*
X54443238Y-60114955D01*
X54443238Y-60114956D01*
X54374953Y-60143241D01*
X54291165Y-60177947D01*
X54290379Y-60176051D01*
X54239649Y-60186833D01*
X54209246Y-60176954D01*
X54208835Y-60177947D01*
X54202841Y-60175464D01*
X54056762Y-60114956D01*
X54056759Y-60114955D01*
X54056758Y-60114955D01*
X53900001Y-60094318D01*
X53899999Y-60094318D01*
X53743241Y-60114955D01*
X53743233Y-60114957D01*
X53597161Y-60175462D01*
X53597160Y-60175462D01*
X53471723Y-60271713D01*
X53471713Y-60271723D01*
X53375462Y-60397160D01*
X53375462Y-60397161D01*
X53314957Y-60543233D01*
X53314955Y-60543241D01*
X53294318Y-60699999D01*
X53294318Y-60700000D01*
X43792517Y-60700000D01*
X43785044Y-60643238D01*
X43769873Y-60606612D01*
X43724537Y-60497161D01*
X43724537Y-60497160D01*
X43628286Y-60371723D01*
X43628285Y-60371722D01*
X43628282Y-60371718D01*
X43628277Y-60371714D01*
X43628276Y-60371713D01*
X43534816Y-60299999D01*
X43502841Y-60275464D01*
X43502840Y-60275463D01*
X43502838Y-60275462D01*
X43356766Y-60214957D01*
X43356758Y-60214955D01*
X43200001Y-60194318D01*
X43199999Y-60194318D01*
X43043241Y-60214955D01*
X43043233Y-60214957D01*
X42897161Y-60275462D01*
X42897160Y-60275462D01*
X42771723Y-60371713D01*
X42771713Y-60371723D01*
X42675462Y-60497160D01*
X42675462Y-60497161D01*
X42614957Y-60643233D01*
X42614955Y-60643241D01*
X42594318Y-60799999D01*
X42594318Y-60800000D01*
X42613175Y-60943238D01*
X42614956Y-60956762D01*
X42668092Y-61085044D01*
X42677947Y-61108835D01*
X42676051Y-61109620D01*
X42686833Y-61160351D01*
X42676954Y-61190753D01*
X42677947Y-61191165D01*
X42675464Y-61197158D01*
X42675464Y-61197159D01*
X42638032Y-61287527D01*
X42614957Y-61343236D01*
X42614955Y-61343241D01*
X42594318Y-61499999D01*
X42594318Y-61500000D01*
X42610713Y-61624537D01*
X42614956Y-61656762D01*
X42675464Y-61802841D01*
X42677947Y-61808835D01*
X42676051Y-61809620D01*
X42686833Y-61860351D01*
X42676954Y-61890753D01*
X42677947Y-61891165D01*
X42614957Y-62043236D01*
X42614955Y-62043241D01*
X42594318Y-62199999D01*
X42594318Y-62200000D01*
X42612369Y-62337118D01*
X42614956Y-62356762D01*
X42672520Y-62495734D01*
X42677947Y-62508835D01*
X42676051Y-62509620D01*
X42686833Y-62560351D01*
X42676954Y-62590753D01*
X42677947Y-62591165D01*
X42675464Y-62597158D01*
X42675464Y-62597159D01*
X42662571Y-62628286D01*
X42614957Y-62743236D01*
X42614955Y-62743241D01*
X42609452Y-62785042D01*
X42594318Y-62900000D01*
X42614956Y-63056762D01*
X42664124Y-63175464D01*
X42677947Y-63208835D01*
X42676051Y-63209620D01*
X42686833Y-63260351D01*
X42676954Y-63290753D01*
X42677947Y-63291165D01*
X42675464Y-63297158D01*
X42675464Y-63297159D01*
X42659913Y-63334703D01*
X42614957Y-63443236D01*
X42614955Y-63443241D01*
X42597984Y-63572154D01*
X42594318Y-63600000D01*
X42614956Y-63756762D01*
X42656379Y-63856766D01*
X42677947Y-63908835D01*
X42676051Y-63909620D01*
X42686833Y-63960351D01*
X42676954Y-63990753D01*
X42677947Y-63991165D01*
X42675464Y-63997158D01*
X42675464Y-63997159D01*
X42614958Y-64143233D01*
X42614957Y-64143236D01*
X42614955Y-64143241D01*
X42598192Y-64270574D01*
X42594318Y-64300000D01*
X42614956Y-64456762D01*
X42675464Y-64602841D01*
X42677947Y-64608835D01*
X42676051Y-64609620D01*
X42686833Y-64660351D01*
X42676954Y-64690753D01*
X42677947Y-64691165D01*
X42614957Y-64843236D01*
X42614955Y-64843241D01*
X42594318Y-64999999D01*
X42594318Y-65000000D01*
X9100000Y-65000000D01*
X9100000Y-63700000D01*
X25994318Y-63700000D01*
X26014955Y-63856758D01*
X26014957Y-63856766D01*
X26075462Y-64002838D01*
X26075462Y-64002839D01*
X26171713Y-64128276D01*
X26171718Y-64128282D01*
X26297159Y-64224536D01*
X26443238Y-64285044D01*
X26556833Y-64299999D01*
X26599999Y-64305682D01*
X26600000Y-64305682D01*
X26600001Y-64305682D01*
X26643167Y-64299999D01*
X26756762Y-64285044D01*
X26902841Y-64224536D01*
X27028282Y-64128282D01*
X27124536Y-64002841D01*
X27185044Y-63856762D01*
X27205682Y-63700000D01*
X27185044Y-63543238D01*
X27151760Y-63462883D01*
X27124537Y-63397161D01*
X27124537Y-63397160D01*
X27028286Y-63271723D01*
X27028285Y-63271722D01*
X27028282Y-63271718D01*
X27028277Y-63271714D01*
X27028276Y-63271713D01*
X26902838Y-63175462D01*
X26756766Y-63114957D01*
X26756758Y-63114955D01*
X26600001Y-63094318D01*
X26599999Y-63094318D01*
X26443241Y-63114955D01*
X26443233Y-63114957D01*
X26297161Y-63175462D01*
X26297160Y-63175462D01*
X26171723Y-63271713D01*
X26171713Y-63271723D01*
X26075462Y-63397160D01*
X26075462Y-63397161D01*
X26014957Y-63543233D01*
X26014955Y-63543241D01*
X25994318Y-63699999D01*
X25994318Y-63700000D01*
X9100000Y-63700000D01*
X7534595Y-63700000D01*
X7559699Y-63697646D01*
X7687882Y-63652793D01*
X7797150Y-63572150D01*
X7877793Y-63462882D01*
X7922646Y-63334699D01*
X7925499Y-63304273D01*
X7925500Y-63304273D01*
X7925500Y-62495727D01*
X7925499Y-62495725D01*
X7922646Y-62465305D01*
X7922646Y-62465301D01*
X7877793Y-62337118D01*
X7871267Y-62328276D01*
X7797154Y-62227855D01*
X7797152Y-62227853D01*
X7797150Y-62227850D01*
X7797146Y-62227847D01*
X7797144Y-62227845D01*
X7759415Y-62200000D01*
X32994318Y-62200000D01*
X33014955Y-62356758D01*
X33014957Y-62356766D01*
X33075462Y-62502838D01*
X33075462Y-62502839D01*
X33171713Y-62628276D01*
X33171718Y-62628282D01*
X33297159Y-62724536D01*
X33297160Y-62724536D01*
X33297161Y-62724537D01*
X33443233Y-62785042D01*
X33443238Y-62785044D01*
X33560809Y-62800522D01*
X33599999Y-62805682D01*
X33600000Y-62805682D01*
X33600001Y-62805682D01*
X33631352Y-62801554D01*
X33756762Y-62785044D01*
X33902841Y-62724536D01*
X34028282Y-62628282D01*
X34124536Y-62502841D01*
X34185044Y-62356762D01*
X34205682Y-62200000D01*
X34185044Y-62043238D01*
X34125713Y-61900000D01*
X34124537Y-61897161D01*
X34124537Y-61897160D01*
X34028286Y-61771723D01*
X34028285Y-61771722D01*
X34028282Y-61771718D01*
X34028277Y-61771714D01*
X34028276Y-61771713D01*
X33902838Y-61675462D01*
X33756766Y-61614957D01*
X33756758Y-61614955D01*
X33600001Y-61594318D01*
X33599999Y-61594318D01*
X33443241Y-61614955D01*
X33443233Y-61614957D01*
X33297161Y-61675462D01*
X33297160Y-61675462D01*
X33171723Y-61771713D01*
X33171713Y-61771723D01*
X33075462Y-61897160D01*
X33075462Y-61897161D01*
X33014957Y-62043233D01*
X33014955Y-62043241D01*
X32994318Y-62199999D01*
X32994318Y-62200000D01*
X7759415Y-62200000D01*
X7687883Y-62147207D01*
X7559703Y-62102355D01*
X7559694Y-62102353D01*
X7529274Y-62099500D01*
X7529266Y-62099500D01*
X6170734Y-62099500D01*
X6170725Y-62099500D01*
X6140305Y-62102353D01*
X6140296Y-62102355D01*
X6012116Y-62147207D01*
X5902855Y-62227845D01*
X5902845Y-62227855D01*
X5822207Y-62337116D01*
X5777355Y-62465296D01*
X5777353Y-62465305D01*
X5774500Y-62495725D01*
X5774500Y-63304274D01*
X5777353Y-63334694D01*
X5777355Y-63334703D01*
X5822207Y-63462883D01*
X5902845Y-63572144D01*
X5902847Y-63572146D01*
X5902850Y-63572150D01*
X5902853Y-63572152D01*
X5902855Y-63572154D01*
X6012116Y-63652792D01*
X6012117Y-63652792D01*
X6012118Y-63652793D01*
X6140301Y-63697646D01*
X6165404Y-63700000D01*
X4800000Y-63700000D01*
X4800000Y-67100000D01*
X500000Y-67100000D01*
X500000Y-60500000D01*
X4094318Y-60500000D01*
X4114955Y-60656758D01*
X4114957Y-60656766D01*
X4175462Y-60802838D01*
X4175462Y-60802839D01*
X4268844Y-60924537D01*
X4271718Y-60928282D01*
X4397159Y-61024536D01*
X4397160Y-61024536D01*
X4397161Y-61024537D01*
X4543233Y-61085042D01*
X4543238Y-61085044D01*
X4656833Y-61099999D01*
X4699999Y-61105682D01*
X4700000Y-61105682D01*
X4700001Y-61105682D01*
X4743167Y-61099999D01*
X4856762Y-61085044D01*
X5002841Y-61024536D01*
X5128282Y-60928282D01*
X5224536Y-60802841D01*
X5267134Y-60700000D01*
X6794318Y-60700000D01*
X6814955Y-60856758D01*
X6814957Y-60856766D01*
X6875462Y-61002838D01*
X6875462Y-61002839D01*
X6957398Y-61109620D01*
X6971718Y-61128282D01*
X7097159Y-61224536D01*
X7097160Y-61224536D01*
X7097161Y-61224537D01*
X7174959Y-61256762D01*
X7243238Y-61285044D01*
X7360809Y-61300522D01*
X7399999Y-61305682D01*
X7400000Y-61305682D01*
X7400001Y-61305682D01*
X7431352Y-61301554D01*
X7556762Y-61285044D01*
X7702841Y-61224536D01*
X7828282Y-61128282D01*
X7849983Y-61100000D01*
X27294318Y-61100000D01*
X27314955Y-61256758D01*
X27314957Y-61256766D01*
X27375462Y-61402838D01*
X27375462Y-61402839D01*
X27457398Y-61509620D01*
X27471718Y-61528282D01*
X27597159Y-61624536D01*
X27597160Y-61624536D01*
X27597161Y-61624537D01*
X27674969Y-61656766D01*
X27743238Y-61685044D01*
X27860809Y-61700522D01*
X27899999Y-61705682D01*
X27900000Y-61705682D01*
X27900001Y-61705682D01*
X27931352Y-61701554D01*
X28056762Y-61685044D01*
X28202841Y-61624536D01*
X28239733Y-61596227D01*
X28297408Y-61575804D01*
X28356074Y-61593181D01*
X28360257Y-61596220D01*
X28397159Y-61624536D01*
X28397160Y-61624536D01*
X28397161Y-61624537D01*
X28474969Y-61656766D01*
X28543238Y-61685044D01*
X28660809Y-61700522D01*
X28699999Y-61705682D01*
X28700000Y-61705682D01*
X28700001Y-61705682D01*
X28731352Y-61701554D01*
X28856762Y-61685044D01*
X29002841Y-61624536D01*
X29128282Y-61528282D01*
X29224536Y-61402841D01*
X29285044Y-61256762D01*
X29305682Y-61100000D01*
X29285044Y-60943238D01*
X29265958Y-60897160D01*
X29224537Y-60797161D01*
X29224536Y-60797160D01*
X29224536Y-60797159D01*
X29196227Y-60760266D01*
X29175804Y-60702592D01*
X29193181Y-60643926D01*
X29196220Y-60639742D01*
X29224536Y-60602841D01*
X29285044Y-60456762D01*
X29292517Y-60400000D01*
X33694318Y-60400000D01*
X33714955Y-60556758D01*
X33714957Y-60556766D01*
X33775462Y-60702838D01*
X33775462Y-60702839D01*
X33852194Y-60802838D01*
X33871718Y-60828282D01*
X33997159Y-60924536D01*
X33997160Y-60924536D01*
X33997161Y-60924537D01*
X34074969Y-60956766D01*
X34143238Y-60985044D01*
X34260809Y-61000522D01*
X34299999Y-61005682D01*
X34300000Y-61005682D01*
X34300001Y-61005682D01*
X34331352Y-61001554D01*
X34456762Y-60985044D01*
X34602841Y-60924536D01*
X34728282Y-60828282D01*
X34824536Y-60702841D01*
X34885044Y-60556762D01*
X34892517Y-60500000D01*
X40894318Y-60500000D01*
X40914955Y-60656758D01*
X40914957Y-60656766D01*
X40975462Y-60802838D01*
X40975462Y-60802839D01*
X41068844Y-60924537D01*
X41071718Y-60928282D01*
X41197159Y-61024536D01*
X41197160Y-61024536D01*
X41197161Y-61024537D01*
X41343233Y-61085042D01*
X41343238Y-61085044D01*
X41456833Y-61099999D01*
X41499999Y-61105682D01*
X41500000Y-61105682D01*
X41500001Y-61105682D01*
X41543167Y-61099999D01*
X41656762Y-61085044D01*
X41802841Y-61024536D01*
X41928282Y-60928282D01*
X42024536Y-60802841D01*
X42085044Y-60656762D01*
X42105682Y-60500000D01*
X42085044Y-60343238D01*
X42064777Y-60294310D01*
X42024537Y-60197161D01*
X42024537Y-60197160D01*
X41928286Y-60071723D01*
X41928285Y-60071722D01*
X41928282Y-60071718D01*
X41928277Y-60071714D01*
X41928276Y-60071713D01*
X41831116Y-59997160D01*
X41802841Y-59975464D01*
X41802840Y-59975463D01*
X41802838Y-59975462D01*
X41656766Y-59914957D01*
X41656758Y-59914955D01*
X41500001Y-59894318D01*
X41499999Y-59894318D01*
X41343241Y-59914955D01*
X41343233Y-59914957D01*
X41197161Y-59975462D01*
X41197160Y-59975462D01*
X41071723Y-60071713D01*
X41071713Y-60071723D01*
X40975462Y-60197160D01*
X40975462Y-60197161D01*
X40914957Y-60343233D01*
X40914955Y-60343241D01*
X40894318Y-60499999D01*
X40894318Y-60500000D01*
X34892517Y-60500000D01*
X34905682Y-60400000D01*
X34885044Y-60243238D01*
X34881136Y-60233803D01*
X34824537Y-60097161D01*
X34824537Y-60097160D01*
X34728286Y-59971723D01*
X34728285Y-59971722D01*
X34728282Y-59971718D01*
X34728277Y-59971714D01*
X34728276Y-59971713D01*
X34602838Y-59875462D01*
X34456766Y-59814957D01*
X34456758Y-59814955D01*
X34300001Y-59794318D01*
X34299999Y-59794318D01*
X34143241Y-59814955D01*
X34143233Y-59814957D01*
X33997161Y-59875462D01*
X33997160Y-59875462D01*
X33871723Y-59971713D01*
X33871713Y-59971723D01*
X33775462Y-60097160D01*
X33775462Y-60097161D01*
X33714957Y-60243233D01*
X33714955Y-60243241D01*
X33694318Y-60399999D01*
X33694318Y-60400000D01*
X29292517Y-60400000D01*
X29305682Y-60300000D01*
X29285044Y-60143238D01*
X29265958Y-60097160D01*
X29224537Y-59997161D01*
X29224537Y-59997160D01*
X29128286Y-59871723D01*
X29128285Y-59871722D01*
X29128282Y-59871718D01*
X29128277Y-59871714D01*
X29128276Y-59871713D01*
X29039733Y-59803772D01*
X29002841Y-59775464D01*
X29002840Y-59775463D01*
X29002838Y-59775462D01*
X28856766Y-59714957D01*
X28856758Y-59714955D01*
X28813545Y-59709266D01*
X45385052Y-59709266D01*
X45405689Y-59866024D01*
X45405691Y-59866032D01*
X45466196Y-60012104D01*
X45466196Y-60012105D01*
X45545117Y-60114957D01*
X45562452Y-60137548D01*
X45687893Y-60233802D01*
X45687894Y-60233802D01*
X45687895Y-60233803D01*
X45743323Y-60256762D01*
X45833972Y-60294310D01*
X45951543Y-60309788D01*
X45990733Y-60314948D01*
X45990734Y-60314948D01*
X45990735Y-60314948D01*
X46022086Y-60310820D01*
X46147496Y-60294310D01*
X46293575Y-60233802D01*
X46419016Y-60137548D01*
X46515270Y-60012107D01*
X46575778Y-59866028D01*
X46596416Y-59709266D01*
X46575778Y-59552504D01*
X46515271Y-59406427D01*
X46515271Y-59406426D01*
X46419020Y-59280989D01*
X46419019Y-59280988D01*
X46419016Y-59280984D01*
X46419011Y-59280980D01*
X46419010Y-59280979D01*
X46293572Y-59184728D01*
X46147500Y-59124223D01*
X46147492Y-59124221D01*
X45990735Y-59103584D01*
X45990733Y-59103584D01*
X45833975Y-59124221D01*
X45833967Y-59124223D01*
X45687895Y-59184728D01*
X45687894Y-59184728D01*
X45562457Y-59280979D01*
X45562447Y-59280989D01*
X45466196Y-59406426D01*
X45466196Y-59406427D01*
X45405691Y-59552499D01*
X45405689Y-59552507D01*
X45385052Y-59709265D01*
X45385052Y-59709266D01*
X28813545Y-59709266D01*
X28700001Y-59694318D01*
X28699999Y-59694318D01*
X28543241Y-59714955D01*
X28543236Y-59714957D01*
X28397160Y-59775463D01*
X28397157Y-59775465D01*
X28360267Y-59803772D01*
X28302591Y-59824196D01*
X28243925Y-59806818D01*
X28239733Y-59803772D01*
X28223303Y-59791165D01*
X28202841Y-59775464D01*
X28202836Y-59775462D01*
X28166355Y-59760351D01*
X28056762Y-59714956D01*
X28056759Y-59714955D01*
X28056758Y-59714955D01*
X27900001Y-59694318D01*
X27899999Y-59694318D01*
X27743241Y-59714955D01*
X27743233Y-59714957D01*
X27597161Y-59775462D01*
X27597160Y-59775462D01*
X27471723Y-59871713D01*
X27471713Y-59871723D01*
X27375462Y-59997160D01*
X27375462Y-59997161D01*
X27314957Y-60143233D01*
X27314955Y-60143241D01*
X27294318Y-60299999D01*
X27294318Y-60300000D01*
X27307856Y-60402838D01*
X27314956Y-60456762D01*
X27332866Y-60500000D01*
X27375463Y-60602839D01*
X27375465Y-60602842D01*
X27403772Y-60639733D01*
X27424196Y-60697409D01*
X27406818Y-60756075D01*
X27403772Y-60760267D01*
X27375465Y-60797157D01*
X27375463Y-60797160D01*
X27350774Y-60856766D01*
X27321154Y-60928276D01*
X27314957Y-60943236D01*
X27314955Y-60943241D01*
X27294318Y-61099999D01*
X27294318Y-61100000D01*
X7849983Y-61100000D01*
X7924536Y-61002841D01*
X7985044Y-60856762D01*
X8005682Y-60700000D01*
X7985044Y-60543238D01*
X7965958Y-60497160D01*
X7925713Y-60400000D01*
X13494318Y-60400000D01*
X13514955Y-60556758D01*
X13514957Y-60556766D01*
X13575462Y-60702838D01*
X13575462Y-60702839D01*
X13652194Y-60802838D01*
X13671718Y-60828282D01*
X13797159Y-60924536D01*
X13797160Y-60924536D01*
X13797161Y-60924537D01*
X13874969Y-60956766D01*
X13943238Y-60985044D01*
X14060809Y-61000522D01*
X14099999Y-61005682D01*
X14100000Y-61005682D01*
X14100001Y-61005682D01*
X14131352Y-61001554D01*
X14256762Y-60985044D01*
X14402841Y-60924536D01*
X14528282Y-60828282D01*
X14624536Y-60702841D01*
X14685044Y-60556762D01*
X14705682Y-60400000D01*
X14685044Y-60243238D01*
X14681136Y-60233803D01*
X14624537Y-60097161D01*
X14624537Y-60097160D01*
X14528286Y-59971723D01*
X14528285Y-59971722D01*
X14528282Y-59971718D01*
X14528277Y-59971714D01*
X14528276Y-59971713D01*
X14402838Y-59875462D01*
X14256766Y-59814957D01*
X14256758Y-59814955D01*
X14100001Y-59794318D01*
X14099999Y-59794318D01*
X13943241Y-59814955D01*
X13943233Y-59814957D01*
X13797161Y-59875462D01*
X13797160Y-59875462D01*
X13671723Y-59971713D01*
X13671713Y-59971723D01*
X13575462Y-60097160D01*
X13575462Y-60097161D01*
X13514957Y-60243233D01*
X13514955Y-60243241D01*
X13494318Y-60399999D01*
X13494318Y-60400000D01*
X7925713Y-60400000D01*
X7924537Y-60397161D01*
X7924537Y-60397160D01*
X7828286Y-60271723D01*
X7828285Y-60271722D01*
X7828282Y-60271718D01*
X7828277Y-60271714D01*
X7828276Y-60271713D01*
X7731116Y-60197160D01*
X7702841Y-60175464D01*
X7702840Y-60175463D01*
X7702838Y-60175462D01*
X7556766Y-60114957D01*
X7556758Y-60114955D01*
X7400001Y-60094318D01*
X7399999Y-60094318D01*
X7243241Y-60114955D01*
X7243233Y-60114957D01*
X7097161Y-60175462D01*
X7097160Y-60175462D01*
X6971723Y-60271713D01*
X6971713Y-60271723D01*
X6875462Y-60397160D01*
X6875462Y-60397161D01*
X6814957Y-60543233D01*
X6814955Y-60543241D01*
X6794318Y-60699999D01*
X6794318Y-60700000D01*
X5267134Y-60700000D01*
X5285044Y-60656762D01*
X5305682Y-60500000D01*
X5285044Y-60343238D01*
X5264777Y-60294310D01*
X5224537Y-60197161D01*
X5224537Y-60197160D01*
X5128286Y-60071723D01*
X5128285Y-60071722D01*
X5128282Y-60071718D01*
X5128277Y-60071714D01*
X5128276Y-60071713D01*
X5031116Y-59997160D01*
X5002841Y-59975464D01*
X5002840Y-59975463D01*
X5002838Y-59975462D01*
X4856766Y-59914957D01*
X4856758Y-59914955D01*
X4700001Y-59894318D01*
X4699999Y-59894318D01*
X4543241Y-59914955D01*
X4543233Y-59914957D01*
X4397161Y-59975462D01*
X4397160Y-59975462D01*
X4271723Y-60071713D01*
X4271713Y-60071723D01*
X4175462Y-60197160D01*
X4175462Y-60197161D01*
X4114957Y-60343233D01*
X4114955Y-60343241D01*
X4094318Y-60499999D01*
X4094318Y-60500000D01*
X500000Y-60500000D01*
X500000Y-57600000D01*
X53894318Y-57600000D01*
X53914955Y-57756758D01*
X53914957Y-57756766D01*
X53975462Y-57902838D01*
X53975462Y-57902839D01*
X54071713Y-58028276D01*
X54071718Y-58028282D01*
X54197159Y-58124536D01*
X54197160Y-58124536D01*
X54197161Y-58124537D01*
X54274969Y-58156766D01*
X54343238Y-58185044D01*
X54460809Y-58200522D01*
X54499999Y-58205682D01*
X54500000Y-58205682D01*
X54500001Y-58205682D01*
X54531352Y-58201554D01*
X54656762Y-58185044D01*
X54802841Y-58124536D01*
X54839733Y-58096227D01*
X54897408Y-58075804D01*
X54956074Y-58093181D01*
X54960257Y-58096220D01*
X54997159Y-58124536D01*
X54997160Y-58124536D01*
X54997161Y-58124537D01*
X55074969Y-58156766D01*
X55143238Y-58185044D01*
X55260809Y-58200522D01*
X55299999Y-58205682D01*
X55300000Y-58205682D01*
X55300001Y-58205682D01*
X55331352Y-58201554D01*
X55456762Y-58185044D01*
X55602841Y-58124536D01*
X55728282Y-58028282D01*
X55824536Y-57902841D01*
X55885044Y-57756762D01*
X55905682Y-57600000D01*
X55885044Y-57443238D01*
X55824536Y-57297159D01*
X55796227Y-57260266D01*
X55775804Y-57202592D01*
X55793181Y-57143926D01*
X55796228Y-57139732D01*
X55824536Y-57102841D01*
X55885044Y-56956762D01*
X55905682Y-56800000D01*
X55885044Y-56643238D01*
X55860938Y-56585042D01*
X55825713Y-56500000D01*
X57294318Y-56500000D01*
X57314955Y-56656758D01*
X57314957Y-56656766D01*
X57375462Y-56802838D01*
X57375462Y-56802839D01*
X57375464Y-56802841D01*
X57471718Y-56928282D01*
X57597159Y-57024536D01*
X57743238Y-57085044D01*
X57860809Y-57100522D01*
X57899999Y-57105682D01*
X57900000Y-57105682D01*
X57900001Y-57105682D01*
X57931352Y-57101554D01*
X58056762Y-57085044D01*
X58202841Y-57024536D01*
X58328282Y-56928282D01*
X58424536Y-56802841D01*
X58485044Y-56656762D01*
X58505682Y-56500000D01*
X58485044Y-56343238D01*
X58456971Y-56275464D01*
X58422053Y-56191163D01*
X58423950Y-56190376D01*
X58413165Y-56139662D01*
X58423047Y-56109248D01*
X58422053Y-56108837D01*
X58467135Y-55999999D01*
X58485044Y-55956762D01*
X58505682Y-55800000D01*
X58485044Y-55643238D01*
X58485042Y-55643233D01*
X58424537Y-55497161D01*
X58424537Y-55497160D01*
X58328286Y-55371723D01*
X58328285Y-55371722D01*
X58328282Y-55371718D01*
X58328277Y-55371714D01*
X58328276Y-55371713D01*
X58257104Y-55317101D01*
X58202841Y-55275464D01*
X58202840Y-55275463D01*
X58202838Y-55275462D01*
X58056766Y-55214957D01*
X58056758Y-55214955D01*
X57900001Y-55194318D01*
X57899999Y-55194318D01*
X57743241Y-55214955D01*
X57743233Y-55214957D01*
X57597161Y-55275462D01*
X57597160Y-55275462D01*
X57471723Y-55371713D01*
X57471713Y-55371723D01*
X57375462Y-55497160D01*
X57375462Y-55497161D01*
X57314957Y-55643233D01*
X57314955Y-55643241D01*
X57294318Y-55799999D01*
X57294318Y-55800000D01*
X57310713Y-55924537D01*
X57314956Y-55956762D01*
X57359056Y-56063229D01*
X57377947Y-56108835D01*
X57376051Y-56109620D01*
X57386833Y-56160351D01*
X57376954Y-56190753D01*
X57377947Y-56191165D01*
X57314957Y-56343236D01*
X57314955Y-56343241D01*
X57294318Y-56499999D01*
X57294318Y-56500000D01*
X55825713Y-56500000D01*
X55824537Y-56497161D01*
X55824537Y-56497160D01*
X55728286Y-56371723D01*
X55728285Y-56371722D01*
X55728282Y-56371718D01*
X55728277Y-56371714D01*
X55728276Y-56371713D01*
X55638517Y-56302839D01*
X55602841Y-56275464D01*
X55602840Y-56275463D01*
X55602838Y-56275462D01*
X55456766Y-56214957D01*
X55456758Y-56214955D01*
X55300001Y-56194318D01*
X55299999Y-56194318D01*
X55143241Y-56214955D01*
X55143233Y-56214957D01*
X54997161Y-56275462D01*
X54997160Y-56275462D01*
X54871723Y-56371713D01*
X54871713Y-56371723D01*
X54775462Y-56497160D01*
X54775462Y-56497161D01*
X54714957Y-56643233D01*
X54714955Y-56643241D01*
X54694318Y-56799999D01*
X54694318Y-56800000D01*
X54706938Y-56895863D01*
X54695788Y-56956024D01*
X54651405Y-56998141D01*
X54595863Y-57006938D01*
X54500001Y-56994318D01*
X54499999Y-56994318D01*
X54343241Y-57014955D01*
X54343233Y-57014957D01*
X54197161Y-57075462D01*
X54197160Y-57075462D01*
X54071723Y-57171713D01*
X54071713Y-57171723D01*
X53975462Y-57297160D01*
X53975462Y-57297161D01*
X53914957Y-57443233D01*
X53914955Y-57443241D01*
X53894318Y-57599999D01*
X53894318Y-57600000D01*
X500000Y-57600000D01*
X500000Y-55400000D01*
X18994318Y-55400000D01*
X19014955Y-55556758D01*
X19014957Y-55556766D01*
X19075462Y-55702838D01*
X19075462Y-55702839D01*
X19171713Y-55828276D01*
X19171718Y-55828282D01*
X19297159Y-55924536D01*
X19297160Y-55924536D01*
X19297161Y-55924537D01*
X19374969Y-55956766D01*
X19443238Y-55985044D01*
X19556833Y-55999999D01*
X19599999Y-56005682D01*
X19600000Y-56005682D01*
X19600001Y-56005682D01*
X19643167Y-55999999D01*
X19756762Y-55985044D01*
X19902841Y-55924536D01*
X19939733Y-55896227D01*
X19997408Y-55875804D01*
X20056074Y-55893181D01*
X20060257Y-55896220D01*
X20097159Y-55924536D01*
X20097160Y-55924536D01*
X20097161Y-55924537D01*
X20174969Y-55956766D01*
X20243238Y-55985044D01*
X20356833Y-55999999D01*
X20399999Y-56005682D01*
X20400000Y-56005682D01*
X20400001Y-56005682D01*
X20443159Y-56000000D01*
X27394318Y-56000000D01*
X27414955Y-56156758D01*
X27414957Y-56156766D01*
X27475462Y-56302838D01*
X27475462Y-56302839D01*
X27571713Y-56428276D01*
X27571718Y-56428282D01*
X27697159Y-56524536D01*
X27843238Y-56585044D01*
X27960809Y-56600522D01*
X27999999Y-56605682D01*
X28000000Y-56605682D01*
X28000001Y-56605682D01*
X28031352Y-56601554D01*
X28156762Y-56585044D01*
X28302841Y-56524536D01*
X28428282Y-56428282D01*
X28524536Y-56302841D01*
X28585044Y-56156762D01*
X28597358Y-56063226D01*
X28623697Y-56008004D01*
X28657623Y-55984687D01*
X28802841Y-55924536D01*
X28928282Y-55828282D01*
X29024536Y-55702841D01*
X29085044Y-55556762D01*
X29105682Y-55400000D01*
X29085044Y-55243238D01*
X29024537Y-55097161D01*
X29024537Y-55097160D01*
X28928286Y-54971723D01*
X28928285Y-54971722D01*
X28928282Y-54971718D01*
X28928277Y-54971714D01*
X28928276Y-54971713D01*
X28885573Y-54938946D01*
X28802841Y-54875464D01*
X28778592Y-54865419D01*
X28758981Y-54857296D01*
X28712456Y-54817558D01*
X28698173Y-54758063D01*
X28698710Y-54752954D01*
X28705682Y-54700000D01*
X28698715Y-54647086D01*
X28709864Y-54586929D01*
X28754246Y-54544811D01*
X28758950Y-54542715D01*
X28802841Y-54524536D01*
X28928282Y-54428282D01*
X29024536Y-54302841D01*
X29085044Y-54156762D01*
X29105682Y-54000000D01*
X29085044Y-53843238D01*
X29060938Y-53785042D01*
X29024537Y-53697161D01*
X29024537Y-53697160D01*
X28928286Y-53571723D01*
X28928285Y-53571722D01*
X28928282Y-53571718D01*
X28928277Y-53571714D01*
X28928276Y-53571713D01*
X28838517Y-53502839D01*
X28802841Y-53475464D01*
X28802840Y-53475463D01*
X28802838Y-53475462D01*
X28656766Y-53414957D01*
X28656758Y-53414955D01*
X28500001Y-53394318D01*
X28499999Y-53394318D01*
X28343241Y-53414955D01*
X28343233Y-53414957D01*
X28197161Y-53475462D01*
X28197160Y-53475462D01*
X28071723Y-53571713D01*
X28071713Y-53571723D01*
X27975462Y-53697160D01*
X27975462Y-53697161D01*
X27914957Y-53843233D01*
X27914955Y-53843241D01*
X27894318Y-53999999D01*
X27894318Y-54000002D01*
X27901283Y-54052911D01*
X27890132Y-54113072D01*
X27845750Y-54155188D01*
X27841018Y-54157295D01*
X27797161Y-54175462D01*
X27797157Y-54175464D01*
X27671723Y-54271713D01*
X27671713Y-54271723D01*
X27575462Y-54397160D01*
X27575462Y-54397161D01*
X27514957Y-54543233D01*
X27514955Y-54543241D01*
X27494318Y-54699999D01*
X27494318Y-54700000D01*
X27514955Y-54856758D01*
X27514957Y-54856766D01*
X27575462Y-55002838D01*
X27575462Y-55002839D01*
X27647837Y-55097160D01*
X27671718Y-55128282D01*
X27797159Y-55224536D01*
X27797160Y-55224536D01*
X27797161Y-55224537D01*
X27829241Y-55237825D01*
X27875767Y-55277561D01*
X27890051Y-55337056D01*
X27866637Y-55393584D01*
X27829242Y-55420753D01*
X27697160Y-55475463D01*
X27571723Y-55571713D01*
X27571713Y-55571723D01*
X27475462Y-55697160D01*
X27475462Y-55697161D01*
X27414957Y-55843233D01*
X27414955Y-55843241D01*
X27394318Y-55999999D01*
X27394318Y-56000000D01*
X20443159Y-56000000D01*
X20443167Y-55999999D01*
X20556762Y-55985044D01*
X20702841Y-55924536D01*
X20828282Y-55828282D01*
X20924536Y-55702841D01*
X20985044Y-55556762D01*
X21005682Y-55400000D01*
X20985044Y-55243238D01*
X20924536Y-55097159D01*
X20896227Y-55060266D01*
X20875804Y-55002592D01*
X20893181Y-54943926D01*
X20896220Y-54939742D01*
X20924536Y-54902841D01*
X20985044Y-54756762D01*
X21005682Y-54600000D01*
X20985044Y-54443238D01*
X20965958Y-54397160D01*
X20924537Y-54297161D01*
X20924537Y-54297160D01*
X20828286Y-54171723D01*
X20828285Y-54171722D01*
X20828282Y-54171718D01*
X20828277Y-54171714D01*
X20828276Y-54171713D01*
X20702838Y-54075462D01*
X20556766Y-54014957D01*
X20556758Y-54014955D01*
X20400001Y-53994318D01*
X20399999Y-53994318D01*
X20243241Y-54014955D01*
X20243236Y-54014957D01*
X20097160Y-54075463D01*
X20097157Y-54075465D01*
X20060267Y-54103772D01*
X20002591Y-54124196D01*
X19943925Y-54106818D01*
X19939733Y-54103772D01*
X19902842Y-54075465D01*
X19902841Y-54075464D01*
X19902836Y-54075462D01*
X19848393Y-54052911D01*
X19756762Y-54014956D01*
X19756759Y-54014955D01*
X19756758Y-54014955D01*
X19600001Y-53994318D01*
X19599999Y-53994318D01*
X19443241Y-54014955D01*
X19443233Y-54014957D01*
X19297161Y-54075462D01*
X19297160Y-54075462D01*
X19171723Y-54171713D01*
X19171713Y-54171723D01*
X19075462Y-54297160D01*
X19075462Y-54297161D01*
X19014957Y-54443233D01*
X19014955Y-54443241D01*
X18994318Y-54599999D01*
X18994318Y-54600000D01*
X19014448Y-54752908D01*
X19014956Y-54756762D01*
X19056376Y-54856758D01*
X19075463Y-54902839D01*
X19075465Y-54902842D01*
X19103772Y-54939733D01*
X19124196Y-54997409D01*
X19106818Y-55056075D01*
X19103772Y-55060267D01*
X19075465Y-55097157D01*
X19075463Y-55097160D01*
X19014957Y-55243236D01*
X19014955Y-55243241D01*
X18994318Y-55399999D01*
X18994318Y-55400000D01*
X500000Y-55400000D01*
X500000Y-54200000D01*
X6094318Y-54200000D01*
X6114955Y-54356758D01*
X6114957Y-54356766D01*
X6175462Y-54502838D01*
X6175462Y-54502839D01*
X6271713Y-54628276D01*
X6271718Y-54628282D01*
X6397159Y-54724536D01*
X6397160Y-54724536D01*
X6397161Y-54724537D01*
X6474969Y-54756766D01*
X6543238Y-54785044D01*
X6660809Y-54800522D01*
X6699999Y-54805682D01*
X6700000Y-54805682D01*
X6700001Y-54805682D01*
X6731352Y-54801554D01*
X6856762Y-54785044D01*
X7002841Y-54724536D01*
X7128282Y-54628282D01*
X7224536Y-54502841D01*
X7285044Y-54356762D01*
X7305682Y-54200000D01*
X7285044Y-54043238D01*
X7224537Y-53897161D01*
X7224537Y-53897160D01*
X7128286Y-53771723D01*
X7128285Y-53771722D01*
X7128282Y-53771718D01*
X7128277Y-53771714D01*
X7128276Y-53771713D01*
X7031116Y-53697160D01*
X7002841Y-53675464D01*
X7002840Y-53675463D01*
X7002838Y-53675462D01*
X6856766Y-53614957D01*
X6856758Y-53614955D01*
X6700001Y-53594318D01*
X6699999Y-53594318D01*
X6543241Y-53614955D01*
X6543233Y-53614957D01*
X6397161Y-53675462D01*
X6397160Y-53675462D01*
X6271723Y-53771713D01*
X6271713Y-53771723D01*
X6175462Y-53897160D01*
X6175462Y-53897161D01*
X6114957Y-54043233D01*
X6114955Y-54043241D01*
X6094318Y-54199999D01*
X6094318Y-54200000D01*
X500000Y-54200000D01*
X500000Y-53200000D01*
X31794318Y-53200000D01*
X31814955Y-53356758D01*
X31814957Y-53356766D01*
X31875462Y-53502838D01*
X31875462Y-53502839D01*
X31961493Y-53614957D01*
X31971718Y-53628282D01*
X32097159Y-53724536D01*
X32097160Y-53724536D01*
X32097161Y-53724537D01*
X32174959Y-53756762D01*
X32243238Y-53785044D01*
X32360809Y-53800522D01*
X32399999Y-53805682D01*
X32400000Y-53805682D01*
X32400001Y-53805682D01*
X32431352Y-53801554D01*
X32556762Y-53785044D01*
X32702841Y-53724536D01*
X32739733Y-53696227D01*
X32797408Y-53675804D01*
X32856074Y-53693181D01*
X32860257Y-53696220D01*
X32897159Y-53724536D01*
X32897160Y-53724536D01*
X32897161Y-53724537D01*
X32974959Y-53756762D01*
X33043238Y-53785044D01*
X33160809Y-53800522D01*
X33199999Y-53805682D01*
X33200000Y-53805682D01*
X33200001Y-53805682D01*
X33231352Y-53801554D01*
X33356762Y-53785044D01*
X33502841Y-53724536D01*
X33539733Y-53696227D01*
X33597408Y-53675804D01*
X33656074Y-53693181D01*
X33660257Y-53696220D01*
X33697159Y-53724536D01*
X33697160Y-53724536D01*
X33697161Y-53724537D01*
X33774959Y-53756762D01*
X33843238Y-53785044D01*
X33960809Y-53800522D01*
X33999999Y-53805682D01*
X34000000Y-53805682D01*
X34000001Y-53805682D01*
X34031352Y-53801554D01*
X34156762Y-53785044D01*
X34302841Y-53724536D01*
X34339733Y-53696227D01*
X34397408Y-53675804D01*
X34456074Y-53693181D01*
X34460257Y-53696220D01*
X34497159Y-53724536D01*
X34497160Y-53724536D01*
X34497161Y-53724537D01*
X34574959Y-53756762D01*
X34643238Y-53785044D01*
X34760809Y-53800522D01*
X34799999Y-53805682D01*
X34800000Y-53805682D01*
X34800001Y-53805682D01*
X34831352Y-53801554D01*
X34956762Y-53785044D01*
X35102841Y-53724536D01*
X35228282Y-53628282D01*
X35249983Y-53600000D01*
X42494318Y-53600000D01*
X42514955Y-53756758D01*
X42514957Y-53756766D01*
X42575462Y-53902838D01*
X42575462Y-53902839D01*
X42661493Y-54014957D01*
X42671718Y-54028282D01*
X42797159Y-54124536D01*
X42797160Y-54124536D01*
X42797161Y-54124537D01*
X42874959Y-54156762D01*
X42943238Y-54185044D01*
X43056833Y-54199999D01*
X43099999Y-54205682D01*
X43100000Y-54205682D01*
X43100001Y-54205682D01*
X43143167Y-54199999D01*
X43256762Y-54185044D01*
X43402841Y-54124536D01*
X43528282Y-54028282D01*
X43624536Y-53902841D01*
X43685044Y-53756762D01*
X43705682Y-53600000D01*
X60494318Y-53600000D01*
X60514955Y-53756758D01*
X60514957Y-53756766D01*
X60575462Y-53902838D01*
X60575462Y-53902839D01*
X60661493Y-54014957D01*
X60671718Y-54028282D01*
X60797159Y-54124536D01*
X60797160Y-54124536D01*
X60797161Y-54124537D01*
X60874959Y-54156762D01*
X60943238Y-54185044D01*
X61056833Y-54199999D01*
X61099999Y-54205682D01*
X61100000Y-54205682D01*
X61100001Y-54205682D01*
X61143167Y-54199999D01*
X61256762Y-54185044D01*
X61402841Y-54124536D01*
X61439733Y-54096227D01*
X61497408Y-54075804D01*
X61556074Y-54093181D01*
X61560257Y-54096220D01*
X61597159Y-54124536D01*
X61597160Y-54124536D01*
X61597161Y-54124537D01*
X61674959Y-54156762D01*
X61743238Y-54185044D01*
X61856833Y-54199999D01*
X61899999Y-54205682D01*
X61900000Y-54205682D01*
X61900001Y-54205682D01*
X61943167Y-54199999D01*
X62056762Y-54185044D01*
X62202841Y-54124536D01*
X62328282Y-54028282D01*
X62424536Y-53902841D01*
X62485044Y-53756762D01*
X62505682Y-53600000D01*
X62485044Y-53443238D01*
X62449226Y-53356766D01*
X62424537Y-53297161D01*
X62424537Y-53297160D01*
X62328286Y-53171723D01*
X62328285Y-53171722D01*
X62328282Y-53171718D01*
X62328277Y-53171714D01*
X62328276Y-53171713D01*
X62202838Y-53075462D01*
X62056766Y-53014957D01*
X62056758Y-53014955D01*
X61900001Y-52994318D01*
X61899999Y-52994318D01*
X61743241Y-53014955D01*
X61743236Y-53014957D01*
X61597160Y-53075463D01*
X61597157Y-53075465D01*
X61560267Y-53103772D01*
X61502591Y-53124196D01*
X61443925Y-53106818D01*
X61439733Y-53103772D01*
X61402842Y-53075465D01*
X61402841Y-53075464D01*
X61402836Y-53075462D01*
X61357681Y-53056758D01*
X61256762Y-53014956D01*
X61256759Y-53014955D01*
X61256758Y-53014955D01*
X61100001Y-52994318D01*
X61099999Y-52994318D01*
X60943241Y-53014955D01*
X60943233Y-53014957D01*
X60797161Y-53075462D01*
X60797160Y-53075462D01*
X60671723Y-53171713D01*
X60671713Y-53171723D01*
X60575462Y-53297160D01*
X60575462Y-53297161D01*
X60514957Y-53443233D01*
X60514955Y-53443241D01*
X60494318Y-53599999D01*
X60494318Y-53600000D01*
X43705682Y-53600000D01*
X43685044Y-53443238D01*
X43649226Y-53356766D01*
X43622053Y-53291163D01*
X43623950Y-53290376D01*
X43613165Y-53239662D01*
X43623047Y-53209248D01*
X43622053Y-53208837D01*
X43685042Y-53056766D01*
X43685044Y-53056762D01*
X43705682Y-52900000D01*
X43685044Y-52743238D01*
X43677157Y-52724196D01*
X43622053Y-52591163D01*
X43623950Y-52590376D01*
X43613165Y-52539662D01*
X43623047Y-52509248D01*
X43622053Y-52508837D01*
X43685042Y-52356766D01*
X43685044Y-52356762D01*
X43705682Y-52200000D01*
X43685044Y-52043238D01*
X43642171Y-51939733D01*
X43625713Y-51900000D01*
X44494318Y-51900000D01*
X44514955Y-52056758D01*
X44514957Y-52056766D01*
X44575462Y-52202838D01*
X44575462Y-52202839D01*
X44671713Y-52328276D01*
X44671718Y-52328282D01*
X44797159Y-52424536D01*
X44943238Y-52485044D01*
X45060809Y-52500522D01*
X45099999Y-52505682D01*
X45100000Y-52505682D01*
X45100001Y-52505682D01*
X45131352Y-52501554D01*
X45256762Y-52485044D01*
X45402841Y-52424536D01*
X45528282Y-52328282D01*
X45624536Y-52202841D01*
X45685044Y-52056762D01*
X45705682Y-51900000D01*
X49494318Y-51900000D01*
X49514955Y-52056758D01*
X49514957Y-52056766D01*
X49575462Y-52202838D01*
X49575462Y-52202839D01*
X49671713Y-52328276D01*
X49671718Y-52328282D01*
X49797159Y-52424536D01*
X49943238Y-52485044D01*
X50060809Y-52500522D01*
X50099999Y-52505682D01*
X50100000Y-52505682D01*
X50100001Y-52505682D01*
X50131352Y-52501554D01*
X50256762Y-52485044D01*
X50402841Y-52424536D01*
X50528282Y-52328282D01*
X50624536Y-52202841D01*
X50685044Y-52056762D01*
X50705682Y-51900000D01*
X50685044Y-51743238D01*
X50649225Y-51656763D01*
X50624537Y-51597161D01*
X50624537Y-51597160D01*
X50528286Y-51471723D01*
X50528285Y-51471722D01*
X50528282Y-51471718D01*
X50528277Y-51471714D01*
X50528276Y-51471713D01*
X50402838Y-51375462D01*
X50256766Y-51314957D01*
X50256758Y-51314955D01*
X50100001Y-51294318D01*
X50099999Y-51294318D01*
X49943241Y-51314955D01*
X49943233Y-51314957D01*
X49797161Y-51375462D01*
X49797160Y-51375462D01*
X49671723Y-51471713D01*
X49671713Y-51471723D01*
X49575462Y-51597160D01*
X49575462Y-51597161D01*
X49514957Y-51743233D01*
X49514955Y-51743241D01*
X49494318Y-51899999D01*
X49494318Y-51900000D01*
X45705682Y-51900000D01*
X45685044Y-51743238D01*
X45649225Y-51656763D01*
X45624537Y-51597161D01*
X45624537Y-51597160D01*
X45528286Y-51471723D01*
X45528285Y-51471722D01*
X45528282Y-51471718D01*
X45528277Y-51471714D01*
X45528276Y-51471713D01*
X45402838Y-51375462D01*
X45256766Y-51314957D01*
X45256758Y-51314955D01*
X45100001Y-51294318D01*
X45099999Y-51294318D01*
X44943241Y-51314955D01*
X44943233Y-51314957D01*
X44797161Y-51375462D01*
X44797160Y-51375462D01*
X44671723Y-51471713D01*
X44671713Y-51471723D01*
X44575462Y-51597160D01*
X44575462Y-51597161D01*
X44514957Y-51743233D01*
X44514955Y-51743241D01*
X44494318Y-51899999D01*
X44494318Y-51900000D01*
X43625713Y-51900000D01*
X43622053Y-51891163D01*
X43623950Y-51890376D01*
X43613165Y-51839662D01*
X43623047Y-51809248D01*
X43622053Y-51808837D01*
X43685042Y-51656766D01*
X43685044Y-51656762D01*
X43705682Y-51500000D01*
X43685044Y-51343238D01*
X43677298Y-51324537D01*
X43622053Y-51191163D01*
X43623950Y-51190376D01*
X43613165Y-51139662D01*
X43623047Y-51109248D01*
X43622053Y-51108837D01*
X43685042Y-50956766D01*
X43685044Y-50956762D01*
X43705682Y-50800000D01*
X43685044Y-50643238D01*
X43665958Y-50597160D01*
X43622053Y-50491163D01*
X43623950Y-50490376D01*
X43613165Y-50439662D01*
X43623047Y-50409248D01*
X43622053Y-50408837D01*
X43668310Y-50297161D01*
X43685044Y-50256762D01*
X43705682Y-50100000D01*
X43685044Y-49943238D01*
X43685042Y-49943233D01*
X43622053Y-49791163D01*
X43623950Y-49790376D01*
X43613165Y-49739662D01*
X43623047Y-49709248D01*
X43622053Y-49708837D01*
X43685042Y-49556766D01*
X43685044Y-49556762D01*
X43705682Y-49400000D01*
X43685044Y-49243238D01*
X43685042Y-49243233D01*
X43622053Y-49091163D01*
X43623950Y-49090376D01*
X43613165Y-49039662D01*
X43623047Y-49009248D01*
X43622053Y-49008837D01*
X43685042Y-48856766D01*
X43685044Y-48856762D01*
X43705682Y-48700000D01*
X43685044Y-48543238D01*
X43685042Y-48543233D01*
X43622053Y-48391163D01*
X43623950Y-48390376D01*
X43613165Y-48339662D01*
X43623047Y-48309248D01*
X43622053Y-48308837D01*
X43685042Y-48156766D01*
X43685044Y-48156762D01*
X43705682Y-48000000D01*
X43685044Y-47843238D01*
X43649226Y-47756766D01*
X43624537Y-47697161D01*
X43624537Y-47697160D01*
X43528286Y-47571723D01*
X43528285Y-47571722D01*
X43528282Y-47571718D01*
X43528277Y-47571714D01*
X43528276Y-47571713D01*
X43440202Y-47504132D01*
X43402841Y-47475464D01*
X43402840Y-47475463D01*
X43402838Y-47475462D01*
X43256766Y-47414957D01*
X43256758Y-47414955D01*
X43100001Y-47394318D01*
X43099999Y-47394318D01*
X42943241Y-47414955D01*
X42943233Y-47414957D01*
X42797161Y-47475462D01*
X42797160Y-47475462D01*
X42671723Y-47571713D01*
X42671713Y-47571723D01*
X42575462Y-47697160D01*
X42575462Y-47697161D01*
X42514957Y-47843233D01*
X42514955Y-47843241D01*
X42494318Y-47999999D01*
X42494318Y-48000000D01*
X42511206Y-48128282D01*
X42514956Y-48156762D01*
X42568092Y-48285044D01*
X42577947Y-48308835D01*
X42576051Y-48309620D01*
X42586833Y-48360351D01*
X42576954Y-48390753D01*
X42577947Y-48391165D01*
X42514957Y-48543236D01*
X42514955Y-48543241D01*
X42494318Y-48699999D01*
X42494318Y-48700000D01*
X42514956Y-48856762D01*
X42514958Y-48856766D01*
X42577947Y-49008835D01*
X42576051Y-49009620D01*
X42586833Y-49060351D01*
X42576954Y-49090753D01*
X42577947Y-49091165D01*
X42514957Y-49243236D01*
X42514955Y-49243241D01*
X42494318Y-49399999D01*
X42494318Y-49400000D01*
X42514956Y-49556762D01*
X42514958Y-49556766D01*
X42577947Y-49708835D01*
X42576051Y-49709620D01*
X42586833Y-49760351D01*
X42576954Y-49790753D01*
X42577947Y-49791165D01*
X42514957Y-49943236D01*
X42514955Y-49943241D01*
X42508231Y-49994318D01*
X42494318Y-50100000D01*
X42514956Y-50256762D01*
X42564124Y-50375464D01*
X42577947Y-50408835D01*
X42576051Y-50409620D01*
X42586833Y-50460351D01*
X42576954Y-50490753D01*
X42577947Y-50491165D01*
X42514957Y-50643236D01*
X42514955Y-50643241D01*
X42494318Y-50799999D01*
X42494318Y-50800000D01*
X42507856Y-50902838D01*
X42514956Y-50956762D01*
X42564124Y-51075464D01*
X42577947Y-51108835D01*
X42576051Y-51109620D01*
X42586833Y-51160351D01*
X42576954Y-51190753D01*
X42577947Y-51191165D01*
X42575464Y-51197158D01*
X42575464Y-51197159D01*
X42514958Y-51343233D01*
X42514957Y-51343236D01*
X42514955Y-51343241D01*
X42503759Y-51428286D01*
X42494318Y-51500000D01*
X42514956Y-51656762D01*
X42556378Y-51756763D01*
X42577947Y-51808835D01*
X42576051Y-51809620D01*
X42586833Y-51860351D01*
X42576954Y-51890753D01*
X42577947Y-51891165D01*
X42575464Y-51897158D01*
X42575464Y-51897159D01*
X42533939Y-51997409D01*
X42514957Y-52043236D01*
X42514955Y-52043241D01*
X42494318Y-52199999D01*
X42494318Y-52200000D01*
X42511206Y-52328282D01*
X42514956Y-52356762D01*
X42568092Y-52485044D01*
X42577947Y-52508835D01*
X42576051Y-52509620D01*
X42586833Y-52560351D01*
X42576954Y-52590753D01*
X42577947Y-52591165D01*
X42575464Y-52597158D01*
X42575464Y-52597159D01*
X42516408Y-52739733D01*
X42514957Y-52743236D01*
X42514955Y-52743241D01*
X42494318Y-52899999D01*
X42494318Y-52900000D01*
X42513175Y-53043238D01*
X42514956Y-53056762D01*
X42574287Y-53199999D01*
X42577947Y-53208835D01*
X42576051Y-53209620D01*
X42586833Y-53260351D01*
X42576954Y-53290753D01*
X42577947Y-53291165D01*
X42575464Y-53297158D01*
X42575464Y-53297159D01*
X42514958Y-53443233D01*
X42514957Y-53443236D01*
X42514955Y-53443241D01*
X42494318Y-53599999D01*
X42494318Y-53600000D01*
X35249983Y-53600000D01*
X35324536Y-53502841D01*
X35385044Y-53356762D01*
X35405682Y-53200000D01*
X35385044Y-53043238D01*
X35325713Y-52900000D01*
X35324537Y-52897161D01*
X35324537Y-52897160D01*
X35228286Y-52771723D01*
X35228285Y-52771722D01*
X35228282Y-52771718D01*
X35228277Y-52771714D01*
X35228276Y-52771713D01*
X35102838Y-52675462D01*
X34956766Y-52614957D01*
X34956758Y-52614955D01*
X34800001Y-52594318D01*
X34799999Y-52594318D01*
X34643241Y-52614955D01*
X34643236Y-52614957D01*
X34497160Y-52675463D01*
X34497157Y-52675465D01*
X34460267Y-52703772D01*
X34402591Y-52724196D01*
X34343925Y-52706818D01*
X34339733Y-52703772D01*
X34302842Y-52675465D01*
X34302841Y-52675464D01*
X34302836Y-52675462D01*
X34256104Y-52656105D01*
X34156762Y-52614956D01*
X34156759Y-52614955D01*
X34156758Y-52614955D01*
X34000001Y-52594318D01*
X33999999Y-52594318D01*
X33843241Y-52614955D01*
X33843236Y-52614957D01*
X33697160Y-52675463D01*
X33697157Y-52675465D01*
X33660267Y-52703772D01*
X33602591Y-52724196D01*
X33543925Y-52706818D01*
X33539733Y-52703772D01*
X33502842Y-52675465D01*
X33502841Y-52675464D01*
X33502836Y-52675462D01*
X33456104Y-52656105D01*
X33356762Y-52614956D01*
X33356759Y-52614955D01*
X33356758Y-52614955D01*
X33200001Y-52594318D01*
X33199998Y-52594318D01*
X33104135Y-52606938D01*
X33043975Y-52595788D01*
X33001858Y-52551405D01*
X32993061Y-52495864D01*
X33005682Y-52400000D01*
X32985044Y-52243238D01*
X32924536Y-52097159D01*
X32896227Y-52060266D01*
X32875804Y-52002592D01*
X32893181Y-51943926D01*
X32896220Y-51939742D01*
X32924536Y-51902841D01*
X32985044Y-51756762D01*
X33005682Y-51600000D01*
X32985044Y-51443238D01*
X32937425Y-51328276D01*
X32924537Y-51297161D01*
X32924537Y-51297160D01*
X32828286Y-51171723D01*
X32828285Y-51171722D01*
X32828282Y-51171718D01*
X32828277Y-51171714D01*
X32828276Y-51171713D01*
X32757104Y-51117101D01*
X32702841Y-51075464D01*
X32702840Y-51075463D01*
X32702838Y-51075462D01*
X32556766Y-51014957D01*
X32556758Y-51014955D01*
X32400001Y-50994318D01*
X32399999Y-50994318D01*
X32243241Y-51014955D01*
X32243233Y-51014957D01*
X32097161Y-51075462D01*
X32097160Y-51075462D01*
X31971723Y-51171713D01*
X31971713Y-51171723D01*
X31875462Y-51297160D01*
X31875462Y-51297161D01*
X31814957Y-51443233D01*
X31814955Y-51443241D01*
X31794318Y-51599999D01*
X31794318Y-51600000D01*
X31813175Y-51743238D01*
X31814956Y-51756762D01*
X31853577Y-51850000D01*
X31875463Y-51902839D01*
X31875465Y-51902842D01*
X31903772Y-51939733D01*
X31924196Y-51997409D01*
X31906818Y-52056075D01*
X31903772Y-52060267D01*
X31875465Y-52097157D01*
X31875463Y-52097160D01*
X31814957Y-52243236D01*
X31814955Y-52243241D01*
X31794318Y-52399999D01*
X31794318Y-52400000D01*
X31814250Y-52551405D01*
X31814956Y-52556762D01*
X31875464Y-52702841D01*
X31878516Y-52706818D01*
X31903772Y-52739733D01*
X31924196Y-52797409D01*
X31906818Y-52856075D01*
X31903772Y-52860267D01*
X31875465Y-52897157D01*
X31875463Y-52897160D01*
X31814957Y-53043236D01*
X31814955Y-53043241D01*
X31794318Y-53199999D01*
X31794318Y-53200000D01*
X500000Y-53200000D01*
X500000Y-51000000D01*
X2194318Y-51000000D01*
X2214955Y-51156758D01*
X2214957Y-51156766D01*
X2275462Y-51302838D01*
X2275462Y-51302839D01*
X2368844Y-51424537D01*
X2371718Y-51428282D01*
X2497159Y-51524536D01*
X2643238Y-51585044D01*
X2756833Y-51599999D01*
X2799999Y-51605682D01*
X2800000Y-51605682D01*
X2800001Y-51605682D01*
X2843167Y-51599999D01*
X2956762Y-51585044D01*
X3102841Y-51524536D01*
X3228282Y-51428282D01*
X3324536Y-51302841D01*
X3385044Y-51156762D01*
X3405682Y-51000000D01*
X3392517Y-50900000D01*
X14894318Y-50900000D01*
X14914955Y-51056758D01*
X14914957Y-51056766D01*
X14975462Y-51202838D01*
X14975462Y-51202839D01*
X15068844Y-51324537D01*
X15071718Y-51328282D01*
X15197159Y-51424536D01*
X15197160Y-51424536D01*
X15197161Y-51424537D01*
X15311054Y-51471713D01*
X15343238Y-51485044D01*
X15456833Y-51499999D01*
X15499999Y-51505682D01*
X15500000Y-51505682D01*
X15500001Y-51505682D01*
X15543167Y-51499999D01*
X15656762Y-51485044D01*
X15802841Y-51424536D01*
X15928282Y-51328282D01*
X16024536Y-51202841D01*
X16037825Y-51170757D01*
X16077560Y-51124233D01*
X16137055Y-51109948D01*
X16193583Y-51133362D01*
X16220753Y-51170757D01*
X16271933Y-51294318D01*
X16275464Y-51302841D01*
X16284761Y-51314957D01*
X16368843Y-51424536D01*
X16371718Y-51428282D01*
X16497159Y-51524536D01*
X16643238Y-51585044D01*
X16756833Y-51599999D01*
X16799999Y-51605682D01*
X16800000Y-51605682D01*
X16800001Y-51605682D01*
X16843167Y-51599999D01*
X16956762Y-51585044D01*
X17102841Y-51524536D01*
X17228282Y-51428282D01*
X17324536Y-51302841D01*
X17365628Y-51203635D01*
X17405363Y-51157111D01*
X17464857Y-51142827D01*
X17521386Y-51166241D01*
X17535633Y-51181255D01*
X17547836Y-51197159D01*
X17571718Y-51228282D01*
X17697159Y-51324536D01*
X17697160Y-51324536D01*
X17697161Y-51324537D01*
X17820105Y-51375462D01*
X17843238Y-51385044D01*
X17960809Y-51400522D01*
X17999999Y-51405682D01*
X18000000Y-51405682D01*
X18000001Y-51405682D01*
X18031352Y-51401554D01*
X18156762Y-51385044D01*
X18302841Y-51324536D01*
X18428282Y-51228282D01*
X18524536Y-51102841D01*
X18585044Y-50956762D01*
X18605682Y-50800000D01*
X18585044Y-50643238D01*
X18567134Y-50600000D01*
X24494318Y-50600000D01*
X24514955Y-50756758D01*
X24514957Y-50756766D01*
X24575462Y-50902838D01*
X24575462Y-50902839D01*
X24661493Y-51014957D01*
X24671718Y-51028282D01*
X24797159Y-51124536D01*
X24797160Y-51124536D01*
X24797161Y-51124537D01*
X24943233Y-51185042D01*
X24943238Y-51185044D01*
X25060809Y-51200522D01*
X25099999Y-51205682D01*
X25100000Y-51205682D01*
X25100001Y-51205682D01*
X25131352Y-51201554D01*
X25256762Y-51185044D01*
X25402841Y-51124536D01*
X25528282Y-51028282D01*
X25624536Y-50902841D01*
X25685044Y-50756762D01*
X25705682Y-50600000D01*
X25685044Y-50443238D01*
X25656970Y-50375462D01*
X25624537Y-50297161D01*
X25624537Y-50297160D01*
X25528286Y-50171723D01*
X25528285Y-50171722D01*
X25528282Y-50171718D01*
X25528277Y-50171714D01*
X25528276Y-50171713D01*
X25402838Y-50075462D01*
X25256766Y-50014957D01*
X25256758Y-50014955D01*
X25100001Y-49994318D01*
X25099999Y-49994318D01*
X24943241Y-50014955D01*
X24943233Y-50014957D01*
X24797161Y-50075462D01*
X24797160Y-50075462D01*
X24671723Y-50171713D01*
X24671713Y-50171723D01*
X24575462Y-50297160D01*
X24575462Y-50297161D01*
X24514957Y-50443233D01*
X24514955Y-50443241D01*
X24494318Y-50599999D01*
X24494318Y-50600000D01*
X18567134Y-50600000D01*
X18565958Y-50597160D01*
X18524537Y-50497161D01*
X18524537Y-50497160D01*
X18428286Y-50371723D01*
X18428285Y-50371722D01*
X18428282Y-50371718D01*
X18428277Y-50371714D01*
X18428276Y-50371713D01*
X18331116Y-50297160D01*
X18302841Y-50275464D01*
X18302840Y-50275463D01*
X18302838Y-50275462D01*
X18156766Y-50214957D01*
X18156758Y-50214955D01*
X18000001Y-50194318D01*
X17999999Y-50194318D01*
X17843241Y-50214955D01*
X17843233Y-50214957D01*
X17697161Y-50275462D01*
X17697160Y-50275462D01*
X17571723Y-50371713D01*
X17571713Y-50371723D01*
X17475463Y-50497160D01*
X17434372Y-50596363D01*
X17394635Y-50642888D01*
X17335140Y-50657172D01*
X17278613Y-50633757D01*
X17264366Y-50618744D01*
X17247803Y-50597159D01*
X17228282Y-50571718D01*
X17228277Y-50571714D01*
X17228276Y-50571713D01*
X17131116Y-50497160D01*
X17102841Y-50475464D01*
X17102840Y-50475463D01*
X17102838Y-50475462D01*
X16956766Y-50414957D01*
X16956758Y-50414955D01*
X16800001Y-50394318D01*
X16799999Y-50394318D01*
X16643241Y-50414955D01*
X16643233Y-50414957D01*
X16497161Y-50475462D01*
X16497160Y-50475462D01*
X16371723Y-50571713D01*
X16371713Y-50571723D01*
X16275464Y-50697159D01*
X16262174Y-50729243D01*
X16222436Y-50775768D01*
X16162941Y-50790051D01*
X16106414Y-50766635D01*
X16079246Y-50729241D01*
X16024537Y-50597161D01*
X16024537Y-50597160D01*
X15928286Y-50471723D01*
X15928285Y-50471722D01*
X15928282Y-50471718D01*
X15928277Y-50471714D01*
X15928276Y-50471713D01*
X15802838Y-50375462D01*
X15656766Y-50314957D01*
X15656758Y-50314955D01*
X15500001Y-50294318D01*
X15499999Y-50294318D01*
X15343241Y-50314955D01*
X15343233Y-50314957D01*
X15197161Y-50375462D01*
X15197160Y-50375462D01*
X15071723Y-50471713D01*
X15071713Y-50471723D01*
X14975462Y-50597160D01*
X14975462Y-50597161D01*
X14914957Y-50743233D01*
X14914955Y-50743241D01*
X14894318Y-50899999D01*
X14894318Y-50900000D01*
X3392517Y-50900000D01*
X3385044Y-50843238D01*
X3349226Y-50756766D01*
X3324537Y-50697161D01*
X3324537Y-50697160D01*
X3228286Y-50571723D01*
X3228285Y-50571722D01*
X3228282Y-50571718D01*
X3228277Y-50571714D01*
X3228276Y-50571713D01*
X3131116Y-50497160D01*
X3102841Y-50475464D01*
X3102840Y-50475463D01*
X3102838Y-50475462D01*
X2956766Y-50414957D01*
X2956758Y-50414955D01*
X2800001Y-50394318D01*
X2799999Y-50394318D01*
X2643241Y-50414955D01*
X2643233Y-50414957D01*
X2497161Y-50475462D01*
X2497160Y-50475462D01*
X2371723Y-50571713D01*
X2371713Y-50571723D01*
X2275462Y-50697160D01*
X2275462Y-50697161D01*
X2214957Y-50843233D01*
X2214955Y-50843241D01*
X2194318Y-50999999D01*
X2194318Y-51000000D01*
X500000Y-51000000D01*
X500000Y-46900000D01*
X15694318Y-46900000D01*
X15714955Y-47056758D01*
X15714957Y-47056766D01*
X15775462Y-47202838D01*
X15775462Y-47202839D01*
X15847837Y-47297160D01*
X15871718Y-47328282D01*
X15997159Y-47424536D01*
X15997160Y-47424536D01*
X15997161Y-47424537D01*
X16120105Y-47475462D01*
X16143238Y-47485044D01*
X16260809Y-47500522D01*
X16299999Y-47505682D01*
X16300000Y-47505682D01*
X16300001Y-47505682D01*
X16332275Y-47501433D01*
X16456762Y-47485044D01*
X16602841Y-47424536D01*
X16651915Y-47386880D01*
X16709589Y-47366456D01*
X16768254Y-47383833D01*
X16805502Y-47432374D01*
X16810334Y-47478344D01*
X16794318Y-47599999D01*
X16794318Y-47600000D01*
X16814955Y-47756758D01*
X16814957Y-47756766D01*
X16875462Y-47902838D01*
X16875462Y-47902839D01*
X16952194Y-48002838D01*
X16971718Y-48028282D01*
X17097159Y-48124536D01*
X17097160Y-48124536D01*
X17097161Y-48124537D01*
X17174969Y-48156766D01*
X17243238Y-48185044D01*
X17360809Y-48200522D01*
X17399999Y-48205682D01*
X17400000Y-48205682D01*
X17400001Y-48205682D01*
X17431352Y-48201554D01*
X17556762Y-48185044D01*
X17702841Y-48124536D01*
X17828282Y-48028282D01*
X17924536Y-47902841D01*
X17985044Y-47756762D01*
X17992517Y-47700000D01*
X27894318Y-47700000D01*
X27914955Y-47856758D01*
X27914957Y-47856766D01*
X27975462Y-48002838D01*
X27975462Y-48002839D01*
X28068844Y-48124537D01*
X28071718Y-48128282D01*
X28197159Y-48224536D01*
X28343238Y-48285044D01*
X28460809Y-48300522D01*
X28499999Y-48305682D01*
X28500000Y-48305682D01*
X28500001Y-48305682D01*
X28531352Y-48301554D01*
X28656762Y-48285044D01*
X28802841Y-48224536D01*
X28928282Y-48128282D01*
X29024536Y-48002841D01*
X29085044Y-47856762D01*
X29105682Y-47700000D01*
X29093360Y-47606408D01*
X29104510Y-47546250D01*
X29148892Y-47504132D01*
X29178588Y-47495335D01*
X29256762Y-47485044D01*
X29402841Y-47424536D01*
X29528282Y-47328282D01*
X29624536Y-47202841D01*
X29685044Y-47056762D01*
X29705682Y-46900000D01*
X29704122Y-46888155D01*
X29715270Y-46827997D01*
X29759651Y-46785879D01*
X29820313Y-46777890D01*
X29840160Y-46783769D01*
X29843238Y-46785044D01*
X29960809Y-46800522D01*
X29999999Y-46805682D01*
X30000000Y-46805682D01*
X30000001Y-46805682D01*
X30031352Y-46801554D01*
X30156762Y-46785044D01*
X30302841Y-46724536D01*
X30428282Y-46628282D01*
X30524536Y-46502841D01*
X30585044Y-46356762D01*
X30605682Y-46200000D01*
X30585044Y-46043238D01*
X30529882Y-45910065D01*
X30524537Y-45897161D01*
X30524537Y-45897160D01*
X30428286Y-45771723D01*
X30428285Y-45771722D01*
X30428282Y-45771718D01*
X30428277Y-45771714D01*
X30428276Y-45771713D01*
X30302838Y-45675462D01*
X30156766Y-45614957D01*
X30156758Y-45614955D01*
X30000001Y-45594318D01*
X29999999Y-45594318D01*
X29843241Y-45614955D01*
X29843233Y-45614957D01*
X29697161Y-45675462D01*
X29697160Y-45675462D01*
X29571723Y-45771713D01*
X29571713Y-45771723D01*
X29475462Y-45897160D01*
X29475462Y-45897161D01*
X29414957Y-46043233D01*
X29414955Y-46043241D01*
X29394318Y-46199999D01*
X29394318Y-46200002D01*
X29395877Y-46211845D01*
X29384726Y-46272006D01*
X29340344Y-46314122D01*
X29279682Y-46322108D01*
X29259841Y-46316231D01*
X29256767Y-46314957D01*
X29256758Y-46314955D01*
X29100001Y-46294318D01*
X29099999Y-46294318D01*
X28943241Y-46314955D01*
X28943233Y-46314957D01*
X28797161Y-46375462D01*
X28797160Y-46375462D01*
X28671723Y-46471713D01*
X28671713Y-46471723D01*
X28575462Y-46597160D01*
X28575462Y-46597161D01*
X28514957Y-46743233D01*
X28514955Y-46743241D01*
X28494318Y-46899999D01*
X28494318Y-46900000D01*
X28506639Y-46993589D01*
X28495489Y-47053750D01*
X28451106Y-47095867D01*
X28421409Y-47104664D01*
X28343240Y-47114955D01*
X28343233Y-47114957D01*
X28197161Y-47175462D01*
X28197160Y-47175462D01*
X28071723Y-47271713D01*
X28071713Y-47271723D01*
X27975462Y-47397160D01*
X27975462Y-47397161D01*
X27914957Y-47543233D01*
X27914955Y-47543241D01*
X27894318Y-47699999D01*
X27894318Y-47700000D01*
X17992517Y-47700000D01*
X18005682Y-47600000D01*
X17985044Y-47443238D01*
X17965958Y-47397160D01*
X17924537Y-47297161D01*
X17924537Y-47297160D01*
X17828286Y-47171723D01*
X17828285Y-47171722D01*
X17828282Y-47171718D01*
X17828277Y-47171714D01*
X17828276Y-47171713D01*
X17702838Y-47075462D01*
X17556766Y-47014957D01*
X17556758Y-47014955D01*
X17400001Y-46994318D01*
X17399999Y-46994318D01*
X17243241Y-47014955D01*
X17243233Y-47014957D01*
X17097161Y-47075462D01*
X17048084Y-47113120D01*
X16990408Y-47133543D01*
X16931743Y-47116165D01*
X16894496Y-47067623D01*
X16889665Y-47021658D01*
X16905682Y-46900000D01*
X16905682Y-46899999D01*
X16905682Y-46893511D01*
X16908782Y-46893511D01*
X16917536Y-46845872D01*
X16961854Y-46803687D01*
X17017532Y-46794825D01*
X17046354Y-46798619D01*
X17099999Y-46805682D01*
X17100000Y-46805682D01*
X17100001Y-46805682D01*
X17131352Y-46801554D01*
X17256762Y-46785044D01*
X17402841Y-46724536D01*
X17528282Y-46628282D01*
X17624536Y-46502841D01*
X17685044Y-46356762D01*
X17705682Y-46200000D01*
X17685044Y-46043238D01*
X17629882Y-45910065D01*
X17624537Y-45897161D01*
X17624537Y-45897160D01*
X17528286Y-45771723D01*
X17528285Y-45771722D01*
X17528282Y-45771718D01*
X17528277Y-45771714D01*
X17528276Y-45771713D01*
X17402838Y-45675462D01*
X17256766Y-45614957D01*
X17256758Y-45614955D01*
X17100001Y-45594318D01*
X17099999Y-45594318D01*
X16943241Y-45614955D01*
X16943233Y-45614957D01*
X16797161Y-45675462D01*
X16797160Y-45675462D01*
X16671723Y-45771713D01*
X16671713Y-45771723D01*
X16575462Y-45897160D01*
X16575462Y-45897161D01*
X16514957Y-46043233D01*
X16514955Y-46043241D01*
X16494318Y-46199999D01*
X16494318Y-46206489D01*
X16491246Y-46206489D01*
X16482387Y-46254266D01*
X16438002Y-46296380D01*
X16382467Y-46305174D01*
X16300002Y-46294318D01*
X16299999Y-46294318D01*
X16143241Y-46314955D01*
X16143233Y-46314957D01*
X15997161Y-46375462D01*
X15997160Y-46375462D01*
X15871723Y-46471713D01*
X15871713Y-46471723D01*
X15775462Y-46597160D01*
X15775462Y-46597161D01*
X15714957Y-46743233D01*
X15714955Y-46743241D01*
X15694318Y-46899999D01*
X15694318Y-46900000D01*
X500000Y-46900000D01*
X500000Y-42800000D01*
X1394318Y-42800000D01*
X1414955Y-42956758D01*
X1414957Y-42956766D01*
X1475462Y-43102838D01*
X1475462Y-43102839D01*
X1552863Y-43203710D01*
X1571718Y-43228282D01*
X1697159Y-43324536D01*
X1843238Y-43385044D01*
X1960809Y-43400522D01*
X1999999Y-43405682D01*
X2000000Y-43405682D01*
X2000001Y-43405682D01*
X2031352Y-43401554D01*
X2156762Y-43385044D01*
X2302841Y-43324536D01*
X2428282Y-43228282D01*
X2524536Y-43102841D01*
X2585044Y-42956762D01*
X2605682Y-42800000D01*
X2585044Y-42643238D01*
X2524537Y-42497161D01*
X2524537Y-42497160D01*
X2428286Y-42371723D01*
X2428285Y-42371722D01*
X2428282Y-42371718D01*
X2428277Y-42371714D01*
X2428276Y-42371713D01*
X2302838Y-42275462D01*
X2156766Y-42214957D01*
X2156758Y-42214955D01*
X2043161Y-42200000D01*
X6800000Y-42200000D01*
X6800000Y-46400000D01*
X11000000Y-46400000D01*
X11000000Y-45300000D01*
X30594318Y-45300000D01*
X30614955Y-45456758D01*
X30614957Y-45456766D01*
X30675462Y-45602838D01*
X30675462Y-45602839D01*
X30771713Y-45728276D01*
X30771718Y-45728282D01*
X30771722Y-45728285D01*
X30771723Y-45728286D01*
X30801082Y-45750813D01*
X30897159Y-45824536D01*
X30897160Y-45824536D01*
X30897161Y-45824537D01*
X31043233Y-45885042D01*
X31043238Y-45885044D01*
X31160809Y-45900522D01*
X31199999Y-45905682D01*
X31200000Y-45905682D01*
X31200001Y-45905682D01*
X31231352Y-45901554D01*
X31356762Y-45885044D01*
X31502841Y-45824536D01*
X31628282Y-45728282D01*
X31724536Y-45602841D01*
X31785044Y-45456762D01*
X31799030Y-45350525D01*
X31825371Y-45295301D01*
X31879142Y-45266106D01*
X31939803Y-45274092D01*
X31975724Y-45303180D01*
X32071718Y-45428282D01*
X32197159Y-45524536D01*
X32343238Y-45585044D01*
X32460809Y-45600522D01*
X32499999Y-45605682D01*
X32500000Y-45605682D01*
X32500001Y-45605682D01*
X32531352Y-45601554D01*
X32656762Y-45585044D01*
X32802841Y-45524536D01*
X32928282Y-45428282D01*
X33024536Y-45302841D01*
X33085044Y-45156762D01*
X33105682Y-45000000D01*
X33085044Y-44843238D01*
X33041246Y-44737500D01*
X33024537Y-44697161D01*
X33024537Y-44697160D01*
X32928286Y-44571723D01*
X32928285Y-44571722D01*
X32928282Y-44571718D01*
X32928277Y-44571714D01*
X32928276Y-44571713D01*
X32802838Y-44475462D01*
X32656766Y-44414957D01*
X32656758Y-44414955D01*
X32500001Y-44394318D01*
X32499999Y-44394318D01*
X32343241Y-44414955D01*
X32343233Y-44414957D01*
X32197161Y-44475462D01*
X32197160Y-44475462D01*
X32071723Y-44571713D01*
X32071713Y-44571723D01*
X31975462Y-44697160D01*
X31975462Y-44697161D01*
X31914957Y-44843233D01*
X31914955Y-44843240D01*
X31900969Y-44949474D01*
X31874627Y-45004699D01*
X31820856Y-45033893D01*
X31760195Y-45025907D01*
X31724274Y-44996818D01*
X31628286Y-44871723D01*
X31628285Y-44871722D01*
X31628282Y-44871718D01*
X31628277Y-44871714D01*
X31628276Y-44871713D01*
X31502838Y-44775462D01*
X31356766Y-44714957D01*
X31356758Y-44714955D01*
X31200001Y-44694318D01*
X31199999Y-44694318D01*
X31043241Y-44714955D01*
X31043233Y-44714957D01*
X30897161Y-44775462D01*
X30897160Y-44775462D01*
X30771723Y-44871713D01*
X30771713Y-44871723D01*
X30675462Y-44997160D01*
X30675462Y-44997161D01*
X30614957Y-45143233D01*
X30614955Y-45143241D01*
X30594318Y-45299999D01*
X30594318Y-45300000D01*
X11000000Y-45300000D01*
X11000000Y-42200000D01*
X6800000Y-42200000D01*
X2043161Y-42200000D01*
X2000001Y-42194318D01*
X1999999Y-42194318D01*
X1843241Y-42214955D01*
X1843233Y-42214957D01*
X1697161Y-42275462D01*
X1697160Y-42275462D01*
X1571723Y-42371713D01*
X1571713Y-42371723D01*
X1475462Y-42497160D01*
X1475462Y-42497161D01*
X1414957Y-42643233D01*
X1414955Y-42643241D01*
X1394318Y-42799999D01*
X1394318Y-42800000D01*
X500000Y-42800000D01*
X500000Y-41000000D01*
X2594318Y-41000000D01*
X2614955Y-41156758D01*
X2614957Y-41156766D01*
X2675462Y-41302838D01*
X2675462Y-41302839D01*
X2716842Y-41356766D01*
X2771718Y-41428282D01*
X2897159Y-41524536D01*
X3043238Y-41585044D01*
X3156833Y-41599999D01*
X3199999Y-41605682D01*
X3200000Y-41605682D01*
X3200001Y-41605682D01*
X3243167Y-41599999D01*
X3356762Y-41585044D01*
X3502841Y-41524536D01*
X3628282Y-41428282D01*
X3724536Y-41302841D01*
X3785044Y-41156762D01*
X3805682Y-41000000D01*
X16694318Y-41000000D01*
X16714955Y-41156758D01*
X16714957Y-41156766D01*
X16775462Y-41302838D01*
X16775462Y-41302839D01*
X16816842Y-41356766D01*
X16871718Y-41428282D01*
X16997159Y-41524536D01*
X17143238Y-41585044D01*
X17256833Y-41599999D01*
X17299999Y-41605682D01*
X17300000Y-41605682D01*
X17300001Y-41605682D01*
X17343167Y-41599999D01*
X17456762Y-41585044D01*
X17602841Y-41524536D01*
X17728282Y-41428282D01*
X17824536Y-41302841D01*
X17885044Y-41156762D01*
X17905682Y-41000000D01*
X20994318Y-41000000D01*
X21014955Y-41156758D01*
X21014957Y-41156766D01*
X21075462Y-41302838D01*
X21075462Y-41302839D01*
X21116842Y-41356766D01*
X21171718Y-41428282D01*
X21297159Y-41524536D01*
X21443238Y-41585044D01*
X21556833Y-41599999D01*
X21599999Y-41605682D01*
X21600000Y-41605682D01*
X21600001Y-41605682D01*
X21643159Y-41600000D01*
X33494318Y-41600000D01*
X33514955Y-41756758D01*
X33514957Y-41756766D01*
X33575462Y-41902838D01*
X33575462Y-41902839D01*
X33575464Y-41902841D01*
X33671718Y-42028282D01*
X33797159Y-42124536D01*
X33943238Y-42185044D01*
X34060809Y-42200522D01*
X34099999Y-42205682D01*
X34100000Y-42205682D01*
X34100001Y-42205682D01*
X34131352Y-42201554D01*
X34256762Y-42185044D01*
X34402841Y-42124536D01*
X34528282Y-42028282D01*
X34624536Y-41902841D01*
X34685044Y-41756762D01*
X34705682Y-41600000D01*
X34685044Y-41443238D01*
X34649226Y-41356766D01*
X34624537Y-41297161D01*
X34624537Y-41297160D01*
X34549984Y-41200000D01*
X38294318Y-41200000D01*
X38314955Y-41356758D01*
X38314957Y-41356766D01*
X38375462Y-41502838D01*
X38375462Y-41502839D01*
X38454376Y-41605682D01*
X38471718Y-41628282D01*
X38597159Y-41724536D01*
X38597160Y-41724536D01*
X38597161Y-41724537D01*
X38674959Y-41756762D01*
X38743238Y-41785044D01*
X38860809Y-41800522D01*
X38899999Y-41805682D01*
X38900000Y-41805682D01*
X38900001Y-41805682D01*
X38931352Y-41801554D01*
X39056762Y-41785044D01*
X39202841Y-41724536D01*
X39328282Y-41628282D01*
X39424536Y-41502841D01*
X39485044Y-41356762D01*
X39505682Y-41200000D01*
X39485044Y-41043238D01*
X39460938Y-40985042D01*
X39424537Y-40897161D01*
X39424537Y-40897160D01*
X39328286Y-40771723D01*
X39328285Y-40771722D01*
X39328282Y-40771718D01*
X39328277Y-40771714D01*
X39328276Y-40771713D01*
X39238517Y-40702839D01*
X39202841Y-40675464D01*
X39202840Y-40675463D01*
X39202838Y-40675462D01*
X39056766Y-40614957D01*
X39056758Y-40614955D01*
X38900001Y-40594318D01*
X38899999Y-40594318D01*
X38743241Y-40614955D01*
X38743233Y-40614957D01*
X38597161Y-40675462D01*
X38597160Y-40675462D01*
X38471723Y-40771713D01*
X38471713Y-40771723D01*
X38375462Y-40897160D01*
X38375462Y-40897161D01*
X38314957Y-41043233D01*
X38314955Y-41043241D01*
X38294318Y-41199999D01*
X38294318Y-41200000D01*
X34549984Y-41200000D01*
X34528286Y-41171723D01*
X34528285Y-41171722D01*
X34528282Y-41171718D01*
X34528277Y-41171714D01*
X34528276Y-41171713D01*
X34402838Y-41075462D01*
X34256766Y-41014957D01*
X34256758Y-41014955D01*
X34100001Y-40994318D01*
X34099999Y-40994318D01*
X33943241Y-41014955D01*
X33943233Y-41014957D01*
X33797161Y-41075462D01*
X33797160Y-41075462D01*
X33671723Y-41171713D01*
X33671713Y-41171723D01*
X33575462Y-41297160D01*
X33575462Y-41297161D01*
X33514957Y-41443233D01*
X33514955Y-41443241D01*
X33494318Y-41599999D01*
X33494318Y-41600000D01*
X21643159Y-41600000D01*
X21643167Y-41599999D01*
X21756762Y-41585044D01*
X21902841Y-41524536D01*
X22028282Y-41428282D01*
X22124536Y-41302841D01*
X22185044Y-41156762D01*
X22205682Y-41000000D01*
X22185044Y-40843238D01*
X22174043Y-40816679D01*
X22124537Y-40697161D01*
X22124537Y-40697160D01*
X22028286Y-40571723D01*
X22028285Y-40571722D01*
X22028282Y-40571718D01*
X22028277Y-40571714D01*
X22028276Y-40571713D01*
X21902838Y-40475462D01*
X21756766Y-40414957D01*
X21756758Y-40414955D01*
X21643161Y-40400000D01*
X46094318Y-40400000D01*
X46114955Y-40556758D01*
X46114957Y-40556766D01*
X46175462Y-40702838D01*
X46175462Y-40702839D01*
X46262815Y-40816680D01*
X46271718Y-40828282D01*
X46397159Y-40924536D01*
X46543238Y-40985044D01*
X46656833Y-40999999D01*
X46699999Y-41005682D01*
X46700000Y-41005682D01*
X46700001Y-41005682D01*
X46743167Y-40999999D01*
X46856762Y-40985044D01*
X47002841Y-40924536D01*
X47128282Y-40828282D01*
X47224536Y-40702841D01*
X47285044Y-40556762D01*
X47305682Y-40400000D01*
X47285044Y-40243238D01*
X47237425Y-40128276D01*
X47224537Y-40097161D01*
X47224537Y-40097160D01*
X47128286Y-39971723D01*
X47128285Y-39971722D01*
X47128282Y-39971718D01*
X47128277Y-39971714D01*
X47128276Y-39971713D01*
X47002838Y-39875462D01*
X46856766Y-39814957D01*
X46856758Y-39814955D01*
X46700001Y-39794318D01*
X46699999Y-39794318D01*
X46543241Y-39814955D01*
X46543233Y-39814957D01*
X46397161Y-39875462D01*
X46397160Y-39875462D01*
X46271723Y-39971713D01*
X46271713Y-39971723D01*
X46175462Y-40097160D01*
X46175462Y-40097161D01*
X46114957Y-40243233D01*
X46114955Y-40243241D01*
X46094318Y-40399999D01*
X46094318Y-40400000D01*
X21643161Y-40400000D01*
X21600001Y-40394318D01*
X21599999Y-40394318D01*
X21443241Y-40414955D01*
X21443233Y-40414957D01*
X21297161Y-40475462D01*
X21297160Y-40475462D01*
X21171723Y-40571713D01*
X21171713Y-40571723D01*
X21075462Y-40697160D01*
X21075462Y-40697161D01*
X21014957Y-40843233D01*
X21014955Y-40843241D01*
X20994318Y-40999999D01*
X20994318Y-41000000D01*
X17905682Y-41000000D01*
X17885044Y-40843238D01*
X17874043Y-40816679D01*
X17824537Y-40697161D01*
X17824537Y-40697160D01*
X17728286Y-40571723D01*
X17728285Y-40571722D01*
X17728282Y-40571718D01*
X17728277Y-40571714D01*
X17728276Y-40571713D01*
X17602838Y-40475462D01*
X17456766Y-40414957D01*
X17456758Y-40414955D01*
X17300001Y-40394318D01*
X17299999Y-40394318D01*
X17143241Y-40414955D01*
X17143233Y-40414957D01*
X16997161Y-40475462D01*
X16997160Y-40475462D01*
X16871723Y-40571713D01*
X16871713Y-40571723D01*
X16775462Y-40697160D01*
X16775462Y-40697161D01*
X16714957Y-40843233D01*
X16714955Y-40843241D01*
X16694318Y-40999999D01*
X16694318Y-41000000D01*
X3805682Y-41000000D01*
X3785044Y-40843238D01*
X3774043Y-40816679D01*
X3724537Y-40697161D01*
X3724537Y-40697160D01*
X3628286Y-40571723D01*
X3628285Y-40571722D01*
X3628282Y-40571718D01*
X3628277Y-40571714D01*
X3628276Y-40571713D01*
X3502838Y-40475462D01*
X3356766Y-40414957D01*
X3356758Y-40414955D01*
X3200001Y-40394318D01*
X3199999Y-40394318D01*
X3043241Y-40414955D01*
X3043233Y-40414957D01*
X2897161Y-40475462D01*
X2897160Y-40475462D01*
X2771723Y-40571713D01*
X2771713Y-40571723D01*
X2675462Y-40697160D01*
X2675462Y-40697161D01*
X2614957Y-40843233D01*
X2614955Y-40843241D01*
X2594318Y-40999999D01*
X2594318Y-41000000D01*
X500000Y-41000000D01*
X500000Y-40292143D01*
X4964890Y-40292143D01*
X4985527Y-40448901D01*
X4985529Y-40448909D01*
X5046034Y-40594981D01*
X5046034Y-40594982D01*
X5128797Y-40702841D01*
X5142290Y-40720425D01*
X5267731Y-40816679D01*
X5267732Y-40816679D01*
X5267733Y-40816680D01*
X5331838Y-40843233D01*
X5413810Y-40877187D01*
X5531381Y-40892665D01*
X5570571Y-40897825D01*
X5570572Y-40897825D01*
X5570573Y-40897825D01*
X5601924Y-40893697D01*
X5727334Y-40877187D01*
X5873413Y-40816679D01*
X5998854Y-40720425D01*
X6095108Y-40594984D01*
X6155616Y-40448905D01*
X6176254Y-40292143D01*
X6175319Y-40285044D01*
X6169815Y-40243233D01*
X6155616Y-40135381D01*
X6152677Y-40128286D01*
X6095109Y-39989304D01*
X6095109Y-39989303D01*
X5998858Y-39863866D01*
X5998857Y-39863865D01*
X5998854Y-39863861D01*
X5998849Y-39863857D01*
X5998848Y-39863856D01*
X5919327Y-39802838D01*
X5873413Y-39767607D01*
X5873412Y-39767606D01*
X5873410Y-39767605D01*
X5727338Y-39707100D01*
X5727330Y-39707098D01*
X5570573Y-39686461D01*
X5570571Y-39686461D01*
X5413813Y-39707098D01*
X5413805Y-39707100D01*
X5267733Y-39767605D01*
X5267732Y-39767605D01*
X5142295Y-39863856D01*
X5142285Y-39863866D01*
X5046034Y-39989303D01*
X5046034Y-39989304D01*
X4985529Y-40135376D01*
X4985527Y-40135384D01*
X4964890Y-40292142D01*
X4964890Y-40292143D01*
X500000Y-40292143D01*
X500000Y-39500000D01*
X7194318Y-39500000D01*
X7214955Y-39656758D01*
X7214957Y-39656766D01*
X7275462Y-39802838D01*
X7275462Y-39802839D01*
X7331189Y-39875464D01*
X7371718Y-39928282D01*
X7497159Y-40024536D01*
X7643238Y-40085044D01*
X7760809Y-40100522D01*
X7799999Y-40105682D01*
X7800000Y-40105682D01*
X7800001Y-40105682D01*
X7831352Y-40101554D01*
X7956762Y-40085044D01*
X8102841Y-40024536D01*
X8228282Y-39928282D01*
X8324536Y-39802841D01*
X8385044Y-39656762D01*
X8405682Y-39500000D01*
X8385044Y-39343238D01*
X8377297Y-39324536D01*
X8325713Y-39200000D01*
X20394318Y-39200000D01*
X20414955Y-39356758D01*
X20414957Y-39356766D01*
X20475462Y-39502838D01*
X20475462Y-39502839D01*
X20571713Y-39628276D01*
X20571718Y-39628282D01*
X20697159Y-39724536D01*
X20697160Y-39724536D01*
X20697161Y-39724537D01*
X20801141Y-39767607D01*
X20843238Y-39785044D01*
X20960809Y-39800522D01*
X20999999Y-39805682D01*
X21000000Y-39805682D01*
X21000001Y-39805682D01*
X21031352Y-39801554D01*
X21156762Y-39785044D01*
X21302841Y-39724536D01*
X21334817Y-39700000D01*
X51994318Y-39700000D01*
X52014955Y-39856758D01*
X52014957Y-39856766D01*
X52075462Y-40002838D01*
X52075462Y-40002839D01*
X52147837Y-40097160D01*
X52171718Y-40128282D01*
X52171722Y-40128285D01*
X52171723Y-40128286D01*
X52201082Y-40150813D01*
X52297159Y-40224536D01*
X52297160Y-40224536D01*
X52297161Y-40224537D01*
X52443233Y-40285042D01*
X52443238Y-40285044D01*
X52560809Y-40300522D01*
X52599999Y-40305682D01*
X52600000Y-40305682D01*
X52600001Y-40305682D01*
X52631352Y-40301554D01*
X52756762Y-40285044D01*
X52902841Y-40224536D01*
X53028282Y-40128282D01*
X53124536Y-40002841D01*
X53185044Y-39856762D01*
X53205682Y-39700000D01*
X53185044Y-39543238D01*
X53167134Y-39499999D01*
X53124537Y-39397161D01*
X53124537Y-39397160D01*
X53028286Y-39271723D01*
X53028285Y-39271722D01*
X53028282Y-39271718D01*
X53028277Y-39271714D01*
X53028276Y-39271713D01*
X52931116Y-39197160D01*
X52902841Y-39175464D01*
X52902840Y-39175463D01*
X52902838Y-39175462D01*
X52756766Y-39114957D01*
X52756758Y-39114955D01*
X52600001Y-39094318D01*
X52599999Y-39094318D01*
X52443241Y-39114955D01*
X52443233Y-39114957D01*
X52297161Y-39175462D01*
X52297160Y-39175462D01*
X52171723Y-39271713D01*
X52171713Y-39271723D01*
X52075462Y-39397160D01*
X52075462Y-39397161D01*
X52014957Y-39543233D01*
X52014955Y-39543241D01*
X51994318Y-39699999D01*
X51994318Y-39700000D01*
X21334817Y-39700000D01*
X21428282Y-39628282D01*
X21524536Y-39502841D01*
X21585044Y-39356762D01*
X21605682Y-39200000D01*
X21585044Y-39043238D01*
X21549226Y-38956766D01*
X21524537Y-38897161D01*
X21524537Y-38897160D01*
X21428286Y-38771723D01*
X21428285Y-38771722D01*
X21428282Y-38771718D01*
X21428277Y-38771714D01*
X21428276Y-38771713D01*
X21302838Y-38675462D01*
X21156766Y-38614957D01*
X21156758Y-38614955D01*
X21000001Y-38594318D01*
X20999999Y-38594318D01*
X20843241Y-38614955D01*
X20843233Y-38614957D01*
X20697161Y-38675462D01*
X20697160Y-38675462D01*
X20571723Y-38771713D01*
X20571713Y-38771723D01*
X20475462Y-38897160D01*
X20475462Y-38897161D01*
X20414957Y-39043233D01*
X20414955Y-39043241D01*
X20394318Y-39199999D01*
X20394318Y-39200000D01*
X8325713Y-39200000D01*
X8324537Y-39197161D01*
X8324537Y-39197160D01*
X8228286Y-39071723D01*
X8228285Y-39071722D01*
X8228282Y-39071718D01*
X8228277Y-39071714D01*
X8228276Y-39071713D01*
X8146198Y-39008733D01*
X8111542Y-38958309D01*
X8113143Y-38897144D01*
X8150391Y-38848603D01*
X8168573Y-38838730D01*
X8202841Y-38824536D01*
X8328282Y-38728282D01*
X8424536Y-38602841D01*
X8485044Y-38456762D01*
X8505682Y-38300000D01*
X8485044Y-38143238D01*
X8449226Y-38056766D01*
X8424537Y-37997161D01*
X8424537Y-37997160D01*
X8328286Y-37871723D01*
X8328285Y-37871722D01*
X8328282Y-37871718D01*
X8328277Y-37871714D01*
X8328276Y-37871713D01*
X8202838Y-37775462D01*
X8056766Y-37714957D01*
X8056758Y-37714955D01*
X7943161Y-37700000D01*
X47194318Y-37700000D01*
X47214955Y-37856758D01*
X47214957Y-37856766D01*
X47275462Y-38002838D01*
X47275462Y-38002839D01*
X47316842Y-38056766D01*
X47371718Y-38128282D01*
X47497159Y-38224536D01*
X47643238Y-38285044D01*
X47756833Y-38299999D01*
X47799999Y-38305682D01*
X47800000Y-38305682D01*
X47800001Y-38305682D01*
X47843167Y-38299999D01*
X47956762Y-38285044D01*
X48102841Y-38224536D01*
X48228282Y-38128282D01*
X48324536Y-38002841D01*
X48385044Y-37856762D01*
X48405682Y-37700000D01*
X48385044Y-37543238D01*
X48385042Y-37543233D01*
X48324537Y-37397161D01*
X48324537Y-37397160D01*
X48228286Y-37271723D01*
X48228285Y-37271722D01*
X48228282Y-37271718D01*
X48228277Y-37271714D01*
X48228276Y-37271713D01*
X48102838Y-37175462D01*
X47956766Y-37114957D01*
X47956758Y-37114955D01*
X47800001Y-37094318D01*
X47799999Y-37094318D01*
X47643241Y-37114955D01*
X47643233Y-37114957D01*
X47497161Y-37175462D01*
X47497160Y-37175462D01*
X47371723Y-37271713D01*
X47371713Y-37271723D01*
X47275462Y-37397160D01*
X47275462Y-37397161D01*
X47214957Y-37543233D01*
X47214955Y-37543241D01*
X47194318Y-37699999D01*
X47194318Y-37700000D01*
X7943161Y-37700000D01*
X7900001Y-37694318D01*
X7899999Y-37694318D01*
X7743241Y-37714955D01*
X7743233Y-37714957D01*
X7597161Y-37775462D01*
X7597160Y-37775462D01*
X7471723Y-37871713D01*
X7471713Y-37871723D01*
X7375462Y-37997160D01*
X7375462Y-37997161D01*
X7314957Y-38143233D01*
X7314955Y-38143241D01*
X7294318Y-38299999D01*
X7294318Y-38300000D01*
X7314955Y-38456758D01*
X7314957Y-38456766D01*
X7375462Y-38602838D01*
X7375462Y-38602839D01*
X7431189Y-38675464D01*
X7471718Y-38728282D01*
X7471722Y-38728285D01*
X7553801Y-38791266D01*
X7588457Y-38841690D01*
X7586856Y-38902854D01*
X7549609Y-38951396D01*
X7531420Y-38961272D01*
X7497160Y-38975463D01*
X7371723Y-39071713D01*
X7371713Y-39071723D01*
X7275462Y-39197160D01*
X7275462Y-39197161D01*
X7214957Y-39343233D01*
X7214955Y-39343241D01*
X7194318Y-39499999D01*
X7194318Y-39500000D01*
X500000Y-39500000D01*
X500000Y-38800000D01*
X2494318Y-38800000D01*
X2514955Y-38956758D01*
X2514957Y-38956766D01*
X2575462Y-39102838D01*
X2575462Y-39102839D01*
X2671713Y-39228276D01*
X2671718Y-39228282D01*
X2797159Y-39324536D01*
X2797160Y-39324536D01*
X2797161Y-39324537D01*
X2874959Y-39356762D01*
X2943238Y-39385044D01*
X3060809Y-39400522D01*
X3099999Y-39405682D01*
X3100000Y-39405682D01*
X3100001Y-39405682D01*
X3131352Y-39401554D01*
X3256762Y-39385044D01*
X3402841Y-39324536D01*
X3528282Y-39228282D01*
X3624536Y-39102841D01*
X3685044Y-38956762D01*
X3705682Y-38800000D01*
X3685044Y-38643238D01*
X3664781Y-38594318D01*
X3624537Y-38497161D01*
X3624537Y-38497160D01*
X3528286Y-38371723D01*
X3528285Y-38371722D01*
X3528282Y-38371718D01*
X3528277Y-38371714D01*
X3528276Y-38371713D01*
X3402838Y-38275462D01*
X3256766Y-38214957D01*
X3256758Y-38214955D01*
X3100001Y-38194318D01*
X3099999Y-38194318D01*
X2943241Y-38214955D01*
X2943233Y-38214957D01*
X2797161Y-38275462D01*
X2797160Y-38275462D01*
X2671723Y-38371713D01*
X2671713Y-38371723D01*
X2575462Y-38497160D01*
X2575462Y-38497161D01*
X2514957Y-38643233D01*
X2514955Y-38643241D01*
X2494318Y-38799999D01*
X2494318Y-38800000D01*
X500000Y-38800000D01*
X500000Y-37900000D01*
X4094318Y-37900000D01*
X4114955Y-38056758D01*
X4114957Y-38056766D01*
X4175462Y-38202838D01*
X4175462Y-38202839D01*
X4254376Y-38305682D01*
X4271718Y-38328282D01*
X4397159Y-38424536D01*
X4397160Y-38424536D01*
X4397161Y-38424537D01*
X4474959Y-38456762D01*
X4543238Y-38485044D01*
X4660809Y-38500522D01*
X4699999Y-38505682D01*
X4700000Y-38505682D01*
X4700001Y-38505682D01*
X4731352Y-38501554D01*
X4856762Y-38485044D01*
X5002841Y-38424536D01*
X5128282Y-38328282D01*
X5224536Y-38202841D01*
X5285044Y-38056762D01*
X5305682Y-37900000D01*
X5285044Y-37743238D01*
X5224537Y-37597161D01*
X5224537Y-37597160D01*
X5128286Y-37471723D01*
X5128285Y-37471722D01*
X5128282Y-37471718D01*
X5128277Y-37471714D01*
X5128276Y-37471713D01*
X5031116Y-37397160D01*
X5002841Y-37375464D01*
X5002840Y-37375463D01*
X5002838Y-37375462D01*
X4856766Y-37314957D01*
X4856758Y-37314955D01*
X4700001Y-37294318D01*
X4699999Y-37294318D01*
X4543241Y-37314955D01*
X4543233Y-37314957D01*
X4397161Y-37375462D01*
X4397160Y-37375462D01*
X4271723Y-37471713D01*
X4271713Y-37471723D01*
X4175462Y-37597160D01*
X4175462Y-37597161D01*
X4114957Y-37743233D01*
X4114955Y-37743241D01*
X4094318Y-37899999D01*
X4094318Y-37900000D01*
X500000Y-37900000D01*
X500000Y-36200000D01*
X4769318Y-36200000D01*
X4789955Y-36356758D01*
X4789957Y-36356766D01*
X4850462Y-36502838D01*
X4850462Y-36502839D01*
X4943692Y-36624339D01*
X4946718Y-36628282D01*
X5072159Y-36724536D01*
X5072160Y-36724536D01*
X5072161Y-36724537D01*
X5149959Y-36756762D01*
X5218238Y-36785044D01*
X5335809Y-36800522D01*
X5374999Y-36805682D01*
X5375000Y-36805682D01*
X5375001Y-36805682D01*
X5406352Y-36801554D01*
X5531762Y-36785044D01*
X5677841Y-36724536D01*
X5803282Y-36628282D01*
X5824983Y-36600000D01*
X7394318Y-36600000D01*
X7414955Y-36756758D01*
X7414957Y-36756766D01*
X7475462Y-36902838D01*
X7475462Y-36902839D01*
X7475464Y-36902841D01*
X7571718Y-37028282D01*
X7697159Y-37124536D01*
X7843238Y-37185044D01*
X7960809Y-37200522D01*
X7999999Y-37205682D01*
X8000000Y-37205682D01*
X8000001Y-37205682D01*
X8031352Y-37201554D01*
X8156762Y-37185044D01*
X8302841Y-37124536D01*
X8428282Y-37028282D01*
X8524536Y-36902841D01*
X8585044Y-36756762D01*
X8605682Y-36600000D01*
X12894318Y-36600000D01*
X12914955Y-36756758D01*
X12914957Y-36756766D01*
X12975462Y-36902838D01*
X12975462Y-36902839D01*
X12975464Y-36902841D01*
X13071718Y-37028282D01*
X13197159Y-37124536D01*
X13343238Y-37185044D01*
X13460809Y-37200522D01*
X13499999Y-37205682D01*
X13500000Y-37205682D01*
X13500001Y-37205682D01*
X13531352Y-37201554D01*
X13656762Y-37185044D01*
X13802841Y-37124536D01*
X13928282Y-37028282D01*
X14024536Y-36902841D01*
X14085044Y-36756762D01*
X14105682Y-36600000D01*
X14994318Y-36600000D01*
X15014955Y-36756758D01*
X15014957Y-36756766D01*
X15075462Y-36902838D01*
X15075462Y-36902839D01*
X15075464Y-36902841D01*
X15171718Y-37028282D01*
X15297159Y-37124536D01*
X15443238Y-37185044D01*
X15560809Y-37200522D01*
X15599999Y-37205682D01*
X15600000Y-37205682D01*
X15600001Y-37205682D01*
X15631352Y-37201554D01*
X15756762Y-37185044D01*
X15902841Y-37124536D01*
X16028282Y-37028282D01*
X16124536Y-36902841D01*
X16185044Y-36756762D01*
X16195622Y-36676407D01*
X16221962Y-36621183D01*
X16275733Y-36591988D01*
X16336395Y-36599974D01*
X16366483Y-36624339D01*
X16367130Y-36623693D01*
X16371713Y-36628276D01*
X16371718Y-36628282D01*
X16497159Y-36724536D01*
X16497160Y-36724536D01*
X16497161Y-36724537D01*
X16574959Y-36756762D01*
X16643238Y-36785044D01*
X16760809Y-36800522D01*
X16799999Y-36805682D01*
X16800000Y-36805682D01*
X16800001Y-36805682D01*
X16831352Y-36801554D01*
X16956762Y-36785044D01*
X17102841Y-36724536D01*
X17228282Y-36628282D01*
X17324536Y-36502841D01*
X17385044Y-36356762D01*
X17405682Y-36200000D01*
X17385044Y-36043238D01*
X17324537Y-35897161D01*
X17324537Y-35897160D01*
X17228286Y-35771723D01*
X17228285Y-35771722D01*
X17228282Y-35771718D01*
X17228277Y-35771714D01*
X17228276Y-35771713D01*
X17102838Y-35675462D01*
X16956766Y-35614957D01*
X16956758Y-35614955D01*
X16800001Y-35594318D01*
X16799999Y-35594318D01*
X16643241Y-35614955D01*
X16643233Y-35614957D01*
X16497161Y-35675462D01*
X16497160Y-35675462D01*
X16371723Y-35771713D01*
X16371713Y-35771723D01*
X16275462Y-35897160D01*
X16275462Y-35897161D01*
X16214957Y-36043233D01*
X16214955Y-36043240D01*
X16204377Y-36123592D01*
X16178036Y-36178816D01*
X16124265Y-36208011D01*
X16063603Y-36200025D01*
X16033516Y-36175660D01*
X16032870Y-36176307D01*
X16028285Y-36171722D01*
X16028282Y-36171718D01*
X16028277Y-36171714D01*
X16028276Y-36171713D01*
X15902838Y-36075462D01*
X15756766Y-36014957D01*
X15756758Y-36014955D01*
X15600001Y-35994318D01*
X15599999Y-35994318D01*
X15443241Y-36014955D01*
X15443233Y-36014957D01*
X15297161Y-36075462D01*
X15297160Y-36075462D01*
X15171723Y-36171713D01*
X15171713Y-36171723D01*
X15075462Y-36297160D01*
X15075462Y-36297161D01*
X15014957Y-36443233D01*
X15014955Y-36443241D01*
X14994318Y-36599999D01*
X14994318Y-36600000D01*
X14105682Y-36600000D01*
X14085044Y-36443238D01*
X14049226Y-36356766D01*
X14024537Y-36297161D01*
X14024537Y-36297160D01*
X13928286Y-36171723D01*
X13928285Y-36171722D01*
X13928282Y-36171718D01*
X13928277Y-36171714D01*
X13928276Y-36171713D01*
X13802838Y-36075462D01*
X13656766Y-36014957D01*
X13656758Y-36014955D01*
X13500001Y-35994318D01*
X13499999Y-35994318D01*
X13343241Y-36014955D01*
X13343233Y-36014957D01*
X13197161Y-36075462D01*
X13197160Y-36075462D01*
X13071723Y-36171713D01*
X13071713Y-36171723D01*
X12975462Y-36297160D01*
X12975462Y-36297161D01*
X12914957Y-36443233D01*
X12914955Y-36443241D01*
X12894318Y-36599999D01*
X12894318Y-36600000D01*
X8605682Y-36600000D01*
X8585044Y-36443238D01*
X8549226Y-36356766D01*
X8524537Y-36297161D01*
X8524537Y-36297160D01*
X8428286Y-36171723D01*
X8428285Y-36171722D01*
X8428282Y-36171718D01*
X8428277Y-36171714D01*
X8428276Y-36171713D01*
X8302838Y-36075462D01*
X8156766Y-36014957D01*
X8156758Y-36014955D01*
X8000001Y-35994318D01*
X7999999Y-35994318D01*
X7843241Y-36014955D01*
X7843233Y-36014957D01*
X7697161Y-36075462D01*
X7697160Y-36075462D01*
X7571723Y-36171713D01*
X7571713Y-36171723D01*
X7475462Y-36297160D01*
X7475462Y-36297161D01*
X7414957Y-36443233D01*
X7414955Y-36443241D01*
X7394318Y-36599999D01*
X7394318Y-36600000D01*
X5824983Y-36600000D01*
X5899536Y-36502841D01*
X5960044Y-36356762D01*
X5980682Y-36200000D01*
X5960044Y-36043238D01*
X5899537Y-35897161D01*
X5899537Y-35897160D01*
X5803286Y-35771723D01*
X5803285Y-35771722D01*
X5803282Y-35771718D01*
X5803277Y-35771714D01*
X5803276Y-35771713D01*
X5677838Y-35675462D01*
X5531766Y-35614957D01*
X5531758Y-35614955D01*
X5375001Y-35594318D01*
X5374999Y-35594318D01*
X5218241Y-35614955D01*
X5218233Y-35614957D01*
X5072161Y-35675462D01*
X5072160Y-35675462D01*
X4946723Y-35771713D01*
X4946713Y-35771723D01*
X4850462Y-35897160D01*
X4850462Y-35897161D01*
X4789957Y-36043233D01*
X4789955Y-36043241D01*
X4769318Y-36199999D01*
X4769318Y-36200000D01*
X500000Y-36200000D01*
X500000Y-31948393D01*
X12145823Y-31948393D01*
X12175096Y-32139474D01*
X12242233Y-32320749D01*
X12294979Y-32405372D01*
X12338879Y-32475804D01*
X12344492Y-32484808D01*
X12344497Y-32484814D01*
X12355347Y-32496228D01*
X12477677Y-32624919D01*
X12559689Y-32682001D01*
X12636334Y-32735348D01*
X12636337Y-32735350D01*
X12636342Y-32735353D01*
X12813988Y-32811587D01*
X13003344Y-32850500D01*
X13003347Y-32850500D01*
X14148208Y-32850500D01*
X14172564Y-32848023D01*
X14292321Y-32835845D01*
X14476768Y-32777974D01*
X14645791Y-32684159D01*
X14792468Y-32558240D01*
X14910796Y-32405373D01*
X14995930Y-32231816D01*
X15044385Y-32044674D01*
X15054176Y-31851610D01*
X15024903Y-31660526D01*
X15024903Y-31660525D01*
X14957766Y-31479250D01*
X14923663Y-31424537D01*
X14855509Y-31315193D01*
X14855506Y-31315190D01*
X14855502Y-31315185D01*
X14722324Y-31175082D01*
X14563665Y-31064651D01*
X14563654Y-31064645D01*
X14386013Y-30988413D01*
X14338673Y-30978684D01*
X14196656Y-30949500D01*
X13051794Y-30949500D01*
X13051792Y-30949500D01*
X12907678Y-30964155D01*
X12723231Y-31022026D01*
X12723229Y-31022027D01*
X12554212Y-31115838D01*
X12554209Y-31115840D01*
X12407531Y-31241759D01*
X12289203Y-31394627D01*
X12204071Y-31568180D01*
X12155614Y-31755328D01*
X12155614Y-31755332D01*
X12145824Y-31948390D01*
X12145823Y-31948393D01*
X500000Y-31948393D01*
X500000Y-30900000D01*
X17094318Y-30900000D01*
X17114955Y-31056758D01*
X17114957Y-31056766D01*
X17175462Y-31202838D01*
X17175462Y-31202839D01*
X17271713Y-31328276D01*
X17271718Y-31328282D01*
X17397159Y-31424536D01*
X17543238Y-31485044D01*
X17641154Y-31497934D01*
X17696379Y-31524274D01*
X17725574Y-31578045D01*
X17717588Y-31638707D01*
X17706775Y-31656353D01*
X17675462Y-31697161D01*
X17614957Y-31843233D01*
X17614955Y-31843241D01*
X17594318Y-31999999D01*
X17594318Y-32000000D01*
X17614955Y-32156758D01*
X17614957Y-32156766D01*
X17675462Y-32302838D01*
X17675462Y-32302839D01*
X17754139Y-32405373D01*
X17771718Y-32428282D01*
X17897159Y-32524536D01*
X17897160Y-32524536D01*
X17897161Y-32524537D01*
X18043233Y-32585042D01*
X18043238Y-32585044D01*
X18160809Y-32600522D01*
X18199999Y-32605682D01*
X18200000Y-32605682D01*
X18200001Y-32605682D01*
X18231352Y-32601554D01*
X18356762Y-32585044D01*
X18502841Y-32524536D01*
X18539733Y-32496227D01*
X18597408Y-32475804D01*
X18656074Y-32493181D01*
X18660257Y-32496220D01*
X18697159Y-32524536D01*
X18697160Y-32524536D01*
X18697161Y-32524537D01*
X18843233Y-32585042D01*
X18843238Y-32585044D01*
X18960809Y-32600522D01*
X18999999Y-32605682D01*
X19000000Y-32605682D01*
X19000001Y-32605682D01*
X19031352Y-32601554D01*
X19156762Y-32585044D01*
X19302841Y-32524536D01*
X19428282Y-32428282D01*
X19524536Y-32302841D01*
X19585044Y-32156762D01*
X19605682Y-32000000D01*
X19585044Y-31843238D01*
X19548632Y-31755332D01*
X19524537Y-31697161D01*
X19524537Y-31697160D01*
X19428286Y-31571723D01*
X19428285Y-31571722D01*
X19428282Y-31571718D01*
X19428277Y-31571714D01*
X19428276Y-31571713D01*
X19339733Y-31503772D01*
X19302841Y-31475464D01*
X19302840Y-31475463D01*
X19302838Y-31475462D01*
X19156766Y-31414957D01*
X19156758Y-31414955D01*
X19000001Y-31394318D01*
X18999999Y-31394318D01*
X18843241Y-31414955D01*
X18843238Y-31414955D01*
X18843238Y-31414956D01*
X18810143Y-31428664D01*
X18697160Y-31475463D01*
X18697157Y-31475465D01*
X18660267Y-31503772D01*
X18602591Y-31524196D01*
X18543925Y-31506818D01*
X18539733Y-31503772D01*
X18502842Y-31475465D01*
X18502841Y-31475464D01*
X18502836Y-31475462D01*
X18469746Y-31461755D01*
X18356762Y-31414956D01*
X18356759Y-31414955D01*
X18356758Y-31414955D01*
X18258845Y-31402065D01*
X18203620Y-31375724D01*
X18174425Y-31321953D01*
X18182411Y-31261291D01*
X18193222Y-31243649D01*
X18224536Y-31202841D01*
X18285044Y-31056762D01*
X18305682Y-30900000D01*
X18305185Y-30896228D01*
X18285044Y-30743241D01*
X18285044Y-30743238D01*
X18225713Y-30600000D01*
X19594318Y-30600000D01*
X19614955Y-30756758D01*
X19614957Y-30756766D01*
X19675462Y-30902838D01*
X19675462Y-30902839D01*
X19766918Y-31022027D01*
X19771718Y-31028282D01*
X19897159Y-31124536D01*
X19897160Y-31124536D01*
X19897161Y-31124537D01*
X20043233Y-31185042D01*
X20043238Y-31185044D01*
X20160809Y-31200522D01*
X20199999Y-31205682D01*
X20200000Y-31205682D01*
X20200001Y-31205682D01*
X20231352Y-31201554D01*
X20356762Y-31185044D01*
X20502841Y-31124536D01*
X20628282Y-31028282D01*
X20724536Y-30902841D01*
X20785044Y-30756762D01*
X20792517Y-30700000D01*
X21594318Y-30700000D01*
X21614955Y-30856758D01*
X21614957Y-30856766D01*
X21675462Y-31002838D01*
X21675462Y-31002839D01*
X21768844Y-31124537D01*
X21771718Y-31128282D01*
X21897159Y-31224536D01*
X21897160Y-31224536D01*
X21897161Y-31224537D01*
X21985893Y-31261291D01*
X22043238Y-31285044D01*
X22160809Y-31300522D01*
X22199999Y-31305682D01*
X22200000Y-31305682D01*
X22200001Y-31305682D01*
X22231352Y-31301554D01*
X22356762Y-31285044D01*
X22502841Y-31224536D01*
X22628282Y-31128282D01*
X22724536Y-31002841D01*
X22785044Y-30856762D01*
X22805682Y-30700000D01*
X22785044Y-30543238D01*
X22785042Y-30543233D01*
X22725713Y-30400000D01*
X59494318Y-30400000D01*
X59514955Y-30556758D01*
X59514957Y-30556766D01*
X59575462Y-30702838D01*
X59575462Y-30702839D01*
X59616842Y-30756766D01*
X59671718Y-30828282D01*
X59797159Y-30924536D01*
X59797160Y-30924536D01*
X59797161Y-30924537D01*
X59943233Y-30985042D01*
X59943238Y-30985044D01*
X60060809Y-31000522D01*
X60099999Y-31005682D01*
X60100000Y-31005682D01*
X60100001Y-31005682D01*
X60131352Y-31001554D01*
X60256762Y-30985044D01*
X60402841Y-30924536D01*
X60439733Y-30896227D01*
X60497408Y-30875804D01*
X60556074Y-30893181D01*
X60560257Y-30896220D01*
X60597159Y-30924536D01*
X60597160Y-30924536D01*
X60597161Y-30924537D01*
X60743233Y-30985042D01*
X60743238Y-30985044D01*
X60860809Y-31000522D01*
X60899999Y-31005682D01*
X60900000Y-31005682D01*
X60900001Y-31005682D01*
X60931352Y-31001554D01*
X61056762Y-30985044D01*
X61202841Y-30924536D01*
X61328282Y-30828282D01*
X61424536Y-30702841D01*
X61485044Y-30556762D01*
X61505682Y-30400000D01*
X61485044Y-30243238D01*
X61456970Y-30175462D01*
X61424537Y-30097161D01*
X61424537Y-30097160D01*
X61328286Y-29971723D01*
X61328285Y-29971722D01*
X61328282Y-29971718D01*
X61328277Y-29971714D01*
X61328276Y-29971713D01*
X61202838Y-29875462D01*
X61056766Y-29814957D01*
X61056758Y-29814955D01*
X60900001Y-29794318D01*
X60899999Y-29794318D01*
X60743241Y-29814955D01*
X60743236Y-29814957D01*
X60597160Y-29875463D01*
X60597157Y-29875465D01*
X60560267Y-29903772D01*
X60502591Y-29924196D01*
X60443925Y-29906818D01*
X60439733Y-29903772D01*
X60402842Y-29875465D01*
X60402841Y-29875464D01*
X60402836Y-29875462D01*
X60369746Y-29861755D01*
X60256762Y-29814956D01*
X60256759Y-29814955D01*
X60256758Y-29814955D01*
X60100001Y-29794318D01*
X60099999Y-29794318D01*
X59943241Y-29814955D01*
X59943233Y-29814957D01*
X59797161Y-29875462D01*
X59797160Y-29875462D01*
X59671723Y-29971713D01*
X59671713Y-29971723D01*
X59575462Y-30097160D01*
X59575462Y-30097161D01*
X59514957Y-30243233D01*
X59514955Y-30243241D01*
X59494318Y-30399999D01*
X59494318Y-30400000D01*
X22725713Y-30400000D01*
X22724537Y-30397161D01*
X22724537Y-30397160D01*
X22628286Y-30271723D01*
X22628285Y-30271722D01*
X22628282Y-30271718D01*
X22628277Y-30271714D01*
X22628276Y-30271713D01*
X22502838Y-30175462D01*
X22356766Y-30114957D01*
X22356758Y-30114955D01*
X22200001Y-30094318D01*
X22199999Y-30094318D01*
X22043241Y-30114955D01*
X22043233Y-30114957D01*
X21897161Y-30175462D01*
X21897160Y-30175462D01*
X21771723Y-30271713D01*
X21771713Y-30271723D01*
X21675462Y-30397160D01*
X21675462Y-30397161D01*
X21614957Y-30543233D01*
X21614955Y-30543241D01*
X21594318Y-30699999D01*
X21594318Y-30700000D01*
X20792517Y-30700000D01*
X20805682Y-30600000D01*
X20785044Y-30443238D01*
X20765958Y-30397160D01*
X20724537Y-30297161D01*
X20724537Y-30297160D01*
X20628286Y-30171723D01*
X20628285Y-30171722D01*
X20628282Y-30171718D01*
X20628277Y-30171714D01*
X20628276Y-30171713D01*
X20531116Y-30097160D01*
X20502841Y-30075464D01*
X20502840Y-30075463D01*
X20502838Y-30075462D01*
X20356766Y-30014957D01*
X20356758Y-30014955D01*
X20200001Y-29994318D01*
X20199999Y-29994318D01*
X20043241Y-30014955D01*
X20043233Y-30014957D01*
X19897161Y-30075462D01*
X19897160Y-30075462D01*
X19771723Y-30171713D01*
X19771713Y-30171723D01*
X19675462Y-30297160D01*
X19675462Y-30297161D01*
X19614957Y-30443233D01*
X19614955Y-30443241D01*
X19594318Y-30599999D01*
X19594318Y-30600000D01*
X18225713Y-30600000D01*
X18224537Y-30597161D01*
X18224537Y-30597160D01*
X18128286Y-30471723D01*
X18128285Y-30471722D01*
X18128282Y-30471718D01*
X18128277Y-30471714D01*
X18128276Y-30471713D01*
X18031116Y-30397160D01*
X18002841Y-30375464D01*
X18002840Y-30375463D01*
X18002838Y-30375462D01*
X17856766Y-30314957D01*
X17856758Y-30314955D01*
X17700001Y-30294318D01*
X17699999Y-30294318D01*
X17543241Y-30314955D01*
X17543233Y-30314957D01*
X17397161Y-30375462D01*
X17397160Y-30375462D01*
X17271723Y-30471713D01*
X17271713Y-30471723D01*
X17175462Y-30597160D01*
X17175462Y-30597161D01*
X17114957Y-30743233D01*
X17114955Y-30743241D01*
X17094318Y-30899999D01*
X17094318Y-30900000D01*
X500000Y-30900000D01*
X500000Y-29408393D01*
X12145823Y-29408393D01*
X12175096Y-29599474D01*
X12242233Y-29780749D01*
X12263555Y-29814957D01*
X12320812Y-29906818D01*
X12344492Y-29944808D01*
X12344497Y-29944814D01*
X12411171Y-30014955D01*
X12477677Y-30084919D01*
X12520834Y-30114957D01*
X12636334Y-30195348D01*
X12636337Y-30195350D01*
X12636342Y-30195353D01*
X12813988Y-30271587D01*
X13003344Y-30310500D01*
X13003347Y-30310500D01*
X14148208Y-30310500D01*
X14172564Y-30308023D01*
X14292321Y-30295845D01*
X14476768Y-30237974D01*
X14645791Y-30144159D01*
X14792468Y-30018240D01*
X14910796Y-29865373D01*
X14995930Y-29691816D01*
X15044385Y-29504674D01*
X15054176Y-29311610D01*
X15036483Y-29196120D01*
X15024903Y-29120525D01*
X14957766Y-28939250D01*
X14905020Y-28854627D01*
X14855509Y-28775193D01*
X14855506Y-28775190D01*
X14855502Y-28775185D01*
X14722324Y-28635082D01*
X14712554Y-28628282D01*
X14681316Y-28606539D01*
X14563665Y-28524651D01*
X14563654Y-28524645D01*
X14386013Y-28448413D01*
X14338673Y-28438684D01*
X14196656Y-28409500D01*
X13051794Y-28409500D01*
X13051792Y-28409500D01*
X12907678Y-28424155D01*
X12723231Y-28482026D01*
X12723229Y-28482027D01*
X12554212Y-28575838D01*
X12554209Y-28575840D01*
X12407531Y-28701759D01*
X12289203Y-28854627D01*
X12204071Y-29028180D01*
X12155614Y-29215328D01*
X12155614Y-29215332D01*
X12145824Y-29408390D01*
X12145823Y-29408393D01*
X500000Y-29408393D01*
X500000Y-29132455D01*
X518907Y-29074264D01*
X568407Y-29038300D01*
X629593Y-29038300D01*
X636875Y-29040987D01*
X743238Y-29085044D01*
X860809Y-29100522D01*
X899999Y-29105682D01*
X900000Y-29105682D01*
X900001Y-29105682D01*
X931352Y-29101554D01*
X1056762Y-29085044D01*
X1202841Y-29024536D01*
X1328282Y-28928282D01*
X1424536Y-28802841D01*
X1485044Y-28656762D01*
X1505682Y-28500000D01*
X1485044Y-28343238D01*
X1425713Y-28200000D01*
X63494318Y-28200000D01*
X63514955Y-28356758D01*
X63514957Y-28356766D01*
X63575462Y-28502838D01*
X63575462Y-28502839D01*
X63671713Y-28628276D01*
X63671718Y-28628282D01*
X63797159Y-28724536D01*
X63797160Y-28724536D01*
X63797161Y-28724537D01*
X63943233Y-28785042D01*
X63943238Y-28785044D01*
X64060809Y-28800522D01*
X64099999Y-28805682D01*
X64100000Y-28805682D01*
X64100001Y-28805682D01*
X64131352Y-28801554D01*
X64256762Y-28785044D01*
X64402841Y-28724536D01*
X64528282Y-28628282D01*
X64624536Y-28502841D01*
X64685044Y-28356762D01*
X64705682Y-28200000D01*
X64685044Y-28043238D01*
X64656971Y-27975464D01*
X64622053Y-27891163D01*
X64623950Y-27890376D01*
X64613165Y-27839662D01*
X64623047Y-27809248D01*
X64622053Y-27808837D01*
X64685042Y-27656766D01*
X64685044Y-27656762D01*
X64705682Y-27500000D01*
X64685044Y-27343238D01*
X64625713Y-27200000D01*
X66094318Y-27200000D01*
X66114955Y-27356758D01*
X66114957Y-27356766D01*
X66175462Y-27502838D01*
X66175462Y-27502839D01*
X66253209Y-27604161D01*
X66271718Y-27628282D01*
X66397159Y-27724536D01*
X66397160Y-27724536D01*
X66397161Y-27724537D01*
X66472743Y-27755844D01*
X66543238Y-27785044D01*
X66660809Y-27800522D01*
X66699999Y-27805682D01*
X66700000Y-27805682D01*
X66700001Y-27805682D01*
X66731352Y-27801554D01*
X66856762Y-27785044D01*
X67002841Y-27724536D01*
X67128282Y-27628282D01*
X67224536Y-27502841D01*
X67285044Y-27356762D01*
X67305682Y-27200000D01*
X67293061Y-27104134D01*
X67304211Y-27043976D01*
X67348593Y-27001858D01*
X67404134Y-26993061D01*
X67500000Y-27005682D01*
X67500001Y-27005682D01*
X67531352Y-27001554D01*
X67656762Y-26985044D01*
X67802841Y-26924536D01*
X67928282Y-26828282D01*
X68024536Y-26702841D01*
X68085044Y-26556762D01*
X68105682Y-26400000D01*
X68085044Y-26243238D01*
X68049226Y-26156766D01*
X68024537Y-26097161D01*
X68024537Y-26097160D01*
X67928286Y-25971723D01*
X67928285Y-25971722D01*
X67928282Y-25971718D01*
X67928277Y-25971714D01*
X67928276Y-25971713D01*
X67802838Y-25875462D01*
X67656766Y-25814957D01*
X67656758Y-25814955D01*
X67500001Y-25794318D01*
X67499999Y-25794318D01*
X67343241Y-25814955D01*
X67343236Y-25814957D01*
X67197160Y-25875463D01*
X67197157Y-25875465D01*
X67160267Y-25903772D01*
X67102591Y-25924196D01*
X67043925Y-25906818D01*
X67039733Y-25903772D01*
X67002842Y-25875465D01*
X67002841Y-25875464D01*
X67002836Y-25875462D01*
X66957311Y-25856605D01*
X66856762Y-25814956D01*
X66856759Y-25814955D01*
X66856758Y-25814955D01*
X66700001Y-25794318D01*
X66699999Y-25794318D01*
X66543241Y-25814955D01*
X66543233Y-25814957D01*
X66397161Y-25875462D01*
X66397160Y-25875462D01*
X66271723Y-25971713D01*
X66271713Y-25971723D01*
X66175462Y-26097160D01*
X66175462Y-26097161D01*
X66114957Y-26243233D01*
X66114955Y-26243241D01*
X66094318Y-26399999D01*
X66094318Y-26400000D01*
X66110713Y-26524537D01*
X66114956Y-26556762D01*
X66161755Y-26669746D01*
X66175463Y-26702839D01*
X66175465Y-26702842D01*
X66203772Y-26739733D01*
X66224196Y-26797409D01*
X66206818Y-26856075D01*
X66203772Y-26860267D01*
X66175465Y-26897157D01*
X66175463Y-26897160D01*
X66114957Y-27043236D01*
X66114955Y-27043241D01*
X66094318Y-27199999D01*
X66094318Y-27200000D01*
X64625713Y-27200000D01*
X64624537Y-27197161D01*
X64624537Y-27197160D01*
X64528286Y-27071723D01*
X64528285Y-27071722D01*
X64528282Y-27071718D01*
X64528277Y-27071714D01*
X64528276Y-27071713D01*
X64402838Y-26975462D01*
X64256766Y-26914957D01*
X64256758Y-26914955D01*
X64100001Y-26894318D01*
X64099999Y-26894318D01*
X63943241Y-26914955D01*
X63943233Y-26914957D01*
X63797161Y-26975462D01*
X63797160Y-26975462D01*
X63671723Y-27071713D01*
X63671713Y-27071723D01*
X63575462Y-27197160D01*
X63575462Y-27197161D01*
X63514957Y-27343233D01*
X63514955Y-27343241D01*
X63494318Y-27499999D01*
X63494318Y-27500000D01*
X63514770Y-27655354D01*
X63514956Y-27656762D01*
X63568092Y-27785044D01*
X63577947Y-27808835D01*
X63576051Y-27809620D01*
X63586833Y-27860351D01*
X63576954Y-27890753D01*
X63577947Y-27891165D01*
X63514957Y-28043236D01*
X63514955Y-28043241D01*
X63494318Y-28199999D01*
X63494318Y-28200000D01*
X1425713Y-28200000D01*
X1424537Y-28197161D01*
X1424537Y-28197160D01*
X1328286Y-28071723D01*
X1328285Y-28071722D01*
X1328282Y-28071718D01*
X1328277Y-28071714D01*
X1328276Y-28071713D01*
X1202838Y-27975462D01*
X1056766Y-27914957D01*
X1056758Y-27914955D01*
X900001Y-27894318D01*
X899999Y-27894318D01*
X743241Y-27914955D01*
X743232Y-27914957D01*
X636885Y-27959008D01*
X575888Y-27963809D01*
X523719Y-27931839D01*
X500305Y-27875311D01*
X500000Y-27867544D01*
X500000Y-26868393D01*
X12145823Y-26868393D01*
X12175096Y-27059474D01*
X12242233Y-27240749D01*
X12344492Y-27404808D01*
X12344497Y-27404814D01*
X12414294Y-27478240D01*
X12477677Y-27544919D01*
X12559689Y-27602001D01*
X12636334Y-27655348D01*
X12636337Y-27655350D01*
X12636342Y-27655353D01*
X12813988Y-27731587D01*
X13003344Y-27770500D01*
X13003347Y-27770500D01*
X14148208Y-27770500D01*
X14172564Y-27768023D01*
X14292321Y-27755845D01*
X14476768Y-27697974D01*
X14645791Y-27604159D01*
X14792468Y-27478240D01*
X14910796Y-27325373D01*
X14995930Y-27151816D01*
X15044385Y-26964674D01*
X15054176Y-26771610D01*
X15024903Y-26580526D01*
X15024903Y-26580525D01*
X14957766Y-26399250D01*
X14905020Y-26314627D01*
X14865592Y-26251370D01*
X14850858Y-26191988D01*
X14873842Y-26135284D01*
X14925767Y-26102919D01*
X14936685Y-26100852D01*
X15056762Y-26085044D01*
X15202841Y-26024536D01*
X15234817Y-26000000D01*
X55694318Y-26000000D01*
X55714955Y-26156758D01*
X55714957Y-26156766D01*
X55775462Y-26302838D01*
X55775462Y-26302839D01*
X55871713Y-26428276D01*
X55871718Y-26428282D01*
X55997159Y-26524536D01*
X55997160Y-26524536D01*
X55997161Y-26524537D01*
X56143233Y-26585042D01*
X56143238Y-26585044D01*
X56260809Y-26600522D01*
X56299999Y-26605682D01*
X56300000Y-26605682D01*
X56300001Y-26605682D01*
X56331352Y-26601554D01*
X56456762Y-26585044D01*
X56602841Y-26524536D01*
X56728282Y-26428282D01*
X56824536Y-26302841D01*
X56885044Y-26156762D01*
X56905682Y-26000000D01*
X57694318Y-26000000D01*
X57714955Y-26156758D01*
X57714957Y-26156766D01*
X57775462Y-26302838D01*
X57775462Y-26302839D01*
X57871713Y-26428276D01*
X57871718Y-26428282D01*
X57997159Y-26524536D01*
X57997160Y-26524536D01*
X57997161Y-26524537D01*
X58143233Y-26585042D01*
X58143238Y-26585044D01*
X58260809Y-26600522D01*
X58299999Y-26605682D01*
X58300000Y-26605682D01*
X58300001Y-26605682D01*
X58331352Y-26601554D01*
X58456762Y-26585044D01*
X58602841Y-26524536D01*
X58728282Y-26428282D01*
X58824536Y-26302841D01*
X58885044Y-26156762D01*
X58905682Y-26000000D01*
X58885044Y-25843238D01*
X58843706Y-25743439D01*
X58822053Y-25691163D01*
X58823950Y-25690376D01*
X58813165Y-25639662D01*
X58823047Y-25609248D01*
X58822053Y-25608837D01*
X58885042Y-25456766D01*
X58885044Y-25456762D01*
X58905682Y-25300000D01*
X58885044Y-25143238D01*
X58873492Y-25115348D01*
X58822053Y-24991163D01*
X58823950Y-24990376D01*
X58813165Y-24939662D01*
X58823047Y-24909248D01*
X58822053Y-24908837D01*
X58885042Y-24756766D01*
X58885044Y-24756762D01*
X58905682Y-24600000D01*
X58885044Y-24443238D01*
X58849226Y-24356766D01*
X58822053Y-24291163D01*
X58823950Y-24290376D01*
X58813165Y-24239662D01*
X58823047Y-24209248D01*
X58822053Y-24208837D01*
X58885042Y-24056766D01*
X58885044Y-24056762D01*
X58905682Y-23900000D01*
X58885044Y-23743238D01*
X58831908Y-23614956D01*
X58824537Y-23597161D01*
X58824537Y-23597160D01*
X58728286Y-23471723D01*
X58728285Y-23471722D01*
X58728282Y-23471718D01*
X58728277Y-23471714D01*
X58728276Y-23471713D01*
X58626199Y-23393387D01*
X58602841Y-23375464D01*
X58602840Y-23375463D01*
X58602838Y-23375462D01*
X58456766Y-23314957D01*
X58456758Y-23314955D01*
X58300001Y-23294318D01*
X58299999Y-23294318D01*
X58143241Y-23314955D01*
X58143233Y-23314957D01*
X57997161Y-23375462D01*
X57997160Y-23375462D01*
X57871723Y-23471713D01*
X57871713Y-23471723D01*
X57775462Y-23597160D01*
X57775462Y-23597161D01*
X57714957Y-23743233D01*
X57714955Y-23743241D01*
X57694318Y-23899999D01*
X57694318Y-23900000D01*
X57713175Y-24043238D01*
X57714956Y-24056762D01*
X57747501Y-24135332D01*
X57777947Y-24208835D01*
X57776051Y-24209620D01*
X57786833Y-24260351D01*
X57776954Y-24290753D01*
X57777947Y-24291165D01*
X57775464Y-24297158D01*
X57775464Y-24297159D01*
X57714958Y-24443233D01*
X57714957Y-24443236D01*
X57714955Y-24443241D01*
X57694318Y-24599999D01*
X57694318Y-24600000D01*
X57710713Y-24724537D01*
X57714956Y-24756762D01*
X57771934Y-24894318D01*
X57777947Y-24908835D01*
X57776051Y-24909620D01*
X57786833Y-24960351D01*
X57776954Y-24990753D01*
X57777947Y-24991165D01*
X57775464Y-24997158D01*
X57775464Y-24997159D01*
X57726506Y-25115354D01*
X57714957Y-25143236D01*
X57714955Y-25143241D01*
X57696561Y-25282960D01*
X57694318Y-25300000D01*
X57714956Y-25456762D01*
X57732866Y-25500000D01*
X57777947Y-25608835D01*
X57776051Y-25609620D01*
X57786833Y-25660351D01*
X57776954Y-25690753D01*
X57777947Y-25691165D01*
X57775464Y-25697158D01*
X57775464Y-25697159D01*
X57714958Y-25843233D01*
X57714957Y-25843236D01*
X57714955Y-25843241D01*
X57694318Y-25999999D01*
X57694318Y-26000000D01*
X56905682Y-26000000D01*
X56885044Y-25843238D01*
X56843706Y-25743439D01*
X56822053Y-25691163D01*
X56823950Y-25690376D01*
X56813165Y-25639662D01*
X56823047Y-25609248D01*
X56822053Y-25608837D01*
X56885042Y-25456766D01*
X56885044Y-25456762D01*
X56905682Y-25300000D01*
X56885044Y-25143238D01*
X56873492Y-25115348D01*
X56822053Y-24991163D01*
X56823950Y-24990376D01*
X56813165Y-24939662D01*
X56823047Y-24909248D01*
X56822053Y-24908837D01*
X56885042Y-24756766D01*
X56885044Y-24756762D01*
X56905682Y-24600000D01*
X56885044Y-24443238D01*
X56849226Y-24356766D01*
X56822053Y-24291163D01*
X56823950Y-24290376D01*
X56813165Y-24239662D01*
X56823047Y-24209248D01*
X56822053Y-24208837D01*
X56885042Y-24056766D01*
X56885044Y-24056762D01*
X56905682Y-23900000D01*
X56885044Y-23743238D01*
X56831908Y-23614956D01*
X56824537Y-23597161D01*
X56824537Y-23597160D01*
X56728286Y-23471723D01*
X56728285Y-23471722D01*
X56728282Y-23471718D01*
X56728277Y-23471714D01*
X56728276Y-23471713D01*
X56626199Y-23393387D01*
X56602841Y-23375464D01*
X56602840Y-23375463D01*
X56602838Y-23375462D01*
X56456766Y-23314957D01*
X56456758Y-23314955D01*
X56300001Y-23294318D01*
X56299999Y-23294318D01*
X56143241Y-23314955D01*
X56143233Y-23314957D01*
X55997161Y-23375462D01*
X55997160Y-23375462D01*
X55871723Y-23471713D01*
X55871713Y-23471723D01*
X55775462Y-23597160D01*
X55775462Y-23597161D01*
X55714957Y-23743233D01*
X55714955Y-23743241D01*
X55694318Y-23899999D01*
X55694318Y-23900000D01*
X55713175Y-24043238D01*
X55714956Y-24056762D01*
X55747501Y-24135332D01*
X55777947Y-24208835D01*
X55776051Y-24209620D01*
X55786833Y-24260351D01*
X55776954Y-24290753D01*
X55777947Y-24291165D01*
X55775464Y-24297158D01*
X55775464Y-24297159D01*
X55714958Y-24443233D01*
X55714957Y-24443236D01*
X55714955Y-24443241D01*
X55694318Y-24599999D01*
X55694318Y-24600000D01*
X55710713Y-24724537D01*
X55714956Y-24756762D01*
X55771934Y-24894318D01*
X55777947Y-24908835D01*
X55776051Y-24909620D01*
X55786833Y-24960351D01*
X55776954Y-24990753D01*
X55777947Y-24991165D01*
X55775464Y-24997158D01*
X55775464Y-24997159D01*
X55726506Y-25115354D01*
X55714957Y-25143236D01*
X55714955Y-25143241D01*
X55696561Y-25282960D01*
X55694318Y-25300000D01*
X55714956Y-25456762D01*
X55732866Y-25500000D01*
X55777947Y-25608835D01*
X55776051Y-25609620D01*
X55786833Y-25660351D01*
X55776954Y-25690753D01*
X55777947Y-25691165D01*
X55775464Y-25697158D01*
X55775464Y-25697159D01*
X55714958Y-25843233D01*
X55714957Y-25843236D01*
X55714955Y-25843241D01*
X55694318Y-25999999D01*
X55694318Y-26000000D01*
X15234817Y-26000000D01*
X15328282Y-25928282D01*
X15424536Y-25802841D01*
X15485044Y-25656762D01*
X15505682Y-25500000D01*
X15485044Y-25343238D01*
X15424537Y-25197161D01*
X15424537Y-25197160D01*
X15328286Y-25071723D01*
X15328285Y-25071722D01*
X15328282Y-25071718D01*
X15328277Y-25071714D01*
X15328276Y-25071713D01*
X15257104Y-25017101D01*
X15202841Y-24975464D01*
X15202840Y-24975463D01*
X15202838Y-24975462D01*
X15056766Y-24914957D01*
X15056759Y-24914955D01*
X14996609Y-24907036D01*
X14941384Y-24880694D01*
X14912190Y-24826923D01*
X14920177Y-24766261D01*
X14920604Y-24765376D01*
X14995930Y-24611816D01*
X15044385Y-24424674D01*
X15054176Y-24231610D01*
X15049334Y-24200000D01*
X34194318Y-24200000D01*
X34214955Y-24356758D01*
X34214957Y-24356766D01*
X34275462Y-24502838D01*
X34275462Y-24502839D01*
X34371713Y-24628276D01*
X34371718Y-24628282D01*
X34497159Y-24724536D01*
X34497160Y-24724536D01*
X34497161Y-24724537D01*
X34574969Y-24756766D01*
X34643238Y-24785044D01*
X34760809Y-24800522D01*
X34799999Y-24805682D01*
X34800000Y-24805682D01*
X34800001Y-24805682D01*
X34831352Y-24801554D01*
X34956762Y-24785044D01*
X35102841Y-24724536D01*
X35228282Y-24628282D01*
X35324536Y-24502841D01*
X35385044Y-24356762D01*
X35405682Y-24200000D01*
X35385044Y-24043238D01*
X35345670Y-23948180D01*
X35324537Y-23897161D01*
X35324537Y-23897160D01*
X35228286Y-23771723D01*
X35228285Y-23771722D01*
X35228282Y-23771718D01*
X35228277Y-23771714D01*
X35228276Y-23771713D01*
X35102838Y-23675462D01*
X34956766Y-23614957D01*
X34956758Y-23614955D01*
X34800001Y-23594318D01*
X34799999Y-23594318D01*
X34643241Y-23614955D01*
X34643233Y-23614957D01*
X34497161Y-23675462D01*
X34497160Y-23675462D01*
X34371723Y-23771713D01*
X34371713Y-23771723D01*
X34275462Y-23897160D01*
X34275462Y-23897161D01*
X34214957Y-24043233D01*
X34214955Y-24043241D01*
X34194318Y-24199999D01*
X34194318Y-24200000D01*
X15049334Y-24200000D01*
X15027391Y-24056766D01*
X15024903Y-24040525D01*
X14957766Y-23859250D01*
X14935763Y-23823950D01*
X14855509Y-23695193D01*
X14855506Y-23695190D01*
X14855502Y-23695185D01*
X14722324Y-23555082D01*
X14563665Y-23444651D01*
X14563654Y-23444645D01*
X14386013Y-23368413D01*
X14338673Y-23358684D01*
X14196656Y-23329500D01*
X13051794Y-23329500D01*
X13051792Y-23329500D01*
X12907678Y-23344155D01*
X12723231Y-23402026D01*
X12723229Y-23402027D01*
X12554212Y-23495838D01*
X12554209Y-23495840D01*
X12407531Y-23621759D01*
X12289203Y-23774627D01*
X12204071Y-23948180D01*
X12155614Y-24135328D01*
X12155614Y-24135332D01*
X12145824Y-24328390D01*
X12145823Y-24328393D01*
X12175096Y-24519474D01*
X12242233Y-24700749D01*
X12344492Y-24864808D01*
X12344497Y-24864814D01*
X12477675Y-25004917D01*
X12477677Y-25004919D01*
X12559689Y-25062001D01*
X12636334Y-25115348D01*
X12636337Y-25115350D01*
X12636342Y-25115353D01*
X12813988Y-25191587D01*
X13003344Y-25230500D01*
X13003347Y-25230500D01*
X14148206Y-25230500D01*
X14207892Y-25224430D01*
X14267695Y-25237353D01*
X14308483Y-25282960D01*
X14313934Y-25336558D01*
X14315803Y-25336805D01*
X14294318Y-25499999D01*
X14294318Y-25500000D01*
X14314955Y-25656758D01*
X14314957Y-25656767D01*
X14350858Y-25743439D01*
X14355658Y-25804436D01*
X14323689Y-25856605D01*
X14267161Y-25880019D01*
X14239469Y-25878298D01*
X14196656Y-25869500D01*
X13051794Y-25869500D01*
X13051792Y-25869500D01*
X12907678Y-25884155D01*
X12723231Y-25942026D01*
X12723229Y-25942027D01*
X12554212Y-26035838D01*
X12554209Y-26035840D01*
X12407531Y-26161759D01*
X12289203Y-26314627D01*
X12204071Y-26488180D01*
X12155614Y-26675328D01*
X12155614Y-26675332D01*
X12145824Y-26868390D01*
X12145823Y-26868393D01*
X500000Y-26868393D01*
X500000Y-22800000D01*
X65594318Y-22800000D01*
X65614955Y-22956758D01*
X65614957Y-22956766D01*
X65675462Y-23102838D01*
X65675462Y-23102839D01*
X65771713Y-23228276D01*
X65771718Y-23228282D01*
X65897159Y-23324536D01*
X66043238Y-23385044D01*
X66043246Y-23385045D01*
X66044581Y-23385403D01*
X66045421Y-23385948D01*
X66049232Y-23387527D01*
X66048939Y-23388232D01*
X66095899Y-23418722D01*
X66112271Y-23450851D01*
X66112473Y-23450768D01*
X66113532Y-23453326D01*
X66114594Y-23455409D01*
X66114957Y-23456767D01*
X66175462Y-23602838D01*
X66175462Y-23602839D01*
X66246326Y-23695191D01*
X66271718Y-23728282D01*
X66397159Y-23824536D01*
X66397160Y-23824536D01*
X66397161Y-23824537D01*
X66480966Y-23859250D01*
X66543238Y-23885044D01*
X66656833Y-23899999D01*
X66699999Y-23905682D01*
X66700000Y-23905682D01*
X66700001Y-23905682D01*
X66743167Y-23899999D01*
X66856762Y-23885044D01*
X66919041Y-23859247D01*
X67008837Y-23822053D01*
X67009623Y-23823950D01*
X67060338Y-23813165D01*
X67090751Y-23823047D01*
X67091163Y-23822053D01*
X67243233Y-23885042D01*
X67243238Y-23885044D01*
X67356833Y-23899999D01*
X67399999Y-23905682D01*
X67400000Y-23905682D01*
X67400001Y-23905682D01*
X67443167Y-23899999D01*
X67556762Y-23885044D01*
X67619041Y-23859247D01*
X67708837Y-23822053D01*
X67709623Y-23823950D01*
X67760338Y-23813165D01*
X67790751Y-23823047D01*
X67791163Y-23822053D01*
X67943233Y-23885042D01*
X67943238Y-23885044D01*
X68056833Y-23899999D01*
X68099999Y-23905682D01*
X68100000Y-23905682D01*
X68100001Y-23905682D01*
X68143167Y-23899999D01*
X68256762Y-23885044D01*
X68402841Y-23824536D01*
X68528282Y-23728282D01*
X68624536Y-23602841D01*
X68685044Y-23456762D01*
X68705682Y-23300000D01*
X68685044Y-23143238D01*
X68624537Y-22997161D01*
X68624537Y-22997160D01*
X68528286Y-22871723D01*
X68528285Y-22871722D01*
X68528282Y-22871718D01*
X68528277Y-22871714D01*
X68528276Y-22871713D01*
X68406077Y-22777947D01*
X68402841Y-22775464D01*
X68402840Y-22775463D01*
X68402838Y-22775462D01*
X68256766Y-22714957D01*
X68256758Y-22714955D01*
X68100001Y-22694318D01*
X68099999Y-22694318D01*
X67943241Y-22714955D01*
X67943236Y-22714957D01*
X67791165Y-22777947D01*
X67790379Y-22776051D01*
X67739649Y-22786833D01*
X67709246Y-22776954D01*
X67708835Y-22777947D01*
X67702841Y-22775464D01*
X67556762Y-22714956D01*
X67556759Y-22714955D01*
X67556758Y-22714955D01*
X67400001Y-22694318D01*
X67399999Y-22694318D01*
X67243241Y-22714955D01*
X67243236Y-22714957D01*
X67091165Y-22777947D01*
X67090379Y-22776051D01*
X67039649Y-22786833D01*
X67009246Y-22776954D01*
X67008835Y-22777947D01*
X66856764Y-22714957D01*
X66856765Y-22714957D01*
X66856762Y-22714956D01*
X66856758Y-22714955D01*
X66855409Y-22714594D01*
X66854566Y-22714046D01*
X66850767Y-22712473D01*
X66851058Y-22711768D01*
X66804095Y-22681270D01*
X66787729Y-22649148D01*
X66787527Y-22649232D01*
X66786459Y-22646654D01*
X66785403Y-22644581D01*
X66785044Y-22643241D01*
X66785044Y-22643238D01*
X66774578Y-22617972D01*
X66722053Y-22491163D01*
X66723950Y-22490376D01*
X66713165Y-22439662D01*
X66723047Y-22409248D01*
X66722053Y-22408837D01*
X66785042Y-22256766D01*
X66785044Y-22256762D01*
X66805682Y-22100000D01*
X66785044Y-21943238D01*
X66724537Y-21797161D01*
X66724537Y-21797160D01*
X66628286Y-21671723D01*
X66628285Y-21671722D01*
X66628282Y-21671718D01*
X66628277Y-21671714D01*
X66628276Y-21671713D01*
X66557104Y-21617101D01*
X66502841Y-21575464D01*
X66502840Y-21575463D01*
X66502838Y-21575462D01*
X66356766Y-21514957D01*
X66356758Y-21514955D01*
X66200001Y-21494318D01*
X66199999Y-21494318D01*
X66043241Y-21514955D01*
X66043233Y-21514957D01*
X65897161Y-21575462D01*
X65897160Y-21575462D01*
X65771723Y-21671713D01*
X65771713Y-21671723D01*
X65675462Y-21797160D01*
X65675462Y-21797161D01*
X65614957Y-21943233D01*
X65614955Y-21943241D01*
X65594318Y-22099999D01*
X65594318Y-22100000D01*
X65613456Y-22245373D01*
X65614956Y-22256762D01*
X65673558Y-22398240D01*
X65677947Y-22408835D01*
X65676051Y-22409620D01*
X65686833Y-22460351D01*
X65676954Y-22490753D01*
X65677947Y-22491165D01*
X65675464Y-22497158D01*
X65675464Y-22497159D01*
X65643077Y-22575348D01*
X65614957Y-22643236D01*
X65614955Y-22643241D01*
X65594318Y-22799999D01*
X65594318Y-22800000D01*
X500000Y-22800000D01*
X500000Y-21788393D01*
X12145823Y-21788393D01*
X12175096Y-21979474D01*
X12242233Y-22160749D01*
X12294979Y-22245372D01*
X12302078Y-22256762D01*
X12344492Y-22324808D01*
X12344497Y-22324814D01*
X12463495Y-22450000D01*
X12477677Y-22464919D01*
X12514794Y-22490753D01*
X12636334Y-22575348D01*
X12636337Y-22575350D01*
X12636342Y-22575353D01*
X12813988Y-22651587D01*
X13003344Y-22690500D01*
X13003347Y-22690500D01*
X14148208Y-22690500D01*
X14172564Y-22688023D01*
X14292321Y-22675845D01*
X14476768Y-22617974D01*
X14645791Y-22524159D01*
X14792468Y-22398240D01*
X14910796Y-22245373D01*
X14995930Y-22071816D01*
X15044385Y-21884674D01*
X15054176Y-21691610D01*
X15027114Y-21514956D01*
X15024903Y-21500525D01*
X14957766Y-21319250D01*
X14905020Y-21234627D01*
X14855509Y-21155193D01*
X14855506Y-21155190D01*
X14855502Y-21155185D01*
X14722324Y-21015082D01*
X14563665Y-20904651D01*
X14563654Y-20904645D01*
X14386013Y-20828413D01*
X14338673Y-20818684D01*
X14196656Y-20789500D01*
X13051794Y-20789500D01*
X13051792Y-20789500D01*
X12907678Y-20804155D01*
X12723231Y-20862026D01*
X12723229Y-20862027D01*
X12554212Y-20955838D01*
X12554209Y-20955840D01*
X12407531Y-21081759D01*
X12289203Y-21234627D01*
X12204071Y-21408180D01*
X12155614Y-21595328D01*
X12155614Y-21595332D01*
X12145824Y-21788390D01*
X12145823Y-21788393D01*
X500000Y-21788393D01*
X500000Y-20300000D01*
X16794318Y-20300000D01*
X16814955Y-20456758D01*
X16814957Y-20456766D01*
X16875462Y-20602838D01*
X16875462Y-20602839D01*
X16875464Y-20602841D01*
X16971718Y-20728282D01*
X17097159Y-20824536D01*
X17097160Y-20824536D01*
X17097161Y-20824537D01*
X17187670Y-20862027D01*
X17243238Y-20885044D01*
X17360809Y-20900522D01*
X17399999Y-20905682D01*
X17400000Y-20905682D01*
X17400001Y-20905682D01*
X17431352Y-20901554D01*
X17556762Y-20885044D01*
X17702841Y-20824536D01*
X17828282Y-20728282D01*
X17924536Y-20602841D01*
X17985044Y-20456762D01*
X18005682Y-20300000D01*
X17985044Y-20143238D01*
X17940357Y-20035354D01*
X17924537Y-19997161D01*
X17924537Y-19997160D01*
X17828286Y-19871723D01*
X17828285Y-19871722D01*
X17828282Y-19871718D01*
X17828277Y-19871714D01*
X17828276Y-19871713D01*
X17702838Y-19775462D01*
X17556766Y-19714957D01*
X17556758Y-19714955D01*
X17400001Y-19694318D01*
X17399999Y-19694318D01*
X17243241Y-19714955D01*
X17243233Y-19714957D01*
X17097161Y-19775462D01*
X17097160Y-19775462D01*
X16971723Y-19871713D01*
X16971713Y-19871723D01*
X16875462Y-19997160D01*
X16875462Y-19997161D01*
X16814957Y-20143233D01*
X16814955Y-20143241D01*
X16794318Y-20299999D01*
X16794318Y-20300000D01*
X500000Y-20300000D01*
X500000Y-19248393D01*
X12145823Y-19248393D01*
X12175096Y-19439474D01*
X12242233Y-19620749D01*
X12288089Y-19694318D01*
X12338666Y-19775462D01*
X12344492Y-19784808D01*
X12344497Y-19784814D01*
X12477675Y-19924917D01*
X12477677Y-19924919D01*
X12559689Y-19982001D01*
X12636334Y-20035348D01*
X12636337Y-20035350D01*
X12636342Y-20035353D01*
X12813988Y-20111587D01*
X13003344Y-20150500D01*
X13003347Y-20150500D01*
X14148208Y-20150500D01*
X14172564Y-20148023D01*
X14292321Y-20135845D01*
X14476768Y-20077974D01*
X14645791Y-19984159D01*
X14792468Y-19858240D01*
X14910796Y-19705373D01*
X14995930Y-19531816D01*
X15044385Y-19344674D01*
X15054176Y-19151610D01*
X15024903Y-18960526D01*
X15024903Y-18960525D01*
X14957766Y-18779250D01*
X14895912Y-18680014D01*
X14855509Y-18615193D01*
X14855506Y-18615190D01*
X14855502Y-18615185D01*
X14722324Y-18475082D01*
X14712985Y-18468582D01*
X14681316Y-18446539D01*
X14563665Y-18364651D01*
X14563654Y-18364645D01*
X14386013Y-18288413D01*
X14338673Y-18278684D01*
X14196656Y-18249500D01*
X13051794Y-18249500D01*
X13051792Y-18249500D01*
X12907678Y-18264155D01*
X12723231Y-18322026D01*
X12723229Y-18322027D01*
X12554212Y-18415838D01*
X12554209Y-18415840D01*
X12407531Y-18541759D01*
X12289203Y-18694627D01*
X12204071Y-18868180D01*
X12155614Y-19055328D01*
X12155614Y-19055332D01*
X12145824Y-19248390D01*
X12145823Y-19248393D01*
X500000Y-19248393D01*
X500000Y-16708393D01*
X12145823Y-16708393D01*
X12175096Y-16899474D01*
X12242233Y-17080749D01*
X12294979Y-17165372D01*
X12320104Y-17205682D01*
X12344492Y-17244808D01*
X12344497Y-17244814D01*
X12477675Y-17384917D01*
X12477677Y-17384919D01*
X12559689Y-17442001D01*
X12636334Y-17495348D01*
X12636337Y-17495350D01*
X12636342Y-17495353D01*
X12813988Y-17571587D01*
X13003344Y-17610500D01*
X13003347Y-17610500D01*
X14148208Y-17610500D01*
X14172564Y-17608023D01*
X14292321Y-17595845D01*
X14476768Y-17537974D01*
X14645791Y-17444159D01*
X14792468Y-17318240D01*
X14910796Y-17165373D01*
X14995930Y-16991816D01*
X15044385Y-16804674D01*
X15054176Y-16611610D01*
X15052397Y-16600000D01*
X16194318Y-16600000D01*
X16214955Y-16756758D01*
X16214957Y-16756766D01*
X16275462Y-16902838D01*
X16275462Y-16902839D01*
X16343739Y-16991819D01*
X16371718Y-17028282D01*
X16497159Y-17124536D01*
X16497160Y-17124536D01*
X16497161Y-17124537D01*
X16595748Y-17165373D01*
X16643238Y-17185044D01*
X16760809Y-17200522D01*
X16799999Y-17205682D01*
X16800000Y-17205682D01*
X16800001Y-17205682D01*
X16831352Y-17201554D01*
X16956762Y-17185044D01*
X17102841Y-17124536D01*
X17176827Y-17067765D01*
X47145788Y-17067765D01*
X47175414Y-17337020D01*
X47236738Y-17571586D01*
X47243928Y-17599088D01*
X47349870Y-17848390D01*
X47421999Y-17966577D01*
X47490983Y-18079612D01*
X47580252Y-18186880D01*
X47664255Y-18287820D01*
X47865998Y-18468582D01*
X48087589Y-18615185D01*
X48091913Y-18618046D01*
X48224100Y-18680012D01*
X48337176Y-18733020D01*
X48482628Y-18776780D01*
X48596555Y-18811056D01*
X48596559Y-18811057D01*
X48596569Y-18811060D01*
X48763840Y-18835677D01*
X48864560Y-18850500D01*
X48864561Y-18850500D01*
X49067631Y-18850500D01*
X49270156Y-18835677D01*
X49534553Y-18776780D01*
X49787558Y-18680014D01*
X50023777Y-18547441D01*
X50238177Y-18381888D01*
X50426186Y-18186881D01*
X50583799Y-17966579D01*
X50707656Y-17725675D01*
X50795118Y-17469305D01*
X50844319Y-17202933D01*
X50854212Y-16932235D01*
X50824586Y-16662982D01*
X50756072Y-16400912D01*
X50650130Y-16151610D01*
X50509018Y-15920390D01*
X50471944Y-15875841D01*
X50335746Y-15712181D01*
X50134007Y-15531422D01*
X50134004Y-15531420D01*
X50134002Y-15531418D01*
X49984489Y-15432501D01*
X49908086Y-15381953D01*
X49662822Y-15266979D01*
X49403444Y-15188943D01*
X49403428Y-15188939D01*
X49135440Y-15149500D01*
X49135439Y-15149500D01*
X48932369Y-15149500D01*
X48729848Y-15164322D01*
X48465450Y-15223219D01*
X48212439Y-15319987D01*
X47976219Y-15452561D01*
X47761826Y-15618108D01*
X47573814Y-15813119D01*
X47416199Y-16033422D01*
X47292342Y-16274328D01*
X47204884Y-16530687D01*
X47204881Y-16530698D01*
X47155680Y-16797069D01*
X47145788Y-17067765D01*
X17176827Y-17067765D01*
X17228282Y-17028282D01*
X17324536Y-16902841D01*
X17385044Y-16756762D01*
X17405682Y-16600000D01*
X17385044Y-16443238D01*
X17324537Y-16297161D01*
X17324537Y-16297160D01*
X17228286Y-16171723D01*
X17228285Y-16171722D01*
X17228282Y-16171718D01*
X17228277Y-16171714D01*
X17228276Y-16171713D01*
X17102838Y-16075462D01*
X16956766Y-16014957D01*
X16956758Y-16014955D01*
X16800001Y-15994318D01*
X16799999Y-15994318D01*
X16643241Y-16014955D01*
X16643233Y-16014957D01*
X16497161Y-16075462D01*
X16497160Y-16075462D01*
X16371723Y-16171713D01*
X16371713Y-16171723D01*
X16275462Y-16297160D01*
X16275462Y-16297161D01*
X16214957Y-16443233D01*
X16214955Y-16443241D01*
X16194318Y-16599999D01*
X16194318Y-16600000D01*
X15052397Y-16600000D01*
X15024903Y-16420526D01*
X15024903Y-16420525D01*
X14957766Y-16239250D01*
X14905020Y-16154627D01*
X14855509Y-16075193D01*
X14855506Y-16075190D01*
X14855502Y-16075185D01*
X14722324Y-15935082D01*
X14701211Y-15920387D01*
X14681316Y-15906539D01*
X14563665Y-15824651D01*
X14563654Y-15824645D01*
X14386013Y-15748413D01*
X14338673Y-15738684D01*
X14196656Y-15709500D01*
X13051794Y-15709500D01*
X13051792Y-15709500D01*
X12907678Y-15724155D01*
X12723231Y-15782026D01*
X12723229Y-15782027D01*
X12554212Y-15875838D01*
X12554209Y-15875840D01*
X12407531Y-16001759D01*
X12289203Y-16154627D01*
X12204071Y-16328180D01*
X12155614Y-16515328D01*
X12155614Y-16515332D01*
X12145824Y-16708390D01*
X12145823Y-16708393D01*
X500000Y-16708393D01*
X500000Y-14370000D01*
X12179528Y-14370000D01*
X12242682Y-14540522D01*
X12242685Y-14540528D01*
X12344890Y-14704500D01*
X12344895Y-14704506D01*
X12478003Y-14844535D01*
X12636578Y-14954908D01*
X12636586Y-14954912D01*
X12814137Y-15031106D01*
X13003396Y-15070000D01*
X13349999Y-15070000D01*
X13350000Y-15069999D01*
X13350000Y-14555501D01*
X13457685Y-14604680D01*
X13564237Y-14620000D01*
X13635763Y-14620000D01*
X13742315Y-14604680D01*
X13850000Y-14555501D01*
X13850000Y-15069999D01*
X13850001Y-15070000D01*
X14148177Y-15070000D01*
X14292218Y-15055352D01*
X14292220Y-15055351D01*
X14476571Y-14997511D01*
X14476572Y-14997510D01*
X14645501Y-14903747D01*
X14792102Y-14777894D01*
X14792109Y-14777887D01*
X14910370Y-14625106D01*
X14995457Y-14451642D01*
X15016597Y-14370000D01*
X14033686Y-14370000D01*
X14059493Y-14329844D01*
X14100000Y-14191889D01*
X14100000Y-14048111D01*
X14059493Y-13910156D01*
X14033686Y-13870000D01*
X15020471Y-13870000D01*
X15020471Y-13869999D01*
X14957317Y-13699477D01*
X14957314Y-13699471D01*
X14855109Y-13535499D01*
X14855104Y-13535493D01*
X14721996Y-13395464D01*
X14563421Y-13285091D01*
X14563413Y-13285087D01*
X14385862Y-13208893D01*
X14196604Y-13170000D01*
X13850001Y-13170000D01*
X13850000Y-13170001D01*
X13850000Y-13684498D01*
X13742315Y-13635320D01*
X13635763Y-13620000D01*
X13564237Y-13620000D01*
X13457685Y-13635320D01*
X13350000Y-13684498D01*
X13350000Y-13170001D01*
X13349999Y-13170000D01*
X13051823Y-13170000D01*
X12907781Y-13184647D01*
X12907779Y-13184648D01*
X12723428Y-13242488D01*
X12723427Y-13242489D01*
X12554498Y-13336252D01*
X12407897Y-13462105D01*
X12407890Y-13462112D01*
X12289629Y-13614893D01*
X12204542Y-13788357D01*
X12183403Y-13869999D01*
X12183403Y-13870000D01*
X13166314Y-13870000D01*
X13140507Y-13910156D01*
X13100000Y-14048111D01*
X13100000Y-14191889D01*
X13140507Y-14329844D01*
X13166314Y-14370000D01*
X12179528Y-14370000D01*
X500000Y-14370000D01*
X500000Y-12899000D01*
X518907Y-12840809D01*
X568407Y-12804845D01*
X599000Y-12800000D01*
X54599999Y-12800000D01*
X54600000Y-12800000D01*
X54600000Y-7399000D01*
X54618907Y-7340809D01*
X54668407Y-7304845D01*
X54699000Y-7300000D01*
X55522899Y-7300000D01*
X55581090Y-7318907D01*
G37*
%TD.AperFunction*%
%TD*%
M02*
