%TF.GenerationSoftware,KiCad,Pcbnew,7.0.10*%
%TF.CreationDate,2024-02-23T16:55:47+01:00*%
%TF.ProjectId,OBSPro,4f425350-726f-42e6-9b69-6361645f7063,rev?*%
%TF.SameCoordinates,PX7270e00PY2255100*%
%TF.FileFunction,Other,Comment*%
%FSLAX46Y46*%
G04 Gerber Fmt 4.6, Leading zero omitted, Abs format (unit mm)*
G04 Created by KiCad (PCBNEW 7.0.10) date 2024-02-23 16:55:47*
%MOMM*%
%LPD*%
G01*
G04 APERTURE LIST*
%ADD10C,0.150000*%
G04 APERTURE END LIST*
D10*
X-3015896Y-46381904D02*
X-3015896Y-45905714D01*
X-2730181Y-46477142D02*
X-3730181Y-46143809D01*
X-3730181Y-46143809D02*
X-2730181Y-45810476D01*
X-3396848Y-45477142D02*
X-2730181Y-45477142D01*
X-3301610Y-45477142D02*
X-3349229Y-45429523D01*
X-3349229Y-45429523D02*
X-3396848Y-45334285D01*
X-3396848Y-45334285D02*
X-3396848Y-45191428D01*
X-3396848Y-45191428D02*
X-3349229Y-45096190D01*
X-3349229Y-45096190D02*
X-3253991Y-45048571D01*
X-3253991Y-45048571D02*
X-2730181Y-45048571D01*
X-3396848Y-44715237D02*
X-3396848Y-44334285D01*
X-3730181Y-44572380D02*
X-2873039Y-44572380D01*
X-2873039Y-44572380D02*
X-2777800Y-44524761D01*
X-2777800Y-44524761D02*
X-2730181Y-44429523D01*
X-2730181Y-44429523D02*
X-2730181Y-44334285D01*
X-2777800Y-43619999D02*
X-2730181Y-43715237D01*
X-2730181Y-43715237D02*
X-2730181Y-43905713D01*
X-2730181Y-43905713D02*
X-2777800Y-44000951D01*
X-2777800Y-44000951D02*
X-2873039Y-44048570D01*
X-2873039Y-44048570D02*
X-3253991Y-44048570D01*
X-3253991Y-44048570D02*
X-3349229Y-44000951D01*
X-3349229Y-44000951D02*
X-3396848Y-43905713D01*
X-3396848Y-43905713D02*
X-3396848Y-43715237D01*
X-3396848Y-43715237D02*
X-3349229Y-43619999D01*
X-3349229Y-43619999D02*
X-3253991Y-43572380D01*
X-3253991Y-43572380D02*
X-3158753Y-43572380D01*
X-3158753Y-43572380D02*
X-3063515Y-44048570D01*
X-3396848Y-43143808D02*
X-2730181Y-43143808D01*
X-3301610Y-43143808D02*
X-3349229Y-43096189D01*
X-3349229Y-43096189D02*
X-3396848Y-43000951D01*
X-3396848Y-43000951D02*
X-3396848Y-42858094D01*
X-3396848Y-42858094D02*
X-3349229Y-42762856D01*
X-3349229Y-42762856D02*
X-3253991Y-42715237D01*
X-3253991Y-42715237D02*
X-2730181Y-42715237D01*
X-3396848Y-42239046D02*
X-2730181Y-42239046D01*
X-3301610Y-42239046D02*
X-3349229Y-42191427D01*
X-3349229Y-42191427D02*
X-3396848Y-42096189D01*
X-3396848Y-42096189D02*
X-3396848Y-41953332D01*
X-3396848Y-41953332D02*
X-3349229Y-41858094D01*
X-3349229Y-41858094D02*
X-3253991Y-41810475D01*
X-3253991Y-41810475D02*
X-2730181Y-41810475D01*
X-2730181Y-40905713D02*
X-3253991Y-40905713D01*
X-3253991Y-40905713D02*
X-3349229Y-40953332D01*
X-3349229Y-40953332D02*
X-3396848Y-41048570D01*
X-3396848Y-41048570D02*
X-3396848Y-41239046D01*
X-3396848Y-41239046D02*
X-3349229Y-41334284D01*
X-2777800Y-40905713D02*
X-2730181Y-41000951D01*
X-2730181Y-41000951D02*
X-2730181Y-41239046D01*
X-2730181Y-41239046D02*
X-2777800Y-41334284D01*
X-2777800Y-41334284D02*
X-2873039Y-41381903D01*
X-2873039Y-41381903D02*
X-2968277Y-41381903D01*
X-2968277Y-41381903D02*
X-3063515Y-41334284D01*
X-3063515Y-41334284D02*
X-3111134Y-41239046D01*
X-3111134Y-41239046D02*
X-3111134Y-41000951D01*
X-3111134Y-41000951D02*
X-3158753Y-40905713D01*
X-11747562Y-55712857D02*
X-13747562Y-55712857D01*
X-11747562Y-54570000D02*
X-12890420Y-55427143D01*
X-13747562Y-54570000D02*
X-12604705Y-55712857D01*
X-12795181Y-53712857D02*
X-12795181Y-53046190D01*
X-11747562Y-52760476D02*
X-11747562Y-53712857D01*
X-11747562Y-53712857D02*
X-13747562Y-53712857D01*
X-13747562Y-53712857D02*
X-13747562Y-52760476D01*
X-12795181Y-51903333D02*
X-12795181Y-51236666D01*
X-11747562Y-50950952D02*
X-11747562Y-51903333D01*
X-11747562Y-51903333D02*
X-13747562Y-51903333D01*
X-13747562Y-51903333D02*
X-13747562Y-50950952D01*
X-11747562Y-50093809D02*
X-13747562Y-50093809D01*
X-13747562Y-50093809D02*
X-13747562Y-49331904D01*
X-13747562Y-49331904D02*
X-13652324Y-49141428D01*
X-13652324Y-49141428D02*
X-13557086Y-49046190D01*
X-13557086Y-49046190D02*
X-13366610Y-48950952D01*
X-13366610Y-48950952D02*
X-13080896Y-48950952D01*
X-13080896Y-48950952D02*
X-12890420Y-49046190D01*
X-12890420Y-49046190D02*
X-12795181Y-49141428D01*
X-12795181Y-49141428D02*
X-12699943Y-49331904D01*
X-12699943Y-49331904D02*
X-12699943Y-50093809D01*
X-12509467Y-48093809D02*
X-12509467Y-46570000D01*
X-13747562Y-45236667D02*
X-13747562Y-44855714D01*
X-13747562Y-44855714D02*
X-13652324Y-44665238D01*
X-13652324Y-44665238D02*
X-13461848Y-44474762D01*
X-13461848Y-44474762D02*
X-13080896Y-44379524D01*
X-13080896Y-44379524D02*
X-12414229Y-44379524D01*
X-12414229Y-44379524D02*
X-12033277Y-44474762D01*
X-12033277Y-44474762D02*
X-11842800Y-44665238D01*
X-11842800Y-44665238D02*
X-11747562Y-44855714D01*
X-11747562Y-44855714D02*
X-11747562Y-45236667D01*
X-11747562Y-45236667D02*
X-11842800Y-45427143D01*
X-11842800Y-45427143D02*
X-12033277Y-45617619D01*
X-12033277Y-45617619D02*
X-12414229Y-45712857D01*
X-12414229Y-45712857D02*
X-13080896Y-45712857D01*
X-13080896Y-45712857D02*
X-13461848Y-45617619D01*
X-13461848Y-45617619D02*
X-13652324Y-45427143D01*
X-13652324Y-45427143D02*
X-13747562Y-45236667D01*
X-13747562Y-43522381D02*
X-12128515Y-43522381D01*
X-12128515Y-43522381D02*
X-11938039Y-43427143D01*
X-11938039Y-43427143D02*
X-11842800Y-43331905D01*
X-11842800Y-43331905D02*
X-11747562Y-43141429D01*
X-11747562Y-43141429D02*
X-11747562Y-42760476D01*
X-11747562Y-42760476D02*
X-11842800Y-42570000D01*
X-11842800Y-42570000D02*
X-11938039Y-42474762D01*
X-11938039Y-42474762D02*
X-12128515Y-42379524D01*
X-12128515Y-42379524D02*
X-13747562Y-42379524D01*
X-13747562Y-41712857D02*
X-13747562Y-40570000D01*
X-11747562Y-41141429D02*
X-13747562Y-41141429D01*
X-13747562Y-38569999D02*
X-13747562Y-37236666D01*
X-13747562Y-37236666D02*
X-11747562Y-38569999D01*
X-11747562Y-38569999D02*
X-11747562Y-37236666D01*
X-13747562Y-36093809D02*
X-13747562Y-35712856D01*
X-13747562Y-35712856D02*
X-13652324Y-35522380D01*
X-13652324Y-35522380D02*
X-13461848Y-35331904D01*
X-13461848Y-35331904D02*
X-13080896Y-35236666D01*
X-13080896Y-35236666D02*
X-12414229Y-35236666D01*
X-12414229Y-35236666D02*
X-12033277Y-35331904D01*
X-12033277Y-35331904D02*
X-11842800Y-35522380D01*
X-11842800Y-35522380D02*
X-11747562Y-35712856D01*
X-11747562Y-35712856D02*
X-11747562Y-36093809D01*
X-11747562Y-36093809D02*
X-11842800Y-36284285D01*
X-11842800Y-36284285D02*
X-12033277Y-36474761D01*
X-12033277Y-36474761D02*
X-12414229Y-36569999D01*
X-12414229Y-36569999D02*
X-13080896Y-36569999D01*
X-13080896Y-36569999D02*
X-13461848Y-36474761D01*
X-13461848Y-36474761D02*
X-13652324Y-36284285D01*
X-13652324Y-36284285D02*
X-13747562Y-36093809D01*
X-11747562Y-34379523D02*
X-13747562Y-34379523D01*
X-13747562Y-34379523D02*
X-11747562Y-33236666D01*
X-11747562Y-33236666D02*
X-13747562Y-33236666D01*
X-12795181Y-32284285D02*
X-12795181Y-31617618D01*
X-11747562Y-31331904D02*
X-11747562Y-32284285D01*
X-11747562Y-32284285D02*
X-13747562Y-32284285D01*
X-13747562Y-32284285D02*
X-13747562Y-31331904D01*
%TO.C,H3*%
X52200000Y-80000000D02*
G75*
G03*
X45800000Y-80000000I-3200000J0D01*
G01*
X45800000Y-80000000D02*
G75*
G03*
X52200000Y-80000000I3200000J0D01*
G01*
%TO.C,H4*%
X52200000Y-17000000D02*
G75*
G03*
X45800000Y-17000000I-3200000J0D01*
G01*
X45800000Y-17000000D02*
G75*
G03*
X52200000Y-17000000I3200000J0D01*
G01*
%TO.C,H2*%
X7200000Y-4000000D02*
G75*
G03*
X800000Y-4000000I-3200000J0D01*
G01*
X800000Y-4000000D02*
G75*
G03*
X7200000Y-4000000I3200000J0D01*
G01*
%TO.C,H1*%
X7200000Y-80000000D02*
G75*
G03*
X800000Y-80000000I-3200000J0D01*
G01*
X800000Y-80000000D02*
G75*
G03*
X7200000Y-80000000I3200000J0D01*
G01*
%TD*%
M02*
