%TF.GenerationSoftware,KiCad,Pcbnew,7.0.10*%
%TF.CreationDate,2024-02-25T13:23:12+01:00*%
%TF.ProjectId,OBSPro,4f425350-726f-42e6-9b69-6361645f7063,rev?*%
%TF.SameCoordinates,PX7270e00PY2255100*%
%TF.FileFunction,Copper,L4,Bot*%
%TF.FilePolarity,Positive*%
%FSLAX46Y46*%
G04 Gerber Fmt 4.6, Leading zero omitted, Abs format (unit mm)*
G04 Created by KiCad (PCBNEW 7.0.10) date 2024-02-25 13:23:12*
%MOMM*%
%LPD*%
G01*
G04 APERTURE LIST*
G04 Aperture macros list*
%AMRoundRect*
0 Rectangle with rounded corners*
0 $1 Rounding radius*
0 $2 $3 $4 $5 $6 $7 $8 $9 X,Y pos of 4 corners*
0 Add a 4 corners polygon primitive as box body*
4,1,4,$2,$3,$4,$5,$6,$7,$8,$9,$2,$3,0*
0 Add four circle primitives for the rounded corners*
1,1,$1+$1,$2,$3*
1,1,$1+$1,$4,$5*
1,1,$1+$1,$6,$7*
1,1,$1+$1,$8,$9*
0 Add four rect primitives between the rounded corners*
20,1,$1+$1,$2,$3,$4,$5,0*
20,1,$1+$1,$4,$5,$6,$7,0*
20,1,$1+$1,$6,$7,$8,$9,0*
20,1,$1+$1,$8,$9,$2,$3,0*%
G04 Aperture macros list end*
%ADD10C,0.300000*%
%TA.AperFunction,NonConductor*%
%ADD11C,0.300000*%
%TD*%
%TA.AperFunction,ComponentPad*%
%ADD12RoundRect,0.250000X-0.625000X0.350000X-0.625000X-0.350000X0.625000X-0.350000X0.625000X0.350000X0*%
%TD*%
%TA.AperFunction,ComponentPad*%
%ADD13O,1.750000X1.200000*%
%TD*%
%TA.AperFunction,ComponentPad*%
%ADD14O,0.900000X2.000000*%
%TD*%
%TA.AperFunction,ComponentPad*%
%ADD15O,0.900000X1.700000*%
%TD*%
%TA.AperFunction,ComponentPad*%
%ADD16O,2.500000X1.500000*%
%TD*%
%TA.AperFunction,HeatsinkPad*%
%ADD17C,0.475000*%
%TD*%
%TA.AperFunction,ComponentPad*%
%ADD18C,1.800000*%
%TD*%
%TA.AperFunction,ViaPad*%
%ADD19C,0.800000*%
%TD*%
%TA.AperFunction,ViaPad*%
%ADD20C,0.700000*%
%TD*%
%TA.AperFunction,Conductor*%
%ADD21C,0.400000*%
%TD*%
%TA.AperFunction,Conductor*%
%ADD22C,0.200000*%
%TD*%
G04 APERTURE END LIST*
D10*
D11*
X22485715Y-81878328D02*
X22485715Y-82878328D01*
X22128572Y-81306900D02*
X21771429Y-82378328D01*
X21771429Y-82378328D02*
X22700000Y-82378328D01*
D12*
%TO.P,J2,1,Pin_1*%
%TO.N,Net-(J2-Pin_1)*%
X6850000Y-62900000D03*
D13*
%TO.P,J2,2,Pin_2*%
%TO.N,GND*%
X6850000Y-64900000D03*
%TD*%
D14*
%TO.P,J1,S1,SHIELD*%
%TO.N,GND*%
X29075000Y-78410000D03*
D15*
X29075000Y-82590000D03*
D14*
X37725000Y-78410000D03*
D15*
X37725000Y-82590000D03*
%TD*%
D16*
%TO.P,J3,1,Pin_1*%
%TO.N,Net-(J3-Pin_1)*%
X13600000Y-31900000D03*
%TO.P,J3,2,Pin_2*%
%TO.N,Net-(J3-Pin_2)*%
X13600000Y-29360000D03*
%TO.P,J3,3,Pin_3*%
%TO.N,Net-(J3-Pin_3)*%
X13600000Y-26820000D03*
%TO.P,J3,4,Pin_4*%
%TO.N,Net-(J3-Pin_4)*%
X13600000Y-24280000D03*
%TO.P,J3,5,Pin_5*%
%TO.N,Net-(J3-Pin_5)*%
X13600000Y-21740000D03*
%TO.P,J3,6,Pin_6*%
%TO.N,Net-(J3-Pin_6)*%
X13600000Y-19200000D03*
%TO.P,J3,7,Pin_7*%
%TO.N,/Controller/BUTTON*%
X13600000Y-16660000D03*
%TO.P,J3,8,Pin_8*%
%TO.N,GND*%
X13600000Y-14120000D03*
%TD*%
D17*
%TO.P,U6,39,GND*%
%TO.N,GND*%
X8142500Y-45825000D03*
X9667500Y-45825000D03*
X7380000Y-45062500D03*
X8905000Y-45062500D03*
X10430000Y-45062500D03*
X8142500Y-44300000D03*
X9667500Y-44300000D03*
X7380000Y-43537500D03*
X8905000Y-43537500D03*
X10430000Y-43537500D03*
X8142500Y-42775000D03*
X9667500Y-42775000D03*
%TD*%
D18*
%TO.P,LS1,1,1*%
%TO.N,/Sensors/Ultrasonic1/INP*%
X56000000Y-75500000D03*
%TO.P,LS1,2,2*%
%TO.N,GND*%
X66000000Y-75500000D03*
%TD*%
%TO.P,LS2,1,1*%
%TO.N,/Sensors/Ultrasonic2/INP*%
X65999999Y-8500000D03*
%TO.P,LS2,2,2*%
%TO.N,GND*%
X55999999Y-8500000D03*
%TD*%
D19*
%TO.N,GND*%
X33000000Y-59200000D03*
X64000000Y-33800000D03*
X11000000Y-55900000D03*
X15000000Y-57300000D03*
X29100000Y-17600000D03*
D20*
X45900000Y-57700000D03*
D19*
X14200000Y-57800000D03*
X23700000Y-59000000D03*
X58200000Y-67600000D03*
X31800000Y-55600000D03*
X46100000Y-52300000D03*
X37100000Y-76912500D03*
X58000000Y-39300000D03*
X64000000Y-32400000D03*
X64000000Y-31700000D03*
X15000000Y-58100000D03*
X43100000Y-55700000D03*
X13000000Y-79700000D03*
X42000000Y-35200000D03*
D20*
X47750000Y-57450000D03*
D19*
X18800000Y-28500000D03*
X24700000Y-64500000D03*
X63800000Y-16400000D03*
X11750000Y-71150000D03*
X23900000Y-64500000D03*
X30200000Y-62800000D03*
X29100000Y-14500000D03*
X31000000Y-62000000D03*
X31300000Y-17600000D03*
X40900000Y-67100000D03*
X32600000Y-55600000D03*
X46100000Y-50200000D03*
X58000000Y-53000000D03*
X41900000Y-81300000D03*
X48600000Y-53300000D03*
X58900000Y-30100000D03*
X46400000Y-53100000D03*
X22300000Y-64500000D03*
X20500000Y-59000000D03*
X29700000Y-76612500D03*
X43100000Y-56500000D03*
X58000000Y-50900000D03*
X58000000Y-51600000D03*
X21300000Y-59000000D03*
X56700000Y-30100000D03*
X61300000Y-23700000D03*
X41900000Y-79700000D03*
X31000000Y-60400000D03*
X31300000Y-14500000D03*
X64000000Y-44700000D03*
X33000000Y-26000000D03*
X44700000Y-54900000D03*
X1800000Y-51000000D03*
X51300000Y-57300000D03*
D20*
X44900000Y-56700000D03*
D19*
X68500000Y-18800000D03*
X31000000Y-62800000D03*
X12800000Y-63800000D03*
X23100000Y-64500000D03*
X20900000Y-67500000D03*
X65500000Y-44700000D03*
X66700000Y-16200000D03*
X46900000Y-42400000D03*
X31600000Y-59800000D03*
X34300000Y-67600000D03*
X56500000Y-39300000D03*
X12600000Y-57800000D03*
X62500000Y-44700000D03*
X25000000Y-57300000D03*
X22100000Y-59000000D03*
D20*
X45400000Y-57200000D03*
D19*
X59500000Y-39300000D03*
X46400000Y-60800000D03*
X36100000Y-39200000D03*
X13400000Y-57800000D03*
X31000000Y-61200000D03*
D20*
X45900000Y-56700000D03*
D19*
X16200000Y-67700000D03*
X64000000Y-33100000D03*
X19400000Y-57300000D03*
X38700000Y-22600000D03*
X18600000Y-57300000D03*
X53500000Y-65200000D03*
X32200000Y-59200000D03*
X46400000Y-65300000D03*
X46400000Y-62300000D03*
X4300000Y-56900000D03*
X38240110Y-38299817D03*
X23500000Y-50600000D03*
X39900000Y-76100000D03*
X51300000Y-63900000D03*
X51300000Y-55800000D03*
X26400000Y-71200000D03*
X43100000Y-54900000D03*
X12800000Y-65400000D03*
X25500000Y-64500000D03*
X55700000Y-30100000D03*
X17900000Y-49300000D03*
X58000000Y-52300000D03*
X1900000Y-36200000D03*
X45400000Y-54900000D03*
X22900000Y-59000000D03*
X18600000Y-58900000D03*
X26100000Y-79700000D03*
X22300000Y-27075500D03*
X66300000Y-53900000D03*
X46100000Y-48800000D03*
X27000000Y-28900000D03*
X43900000Y-55700000D03*
X23900000Y-54900000D03*
X65300000Y-53900000D03*
X34300000Y-72200000D03*
X55300000Y-67800000D03*
D20*
X44900000Y-57700000D03*
D19*
X29300000Y-40100000D03*
X18600000Y-58100000D03*
X37000000Y-37800000D03*
X46100000Y-50900000D03*
X34600000Y-59200000D03*
X35844622Y-24055378D03*
X46200000Y-37800000D03*
X60700000Y-60300000D03*
X51300000Y-60300000D03*
X64000000Y-31000000D03*
X41100000Y-76700000D03*
X58000000Y-50200000D03*
X43900000Y-54900000D03*
X63100000Y-53900000D03*
X32700000Y-27500000D03*
X15000000Y-58900000D03*
X12800000Y-64600000D03*
X38500000Y-76300000D03*
X19700000Y-59000000D03*
X31000000Y-55600000D03*
X46100000Y-49500000D03*
X46400000Y-63800000D03*
X38900000Y-67600000D03*
X29800000Y-53200000D03*
X34600000Y-55600000D03*
%TO.N,+BATT*%
X2000000Y-42800000D03*
X7400000Y-60700000D03*
X21600000Y-41000000D03*
X17300000Y-41000000D03*
X900000Y-28500000D03*
%TO.N,+USB*%
X20400000Y-54600000D03*
X19600000Y-54600000D03*
X20400000Y-55400000D03*
X19600000Y-55400000D03*
X31000000Y-76612500D03*
X35400000Y-79312500D03*
X31400000Y-79212500D03*
X39200000Y-72800000D03*
X36000000Y-76612500D03*
%TO.N,+3V3*%
X17700000Y-30900000D03*
X43200000Y-64300000D03*
X18200000Y-32000000D03*
X34000000Y-53200000D03*
X43200000Y-62200000D03*
X33200000Y-53200000D03*
X43200000Y-61500000D03*
X32400000Y-51600000D03*
X18300000Y-70400000D03*
X25100000Y-50600000D03*
X41900000Y-72700000D03*
X43200000Y-63600000D03*
X2800000Y-51000000D03*
X34300000Y-60400000D03*
X34800000Y-53200000D03*
X43200000Y-60800000D03*
X19000000Y-32000000D03*
X43200000Y-65000000D03*
X43200000Y-62900000D03*
X6700000Y-54200000D03*
X32400000Y-52400000D03*
X32400000Y-53200000D03*
%TO.N,+9V*%
X54600000Y-60700000D03*
X53900000Y-60700000D03*
X43100000Y-49400000D03*
X66200000Y-22800000D03*
X43100000Y-52200000D03*
X66200000Y-22100000D03*
X43100000Y-53600000D03*
X43100000Y-50100000D03*
X50100000Y-51900000D03*
X61100000Y-53600000D03*
X45100000Y-51900000D03*
X43100000Y-50800000D03*
X55800000Y-61900000D03*
X60100000Y-30400000D03*
X61900000Y-53600000D03*
X67400000Y-23300000D03*
X66700000Y-23300000D03*
X43100000Y-48000000D03*
X55800000Y-61200000D03*
X55300000Y-60700000D03*
X43100000Y-48700000D03*
X60900000Y-30400000D03*
X43100000Y-52900000D03*
X43100000Y-51500000D03*
X68100000Y-23300000D03*
%TO.N,Net-(T1-PM)*%
X63700000Y-59400000D03*
X57900000Y-56500000D03*
X65700000Y-60100000D03*
X55300000Y-57600000D03*
X57900000Y-55800000D03*
X55300000Y-56800000D03*
X65700000Y-58000000D03*
X65700000Y-59400000D03*
X54500000Y-57600000D03*
X65700000Y-58700000D03*
X63700000Y-60100000D03*
X63700000Y-58700000D03*
X63700000Y-58000000D03*
%TO.N,Net-(T2-PM)*%
X56300000Y-23900000D03*
X56300000Y-26000000D03*
X58300000Y-26000000D03*
X58300000Y-25300000D03*
X66700000Y-27200000D03*
X56300000Y-25300000D03*
X64100000Y-27500000D03*
X64100000Y-28200000D03*
X67500000Y-26400000D03*
X56300000Y-24600000D03*
X58300000Y-24600000D03*
X66700000Y-26400000D03*
X58300000Y-23900000D03*
%TO.N,USB_DP*%
X32900000Y-76512500D03*
X34400000Y-76512500D03*
%TO.N,/Controller/BUTTON*%
X22200000Y-30700000D03*
X16800000Y-16600000D03*
%TO.N,/Controller/SCK*%
X17300000Y-67700000D03*
X7800000Y-39500000D03*
%TO.N,/Controller/MOSI*%
X4700000Y-37900000D03*
X19400000Y-70400000D03*
%TO.N,/Controller/LCD_A0*%
X15500000Y-50900000D03*
X14900000Y-25500000D03*
%TO.N,US1_SCK*%
X28500000Y-47700000D03*
X17400000Y-47600000D03*
%TO.N,/Controller/~USB_DTR*%
X4600000Y-74375000D03*
X8600000Y-71675000D03*
X29550000Y-72050000D03*
%TO.N,/Controller/GPIO0*%
X3200000Y-41000000D03*
X4700000Y-60500000D03*
%TO.N,US1_MOSI*%
X16300000Y-46900000D03*
X29100000Y-46900000D03*
%TO.N,US1_MISO*%
X30000000Y-46200000D03*
X17100000Y-46200000D03*
%TO.N,Net-(U2-VFB)*%
X26600000Y-63700000D03*
X33600000Y-62200000D03*
%TO.N,/Controller/USB_RX*%
X5375000Y-36200000D03*
X29700000Y-69100000D03*
%TO.N,/Controller/USB_TX*%
X3100000Y-38800000D03*
X29700000Y-70600000D03*
%TO.N,IP5306_BTN*%
X14100000Y-60400000D03*
X34100000Y-41600000D03*
%TO.N,/Controller/LCD_RES*%
X16800000Y-36200000D03*
X20200000Y-30600000D03*
%TO.N,US2_SCK*%
X16800000Y-51000000D03*
X31200000Y-45300000D03*
%TO.N,/Power Supply/SW*%
X28700000Y-60300000D03*
X27900000Y-60300000D03*
X28000000Y-56000000D03*
X28700000Y-61100000D03*
X28100000Y-54700000D03*
X28500000Y-54000000D03*
X27900000Y-61100000D03*
X28500000Y-55400000D03*
%TO.N,/Controller/LCD_CS*%
X18000000Y-50800000D03*
X17400000Y-20300000D03*
%TO.N,/Controller/SD_CS*%
X20530378Y-70419622D03*
X5570572Y-40292143D03*
%TO.N,/Controller/MISO*%
X7900000Y-38300000D03*
X15100000Y-67700000D03*
%TO.N,US2_MOSI*%
X21000000Y-39200000D03*
X32500000Y-45000000D03*
%TO.N,US2_MISO*%
X8000000Y-36600000D03*
X52600000Y-39700000D03*
X13500000Y-36600000D03*
X15600000Y-36600000D03*
%TO.N,PWR_EN*%
X45990734Y-59709266D03*
X46700000Y-40400000D03*
X47800000Y-37700000D03*
X34800000Y-24200000D03*
X41500000Y-60500000D03*
X38900000Y-41200000D03*
%TD*%
D21*
%TO.N,+BATT*%
X6700000Y-61400000D02*
X1400000Y-61400000D01*
X1400000Y-61400000D02*
X900000Y-60900000D01*
X900000Y-28500000D02*
X900000Y-42800000D01*
D22*
X21600000Y-41000000D02*
X17300000Y-41000000D01*
D21*
X900000Y-60900000D02*
X900000Y-42800000D01*
X7400000Y-60700000D02*
X6700000Y-61400000D01*
D22*
X2000000Y-42800000D02*
X900000Y-42800000D01*
%TO.N,+9V*%
X50100000Y-51900000D02*
X49800000Y-51600000D01*
X49800000Y-51600000D02*
X45400000Y-51600000D01*
X45400000Y-51600000D02*
X45100000Y-51900000D01*
%TO.N,USB_DP*%
X32900000Y-76512500D02*
X34400000Y-76512500D01*
%TO.N,/Controller/BUTTON*%
X19300000Y-27200000D02*
X19300000Y-19100000D01*
X19300000Y-19100000D02*
X16800000Y-16600000D01*
X22200000Y-30700000D02*
X22200000Y-30100000D01*
X22200000Y-30100000D02*
X19300000Y-27200000D01*
%TO.N,/Controller/SCK*%
X17300000Y-66000000D02*
X17300000Y-67700000D01*
X7800000Y-39500000D02*
X7800000Y-40000000D01*
X6000000Y-41800000D02*
X6000000Y-54700000D01*
X6000000Y-54700000D02*
X17300000Y-66000000D01*
X7800000Y-40000000D02*
X6000000Y-41800000D01*
%TO.N,/Controller/MOSI*%
X10000000Y-64165686D02*
X14934314Y-69100000D01*
X4700000Y-37900000D02*
X4800000Y-38000000D01*
X14934314Y-69100000D02*
X18500000Y-69100000D01*
X10000000Y-60397057D02*
X10000000Y-64165686D01*
X4800000Y-55197057D02*
X10000000Y-60397057D01*
X18500000Y-69100000D02*
X19400000Y-70000000D01*
X4800000Y-38000000D02*
X4800000Y-55197057D01*
X19400000Y-70000000D02*
X19400000Y-70400000D01*
%TO.N,/Controller/LCD_A0*%
X12200000Y-25500000D02*
X14900000Y-25500000D01*
X14400000Y-35300000D02*
X11200000Y-32100000D01*
X14400000Y-45465685D02*
X14400000Y-35300000D01*
X15500000Y-50900000D02*
X14800000Y-50200000D01*
X14800000Y-50200000D02*
X14800000Y-45865686D01*
X11200000Y-32100000D02*
X11200000Y-26500000D01*
X14800000Y-45865686D02*
X14400000Y-45465685D01*
X11200000Y-26500000D02*
X12200000Y-25500000D01*
%TO.N,US1_SCK*%
X28500000Y-47700000D02*
X17500000Y-47700000D01*
X17500000Y-47700000D02*
X17400000Y-47600000D01*
%TO.N,/Controller/~USB_DTR*%
X8975000Y-72050000D02*
X8600000Y-71675000D01*
X4600000Y-74375000D02*
X5900000Y-74375000D01*
X5900000Y-74375000D02*
X8600000Y-71675000D01*
X29550000Y-72050000D02*
X8975000Y-72050000D01*
%TO.N,/Controller/GPIO0*%
X3600000Y-41400000D02*
X3200000Y-41000000D01*
X4700000Y-60500000D02*
X3600000Y-59400000D01*
X3600000Y-59400000D02*
X3600000Y-41400000D01*
%TO.N,US1_MOSI*%
X29100000Y-46900000D02*
X16300000Y-46900000D01*
%TO.N,US1_MISO*%
X30000000Y-46200000D02*
X17100000Y-46200000D01*
%TO.N,Net-(U2-VFB)*%
X26600000Y-63700000D02*
X32100000Y-63700000D01*
X32100000Y-63700000D02*
X33600000Y-62200000D01*
%TO.N,/Controller/USB_RX*%
X3900000Y-39300000D02*
X4400000Y-39800000D01*
X22480378Y-71119622D02*
X24500000Y-69100000D01*
X3900000Y-37700000D02*
X3900000Y-39300000D01*
X5375000Y-36200000D02*
X5375000Y-36225000D01*
X9600000Y-60562743D02*
X9600000Y-64331372D01*
X24500000Y-69100000D02*
X29700000Y-69100000D01*
X5375000Y-36225000D02*
X3900000Y-37700000D01*
X16388250Y-71119622D02*
X22480378Y-71119622D01*
X4400000Y-39800000D02*
X4400000Y-55362743D01*
X4400000Y-55362743D02*
X9600000Y-60562743D01*
X9600000Y-64331372D02*
X16388250Y-71119622D01*
%TO.N,/Controller/USB_TX*%
X3100000Y-38800000D02*
X3100000Y-39200000D01*
X3100000Y-39200000D02*
X4000000Y-40100000D01*
X29500000Y-70400000D02*
X29700000Y-70600000D01*
X16302942Y-71600000D02*
X22565686Y-71600000D01*
X22565686Y-71600000D02*
X23765686Y-70400000D01*
X9200000Y-64497058D02*
X16302942Y-71600000D01*
X4000000Y-55528428D02*
X9200000Y-60728429D01*
X4000000Y-40100000D02*
X4000000Y-55528428D01*
X23765686Y-70400000D02*
X29500000Y-70400000D01*
X9200000Y-60728429D02*
X9200000Y-64497058D01*
%TO.N,IP5306_BTN*%
X26100000Y-58400000D02*
X24100000Y-60400000D01*
X24100000Y-60400000D02*
X23400000Y-60400000D01*
X26100000Y-54200000D02*
X34100000Y-46200000D01*
X26100000Y-55989950D02*
X26100000Y-58400000D01*
X34100000Y-46200000D02*
X34100000Y-41600000D01*
X14100000Y-60400000D02*
X23400000Y-60400000D01*
X26100000Y-55989950D02*
X26100000Y-54200000D01*
%TO.N,/Controller/LCD_RES*%
X16800000Y-36200000D02*
X16700000Y-36100000D01*
X20200000Y-30600000D02*
X20200000Y-32800000D01*
X20200000Y-32800000D02*
X16800000Y-36200000D01*
%TO.N,US2_SCK*%
X18000000Y-52200000D02*
X16800000Y-51000000D01*
X31200000Y-45300000D02*
X31200000Y-47600000D01*
X26600000Y-52200000D02*
X18000000Y-52200000D01*
X31200000Y-47600000D02*
X26600000Y-52200000D01*
%TO.N,/Controller/LCD_CS*%
X14800000Y-45300000D02*
X15200000Y-45700000D01*
X14800000Y-32700000D02*
X14800000Y-45300000D01*
X17400000Y-20300000D02*
X16500000Y-20300000D01*
X15700000Y-31800000D02*
X14800000Y-32700000D01*
X15200000Y-45700000D02*
X15200000Y-49575000D01*
X15925000Y-50300000D02*
X17500000Y-50300000D01*
X15700000Y-21100000D02*
X15700000Y-31800000D01*
X17500000Y-50300000D02*
X18000000Y-50800000D01*
X15200000Y-49575000D02*
X15925000Y-50300000D01*
X16500000Y-20300000D02*
X15700000Y-21100000D01*
%TO.N,/Controller/SD_CS*%
X14900000Y-68500000D02*
X10400000Y-64000000D01*
X10400000Y-60231372D02*
X5200000Y-55031372D01*
X5200000Y-40662715D02*
X5570572Y-40292143D01*
X20530378Y-70030378D02*
X19000000Y-68500000D01*
X10400000Y-64000000D02*
X10400000Y-60231372D01*
X20530378Y-70419622D02*
X20530378Y-70030378D01*
X19000000Y-68500000D02*
X14900000Y-68500000D01*
X5200000Y-55031372D02*
X5200000Y-40662715D01*
%TO.N,/Controller/MISO*%
X5600000Y-41500000D02*
X5600000Y-54865686D01*
X15100000Y-64365686D02*
X15100000Y-67700000D01*
X7900000Y-38300000D02*
X7700000Y-38300000D01*
X6700000Y-39300000D02*
X6700000Y-40400000D01*
X7700000Y-38300000D02*
X6700000Y-39300000D01*
X5600000Y-54865686D02*
X15100000Y-64365686D01*
X6700000Y-40400000D02*
X5600000Y-41500000D01*
%TO.N,Net-(J3-Pin_6)*%
X13600000Y-19200000D02*
X14300000Y-19200000D01*
%TO.N,US2_MOSI*%
X31500000Y-44300000D02*
X27100000Y-44300000D01*
X27100000Y-44300000D02*
X22000000Y-39200000D01*
X32200000Y-45000000D02*
X31500000Y-44300000D01*
X32500000Y-45000000D02*
X32200000Y-45000000D01*
X22000000Y-39200000D02*
X21000000Y-39200000D01*
%TO.N,US2_MISO*%
X42800000Y-39700000D02*
X38700000Y-35600000D01*
X15600000Y-36600000D02*
X16000000Y-37000000D01*
X52600000Y-39700000D02*
X42800000Y-39700000D01*
X38700000Y-35600000D02*
X18800000Y-35600000D01*
X17400000Y-37000000D02*
X18800000Y-35600000D01*
X16000000Y-37000000D02*
X17400000Y-37000000D01*
X8000000Y-36600000D02*
X13500000Y-36600000D01*
%TO.N,PWR_EN*%
X45990734Y-59709266D02*
X42290734Y-59709266D01*
X41700000Y-41200000D02*
X45900000Y-41200000D01*
X41400000Y-32700000D02*
X45000000Y-36300000D01*
X34800000Y-26100000D02*
X41400000Y-32700000D01*
X45000000Y-36300000D02*
X46600000Y-36300000D01*
X46600000Y-36300000D02*
X47800000Y-37500000D01*
X45900000Y-41200000D02*
X46700000Y-40400000D01*
X47800000Y-37500000D02*
X47800000Y-37700000D01*
X41700000Y-41200000D02*
X41700000Y-59118532D01*
X38900000Y-41200000D02*
X41700000Y-41200000D01*
X42290734Y-59709266D02*
X41500000Y-60500000D01*
X41700000Y-59118532D02*
X42290734Y-59709266D01*
X34800000Y-24200000D02*
X34800000Y-26100000D01*
%TD*%
%TA.AperFunction,Conductor*%
%TO.N,/Power Supply/SW*%
G36*
X29043039Y-53619685D02*
G01*
X29088794Y-53672489D01*
X29100000Y-53724000D01*
X29100000Y-61376000D01*
X29080315Y-61443039D01*
X29027511Y-61488794D01*
X28976000Y-61500000D01*
X27624000Y-61500000D01*
X27556961Y-61480315D01*
X27511206Y-61427511D01*
X27500000Y-61376000D01*
X27500000Y-53724000D01*
X27519685Y-53656961D01*
X27572489Y-53611206D01*
X27624000Y-53600000D01*
X28976000Y-53600000D01*
X29043039Y-53619685D01*
G37*
%TD.AperFunction*%
%TD*%
M02*
