M48
; DRILL file {KiCad 7.0.10} date Fr 23 Feb 2024 16:55:47 CET
; FORMAT={-:-/ absolute / inch / decimal}
; #@! TF.CreationDate,2024-02-23T16:55:47+01:00
; #@! TF.GenerationSoftware,Kicad,Pcbnew,7.0.10
; #@! TF.FileFunction,Plated,1,4,PTH
FMAT,2
INCH
; #@! TA.AperFunction,Plated,PTH,ComponentDrill
T1C0.0079
; #@! TA.AperFunction,Plated,PTH,ViaDrill
T2C0.0118
; #@! TA.AperFunction,Plated,PTH,ViaDrill
T3C0.0157
; #@! TA.AperFunction,Plated,PTH,ComponentDrill
T4C0.0236
; #@! TA.AperFunction,Plated,PTH,ComponentDrill
T5C0.0295
; #@! TA.AperFunction,Plated,PTH,ComponentDrill
T6C0.0394
; #@! TA.AperFunction,Plated,PTH,ComponentDrill
T7C0.0433
%
G90
G05
T1
X0.2906Y-1.7141
X0.2906Y-1.7741
X0.3206Y-1.6841
X0.3206Y-1.7441
X0.3206Y-1.8041
X0.3506Y-1.7141
X0.3506Y-1.7741
X0.3806Y-1.6841
X0.3806Y-1.7441
X0.3806Y-1.8041
X0.4106Y-1.7141
X0.4106Y-1.7741
T2
X1.7677Y-2.2323
X1.7677Y-2.2717
X1.7874Y-2.252
X1.8071Y-2.2323
X1.8071Y-2.2717
X1.8799Y-2.2618
T3
X0.0354Y-1.122
X0.0709Y-2.0079
X0.0748Y-1.4252
X0.0787Y-1.685
X0.1102Y-2.0079
X0.122Y-1.5276
X0.126Y-1.6142
X0.1693Y-2.2402
X0.1811Y-2.9281
X0.185Y-1.4921
X0.185Y-2.3819
X0.2116Y-1.4252
X0.2193Y-1.5863
X0.2638Y-2.1339
X0.2913Y-2.3898
X0.3071Y-1.5551
X0.311Y-1.5079
X0.315Y-1.4409
X0.3386Y-2.8219
X0.4331Y-2.2008
X0.4626Y-2.8012
X0.4961Y-2.2756
X0.5039Y-2.5118
X0.5039Y-2.5433
X0.5039Y-2.5748
X0.5118Y-3.1378
X0.5276Y-2.2756
X0.5315Y-1.4409
X0.5551Y-2.378
X0.5591Y-2.2756
X0.5866Y-1.0039
X0.5906Y-2.2559
X0.5906Y-2.2874
X0.5906Y-2.3189
X0.5945Y-2.6654
X0.6102Y-2.0039
X0.6142Y-1.4409
X0.6378Y-2.6654
X0.6417Y-1.8465
X0.6614Y-0.6535
X0.6614Y-1.4252
X0.6614Y-2.0079
X0.6732Y-1.8189
X0.6811Y-1.6142
X0.6811Y-2.6654
X0.685Y-0.7992
X0.685Y-1.874
X0.6969Y-1.2165
X0.7047Y-1.9409
X0.7087Y-2.0
X0.7165Y-1.2598
X0.7205Y-2.7717
X0.7323Y-2.2559
X0.7323Y-2.2874
X0.7323Y-2.3189
X0.7402Y-1.122
X0.748Y-1.2598
X0.7638Y-2.2559
X0.7638Y-2.7717
X0.7717Y-2.1496
X0.7717Y-2.1811
X0.7756Y-2.3228
X0.7953Y-1.2047
X0.8031Y-2.1496
X0.8031Y-2.1811
X0.8071Y-2.3228
X0.8083Y-2.7724
X0.8228Y-2.6575
X0.8268Y-1.5433
X0.8386Y-2.3228
X0.8504Y-1.6142
X0.8701Y-2.3228
X0.874Y-1.2087
X0.878Y-1.066
X0.878Y-2.5394
X0.9016Y-2.3228
X0.9094Y-2.5394
X0.9252Y-1.9921
X0.9331Y-2.3228
X0.9409Y-2.1614
X0.9409Y-2.5394
X0.9724Y-2.5394
X0.9843Y-2.2559
X0.9882Y-1.9921
X1.0039Y-2.5394
X1.0276Y-3.1378
X1.0394Y-2.8031
X1.0472Y-2.5079
X1.063Y-1.1378
X1.0984Y-2.374
X1.0984Y-2.4055
X1.1024Y-2.2047
X1.1063Y-2.1535
X1.122Y-1.878
X1.122Y-2.126
X1.122Y-2.1811
X1.1299Y-2.374
X1.1299Y-2.4055
X1.1457Y-0.5709
X1.1457Y-0.6929
X1.1457Y-1.8465
X1.1535Y-1.5787
X1.1634Y-2.8366
X1.1693Y-2.7205
X1.1693Y-2.7795
X1.1693Y-3.0162
X1.1732Y-2.0945
X1.1811Y-1.8189
X1.189Y-2.4724
X1.2205Y-2.189
X1.2205Y-2.378
X1.2205Y-2.4094
X1.2205Y-2.4409
X1.2205Y-2.4724
X1.2205Y-3.0162
X1.2283Y-1.7835
X1.2323Y-0.5709
X1.2323Y-0.6929
X1.2362Y-3.1186
X1.2441Y-2.3543
X1.252Y-2.189
X1.2677Y-2.3307
X1.2756Y-2.0315
X1.2756Y-2.063
X1.2756Y-2.0945
X1.2795Y-1.7717
X1.2835Y-2.189
X1.2874Y-1.0827
X1.2953Y-3.0123
X1.2992Y-1.0236
X1.2992Y-2.3307
X1.3071Y-2.0945
X1.3228Y-2.4488
X1.3386Y-2.0945
X1.3425Y-1.6378
X1.3504Y-2.378
X1.3504Y-2.6614
X1.3504Y-2.8425
X1.3543Y-3.0123
X1.3622Y-2.189
X1.3622Y-2.3307
X1.3701Y-0.9528
X1.3701Y-2.0945
X1.3937Y-3.1225
X1.4112Y-0.9471
X1.4173Y-3.0162
X1.4213Y-1.5433
X1.4567Y-1.4882
X1.4606Y-3.0281
X1.5055Y-1.5079
X1.5157Y-3.0039
X1.5236Y-0.8898
X1.5315Y-1.622
X1.5315Y-2.6614
X1.5433Y-2.8661
X1.5709Y-2.9961
X1.6102Y-2.6417
X1.6181Y-3.0197
X1.6339Y-2.3819
X1.6496Y-2.8622
X1.6496Y-3.1378
X1.6496Y-3.2008
X1.6535Y-1.3858
X1.6969Y-1.8898
X1.6969Y-1.9173
X1.6969Y-1.9449
X1.6969Y-1.9724
X1.6969Y-2.0
X1.6969Y-2.0276
X1.6969Y-2.0551
X1.6969Y-2.0827
X1.6969Y-2.1102
X1.6969Y-2.1614
X1.6969Y-2.1929
X1.6969Y-2.2244
X1.7008Y-2.3937
X1.7008Y-2.4213
X1.7008Y-2.4488
X1.7008Y-2.4764
X1.7008Y-2.5039
X1.7008Y-2.5315
X1.7008Y-2.5591
X1.7283Y-2.1614
X1.7283Y-2.1929
X1.7598Y-2.1614
X1.7756Y-2.0433
X1.7874Y-2.1614
X1.8107Y-2.3508
X1.815Y-1.9213
X1.815Y-1.9488
X1.815Y-1.9764
X1.815Y-2.0039
X1.815Y-2.0591
X1.8189Y-1.4882
X1.8268Y-2.0906
X1.8268Y-2.3937
X1.8268Y-2.4528
X1.8268Y-2.5118
X1.8268Y-2.5709
X1.8386Y-1.5906
X1.8465Y-1.6693
X1.8819Y-1.4843
X1.9134Y-2.0984
X1.9724Y-2.0433
X2.0197Y-2.1969
X2.0197Y-2.2559
X2.0197Y-2.374
X2.0197Y-2.5157
X2.0709Y-1.563
X2.1063Y-2.5669
X2.122Y-2.3898
X2.1457Y-2.2677
X2.1496Y-2.3898
X2.1772Y-2.2362
X2.1772Y-2.2677
X2.1772Y-2.3898
X2.1772Y-2.6693
X2.1929Y-1.185
X2.1969Y-2.4094
X2.1969Y-2.437
X2.2165Y-0.9409
X2.2165Y-0.9685
X2.2165Y-0.9961
X2.2165Y-1.0236
X2.2244Y-1.5472
X2.2323Y-1.185
X2.2795Y-2.1969
X2.2795Y-2.2244
X2.2835Y-1.5472
X2.2835Y-1.9764
X2.2835Y-2.0039
X2.2835Y-2.0315
X2.2835Y-2.0591
X2.2835Y-2.0866
X2.2913Y-2.6614
X2.2953Y-0.9409
X2.2953Y-0.9685
X2.2953Y-0.9961
X2.2953Y-1.0236
X2.3189Y-1.185
X2.3425Y-1.5472
X2.3661Y-1.1969
X2.3898Y-2.374
X2.3976Y-1.1969
X2.4055Y-2.1102
X2.4134Y-0.9331
X2.437Y-2.1102
X2.4606Y-1.7598
X2.4843Y-2.122
X2.5079Y-2.2835
X2.5079Y-2.311
X2.5079Y-2.3386
X2.5079Y-2.3661
X2.5118Y-0.6457
X2.5197Y-1.2205
X2.5197Y-1.248
X2.5197Y-1.2756
X2.5197Y-1.3031
X2.5197Y-1.3307
X2.5197Y-1.7598
X2.5236Y-1.0827
X2.5236Y-1.1102
X2.5709Y-2.122
X2.5787Y-1.7598
X2.5866Y-2.2835
X2.5866Y-2.311
X2.5866Y-2.3386
X2.5866Y-2.3661
X2.6063Y-0.8701
X2.6063Y-0.8976
X2.6102Y-2.122
X2.626Y-0.6378
X2.626Y-0.9173
X2.626Y-1.0394
X2.626Y-1.0709
X2.6535Y-0.9173
X2.6575Y-1.0394
X2.6811Y-0.9173
X2.6969Y-0.7402
T5
X0.2697Y-2.4764
X0.2697Y-2.5551
T6
X0.5354Y-0.5559
X0.5354Y-0.6559
X0.5354Y-0.7559
X0.5354Y-0.8559
X0.5354Y-0.9559
X0.5354Y-1.0559
X0.5354Y-1.1559
X0.5354Y-1.2559
T7
X2.2047Y-0.3346
X2.2047Y-2.9724
X2.5984Y-0.3346
X2.5984Y-2.9724
T4
G00X1.1447Y-3.0654
M15
G01X1.1447Y-3.1087
M16
G05
G00X1.1447Y-3.2358
M15
G01X1.1447Y-3.2673
M16
G05
G00X1.4852Y-3.0654
M15
G01X1.4852Y-3.1087
M16
G05
G00X1.4852Y-3.2358
M15
G01X1.4852Y-3.2673
M16
G05
M30
