%TF.GenerationSoftware,KiCad,Pcbnew,7.0.10*%
%TF.CreationDate,2024-02-25T16:32:59+01:00*%
%TF.ProjectId,OBSPro,4f425350-726f-42e6-9b69-6361645f7063,rev?*%
%TF.SameCoordinates,PX7270e00PY2255100*%
%TF.FileFunction,Legend,Bot*%
%TF.FilePolarity,Positive*%
%FSLAX46Y46*%
G04 Gerber Fmt 4.6, Leading zero omitted, Abs format (unit mm)*
G04 Created by KiCad (PCBNEW 7.0.10) date 2024-02-25 16:32:59*
%MOMM*%
%LPD*%
G01*
G04 APERTURE LIST*
G04 Aperture macros list*
%AMRoundRect*
0 Rectangle with rounded corners*
0 $1 Rounding radius*
0 $2 $3 $4 $5 $6 $7 $8 $9 X,Y pos of 4 corners*
0 Add a 4 corners polygon primitive as box body*
4,1,4,$2,$3,$4,$5,$6,$7,$8,$9,$2,$3,0*
0 Add four circle primitives for the rounded corners*
1,1,$1+$1,$2,$3*
1,1,$1+$1,$4,$5*
1,1,$1+$1,$6,$7*
1,1,$1+$1,$8,$9*
0 Add four rect primitives between the rounded corners*
20,1,$1+$1,$2,$3,$4,$5,0*
20,1,$1+$1,$4,$5,$6,$7,0*
20,1,$1+$1,$6,$7,$8,$9,0*
20,1,$1+$1,$8,$9,$2,$3,0*%
G04 Aperture macros list end*
%ADD10C,0.150000*%
%ADD11C,0.120000*%
%ADD12C,3.200000*%
%ADD13RoundRect,0.250000X-0.625000X0.350000X-0.625000X-0.350000X0.625000X-0.350000X0.625000X0.350000X0*%
%ADD14O,1.750000X1.200000*%
%ADD15O,0.900000X2.000000*%
%ADD16O,0.900000X1.700000*%
%ADD17O,2.500000X1.500000*%
%ADD18C,1.800000*%
G04 APERTURE END LIST*
D10*
X68442856Y-15554818D02*
X68919046Y-15554818D01*
X68919046Y-15554818D02*
X68919046Y-14554818D01*
X68157141Y-15507199D02*
X68014284Y-15554818D01*
X68014284Y-15554818D02*
X67776189Y-15554818D01*
X67776189Y-15554818D02*
X67680951Y-15507199D01*
X67680951Y-15507199D02*
X67633332Y-15459579D01*
X67633332Y-15459579D02*
X67585713Y-15364341D01*
X67585713Y-15364341D02*
X67585713Y-15269103D01*
X67585713Y-15269103D02*
X67633332Y-15173865D01*
X67633332Y-15173865D02*
X67680951Y-15126246D01*
X67680951Y-15126246D02*
X67776189Y-15078627D01*
X67776189Y-15078627D02*
X67966665Y-15031008D01*
X67966665Y-15031008D02*
X68061903Y-14983389D01*
X68061903Y-14983389D02*
X68109522Y-14935770D01*
X68109522Y-14935770D02*
X68157141Y-14840532D01*
X68157141Y-14840532D02*
X68157141Y-14745294D01*
X68157141Y-14745294D02*
X68109522Y-14650056D01*
X68109522Y-14650056D02*
X68061903Y-14602437D01*
X68061903Y-14602437D02*
X67966665Y-14554818D01*
X67966665Y-14554818D02*
X67728570Y-14554818D01*
X67728570Y-14554818D02*
X67585713Y-14602437D01*
X67204760Y-14650056D02*
X67157141Y-14602437D01*
X67157141Y-14602437D02*
X67061903Y-14554818D01*
X67061903Y-14554818D02*
X66823808Y-14554818D01*
X66823808Y-14554818D02*
X66728570Y-14602437D01*
X66728570Y-14602437D02*
X66680951Y-14650056D01*
X66680951Y-14650056D02*
X66633332Y-14745294D01*
X66633332Y-14745294D02*
X66633332Y-14840532D01*
X66633332Y-14840532D02*
X66680951Y-14983389D01*
X66680951Y-14983389D02*
X67252379Y-15554818D01*
X67252379Y-15554818D02*
X66633332Y-15554818D01*
D11*
%TO.C,LS2*%
X66599999Y-6500000D02*
X65399999Y-6500000D01*
X65999999Y-5900000D02*
X65999999Y-7100000D01*
X56599999Y-6500000D02*
X55399999Y-6500000D01*
X68999999Y-8500000D02*
G75*
G03*
X52999999Y-8500000I-8000000J0D01*
G01*
X52999999Y-8500000D02*
G75*
G03*
X68999999Y-8500000I8000000J0D01*
G01*
%TD*%
%LPC*%
D12*
%TO.C,H3*%
X49000000Y-80000000D03*
%TD*%
D13*
%TO.C,J2*%
X6850000Y-62900000D03*
D14*
X6850000Y-64900000D03*
%TD*%
D15*
%TO.C,J1*%
X29075000Y-78410000D03*
D16*
X29075000Y-82590000D03*
D15*
X37725000Y-78410000D03*
D16*
X37725000Y-82590000D03*
%TD*%
D17*
%TO.C,J3*%
X13600000Y-31900000D03*
X13600000Y-29360000D03*
X13600000Y-26820000D03*
X13600000Y-24280000D03*
X13600000Y-21740000D03*
X13600000Y-19200000D03*
X13600000Y-16660000D03*
X13600000Y-14120000D03*
%TD*%
D12*
%TO.C,H4*%
X49000000Y-17000000D03*
%TD*%
%TO.C,H2*%
X4000000Y-4000000D03*
%TD*%
D18*
%TO.C,LS1*%
X56000000Y-75500000D03*
X66000000Y-75500000D03*
%TD*%
D12*
%TO.C,H1*%
X4000000Y-80000000D03*
%TD*%
D18*
%TO.C,LS2*%
X65999999Y-8500000D03*
X55999999Y-8500000D03*
%TD*%
G36*
X23159191Y-80718907D02*
G01*
X23195155Y-80768407D01*
X23200000Y-80799000D01*
X23200000Y-83601000D01*
X23181093Y-83659191D01*
X23131593Y-83695155D01*
X23101000Y-83700000D01*
X13799000Y-83700000D01*
X13740809Y-83681093D01*
X13704845Y-83631593D01*
X13700000Y-83601000D01*
X13700000Y-80799000D01*
X13718907Y-80740809D01*
X13768407Y-80704845D01*
X13799000Y-80700000D01*
X23101000Y-80700000D01*
X23159191Y-80718907D01*
G37*
%LPD*%
M02*
